G04 #@! TF.GenerationSoftware,KiCad,Pcbnew,5.1.6-c6e7f7d~87~ubuntu20.04.1*
G04 #@! TF.CreationDate,2020-09-05T21:21:54-07:00*
G04 #@! TF.ProjectId,artix7-pcie-v2,61727469-7837-42d7-9063-69652d76322e,rev?*
G04 #@! TF.SameCoordinates,PX69f4060PY6b00940*
G04 #@! TF.FileFunction,Paste,Bot*
G04 #@! TF.FilePolarity,Positive*
%FSLAX46Y46*%
G04 Gerber Fmt 4.6, Leading zero omitted, Abs format (unit mm)*
G04 Created by KiCad (PCBNEW 5.1.6-c6e7f7d~87~ubuntu20.04.1) date 2020-09-05 21:21:54*
%MOMM*%
%LPD*%
G01*
G04 APERTURE LIST*
%ADD10C,0.010000*%
%ADD11R,1.200000X2.200000*%
%ADD12R,2.200000X1.200000*%
%ADD13R,0.240000X0.600000*%
%ADD14R,0.600000X0.240000*%
%ADD15R,1.210000X0.590000*%
%ADD16R,1.450000X0.590000*%
%ADD17R,0.590000X1.210000*%
%ADD18R,2.900000X2.900000*%
%ADD19R,0.300000X0.750000*%
%ADD20R,0.750000X0.300000*%
%ADD21R,1.200000X1.400000*%
%ADD22R,2.500000X1.800000*%
%ADD23R,1.600000X3.400000*%
%ADD24R,1.000000X4.600000*%
G04 APERTURE END LIST*
D10*
G36*
X45630000Y24230000D02*
G01*
X45630000Y22730000D01*
X46690000Y22730000D01*
X46690000Y24230000D01*
X45630000Y24230000D01*
G37*
X45630000Y24230000D02*
X45630000Y22730000D01*
X46690000Y22730000D01*
X46690000Y24230000D01*
X45630000Y24230000D01*
G36*
X46890000Y24230000D02*
G01*
X46890000Y22730000D01*
X47950000Y22730000D01*
X47950000Y24230000D01*
X46890000Y24230000D01*
G37*
X46890000Y24230000D02*
X46890000Y22730000D01*
X47950000Y22730000D01*
X47950000Y24230000D01*
X46890000Y24230000D01*
G36*
X45090000Y23355000D02*
G01*
X45090000Y23105000D01*
X45430000Y23105000D01*
X45430000Y23355000D01*
X45090000Y23355000D01*
G37*
X45090000Y23355000D02*
X45090000Y23105000D01*
X45430000Y23105000D01*
X45430000Y23355000D01*
X45090000Y23355000D01*
G36*
X45090000Y23855000D02*
G01*
X45090000Y23605000D01*
X45430000Y23605000D01*
X45430000Y23855000D01*
X45090000Y23855000D01*
G37*
X45090000Y23855000D02*
X45090000Y23605000D01*
X45430000Y23605000D01*
X45430000Y23855000D01*
X45090000Y23855000D01*
G36*
X48150000Y23355000D02*
G01*
X48150000Y23105000D01*
X48490000Y23105000D01*
X48490000Y23355000D01*
X48150000Y23355000D01*
G37*
X48150000Y23355000D02*
X48150000Y23105000D01*
X48490000Y23105000D01*
X48490000Y23355000D01*
X48150000Y23355000D01*
G36*
X48150000Y23855000D02*
G01*
X48150000Y23605000D01*
X48490000Y23605000D01*
X48490000Y23855000D01*
X48150000Y23855000D01*
G37*
X48150000Y23855000D02*
X48150000Y23605000D01*
X48490000Y23605000D01*
X48490000Y23855000D01*
X48150000Y23855000D01*
G36*
X9930000Y30160000D02*
G01*
X11430000Y30160000D01*
X11430000Y31220000D01*
X9930000Y31220000D01*
X9930000Y30160000D01*
G37*
X9930000Y30160000D02*
X11430000Y30160000D01*
X11430000Y31220000D01*
X9930000Y31220000D01*
X9930000Y30160000D01*
G36*
X9930000Y31420000D02*
G01*
X11430000Y31420000D01*
X11430000Y32480000D01*
X9930000Y32480000D01*
X9930000Y31420000D01*
G37*
X9930000Y31420000D02*
X11430000Y31420000D01*
X11430000Y32480000D01*
X9930000Y32480000D01*
X9930000Y31420000D01*
G36*
X10805000Y29620000D02*
G01*
X11055000Y29620000D01*
X11055000Y29960000D01*
X10805000Y29960000D01*
X10805000Y29620000D01*
G37*
X10805000Y29620000D02*
X11055000Y29620000D01*
X11055000Y29960000D01*
X10805000Y29960000D01*
X10805000Y29620000D01*
G36*
X10305000Y29620000D02*
G01*
X10555000Y29620000D01*
X10555000Y29960000D01*
X10305000Y29960000D01*
X10305000Y29620000D01*
G37*
X10305000Y29620000D02*
X10555000Y29620000D01*
X10555000Y29960000D01*
X10305000Y29960000D01*
X10305000Y29620000D01*
G36*
X10805000Y32680000D02*
G01*
X11055000Y32680000D01*
X11055000Y33020000D01*
X10805000Y33020000D01*
X10805000Y32680000D01*
G37*
X10805000Y32680000D02*
X11055000Y32680000D01*
X11055000Y33020000D01*
X10805000Y33020000D01*
X10805000Y32680000D01*
G36*
X10305000Y32680000D02*
G01*
X10555000Y32680000D01*
X10555000Y33020000D01*
X10305000Y33020000D01*
X10305000Y32680000D01*
G37*
X10305000Y32680000D02*
X10555000Y32680000D01*
X10555000Y33020000D01*
X10305000Y33020000D01*
X10305000Y32680000D01*
D11*
X17210000Y13710000D03*
X12810000Y13710000D03*
X39790000Y36900000D03*
X44190000Y36900000D03*
X17190000Y19920000D03*
X12790000Y19920000D03*
X17480000Y26060000D03*
X13080000Y26060000D03*
D12*
X45820000Y8880000D03*
X45820000Y13280000D03*
D13*
X45790000Y24880000D03*
X46290000Y24880000D03*
X46790000Y24880000D03*
X47290000Y24880000D03*
X47790000Y24880000D03*
X47790000Y22080000D03*
X47290000Y22080000D03*
X46790000Y22080000D03*
X46290000Y22080000D03*
X45790000Y22080000D03*
D14*
X9280000Y30320000D03*
X9280000Y30820000D03*
X9280000Y31320000D03*
X9280000Y31820000D03*
X9280000Y32320000D03*
X12080000Y32320000D03*
X12080000Y31820000D03*
X12080000Y31320000D03*
X12080000Y30820000D03*
X12080000Y30320000D03*
D15*
X8265000Y13250000D03*
X8265000Y11350000D03*
X10775000Y11350000D03*
X10775000Y12300000D03*
X10775000Y13250000D03*
X49025000Y35800000D03*
X49025000Y37700000D03*
X46515000Y37700000D03*
X46515000Y36750000D03*
X46515000Y35800000D03*
X8365000Y21090000D03*
X8365000Y19190000D03*
X10875000Y19190000D03*
X10875000Y20140000D03*
X10875000Y21090000D03*
D16*
X8365000Y26550000D03*
X8365000Y25600000D03*
X8365000Y24650000D03*
X10675000Y24650000D03*
X10675000Y25600000D03*
X10675000Y26550000D03*
D17*
X47720000Y17815000D03*
X45820000Y17815000D03*
X45820000Y15305000D03*
X46770000Y15305000D03*
X47720000Y15305000D03*
G36*
G01*
X46080000Y19817500D02*
X46080000Y20162500D01*
G75*
G02*
X46227500Y20310000I147500J0D01*
G01*
X46522500Y20310000D01*
G75*
G02*
X46670000Y20162500I0J-147500D01*
G01*
X46670000Y19817500D01*
G75*
G02*
X46522500Y19670000I-147500J0D01*
G01*
X46227500Y19670000D01*
G75*
G02*
X46080000Y19817500I0J147500D01*
G01*
G37*
G36*
G01*
X45110000Y19817500D02*
X45110000Y20162500D01*
G75*
G02*
X45257500Y20310000I147500J0D01*
G01*
X45552500Y20310000D01*
G75*
G02*
X45700000Y20162500I0J-147500D01*
G01*
X45700000Y19817500D01*
G75*
G02*
X45552500Y19670000I-147500J0D01*
G01*
X45257500Y19670000D01*
G75*
G02*
X45110000Y19817500I0J147500D01*
G01*
G37*
G36*
G01*
X48000000Y20827500D02*
X48000000Y21172500D01*
G75*
G02*
X48147500Y21320000I147500J0D01*
G01*
X48442500Y21320000D01*
G75*
G02*
X48590000Y21172500I0J-147500D01*
G01*
X48590000Y20827500D01*
G75*
G02*
X48442500Y20680000I-147500J0D01*
G01*
X48147500Y20680000D01*
G75*
G02*
X48000000Y20827500I0J147500D01*
G01*
G37*
G36*
G01*
X47030000Y20827500D02*
X47030000Y21172500D01*
G75*
G02*
X47177500Y21320000I147500J0D01*
G01*
X47472500Y21320000D01*
G75*
G02*
X47620000Y21172500I0J-147500D01*
G01*
X47620000Y20827500D01*
G75*
G02*
X47472500Y20680000I-147500J0D01*
G01*
X47177500Y20680000D01*
G75*
G02*
X47030000Y20827500I0J147500D01*
G01*
G37*
G36*
G01*
X46080000Y20827500D02*
X46080000Y21172500D01*
G75*
G02*
X46227500Y21320000I147500J0D01*
G01*
X46522500Y21320000D01*
G75*
G02*
X46670000Y21172500I0J-147500D01*
G01*
X46670000Y20827500D01*
G75*
G02*
X46522500Y20680000I-147500J0D01*
G01*
X46227500Y20680000D01*
G75*
G02*
X46080000Y20827500I0J147500D01*
G01*
G37*
G36*
G01*
X45110000Y20827500D02*
X45110000Y21172500D01*
G75*
G02*
X45257500Y21320000I147500J0D01*
G01*
X45552500Y21320000D01*
G75*
G02*
X45700000Y21172500I0J-147500D01*
G01*
X45700000Y20827500D01*
G75*
G02*
X45552500Y20680000I-147500J0D01*
G01*
X45257500Y20680000D01*
G75*
G02*
X45110000Y20827500I0J147500D01*
G01*
G37*
G36*
G01*
X47310000Y27122500D02*
X47310000Y26777500D01*
G75*
G02*
X47162500Y26630000I-147500J0D01*
G01*
X46867500Y26630000D01*
G75*
G02*
X46720000Y26777500I0J147500D01*
G01*
X46720000Y27122500D01*
G75*
G02*
X46867500Y27270000I147500J0D01*
G01*
X47162500Y27270000D01*
G75*
G02*
X47310000Y27122500I0J-147500D01*
G01*
G37*
G36*
G01*
X48280000Y27122500D02*
X48280000Y26777500D01*
G75*
G02*
X48132500Y26630000I-147500J0D01*
G01*
X47837500Y26630000D01*
G75*
G02*
X47690000Y26777500I0J147500D01*
G01*
X47690000Y27122500D01*
G75*
G02*
X47837500Y27270000I147500J0D01*
G01*
X48132500Y27270000D01*
G75*
G02*
X48280000Y27122500I0J-147500D01*
G01*
G37*
G36*
G01*
X13332500Y32500000D02*
X12987500Y32500000D01*
G75*
G02*
X12840000Y32647500I0J147500D01*
G01*
X12840000Y32942500D01*
G75*
G02*
X12987500Y33090000I147500J0D01*
G01*
X13332500Y33090000D01*
G75*
G02*
X13480000Y32942500I0J-147500D01*
G01*
X13480000Y32647500D01*
G75*
G02*
X13332500Y32500000I-147500J0D01*
G01*
G37*
G36*
G01*
X13332500Y31530000D02*
X12987500Y31530000D01*
G75*
G02*
X12840000Y31677500I0J147500D01*
G01*
X12840000Y31972500D01*
G75*
G02*
X12987500Y32120000I147500J0D01*
G01*
X13332500Y32120000D01*
G75*
G02*
X13480000Y31972500I0J-147500D01*
G01*
X13480000Y31677500D01*
G75*
G02*
X13332500Y31530000I-147500J0D01*
G01*
G37*
G36*
G01*
X13332500Y30580000D02*
X12987500Y30580000D01*
G75*
G02*
X12840000Y30727500I0J147500D01*
G01*
X12840000Y31022500D01*
G75*
G02*
X12987500Y31170000I147500J0D01*
G01*
X13332500Y31170000D01*
G75*
G02*
X13480000Y31022500I0J-147500D01*
G01*
X13480000Y30727500D01*
G75*
G02*
X13332500Y30580000I-147500J0D01*
G01*
G37*
G36*
G01*
X13332500Y29610000D02*
X12987500Y29610000D01*
G75*
G02*
X12840000Y29757500I0J147500D01*
G01*
X12840000Y30052500D01*
G75*
G02*
X12987500Y30200000I147500J0D01*
G01*
X13332500Y30200000D01*
G75*
G02*
X13480000Y30052500I0J-147500D01*
G01*
X13480000Y29757500D01*
G75*
G02*
X13332500Y29610000I-147500J0D01*
G01*
G37*
G36*
G01*
X46780000Y34297500D02*
X46780000Y34642500D01*
G75*
G02*
X46927500Y34790000I147500J0D01*
G01*
X47222500Y34790000D01*
G75*
G02*
X47370000Y34642500I0J-147500D01*
G01*
X47370000Y34297500D01*
G75*
G02*
X47222500Y34150000I-147500J0D01*
G01*
X46927500Y34150000D01*
G75*
G02*
X46780000Y34297500I0J147500D01*
G01*
G37*
G36*
G01*
X45810000Y34297500D02*
X45810000Y34642500D01*
G75*
G02*
X45957500Y34790000I147500J0D01*
G01*
X46252500Y34790000D01*
G75*
G02*
X46400000Y34642500I0J-147500D01*
G01*
X46400000Y34297500D01*
G75*
G02*
X46252500Y34150000I-147500J0D01*
G01*
X45957500Y34150000D01*
G75*
G02*
X45810000Y34297500I0J147500D01*
G01*
G37*
G36*
G01*
X9980000Y15702500D02*
X9980000Y15357500D01*
G75*
G02*
X9832500Y15210000I-147500J0D01*
G01*
X9537500Y15210000D01*
G75*
G02*
X9390000Y15357500I0J147500D01*
G01*
X9390000Y15702500D01*
G75*
G02*
X9537500Y15850000I147500J0D01*
G01*
X9832500Y15850000D01*
G75*
G02*
X9980000Y15702500I0J-147500D01*
G01*
G37*
G36*
G01*
X10950000Y15702500D02*
X10950000Y15357500D01*
G75*
G02*
X10802500Y15210000I-147500J0D01*
G01*
X10507500Y15210000D01*
G75*
G02*
X10360000Y15357500I0J147500D01*
G01*
X10360000Y15702500D01*
G75*
G02*
X10507500Y15850000I147500J0D01*
G01*
X10802500Y15850000D01*
G75*
G02*
X10950000Y15702500I0J-147500D01*
G01*
G37*
G36*
G01*
X9980000Y14702500D02*
X9980000Y14357500D01*
G75*
G02*
X9832500Y14210000I-147500J0D01*
G01*
X9537500Y14210000D01*
G75*
G02*
X9390000Y14357500I0J147500D01*
G01*
X9390000Y14702500D01*
G75*
G02*
X9537500Y14850000I147500J0D01*
G01*
X9832500Y14850000D01*
G75*
G02*
X9980000Y14702500I0J-147500D01*
G01*
G37*
G36*
G01*
X10950000Y14702500D02*
X10950000Y14357500D01*
G75*
G02*
X10802500Y14210000I-147500J0D01*
G01*
X10507500Y14210000D01*
G75*
G02*
X10360000Y14357500I0J147500D01*
G01*
X10360000Y14702500D01*
G75*
G02*
X10507500Y14850000I147500J0D01*
G01*
X10802500Y14850000D01*
G75*
G02*
X10950000Y14702500I0J-147500D01*
G01*
G37*
G36*
G01*
X48730000Y34297500D02*
X48730000Y34642500D01*
G75*
G02*
X48877500Y34790000I147500J0D01*
G01*
X49172500Y34790000D01*
G75*
G02*
X49320000Y34642500I0J-147500D01*
G01*
X49320000Y34297500D01*
G75*
G02*
X49172500Y34150000I-147500J0D01*
G01*
X48877500Y34150000D01*
G75*
G02*
X48730000Y34297500I0J147500D01*
G01*
G37*
G36*
G01*
X47760000Y34297500D02*
X47760000Y34642500D01*
G75*
G02*
X47907500Y34790000I147500J0D01*
G01*
X48202500Y34790000D01*
G75*
G02*
X48350000Y34642500I0J-147500D01*
G01*
X48350000Y34297500D01*
G75*
G02*
X48202500Y34150000I-147500J0D01*
G01*
X47907500Y34150000D01*
G75*
G02*
X47760000Y34297500I0J147500D01*
G01*
G37*
G36*
G01*
X7930000Y15202500D02*
X7930000Y14857500D01*
G75*
G02*
X7782500Y14710000I-147500J0D01*
G01*
X7487500Y14710000D01*
G75*
G02*
X7340000Y14857500I0J147500D01*
G01*
X7340000Y15202500D01*
G75*
G02*
X7487500Y15350000I147500J0D01*
G01*
X7782500Y15350000D01*
G75*
G02*
X7930000Y15202500I0J-147500D01*
G01*
G37*
G36*
G01*
X8900000Y15202500D02*
X8900000Y14857500D01*
G75*
G02*
X8752500Y14710000I-147500J0D01*
G01*
X8457500Y14710000D01*
G75*
G02*
X8310000Y14857500I0J147500D01*
G01*
X8310000Y15202500D01*
G75*
G02*
X8457500Y15350000I147500J0D01*
G01*
X8752500Y15350000D01*
G75*
G02*
X8900000Y15202500I0J-147500D01*
G01*
G37*
G36*
G01*
X50652500Y36480000D02*
X50307500Y36480000D01*
G75*
G02*
X50160000Y36627500I0J147500D01*
G01*
X50160000Y36922500D01*
G75*
G02*
X50307500Y37070000I147500J0D01*
G01*
X50652500Y37070000D01*
G75*
G02*
X50800000Y36922500I0J-147500D01*
G01*
X50800000Y36627500D01*
G75*
G02*
X50652500Y36480000I-147500J0D01*
G01*
G37*
G36*
G01*
X50652500Y35510000D02*
X50307500Y35510000D01*
G75*
G02*
X50160000Y35657500I0J147500D01*
G01*
X50160000Y35952500D01*
G75*
G02*
X50307500Y36100000I147500J0D01*
G01*
X50652500Y36100000D01*
G75*
G02*
X50800000Y35952500I0J-147500D01*
G01*
X50800000Y35657500D01*
G75*
G02*
X50652500Y35510000I-147500J0D01*
G01*
G37*
G36*
G01*
X9040000Y23532500D02*
X9040000Y23187500D01*
G75*
G02*
X8892500Y23040000I-147500J0D01*
G01*
X8597500Y23040000D01*
G75*
G02*
X8450000Y23187500I0J147500D01*
G01*
X8450000Y23532500D01*
G75*
G02*
X8597500Y23680000I147500J0D01*
G01*
X8892500Y23680000D01*
G75*
G02*
X9040000Y23532500I0J-147500D01*
G01*
G37*
G36*
G01*
X10010000Y23532500D02*
X10010000Y23187500D01*
G75*
G02*
X9862500Y23040000I-147500J0D01*
G01*
X9567500Y23040000D01*
G75*
G02*
X9420000Y23187500I0J147500D01*
G01*
X9420000Y23532500D01*
G75*
G02*
X9567500Y23680000I147500J0D01*
G01*
X9862500Y23680000D01*
G75*
G02*
X10010000Y23532500I0J-147500D01*
G01*
G37*
G36*
G01*
X9420000Y22197500D02*
X9420000Y22542500D01*
G75*
G02*
X9567500Y22690000I147500J0D01*
G01*
X9862500Y22690000D01*
G75*
G02*
X10010000Y22542500I0J-147500D01*
G01*
X10010000Y22197500D01*
G75*
G02*
X9862500Y22050000I-147500J0D01*
G01*
X9567500Y22050000D01*
G75*
G02*
X9420000Y22197500I0J147500D01*
G01*
G37*
G36*
G01*
X8450000Y22197500D02*
X8450000Y22542500D01*
G75*
G02*
X8597500Y22690000I147500J0D01*
G01*
X8892500Y22690000D01*
G75*
G02*
X9040000Y22542500I0J-147500D01*
G01*
X9040000Y22197500D01*
G75*
G02*
X8892500Y22050000I-147500J0D01*
G01*
X8597500Y22050000D01*
G75*
G02*
X8450000Y22197500I0J147500D01*
G01*
G37*
G36*
G01*
X9360000Y28002500D02*
X9360000Y27657500D01*
G75*
G02*
X9212500Y27510000I-147500J0D01*
G01*
X8917500Y27510000D01*
G75*
G02*
X8770000Y27657500I0J147500D01*
G01*
X8770000Y28002500D01*
G75*
G02*
X8917500Y28150000I147500J0D01*
G01*
X9212500Y28150000D01*
G75*
G02*
X9360000Y28002500I0J-147500D01*
G01*
G37*
G36*
G01*
X10330000Y28002500D02*
X10330000Y27657500D01*
G75*
G02*
X10182500Y27510000I-147500J0D01*
G01*
X9887500Y27510000D01*
G75*
G02*
X9740000Y27657500I0J147500D01*
G01*
X9740000Y28002500D01*
G75*
G02*
X9887500Y28150000I147500J0D01*
G01*
X10182500Y28150000D01*
G75*
G02*
X10330000Y28002500I0J-147500D01*
G01*
G37*
G36*
G01*
X9350000Y29012500D02*
X9350000Y28667500D01*
G75*
G02*
X9202500Y28520000I-147500J0D01*
G01*
X8907500Y28520000D01*
G75*
G02*
X8760000Y28667500I0J147500D01*
G01*
X8760000Y29012500D01*
G75*
G02*
X8907500Y29160000I147500J0D01*
G01*
X9202500Y29160000D01*
G75*
G02*
X9350000Y29012500I0J-147500D01*
G01*
G37*
G36*
G01*
X10320000Y29012500D02*
X10320000Y28667500D01*
G75*
G02*
X10172500Y28520000I-147500J0D01*
G01*
X9877500Y28520000D01*
G75*
G02*
X9730000Y28667500I0J147500D01*
G01*
X9730000Y29012500D01*
G75*
G02*
X9877500Y29160000I147500J0D01*
G01*
X10172500Y29160000D01*
G75*
G02*
X10320000Y29012500I0J-147500D01*
G01*
G37*
G36*
G01*
X49262500Y15470000D02*
X48917500Y15470000D01*
G75*
G02*
X48770000Y15617500I0J147500D01*
G01*
X48770000Y15912500D01*
G75*
G02*
X48917500Y16060000I147500J0D01*
G01*
X49262500Y16060000D01*
G75*
G02*
X49410000Y15912500I0J-147500D01*
G01*
X49410000Y15617500D01*
G75*
G02*
X49262500Y15470000I-147500J0D01*
G01*
G37*
G36*
G01*
X49262500Y14500000D02*
X48917500Y14500000D01*
G75*
G02*
X48770000Y14647500I0J147500D01*
G01*
X48770000Y14942500D01*
G75*
G02*
X48917500Y15090000I147500J0D01*
G01*
X49262500Y15090000D01*
G75*
G02*
X49410000Y14942500I0J-147500D01*
G01*
X49410000Y14647500D01*
G75*
G02*
X49262500Y14500000I-147500J0D01*
G01*
G37*
G36*
G01*
X6200000Y26702500D02*
X6200000Y26357500D01*
G75*
G02*
X6052500Y26210000I-147500J0D01*
G01*
X5757500Y26210000D01*
G75*
G02*
X5610000Y26357500I0J147500D01*
G01*
X5610000Y26702500D01*
G75*
G02*
X5757500Y26850000I147500J0D01*
G01*
X6052500Y26850000D01*
G75*
G02*
X6200000Y26702500I0J-147500D01*
G01*
G37*
G36*
G01*
X7170000Y26702500D02*
X7170000Y26357500D01*
G75*
G02*
X7022500Y26210000I-147500J0D01*
G01*
X6727500Y26210000D01*
G75*
G02*
X6580000Y26357500I0J147500D01*
G01*
X6580000Y26702500D01*
G75*
G02*
X6727500Y26850000I147500J0D01*
G01*
X7022500Y26850000D01*
G75*
G02*
X7170000Y26702500I0J-147500D01*
G01*
G37*
G36*
G01*
X49262500Y17420000D02*
X48917500Y17420000D01*
G75*
G02*
X48770000Y17567500I0J147500D01*
G01*
X48770000Y17862500D01*
G75*
G02*
X48917500Y18010000I147500J0D01*
G01*
X49262500Y18010000D01*
G75*
G02*
X49410000Y17862500I0J-147500D01*
G01*
X49410000Y17567500D01*
G75*
G02*
X49262500Y17420000I-147500J0D01*
G01*
G37*
G36*
G01*
X49262500Y16450000D02*
X48917500Y16450000D01*
G75*
G02*
X48770000Y16597500I0J147500D01*
G01*
X48770000Y16892500D01*
G75*
G02*
X48917500Y17040000I147500J0D01*
G01*
X49262500Y17040000D01*
G75*
G02*
X49410000Y16892500I0J-147500D01*
G01*
X49410000Y16597500D01*
G75*
G02*
X49262500Y16450000I-147500J0D01*
G01*
G37*
G36*
G01*
X49262500Y19360000D02*
X48917500Y19360000D01*
G75*
G02*
X48770000Y19507500I0J147500D01*
G01*
X48770000Y19802500D01*
G75*
G02*
X48917500Y19950000I147500J0D01*
G01*
X49262500Y19950000D01*
G75*
G02*
X49410000Y19802500I0J-147500D01*
G01*
X49410000Y19507500D01*
G75*
G02*
X49262500Y19360000I-147500J0D01*
G01*
G37*
G36*
G01*
X49262500Y18390000D02*
X48917500Y18390000D01*
G75*
G02*
X48770000Y18537500I0J147500D01*
G01*
X48770000Y18832500D01*
G75*
G02*
X48917500Y18980000I147500J0D01*
G01*
X49262500Y18980000D01*
G75*
G02*
X49410000Y18832500I0J-147500D01*
G01*
X49410000Y18537500D01*
G75*
G02*
X49262500Y18390000I-147500J0D01*
G01*
G37*
G36*
G01*
X6200000Y28052500D02*
X6200000Y27707500D01*
G75*
G02*
X6052500Y27560000I-147500J0D01*
G01*
X5757500Y27560000D01*
G75*
G02*
X5610000Y27707500I0J147500D01*
G01*
X5610000Y28052500D01*
G75*
G02*
X5757500Y28200000I147500J0D01*
G01*
X6052500Y28200000D01*
G75*
G02*
X6200000Y28052500I0J-147500D01*
G01*
G37*
G36*
G01*
X7170000Y28052500D02*
X7170000Y27707500D01*
G75*
G02*
X7022500Y27560000I-147500J0D01*
G01*
X6727500Y27560000D01*
G75*
G02*
X6580000Y27707500I0J147500D01*
G01*
X6580000Y28052500D01*
G75*
G02*
X6727500Y28200000I147500J0D01*
G01*
X7022500Y28200000D01*
G75*
G02*
X7170000Y28052500I0J-147500D01*
G01*
G37*
G36*
G01*
X44462500Y21770000D02*
X44117500Y21770000D01*
G75*
G02*
X43970000Y21917500I0J147500D01*
G01*
X43970000Y22212500D01*
G75*
G02*
X44117500Y22360000I147500J0D01*
G01*
X44462500Y22360000D01*
G75*
G02*
X44610000Y22212500I0J-147500D01*
G01*
X44610000Y21917500D01*
G75*
G02*
X44462500Y21770000I-147500J0D01*
G01*
G37*
G36*
G01*
X44462500Y20800000D02*
X44117500Y20800000D01*
G75*
G02*
X43970000Y20947500I0J147500D01*
G01*
X43970000Y21242500D01*
G75*
G02*
X44117500Y21390000I147500J0D01*
G01*
X44462500Y21390000D01*
G75*
G02*
X44610000Y21242500I0J-147500D01*
G01*
X44610000Y20947500D01*
G75*
G02*
X44462500Y20800000I-147500J0D01*
G01*
G37*
G36*
G01*
X13987500Y30200000D02*
X14332500Y30200000D01*
G75*
G02*
X14480000Y30052500I0J-147500D01*
G01*
X14480000Y29757500D01*
G75*
G02*
X14332500Y29610000I-147500J0D01*
G01*
X13987500Y29610000D01*
G75*
G02*
X13840000Y29757500I0J147500D01*
G01*
X13840000Y30052500D01*
G75*
G02*
X13987500Y30200000I147500J0D01*
G01*
G37*
G36*
G01*
X13987500Y31170000D02*
X14332500Y31170000D01*
G75*
G02*
X14480000Y31022500I0J-147500D01*
G01*
X14480000Y30727500D01*
G75*
G02*
X14332500Y30580000I-147500J0D01*
G01*
X13987500Y30580000D01*
G75*
G02*
X13840000Y30727500I0J147500D01*
G01*
X13840000Y31022500D01*
G75*
G02*
X13987500Y31170000I147500J0D01*
G01*
G37*
G36*
G01*
X45720000Y25807500D02*
X45720000Y26152500D01*
G75*
G02*
X45867500Y26300000I147500J0D01*
G01*
X46162500Y26300000D01*
G75*
G02*
X46310000Y26152500I0J-147500D01*
G01*
X46310000Y25807500D01*
G75*
G02*
X46162500Y25660000I-147500J0D01*
G01*
X45867500Y25660000D01*
G75*
G02*
X45720000Y25807500I0J147500D01*
G01*
G37*
G36*
G01*
X44750000Y25807500D02*
X44750000Y26152500D01*
G75*
G02*
X44897500Y26300000I147500J0D01*
G01*
X45192500Y26300000D01*
G75*
G02*
X45340000Y26152500I0J-147500D01*
G01*
X45340000Y25807500D01*
G75*
G02*
X45192500Y25660000I-147500J0D01*
G01*
X44897500Y25660000D01*
G75*
G02*
X44750000Y25807500I0J147500D01*
G01*
G37*
G36*
G01*
X8037500Y30610000D02*
X8382500Y30610000D01*
G75*
G02*
X8530000Y30462500I0J-147500D01*
G01*
X8530000Y30167500D01*
G75*
G02*
X8382500Y30020000I-147500J0D01*
G01*
X8037500Y30020000D01*
G75*
G02*
X7890000Y30167500I0J147500D01*
G01*
X7890000Y30462500D01*
G75*
G02*
X8037500Y30610000I147500J0D01*
G01*
G37*
G36*
G01*
X8037500Y31580000D02*
X8382500Y31580000D01*
G75*
G02*
X8530000Y31432500I0J-147500D01*
G01*
X8530000Y31137500D01*
G75*
G02*
X8382500Y30990000I-147500J0D01*
G01*
X8037500Y30990000D01*
G75*
G02*
X7890000Y31137500I0J147500D01*
G01*
X7890000Y31432500D01*
G75*
G02*
X8037500Y31580000I147500J0D01*
G01*
G37*
G36*
G01*
X12945000Y8765000D02*
X12945000Y10015000D01*
G75*
G02*
X13195000Y10265000I250000J0D01*
G01*
X13945000Y10265000D01*
G75*
G02*
X14195000Y10015000I0J-250000D01*
G01*
X14195000Y8765000D01*
G75*
G02*
X13945000Y8515000I-250000J0D01*
G01*
X13195000Y8515000D01*
G75*
G02*
X12945000Y8765000I0J250000D01*
G01*
G37*
G36*
G01*
X10145000Y8765000D02*
X10145000Y10015000D01*
G75*
G02*
X10395000Y10265000I250000J0D01*
G01*
X11145000Y10265000D01*
G75*
G02*
X11395000Y10015000I0J-250000D01*
G01*
X11395000Y8765000D01*
G75*
G02*
X11145000Y8515000I-250000J0D01*
G01*
X10395000Y8515000D01*
G75*
G02*
X10145000Y8765000I0J250000D01*
G01*
G37*
G36*
G01*
X43405000Y33265000D02*
X43405000Y32015000D01*
G75*
G02*
X43155000Y31765000I-250000J0D01*
G01*
X42405000Y31765000D01*
G75*
G02*
X42155000Y32015000I0J250000D01*
G01*
X42155000Y33265000D01*
G75*
G02*
X42405000Y33515000I250000J0D01*
G01*
X43155000Y33515000D01*
G75*
G02*
X43405000Y33265000I0J-250000D01*
G01*
G37*
G36*
G01*
X46205000Y33265000D02*
X46205000Y32015000D01*
G75*
G02*
X45955000Y31765000I-250000J0D01*
G01*
X45205000Y31765000D01*
G75*
G02*
X44955000Y32015000I0J250000D01*
G01*
X44955000Y33265000D01*
G75*
G02*
X45205000Y33515000I250000J0D01*
G01*
X45955000Y33515000D01*
G75*
G02*
X46205000Y33265000I0J-250000D01*
G01*
G37*
G36*
G01*
X10175000Y16645000D02*
X10175000Y17895000D01*
G75*
G02*
X10425000Y18145000I250000J0D01*
G01*
X11175000Y18145000D01*
G75*
G02*
X11425000Y17895000I0J-250000D01*
G01*
X11425000Y16645000D01*
G75*
G02*
X11175000Y16395000I-250000J0D01*
G01*
X10425000Y16395000D01*
G75*
G02*
X10175000Y16645000I0J250000D01*
G01*
G37*
G36*
G01*
X7375000Y16645000D02*
X7375000Y17895000D01*
G75*
G02*
X7625000Y18145000I250000J0D01*
G01*
X8375000Y18145000D01*
G75*
G02*
X8625000Y17895000I0J-250000D01*
G01*
X8625000Y16645000D01*
G75*
G02*
X8375000Y16395000I-250000J0D01*
G01*
X7625000Y16395000D01*
G75*
G02*
X7375000Y16645000I0J250000D01*
G01*
G37*
G36*
G01*
X9192500Y9720000D02*
X8847500Y9720000D01*
G75*
G02*
X8700000Y9867500I0J147500D01*
G01*
X8700000Y10162500D01*
G75*
G02*
X8847500Y10310000I147500J0D01*
G01*
X9192500Y10310000D01*
G75*
G02*
X9340000Y10162500I0J-147500D01*
G01*
X9340000Y9867500D01*
G75*
G02*
X9192500Y9720000I-147500J0D01*
G01*
G37*
G36*
G01*
X9192500Y8750000D02*
X8847500Y8750000D01*
G75*
G02*
X8700000Y8897500I0J147500D01*
G01*
X8700000Y9192500D01*
G75*
G02*
X8847500Y9340000I147500J0D01*
G01*
X9192500Y9340000D01*
G75*
G02*
X9340000Y9192500I0J-147500D01*
G01*
X9340000Y8897500D01*
G75*
G02*
X9192500Y8750000I-147500J0D01*
G01*
G37*
G36*
G01*
X48740000Y38837500D02*
X48740000Y39182500D01*
G75*
G02*
X48887500Y39330000I147500J0D01*
G01*
X49182500Y39330000D01*
G75*
G02*
X49330000Y39182500I0J-147500D01*
G01*
X49330000Y38837500D01*
G75*
G02*
X49182500Y38690000I-147500J0D01*
G01*
X48887500Y38690000D01*
G75*
G02*
X48740000Y38837500I0J147500D01*
G01*
G37*
G36*
G01*
X47770000Y38837500D02*
X47770000Y39182500D01*
G75*
G02*
X47917500Y39330000I147500J0D01*
G01*
X48212500Y39330000D01*
G75*
G02*
X48360000Y39182500I0J-147500D01*
G01*
X48360000Y38837500D01*
G75*
G02*
X48212500Y38690000I-147500J0D01*
G01*
X47917500Y38690000D01*
G75*
G02*
X47770000Y38837500I0J147500D01*
G01*
G37*
G36*
G01*
X15325000Y30765000D02*
X16575000Y30765000D01*
G75*
G02*
X16825000Y30515000I0J-250000D01*
G01*
X16825000Y29765000D01*
G75*
G02*
X16575000Y29515000I-250000J0D01*
G01*
X15325000Y29515000D01*
G75*
G02*
X15075000Y29765000I0J250000D01*
G01*
X15075000Y30515000D01*
G75*
G02*
X15325000Y30765000I250000J0D01*
G01*
G37*
G36*
G01*
X15325000Y33565000D02*
X16575000Y33565000D01*
G75*
G02*
X16825000Y33315000I0J-250000D01*
G01*
X16825000Y32565000D01*
G75*
G02*
X16575000Y32315000I-250000J0D01*
G01*
X15325000Y32315000D01*
G75*
G02*
X15075000Y32565000I0J250000D01*
G01*
X15075000Y33315000D01*
G75*
G02*
X15325000Y33565000I250000J0D01*
G01*
G37*
G36*
G01*
X6787500Y19470000D02*
X7132500Y19470000D01*
G75*
G02*
X7280000Y19322500I0J-147500D01*
G01*
X7280000Y19027500D01*
G75*
G02*
X7132500Y18880000I-147500J0D01*
G01*
X6787500Y18880000D01*
G75*
G02*
X6640000Y19027500I0J147500D01*
G01*
X6640000Y19322500D01*
G75*
G02*
X6787500Y19470000I147500J0D01*
G01*
G37*
G36*
G01*
X6787500Y20440000D02*
X7132500Y20440000D01*
G75*
G02*
X7280000Y20292500I0J-147500D01*
G01*
X7280000Y19997500D01*
G75*
G02*
X7132500Y19850000I-147500J0D01*
G01*
X6787500Y19850000D01*
G75*
G02*
X6640000Y19997500I0J147500D01*
G01*
X6640000Y20292500D01*
G75*
G02*
X6787500Y20440000I147500J0D01*
G01*
G37*
G36*
G01*
X49635000Y10125000D02*
X50885000Y10125000D01*
G75*
G02*
X51135000Y9875000I0J-250000D01*
G01*
X51135000Y9125000D01*
G75*
G02*
X50885000Y8875000I-250000J0D01*
G01*
X49635000Y8875000D01*
G75*
G02*
X49385000Y9125000I0J250000D01*
G01*
X49385000Y9875000D01*
G75*
G02*
X49635000Y10125000I250000J0D01*
G01*
G37*
G36*
G01*
X49635000Y12925000D02*
X50885000Y12925000D01*
G75*
G02*
X51135000Y12675000I0J-250000D01*
G01*
X51135000Y11925000D01*
G75*
G02*
X50885000Y11675000I-250000J0D01*
G01*
X49635000Y11675000D01*
G75*
G02*
X49385000Y11925000I0J250000D01*
G01*
X49385000Y12675000D01*
G75*
G02*
X49635000Y12925000I250000J0D01*
G01*
G37*
G36*
G01*
X6862500Y24350000D02*
X6517500Y24350000D01*
G75*
G02*
X6370000Y24497500I0J147500D01*
G01*
X6370000Y24792500D01*
G75*
G02*
X6517500Y24940000I147500J0D01*
G01*
X6862500Y24940000D01*
G75*
G02*
X7010000Y24792500I0J-147500D01*
G01*
X7010000Y24497500D01*
G75*
G02*
X6862500Y24350000I-147500J0D01*
G01*
G37*
G36*
G01*
X6862500Y23380000D02*
X6517500Y23380000D01*
G75*
G02*
X6370000Y23527500I0J147500D01*
G01*
X6370000Y23822500D01*
G75*
G02*
X6517500Y23970000I147500J0D01*
G01*
X6862500Y23970000D01*
G75*
G02*
X7010000Y23822500I0J-147500D01*
G01*
X7010000Y23527500D01*
G75*
G02*
X6862500Y23380000I-147500J0D01*
G01*
G37*
G36*
G01*
X44642500Y17510000D02*
X44297500Y17510000D01*
G75*
G02*
X44150000Y17657500I0J147500D01*
G01*
X44150000Y17952500D01*
G75*
G02*
X44297500Y18100000I147500J0D01*
G01*
X44642500Y18100000D01*
G75*
G02*
X44790000Y17952500I0J-147500D01*
G01*
X44790000Y17657500D01*
G75*
G02*
X44642500Y17510000I-147500J0D01*
G01*
G37*
G36*
G01*
X44642500Y16540000D02*
X44297500Y16540000D01*
G75*
G02*
X44150000Y16687500I0J147500D01*
G01*
X44150000Y16982500D01*
G75*
G02*
X44297500Y17130000I147500J0D01*
G01*
X44642500Y17130000D01*
G75*
G02*
X44790000Y16982500I0J-147500D01*
G01*
X44790000Y16687500D01*
G75*
G02*
X44642500Y16540000I-147500J0D01*
G01*
G37*
G36*
G01*
X47727500Y43700000D02*
X48072500Y43700000D01*
G75*
G02*
X48220000Y43552500I0J-147500D01*
G01*
X48220000Y43257500D01*
G75*
G02*
X48072500Y43110000I-147500J0D01*
G01*
X47727500Y43110000D01*
G75*
G02*
X47580000Y43257500I0J147500D01*
G01*
X47580000Y43552500D01*
G75*
G02*
X47727500Y43700000I147500J0D01*
G01*
G37*
G36*
G01*
X47727500Y44670000D02*
X48072500Y44670000D01*
G75*
G02*
X48220000Y44522500I0J-147500D01*
G01*
X48220000Y44227500D01*
G75*
G02*
X48072500Y44080000I-147500J0D01*
G01*
X47727500Y44080000D01*
G75*
G02*
X47580000Y44227500I0J147500D01*
G01*
X47580000Y44522500D01*
G75*
G02*
X47727500Y44670000I147500J0D01*
G01*
G37*
G36*
G01*
X14527500Y43800000D02*
X14872500Y43800000D01*
G75*
G02*
X15020000Y43652500I0J-147500D01*
G01*
X15020000Y43357500D01*
G75*
G02*
X14872500Y43210000I-147500J0D01*
G01*
X14527500Y43210000D01*
G75*
G02*
X14380000Y43357500I0J147500D01*
G01*
X14380000Y43652500D01*
G75*
G02*
X14527500Y43800000I147500J0D01*
G01*
G37*
G36*
G01*
X14527500Y44770000D02*
X14872500Y44770000D01*
G75*
G02*
X15020000Y44622500I0J-147500D01*
G01*
X15020000Y44327500D01*
G75*
G02*
X14872500Y44180000I-147500J0D01*
G01*
X14527500Y44180000D01*
G75*
G02*
X14380000Y44327500I0J147500D01*
G01*
X14380000Y44622500D01*
G75*
G02*
X14527500Y44770000I147500J0D01*
G01*
G37*
G36*
G01*
X20850000Y30515001D02*
X20850000Y29664999D01*
G75*
G02*
X20600001Y29415000I-249999J0D01*
G01*
X19699999Y29415000D01*
G75*
G02*
X19450000Y29664999I0J249999D01*
G01*
X19450000Y30515001D01*
G75*
G02*
X19699999Y30765000I249999J0D01*
G01*
X20600001Y30765000D01*
G75*
G02*
X20850000Y30515001I0J-249999D01*
G01*
G37*
G36*
G01*
X23550000Y30515001D02*
X23550000Y29664999D01*
G75*
G02*
X23300001Y29415000I-249999J0D01*
G01*
X22399999Y29415000D01*
G75*
G02*
X22150000Y29664999I0J249999D01*
G01*
X22150000Y30515001D01*
G75*
G02*
X22399999Y30765000I249999J0D01*
G01*
X23300001Y30765000D01*
G75*
G02*
X23550000Y30515001I0J-249999D01*
G01*
G37*
G36*
G01*
X21150000Y21064999D02*
X21150000Y21915001D01*
G75*
G02*
X21399999Y22165000I249999J0D01*
G01*
X22300001Y22165000D01*
G75*
G02*
X22550000Y21915001I0J-249999D01*
G01*
X22550000Y21064999D01*
G75*
G02*
X22300001Y20815000I-249999J0D01*
G01*
X21399999Y20815000D01*
G75*
G02*
X21150000Y21064999I0J249999D01*
G01*
G37*
G36*
G01*
X18450000Y21064999D02*
X18450000Y21915001D01*
G75*
G02*
X18699999Y22165000I249999J0D01*
G01*
X19600001Y22165000D01*
G75*
G02*
X19850000Y21915001I0J-249999D01*
G01*
X19850000Y21064999D01*
G75*
G02*
X19600001Y20815000I-249999J0D01*
G01*
X18699999Y20815000D01*
G75*
G02*
X18450000Y21064999I0J249999D01*
G01*
G37*
G36*
G01*
X37150000Y36364999D02*
X37150000Y37215001D01*
G75*
G02*
X37399999Y37465000I249999J0D01*
G01*
X38300001Y37465000D01*
G75*
G02*
X38550000Y37215001I0J-249999D01*
G01*
X38550000Y36364999D01*
G75*
G02*
X38300001Y36115000I-249999J0D01*
G01*
X37399999Y36115000D01*
G75*
G02*
X37150000Y36364999I0J249999D01*
G01*
G37*
G36*
G01*
X34450000Y36364999D02*
X34450000Y37215001D01*
G75*
G02*
X34699999Y37465000I249999J0D01*
G01*
X35600001Y37465000D01*
G75*
G02*
X35850000Y37215001I0J-249999D01*
G01*
X35850000Y36364999D01*
G75*
G02*
X35600001Y36115000I-249999J0D01*
G01*
X34699999Y36115000D01*
G75*
G02*
X34450000Y36364999I0J249999D01*
G01*
G37*
G36*
G01*
X54025001Y43040000D02*
X53174999Y43040000D01*
G75*
G02*
X52925000Y43289999I0J249999D01*
G01*
X52925000Y44190001D01*
G75*
G02*
X53174999Y44440000I249999J0D01*
G01*
X54025001Y44440000D01*
G75*
G02*
X54275000Y44190001I0J-249999D01*
G01*
X54275000Y43289999D01*
G75*
G02*
X54025001Y43040000I-249999J0D01*
G01*
G37*
G36*
G01*
X54025001Y40340000D02*
X53174999Y40340000D01*
G75*
G02*
X52925000Y40589999I0J249999D01*
G01*
X52925000Y41490001D01*
G75*
G02*
X53174999Y41740000I249999J0D01*
G01*
X54025001Y41740000D01*
G75*
G02*
X54275000Y41490001I0J-249999D01*
G01*
X54275000Y40589999D01*
G75*
G02*
X54025001Y40340000I-249999J0D01*
G01*
G37*
G36*
G01*
X53074999Y8140000D02*
X53925001Y8140000D01*
G75*
G02*
X54175000Y7890001I0J-249999D01*
G01*
X54175000Y6989999D01*
G75*
G02*
X53925001Y6740000I-249999J0D01*
G01*
X53074999Y6740000D01*
G75*
G02*
X52825000Y6989999I0J249999D01*
G01*
X52825000Y7890001D01*
G75*
G02*
X53074999Y8140000I249999J0D01*
G01*
G37*
G36*
G01*
X53074999Y10840000D02*
X53925001Y10840000D01*
G75*
G02*
X54175000Y10590001I0J-249999D01*
G01*
X54175000Y9689999D01*
G75*
G02*
X53925001Y9440000I-249999J0D01*
G01*
X53074999Y9440000D01*
G75*
G02*
X52825000Y9689999I0J249999D01*
G01*
X52825000Y10590001D01*
G75*
G02*
X53074999Y10840000I249999J0D01*
G01*
G37*
G36*
G01*
X36450000Y25964999D02*
X36450000Y26815001D01*
G75*
G02*
X36699999Y27065000I249999J0D01*
G01*
X37600001Y27065000D01*
G75*
G02*
X37850000Y26815001I0J-249999D01*
G01*
X37850000Y25964999D01*
G75*
G02*
X37600001Y25715000I-249999J0D01*
G01*
X36699999Y25715000D01*
G75*
G02*
X36450000Y25964999I0J249999D01*
G01*
G37*
G36*
G01*
X33750000Y25964999D02*
X33750000Y26815001D01*
G75*
G02*
X33999999Y27065000I249999J0D01*
G01*
X34900001Y27065000D01*
G75*
G02*
X35150000Y26815001I0J-249999D01*
G01*
X35150000Y25964999D01*
G75*
G02*
X34900001Y25715000I-249999J0D01*
G01*
X33999999Y25715000D01*
G75*
G02*
X33750000Y25964999I0J249999D01*
G01*
G37*
G36*
G01*
X24574999Y19240000D02*
X25425001Y19240000D01*
G75*
G02*
X25675000Y18990001I0J-249999D01*
G01*
X25675000Y18089999D01*
G75*
G02*
X25425001Y17840000I-249999J0D01*
G01*
X24574999Y17840000D01*
G75*
G02*
X24325000Y18089999I0J249999D01*
G01*
X24325000Y18990001D01*
G75*
G02*
X24574999Y19240000I249999J0D01*
G01*
G37*
G36*
G01*
X24574999Y21940000D02*
X25425001Y21940000D01*
G75*
G02*
X25675000Y21690001I0J-249999D01*
G01*
X25675000Y20789999D01*
G75*
G02*
X25425001Y20540000I-249999J0D01*
G01*
X24574999Y20540000D01*
G75*
G02*
X24325000Y20789999I0J249999D01*
G01*
X24325000Y21690001D01*
G75*
G02*
X24574999Y21940000I249999J0D01*
G01*
G37*
G36*
G01*
X35150000Y29764999D02*
X35150000Y30615001D01*
G75*
G02*
X35399999Y30865000I249999J0D01*
G01*
X36300001Y30865000D01*
G75*
G02*
X36550000Y30615001I0J-249999D01*
G01*
X36550000Y29764999D01*
G75*
G02*
X36300001Y29515000I-249999J0D01*
G01*
X35399999Y29515000D01*
G75*
G02*
X35150000Y29764999I0J249999D01*
G01*
G37*
G36*
G01*
X32450000Y29764999D02*
X32450000Y30615001D01*
G75*
G02*
X32699999Y30865000I249999J0D01*
G01*
X33600001Y30865000D01*
G75*
G02*
X33850000Y30615001I0J-249999D01*
G01*
X33850000Y29764999D01*
G75*
G02*
X33600001Y29515000I-249999J0D01*
G01*
X32699999Y29515000D01*
G75*
G02*
X32450000Y29764999I0J249999D01*
G01*
G37*
G36*
G01*
X5974999Y41940000D02*
X6825001Y41940000D01*
G75*
G02*
X7075000Y41690001I0J-249999D01*
G01*
X7075000Y40789999D01*
G75*
G02*
X6825001Y40540000I-249999J0D01*
G01*
X5974999Y40540000D01*
G75*
G02*
X5725000Y40789999I0J249999D01*
G01*
X5725000Y41690001D01*
G75*
G02*
X5974999Y41940000I249999J0D01*
G01*
G37*
G36*
G01*
X5974999Y44640000D02*
X6825001Y44640000D01*
G75*
G02*
X7075000Y44390001I0J-249999D01*
G01*
X7075000Y43489999D01*
G75*
G02*
X6825001Y43240000I-249999J0D01*
G01*
X5974999Y43240000D01*
G75*
G02*
X5725000Y43489999I0J249999D01*
G01*
X5725000Y44390001D01*
G75*
G02*
X5974999Y44640000I249999J0D01*
G01*
G37*
G36*
G01*
X7015001Y8750000D02*
X6164999Y8750000D01*
G75*
G02*
X5915000Y8999999I0J249999D01*
G01*
X5915000Y9900001D01*
G75*
G02*
X6164999Y10150000I249999J0D01*
G01*
X7015001Y10150000D01*
G75*
G02*
X7265000Y9900001I0J-249999D01*
G01*
X7265000Y8999999D01*
G75*
G02*
X7015001Y8750000I-249999J0D01*
G01*
G37*
G36*
G01*
X7015001Y6050000D02*
X6164999Y6050000D01*
G75*
G02*
X5915000Y6299999I0J249999D01*
G01*
X5915000Y7200001D01*
G75*
G02*
X6164999Y7450000I249999J0D01*
G01*
X7015001Y7450000D01*
G75*
G02*
X7265000Y7200001I0J-249999D01*
G01*
X7265000Y6299999D01*
G75*
G02*
X7015001Y6050000I-249999J0D01*
G01*
G37*
G36*
G01*
X37510000Y15417500D02*
X37510000Y15762500D01*
G75*
G02*
X37657500Y15910000I147500J0D01*
G01*
X37952500Y15910000D01*
G75*
G02*
X38100000Y15762500I0J-147500D01*
G01*
X38100000Y15417500D01*
G75*
G02*
X37952500Y15270000I-147500J0D01*
G01*
X37657500Y15270000D01*
G75*
G02*
X37510000Y15417500I0J147500D01*
G01*
G37*
G36*
G01*
X36540000Y15417500D02*
X36540000Y15762500D01*
G75*
G02*
X36687500Y15910000I147500J0D01*
G01*
X36982500Y15910000D01*
G75*
G02*
X37130000Y15762500I0J-147500D01*
G01*
X37130000Y15417500D01*
G75*
G02*
X36982500Y15270000I-147500J0D01*
G01*
X36687500Y15270000D01*
G75*
G02*
X36540000Y15417500I0J147500D01*
G01*
G37*
G36*
G01*
X48990000Y7217500D02*
X48990000Y7562500D01*
G75*
G02*
X49137500Y7710000I147500J0D01*
G01*
X49432500Y7710000D01*
G75*
G02*
X49580000Y7562500I0J-147500D01*
G01*
X49580000Y7217500D01*
G75*
G02*
X49432500Y7070000I-147500J0D01*
G01*
X49137500Y7070000D01*
G75*
G02*
X48990000Y7217500I0J147500D01*
G01*
G37*
G36*
G01*
X48020000Y7217500D02*
X48020000Y7562500D01*
G75*
G02*
X48167500Y7710000I147500J0D01*
G01*
X48462500Y7710000D01*
G75*
G02*
X48610000Y7562500I0J-147500D01*
G01*
X48610000Y7217500D01*
G75*
G02*
X48462500Y7070000I-147500J0D01*
G01*
X48167500Y7070000D01*
G75*
G02*
X48020000Y7217500I0J147500D01*
G01*
G37*
G36*
G01*
X36372500Y20180000D02*
X36027500Y20180000D01*
G75*
G02*
X35880000Y20327500I0J147500D01*
G01*
X35880000Y20622500D01*
G75*
G02*
X36027500Y20770000I147500J0D01*
G01*
X36372500Y20770000D01*
G75*
G02*
X36520000Y20622500I0J-147500D01*
G01*
X36520000Y20327500D01*
G75*
G02*
X36372500Y20180000I-147500J0D01*
G01*
G37*
G36*
G01*
X36372500Y19210000D02*
X36027500Y19210000D01*
G75*
G02*
X35880000Y19357500I0J147500D01*
G01*
X35880000Y19652500D01*
G75*
G02*
X36027500Y19800000I147500J0D01*
G01*
X36372500Y19800000D01*
G75*
G02*
X36520000Y19652500I0J-147500D01*
G01*
X36520000Y19357500D01*
G75*
G02*
X36372500Y19210000I-147500J0D01*
G01*
G37*
G36*
G01*
X28300000Y15002500D02*
X28300000Y14657500D01*
G75*
G02*
X28152500Y14510000I-147500J0D01*
G01*
X27857500Y14510000D01*
G75*
G02*
X27710000Y14657500I0J147500D01*
G01*
X27710000Y15002500D01*
G75*
G02*
X27857500Y15150000I147500J0D01*
G01*
X28152500Y15150000D01*
G75*
G02*
X28300000Y15002500I0J-147500D01*
G01*
G37*
G36*
G01*
X29270000Y15002500D02*
X29270000Y14657500D01*
G75*
G02*
X29122500Y14510000I-147500J0D01*
G01*
X28827500Y14510000D01*
G75*
G02*
X28680000Y14657500I0J147500D01*
G01*
X28680000Y15002500D01*
G75*
G02*
X28827500Y15150000I147500J0D01*
G01*
X29122500Y15150000D01*
G75*
G02*
X29270000Y15002500I0J-147500D01*
G01*
G37*
G36*
G01*
X28760000Y13992500D02*
X28760000Y13647500D01*
G75*
G02*
X28612500Y13500000I-147500J0D01*
G01*
X28317500Y13500000D01*
G75*
G02*
X28170000Y13647500I0J147500D01*
G01*
X28170000Y13992500D01*
G75*
G02*
X28317500Y14140000I147500J0D01*
G01*
X28612500Y14140000D01*
G75*
G02*
X28760000Y13992500I0J-147500D01*
G01*
G37*
G36*
G01*
X29730000Y13992500D02*
X29730000Y13647500D01*
G75*
G02*
X29582500Y13500000I-147500J0D01*
G01*
X29287500Y13500000D01*
G75*
G02*
X29140000Y13647500I0J147500D01*
G01*
X29140000Y13992500D01*
G75*
G02*
X29287500Y14140000I147500J0D01*
G01*
X29582500Y14140000D01*
G75*
G02*
X29730000Y13992500I0J-147500D01*
G01*
G37*
G36*
G01*
X30990000Y13922500D02*
X30990000Y13577500D01*
G75*
G02*
X30842500Y13430000I-147500J0D01*
G01*
X30547500Y13430000D01*
G75*
G02*
X30400000Y13577500I0J147500D01*
G01*
X30400000Y13922500D01*
G75*
G02*
X30547500Y14070000I147500J0D01*
G01*
X30842500Y14070000D01*
G75*
G02*
X30990000Y13922500I0J-147500D01*
G01*
G37*
G36*
G01*
X31960000Y13922500D02*
X31960000Y13577500D01*
G75*
G02*
X31812500Y13430000I-147500J0D01*
G01*
X31517500Y13430000D01*
G75*
G02*
X31370000Y13577500I0J147500D01*
G01*
X31370000Y13922500D01*
G75*
G02*
X31517500Y14070000I147500J0D01*
G01*
X31812500Y14070000D01*
G75*
G02*
X31960000Y13922500I0J-147500D01*
G01*
G37*
G36*
G01*
X38190000Y23317500D02*
X38190000Y23662500D01*
G75*
G02*
X38337500Y23810000I147500J0D01*
G01*
X38632500Y23810000D01*
G75*
G02*
X38780000Y23662500I0J-147500D01*
G01*
X38780000Y23317500D01*
G75*
G02*
X38632500Y23170000I-147500J0D01*
G01*
X38337500Y23170000D01*
G75*
G02*
X38190000Y23317500I0J147500D01*
G01*
G37*
G36*
G01*
X37220000Y23317500D02*
X37220000Y23662500D01*
G75*
G02*
X37367500Y23810000I147500J0D01*
G01*
X37662500Y23810000D01*
G75*
G02*
X37810000Y23662500I0J-147500D01*
G01*
X37810000Y23317500D01*
G75*
G02*
X37662500Y23170000I-147500J0D01*
G01*
X37367500Y23170000D01*
G75*
G02*
X37220000Y23317500I0J147500D01*
G01*
G37*
G36*
G01*
X18340000Y35167500D02*
X18340000Y35512500D01*
G75*
G02*
X18487500Y35660000I147500J0D01*
G01*
X18782500Y35660000D01*
G75*
G02*
X18930000Y35512500I0J-147500D01*
G01*
X18930000Y35167500D01*
G75*
G02*
X18782500Y35020000I-147500J0D01*
G01*
X18487500Y35020000D01*
G75*
G02*
X18340000Y35167500I0J147500D01*
G01*
G37*
G36*
G01*
X17370000Y35167500D02*
X17370000Y35512500D01*
G75*
G02*
X17517500Y35660000I147500J0D01*
G01*
X17812500Y35660000D01*
G75*
G02*
X17960000Y35512500I0J-147500D01*
G01*
X17960000Y35167500D01*
G75*
G02*
X17812500Y35020000I-147500J0D01*
G01*
X17517500Y35020000D01*
G75*
G02*
X17370000Y35167500I0J147500D01*
G01*
G37*
G36*
G01*
X46527500Y43700000D02*
X46872500Y43700000D01*
G75*
G02*
X47020000Y43552500I0J-147500D01*
G01*
X47020000Y43257500D01*
G75*
G02*
X46872500Y43110000I-147500J0D01*
G01*
X46527500Y43110000D01*
G75*
G02*
X46380000Y43257500I0J147500D01*
G01*
X46380000Y43552500D01*
G75*
G02*
X46527500Y43700000I147500J0D01*
G01*
G37*
G36*
G01*
X46527500Y44670000D02*
X46872500Y44670000D01*
G75*
G02*
X47020000Y44522500I0J-147500D01*
G01*
X47020000Y44227500D01*
G75*
G02*
X46872500Y44080000I-147500J0D01*
G01*
X46527500Y44080000D01*
G75*
G02*
X46380000Y44227500I0J147500D01*
G01*
X46380000Y44522500D01*
G75*
G02*
X46527500Y44670000I147500J0D01*
G01*
G37*
G36*
G01*
X13227500Y43800000D02*
X13572500Y43800000D01*
G75*
G02*
X13720000Y43652500I0J-147500D01*
G01*
X13720000Y43357500D01*
G75*
G02*
X13572500Y43210000I-147500J0D01*
G01*
X13227500Y43210000D01*
G75*
G02*
X13080000Y43357500I0J147500D01*
G01*
X13080000Y43652500D01*
G75*
G02*
X13227500Y43800000I147500J0D01*
G01*
G37*
G36*
G01*
X13227500Y44770000D02*
X13572500Y44770000D01*
G75*
G02*
X13720000Y44622500I0J-147500D01*
G01*
X13720000Y44327500D01*
G75*
G02*
X13572500Y44180000I-147500J0D01*
G01*
X13227500Y44180000D01*
G75*
G02*
X13080000Y44327500I0J147500D01*
G01*
X13080000Y44622500D01*
G75*
G02*
X13227500Y44770000I147500J0D01*
G01*
G37*
G36*
G01*
X11627500Y41400000D02*
X11972500Y41400000D01*
G75*
G02*
X12120000Y41252500I0J-147500D01*
G01*
X12120000Y40957500D01*
G75*
G02*
X11972500Y40810000I-147500J0D01*
G01*
X11627500Y40810000D01*
G75*
G02*
X11480000Y40957500I0J147500D01*
G01*
X11480000Y41252500D01*
G75*
G02*
X11627500Y41400000I147500J0D01*
G01*
G37*
G36*
G01*
X11627500Y42370000D02*
X11972500Y42370000D01*
G75*
G02*
X12120000Y42222500I0J-147500D01*
G01*
X12120000Y41927500D01*
G75*
G02*
X11972500Y41780000I-147500J0D01*
G01*
X11627500Y41780000D01*
G75*
G02*
X11480000Y41927500I0J147500D01*
G01*
X11480000Y42222500D01*
G75*
G02*
X11627500Y42370000I147500J0D01*
G01*
G37*
G36*
G01*
X10627500Y41400000D02*
X10972500Y41400000D01*
G75*
G02*
X11120000Y41252500I0J-147500D01*
G01*
X11120000Y40957500D01*
G75*
G02*
X10972500Y40810000I-147500J0D01*
G01*
X10627500Y40810000D01*
G75*
G02*
X10480000Y40957500I0J147500D01*
G01*
X10480000Y41252500D01*
G75*
G02*
X10627500Y41400000I147500J0D01*
G01*
G37*
G36*
G01*
X10627500Y42370000D02*
X10972500Y42370000D01*
G75*
G02*
X11120000Y42222500I0J-147500D01*
G01*
X11120000Y41927500D01*
G75*
G02*
X10972500Y41780000I-147500J0D01*
G01*
X10627500Y41780000D01*
G75*
G02*
X10480000Y41927500I0J147500D01*
G01*
X10480000Y42222500D01*
G75*
G02*
X10627500Y42370000I147500J0D01*
G01*
G37*
G36*
G01*
X42210000Y20062500D02*
X42210000Y19717500D01*
G75*
G02*
X42062500Y19570000I-147500J0D01*
G01*
X41767500Y19570000D01*
G75*
G02*
X41620000Y19717500I0J147500D01*
G01*
X41620000Y20062500D01*
G75*
G02*
X41767500Y20210000I147500J0D01*
G01*
X42062500Y20210000D01*
G75*
G02*
X42210000Y20062500I0J-147500D01*
G01*
G37*
G36*
G01*
X43180000Y20062500D02*
X43180000Y19717500D01*
G75*
G02*
X43032500Y19570000I-147500J0D01*
G01*
X42737500Y19570000D01*
G75*
G02*
X42590000Y19717500I0J147500D01*
G01*
X42590000Y20062500D01*
G75*
G02*
X42737500Y20210000I147500J0D01*
G01*
X43032500Y20210000D01*
G75*
G02*
X43180000Y20062500I0J-147500D01*
G01*
G37*
G36*
G01*
X43207500Y29090000D02*
X43552500Y29090000D01*
G75*
G02*
X43700000Y28942500I0J-147500D01*
G01*
X43700000Y28647500D01*
G75*
G02*
X43552500Y28500000I-147500J0D01*
G01*
X43207500Y28500000D01*
G75*
G02*
X43060000Y28647500I0J147500D01*
G01*
X43060000Y28942500D01*
G75*
G02*
X43207500Y29090000I147500J0D01*
G01*
G37*
G36*
G01*
X43207500Y30060000D02*
X43552500Y30060000D01*
G75*
G02*
X43700000Y29912500I0J-147500D01*
G01*
X43700000Y29617500D01*
G75*
G02*
X43552500Y29470000I-147500J0D01*
G01*
X43207500Y29470000D01*
G75*
G02*
X43060000Y29617500I0J147500D01*
G01*
X43060000Y29912500D01*
G75*
G02*
X43207500Y30060000I147500J0D01*
G01*
G37*
G36*
G01*
X48837500Y29090000D02*
X49182500Y29090000D01*
G75*
G02*
X49330000Y28942500I0J-147500D01*
G01*
X49330000Y28647500D01*
G75*
G02*
X49182500Y28500000I-147500J0D01*
G01*
X48837500Y28500000D01*
G75*
G02*
X48690000Y28647500I0J147500D01*
G01*
X48690000Y28942500D01*
G75*
G02*
X48837500Y29090000I147500J0D01*
G01*
G37*
G36*
G01*
X48837500Y30060000D02*
X49182500Y30060000D01*
G75*
G02*
X49330000Y29912500I0J-147500D01*
G01*
X49330000Y29617500D01*
G75*
G02*
X49182500Y29470000I-147500J0D01*
G01*
X48837500Y29470000D01*
G75*
G02*
X48690000Y29617500I0J147500D01*
G01*
X48690000Y29912500D01*
G75*
G02*
X48837500Y30060000I147500J0D01*
G01*
G37*
G36*
G01*
X44367500Y29090000D02*
X44712500Y29090000D01*
G75*
G02*
X44860000Y28942500I0J-147500D01*
G01*
X44860000Y28647500D01*
G75*
G02*
X44712500Y28500000I-147500J0D01*
G01*
X44367500Y28500000D01*
G75*
G02*
X44220000Y28647500I0J147500D01*
G01*
X44220000Y28942500D01*
G75*
G02*
X44367500Y29090000I147500J0D01*
G01*
G37*
G36*
G01*
X44367500Y30060000D02*
X44712500Y30060000D01*
G75*
G02*
X44860000Y29912500I0J-147500D01*
G01*
X44860000Y29617500D01*
G75*
G02*
X44712500Y29470000I-147500J0D01*
G01*
X44367500Y29470000D01*
G75*
G02*
X44220000Y29617500I0J147500D01*
G01*
X44220000Y29912500D01*
G75*
G02*
X44367500Y30060000I147500J0D01*
G01*
G37*
G36*
G01*
X37897500Y11460000D02*
X38242500Y11460000D01*
G75*
G02*
X38390000Y11312500I0J-147500D01*
G01*
X38390000Y11017500D01*
G75*
G02*
X38242500Y10870000I-147500J0D01*
G01*
X37897500Y10870000D01*
G75*
G02*
X37750000Y11017500I0J147500D01*
G01*
X37750000Y11312500D01*
G75*
G02*
X37897500Y11460000I147500J0D01*
G01*
G37*
G36*
G01*
X37897500Y12430000D02*
X38242500Y12430000D01*
G75*
G02*
X38390000Y12282500I0J-147500D01*
G01*
X38390000Y11987500D01*
G75*
G02*
X38242500Y11840000I-147500J0D01*
G01*
X37897500Y11840000D01*
G75*
G02*
X37750000Y11987500I0J147500D01*
G01*
X37750000Y12282500D01*
G75*
G02*
X37897500Y12430000I147500J0D01*
G01*
G37*
G36*
G01*
X30627500Y19700000D02*
X30972500Y19700000D01*
G75*
G02*
X31120000Y19552500I0J-147500D01*
G01*
X31120000Y19257500D01*
G75*
G02*
X30972500Y19110000I-147500J0D01*
G01*
X30627500Y19110000D01*
G75*
G02*
X30480000Y19257500I0J147500D01*
G01*
X30480000Y19552500D01*
G75*
G02*
X30627500Y19700000I147500J0D01*
G01*
G37*
G36*
G01*
X30627500Y20670000D02*
X30972500Y20670000D01*
G75*
G02*
X31120000Y20522500I0J-147500D01*
G01*
X31120000Y20227500D01*
G75*
G02*
X30972500Y20080000I-147500J0D01*
G01*
X30627500Y20080000D01*
G75*
G02*
X30480000Y20227500I0J147500D01*
G01*
X30480000Y20522500D01*
G75*
G02*
X30627500Y20670000I147500J0D01*
G01*
G37*
G36*
G01*
X32162500Y6160000D02*
X31817500Y6160000D01*
G75*
G02*
X31670000Y6307500I0J147500D01*
G01*
X31670000Y6602500D01*
G75*
G02*
X31817500Y6750000I147500J0D01*
G01*
X32162500Y6750000D01*
G75*
G02*
X32310000Y6602500I0J-147500D01*
G01*
X32310000Y6307500D01*
G75*
G02*
X32162500Y6160000I-147500J0D01*
G01*
G37*
G36*
G01*
X32162500Y5190000D02*
X31817500Y5190000D01*
G75*
G02*
X31670000Y5337500I0J147500D01*
G01*
X31670000Y5632500D01*
G75*
G02*
X31817500Y5780000I147500J0D01*
G01*
X32162500Y5780000D01*
G75*
G02*
X32310000Y5632500I0J-147500D01*
G01*
X32310000Y5337500D01*
G75*
G02*
X32162500Y5190000I-147500J0D01*
G01*
G37*
G36*
G01*
X22690000Y19467500D02*
X22690000Y19812500D01*
G75*
G02*
X22837500Y19960000I147500J0D01*
G01*
X23132500Y19960000D01*
G75*
G02*
X23280000Y19812500I0J-147500D01*
G01*
X23280000Y19467500D01*
G75*
G02*
X23132500Y19320000I-147500J0D01*
G01*
X22837500Y19320000D01*
G75*
G02*
X22690000Y19467500I0J147500D01*
G01*
G37*
G36*
G01*
X21720000Y19467500D02*
X21720000Y19812500D01*
G75*
G02*
X21867500Y19960000I147500J0D01*
G01*
X22162500Y19960000D01*
G75*
G02*
X22310000Y19812500I0J-147500D01*
G01*
X22310000Y19467500D01*
G75*
G02*
X22162500Y19320000I-147500J0D01*
G01*
X21867500Y19320000D01*
G75*
G02*
X21720000Y19467500I0J147500D01*
G01*
G37*
G36*
G01*
X32556326Y40702375D02*
X32312375Y40946327D01*
G75*
G02*
X32312375Y41154923I104298J104298D01*
G01*
X32520971Y41363519D01*
G75*
G02*
X32729567Y41363519I104298J-104298D01*
G01*
X32973519Y41119567D01*
G75*
G02*
X32973519Y40910971I-104298J-104298D01*
G01*
X32764923Y40702375D01*
G75*
G02*
X32556327Y40702375I-104298J104298D01*
G01*
G37*
G36*
G01*
X31870432Y40016481D02*
X31626481Y40260433D01*
G75*
G02*
X31626481Y40469029I104298J104298D01*
G01*
X31835077Y40677625D01*
G75*
G02*
X32043673Y40677625I104298J-104298D01*
G01*
X32287625Y40433673D01*
G75*
G02*
X32287625Y40225077I-104298J-104298D01*
G01*
X32079029Y40016481D01*
G75*
G02*
X31870433Y40016481I-104298J104298D01*
G01*
G37*
G36*
G01*
X33256326Y40002375D02*
X33012375Y40246327D01*
G75*
G02*
X33012375Y40454923I104298J104298D01*
G01*
X33220971Y40663519D01*
G75*
G02*
X33429567Y40663519I104298J-104298D01*
G01*
X33673519Y40419567D01*
G75*
G02*
X33673519Y40210971I-104298J-104298D01*
G01*
X33464923Y40002375D01*
G75*
G02*
X33256327Y40002375I-104298J104298D01*
G01*
G37*
G36*
G01*
X32570432Y39316481D02*
X32326481Y39560433D01*
G75*
G02*
X32326481Y39769029I104298J104298D01*
G01*
X32535077Y39977625D01*
G75*
G02*
X32743673Y39977625I104298J-104298D01*
G01*
X32987625Y39733673D01*
G75*
G02*
X32987625Y39525077I-104298J-104298D01*
G01*
X32779029Y39316481D01*
G75*
G02*
X32570433Y39316481I-104298J104298D01*
G01*
G37*
G36*
G01*
X30872500Y35080000D02*
X30527500Y35080000D01*
G75*
G02*
X30380000Y35227500I0J147500D01*
G01*
X30380000Y35522500D01*
G75*
G02*
X30527500Y35670000I147500J0D01*
G01*
X30872500Y35670000D01*
G75*
G02*
X31020000Y35522500I0J-147500D01*
G01*
X31020000Y35227500D01*
G75*
G02*
X30872500Y35080000I-147500J0D01*
G01*
G37*
G36*
G01*
X30872500Y34110000D02*
X30527500Y34110000D01*
G75*
G02*
X30380000Y34257500I0J147500D01*
G01*
X30380000Y34552500D01*
G75*
G02*
X30527500Y34700000I147500J0D01*
G01*
X30872500Y34700000D01*
G75*
G02*
X31020000Y34552500I0J-147500D01*
G01*
X31020000Y34257500D01*
G75*
G02*
X30872500Y34110000I-147500J0D01*
G01*
G37*
G36*
G01*
X31690000Y28417500D02*
X31690000Y28762500D01*
G75*
G02*
X31837500Y28910000I147500J0D01*
G01*
X32132500Y28910000D01*
G75*
G02*
X32280000Y28762500I0J-147500D01*
G01*
X32280000Y28417500D01*
G75*
G02*
X32132500Y28270000I-147500J0D01*
G01*
X31837500Y28270000D01*
G75*
G02*
X31690000Y28417500I0J147500D01*
G01*
G37*
G36*
G01*
X30720000Y28417500D02*
X30720000Y28762500D01*
G75*
G02*
X30867500Y28910000I147500J0D01*
G01*
X31162500Y28910000D01*
G75*
G02*
X31310000Y28762500I0J-147500D01*
G01*
X31310000Y28417500D01*
G75*
G02*
X31162500Y28270000I-147500J0D01*
G01*
X30867500Y28270000D01*
G75*
G02*
X30720000Y28417500I0J147500D01*
G01*
G37*
G36*
G01*
X7910000Y39762500D02*
X7910000Y39417500D01*
G75*
G02*
X7762500Y39270000I-147500J0D01*
G01*
X7467500Y39270000D01*
G75*
G02*
X7320000Y39417500I0J147500D01*
G01*
X7320000Y39762500D01*
G75*
G02*
X7467500Y39910000I147500J0D01*
G01*
X7762500Y39910000D01*
G75*
G02*
X7910000Y39762500I0J-147500D01*
G01*
G37*
G36*
G01*
X8880000Y39762500D02*
X8880000Y39417500D01*
G75*
G02*
X8732500Y39270000I-147500J0D01*
G01*
X8437500Y39270000D01*
G75*
G02*
X8290000Y39417500I0J147500D01*
G01*
X8290000Y39762500D01*
G75*
G02*
X8437500Y39910000I147500J0D01*
G01*
X8732500Y39910000D01*
G75*
G02*
X8880000Y39762500I0J-147500D01*
G01*
G37*
G36*
G01*
X13690000Y40517500D02*
X13690000Y40862500D01*
G75*
G02*
X13837500Y41010000I147500J0D01*
G01*
X14132500Y41010000D01*
G75*
G02*
X14280000Y40862500I0J-147500D01*
G01*
X14280000Y40517500D01*
G75*
G02*
X14132500Y40370000I-147500J0D01*
G01*
X13837500Y40370000D01*
G75*
G02*
X13690000Y40517500I0J147500D01*
G01*
G37*
G36*
G01*
X12720000Y40517500D02*
X12720000Y40862500D01*
G75*
G02*
X12867500Y41010000I147500J0D01*
G01*
X13162500Y41010000D01*
G75*
G02*
X13310000Y40862500I0J-147500D01*
G01*
X13310000Y40517500D01*
G75*
G02*
X13162500Y40370000I-147500J0D01*
G01*
X12867500Y40370000D01*
G75*
G02*
X12720000Y40517500I0J147500D01*
G01*
G37*
G36*
G01*
X9710000Y34362500D02*
X9710000Y34017500D01*
G75*
G02*
X9562500Y33870000I-147500J0D01*
G01*
X9267500Y33870000D01*
G75*
G02*
X9120000Y34017500I0J147500D01*
G01*
X9120000Y34362500D01*
G75*
G02*
X9267500Y34510000I147500J0D01*
G01*
X9562500Y34510000D01*
G75*
G02*
X9710000Y34362500I0J-147500D01*
G01*
G37*
G36*
G01*
X10680000Y34362500D02*
X10680000Y34017500D01*
G75*
G02*
X10532500Y33870000I-147500J0D01*
G01*
X10237500Y33870000D01*
G75*
G02*
X10090000Y34017500I0J147500D01*
G01*
X10090000Y34362500D01*
G75*
G02*
X10237500Y34510000I147500J0D01*
G01*
X10532500Y34510000D01*
G75*
G02*
X10680000Y34362500I0J-147500D01*
G01*
G37*
G36*
G01*
X16090000Y34717500D02*
X16090000Y35062500D01*
G75*
G02*
X16237500Y35210000I147500J0D01*
G01*
X16532500Y35210000D01*
G75*
G02*
X16680000Y35062500I0J-147500D01*
G01*
X16680000Y34717500D01*
G75*
G02*
X16532500Y34570000I-147500J0D01*
G01*
X16237500Y34570000D01*
G75*
G02*
X16090000Y34717500I0J147500D01*
G01*
G37*
G36*
G01*
X15120000Y34717500D02*
X15120000Y35062500D01*
G75*
G02*
X15267500Y35210000I147500J0D01*
G01*
X15562500Y35210000D01*
G75*
G02*
X15710000Y35062500I0J-147500D01*
G01*
X15710000Y34717500D01*
G75*
G02*
X15562500Y34570000I-147500J0D01*
G01*
X15267500Y34570000D01*
G75*
G02*
X15120000Y34717500I0J147500D01*
G01*
G37*
G36*
G01*
X28740000Y23562500D02*
X28740000Y23217500D01*
G75*
G02*
X28592500Y23070000I-147500J0D01*
G01*
X28297500Y23070000D01*
G75*
G02*
X28150000Y23217500I0J147500D01*
G01*
X28150000Y23562500D01*
G75*
G02*
X28297500Y23710000I147500J0D01*
G01*
X28592500Y23710000D01*
G75*
G02*
X28740000Y23562500I0J-147500D01*
G01*
G37*
G36*
G01*
X29710000Y23562500D02*
X29710000Y23217500D01*
G75*
G02*
X29562500Y23070000I-147500J0D01*
G01*
X29267500Y23070000D01*
G75*
G02*
X29120000Y23217500I0J147500D01*
G01*
X29120000Y23562500D01*
G75*
G02*
X29267500Y23710000I147500J0D01*
G01*
X29562500Y23710000D01*
G75*
G02*
X29710000Y23562500I0J-147500D01*
G01*
G37*
G36*
G01*
X20490000Y7617500D02*
X20490000Y7962500D01*
G75*
G02*
X20637500Y8110000I147500J0D01*
G01*
X20932500Y8110000D01*
G75*
G02*
X21080000Y7962500I0J-147500D01*
G01*
X21080000Y7617500D01*
G75*
G02*
X20932500Y7470000I-147500J0D01*
G01*
X20637500Y7470000D01*
G75*
G02*
X20490000Y7617500I0J147500D01*
G01*
G37*
G36*
G01*
X19520000Y7617500D02*
X19520000Y7962500D01*
G75*
G02*
X19667500Y8110000I147500J0D01*
G01*
X19962500Y8110000D01*
G75*
G02*
X20110000Y7962500I0J-147500D01*
G01*
X20110000Y7617500D01*
G75*
G02*
X19962500Y7470000I-147500J0D01*
G01*
X19667500Y7470000D01*
G75*
G02*
X19520000Y7617500I0J147500D01*
G01*
G37*
G36*
G01*
X31575000Y17165000D02*
X31575000Y18415000D01*
G75*
G02*
X31825000Y18665000I250000J0D01*
G01*
X32575000Y18665000D01*
G75*
G02*
X32825000Y18415000I0J-250000D01*
G01*
X32825000Y17165000D01*
G75*
G02*
X32575000Y16915000I-250000J0D01*
G01*
X31825000Y16915000D01*
G75*
G02*
X31575000Y17165000I0J250000D01*
G01*
G37*
G36*
G01*
X28775000Y17165000D02*
X28775000Y18415000D01*
G75*
G02*
X29025000Y18665000I250000J0D01*
G01*
X29775000Y18665000D01*
G75*
G02*
X30025000Y18415000I0J-250000D01*
G01*
X30025000Y17165000D01*
G75*
G02*
X29775000Y16915000I-250000J0D01*
G01*
X29025000Y16915000D01*
G75*
G02*
X28775000Y17165000I0J250000D01*
G01*
G37*
G36*
G01*
X21422500Y28080000D02*
X21077500Y28080000D01*
G75*
G02*
X20930000Y28227500I0J147500D01*
G01*
X20930000Y28522500D01*
G75*
G02*
X21077500Y28670000I147500J0D01*
G01*
X21422500Y28670000D01*
G75*
G02*
X21570000Y28522500I0J-147500D01*
G01*
X21570000Y28227500D01*
G75*
G02*
X21422500Y28080000I-147500J0D01*
G01*
G37*
G36*
G01*
X21422500Y27110000D02*
X21077500Y27110000D01*
G75*
G02*
X20930000Y27257500I0J147500D01*
G01*
X20930000Y27552500D01*
G75*
G02*
X21077500Y27700000I147500J0D01*
G01*
X21422500Y27700000D01*
G75*
G02*
X21570000Y27552500I0J-147500D01*
G01*
X21570000Y27257500D01*
G75*
G02*
X21422500Y27110000I-147500J0D01*
G01*
G37*
G36*
G01*
X24410000Y16562500D02*
X24410000Y16217500D01*
G75*
G02*
X24262500Y16070000I-147500J0D01*
G01*
X23967500Y16070000D01*
G75*
G02*
X23820000Y16217500I0J147500D01*
G01*
X23820000Y16562500D01*
G75*
G02*
X23967500Y16710000I147500J0D01*
G01*
X24262500Y16710000D01*
G75*
G02*
X24410000Y16562500I0J-147500D01*
G01*
G37*
G36*
G01*
X25380000Y16562500D02*
X25380000Y16217500D01*
G75*
G02*
X25232500Y16070000I-147500J0D01*
G01*
X24937500Y16070000D01*
G75*
G02*
X24790000Y16217500I0J147500D01*
G01*
X24790000Y16562500D01*
G75*
G02*
X24937500Y16710000I147500J0D01*
G01*
X25232500Y16710000D01*
G75*
G02*
X25380000Y16562500I0J-147500D01*
G01*
G37*
G36*
G01*
X22810000Y28562500D02*
X22810000Y28217500D01*
G75*
G02*
X22662500Y28070000I-147500J0D01*
G01*
X22367500Y28070000D01*
G75*
G02*
X22220000Y28217500I0J147500D01*
G01*
X22220000Y28562500D01*
G75*
G02*
X22367500Y28710000I147500J0D01*
G01*
X22662500Y28710000D01*
G75*
G02*
X22810000Y28562500I0J-147500D01*
G01*
G37*
G36*
G01*
X23780000Y28562500D02*
X23780000Y28217500D01*
G75*
G02*
X23632500Y28070000I-147500J0D01*
G01*
X23337500Y28070000D01*
G75*
G02*
X23190000Y28217500I0J147500D01*
G01*
X23190000Y28562500D01*
G75*
G02*
X23337500Y28710000I147500J0D01*
G01*
X23632500Y28710000D01*
G75*
G02*
X23780000Y28562500I0J-147500D01*
G01*
G37*
G36*
G01*
X22827500Y16950000D02*
X23172500Y16950000D01*
G75*
G02*
X23320000Y16802500I0J-147500D01*
G01*
X23320000Y16507500D01*
G75*
G02*
X23172500Y16360000I-147500J0D01*
G01*
X22827500Y16360000D01*
G75*
G02*
X22680000Y16507500I0J147500D01*
G01*
X22680000Y16802500D01*
G75*
G02*
X22827500Y16950000I147500J0D01*
G01*
G37*
G36*
G01*
X22827500Y17920000D02*
X23172500Y17920000D01*
G75*
G02*
X23320000Y17772500I0J-147500D01*
G01*
X23320000Y17477500D01*
G75*
G02*
X23172500Y17330000I-147500J0D01*
G01*
X22827500Y17330000D01*
G75*
G02*
X22680000Y17477500I0J147500D01*
G01*
X22680000Y17772500D01*
G75*
G02*
X22827500Y17920000I147500J0D01*
G01*
G37*
G36*
G01*
X21190000Y23217500D02*
X21190000Y23562500D01*
G75*
G02*
X21337500Y23710000I147500J0D01*
G01*
X21632500Y23710000D01*
G75*
G02*
X21780000Y23562500I0J-147500D01*
G01*
X21780000Y23217500D01*
G75*
G02*
X21632500Y23070000I-147500J0D01*
G01*
X21337500Y23070000D01*
G75*
G02*
X21190000Y23217500I0J147500D01*
G01*
G37*
G36*
G01*
X20220000Y23217500D02*
X20220000Y23562500D01*
G75*
G02*
X20367500Y23710000I147500J0D01*
G01*
X20662500Y23710000D01*
G75*
G02*
X20810000Y23562500I0J-147500D01*
G01*
X20810000Y23217500D01*
G75*
G02*
X20662500Y23070000I-147500J0D01*
G01*
X20367500Y23070000D01*
G75*
G02*
X20220000Y23217500I0J147500D01*
G01*
G37*
G36*
G01*
X20827500Y17500000D02*
X21172500Y17500000D01*
G75*
G02*
X21320000Y17352500I0J-147500D01*
G01*
X21320000Y17057500D01*
G75*
G02*
X21172500Y16910000I-147500J0D01*
G01*
X20827500Y16910000D01*
G75*
G02*
X20680000Y17057500I0J147500D01*
G01*
X20680000Y17352500D01*
G75*
G02*
X20827500Y17500000I147500J0D01*
G01*
G37*
G36*
G01*
X20827500Y18470000D02*
X21172500Y18470000D01*
G75*
G02*
X21320000Y18322500I0J-147500D01*
G01*
X21320000Y18027500D01*
G75*
G02*
X21172500Y17880000I-147500J0D01*
G01*
X20827500Y17880000D01*
G75*
G02*
X20680000Y18027500I0J147500D01*
G01*
X20680000Y18322500D01*
G75*
G02*
X20827500Y18470000I147500J0D01*
G01*
G37*
G36*
G01*
X21190000Y33217500D02*
X21190000Y33562500D01*
G75*
G02*
X21337500Y33710000I147500J0D01*
G01*
X21632500Y33710000D01*
G75*
G02*
X21780000Y33562500I0J-147500D01*
G01*
X21780000Y33217500D01*
G75*
G02*
X21632500Y33070000I-147500J0D01*
G01*
X21337500Y33070000D01*
G75*
G02*
X21190000Y33217500I0J147500D01*
G01*
G37*
G36*
G01*
X20220000Y33217500D02*
X20220000Y33562500D01*
G75*
G02*
X20367500Y33710000I147500J0D01*
G01*
X20662500Y33710000D01*
G75*
G02*
X20810000Y33562500I0J-147500D01*
G01*
X20810000Y33217500D01*
G75*
G02*
X20662500Y33070000I-147500J0D01*
G01*
X20367500Y33070000D01*
G75*
G02*
X20220000Y33217500I0J147500D01*
G01*
G37*
G36*
G01*
X23472500Y22880000D02*
X23127500Y22880000D01*
G75*
G02*
X22980000Y23027500I0J147500D01*
G01*
X22980000Y23322500D01*
G75*
G02*
X23127500Y23470000I147500J0D01*
G01*
X23472500Y23470000D01*
G75*
G02*
X23620000Y23322500I0J-147500D01*
G01*
X23620000Y23027500D01*
G75*
G02*
X23472500Y22880000I-147500J0D01*
G01*
G37*
G36*
G01*
X23472500Y21910000D02*
X23127500Y21910000D01*
G75*
G02*
X22980000Y22057500I0J147500D01*
G01*
X22980000Y22352500D01*
G75*
G02*
X23127500Y22500000I147500J0D01*
G01*
X23472500Y22500000D01*
G75*
G02*
X23620000Y22352500I0J-147500D01*
G01*
X23620000Y22057500D01*
G75*
G02*
X23472500Y21910000I-147500J0D01*
G01*
G37*
G36*
G01*
X21190000Y32217500D02*
X21190000Y32562500D01*
G75*
G02*
X21337500Y32710000I147500J0D01*
G01*
X21632500Y32710000D01*
G75*
G02*
X21780000Y32562500I0J-147500D01*
G01*
X21780000Y32217500D01*
G75*
G02*
X21632500Y32070000I-147500J0D01*
G01*
X21337500Y32070000D01*
G75*
G02*
X21190000Y32217500I0J147500D01*
G01*
G37*
G36*
G01*
X20220000Y32217500D02*
X20220000Y32562500D01*
G75*
G02*
X20367500Y32710000I147500J0D01*
G01*
X20662500Y32710000D01*
G75*
G02*
X20810000Y32562500I0J-147500D01*
G01*
X20810000Y32217500D01*
G75*
G02*
X20662500Y32070000I-147500J0D01*
G01*
X20367500Y32070000D01*
G75*
G02*
X20220000Y32217500I0J147500D01*
G01*
G37*
G36*
G01*
X22172500Y16780000D02*
X21827500Y16780000D01*
G75*
G02*
X21680000Y16927500I0J147500D01*
G01*
X21680000Y17222500D01*
G75*
G02*
X21827500Y17370000I147500J0D01*
G01*
X22172500Y17370000D01*
G75*
G02*
X22320000Y17222500I0J-147500D01*
G01*
X22320000Y16927500D01*
G75*
G02*
X22172500Y16780000I-147500J0D01*
G01*
G37*
G36*
G01*
X22172500Y15810000D02*
X21827500Y15810000D01*
G75*
G02*
X21680000Y15957500I0J147500D01*
G01*
X21680000Y16252500D01*
G75*
G02*
X21827500Y16400000I147500J0D01*
G01*
X22172500Y16400000D01*
G75*
G02*
X22320000Y16252500I0J-147500D01*
G01*
X22320000Y15957500D01*
G75*
G02*
X22172500Y15810000I-147500J0D01*
G01*
G37*
G36*
G01*
X21810000Y25562500D02*
X21810000Y25217500D01*
G75*
G02*
X21662500Y25070000I-147500J0D01*
G01*
X21367500Y25070000D01*
G75*
G02*
X21220000Y25217500I0J147500D01*
G01*
X21220000Y25562500D01*
G75*
G02*
X21367500Y25710000I147500J0D01*
G01*
X21662500Y25710000D01*
G75*
G02*
X21810000Y25562500I0J-147500D01*
G01*
G37*
G36*
G01*
X22780000Y25562500D02*
X22780000Y25217500D01*
G75*
G02*
X22632500Y25070000I-147500J0D01*
G01*
X22337500Y25070000D01*
G75*
G02*
X22190000Y25217500I0J147500D01*
G01*
X22190000Y25562500D01*
G75*
G02*
X22337500Y25710000I147500J0D01*
G01*
X22632500Y25710000D01*
G75*
G02*
X22780000Y25562500I0J-147500D01*
G01*
G37*
G36*
G01*
X35690000Y34517500D02*
X35690000Y34862500D01*
G75*
G02*
X35837500Y35010000I147500J0D01*
G01*
X36132500Y35010000D01*
G75*
G02*
X36280000Y34862500I0J-147500D01*
G01*
X36280000Y34517500D01*
G75*
G02*
X36132500Y34370000I-147500J0D01*
G01*
X35837500Y34370000D01*
G75*
G02*
X35690000Y34517500I0J147500D01*
G01*
G37*
G36*
G01*
X34720000Y34517500D02*
X34720000Y34862500D01*
G75*
G02*
X34867500Y35010000I147500J0D01*
G01*
X35162500Y35010000D01*
G75*
G02*
X35310000Y34862500I0J-147500D01*
G01*
X35310000Y34517500D01*
G75*
G02*
X35162500Y34370000I-147500J0D01*
G01*
X34867500Y34370000D01*
G75*
G02*
X34720000Y34517500I0J147500D01*
G01*
G37*
G36*
G01*
X40390000Y33017500D02*
X40390000Y33362500D01*
G75*
G02*
X40537500Y33510000I147500J0D01*
G01*
X40832500Y33510000D01*
G75*
G02*
X40980000Y33362500I0J-147500D01*
G01*
X40980000Y33017500D01*
G75*
G02*
X40832500Y32870000I-147500J0D01*
G01*
X40537500Y32870000D01*
G75*
G02*
X40390000Y33017500I0J147500D01*
G01*
G37*
G36*
G01*
X39420000Y33017500D02*
X39420000Y33362500D01*
G75*
G02*
X39567500Y33510000I147500J0D01*
G01*
X39862500Y33510000D01*
G75*
G02*
X40010000Y33362500I0J-147500D01*
G01*
X40010000Y33017500D01*
G75*
G02*
X39862500Y32870000I-147500J0D01*
G01*
X39567500Y32870000D01*
G75*
G02*
X39420000Y33017500I0J147500D01*
G01*
G37*
G36*
G01*
X33790000Y35017500D02*
X33790000Y35362500D01*
G75*
G02*
X33937500Y35510000I147500J0D01*
G01*
X34232500Y35510000D01*
G75*
G02*
X34380000Y35362500I0J-147500D01*
G01*
X34380000Y35017500D01*
G75*
G02*
X34232500Y34870000I-147500J0D01*
G01*
X33937500Y34870000D01*
G75*
G02*
X33790000Y35017500I0J147500D01*
G01*
G37*
G36*
G01*
X32820000Y35017500D02*
X32820000Y35362500D01*
G75*
G02*
X32967500Y35510000I147500J0D01*
G01*
X33262500Y35510000D01*
G75*
G02*
X33410000Y35362500I0J-147500D01*
G01*
X33410000Y35017500D01*
G75*
G02*
X33262500Y34870000I-147500J0D01*
G01*
X32967500Y34870000D01*
G75*
G02*
X32820000Y35017500I0J147500D01*
G01*
G37*
G36*
G01*
X38610000Y31562500D02*
X38610000Y31217500D01*
G75*
G02*
X38462500Y31070000I-147500J0D01*
G01*
X38167500Y31070000D01*
G75*
G02*
X38020000Y31217500I0J147500D01*
G01*
X38020000Y31562500D01*
G75*
G02*
X38167500Y31710000I147500J0D01*
G01*
X38462500Y31710000D01*
G75*
G02*
X38610000Y31562500I0J-147500D01*
G01*
G37*
G36*
G01*
X39580000Y31562500D02*
X39580000Y31217500D01*
G75*
G02*
X39432500Y31070000I-147500J0D01*
G01*
X39137500Y31070000D01*
G75*
G02*
X38990000Y31217500I0J147500D01*
G01*
X38990000Y31562500D01*
G75*
G02*
X39137500Y31710000I147500J0D01*
G01*
X39432500Y31710000D01*
G75*
G02*
X39580000Y31562500I0J-147500D01*
G01*
G37*
G36*
G01*
X37390000Y33017500D02*
X37390000Y33362500D01*
G75*
G02*
X37537500Y33510000I147500J0D01*
G01*
X37832500Y33510000D01*
G75*
G02*
X37980000Y33362500I0J-147500D01*
G01*
X37980000Y33017500D01*
G75*
G02*
X37832500Y32870000I-147500J0D01*
G01*
X37537500Y32870000D01*
G75*
G02*
X37390000Y33017500I0J147500D01*
G01*
G37*
G36*
G01*
X36420000Y33017500D02*
X36420000Y33362500D01*
G75*
G02*
X36567500Y33510000I147500J0D01*
G01*
X36862500Y33510000D01*
G75*
G02*
X37010000Y33362500I0J-147500D01*
G01*
X37010000Y33017500D01*
G75*
G02*
X36862500Y32870000I-147500J0D01*
G01*
X36567500Y32870000D01*
G75*
G02*
X36420000Y33017500I0J147500D01*
G01*
G37*
G36*
G01*
X35390000Y33017500D02*
X35390000Y33362500D01*
G75*
G02*
X35537500Y33510000I147500J0D01*
G01*
X35832500Y33510000D01*
G75*
G02*
X35980000Y33362500I0J-147500D01*
G01*
X35980000Y33017500D01*
G75*
G02*
X35832500Y32870000I-147500J0D01*
G01*
X35537500Y32870000D01*
G75*
G02*
X35390000Y33017500I0J147500D01*
G01*
G37*
G36*
G01*
X34420000Y33017500D02*
X34420000Y33362500D01*
G75*
G02*
X34567500Y33510000I147500J0D01*
G01*
X34862500Y33510000D01*
G75*
G02*
X35010000Y33362500I0J-147500D01*
G01*
X35010000Y33017500D01*
G75*
G02*
X34862500Y32870000I-147500J0D01*
G01*
X34567500Y32870000D01*
G75*
G02*
X34420000Y33017500I0J147500D01*
G01*
G37*
G36*
G01*
X27190000Y23217500D02*
X27190000Y23562500D01*
G75*
G02*
X27337500Y23710000I147500J0D01*
G01*
X27632500Y23710000D01*
G75*
G02*
X27780000Y23562500I0J-147500D01*
G01*
X27780000Y23217500D01*
G75*
G02*
X27632500Y23070000I-147500J0D01*
G01*
X27337500Y23070000D01*
G75*
G02*
X27190000Y23217500I0J147500D01*
G01*
G37*
G36*
G01*
X26220000Y23217500D02*
X26220000Y23562500D01*
G75*
G02*
X26367500Y23710000I147500J0D01*
G01*
X26662500Y23710000D01*
G75*
G02*
X26810000Y23562500I0J-147500D01*
G01*
X26810000Y23217500D01*
G75*
G02*
X26662500Y23070000I-147500J0D01*
G01*
X26367500Y23070000D01*
G75*
G02*
X26220000Y23217500I0J147500D01*
G01*
G37*
G36*
G01*
X28172500Y29580000D02*
X27827500Y29580000D01*
G75*
G02*
X27680000Y29727500I0J147500D01*
G01*
X27680000Y30022500D01*
G75*
G02*
X27827500Y30170000I147500J0D01*
G01*
X28172500Y30170000D01*
G75*
G02*
X28320000Y30022500I0J-147500D01*
G01*
X28320000Y29727500D01*
G75*
G02*
X28172500Y29580000I-147500J0D01*
G01*
G37*
G36*
G01*
X28172500Y28610000D02*
X27827500Y28610000D01*
G75*
G02*
X27680000Y28757500I0J147500D01*
G01*
X27680000Y29052500D01*
G75*
G02*
X27827500Y29200000I147500J0D01*
G01*
X28172500Y29200000D01*
G75*
G02*
X28320000Y29052500I0J-147500D01*
G01*
X28320000Y28757500D01*
G75*
G02*
X28172500Y28610000I-147500J0D01*
G01*
G37*
G36*
G01*
X27827500Y20000000D02*
X28172500Y20000000D01*
G75*
G02*
X28320000Y19852500I0J-147500D01*
G01*
X28320000Y19557500D01*
G75*
G02*
X28172500Y19410000I-147500J0D01*
G01*
X27827500Y19410000D01*
G75*
G02*
X27680000Y19557500I0J147500D01*
G01*
X27680000Y19852500D01*
G75*
G02*
X27827500Y20000000I147500J0D01*
G01*
G37*
G36*
G01*
X27827500Y20970000D02*
X28172500Y20970000D01*
G75*
G02*
X28320000Y20822500I0J-147500D01*
G01*
X28320000Y20527500D01*
G75*
G02*
X28172500Y20380000I-147500J0D01*
G01*
X27827500Y20380000D01*
G75*
G02*
X27680000Y20527500I0J147500D01*
G01*
X27680000Y20822500D01*
G75*
G02*
X27827500Y20970000I147500J0D01*
G01*
G37*
G36*
G01*
X30727500Y26700000D02*
X31072500Y26700000D01*
G75*
G02*
X31220000Y26552500I0J-147500D01*
G01*
X31220000Y26257500D01*
G75*
G02*
X31072500Y26110000I-147500J0D01*
G01*
X30727500Y26110000D01*
G75*
G02*
X30580000Y26257500I0J147500D01*
G01*
X30580000Y26552500D01*
G75*
G02*
X30727500Y26700000I147500J0D01*
G01*
G37*
G36*
G01*
X30727500Y27670000D02*
X31072500Y27670000D01*
G75*
G02*
X31220000Y27522500I0J-147500D01*
G01*
X31220000Y27227500D01*
G75*
G02*
X31072500Y27080000I-147500J0D01*
G01*
X30727500Y27080000D01*
G75*
G02*
X30580000Y27227500I0J147500D01*
G01*
X30580000Y27522500D01*
G75*
G02*
X30727500Y27670000I147500J0D01*
G01*
G37*
G36*
G01*
X24710000Y22862500D02*
X24710000Y22517500D01*
G75*
G02*
X24562500Y22370000I-147500J0D01*
G01*
X24267500Y22370000D01*
G75*
G02*
X24120000Y22517500I0J147500D01*
G01*
X24120000Y22862500D01*
G75*
G02*
X24267500Y23010000I147500J0D01*
G01*
X24562500Y23010000D01*
G75*
G02*
X24710000Y22862500I0J-147500D01*
G01*
G37*
G36*
G01*
X25680000Y22862500D02*
X25680000Y22517500D01*
G75*
G02*
X25532500Y22370000I-147500J0D01*
G01*
X25237500Y22370000D01*
G75*
G02*
X25090000Y22517500I0J147500D01*
G01*
X25090000Y22862500D01*
G75*
G02*
X25237500Y23010000I147500J0D01*
G01*
X25532500Y23010000D01*
G75*
G02*
X25680000Y22862500I0J-147500D01*
G01*
G37*
G36*
G01*
X29190000Y22217500D02*
X29190000Y22562500D01*
G75*
G02*
X29337500Y22710000I147500J0D01*
G01*
X29632500Y22710000D01*
G75*
G02*
X29780000Y22562500I0J-147500D01*
G01*
X29780000Y22217500D01*
G75*
G02*
X29632500Y22070000I-147500J0D01*
G01*
X29337500Y22070000D01*
G75*
G02*
X29190000Y22217500I0J147500D01*
G01*
G37*
G36*
G01*
X28220000Y22217500D02*
X28220000Y22562500D01*
G75*
G02*
X28367500Y22710000I147500J0D01*
G01*
X28662500Y22710000D01*
G75*
G02*
X28810000Y22562500I0J-147500D01*
G01*
X28810000Y22217500D01*
G75*
G02*
X28662500Y22070000I-147500J0D01*
G01*
X28367500Y22070000D01*
G75*
G02*
X28220000Y22217500I0J147500D01*
G01*
G37*
G36*
G01*
X27190000Y24917500D02*
X27190000Y25262500D01*
G75*
G02*
X27337500Y25410000I147500J0D01*
G01*
X27632500Y25410000D01*
G75*
G02*
X27780000Y25262500I0J-147500D01*
G01*
X27780000Y24917500D01*
G75*
G02*
X27632500Y24770000I-147500J0D01*
G01*
X27337500Y24770000D01*
G75*
G02*
X27190000Y24917500I0J147500D01*
G01*
G37*
G36*
G01*
X26220000Y24917500D02*
X26220000Y25262500D01*
G75*
G02*
X26367500Y25410000I147500J0D01*
G01*
X26662500Y25410000D01*
G75*
G02*
X26810000Y25262500I0J-147500D01*
G01*
X26810000Y24917500D01*
G75*
G02*
X26662500Y24770000I-147500J0D01*
G01*
X26367500Y24770000D01*
G75*
G02*
X26220000Y24917500I0J147500D01*
G01*
G37*
G36*
G01*
X31290000Y31117500D02*
X31290000Y31462500D01*
G75*
G02*
X31437500Y31610000I147500J0D01*
G01*
X31732500Y31610000D01*
G75*
G02*
X31880000Y31462500I0J-147500D01*
G01*
X31880000Y31117500D01*
G75*
G02*
X31732500Y30970000I-147500J0D01*
G01*
X31437500Y30970000D01*
G75*
G02*
X31290000Y31117500I0J147500D01*
G01*
G37*
G36*
G01*
X30320000Y31117500D02*
X30320000Y31462500D01*
G75*
G02*
X30467500Y31610000I147500J0D01*
G01*
X30762500Y31610000D01*
G75*
G02*
X30910000Y31462500I0J-147500D01*
G01*
X30910000Y31117500D01*
G75*
G02*
X30762500Y30970000I-147500J0D01*
G01*
X30467500Y30970000D01*
G75*
G02*
X30320000Y31117500I0J147500D01*
G01*
G37*
G36*
G01*
X29310000Y25562500D02*
X29310000Y25217500D01*
G75*
G02*
X29162500Y25070000I-147500J0D01*
G01*
X28867500Y25070000D01*
G75*
G02*
X28720000Y25217500I0J147500D01*
G01*
X28720000Y25562500D01*
G75*
G02*
X28867500Y25710000I147500J0D01*
G01*
X29162500Y25710000D01*
G75*
G02*
X29310000Y25562500I0J-147500D01*
G01*
G37*
G36*
G01*
X30280000Y25562500D02*
X30280000Y25217500D01*
G75*
G02*
X30132500Y25070000I-147500J0D01*
G01*
X29837500Y25070000D01*
G75*
G02*
X29690000Y25217500I0J147500D01*
G01*
X29690000Y25562500D01*
G75*
G02*
X29837500Y25710000I147500J0D01*
G01*
X30132500Y25710000D01*
G75*
G02*
X30280000Y25562500I0J-147500D01*
G01*
G37*
G36*
G01*
X33827500Y20200000D02*
X34172500Y20200000D01*
G75*
G02*
X34320000Y20052500I0J-147500D01*
G01*
X34320000Y19757500D01*
G75*
G02*
X34172500Y19610000I-147500J0D01*
G01*
X33827500Y19610000D01*
G75*
G02*
X33680000Y19757500I0J147500D01*
G01*
X33680000Y20052500D01*
G75*
G02*
X33827500Y20200000I147500J0D01*
G01*
G37*
G36*
G01*
X33827500Y21170000D02*
X34172500Y21170000D01*
G75*
G02*
X34320000Y21022500I0J-147500D01*
G01*
X34320000Y20727500D01*
G75*
G02*
X34172500Y20580000I-147500J0D01*
G01*
X33827500Y20580000D01*
G75*
G02*
X33680000Y20727500I0J147500D01*
G01*
X33680000Y21022500D01*
G75*
G02*
X33827500Y21170000I147500J0D01*
G01*
G37*
G36*
G01*
X40672500Y22580000D02*
X40327500Y22580000D01*
G75*
G02*
X40180000Y22727500I0J147500D01*
G01*
X40180000Y23022500D01*
G75*
G02*
X40327500Y23170000I147500J0D01*
G01*
X40672500Y23170000D01*
G75*
G02*
X40820000Y23022500I0J-147500D01*
G01*
X40820000Y22727500D01*
G75*
G02*
X40672500Y22580000I-147500J0D01*
G01*
G37*
G36*
G01*
X40672500Y21610000D02*
X40327500Y21610000D01*
G75*
G02*
X40180000Y21757500I0J147500D01*
G01*
X40180000Y22052500D01*
G75*
G02*
X40327500Y22200000I147500J0D01*
G01*
X40672500Y22200000D01*
G75*
G02*
X40820000Y22052500I0J-147500D01*
G01*
X40820000Y21757500D01*
G75*
G02*
X40672500Y21610000I-147500J0D01*
G01*
G37*
G36*
G01*
X39290000Y17217500D02*
X39290000Y17562500D01*
G75*
G02*
X39437500Y17710000I147500J0D01*
G01*
X39732500Y17710000D01*
G75*
G02*
X39880000Y17562500I0J-147500D01*
G01*
X39880000Y17217500D01*
G75*
G02*
X39732500Y17070000I-147500J0D01*
G01*
X39437500Y17070000D01*
G75*
G02*
X39290000Y17217500I0J147500D01*
G01*
G37*
G36*
G01*
X38320000Y17217500D02*
X38320000Y17562500D01*
G75*
G02*
X38467500Y17710000I147500J0D01*
G01*
X38762500Y17710000D01*
G75*
G02*
X38910000Y17562500I0J-147500D01*
G01*
X38910000Y17217500D01*
G75*
G02*
X38762500Y17070000I-147500J0D01*
G01*
X38467500Y17070000D01*
G75*
G02*
X38320000Y17217500I0J147500D01*
G01*
G37*
G36*
G01*
X33172500Y26480000D02*
X32827500Y26480000D01*
G75*
G02*
X32680000Y26627500I0J147500D01*
G01*
X32680000Y26922500D01*
G75*
G02*
X32827500Y27070000I147500J0D01*
G01*
X33172500Y27070000D01*
G75*
G02*
X33320000Y26922500I0J-147500D01*
G01*
X33320000Y26627500D01*
G75*
G02*
X33172500Y26480000I-147500J0D01*
G01*
G37*
G36*
G01*
X33172500Y25510000D02*
X32827500Y25510000D01*
G75*
G02*
X32680000Y25657500I0J147500D01*
G01*
X32680000Y25952500D01*
G75*
G02*
X32827500Y26100000I147500J0D01*
G01*
X33172500Y26100000D01*
G75*
G02*
X33320000Y25952500I0J-147500D01*
G01*
X33320000Y25657500D01*
G75*
G02*
X33172500Y25510000I-147500J0D01*
G01*
G37*
G36*
G01*
X37510000Y20462500D02*
X37510000Y20117500D01*
G75*
G02*
X37362500Y19970000I-147500J0D01*
G01*
X37067500Y19970000D01*
G75*
G02*
X36920000Y20117500I0J147500D01*
G01*
X36920000Y20462500D01*
G75*
G02*
X37067500Y20610000I147500J0D01*
G01*
X37362500Y20610000D01*
G75*
G02*
X37510000Y20462500I0J-147500D01*
G01*
G37*
G36*
G01*
X38480000Y20462500D02*
X38480000Y20117500D01*
G75*
G02*
X38332500Y19970000I-147500J0D01*
G01*
X38037500Y19970000D01*
G75*
G02*
X37890000Y20117500I0J147500D01*
G01*
X37890000Y20462500D01*
G75*
G02*
X38037500Y20610000I147500J0D01*
G01*
X38332500Y20610000D01*
G75*
G02*
X38480000Y20462500I0J-147500D01*
G01*
G37*
G36*
G01*
X36227500Y21700000D02*
X36572500Y21700000D01*
G75*
G02*
X36720000Y21552500I0J-147500D01*
G01*
X36720000Y21257500D01*
G75*
G02*
X36572500Y21110000I-147500J0D01*
G01*
X36227500Y21110000D01*
G75*
G02*
X36080000Y21257500I0J147500D01*
G01*
X36080000Y21552500D01*
G75*
G02*
X36227500Y21700000I147500J0D01*
G01*
G37*
G36*
G01*
X36227500Y22670000D02*
X36572500Y22670000D01*
G75*
G02*
X36720000Y22522500I0J-147500D01*
G01*
X36720000Y22227500D01*
G75*
G02*
X36572500Y22080000I-147500J0D01*
G01*
X36227500Y22080000D01*
G75*
G02*
X36080000Y22227500I0J147500D01*
G01*
X36080000Y22522500D01*
G75*
G02*
X36227500Y22670000I147500J0D01*
G01*
G37*
G36*
G01*
X26310000Y29362500D02*
X26310000Y29017500D01*
G75*
G02*
X26162500Y28870000I-147500J0D01*
G01*
X25867500Y28870000D01*
G75*
G02*
X25720000Y29017500I0J147500D01*
G01*
X25720000Y29362500D01*
G75*
G02*
X25867500Y29510000I147500J0D01*
G01*
X26162500Y29510000D01*
G75*
G02*
X26310000Y29362500I0J-147500D01*
G01*
G37*
G36*
G01*
X27280000Y29362500D02*
X27280000Y29017500D01*
G75*
G02*
X27132500Y28870000I-147500J0D01*
G01*
X26837500Y28870000D01*
G75*
G02*
X26690000Y29017500I0J147500D01*
G01*
X26690000Y29362500D01*
G75*
G02*
X26837500Y29510000I147500J0D01*
G01*
X27132500Y29510000D01*
G75*
G02*
X27280000Y29362500I0J-147500D01*
G01*
G37*
G36*
G01*
X24610000Y30662500D02*
X24610000Y30317500D01*
G75*
G02*
X24462500Y30170000I-147500J0D01*
G01*
X24167500Y30170000D01*
G75*
G02*
X24020000Y30317500I0J147500D01*
G01*
X24020000Y30662500D01*
G75*
G02*
X24167500Y30810000I147500J0D01*
G01*
X24462500Y30810000D01*
G75*
G02*
X24610000Y30662500I0J-147500D01*
G01*
G37*
G36*
G01*
X25580000Y30662500D02*
X25580000Y30317500D01*
G75*
G02*
X25432500Y30170000I-147500J0D01*
G01*
X25137500Y30170000D01*
G75*
G02*
X24990000Y30317500I0J147500D01*
G01*
X24990000Y30662500D01*
G75*
G02*
X25137500Y30810000I147500J0D01*
G01*
X25432500Y30810000D01*
G75*
G02*
X25580000Y30662500I0J-147500D01*
G01*
G37*
G36*
G01*
X27810000Y26562500D02*
X27810000Y26217500D01*
G75*
G02*
X27662500Y26070000I-147500J0D01*
G01*
X27367500Y26070000D01*
G75*
G02*
X27220000Y26217500I0J147500D01*
G01*
X27220000Y26562500D01*
G75*
G02*
X27367500Y26710000I147500J0D01*
G01*
X27662500Y26710000D01*
G75*
G02*
X27810000Y26562500I0J-147500D01*
G01*
G37*
G36*
G01*
X28780000Y26562500D02*
X28780000Y26217500D01*
G75*
G02*
X28632500Y26070000I-147500J0D01*
G01*
X28337500Y26070000D01*
G75*
G02*
X28190000Y26217500I0J147500D01*
G01*
X28190000Y26562500D01*
G75*
G02*
X28337500Y26710000I147500J0D01*
G01*
X28632500Y26710000D01*
G75*
G02*
X28780000Y26562500I0J-147500D01*
G01*
G37*
G36*
G01*
X27490000Y31017500D02*
X27490000Y31362500D01*
G75*
G02*
X27637500Y31510000I147500J0D01*
G01*
X27932500Y31510000D01*
G75*
G02*
X28080000Y31362500I0J-147500D01*
G01*
X28080000Y31017500D01*
G75*
G02*
X27932500Y30870000I-147500J0D01*
G01*
X27637500Y30870000D01*
G75*
G02*
X27490000Y31017500I0J147500D01*
G01*
G37*
G36*
G01*
X26520000Y31017500D02*
X26520000Y31362500D01*
G75*
G02*
X26667500Y31510000I147500J0D01*
G01*
X26962500Y31510000D01*
G75*
G02*
X27110000Y31362500I0J-147500D01*
G01*
X27110000Y31017500D01*
G75*
G02*
X26962500Y30870000I-147500J0D01*
G01*
X26667500Y30870000D01*
G75*
G02*
X26520000Y31017500I0J147500D01*
G01*
G37*
G36*
G01*
X28990000Y32352500D02*
X28990000Y32007500D01*
G75*
G02*
X28842500Y31860000I-147500J0D01*
G01*
X28547500Y31860000D01*
G75*
G02*
X28400000Y32007500I0J147500D01*
G01*
X28400000Y32352500D01*
G75*
G02*
X28547500Y32500000I147500J0D01*
G01*
X28842500Y32500000D01*
G75*
G02*
X28990000Y32352500I0J-147500D01*
G01*
G37*
G36*
G01*
X29960000Y32352500D02*
X29960000Y32007500D01*
G75*
G02*
X29812500Y31860000I-147500J0D01*
G01*
X29517500Y31860000D01*
G75*
G02*
X29370000Y32007500I0J147500D01*
G01*
X29370000Y32352500D01*
G75*
G02*
X29517500Y32500000I147500J0D01*
G01*
X29812500Y32500000D01*
G75*
G02*
X29960000Y32352500I0J-147500D01*
G01*
G37*
G36*
G01*
X24610000Y31662500D02*
X24610000Y31317500D01*
G75*
G02*
X24462500Y31170000I-147500J0D01*
G01*
X24167500Y31170000D01*
G75*
G02*
X24020000Y31317500I0J147500D01*
G01*
X24020000Y31662500D01*
G75*
G02*
X24167500Y31810000I147500J0D01*
G01*
X24462500Y31810000D01*
G75*
G02*
X24610000Y31662500I0J-147500D01*
G01*
G37*
G36*
G01*
X25580000Y31662500D02*
X25580000Y31317500D01*
G75*
G02*
X25432500Y31170000I-147500J0D01*
G01*
X25137500Y31170000D01*
G75*
G02*
X24990000Y31317500I0J147500D01*
G01*
X24990000Y31662500D01*
G75*
G02*
X25137500Y31810000I147500J0D01*
G01*
X25432500Y31810000D01*
G75*
G02*
X25580000Y31662500I0J-147500D01*
G01*
G37*
G36*
G01*
X31690000Y25217500D02*
X31690000Y25562500D01*
G75*
G02*
X31837500Y25710000I147500J0D01*
G01*
X32132500Y25710000D01*
G75*
G02*
X32280000Y25562500I0J-147500D01*
G01*
X32280000Y25217500D01*
G75*
G02*
X32132500Y25070000I-147500J0D01*
G01*
X31837500Y25070000D01*
G75*
G02*
X31690000Y25217500I0J147500D01*
G01*
G37*
G36*
G01*
X30720000Y25217500D02*
X30720000Y25562500D01*
G75*
G02*
X30867500Y25710000I147500J0D01*
G01*
X31162500Y25710000D01*
G75*
G02*
X31310000Y25562500I0J-147500D01*
G01*
X31310000Y25217500D01*
G75*
G02*
X31162500Y25070000I-147500J0D01*
G01*
X30867500Y25070000D01*
G75*
G02*
X30720000Y25217500I0J147500D01*
G01*
G37*
G36*
G01*
X31390000Y21217500D02*
X31390000Y21562500D01*
G75*
G02*
X31537500Y21710000I147500J0D01*
G01*
X31832500Y21710000D01*
G75*
G02*
X31980000Y21562500I0J-147500D01*
G01*
X31980000Y21217500D01*
G75*
G02*
X31832500Y21070000I-147500J0D01*
G01*
X31537500Y21070000D01*
G75*
G02*
X31390000Y21217500I0J147500D01*
G01*
G37*
G36*
G01*
X30420000Y21217500D02*
X30420000Y21562500D01*
G75*
G02*
X30567500Y21710000I147500J0D01*
G01*
X30862500Y21710000D01*
G75*
G02*
X31010000Y21562500I0J-147500D01*
G01*
X31010000Y21217500D01*
G75*
G02*
X30862500Y21070000I-147500J0D01*
G01*
X30567500Y21070000D01*
G75*
G02*
X30420000Y21217500I0J147500D01*
G01*
G37*
G36*
G01*
X31390000Y23117500D02*
X31390000Y23462500D01*
G75*
G02*
X31537500Y23610000I147500J0D01*
G01*
X31832500Y23610000D01*
G75*
G02*
X31980000Y23462500I0J-147500D01*
G01*
X31980000Y23117500D01*
G75*
G02*
X31832500Y22970000I-147500J0D01*
G01*
X31537500Y22970000D01*
G75*
G02*
X31390000Y23117500I0J147500D01*
G01*
G37*
G36*
G01*
X30420000Y23117500D02*
X30420000Y23462500D01*
G75*
G02*
X30567500Y23610000I147500J0D01*
G01*
X30862500Y23610000D01*
G75*
G02*
X31010000Y23462500I0J-147500D01*
G01*
X31010000Y23117500D01*
G75*
G02*
X30862500Y22970000I-147500J0D01*
G01*
X30567500Y22970000D01*
G75*
G02*
X30420000Y23117500I0J147500D01*
G01*
G37*
G36*
G01*
X29010000Y27842500D02*
X29010000Y27497500D01*
G75*
G02*
X28862500Y27350000I-147500J0D01*
G01*
X28567500Y27350000D01*
G75*
G02*
X28420000Y27497500I0J147500D01*
G01*
X28420000Y27842500D01*
G75*
G02*
X28567500Y27990000I147500J0D01*
G01*
X28862500Y27990000D01*
G75*
G02*
X29010000Y27842500I0J-147500D01*
G01*
G37*
G36*
G01*
X29980000Y27842500D02*
X29980000Y27497500D01*
G75*
G02*
X29832500Y27350000I-147500J0D01*
G01*
X29537500Y27350000D01*
G75*
G02*
X29390000Y27497500I0J147500D01*
G01*
X29390000Y27842500D01*
G75*
G02*
X29537500Y27990000I147500J0D01*
G01*
X29832500Y27990000D01*
G75*
G02*
X29980000Y27842500I0J-147500D01*
G01*
G37*
G36*
G01*
X24610000Y25762500D02*
X24610000Y25417500D01*
G75*
G02*
X24462500Y25270000I-147500J0D01*
G01*
X24167500Y25270000D01*
G75*
G02*
X24020000Y25417500I0J147500D01*
G01*
X24020000Y25762500D01*
G75*
G02*
X24167500Y25910000I147500J0D01*
G01*
X24462500Y25910000D01*
G75*
G02*
X24610000Y25762500I0J-147500D01*
G01*
G37*
G36*
G01*
X25580000Y25762500D02*
X25580000Y25417500D01*
G75*
G02*
X25432500Y25270000I-147500J0D01*
G01*
X25137500Y25270000D01*
G75*
G02*
X24990000Y25417500I0J147500D01*
G01*
X24990000Y25762500D01*
G75*
G02*
X25137500Y25910000I147500J0D01*
G01*
X25432500Y25910000D01*
G75*
G02*
X25580000Y25762500I0J-147500D01*
G01*
G37*
D18*
X11800000Y37390000D03*
D19*
X10550000Y35390000D03*
X11050000Y35390000D03*
X11550000Y35390000D03*
X12050000Y35390000D03*
X12550000Y35390000D03*
X13050000Y35390000D03*
D20*
X13800000Y36140000D03*
X13800000Y36640000D03*
X13800000Y37140000D03*
X13800000Y37640000D03*
X13800000Y38140000D03*
X13800000Y38640000D03*
D19*
X13050000Y39390000D03*
X12550000Y39390000D03*
X12050000Y39390000D03*
X11550000Y39390000D03*
X11050000Y39390000D03*
X10550000Y39390000D03*
D20*
X9800000Y38640000D03*
X9800000Y38140000D03*
X9800000Y37640000D03*
X9800000Y37140000D03*
X9800000Y36640000D03*
X9800000Y36140000D03*
D21*
X7850000Y35890000D03*
X7850000Y38090000D03*
X6150000Y38090000D03*
X6150000Y35890000D03*
D22*
X23000000Y11190000D03*
X27000000Y11190000D03*
X34200000Y11190000D03*
X30200000Y11190000D03*
D23*
X39400000Y1890000D03*
X32600000Y1890000D03*
D24*
X37000000Y7090000D03*
X35000000Y7090000D03*
G36*
G01*
X23390000Y33217500D02*
X23390000Y33562500D01*
G75*
G02*
X23537500Y33710000I147500J0D01*
G01*
X23832500Y33710000D01*
G75*
G02*
X23980000Y33562500I0J-147500D01*
G01*
X23980000Y33217500D01*
G75*
G02*
X23832500Y33070000I-147500J0D01*
G01*
X23537500Y33070000D01*
G75*
G02*
X23390000Y33217500I0J147500D01*
G01*
G37*
G36*
G01*
X22420000Y33217500D02*
X22420000Y33562500D01*
G75*
G02*
X22567500Y33710000I147500J0D01*
G01*
X22862500Y33710000D01*
G75*
G02*
X23010000Y33562500I0J-147500D01*
G01*
X23010000Y33217500D01*
G75*
G02*
X22862500Y33070000I-147500J0D01*
G01*
X22567500Y33070000D01*
G75*
G02*
X22420000Y33217500I0J147500D01*
G01*
G37*
G36*
G01*
X24572500Y35580000D02*
X24227500Y35580000D01*
G75*
G02*
X24080000Y35727500I0J147500D01*
G01*
X24080000Y36022500D01*
G75*
G02*
X24227500Y36170000I147500J0D01*
G01*
X24572500Y36170000D01*
G75*
G02*
X24720000Y36022500I0J-147500D01*
G01*
X24720000Y35727500D01*
G75*
G02*
X24572500Y35580000I-147500J0D01*
G01*
G37*
G36*
G01*
X24572500Y34610000D02*
X24227500Y34610000D01*
G75*
G02*
X24080000Y34757500I0J147500D01*
G01*
X24080000Y35052500D01*
G75*
G02*
X24227500Y35200000I147500J0D01*
G01*
X24572500Y35200000D01*
G75*
G02*
X24720000Y35052500I0J-147500D01*
G01*
X24720000Y34757500D01*
G75*
G02*
X24572500Y34610000I-147500J0D01*
G01*
G37*
G36*
G01*
X28890000Y34217500D02*
X28890000Y34562500D01*
G75*
G02*
X29037500Y34710000I147500J0D01*
G01*
X29332500Y34710000D01*
G75*
G02*
X29480000Y34562500I0J-147500D01*
G01*
X29480000Y34217500D01*
G75*
G02*
X29332500Y34070000I-147500J0D01*
G01*
X29037500Y34070000D01*
G75*
G02*
X28890000Y34217500I0J147500D01*
G01*
G37*
G36*
G01*
X27920000Y34217500D02*
X27920000Y34562500D01*
G75*
G02*
X28067500Y34710000I147500J0D01*
G01*
X28362500Y34710000D01*
G75*
G02*
X28510000Y34562500I0J-147500D01*
G01*
X28510000Y34217500D01*
G75*
G02*
X28362500Y34070000I-147500J0D01*
G01*
X28067500Y34070000D01*
G75*
G02*
X27920000Y34217500I0J147500D01*
G01*
G37*
G36*
G01*
X29290000Y33017500D02*
X29290000Y33362500D01*
G75*
G02*
X29437500Y33510000I147500J0D01*
G01*
X29732500Y33510000D01*
G75*
G02*
X29880000Y33362500I0J-147500D01*
G01*
X29880000Y33017500D01*
G75*
G02*
X29732500Y32870000I-147500J0D01*
G01*
X29437500Y32870000D01*
G75*
G02*
X29290000Y33017500I0J147500D01*
G01*
G37*
G36*
G01*
X28320000Y33017500D02*
X28320000Y33362500D01*
G75*
G02*
X28467500Y33510000I147500J0D01*
G01*
X28762500Y33510000D01*
G75*
G02*
X28910000Y33362500I0J-147500D01*
G01*
X28910000Y33017500D01*
G75*
G02*
X28762500Y32870000I-147500J0D01*
G01*
X28467500Y32870000D01*
G75*
G02*
X28320000Y33017500I0J147500D01*
G01*
G37*
G36*
G01*
X25490000Y33017500D02*
X25490000Y33362500D01*
G75*
G02*
X25637500Y33510000I147500J0D01*
G01*
X25932500Y33510000D01*
G75*
G02*
X26080000Y33362500I0J-147500D01*
G01*
X26080000Y33017500D01*
G75*
G02*
X25932500Y32870000I-147500J0D01*
G01*
X25637500Y32870000D01*
G75*
G02*
X25490000Y33017500I0J147500D01*
G01*
G37*
G36*
G01*
X24520000Y33017500D02*
X24520000Y33362500D01*
G75*
G02*
X24667500Y33510000I147500J0D01*
G01*
X24962500Y33510000D01*
G75*
G02*
X25110000Y33362500I0J-147500D01*
G01*
X25110000Y33017500D01*
G75*
G02*
X24962500Y32870000I-147500J0D01*
G01*
X24667500Y32870000D01*
G75*
G02*
X24520000Y33017500I0J147500D01*
G01*
G37*
G36*
G01*
X27010000Y33362500D02*
X27010000Y33017500D01*
G75*
G02*
X26862500Y32870000I-147500J0D01*
G01*
X26567500Y32870000D01*
G75*
G02*
X26420000Y33017500I0J147500D01*
G01*
X26420000Y33362500D01*
G75*
G02*
X26567500Y33510000I147500J0D01*
G01*
X26862500Y33510000D01*
G75*
G02*
X27010000Y33362500I0J-147500D01*
G01*
G37*
G36*
G01*
X27980000Y33362500D02*
X27980000Y33017500D01*
G75*
G02*
X27832500Y32870000I-147500J0D01*
G01*
X27537500Y32870000D01*
G75*
G02*
X27390000Y33017500I0J147500D01*
G01*
X27390000Y33362500D01*
G75*
G02*
X27537500Y33510000I147500J0D01*
G01*
X27832500Y33510000D01*
G75*
G02*
X27980000Y33362500I0J-147500D01*
G01*
G37*
G36*
G01*
X50987500Y26590000D02*
X51332500Y26590000D01*
G75*
G02*
X51480000Y26442500I0J-147500D01*
G01*
X51480000Y26147500D01*
G75*
G02*
X51332500Y26000000I-147500J0D01*
G01*
X50987500Y26000000D01*
G75*
G02*
X50840000Y26147500I0J147500D01*
G01*
X50840000Y26442500D01*
G75*
G02*
X50987500Y26590000I147500J0D01*
G01*
G37*
G36*
G01*
X50987500Y27560000D02*
X51332500Y27560000D01*
G75*
G02*
X51480000Y27412500I0J-147500D01*
G01*
X51480000Y27117500D01*
G75*
G02*
X51332500Y26970000I-147500J0D01*
G01*
X50987500Y26970000D01*
G75*
G02*
X50840000Y27117500I0J147500D01*
G01*
X50840000Y27412500D01*
G75*
G02*
X50987500Y27560000I147500J0D01*
G01*
G37*
M02*
