M48
; DRILL file {KiCad 5.1.7-a382d34a8~87~ubuntu20.04.1} date Sun Nov 22 14:39:15 2020
; FORMAT={-:-/ absolute / metric / decimal}
; #@! TF.CreationDate,2020-11-22T14:39:15-08:00
; #@! TF.GenerationSoftware,Kicad,Pcbnew,5.1.7-a382d34a8~87~ubuntu20.04.1
FMAT,2
METRIC
T1C0.250
T2C0.550
T3C0.700
T4C0.800
T5C1.000
T6C1.016
T7C2.300
T8C2.700
T9C1.152
%
G90
G05
T1
X4.78Y22.59
X5.756Y7.019
X5.8Y16.05
X5.84Y18.07
X5.878Y45.968
X5.878Y45.284
X6.1Y39.39
X6.382Y18.07
X7.09Y13.43
X7.144Y42.408
X7.525Y41.646
X7.61Y31.28
X7.77Y24.12
X7.906Y8.88
X8.0Y28.66
X8.287Y44.059
X8.866Y35.898
X8.942Y20.74
X9.46Y39.192
X9.85Y12.3
X10.7Y42.89
X10.7Y38.49
X11.1Y33.79
X11.22Y30.41
X11.35Y32.33
X11.55Y40.258
X11.716Y25.6
X12.17Y8.88
X12.9Y42.49
X13.16Y33.54
X13.91Y33.53
X14.0Y42.424
X14.5Y39.89
X14.6Y37.59
X14.6Y34.89
X15.018Y21.58
X15.786Y37.74
X15.82Y14.37
X16.034Y24.374
X16.339Y44.567
X16.492Y22.58
X16.514Y37.74
X16.796Y45.456
X16.796Y43.678
X16.81Y34.27
X17.3Y22.39
X17.482Y43.437
X17.5Y34.64
X17.75Y29.64
X17.786Y22.876
X17.812Y27.803
X18.0Y29.14
X18.18Y43.386
X18.217Y16.147
X18.243Y18.647
X18.25Y30.14
X18.498Y44.669
X18.507Y28.147
X18.574Y43.932
X18.731Y15.633
X18.757Y18.133
X18.828Y46.98
X18.828Y28.819
X18.899Y19.615
X19.069Y43.386
X19.104Y23.836
X19.336Y47.488
X19.54Y8.9
X19.768Y43.386
X19.844Y47.996
X19.99Y32.308
X20.0Y33.39
X20.0Y19.39
X20.075Y18.603
X20.14Y16.96
X20.15Y17.64
X20.25Y27.817
X20.25Y27.14
X20.5Y36.64
X20.606Y48.25
X20.964Y25.432
X20.987Y31.39
X21.0Y20.39
X21.0Y16.39
X21.25Y38.764
X21.25Y38.036
X21.368Y48.25
X21.368Y46.726
X21.5Y36.64
X21.508Y37.392
X21.554Y7.836
X21.94Y14.22
X21.983Y28.317
X22.0Y34.39
X22.0Y33.39
X22.0Y27.39
X22.0Y26.39
X22.0Y18.39
X22.0Y15.39
X22.002Y23.384
X22.13Y48.25
X22.409Y40.274
X22.5Y7.853
X22.727Y39.69
X22.765Y40.935
X22.892Y48.25
X22.9Y14.22
X23.0Y25.39
X23.0Y21.39
X23.0Y20.39
X23.0Y18.39
X23.248Y41.494
X23.298Y46.726
X23.362Y42.865
X23.4Y7.59
X23.552Y38.369
X23.552Y37.785
X23.552Y37.201
X23.562Y36.58
X23.654Y48.25
X23.781Y43.297
X23.908Y32.39
X23.95Y1.14
X23.99Y24.472
X24.0Y33.39
X24.0Y17.39
X24.077Y7.608
X24.171Y28.894
X24.238Y46.726
X24.416Y48.25
X24.7Y3.59
X24.783Y29.493
X24.935Y15.413
X24.99Y34.308
X25.0Y32.39
X25.0Y26.4
X25.0Y24.39
X25.0Y23.39
X25.0Y19.39
X25.044Y27.414
X25.178Y38.433
X25.305Y40.706
X25.343Y43.284
X25.432Y40.015
X25.432Y39.212
X25.47Y37.264
X25.661Y48.072
X25.9Y5.69
X26.0Y32.39
X26.0Y31.39
X26.0Y28.39
X26.0Y27.39
X26.0Y26.39
X26.0Y25.39
X26.0Y24.39
X26.0Y23.39
X26.0Y21.39
X26.092Y47.437
X26.095Y22.485
X26.1Y12.79
X26.88Y37.912
X26.88Y37.328
X26.905Y42.383
X26.905Y38.496
X26.905Y36.718
X26.94Y19.45
X26.943Y43.17
X26.957Y40.015
X26.957Y39.212
X26.981Y46.345
X27.0Y34.39
X27.0Y32.39
X27.0Y28.39
X27.0Y27.39
X27.0Y26.39
X27.0Y24.39
X27.0Y22.39
X27.0Y21.39
X27.0Y12.79
X27.083Y45.507
X27.185Y44.745
X27.185Y43.983
X27.187Y30.498
X27.362Y41.837
X27.591Y38.369
X27.591Y37.76
X27.591Y37.15
X27.591Y36.591
X27.604Y38.954
X27.807Y42.294
X27.9Y12.79
X27.94Y32.39
X27.97Y18.38
X28.0Y30.39
X28.0Y28.39
X28.0Y27.39
X28.0Y25.39
X28.0Y24.39
X28.0Y23.39
X28.0Y22.39
X28.0Y21.39
X28.0Y16.356
X28.086Y39.284
X28.26Y7.81
X28.48Y42.179
X28.924Y42.611
X28.936Y26.454
X28.986Y27.402
X28.988Y16.402
X28.988Y37.976
X28.99Y28.41
X29.0Y30.39
X29.0Y29.39
X29.0Y24.39
X29.0Y19.446
X29.107Y7.47
X29.376Y9.888
X29.382Y43.056
X29.4Y12.79
X29.5Y36.59
X29.506Y35.238
X29.603Y34.232
X29.636Y40.757
X29.712Y41.392
X29.826Y43.5
X29.967Y19.446
X29.98Y24.45
X30.0Y31.39
X30.0Y30.39
X30.0Y29.39
X30.0Y28.39
X30.0Y26.39
X30.0Y22.39
X30.0Y21.39
X30.0Y20.39
X30.024Y15.373
X30.12Y23.29
X30.2Y12.79
X30.271Y43.945
X30.296Y41.417
X30.36Y42.04
X30.5Y38.79
X30.5Y36.59
X30.525Y39.512
X30.702Y44.389
X30.919Y18.39
X30.944Y42.065
X30.956Y39.931
X30.957Y16.345
X30.995Y42.675
X31.0Y38.19
X31.0Y33.39
X31.0Y32.39
X31.0Y30.39
X31.0Y29.39
X31.0Y24.39
X31.0Y22.39
X31.0Y12.79
X31.134Y44.821
X31.503Y37.696
X31.503Y8.787
X31.566Y45.253
X31.566Y42.687
X31.693Y43.373
X31.757Y38.255
X31.989Y22.308
X31.998Y45.685
X32.0Y29.39
X32.0Y27.38
X32.0Y24.39
X32.0Y20.39
X32.0Y19.39
X32.188Y38.687
X32.303Y43.424
X32.404Y44.084
X32.411Y13.807
X32.442Y46.116
X32.71Y9.967
X32.99Y22.308
X32.99Y27.424
X33.0Y36.64
X33.0Y34.39
X33.0Y25.403
X33.0Y24.39
X33.0Y20.39
X33.0Y16.39
X33.022Y15.436
X33.53Y7.85
X33.801Y47.64
X33.816Y13.782
X33.954Y43.614
X33.966Y42.218
X33.979Y32.455
X33.99Y22.308
X33.99Y19.308
X33.993Y33.397
X34.0Y28.456
X34.0Y24.39
X34.0Y21.39
X34.005Y45.672
X34.462Y48.123
X34.492Y13.807
X34.563Y42.218
X34.99Y32.46
X35.0Y35.39
X35.0Y24.39
X35.059Y48.136
X35.097Y43.665
X35.16Y42.218
X35.516Y13.677
X35.526Y16.18
X35.655Y48.148
X35.757Y42.218
X35.77Y43.678
X35.782Y25.635
X35.82Y21.288
X35.973Y37.074
X35.974Y3.304
X36.019Y35.439
X36.02Y20.438
X36.035Y27.423
X36.05Y32.49
X36.099Y18.638
X36.252Y48.148
X36.354Y42.218
X36.354Y37.455
X36.697Y46.815
X36.75Y35.14
X36.77Y17.75
X36.849Y48.148
X36.925Y42.218
X36.986Y22.324
X36.986Y21.376
X37.0Y34.39
X37.0Y18.39
X37.0Y16.39
X37.0Y11.49
X37.0Y10.89
X37.0Y10.29
X37.01Y19.378
X37.038Y32.421
X37.091Y43.653
X37.135Y22.984
X37.234Y25.291
X37.421Y14.061
X37.433Y48.148
X37.51Y42.218
X37.65Y29.59
X37.739Y18.287
X37.865Y43.64
X37.888Y19.436
X37.899Y34.615
X38.0Y32.39
X38.0Y22.39
X38.0Y21.39
X38.0Y16.39
X38.03Y48.148
X38.074Y17.18
X38.107Y42.218
X38.54Y15.55
X38.627Y47.932
X38.703Y42.218
X38.748Y26.732
X38.856Y7.856
X38.907Y19.391
X38.918Y21.385
X38.929Y22.377
X38.956Y27.434
X39.0Y33.39
X39.0Y18.39
X39.008Y24.451
X39.029Y29.419
X39.03Y9.26
X39.046Y47.501
X39.212Y43.627
X39.24Y15.53
X39.415Y47.031
X39.53Y19.127
X39.75Y39.504
X39.75Y38.776
X39.834Y43.653
X39.99Y26.472
X40.0Y31.39
X40.2Y21.19
X40.481Y45.786
X40.71Y25.796
X40.753Y19.915
X40.97Y8.873
X40.997Y16.397
X41.021Y26.397
X41.087Y28.491
X41.122Y27.109
X41.18Y35.423
X41.2Y33.19
X41.236Y15.763
X41.25Y21.14
X41.4Y22.39
X41.409Y42.395
X41.44Y14.03
X41.5Y14.64
X41.663Y28.134
X41.7Y31.49
X41.7Y30.79
X41.7Y30.008
X41.8Y24.82
X41.8Y21.424
X41.8Y20.89
X41.828Y42.827
X41.904Y8.59
X41.942Y38.09
X42.0Y19.14
X42.09Y23.77
X42.1Y31.09
X42.285Y43.195
X42.74Y15.29
X42.882Y45.443
X43.326Y45.1
X43.415Y44.008
X43.52Y21.75
X43.542Y44.58
X44.191Y18.923
X44.26Y25.38
X44.37Y19.98
X44.482Y5.705
X44.62Y22.97
X44.72Y20.43
X44.863Y44.821
X44.98Y26.99
X45.13Y18.9
X45.82Y43.396
X46.414Y32.93
X46.43Y39.93
X46.88Y26.32
X47.276Y47.234
X47.47Y8.65
X47.86Y37.54
X48.08Y8.65
X48.11Y36.751
X48.301Y13.758
X48.41Y17.136
X48.42Y24.49
X48.94Y22.33
X49.07Y36.75
X49.12Y43.308
X49.16Y20.46
X49.798Y7.188
X49.89Y28.74
X49.943Y43.805
X50.06Y38.44
X50.4Y27.29
X50.496Y26.593
X50.5Y28.39
X50.52Y25.4
X50.535Y23.485
X50.66Y37.84
X50.688Y7.764
X50.705Y43.805
X51.54Y11.55
X52.25Y13.504
X52.25Y12.776
X52.5Y22.39
X52.61Y9.134
X53.1Y22.39
X53.118Y8.626
X53.7Y22.39
X54.1Y47.19
X54.1Y46.39
X54.102Y5.489
X54.102Y4.53
X54.3Y22.39
X54.544Y38.346
X54.544Y37.357
T2
X22.0Y4.44
X26.0Y4.44
T3
X34.49Y44.5
X34.99Y46.0
X36.49Y44.5
X37.49Y46.0
X38.49Y44.5
X39.49Y46.0
X40.49Y44.5
X41.99Y46.0
X42.49Y44.5
X17.49Y44.5
X17.99Y46.0
X19.49Y44.5
X20.49Y46.0
X21.49Y44.5
X22.49Y46.0
X23.49Y44.5
X24.99Y46.0
X25.49Y44.5
T5
X29.99Y2.3
X43.13Y6.33
X43.13Y3.79
X43.13Y1.25
X45.67Y6.33
X45.67Y3.79
X45.67Y1.25
X14.46Y6.33
X14.46Y3.79
X14.46Y1.25
X17.0Y6.33
X17.0Y3.79
X17.0Y1.25
T6
X56.17Y49.51
X56.17Y46.97
X56.17Y44.43
X56.17Y41.89
X56.17Y39.35
X56.17Y36.81
X56.17Y34.27
X56.17Y31.73
X56.17Y29.19
X56.17Y26.65
X56.17Y24.11
X56.17Y21.57
X56.17Y19.03
X56.17Y16.49
X56.17Y13.95
X56.17Y11.41
X56.17Y8.87
X56.17Y6.33
X56.17Y3.79
X56.17Y1.25
X58.71Y49.51
X58.71Y46.97
X58.71Y44.43
X58.71Y41.89
X58.71Y39.35
X58.71Y36.81
X58.71Y34.27
X58.71Y31.73
X58.71Y29.19
X58.71Y26.65
X58.71Y24.11
X58.71Y21.57
X58.71Y19.03
X58.71Y16.49
X58.71Y13.95
X58.71Y11.41
X58.71Y8.87
X58.71Y6.33
X58.71Y3.79
X58.71Y1.25
X1.27Y49.51
X1.27Y46.97
X1.27Y44.43
X1.27Y41.89
X1.27Y39.35
X1.27Y36.81
X1.27Y34.27
X1.27Y31.73
X1.27Y29.19
X1.27Y26.65
X1.27Y24.11
X1.27Y21.57
X1.27Y19.03
X1.27Y16.49
X1.27Y13.95
X1.27Y11.41
X1.27Y8.87
X1.27Y6.33
X1.27Y3.79
X1.27Y1.25
X3.81Y49.51
X3.81Y46.97
X3.81Y44.43
X3.81Y41.89
X3.81Y39.35
X3.81Y36.81
X3.81Y34.27
X3.81Y31.73
X3.81Y29.19
X3.81Y26.65
X3.81Y24.11
X3.81Y21.57
X3.81Y19.03
X3.81Y16.49
X3.81Y13.95
X3.81Y11.41
X3.81Y8.87
X3.81Y6.33
X3.81Y3.79
X3.81Y1.25
T7
X31.92Y48.0
X45.06Y48.0
X14.92Y48.0
X28.06Y48.0
T8
X50.49Y46.89
X9.49Y46.89
X50.49Y3.89
X9.49Y3.89
T9
X11.9Y1.2
X17.19Y49.139
X47.9Y1.2
T4
G00X20.4Y6.11
M15
G01X20.4Y5.41
M16
G05
G00X20.4Y2.64
M15
G01X20.4Y1.94
M16
G05
G00X27.6Y6.11
M15
G01X27.6Y5.41
M16
G05
G00X27.6Y2.64
M15
G01X27.6Y1.94
M16
G05
T0
M30
