G04 #@! TF.GenerationSoftware,KiCad,Pcbnew,5.1.5-52549c5~86~ubuntu19.10.1*
G04 #@! TF.CreationDate,2020-04-19T19:19:03-07:00*
G04 #@! TF.ProjectId,artix7-pcie-v2,61727469-7837-42d7-9063-69652d76322e,rev?*
G04 #@! TF.SameCoordinates,PX69f4060PY6b00940*
G04 #@! TF.FileFunction,Copper,L3,Inr*
G04 #@! TF.FilePolarity,Positive*
%FSLAX46Y46*%
G04 Gerber Fmt 4.6, Leading zero omitted, Abs format (unit mm)*
G04 Created by KiCad (PCBNEW 5.1.5-52549c5~86~ubuntu19.10.1) date 2020-04-19 19:19:03*
%MOMM*%
%LPD*%
G04 APERTURE LIST*
%ADD10C,4.700000*%
%ADD11C,0.550000*%
%ADD12O,1.500000X2.200000*%
%ADD13C,2.000000*%
%ADD14O,1.700000X1.700000*%
%ADD15R,1.700000X1.700000*%
%ADD16C,3.000000*%
%ADD17C,1.200000*%
%ADD18O,1.727200X1.727200*%
%ADD19R,1.727200X1.727200*%
%ADD20O,1.000000X1.000000*%
%ADD21R,1.000000X1.000000*%
%ADD22C,0.508000*%
%ADD23C,1.270000*%
%ADD24C,0.300000*%
%ADD25C,0.762000*%
%ADD26C,0.127000*%
%ADD27C,0.152400*%
%ADD28C,0.025400*%
G04 APERTURE END LIST*
D10*
X50490000Y3890000D03*
X50490000Y46890000D03*
X9490000Y3890000D03*
X9490000Y46890000D03*
D11*
X22000000Y4440000D03*
X26000000Y4440000D03*
D12*
X20400000Y2290000D03*
X27600000Y2290000D03*
X27600000Y5760000D03*
X20400000Y5760000D03*
D13*
X10800000Y8190000D03*
D14*
X43130000Y6330000D03*
X45670000Y6330000D03*
X43130000Y3790000D03*
X45670000Y3790000D03*
X43130000Y1250000D03*
D15*
X45670000Y1250000D03*
D16*
X31920000Y48000000D03*
X45060000Y48000000D03*
D17*
X42490000Y44500000D03*
X40490000Y44500000D03*
X38490000Y44500000D03*
X36490000Y44500000D03*
X34490000Y44500000D03*
X34990000Y46000000D03*
X37490000Y46000000D03*
X39490000Y46000000D03*
X41990000Y46000000D03*
D14*
X14460000Y6330000D03*
X17000000Y6330000D03*
X14460000Y3790000D03*
X17000000Y3790000D03*
X14460000Y1250000D03*
D15*
X17000000Y1250000D03*
D18*
X1270000Y1250000D03*
X3810000Y1250000D03*
D19*
X1270000Y3790000D03*
X3810000Y3790000D03*
D18*
X1270000Y6330000D03*
X3810000Y6330000D03*
X1270000Y8870000D03*
X3810000Y8870000D03*
X1270000Y11410000D03*
X3810000Y11410000D03*
X1270000Y13950000D03*
X3810000Y13950000D03*
X1270000Y16490000D03*
X3810000Y16490000D03*
X1270000Y19030000D03*
X3810000Y19030000D03*
X1270000Y21570000D03*
X3810000Y21570000D03*
D19*
X1270000Y24110000D03*
X3810000Y24110000D03*
D18*
X1270000Y26650000D03*
X3810000Y26650000D03*
X1270000Y29190000D03*
X3810000Y29190000D03*
X1270000Y31730000D03*
X3810000Y31730000D03*
X1270000Y34270000D03*
X3810000Y34270000D03*
X1270000Y36810000D03*
X3810000Y36810000D03*
X1270000Y39350000D03*
X3810000Y39350000D03*
X1270000Y41890000D03*
X3810000Y41890000D03*
X1270000Y44430000D03*
X3810000Y44430000D03*
D19*
X1270000Y46970000D03*
X3810000Y46970000D03*
D18*
X1270000Y49510000D03*
X3810000Y49510000D03*
D16*
X14920000Y48000000D03*
X28060000Y48000000D03*
D17*
X25490000Y44500000D03*
X23490000Y44500000D03*
X21490000Y44500000D03*
X19490000Y44500000D03*
X17490000Y44500000D03*
X17990000Y46000000D03*
X20490000Y46000000D03*
X22490000Y46000000D03*
X24990000Y46000000D03*
D18*
X58710000Y49510000D03*
X56170000Y49510000D03*
D19*
X58710000Y46970000D03*
X56170000Y46970000D03*
D18*
X58710000Y44430000D03*
X56170000Y44430000D03*
X58710000Y41890000D03*
X56170000Y41890000D03*
X58710000Y39350000D03*
X56170000Y39350000D03*
X58710000Y36810000D03*
X56170000Y36810000D03*
X58710000Y34270000D03*
X56170000Y34270000D03*
X58710000Y31730000D03*
X56170000Y31730000D03*
X58710000Y29190000D03*
X56170000Y29190000D03*
D19*
X58710000Y26650000D03*
X56170000Y26650000D03*
D18*
X58710000Y24110000D03*
X56170000Y24110000D03*
X58710000Y21570000D03*
X56170000Y21570000D03*
X58710000Y19030000D03*
X56170000Y19030000D03*
X58710000Y16490000D03*
X56170000Y16490000D03*
X58710000Y13950000D03*
X56170000Y13950000D03*
X58710000Y11410000D03*
X56170000Y11410000D03*
X58710000Y8870000D03*
X56170000Y8870000D03*
X58710000Y6330000D03*
X56170000Y6330000D03*
D19*
X58710000Y3790000D03*
X56170000Y3790000D03*
D18*
X58710000Y1250000D03*
X56170000Y1250000D03*
D20*
X30000000Y2460000D03*
D21*
X30000000Y1190000D03*
D11*
X27250000Y38790000D03*
X10700000Y38490000D03*
X27000000Y26390000D03*
X28000000Y25390000D03*
X27000000Y24390000D03*
X28000000Y23390000D03*
X29000000Y21390000D03*
X30000000Y22390000D03*
X31000000Y22390000D03*
X28000000Y24390000D03*
X29000000Y24390000D03*
X25000000Y24390000D03*
X25000000Y23390000D03*
X26000000Y28390000D03*
X28000000Y27390000D03*
X26000000Y32390000D03*
X27000000Y32390000D03*
X30000000Y28390000D03*
X30000000Y29390000D03*
X30000000Y30390000D03*
X29000000Y30390000D03*
X31000000Y33390000D03*
X29000000Y20390000D03*
X27000000Y21390000D03*
X34000000Y24390000D03*
X23000000Y20390000D03*
X24000000Y17390000D03*
X26000000Y18390000D03*
X33000000Y16390000D03*
X38000000Y22390000D03*
X34000000Y33390000D03*
X32000000Y29390000D03*
X22000000Y33390000D03*
X27500000Y36590000D03*
X24000000Y33390000D03*
X21000000Y16390000D03*
X28986217Y27401998D03*
X32000000Y20390000D03*
X25000000Y19390000D03*
X23990000Y24471544D03*
X37000000Y34390000D03*
X33989999Y19308457D03*
X21908456Y28390000D03*
X38000000Y32390000D03*
X41200000Y33190000D03*
X29000000Y19446010D03*
X36986130Y21376130D03*
X36000000Y3490000D03*
X23950000Y1140000D03*
X30500000Y5190000D03*
X37000000Y11490000D03*
X37000000Y10890000D03*
X37000000Y10290000D03*
X28000000Y16355511D03*
X7700000Y41190000D03*
X28000000Y30390000D03*
X6100000Y39390000D03*
X21554447Y7835553D03*
X30024084Y15373010D03*
X13545800Y32943145D03*
X39530024Y19126649D03*
X32990000Y27424490D03*
X42900000Y35590000D03*
X40825989Y35856129D03*
X48200000Y36990000D03*
X48800000Y33690000D03*
X48800000Y24490000D03*
X45900000Y22390000D03*
X48300000Y27690000D03*
X42602325Y26586432D03*
X42312082Y25634782D03*
X46200000Y13290000D03*
X49700000Y17590000D03*
X25900000Y5690000D03*
X11000000Y13590000D03*
X12100000Y24990000D03*
X13300000Y28490000D03*
X29500000Y36590000D03*
X30500000Y36590000D03*
X31000000Y32390000D03*
X29602585Y34231701D03*
X45815510Y43391901D03*
X40709522Y25796011D03*
X37233613Y25290512D03*
X36050000Y28290000D03*
X39028920Y29419412D03*
X35049663Y31224490D03*
X25550000Y36590000D03*
X35819521Y21288013D03*
X23561772Y36579948D03*
X24782645Y29492918D03*
X23939017Y29549851D03*
X23000000Y31826890D03*
X47733682Y15772090D03*
X7849130Y9862990D03*
X37420834Y14060834D03*
X36810796Y6818978D03*
X32360022Y10180927D03*
X15962990Y22521237D03*
X20964095Y25431742D03*
X22001512Y23383952D03*
X25037010Y27390000D03*
X16068010Y12972603D03*
X18898832Y19614973D03*
X21500000Y36640000D03*
X20500000Y36640000D03*
X37898711Y34615235D03*
X36574212Y17780876D03*
X48000000Y6640000D03*
X25250000Y38790000D03*
X27250000Y42140000D03*
X14000000Y42424490D03*
X44840382Y40072090D03*
X45904999Y32694999D03*
X44500000Y19890000D03*
X41235756Y15763314D03*
X18923781Y28706436D03*
X45000000Y20390000D03*
X46250000Y12640000D03*
X46250000Y11890000D03*
X44000000Y31640000D03*
X13500000Y29390000D03*
X12250000Y16390000D03*
X13300000Y19257910D03*
X15973186Y19257910D03*
X11632117Y22992341D03*
X8866256Y35897604D03*
X27000000Y20390000D03*
X30000000Y20390000D03*
X34000000Y21390000D03*
X31000000Y30390000D03*
X11100000Y33790000D03*
X19400000Y8890000D03*
X14500000Y39890000D03*
X33000000Y25402555D03*
X14600000Y34890000D03*
X14600000Y37590000D03*
X6400000Y31290000D03*
X37888079Y19436411D03*
X31429166Y8860834D03*
X40200000Y21190000D03*
X50400000Y27290000D03*
X53500000Y28490000D03*
X53800000Y23590000D03*
X36985646Y22323740D03*
X9459983Y39192002D03*
X41904481Y8590008D03*
X50687762Y7764068D03*
X41439692Y14029692D03*
X40969521Y8872935D03*
X38073778Y17180383D03*
X41500000Y14640000D03*
X28000000Y28390000D03*
X27000000Y28390000D03*
X29000000Y28390000D03*
X27000000Y27390000D03*
X26000000Y26390000D03*
X26000000Y27390000D03*
X26000000Y31390000D03*
X28000000Y32390000D03*
X25000000Y32390000D03*
X30000000Y26390000D03*
X26000000Y25390000D03*
X26000000Y24390000D03*
X26000000Y23390000D03*
X26000000Y22390000D03*
X26000000Y21390000D03*
X27000000Y22390000D03*
X28000000Y22390000D03*
X29000000Y23390000D03*
X28000000Y21390000D03*
X17750000Y29640000D03*
X18000000Y29140000D03*
X25989999Y20308456D03*
X27187238Y30497541D03*
X18250000Y30140000D03*
X18750000Y29640000D03*
X30000000Y21390000D03*
X30000000Y27390000D03*
X30000000Y31390000D03*
X31000000Y24390000D03*
X28936130Y26453870D03*
X31000000Y29390000D03*
X30100000Y23190000D03*
X41800000Y21424490D03*
X41400000Y22390000D03*
X41800000Y20890000D03*
X41250000Y21140000D03*
X26100000Y12790000D03*
X27000000Y12790000D03*
X27900000Y12790000D03*
X29400000Y12790000D03*
X30200000Y12790000D03*
X31000000Y12790000D03*
X8000000Y27290000D03*
X8000000Y27890000D03*
X9200000Y20740000D03*
X51000000Y14690000D03*
X51400000Y15090000D03*
X51800000Y15490000D03*
X54300000Y22390000D03*
X53700000Y22390000D03*
X53100000Y22390000D03*
X52500000Y22390000D03*
X51750000Y32640000D03*
X52400000Y31990000D03*
X9850000Y20507910D03*
X10600000Y20590000D03*
X31988882Y22308447D03*
X30956691Y16345308D03*
X32000000Y19390000D03*
X33000000Y20390000D03*
X33815635Y13781511D03*
X29000000Y29390000D03*
X29967473Y19446010D03*
X32000000Y24390000D03*
X34492167Y13806990D03*
X32411316Y13806990D03*
X35516468Y13677010D03*
X38918082Y21385287D03*
X41803945Y27992588D03*
X43500000Y25490000D03*
X43700000Y21790000D03*
X20250000Y17640000D03*
X18216780Y16147317D03*
X20250000Y16890000D03*
X18731414Y15632683D03*
X20000000Y19390000D03*
X18242683Y18647317D03*
X20075446Y18603017D03*
X18757317Y18132683D03*
X20250000Y27140000D03*
X17992683Y27632683D03*
X20250000Y27817013D03*
X18507317Y28147317D03*
X36018668Y35439497D03*
X39750000Y39503900D03*
X36750000Y35140000D03*
X39750000Y38776100D03*
X52250000Y12776100D03*
X38572987Y15640000D03*
X39250000Y15640000D03*
X52250000Y13503900D03*
X34000000Y28455510D03*
X35731839Y25780171D03*
X41021445Y26396884D03*
X38748111Y26732250D03*
X37392570Y29622058D03*
X39000000Y18390000D03*
X42000000Y19140000D03*
X30918980Y18390000D03*
X28987675Y16402325D03*
X33021607Y15436232D03*
X35526468Y16180039D03*
X37739146Y18287478D03*
X40997378Y16396971D03*
X37135365Y22983989D03*
X38000000Y21390000D03*
X38929337Y22377405D03*
X32989999Y22308456D03*
X28600000Y13827010D03*
X33989999Y22308456D03*
X29500000Y13827010D03*
X31670212Y13806990D03*
X33000000Y24390000D03*
X33000000Y36640000D03*
X47276000Y47234000D03*
X40750000Y38390000D03*
X49119697Y43307910D03*
X24076776Y7607870D03*
X36020442Y20437635D03*
X36098875Y18637846D03*
X37000000Y18390000D03*
X23400000Y7590000D03*
X37009806Y19377742D03*
X22499623Y7852990D03*
X9900000Y43090000D03*
X8791848Y40720802D03*
X21250000Y38036100D03*
X22000000Y31390000D03*
X21250000Y38763900D03*
X23908456Y32390001D03*
X23000000Y21390000D03*
X23000000Y18390000D03*
X22000000Y15390000D03*
X22000000Y18390000D03*
X21000000Y20390000D03*
X22000000Y14290000D03*
X25979690Y16405696D03*
X15300000Y21190000D03*
X5686561Y18079579D03*
X5796093Y16186093D03*
X5800000Y4690000D03*
X21607910Y13901243D03*
X33000000Y34390000D03*
X39000000Y33390000D03*
X35000000Y35390000D03*
X40000000Y31390000D03*
X41700000Y31490000D03*
X41700000Y30790000D03*
X42100000Y31090000D03*
X54100000Y47190000D03*
X33979470Y32454916D03*
X36369150Y32559521D03*
X54100000Y46390000D03*
X50500000Y43640000D03*
X51200000Y43640000D03*
X39007558Y24451416D03*
X39990001Y26471543D03*
X10700000Y42890000D03*
X38956073Y27434059D03*
X12900000Y42490000D03*
X11550000Y40257910D03*
X22000000Y34390000D03*
X24989999Y34308456D03*
X29506294Y35238201D03*
X27000000Y34390000D03*
X47700000Y33690000D03*
X48381010Y26971010D03*
X2402177Y18009611D03*
X54486474Y15370066D03*
X37000000Y16390000D03*
X18426442Y36111573D03*
X38000000Y16390000D03*
X17825940Y36864060D03*
X35000000Y24390000D03*
X36034838Y27423167D03*
X41700000Y30007910D03*
X41250000Y28390000D03*
X41122316Y27109353D03*
X48885617Y28772090D03*
X40752812Y19915009D03*
X48381010Y17571010D03*
X51300000Y17590000D03*
X21517618Y49973988D03*
X18200000Y49699007D03*
X17500000Y34640000D03*
X22000000Y26390000D03*
X16500000Y24640000D03*
X23000000Y25390000D03*
X22000000Y27390000D03*
X20000000Y33390000D03*
X17000000Y21590000D03*
X17000000Y22140000D03*
X19990001Y32308457D03*
X5877999Y45284239D03*
X16644083Y30645917D03*
X24170719Y28893841D03*
X17500000Y22390000D03*
X16284498Y28839145D03*
X19104115Y23835783D03*
X49797638Y7187638D03*
X24700000Y3590000D03*
X38906892Y19391319D03*
X31000000Y38190000D03*
X30500000Y38790000D03*
X25550000Y40294727D03*
X26826860Y40294727D03*
X25550000Y39566927D03*
X26826860Y39566927D03*
X38700000Y48390000D03*
X49171834Y38757910D03*
X50102846Y38879568D03*
D22*
X28600000Y18790000D02*
X30300000Y18790000D01*
X31800000Y21390000D02*
X34000000Y21390000D01*
X30300000Y18790000D02*
X31300000Y19790000D01*
X27000000Y20390000D02*
X28600000Y18790000D01*
X31300000Y20890000D02*
X31800000Y21390000D01*
X30000000Y20390000D02*
X31300000Y20390000D01*
X31300000Y19790000D02*
X31300000Y20390000D01*
X31300000Y20390000D02*
X31300000Y20890000D01*
D23*
X6400000Y31290000D02*
X6400000Y31790000D01*
X6400000Y31790000D02*
X8400000Y33790000D01*
X8400000Y33790000D02*
X11100000Y33790000D01*
X11100000Y33790000D02*
X11100000Y36490000D01*
X11100000Y36490000D02*
X14500000Y39890000D01*
D22*
X34000000Y26390000D02*
X33987445Y26390000D01*
X33987445Y26390000D02*
X33000000Y25402555D01*
X14600000Y37590000D02*
X14600000Y34890000D01*
X37888079Y19825319D02*
X37888079Y19436411D01*
X37888079Y20378079D02*
X37888079Y19436411D01*
X40226382Y17363618D02*
X40200000Y17390000D01*
X37888079Y20378079D02*
X37088079Y20378079D01*
X31000000Y30390000D02*
X32100000Y30390000D01*
X32100000Y30390000D02*
X33200000Y29290000D01*
X33200000Y29290000D02*
X33200000Y28190000D01*
X34000000Y27390000D02*
X34000000Y26390000D01*
X33200000Y28190000D02*
X34000000Y27390000D01*
X37253827Y26436173D02*
X34046173Y26436173D01*
X42816010Y22273990D02*
X39700000Y25390000D01*
X34046173Y26436173D02*
X34000000Y26390000D01*
X38300000Y25390000D02*
X37253827Y26436173D01*
X39700000Y25390000D02*
X38300000Y25390000D01*
D24*
X49068614Y25958614D02*
X46968614Y25958614D01*
X50400000Y27290000D02*
X49068614Y25958614D01*
X46968614Y25958614D02*
X44500000Y23490000D01*
X44500000Y23490000D02*
X44500000Y21690000D01*
X42816010Y21106010D02*
X43916010Y21106010D01*
X43916010Y21106010D02*
X44500000Y21690000D01*
D22*
X42816010Y21106010D02*
X42816010Y22273990D01*
D23*
X18065238Y8890000D02*
X6400000Y20555238D01*
X19400000Y8890000D02*
X18065238Y8890000D01*
X6400000Y20555238D02*
X6400000Y31290000D01*
D22*
X34933740Y22323740D02*
X36985646Y22323740D01*
X34000000Y21390000D02*
X34933740Y22323740D01*
D24*
X9459983Y38913055D02*
X9459983Y39192002D01*
X11100000Y36490000D02*
X11100000Y37273038D01*
X11100000Y37273038D02*
X9459983Y38913055D01*
D22*
X42816010Y17582012D02*
X42816010Y21106010D01*
X41800000Y16490000D02*
X41800000Y16566002D01*
X41800000Y16566002D02*
X42816010Y17582012D01*
D23*
X54102001Y5488737D02*
X51826670Y7764068D01*
X54102001Y2096685D02*
X54102001Y5488737D01*
X49861822Y8590008D02*
X50687762Y7764068D01*
X51826670Y7764068D02*
X50687762Y7764068D01*
X56170000Y1250000D02*
X54948686Y1250000D01*
X41904481Y8590008D02*
X49861822Y8590008D01*
X54948686Y1250000D02*
X54102001Y2096685D01*
X41904481Y8590008D02*
X41252448Y8590008D01*
X41252448Y8590008D02*
X40969521Y8872935D01*
X35923579Y7855988D02*
X39952574Y7855988D01*
X19400000Y8890000D02*
X34889567Y8890000D01*
X39952574Y7855988D02*
X40969521Y8872935D01*
X34889567Y8890000D02*
X35923579Y7855988D01*
D22*
X34000000Y21390000D02*
X34388908Y21390000D01*
X34388908Y21390000D02*
X35100000Y20678908D01*
X36743743Y20033743D02*
X37088079Y20378079D01*
X36694925Y20033743D02*
X36743743Y20033743D01*
X35705561Y19781634D02*
X36442816Y19781634D01*
X35697195Y19790000D02*
X35705561Y19781634D01*
X35100000Y19790000D02*
X35697195Y19790000D01*
X36442816Y19781634D02*
X36694925Y20033743D01*
X35100000Y20678908D02*
X35100000Y19790000D01*
D24*
X38343287Y20833286D02*
X37888079Y20378079D01*
X39539757Y21190000D02*
X39183043Y20833286D01*
X39183043Y20833286D02*
X38343287Y20833286D01*
X40200000Y21190000D02*
X39539757Y21190000D01*
D22*
X40997264Y17363618D02*
X40226382Y17363618D01*
X41894666Y14484666D02*
X41400000Y13990000D01*
X41800000Y16560882D02*
X40997264Y17363618D01*
X41800000Y16490000D02*
X41894666Y16395334D01*
X41800000Y16490000D02*
X41800000Y16560882D01*
X41894666Y16395334D02*
X41894666Y14484666D01*
X36051381Y17088619D02*
X37593106Y17088619D01*
X35100000Y18040000D02*
X36051381Y17088619D01*
X37593106Y17088619D02*
X37684870Y17180383D01*
X35100000Y19790000D02*
X35100000Y18040000D01*
X40043147Y17180383D02*
X38073778Y17180383D01*
X40226382Y17363618D02*
X40043147Y17180383D01*
X37684870Y17180383D02*
X38073778Y17180383D01*
X41439692Y14579692D02*
X41500000Y14640000D01*
X41439692Y14029692D02*
X41439692Y14579692D01*
X30000000Y26390000D02*
X29000000Y25390000D01*
D23*
X18800000Y30390000D02*
X18000000Y29590000D01*
D22*
X18800000Y30395153D02*
X18800000Y30390000D01*
D23*
X24600000Y30590000D02*
X22734762Y30590000D01*
X22734762Y30590000D02*
X22497761Y30352999D01*
X22497761Y30352999D02*
X18762999Y30352999D01*
D25*
X17750000Y29390000D02*
X18000000Y29140000D01*
X17750000Y29640000D02*
X17750000Y29390000D01*
X18250000Y29140000D02*
X18750000Y29640000D01*
X18000000Y29140000D02*
X18250000Y29140000D01*
D22*
X29626961Y27115001D02*
X29240829Y26728869D01*
X29211129Y26728869D02*
X28936130Y26453870D01*
X29725001Y27115001D02*
X29626961Y27115001D01*
X30000000Y27390000D02*
X29725001Y27115001D01*
X29240829Y26728869D02*
X29211129Y26728869D01*
D26*
X30388908Y23390000D02*
X30500000Y23501092D01*
X30100000Y23190000D02*
X30388908Y23390000D01*
D23*
X41800000Y21190000D02*
X41800000Y21424490D01*
X35945067Y23352999D02*
X36637877Y24045809D01*
X38509797Y23414415D02*
X39810075Y23414415D01*
X39810075Y23414415D02*
X41800000Y21424490D01*
X31065238Y23790000D02*
X31502239Y23352999D01*
X30788908Y23790000D02*
X31065238Y23790000D01*
X30388908Y23390000D02*
X30788908Y23790000D01*
X37878403Y24045809D02*
X38509797Y23414415D01*
X36637877Y24045809D02*
X37878403Y24045809D01*
X31502239Y23352999D02*
X35945067Y23352999D01*
X52400000Y16090000D02*
X52400000Y22390000D01*
X8000000Y27790000D02*
X8000000Y22190000D01*
X8000000Y22190000D02*
X9450000Y20740000D01*
X52400000Y22390000D02*
X52400000Y31990000D01*
X51000000Y14690000D02*
X51400000Y15090000D01*
X51400000Y15090000D02*
X51800000Y15490000D01*
X51800000Y15490000D02*
X52400000Y16090000D01*
X52400000Y22390000D02*
X54200000Y22390000D01*
X31000000Y12790000D02*
X30200000Y12790000D01*
X30200000Y12790000D02*
X29400000Y12790000D01*
X29400000Y12790000D02*
X27900000Y12790000D01*
X27900000Y12790000D02*
X27000000Y12790000D01*
X27000000Y12790000D02*
X26100000Y12790000D01*
X9450000Y20740000D02*
X9838908Y20740000D01*
X20188908Y10390000D02*
X23700000Y10390000D01*
X23700000Y10390000D02*
X26100000Y12790000D01*
X9838908Y20740000D02*
X20188908Y10390000D01*
X39178117Y12640009D02*
X31302431Y12640009D01*
X41678126Y10140000D02*
X39178117Y12640009D01*
X52400000Y15990000D02*
X53750000Y14640000D01*
X31152440Y12790000D02*
X31000000Y12790000D01*
X52400000Y16090000D02*
X52400000Y15990000D01*
X53750000Y14640000D02*
X53750000Y11640000D01*
X31302431Y12640009D02*
X31152440Y12790000D01*
X53750000Y11640000D02*
X52250000Y10140000D01*
X52250000Y10140000D02*
X41678126Y10140000D01*
D25*
X51750000Y32640000D02*
X52400000Y31990000D01*
D26*
X43500000Y25490000D02*
X43500000Y21990000D01*
X43500000Y21990000D02*
X43700000Y21790000D01*
X18515887Y16147317D02*
X18216780Y16147317D01*
X20027400Y17417400D02*
X19785970Y17417400D01*
X19785970Y17417400D02*
X18515887Y16147317D01*
X20250000Y17640000D02*
X20027400Y17417400D01*
X19912224Y17112600D02*
X18731414Y15931790D01*
X20027400Y17112600D02*
X19912224Y17112600D01*
X18731414Y15931790D02*
X18731414Y15632683D01*
X20250000Y16890000D02*
X20027400Y17112600D01*
X19796632Y19186632D02*
X19081105Y19186632D01*
X18541790Y18647317D02*
X18242683Y18647317D01*
X20000000Y19390000D02*
X19796632Y19186632D01*
X19081105Y19186632D02*
X18541790Y18647317D01*
X18757317Y18431790D02*
X18757317Y18132683D01*
X19796632Y18881832D02*
X19207359Y18881832D01*
X20075446Y18603017D02*
X20075446Y18603018D01*
X19207359Y18881832D02*
X18757317Y18431790D01*
X20075446Y18603018D02*
X19796632Y18881832D01*
X18598367Y27326106D02*
X18291790Y27632683D01*
X18291790Y27632683D02*
X17992683Y27632683D01*
X20250000Y27140000D02*
X20063894Y27326106D01*
X20063894Y27326106D02*
X18598367Y27326106D01*
X18507317Y27848210D02*
X18507317Y28147317D01*
X20063894Y27630906D02*
X18724621Y27630906D01*
X20250000Y27817013D02*
X20250000Y27817012D01*
X18724621Y27630906D02*
X18507317Y27848210D01*
X20250000Y27817012D02*
X20063894Y27630906D01*
X36250000Y36003900D02*
X36250000Y35640000D01*
X39750000Y39503900D02*
X36250000Y36003900D01*
X36250000Y35640000D02*
X36049497Y35439497D01*
X36049497Y35439497D02*
X36018668Y35439497D01*
X36750000Y36072847D02*
X36750000Y35140000D01*
X39750000Y38776100D02*
X39453253Y38776100D01*
X39453253Y38776100D02*
X36750000Y36072847D01*
X40686872Y12987600D02*
X42563128Y12987600D01*
X49743896Y12987599D02*
X52038500Y12987600D01*
X44886306Y14779757D02*
X44921949Y14802152D01*
X49626690Y12946588D02*
X49662333Y12968983D01*
X49574529Y12881179D02*
X49596924Y12916822D01*
X45256013Y14674616D02*
X45260727Y14632786D01*
X49555913Y12799616D02*
X49560626Y12841447D01*
X49555913Y12618740D02*
X49555913Y12799616D01*
X49381095Y12255727D02*
X49454615Y12329247D01*
X43710099Y13916822D02*
X43732494Y13881179D01*
X49293059Y12200411D02*
X49381095Y12255727D01*
X48965421Y12154429D02*
X49091602Y12154429D01*
X48675928Y12255727D02*
X48763964Y12200411D01*
X48602408Y12329247D02*
X48675928Y12255727D01*
X48547092Y12417283D02*
X48602408Y12329247D01*
X48501111Y12618740D02*
X48512752Y12515421D01*
X48501111Y12799616D02*
X48501111Y12618740D01*
X49702065Y12982886D02*
X49743896Y12987599D01*
X44856540Y14749991D02*
X44886306Y14779757D01*
X48496397Y12841447D02*
X48501111Y12799616D01*
X48460099Y12916822D02*
X48482494Y12881179D01*
X48430333Y12946588D02*
X48460099Y12916822D01*
X48763964Y12200411D02*
X48862102Y12166071D01*
X47186872Y13987600D02*
X48186872Y12987600D01*
X52038500Y12987600D02*
X52250000Y12776100D01*
X38759093Y15453894D02*
X38759093Y14915379D01*
X45435544Y14088896D02*
X45523580Y14033580D01*
X44805913Y14140000D02*
X44815529Y14140000D01*
X38759093Y14915379D02*
X40686872Y12987600D01*
X45362024Y14162416D02*
X45435544Y14088896D01*
X44805913Y13618740D02*
X44805913Y14140000D01*
X49544271Y12515421D02*
X49555913Y12618740D01*
X45306708Y14250452D02*
X45362024Y14162416D01*
X49509931Y12417283D02*
X49544271Y12515421D01*
X45272368Y14348590D02*
X45306708Y14250452D01*
X49454615Y12329247D02*
X49509931Y12417283D01*
X45260727Y14451909D02*
X45272368Y14348590D01*
X45523580Y14033580D02*
X45621718Y13999240D01*
X44815529Y14140000D02*
X44815529Y14632786D01*
X44444921Y13166071D02*
X44543059Y13200411D01*
X48512752Y12515421D02*
X48547092Y12417283D01*
X44215421Y13154429D02*
X44341602Y13154429D01*
X44961681Y14816055D02*
X45003512Y14820769D01*
X48394690Y12968983D02*
X48430333Y12946588D01*
X43925928Y13255727D02*
X44013964Y13200411D01*
X43644690Y13968983D02*
X43680333Y13946588D01*
X44921949Y14802152D02*
X44961681Y14816055D01*
X45260727Y14632786D02*
X45260727Y14451909D01*
X45725037Y13987599D02*
X47186872Y13987600D01*
X48354958Y12982886D02*
X48394690Y12968983D01*
X43797092Y13417283D02*
X43852408Y13329247D01*
X44112102Y13166071D02*
X44215421Y13154429D01*
X43762752Y13515421D02*
X43797092Y13417283D01*
X49596924Y12916822D02*
X49626690Y12946588D01*
X44834145Y14714348D02*
X44856540Y14749991D01*
X43751111Y13799616D02*
X43751111Y13618740D01*
X49662333Y12968983D02*
X49702065Y12982886D01*
X43746397Y13841447D02*
X43751111Y13799616D01*
X43852408Y13329247D02*
X43925928Y13255727D01*
X49091602Y12154429D02*
X49194921Y12166071D01*
X45219715Y14749991D02*
X45242110Y14714348D01*
X43680333Y13946588D02*
X43710099Y13916822D01*
X48482494Y12881179D02*
X48496397Y12841447D01*
X48862102Y12166071D02*
X48965421Y12154429D01*
X38572987Y15640000D02*
X38759093Y15453894D01*
X42563128Y12987600D02*
X43563128Y13987599D01*
X44013964Y13200411D02*
X44112102Y13166071D01*
X45621718Y13999240D02*
X45725037Y13987599D01*
X45072744Y14820769D02*
X45114574Y14816055D01*
X43732494Y13881179D02*
X43746397Y13841447D01*
X43563128Y13987599D02*
X43604958Y13982886D01*
X43604958Y13982886D02*
X43644690Y13968983D01*
X44631095Y13255727D02*
X44704615Y13329247D01*
X44704615Y13329247D02*
X44759931Y13417283D01*
X48186872Y12987600D02*
X48313128Y12987599D01*
X44759931Y13417283D02*
X44794271Y13515421D01*
X49560626Y12841447D02*
X49574529Y12881179D01*
X48313128Y12987599D02*
X48354958Y12982886D01*
X44794271Y13515421D02*
X44805913Y13618740D01*
X43751111Y13618740D02*
X43762752Y13515421D01*
X44543059Y13200411D02*
X44631095Y13255727D01*
X44815529Y14632786D02*
X44820242Y14674616D01*
X45154306Y14802152D02*
X45189949Y14779757D01*
X44820242Y14674616D02*
X44834145Y14714348D01*
X45189949Y14779757D02*
X45219715Y14749991D01*
X49194921Y12166071D02*
X49293059Y12200411D01*
X44341602Y13154429D02*
X44444921Y13166071D01*
X45242110Y14714348D02*
X45256013Y14674616D01*
X45003512Y14820769D02*
X45072744Y14820769D01*
X45114574Y14816055D02*
X45154306Y14802152D01*
X48759931Y13029548D02*
X48794271Y12931410D01*
X48805913Y12828091D02*
X48805913Y12647214D01*
X48444921Y13280760D02*
X48543059Y13246420D01*
X49612102Y13280760D02*
X49782177Y13299922D01*
X48794271Y12931410D02*
X48805913Y12828091D01*
X48341602Y13292401D02*
X48444921Y13280760D01*
X40082215Y15395511D02*
X40142741Y15366363D01*
X49513964Y13246420D02*
X49612102Y13280760D01*
X48543059Y13246420D02*
X48631095Y13191104D01*
X45711681Y14297114D02*
X45753512Y14292401D01*
X49262752Y12931410D02*
X49297092Y13029548D01*
X50615419Y13792401D02*
X50615419Y13592401D01*
X45671949Y14311017D02*
X45711681Y14297114D01*
X45636306Y14333412D02*
X45671949Y14311017D01*
X48313128Y13292401D02*
X48341602Y13292401D01*
X45606540Y14363178D02*
X45636306Y14333412D01*
X48704615Y13117584D02*
X48759931Y13029548D01*
X47313128Y14292400D02*
X48313128Y13292401D01*
X45584145Y14398821D02*
X45606540Y14363178D01*
X39841387Y14504323D02*
X39826437Y14438830D01*
X49232494Y12565652D02*
X49246397Y12605384D01*
X50022941Y13859157D02*
X50045129Y13922566D01*
X50549968Y13979448D02*
X50585709Y13922566D01*
X48631095Y13191104D02*
X48704615Y13117584D01*
X45753512Y14292401D02*
X47313128Y14292400D01*
X49297092Y13029548D02*
X49352408Y13117584D01*
X45570242Y14438553D02*
X45584145Y14398821D01*
X49210099Y12530009D02*
X49232494Y12565652D01*
X45519547Y14862717D02*
X45553887Y14764579D01*
X44556708Y14862717D02*
X44612024Y14950753D01*
X39949542Y15410460D02*
X40016720Y15410461D01*
X44975037Y15125571D02*
X45101218Y15125571D01*
X44522368Y14764579D02*
X44556708Y14862717D01*
X44871718Y15113929D02*
X44975037Y15125571D01*
X44510727Y14661260D02*
X44522368Y14764579D01*
X49985711Y13462235D02*
X50007899Y13525644D01*
X45565529Y14480384D02*
X45570242Y14438553D01*
X40142741Y15366363D02*
X40195262Y15324479D01*
X45302675Y15079589D02*
X45390711Y15024273D01*
X48912333Y12477848D02*
X48952065Y12463945D01*
X44685544Y15024273D02*
X44773580Y15079589D01*
X44501111Y14140000D02*
X44510727Y14140000D01*
X44460099Y13530009D02*
X44482494Y13565652D01*
X44430333Y13500243D02*
X44460099Y13530009D01*
X44496397Y13605384D02*
X44501111Y13647214D01*
X44313128Y13459231D02*
X44354958Y13463945D01*
X39770998Y15324479D02*
X39823521Y15366364D01*
X39249999Y15640000D02*
X39063893Y15453894D01*
X40237147Y14952738D02*
X40195262Y14900215D01*
X44009931Y14029548D02*
X44044271Y13931410D01*
X52038500Y13292400D02*
X52250000Y13503900D01*
X39063893Y15453894D02*
X39063893Y15041635D01*
X39063893Y15041635D02*
X39116414Y14999751D01*
X40281244Y15145936D02*
X40281243Y15078758D01*
X42436872Y13292400D02*
X43436872Y14292400D01*
X40195262Y15324479D02*
X40237148Y15271956D01*
X39884047Y15395512D02*
X39949542Y15410460D01*
X45464231Y14950753D02*
X45519547Y14862717D01*
X40016720Y15410461D02*
X40082215Y15395511D01*
X44394690Y13477848D02*
X44430333Y13500243D01*
X44044271Y13931410D02*
X44055913Y13828091D01*
X39176941Y14970603D02*
X39242434Y14955655D01*
X50728372Y13357851D02*
X50785254Y13322110D01*
X45553887Y14764579D02*
X45565529Y14661260D01*
X50382175Y14084879D02*
X50445584Y14062691D01*
X45101218Y15125571D02*
X45204537Y15113929D01*
X48846924Y12530009D02*
X48876690Y12500243D01*
X39250000Y15640000D02*
X39249999Y15640000D01*
X44510727Y14140000D02*
X44510727Y14661260D01*
X39488157Y15041635D02*
X39770998Y15324479D01*
X44773580Y15079589D02*
X44871718Y15113929D01*
X50645128Y13462235D02*
X50680869Y13405354D01*
X40266295Y15013263D02*
X40237147Y14952738D01*
X44126690Y13500243D02*
X44162333Y13477848D01*
X39242434Y14955655D02*
X39309614Y14955654D01*
X39435634Y14999750D02*
X39488157Y15041635D01*
X50315419Y14092401D02*
X50382175Y14084879D01*
X39912420Y14617372D02*
X39870535Y14564849D01*
X50015420Y13592401D02*
X50015419Y13792400D01*
X40813128Y13292400D02*
X42436872Y13292400D01*
X44162333Y13477848D02*
X44202065Y13463945D01*
X39826438Y14371650D02*
X39841386Y14306157D01*
X50607897Y13859157D02*
X50615419Y13792401D01*
X40281243Y15078758D02*
X40266295Y15013263D01*
X44055913Y13828091D02*
X44055913Y13647214D01*
X40266294Y15211431D02*
X40281244Y15145936D01*
X39823521Y15366364D02*
X39884047Y15395512D01*
X45565529Y14661260D02*
X45565529Y14480384D01*
X45204537Y15113929D02*
X45302675Y15079589D01*
X48876690Y12500243D02*
X48912333Y12477848D01*
X44612024Y14950753D02*
X44685544Y15024273D01*
X39375107Y14970604D02*
X39435634Y14999750D01*
X45390711Y15024273D02*
X45464231Y14950753D01*
X43591602Y14292401D02*
X43694921Y14280760D01*
X39309614Y14955654D02*
X39375107Y14970604D01*
X44501111Y13647214D02*
X44501111Y14140000D01*
X44354958Y13463945D02*
X44394690Y13477848D01*
X44096924Y13530009D02*
X44126690Y13500243D01*
X40195262Y14900215D02*
X39912420Y14617372D01*
X49104958Y12463945D02*
X49144690Y12477848D01*
X50007899Y13525644D02*
X50015420Y13592401D01*
X39870535Y14564849D02*
X39841387Y14504323D01*
X44060626Y13605384D02*
X44074529Y13565652D01*
X50015419Y13792400D02*
X50022941Y13859157D01*
X44482494Y13565652D02*
X44496397Y13605384D01*
X44243896Y13459231D02*
X44313128Y13459231D01*
X39116414Y14999751D02*
X39176941Y14970603D01*
X49782177Y13299922D02*
X49845586Y13322110D01*
X39826437Y14438830D02*
X39826438Y14371650D01*
X50585709Y13922566D02*
X50607897Y13859157D01*
X43694921Y14280760D02*
X43793059Y14246420D01*
X49845586Y13322110D02*
X49902467Y13357851D01*
X50128372Y14026950D02*
X50185254Y14062691D01*
X40237148Y15271956D02*
X40266294Y15211431D01*
X48810626Y12605384D02*
X48824529Y12565652D01*
X43881095Y14191104D02*
X43954615Y14117584D01*
X39841386Y14306157D02*
X39870534Y14245631D01*
X39870534Y14245631D02*
X39912421Y14193107D01*
X43436872Y14292400D02*
X43591602Y14292401D01*
X39912421Y14193107D02*
X40813128Y13292400D01*
X43793059Y14246420D02*
X43881095Y14191104D01*
X44074529Y13565652D02*
X44096924Y13530009D01*
X43954615Y14117584D02*
X44009931Y14029548D01*
X50915418Y13292401D02*
X52038500Y13292400D01*
X44202065Y13463945D02*
X44243896Y13459231D01*
X44055913Y13647214D02*
X44060626Y13605384D01*
X48805913Y12647214D02*
X48810626Y12605384D01*
X48824529Y12565652D02*
X48846924Y12530009D01*
X48952065Y12463945D02*
X48993896Y12459231D01*
X48993896Y12459231D02*
X49063128Y12459231D01*
X49063128Y12459231D02*
X49104958Y12463945D01*
X49144690Y12477848D02*
X49180333Y12500243D01*
X49180333Y12500243D02*
X49210099Y12530009D01*
X49246397Y12605384D02*
X49251111Y12647214D01*
X49251111Y12647214D02*
X49251111Y12828091D01*
X49251111Y12828091D02*
X49262752Y12931410D01*
X49352408Y13117584D02*
X49425928Y13191104D01*
X49425928Y13191104D02*
X49513964Y13246420D01*
X49902467Y13357851D02*
X49949970Y13405354D01*
X50185254Y14062691D02*
X50248663Y14084879D01*
X49949970Y13405354D02*
X49985711Y13462235D01*
X50248663Y14084879D02*
X50315419Y14092401D01*
X50045129Y13922566D02*
X50080870Y13979447D01*
X50080870Y13979447D02*
X50128372Y14026950D01*
X50445584Y14062691D02*
X50502465Y14026950D01*
X50502465Y14026950D02*
X50549968Y13979448D01*
X50615419Y13592401D02*
X50622940Y13525644D01*
X50622940Y13525644D02*
X50645128Y13462235D01*
X50680869Y13405354D02*
X50728372Y13357851D01*
X50785254Y13322110D02*
X50848662Y13299922D01*
X50848662Y13299922D02*
X50915418Y13292401D01*
X34388908Y28455510D02*
X34000000Y28455510D01*
X34823398Y28890000D02*
X34388908Y28455510D01*
X37400000Y28890000D02*
X34823398Y28890000D01*
X39486701Y25993660D02*
X38748111Y26732250D01*
X37400000Y28080361D02*
X38748111Y26732250D01*
X41021445Y26396884D02*
X40632537Y26396884D01*
X37400000Y28890000D02*
X37400000Y28080361D01*
X40229313Y25993660D02*
X39486701Y25993660D01*
X40632537Y26396884D02*
X40229313Y25993660D01*
X37400000Y28890000D02*
X37392570Y28897430D01*
X37392570Y28897430D02*
X37392570Y29622058D01*
X40861092Y18390000D02*
X39000000Y18390000D01*
X41611092Y19140000D02*
X40861092Y18390000D01*
X42000000Y19140000D02*
X41611092Y19140000D01*
X30918980Y17538859D02*
X33021607Y15436232D01*
X33021607Y15436232D02*
X30642710Y15436232D01*
X29676617Y16402325D02*
X28987675Y16402325D01*
X30642710Y15436232D02*
X29676617Y16402325D01*
X30918980Y18390000D02*
X30918980Y17538859D01*
X34782661Y15436232D02*
X35526468Y16180039D01*
X33021607Y15436232D02*
X34782661Y15436232D01*
X41750000Y41140000D02*
X47276000Y46472000D01*
X33000000Y37028908D02*
X35111092Y39140000D01*
X33000000Y36640000D02*
X33000000Y37028908D01*
X37750000Y39140000D02*
X39750000Y41140000D01*
X35111092Y39140000D02*
X37750000Y39140000D01*
X39750000Y41140000D02*
X41750000Y41140000D01*
X47276000Y46472000D02*
X47276000Y47234000D01*
X40750000Y38390000D02*
X44201787Y38390000D01*
X44201787Y38390000D02*
X49119697Y43307910D01*
D22*
X22499623Y7852990D02*
X21667130Y7020497D01*
X5300000Y37228954D02*
X8791848Y40720802D01*
X5300000Y20218382D02*
X5300000Y37228954D01*
X10406002Y43596002D02*
X9900000Y43090000D01*
X13228766Y43596002D02*
X10406002Y43596002D01*
X16613765Y46981001D02*
X13228766Y43596002D01*
X24008999Y46981001D02*
X16613765Y46981001D01*
X24990000Y46000000D02*
X24008999Y46981001D01*
X21088992Y7020497D02*
X20369489Y7740000D01*
X21667130Y7020497D02*
X21088992Y7020497D01*
X20369489Y7740000D02*
X17300000Y7740000D01*
X17300000Y8218382D02*
X5300000Y20218382D01*
X17300000Y7740000D02*
X17300000Y8218382D01*
D26*
X22000000Y31778908D02*
X22000000Y31390000D01*
X21791308Y31987600D02*
X22000000Y31778908D01*
X21186872Y31987600D02*
X21791308Y31987600D01*
X21250000Y38036100D02*
X21461500Y38247600D01*
X21461500Y38247600D02*
X21676872Y38247600D01*
X20847600Y32326872D02*
X21186872Y31987600D01*
X20847600Y34703128D02*
X20847600Y32326872D01*
X22097600Y37826872D02*
X22097600Y35953128D01*
X21676872Y38247600D02*
X22097600Y37826872D01*
X22097600Y35953128D02*
X20847600Y34703128D01*
X23402400Y32292400D02*
X23500001Y32390001D01*
X21313128Y32292400D02*
X23402400Y32292400D01*
X21152400Y32453128D02*
X21313128Y32292400D01*
X21803128Y38552400D02*
X22402400Y37953128D01*
X22402400Y35826872D02*
X21152400Y34576872D01*
X23500001Y32390001D02*
X23908456Y32390001D01*
X21250000Y38763900D02*
X21461500Y38552400D01*
X21152400Y34576872D02*
X21152400Y32453128D01*
X21461500Y38552400D02*
X21803128Y38552400D01*
X22402400Y37953128D02*
X22402400Y35826872D01*
D25*
X22000000Y15390000D02*
X22000000Y16390000D01*
X22000000Y16390000D02*
X22000000Y17390000D01*
X22400000Y17990000D02*
X22600000Y17990000D01*
X22000000Y18390000D02*
X22400000Y17990000D01*
X22000000Y17390000D02*
X22600000Y17990000D01*
X22600000Y17990000D02*
X23000000Y18390000D01*
X22000000Y19390000D02*
X21000000Y20390000D01*
X22000000Y18390000D02*
X22000000Y19390000D01*
X22000000Y21390000D02*
X21000000Y20390000D01*
X23000000Y21390000D02*
X22000000Y21390000D01*
X22015696Y16405696D02*
X25979690Y16405696D01*
X22000000Y16390000D02*
X22015696Y16405696D01*
D23*
X3810000Y1250000D02*
X5031314Y1250000D01*
X5031314Y1250000D02*
X5800000Y2018686D01*
X1270000Y1250000D02*
X3810000Y1250000D01*
X5800000Y4690000D02*
X5800000Y17966140D01*
X5800000Y2018686D02*
X5800000Y4690000D01*
X15300000Y21190000D02*
X16195089Y20294911D01*
X16470947Y20294911D02*
X16572868Y20192990D01*
X18050669Y20664999D02*
X20725001Y20664999D01*
X20725001Y20664999D02*
X21000000Y20390000D01*
X16195089Y20294911D02*
X16470947Y20294911D01*
X16572868Y20192990D02*
X17578660Y20192990D01*
X17578660Y20192990D02*
X18050669Y20664999D01*
D22*
X36250000Y34040000D02*
X36700000Y33590000D01*
X36700000Y33590000D02*
X37800000Y33590000D01*
X41000000Y32190000D02*
X41300000Y31890000D01*
X33000000Y34390000D02*
X35000000Y34390000D01*
X35000000Y34390000D02*
X35000000Y35390000D01*
X35000000Y34390000D02*
X35900000Y34390000D01*
X35900000Y34390000D02*
X36250000Y34040000D01*
X36250000Y34040000D02*
X35600000Y33390000D01*
X37800000Y33590000D02*
X38500000Y32890000D01*
X39000000Y33390000D02*
X38500000Y32890000D01*
X38500000Y32890000D02*
X39200000Y32190000D01*
X39200000Y32190000D02*
X40000000Y32190000D01*
X40000000Y32190000D02*
X40000000Y31390000D01*
X40000000Y32190000D02*
X41000000Y32190000D01*
X35600000Y33328671D02*
X36369150Y32559521D01*
X35600000Y33390000D02*
X35600000Y33328671D01*
X35600000Y33390000D02*
X34664916Y32454916D01*
X34664916Y32454916D02*
X33979470Y32454916D01*
D23*
X54102001Y47190000D02*
X54102001Y45334957D01*
X42300000Y33492635D02*
X51799955Y42992590D01*
X42300000Y32090000D02*
X42300000Y33492635D01*
X51799955Y42992590D02*
X51799955Y43032911D01*
X41700000Y31490000D02*
X42300000Y32090000D01*
D22*
X41700000Y31490000D02*
X41700000Y30790000D01*
D25*
X41700000Y31490000D02*
X41700000Y30790911D01*
D23*
X51799955Y42992590D02*
X51147410Y42992590D01*
X51147410Y42992590D02*
X50500000Y43640000D01*
X52350000Y43640000D02*
X50500000Y43640000D01*
X52378522Y43611478D02*
X52350000Y43640000D01*
X51799955Y43032911D02*
X52378522Y43611478D01*
X52378522Y43611478D02*
X54102001Y45334957D01*
D26*
X30105215Y43144009D02*
X11342917Y43144009D01*
X33944786Y31894011D02*
X33248715Y31894011D01*
X33248715Y31894011D02*
X32404011Y32738715D01*
X32404011Y32738715D02*
X32404011Y40845213D01*
X11088908Y42890000D02*
X10700000Y42890000D01*
X32404011Y40845213D02*
X30105215Y43144009D01*
X34044786Y31994011D02*
X33944786Y31894011D01*
X36755215Y31994011D02*
X34044786Y31994011D01*
X38404010Y30345215D02*
X36755215Y31994011D01*
X38404011Y29355379D02*
X38404010Y30345215D01*
X39990001Y26471543D02*
X39990001Y27769389D01*
X11342917Y43144009D02*
X11088908Y42890000D01*
X39990001Y27769389D02*
X38404011Y29355379D01*
X13300000Y42890000D02*
X12900000Y42490000D01*
X36650000Y31740001D02*
X34150000Y31740001D01*
X34150000Y31740001D02*
X34050000Y31640001D01*
X38150001Y30240000D02*
X36650000Y31740001D01*
X38150001Y29250165D02*
X38150001Y30240000D01*
X34050000Y31640001D02*
X33143500Y31640002D01*
X30000000Y42890000D02*
X13300000Y42890000D01*
X38956073Y27434059D02*
X38956073Y28444093D01*
X32150000Y40740000D02*
X30000000Y42890000D01*
X38956073Y28444093D02*
X38150001Y29250165D01*
X33143500Y31640002D02*
X32150000Y32633502D01*
X32150000Y32633502D02*
X32150000Y40740000D01*
D25*
X22000000Y34390000D02*
X24908455Y34390000D01*
X25071543Y34390000D02*
X24989999Y34308456D01*
X24908455Y34390000D02*
X24989999Y34308456D01*
X25071543Y34390000D02*
X28602042Y34390000D01*
X29175244Y34963202D02*
X29231295Y34963202D01*
X28602042Y34390000D02*
X29175244Y34963202D01*
X29231295Y34963202D02*
X29506294Y35238201D01*
D26*
X48375899Y33014101D02*
X47700000Y33690000D01*
X48375899Y28514143D02*
X49150021Y27740021D01*
X48769918Y26971010D02*
X48381010Y26971010D01*
X48375899Y33014101D02*
X48375899Y28514143D01*
X49150021Y27351113D02*
X48769918Y26971010D01*
X49150021Y27740021D02*
X49150021Y27351113D01*
X5934101Y48024101D02*
X2793999Y48024101D01*
X52750511Y50439489D02*
X8349489Y50439489D01*
X2402177Y47632279D02*
X2402177Y18009611D01*
X2793999Y48024101D02*
X2402177Y47632279D01*
X56754203Y48455899D02*
X54734101Y48455899D01*
X8349489Y50439489D02*
X5934101Y48024101D01*
X57224101Y47986001D02*
X56754203Y48455899D01*
X54734101Y48455899D02*
X52750511Y50439489D01*
X57224101Y33014101D02*
X57224101Y47986001D01*
X56610136Y15370066D02*
X54486474Y15370066D01*
X57224101Y33014101D02*
X57224101Y15984031D01*
X57224101Y15984031D02*
X56610136Y15370066D01*
X52341939Y33465509D02*
X51408061Y33465509D01*
X52793347Y33014101D02*
X52341939Y33465509D01*
X51408061Y33465509D02*
X50956653Y33014101D01*
X50956653Y33014101D02*
X48375899Y33014101D01*
X57224101Y33014101D02*
X52793347Y33014101D01*
X20313128Y12792400D02*
X14402400Y18703128D01*
X22436872Y12792400D02*
X20313128Y12792400D01*
X28502400Y14792400D02*
X24436872Y14792400D01*
X28654259Y14827061D02*
X28580282Y14801176D01*
X28720621Y14868759D02*
X28654259Y14827061D01*
X14402400Y32476439D02*
X18037534Y36111573D01*
X28776041Y14924179D02*
X28720621Y14868759D01*
X28817739Y14990541D02*
X28776041Y14924179D01*
X24436872Y14792400D02*
X22436872Y12792400D01*
X28852400Y15142400D02*
X28843624Y15064518D01*
X28852400Y15482525D02*
X28852400Y15142400D01*
X28887060Y15634385D02*
X28861175Y15560408D01*
X29561175Y15064518D02*
X29552400Y15142400D01*
X29684178Y14868759D02*
X29628758Y14924179D01*
X14402400Y18703128D02*
X14402400Y32476439D01*
X29628758Y14924179D02*
X29587060Y14990541D01*
X28843624Y15064518D02*
X28817739Y14990541D01*
X29750540Y14827061D02*
X29684178Y14868759D01*
X29587060Y14990541D02*
X29561175Y15064518D01*
X29902400Y14792400D02*
X29824517Y14801176D01*
X29552400Y15142400D02*
X29552400Y15482525D01*
X37000000Y16390000D02*
X37000000Y15821053D01*
X29517739Y15634385D02*
X29476041Y15700747D01*
X29050540Y15797865D02*
X28984178Y15756167D01*
X28861175Y15560408D02*
X28852400Y15482525D01*
X35971347Y14792400D02*
X29902400Y14792400D01*
X18037534Y36111573D02*
X18426442Y36111573D01*
X37000000Y15821053D02*
X35971347Y14792400D01*
X29543624Y15560408D02*
X29517739Y15634385D01*
X29824517Y14801176D02*
X29750540Y14827061D01*
X29354259Y15797865D02*
X29280282Y15823750D01*
X29202400Y15832525D02*
X29124517Y15823750D01*
X29552400Y15482525D02*
X29543624Y15560408D01*
X28580282Y14801176D02*
X28502400Y14792400D01*
X29476041Y15700747D02*
X29420621Y15756167D01*
X28984178Y15756167D02*
X28928758Y15700747D01*
X29420621Y15756167D02*
X29354259Y15797865D01*
X28928758Y15700747D02*
X28887060Y15634385D01*
X29280282Y15823750D02*
X29202400Y15832525D01*
X29124517Y15823750D02*
X29050540Y15797865D01*
X14097600Y18576872D02*
X20186872Y12487600D01*
X14097600Y32746812D02*
X14097600Y18576872D01*
X17825940Y36475152D02*
X14097600Y32746812D01*
X17825940Y36864060D02*
X17825940Y36475152D01*
X20186872Y12487600D02*
X22563128Y12487600D01*
X22563128Y12487600D02*
X24563128Y14487600D01*
X36097600Y14487600D02*
X38000000Y16390000D01*
X24563128Y14487600D02*
X36097600Y14487600D01*
X48381010Y17571010D02*
X48827521Y17124499D01*
X50834499Y17124499D02*
X51300000Y17590000D01*
X48827521Y17124499D02*
X50834499Y17124499D01*
X16500000Y24640000D02*
X15500000Y24640000D01*
X15500000Y24640000D02*
X15250000Y24890000D01*
X15250000Y24890000D02*
X15250000Y30640000D01*
X15250000Y30640000D02*
X17500000Y32890000D01*
X17500000Y32890000D02*
X17500000Y34640000D01*
D25*
X20000000Y32318456D02*
X19990001Y32308457D01*
X20000000Y33390000D02*
X20000000Y32318456D01*
X19990001Y32308457D02*
X19218457Y32308457D01*
D23*
X19218457Y32308457D02*
X18718457Y32308457D01*
X18718457Y32308457D02*
X16644083Y30645917D01*
X18718457Y32308457D02*
X19990001Y32308457D01*
D25*
X24043728Y28766850D02*
X24170719Y28766850D01*
D23*
X20388908Y23390000D02*
X22388908Y25390000D01*
X20000000Y23390000D02*
X20388908Y23390000D01*
X22388908Y25390000D02*
X23000000Y25390000D01*
X24170719Y28058471D02*
X24170719Y28512850D01*
X24000009Y27887761D02*
X24170719Y28058471D01*
X24056670Y26835578D02*
X24000009Y26892239D01*
X24000009Y26892239D02*
X24000009Y27887761D01*
X23000000Y25778908D02*
X24056670Y26835578D01*
X23000000Y25390000D02*
X23000000Y25778908D01*
D25*
X23502248Y27390000D02*
X24000009Y26892239D01*
X22000000Y27390000D02*
X23502248Y27390000D01*
D23*
X17000000Y23600760D02*
X17000000Y21590000D01*
X16997761Y23602999D02*
X17000000Y23600760D01*
X17537001Y25137761D02*
X17537001Y24142239D01*
X16200000Y30290000D02*
X16200000Y26190000D01*
X16644083Y30645917D02*
X16200000Y30290000D01*
X17537001Y24142239D02*
X16997761Y23602999D01*
X16997761Y25677001D02*
X17537001Y25137761D01*
X16200000Y26190000D02*
X16712999Y25677001D01*
X16712999Y25677001D02*
X16997761Y25677001D01*
X17300000Y22390000D02*
X18300000Y23390000D01*
X18300000Y23390000D02*
X20000000Y23390000D01*
X5877999Y45284239D02*
X9847749Y41314489D01*
X9847749Y41314489D02*
X15286271Y41314489D01*
X15286271Y41314489D02*
X19462999Y37137761D01*
X19990001Y35615237D02*
X19990001Y32308457D01*
X19462999Y36142239D02*
X19990001Y35615237D01*
X19462999Y37137761D02*
X19462999Y36142239D01*
D24*
X19554217Y23835783D02*
X19104115Y23835783D01*
X20000000Y23390000D02*
X19554217Y23835783D01*
D26*
X37380000Y48390000D02*
X34990000Y46000000D01*
X38700000Y48390000D02*
X37380000Y48390000D01*
X49171834Y38757910D02*
X49981188Y38757910D01*
X49981188Y38757910D02*
X50102846Y38879568D01*
G36*
X29136500Y30837313D02*
G01*
X29135781Y30837611D01*
X29045848Y30855500D01*
X28954152Y30855500D01*
X28864219Y30837611D01*
X28779503Y30802520D01*
X28703261Y30751577D01*
X28638423Y30686739D01*
X28587480Y30610497D01*
X28552389Y30525781D01*
X28534500Y30435848D01*
X28534500Y30344152D01*
X28552389Y30254219D01*
X28587480Y30169503D01*
X28638423Y30093261D01*
X28703261Y30028423D01*
X28779503Y29977480D01*
X28864219Y29942389D01*
X28954152Y29924500D01*
X29045848Y29924500D01*
X29135781Y29942389D01*
X29136500Y29942687D01*
X29136500Y29837313D01*
X29135781Y29837611D01*
X29045848Y29855500D01*
X28954152Y29855500D01*
X28864219Y29837611D01*
X28779503Y29802520D01*
X28703261Y29751577D01*
X28638423Y29686739D01*
X28587480Y29610497D01*
X28552389Y29525781D01*
X28534500Y29435848D01*
X28534500Y29344152D01*
X28552389Y29254219D01*
X28587480Y29169503D01*
X28638423Y29093261D01*
X28703261Y29028423D01*
X28779503Y28977480D01*
X28864219Y28942389D01*
X28954152Y28924500D01*
X29045848Y28924500D01*
X29135781Y28942389D01*
X29136500Y28942687D01*
X29136500Y27843602D01*
X29121998Y27849609D01*
X29032065Y27867498D01*
X28940369Y27867498D01*
X28850436Y27849609D01*
X28765720Y27814518D01*
X28689478Y27763575D01*
X28624640Y27698737D01*
X28573697Y27622495D01*
X28538606Y27537779D01*
X28520717Y27447846D01*
X28520717Y27356150D01*
X28538606Y27266217D01*
X28573697Y27181501D01*
X28624640Y27105259D01*
X28689478Y27040421D01*
X28765720Y26989478D01*
X28820451Y26966808D01*
X28723144Y26869501D01*
X28715633Y26866390D01*
X28639391Y26815447D01*
X28574553Y26750609D01*
X28523610Y26674367D01*
X28488519Y26589651D01*
X28470630Y26499718D01*
X28470630Y26408022D01*
X28488519Y26318089D01*
X28523610Y26233373D01*
X28574553Y26157131D01*
X28639391Y26092293D01*
X28715633Y26041350D01*
X28800349Y26006259D01*
X28890282Y25988370D01*
X28981978Y25988370D01*
X29071911Y26006259D01*
X29136500Y26033013D01*
X29136500Y24837313D01*
X29135781Y24837611D01*
X29045848Y24855500D01*
X28954152Y24855500D01*
X28864219Y24837611D01*
X28779503Y24802520D01*
X28703261Y24751577D01*
X28638423Y24686739D01*
X28587480Y24610497D01*
X28552389Y24525781D01*
X28534500Y24435848D01*
X28534500Y24344152D01*
X28552389Y24254219D01*
X28587480Y24169503D01*
X28638423Y24093261D01*
X28703261Y24028423D01*
X28779503Y23977480D01*
X28864219Y23942389D01*
X28954152Y23924500D01*
X29045848Y23924500D01*
X29135781Y23942389D01*
X29136500Y23942687D01*
X29136500Y21837313D01*
X29135781Y21837611D01*
X29045848Y21855500D01*
X28954152Y21855500D01*
X28864219Y21837611D01*
X28779503Y21802520D01*
X28703261Y21751577D01*
X28638423Y21686739D01*
X28587480Y21610497D01*
X28552389Y21525781D01*
X28534500Y21435848D01*
X28534500Y21344152D01*
X28552389Y21254219D01*
X28587480Y21169503D01*
X28638423Y21093261D01*
X28678184Y21053500D01*
X27321816Y21053500D01*
X27361577Y21093261D01*
X27412520Y21169503D01*
X27447611Y21254219D01*
X27465500Y21344152D01*
X27465500Y21435848D01*
X27447611Y21525781D01*
X27412520Y21610497D01*
X27361577Y21686739D01*
X27296739Y21751577D01*
X27220497Y21802520D01*
X27135781Y21837611D01*
X27045848Y21855500D01*
X26954152Y21855500D01*
X26864219Y21837611D01*
X26779503Y21802520D01*
X26703261Y21751577D01*
X26638423Y21686739D01*
X26587480Y21610497D01*
X26552389Y21525781D01*
X26534500Y21435848D01*
X26534500Y21344152D01*
X26552389Y21254219D01*
X26587480Y21169503D01*
X26638423Y21093261D01*
X26678184Y21053500D01*
X24263500Y21053500D01*
X24263500Y23435848D01*
X24534500Y23435848D01*
X24534500Y23344152D01*
X24552389Y23254219D01*
X24587480Y23169503D01*
X24638423Y23093261D01*
X24703261Y23028423D01*
X24779503Y22977480D01*
X24864219Y22942389D01*
X24954152Y22924500D01*
X25045848Y22924500D01*
X25135781Y22942389D01*
X25220497Y22977480D01*
X25296739Y23028423D01*
X25361577Y23093261D01*
X25412520Y23169503D01*
X25447611Y23254219D01*
X25465500Y23344152D01*
X25465500Y23435848D01*
X27534500Y23435848D01*
X27534500Y23344152D01*
X27552389Y23254219D01*
X27587480Y23169503D01*
X27638423Y23093261D01*
X27703261Y23028423D01*
X27779503Y22977480D01*
X27864219Y22942389D01*
X27954152Y22924500D01*
X28045848Y22924500D01*
X28135781Y22942389D01*
X28220497Y22977480D01*
X28296739Y23028423D01*
X28361577Y23093261D01*
X28412520Y23169503D01*
X28447611Y23254219D01*
X28465500Y23344152D01*
X28465500Y23435848D01*
X28447611Y23525781D01*
X28412520Y23610497D01*
X28361577Y23686739D01*
X28296739Y23751577D01*
X28220497Y23802520D01*
X28135781Y23837611D01*
X28045848Y23855500D01*
X27954152Y23855500D01*
X27864219Y23837611D01*
X27779503Y23802520D01*
X27703261Y23751577D01*
X27638423Y23686739D01*
X27587480Y23610497D01*
X27552389Y23525781D01*
X27534500Y23435848D01*
X25465500Y23435848D01*
X25447611Y23525781D01*
X25412520Y23610497D01*
X25361577Y23686739D01*
X25296739Y23751577D01*
X25220497Y23802520D01*
X25135781Y23837611D01*
X25045848Y23855500D01*
X24954152Y23855500D01*
X24864219Y23837611D01*
X24779503Y23802520D01*
X24703261Y23751577D01*
X24638423Y23686739D01*
X24587480Y23610497D01*
X24552389Y23525781D01*
X24534500Y23435848D01*
X24263500Y23435848D01*
X24263500Y24094439D01*
X24286739Y24109967D01*
X24351577Y24174805D01*
X24402520Y24251047D01*
X24437611Y24335763D01*
X24455500Y24425696D01*
X24455500Y24435848D01*
X24534500Y24435848D01*
X24534500Y24344152D01*
X24552389Y24254219D01*
X24587480Y24169503D01*
X24638423Y24093261D01*
X24703261Y24028423D01*
X24779503Y23977480D01*
X24864219Y23942389D01*
X24954152Y23924500D01*
X25045848Y23924500D01*
X25135781Y23942389D01*
X25220497Y23977480D01*
X25296739Y24028423D01*
X25361577Y24093261D01*
X25412520Y24169503D01*
X25447611Y24254219D01*
X25465500Y24344152D01*
X25465500Y24435848D01*
X26534500Y24435848D01*
X26534500Y24344152D01*
X26552389Y24254219D01*
X26587480Y24169503D01*
X26638423Y24093261D01*
X26703261Y24028423D01*
X26779503Y23977480D01*
X26864219Y23942389D01*
X26954152Y23924500D01*
X27045848Y23924500D01*
X27135781Y23942389D01*
X27220497Y23977480D01*
X27296739Y24028423D01*
X27361577Y24093261D01*
X27412520Y24169503D01*
X27447611Y24254219D01*
X27465500Y24344152D01*
X27465500Y24435848D01*
X27534500Y24435848D01*
X27534500Y24344152D01*
X27552389Y24254219D01*
X27587480Y24169503D01*
X27638423Y24093261D01*
X27703261Y24028423D01*
X27779503Y23977480D01*
X27864219Y23942389D01*
X27954152Y23924500D01*
X28045848Y23924500D01*
X28135781Y23942389D01*
X28220497Y23977480D01*
X28296739Y24028423D01*
X28361577Y24093261D01*
X28412520Y24169503D01*
X28447611Y24254219D01*
X28465500Y24344152D01*
X28465500Y24435848D01*
X28447611Y24525781D01*
X28412520Y24610497D01*
X28361577Y24686739D01*
X28296739Y24751577D01*
X28220497Y24802520D01*
X28135781Y24837611D01*
X28045848Y24855500D01*
X27954152Y24855500D01*
X27864219Y24837611D01*
X27779503Y24802520D01*
X27703261Y24751577D01*
X27638423Y24686739D01*
X27587480Y24610497D01*
X27552389Y24525781D01*
X27534500Y24435848D01*
X27465500Y24435848D01*
X27447611Y24525781D01*
X27412520Y24610497D01*
X27361577Y24686739D01*
X27296739Y24751577D01*
X27220497Y24802520D01*
X27135781Y24837611D01*
X27045848Y24855500D01*
X26954152Y24855500D01*
X26864219Y24837611D01*
X26779503Y24802520D01*
X26703261Y24751577D01*
X26638423Y24686739D01*
X26587480Y24610497D01*
X26552389Y24525781D01*
X26534500Y24435848D01*
X25465500Y24435848D01*
X25447611Y24525781D01*
X25412520Y24610497D01*
X25361577Y24686739D01*
X25296739Y24751577D01*
X25220497Y24802520D01*
X25135781Y24837611D01*
X25045848Y24855500D01*
X24954152Y24855500D01*
X24864219Y24837611D01*
X24779503Y24802520D01*
X24703261Y24751577D01*
X24638423Y24686739D01*
X24587480Y24610497D01*
X24552389Y24525781D01*
X24534500Y24435848D01*
X24455500Y24435848D01*
X24455500Y24517392D01*
X24437611Y24607325D01*
X24402520Y24692041D01*
X24351577Y24768283D01*
X24286739Y24833121D01*
X24263500Y24848649D01*
X24263500Y25435848D01*
X27534500Y25435848D01*
X27534500Y25344152D01*
X27552389Y25254219D01*
X27587480Y25169503D01*
X27638423Y25093261D01*
X27703261Y25028423D01*
X27779503Y24977480D01*
X27864219Y24942389D01*
X27954152Y24924500D01*
X28045848Y24924500D01*
X28135781Y24942389D01*
X28220497Y24977480D01*
X28296739Y25028423D01*
X28361577Y25093261D01*
X28412520Y25169503D01*
X28447611Y25254219D01*
X28465500Y25344152D01*
X28465500Y25435848D01*
X28447611Y25525781D01*
X28412520Y25610497D01*
X28361577Y25686739D01*
X28296739Y25751577D01*
X28220497Y25802520D01*
X28135781Y25837611D01*
X28045848Y25855500D01*
X27954152Y25855500D01*
X27864219Y25837611D01*
X27779503Y25802520D01*
X27703261Y25751577D01*
X27638423Y25686739D01*
X27587480Y25610497D01*
X27552389Y25525781D01*
X27534500Y25435848D01*
X24263500Y25435848D01*
X24263500Y25874975D01*
X24611711Y26223186D01*
X24643211Y26249037D01*
X24715563Y26337198D01*
X24746369Y26374735D01*
X24779034Y26435848D01*
X26534500Y26435848D01*
X26534500Y26344152D01*
X26552389Y26254219D01*
X26587480Y26169503D01*
X26638423Y26093261D01*
X26703261Y26028423D01*
X26779503Y25977480D01*
X26864219Y25942389D01*
X26954152Y25924500D01*
X27045848Y25924500D01*
X27135781Y25942389D01*
X27220497Y25977480D01*
X27296739Y26028423D01*
X27361577Y26093261D01*
X27412520Y26169503D01*
X27447611Y26254219D01*
X27465500Y26344152D01*
X27465500Y26435848D01*
X27447611Y26525781D01*
X27412520Y26610497D01*
X27361577Y26686739D01*
X27296739Y26751577D01*
X27220497Y26802520D01*
X27135781Y26837611D01*
X27045848Y26855500D01*
X26954152Y26855500D01*
X26864219Y26837611D01*
X26779503Y26802520D01*
X26703261Y26751577D01*
X26638423Y26686739D01*
X26587480Y26610497D01*
X26552389Y26525781D01*
X26534500Y26435848D01*
X24779034Y26435848D01*
X24823023Y26518144D01*
X24870225Y26673751D01*
X24886164Y26835577D01*
X24874555Y26953438D01*
X24901229Y26942389D01*
X24991162Y26924500D01*
X25082858Y26924500D01*
X25172791Y26942389D01*
X25257507Y26977480D01*
X25333749Y27028423D01*
X25398587Y27093261D01*
X25449530Y27169503D01*
X25484621Y27254219D01*
X25502510Y27344152D01*
X25502510Y27435848D01*
X27534500Y27435848D01*
X27534500Y27344152D01*
X27552389Y27254219D01*
X27587480Y27169503D01*
X27638423Y27093261D01*
X27703261Y27028423D01*
X27779503Y26977480D01*
X27864219Y26942389D01*
X27954152Y26924500D01*
X28045848Y26924500D01*
X28135781Y26942389D01*
X28220497Y26977480D01*
X28296739Y27028423D01*
X28361577Y27093261D01*
X28412520Y27169503D01*
X28447611Y27254219D01*
X28465500Y27344152D01*
X28465500Y27435848D01*
X28447611Y27525781D01*
X28412520Y27610497D01*
X28361577Y27686739D01*
X28296739Y27751577D01*
X28220497Y27802520D01*
X28135781Y27837611D01*
X28045848Y27855500D01*
X27954152Y27855500D01*
X27864219Y27837611D01*
X27779503Y27802520D01*
X27703261Y27751577D01*
X27638423Y27686739D01*
X27587480Y27610497D01*
X27552389Y27525781D01*
X27534500Y27435848D01*
X25502510Y27435848D01*
X25484621Y27525781D01*
X25449530Y27610497D01*
X25398587Y27686739D01*
X25333749Y27751577D01*
X25257507Y27802520D01*
X25172791Y27837611D01*
X25082858Y27855500D01*
X24991162Y27855500D01*
X24970550Y27851400D01*
X24984275Y27896645D01*
X24996219Y28017918D01*
X24996219Y28017927D01*
X25000212Y28058470D01*
X24996219Y28099013D01*
X24996219Y28435848D01*
X25534500Y28435848D01*
X25534500Y28344152D01*
X25552389Y28254219D01*
X25587480Y28169503D01*
X25638423Y28093261D01*
X25703261Y28028423D01*
X25779503Y27977480D01*
X25864219Y27942389D01*
X25954152Y27924500D01*
X26045848Y27924500D01*
X26135781Y27942389D01*
X26220497Y27977480D01*
X26296739Y28028423D01*
X26361577Y28093261D01*
X26412520Y28169503D01*
X26447611Y28254219D01*
X26465500Y28344152D01*
X26465500Y28435848D01*
X26447611Y28525781D01*
X26412520Y28610497D01*
X26361577Y28686739D01*
X26296739Y28751577D01*
X26220497Y28802520D01*
X26135781Y28837611D01*
X26045848Y28855500D01*
X25954152Y28855500D01*
X25864219Y28837611D01*
X25779503Y28802520D01*
X25703261Y28751577D01*
X25638423Y28686739D01*
X25587480Y28610497D01*
X25552389Y28525781D01*
X25534500Y28435848D01*
X24996219Y28435848D01*
X24996219Y28553402D01*
X24984275Y28674676D01*
X24937072Y28830284D01*
X24860418Y28973692D01*
X24816326Y29027418D01*
X24828493Y29027418D01*
X24918426Y29045307D01*
X25003142Y29080398D01*
X25079384Y29131341D01*
X25144222Y29196179D01*
X25195165Y29272421D01*
X25230256Y29357137D01*
X25248145Y29447070D01*
X25248145Y29538766D01*
X25230256Y29628699D01*
X25195165Y29713415D01*
X25144222Y29789657D01*
X25079384Y29854495D01*
X25003142Y29905438D01*
X24918426Y29940529D01*
X24828493Y29958418D01*
X24736797Y29958418D01*
X24646864Y29940529D01*
X24562148Y29905438D01*
X24485906Y29854495D01*
X24421068Y29789657D01*
X24373208Y29718030D01*
X24351537Y29770348D01*
X24300594Y29846590D01*
X24263500Y29883684D01*
X24263500Y30435848D01*
X27534500Y30435848D01*
X27534500Y30344152D01*
X27552389Y30254219D01*
X27587480Y30169503D01*
X27638423Y30093261D01*
X27703261Y30028423D01*
X27779503Y29977480D01*
X27864219Y29942389D01*
X27954152Y29924500D01*
X28045848Y29924500D01*
X28135781Y29942389D01*
X28220497Y29977480D01*
X28296739Y30028423D01*
X28361577Y30093261D01*
X28412520Y30169503D01*
X28447611Y30254219D01*
X28465500Y30344152D01*
X28465500Y30435848D01*
X28447611Y30525781D01*
X28412520Y30610497D01*
X28361577Y30686739D01*
X28296739Y30751577D01*
X28220497Y30802520D01*
X28135781Y30837611D01*
X28045848Y30855500D01*
X27954152Y30855500D01*
X27864219Y30837611D01*
X27779503Y30802520D01*
X27703261Y30751577D01*
X27638423Y30686739D01*
X27587480Y30610497D01*
X27552389Y30525781D01*
X27534500Y30435848D01*
X24263500Y30435848D01*
X24263500Y32086729D01*
X24270033Y32093262D01*
X24320976Y32169504D01*
X24356067Y32254220D01*
X24373956Y32344153D01*
X24373956Y32435848D01*
X25534500Y32435848D01*
X25534500Y32344152D01*
X25552389Y32254219D01*
X25587480Y32169503D01*
X25638423Y32093261D01*
X25703261Y32028423D01*
X25779503Y31977480D01*
X25864219Y31942389D01*
X25954152Y31924500D01*
X26045848Y31924500D01*
X26135781Y31942389D01*
X26220497Y31977480D01*
X26296739Y32028423D01*
X26361577Y32093261D01*
X26412520Y32169503D01*
X26447611Y32254219D01*
X26465500Y32344152D01*
X26465500Y32435848D01*
X26534500Y32435848D01*
X26534500Y32344152D01*
X26552389Y32254219D01*
X26587480Y32169503D01*
X26638423Y32093261D01*
X26703261Y32028423D01*
X26779503Y31977480D01*
X26864219Y31942389D01*
X26954152Y31924500D01*
X27045848Y31924500D01*
X27135781Y31942389D01*
X27220497Y31977480D01*
X27296739Y32028423D01*
X27361577Y32093261D01*
X27412520Y32169503D01*
X27447611Y32254219D01*
X27465500Y32344152D01*
X27465500Y32435848D01*
X27447611Y32525781D01*
X27412520Y32610497D01*
X27361577Y32686739D01*
X27296739Y32751577D01*
X27220497Y32802520D01*
X27135781Y32837611D01*
X27045848Y32855500D01*
X26954152Y32855500D01*
X26864219Y32837611D01*
X26779503Y32802520D01*
X26703261Y32751577D01*
X26638423Y32686739D01*
X26587480Y32610497D01*
X26552389Y32525781D01*
X26534500Y32435848D01*
X26465500Y32435848D01*
X26447611Y32525781D01*
X26412520Y32610497D01*
X26361577Y32686739D01*
X26296739Y32751577D01*
X26220497Y32802520D01*
X26135781Y32837611D01*
X26045848Y32855500D01*
X25954152Y32855500D01*
X25864219Y32837611D01*
X25779503Y32802520D01*
X25703261Y32751577D01*
X25638423Y32686739D01*
X25587480Y32610497D01*
X25552389Y32525781D01*
X25534500Y32435848D01*
X24373956Y32435848D01*
X24373956Y32435849D01*
X24356067Y32525782D01*
X24320976Y32610498D01*
X24270033Y32686740D01*
X24263500Y32693273D01*
X24263500Y33006214D01*
X24296739Y33028423D01*
X24361577Y33093261D01*
X24383786Y33126500D01*
X29136500Y33126500D01*
X29136500Y30837313D01*
G37*
X29136500Y30837313D02*
X29135781Y30837611D01*
X29045848Y30855500D01*
X28954152Y30855500D01*
X28864219Y30837611D01*
X28779503Y30802520D01*
X28703261Y30751577D01*
X28638423Y30686739D01*
X28587480Y30610497D01*
X28552389Y30525781D01*
X28534500Y30435848D01*
X28534500Y30344152D01*
X28552389Y30254219D01*
X28587480Y30169503D01*
X28638423Y30093261D01*
X28703261Y30028423D01*
X28779503Y29977480D01*
X28864219Y29942389D01*
X28954152Y29924500D01*
X29045848Y29924500D01*
X29135781Y29942389D01*
X29136500Y29942687D01*
X29136500Y29837313D01*
X29135781Y29837611D01*
X29045848Y29855500D01*
X28954152Y29855500D01*
X28864219Y29837611D01*
X28779503Y29802520D01*
X28703261Y29751577D01*
X28638423Y29686739D01*
X28587480Y29610497D01*
X28552389Y29525781D01*
X28534500Y29435848D01*
X28534500Y29344152D01*
X28552389Y29254219D01*
X28587480Y29169503D01*
X28638423Y29093261D01*
X28703261Y29028423D01*
X28779503Y28977480D01*
X28864219Y28942389D01*
X28954152Y28924500D01*
X29045848Y28924500D01*
X29135781Y28942389D01*
X29136500Y28942687D01*
X29136500Y27843602D01*
X29121998Y27849609D01*
X29032065Y27867498D01*
X28940369Y27867498D01*
X28850436Y27849609D01*
X28765720Y27814518D01*
X28689478Y27763575D01*
X28624640Y27698737D01*
X28573697Y27622495D01*
X28538606Y27537779D01*
X28520717Y27447846D01*
X28520717Y27356150D01*
X28538606Y27266217D01*
X28573697Y27181501D01*
X28624640Y27105259D01*
X28689478Y27040421D01*
X28765720Y26989478D01*
X28820451Y26966808D01*
X28723144Y26869501D01*
X28715633Y26866390D01*
X28639391Y26815447D01*
X28574553Y26750609D01*
X28523610Y26674367D01*
X28488519Y26589651D01*
X28470630Y26499718D01*
X28470630Y26408022D01*
X28488519Y26318089D01*
X28523610Y26233373D01*
X28574553Y26157131D01*
X28639391Y26092293D01*
X28715633Y26041350D01*
X28800349Y26006259D01*
X28890282Y25988370D01*
X28981978Y25988370D01*
X29071911Y26006259D01*
X29136500Y26033013D01*
X29136500Y24837313D01*
X29135781Y24837611D01*
X29045848Y24855500D01*
X28954152Y24855500D01*
X28864219Y24837611D01*
X28779503Y24802520D01*
X28703261Y24751577D01*
X28638423Y24686739D01*
X28587480Y24610497D01*
X28552389Y24525781D01*
X28534500Y24435848D01*
X28534500Y24344152D01*
X28552389Y24254219D01*
X28587480Y24169503D01*
X28638423Y24093261D01*
X28703261Y24028423D01*
X28779503Y23977480D01*
X28864219Y23942389D01*
X28954152Y23924500D01*
X29045848Y23924500D01*
X29135781Y23942389D01*
X29136500Y23942687D01*
X29136500Y21837313D01*
X29135781Y21837611D01*
X29045848Y21855500D01*
X28954152Y21855500D01*
X28864219Y21837611D01*
X28779503Y21802520D01*
X28703261Y21751577D01*
X28638423Y21686739D01*
X28587480Y21610497D01*
X28552389Y21525781D01*
X28534500Y21435848D01*
X28534500Y21344152D01*
X28552389Y21254219D01*
X28587480Y21169503D01*
X28638423Y21093261D01*
X28678184Y21053500D01*
X27321816Y21053500D01*
X27361577Y21093261D01*
X27412520Y21169503D01*
X27447611Y21254219D01*
X27465500Y21344152D01*
X27465500Y21435848D01*
X27447611Y21525781D01*
X27412520Y21610497D01*
X27361577Y21686739D01*
X27296739Y21751577D01*
X27220497Y21802520D01*
X27135781Y21837611D01*
X27045848Y21855500D01*
X26954152Y21855500D01*
X26864219Y21837611D01*
X26779503Y21802520D01*
X26703261Y21751577D01*
X26638423Y21686739D01*
X26587480Y21610497D01*
X26552389Y21525781D01*
X26534500Y21435848D01*
X26534500Y21344152D01*
X26552389Y21254219D01*
X26587480Y21169503D01*
X26638423Y21093261D01*
X26678184Y21053500D01*
X24263500Y21053500D01*
X24263500Y23435848D01*
X24534500Y23435848D01*
X24534500Y23344152D01*
X24552389Y23254219D01*
X24587480Y23169503D01*
X24638423Y23093261D01*
X24703261Y23028423D01*
X24779503Y22977480D01*
X24864219Y22942389D01*
X24954152Y22924500D01*
X25045848Y22924500D01*
X25135781Y22942389D01*
X25220497Y22977480D01*
X25296739Y23028423D01*
X25361577Y23093261D01*
X25412520Y23169503D01*
X25447611Y23254219D01*
X25465500Y23344152D01*
X25465500Y23435848D01*
X27534500Y23435848D01*
X27534500Y23344152D01*
X27552389Y23254219D01*
X27587480Y23169503D01*
X27638423Y23093261D01*
X27703261Y23028423D01*
X27779503Y22977480D01*
X27864219Y22942389D01*
X27954152Y22924500D01*
X28045848Y22924500D01*
X28135781Y22942389D01*
X28220497Y22977480D01*
X28296739Y23028423D01*
X28361577Y23093261D01*
X28412520Y23169503D01*
X28447611Y23254219D01*
X28465500Y23344152D01*
X28465500Y23435848D01*
X28447611Y23525781D01*
X28412520Y23610497D01*
X28361577Y23686739D01*
X28296739Y23751577D01*
X28220497Y23802520D01*
X28135781Y23837611D01*
X28045848Y23855500D01*
X27954152Y23855500D01*
X27864219Y23837611D01*
X27779503Y23802520D01*
X27703261Y23751577D01*
X27638423Y23686739D01*
X27587480Y23610497D01*
X27552389Y23525781D01*
X27534500Y23435848D01*
X25465500Y23435848D01*
X25447611Y23525781D01*
X25412520Y23610497D01*
X25361577Y23686739D01*
X25296739Y23751577D01*
X25220497Y23802520D01*
X25135781Y23837611D01*
X25045848Y23855500D01*
X24954152Y23855500D01*
X24864219Y23837611D01*
X24779503Y23802520D01*
X24703261Y23751577D01*
X24638423Y23686739D01*
X24587480Y23610497D01*
X24552389Y23525781D01*
X24534500Y23435848D01*
X24263500Y23435848D01*
X24263500Y24094439D01*
X24286739Y24109967D01*
X24351577Y24174805D01*
X24402520Y24251047D01*
X24437611Y24335763D01*
X24455500Y24425696D01*
X24455500Y24435848D01*
X24534500Y24435848D01*
X24534500Y24344152D01*
X24552389Y24254219D01*
X24587480Y24169503D01*
X24638423Y24093261D01*
X24703261Y24028423D01*
X24779503Y23977480D01*
X24864219Y23942389D01*
X24954152Y23924500D01*
X25045848Y23924500D01*
X25135781Y23942389D01*
X25220497Y23977480D01*
X25296739Y24028423D01*
X25361577Y24093261D01*
X25412520Y24169503D01*
X25447611Y24254219D01*
X25465500Y24344152D01*
X25465500Y24435848D01*
X26534500Y24435848D01*
X26534500Y24344152D01*
X26552389Y24254219D01*
X26587480Y24169503D01*
X26638423Y24093261D01*
X26703261Y24028423D01*
X26779503Y23977480D01*
X26864219Y23942389D01*
X26954152Y23924500D01*
X27045848Y23924500D01*
X27135781Y23942389D01*
X27220497Y23977480D01*
X27296739Y24028423D01*
X27361577Y24093261D01*
X27412520Y24169503D01*
X27447611Y24254219D01*
X27465500Y24344152D01*
X27465500Y24435848D01*
X27534500Y24435848D01*
X27534500Y24344152D01*
X27552389Y24254219D01*
X27587480Y24169503D01*
X27638423Y24093261D01*
X27703261Y24028423D01*
X27779503Y23977480D01*
X27864219Y23942389D01*
X27954152Y23924500D01*
X28045848Y23924500D01*
X28135781Y23942389D01*
X28220497Y23977480D01*
X28296739Y24028423D01*
X28361577Y24093261D01*
X28412520Y24169503D01*
X28447611Y24254219D01*
X28465500Y24344152D01*
X28465500Y24435848D01*
X28447611Y24525781D01*
X28412520Y24610497D01*
X28361577Y24686739D01*
X28296739Y24751577D01*
X28220497Y24802520D01*
X28135781Y24837611D01*
X28045848Y24855500D01*
X27954152Y24855500D01*
X27864219Y24837611D01*
X27779503Y24802520D01*
X27703261Y24751577D01*
X27638423Y24686739D01*
X27587480Y24610497D01*
X27552389Y24525781D01*
X27534500Y24435848D01*
X27465500Y24435848D01*
X27447611Y24525781D01*
X27412520Y24610497D01*
X27361577Y24686739D01*
X27296739Y24751577D01*
X27220497Y24802520D01*
X27135781Y24837611D01*
X27045848Y24855500D01*
X26954152Y24855500D01*
X26864219Y24837611D01*
X26779503Y24802520D01*
X26703261Y24751577D01*
X26638423Y24686739D01*
X26587480Y24610497D01*
X26552389Y24525781D01*
X26534500Y24435848D01*
X25465500Y24435848D01*
X25447611Y24525781D01*
X25412520Y24610497D01*
X25361577Y24686739D01*
X25296739Y24751577D01*
X25220497Y24802520D01*
X25135781Y24837611D01*
X25045848Y24855500D01*
X24954152Y24855500D01*
X24864219Y24837611D01*
X24779503Y24802520D01*
X24703261Y24751577D01*
X24638423Y24686739D01*
X24587480Y24610497D01*
X24552389Y24525781D01*
X24534500Y24435848D01*
X24455500Y24435848D01*
X24455500Y24517392D01*
X24437611Y24607325D01*
X24402520Y24692041D01*
X24351577Y24768283D01*
X24286739Y24833121D01*
X24263500Y24848649D01*
X24263500Y25435848D01*
X27534500Y25435848D01*
X27534500Y25344152D01*
X27552389Y25254219D01*
X27587480Y25169503D01*
X27638423Y25093261D01*
X27703261Y25028423D01*
X27779503Y24977480D01*
X27864219Y24942389D01*
X27954152Y24924500D01*
X28045848Y24924500D01*
X28135781Y24942389D01*
X28220497Y24977480D01*
X28296739Y25028423D01*
X28361577Y25093261D01*
X28412520Y25169503D01*
X28447611Y25254219D01*
X28465500Y25344152D01*
X28465500Y25435848D01*
X28447611Y25525781D01*
X28412520Y25610497D01*
X28361577Y25686739D01*
X28296739Y25751577D01*
X28220497Y25802520D01*
X28135781Y25837611D01*
X28045848Y25855500D01*
X27954152Y25855500D01*
X27864219Y25837611D01*
X27779503Y25802520D01*
X27703261Y25751577D01*
X27638423Y25686739D01*
X27587480Y25610497D01*
X27552389Y25525781D01*
X27534500Y25435848D01*
X24263500Y25435848D01*
X24263500Y25874975D01*
X24611711Y26223186D01*
X24643211Y26249037D01*
X24715563Y26337198D01*
X24746369Y26374735D01*
X24779034Y26435848D01*
X26534500Y26435848D01*
X26534500Y26344152D01*
X26552389Y26254219D01*
X26587480Y26169503D01*
X26638423Y26093261D01*
X26703261Y26028423D01*
X26779503Y25977480D01*
X26864219Y25942389D01*
X26954152Y25924500D01*
X27045848Y25924500D01*
X27135781Y25942389D01*
X27220497Y25977480D01*
X27296739Y26028423D01*
X27361577Y26093261D01*
X27412520Y26169503D01*
X27447611Y26254219D01*
X27465500Y26344152D01*
X27465500Y26435848D01*
X27447611Y26525781D01*
X27412520Y26610497D01*
X27361577Y26686739D01*
X27296739Y26751577D01*
X27220497Y26802520D01*
X27135781Y26837611D01*
X27045848Y26855500D01*
X26954152Y26855500D01*
X26864219Y26837611D01*
X26779503Y26802520D01*
X26703261Y26751577D01*
X26638423Y26686739D01*
X26587480Y26610497D01*
X26552389Y26525781D01*
X26534500Y26435848D01*
X24779034Y26435848D01*
X24823023Y26518144D01*
X24870225Y26673751D01*
X24886164Y26835577D01*
X24874555Y26953438D01*
X24901229Y26942389D01*
X24991162Y26924500D01*
X25082858Y26924500D01*
X25172791Y26942389D01*
X25257507Y26977480D01*
X25333749Y27028423D01*
X25398587Y27093261D01*
X25449530Y27169503D01*
X25484621Y27254219D01*
X25502510Y27344152D01*
X25502510Y27435848D01*
X27534500Y27435848D01*
X27534500Y27344152D01*
X27552389Y27254219D01*
X27587480Y27169503D01*
X27638423Y27093261D01*
X27703261Y27028423D01*
X27779503Y26977480D01*
X27864219Y26942389D01*
X27954152Y26924500D01*
X28045848Y26924500D01*
X28135781Y26942389D01*
X28220497Y26977480D01*
X28296739Y27028423D01*
X28361577Y27093261D01*
X28412520Y27169503D01*
X28447611Y27254219D01*
X28465500Y27344152D01*
X28465500Y27435848D01*
X28447611Y27525781D01*
X28412520Y27610497D01*
X28361577Y27686739D01*
X28296739Y27751577D01*
X28220497Y27802520D01*
X28135781Y27837611D01*
X28045848Y27855500D01*
X27954152Y27855500D01*
X27864219Y27837611D01*
X27779503Y27802520D01*
X27703261Y27751577D01*
X27638423Y27686739D01*
X27587480Y27610497D01*
X27552389Y27525781D01*
X27534500Y27435848D01*
X25502510Y27435848D01*
X25484621Y27525781D01*
X25449530Y27610497D01*
X25398587Y27686739D01*
X25333749Y27751577D01*
X25257507Y27802520D01*
X25172791Y27837611D01*
X25082858Y27855500D01*
X24991162Y27855500D01*
X24970550Y27851400D01*
X24984275Y27896645D01*
X24996219Y28017918D01*
X24996219Y28017927D01*
X25000212Y28058470D01*
X24996219Y28099013D01*
X24996219Y28435848D01*
X25534500Y28435848D01*
X25534500Y28344152D01*
X25552389Y28254219D01*
X25587480Y28169503D01*
X25638423Y28093261D01*
X25703261Y28028423D01*
X25779503Y27977480D01*
X25864219Y27942389D01*
X25954152Y27924500D01*
X26045848Y27924500D01*
X26135781Y27942389D01*
X26220497Y27977480D01*
X26296739Y28028423D01*
X26361577Y28093261D01*
X26412520Y28169503D01*
X26447611Y28254219D01*
X26465500Y28344152D01*
X26465500Y28435848D01*
X26447611Y28525781D01*
X26412520Y28610497D01*
X26361577Y28686739D01*
X26296739Y28751577D01*
X26220497Y28802520D01*
X26135781Y28837611D01*
X26045848Y28855500D01*
X25954152Y28855500D01*
X25864219Y28837611D01*
X25779503Y28802520D01*
X25703261Y28751577D01*
X25638423Y28686739D01*
X25587480Y28610497D01*
X25552389Y28525781D01*
X25534500Y28435848D01*
X24996219Y28435848D01*
X24996219Y28553402D01*
X24984275Y28674676D01*
X24937072Y28830284D01*
X24860418Y28973692D01*
X24816326Y29027418D01*
X24828493Y29027418D01*
X24918426Y29045307D01*
X25003142Y29080398D01*
X25079384Y29131341D01*
X25144222Y29196179D01*
X25195165Y29272421D01*
X25230256Y29357137D01*
X25248145Y29447070D01*
X25248145Y29538766D01*
X25230256Y29628699D01*
X25195165Y29713415D01*
X25144222Y29789657D01*
X25079384Y29854495D01*
X25003142Y29905438D01*
X24918426Y29940529D01*
X24828493Y29958418D01*
X24736797Y29958418D01*
X24646864Y29940529D01*
X24562148Y29905438D01*
X24485906Y29854495D01*
X24421068Y29789657D01*
X24373208Y29718030D01*
X24351537Y29770348D01*
X24300594Y29846590D01*
X24263500Y29883684D01*
X24263500Y30435848D01*
X27534500Y30435848D01*
X27534500Y30344152D01*
X27552389Y30254219D01*
X27587480Y30169503D01*
X27638423Y30093261D01*
X27703261Y30028423D01*
X27779503Y29977480D01*
X27864219Y29942389D01*
X27954152Y29924500D01*
X28045848Y29924500D01*
X28135781Y29942389D01*
X28220497Y29977480D01*
X28296739Y30028423D01*
X28361577Y30093261D01*
X28412520Y30169503D01*
X28447611Y30254219D01*
X28465500Y30344152D01*
X28465500Y30435848D01*
X28447611Y30525781D01*
X28412520Y30610497D01*
X28361577Y30686739D01*
X28296739Y30751577D01*
X28220497Y30802520D01*
X28135781Y30837611D01*
X28045848Y30855500D01*
X27954152Y30855500D01*
X27864219Y30837611D01*
X27779503Y30802520D01*
X27703261Y30751577D01*
X27638423Y30686739D01*
X27587480Y30610497D01*
X27552389Y30525781D01*
X27534500Y30435848D01*
X24263500Y30435848D01*
X24263500Y32086729D01*
X24270033Y32093262D01*
X24320976Y32169504D01*
X24356067Y32254220D01*
X24373956Y32344153D01*
X24373956Y32435848D01*
X25534500Y32435848D01*
X25534500Y32344152D01*
X25552389Y32254219D01*
X25587480Y32169503D01*
X25638423Y32093261D01*
X25703261Y32028423D01*
X25779503Y31977480D01*
X25864219Y31942389D01*
X25954152Y31924500D01*
X26045848Y31924500D01*
X26135781Y31942389D01*
X26220497Y31977480D01*
X26296739Y32028423D01*
X26361577Y32093261D01*
X26412520Y32169503D01*
X26447611Y32254219D01*
X26465500Y32344152D01*
X26465500Y32435848D01*
X26534500Y32435848D01*
X26534500Y32344152D01*
X26552389Y32254219D01*
X26587480Y32169503D01*
X26638423Y32093261D01*
X26703261Y32028423D01*
X26779503Y31977480D01*
X26864219Y31942389D01*
X26954152Y31924500D01*
X27045848Y31924500D01*
X27135781Y31942389D01*
X27220497Y31977480D01*
X27296739Y32028423D01*
X27361577Y32093261D01*
X27412520Y32169503D01*
X27447611Y32254219D01*
X27465500Y32344152D01*
X27465500Y32435848D01*
X27447611Y32525781D01*
X27412520Y32610497D01*
X27361577Y32686739D01*
X27296739Y32751577D01*
X27220497Y32802520D01*
X27135781Y32837611D01*
X27045848Y32855500D01*
X26954152Y32855500D01*
X26864219Y32837611D01*
X26779503Y32802520D01*
X26703261Y32751577D01*
X26638423Y32686739D01*
X26587480Y32610497D01*
X26552389Y32525781D01*
X26534500Y32435848D01*
X26465500Y32435848D01*
X26447611Y32525781D01*
X26412520Y32610497D01*
X26361577Y32686739D01*
X26296739Y32751577D01*
X26220497Y32802520D01*
X26135781Y32837611D01*
X26045848Y32855500D01*
X25954152Y32855500D01*
X25864219Y32837611D01*
X25779503Y32802520D01*
X25703261Y32751577D01*
X25638423Y32686739D01*
X25587480Y32610497D01*
X25552389Y32525781D01*
X25534500Y32435848D01*
X24373956Y32435848D01*
X24373956Y32435849D01*
X24356067Y32525782D01*
X24320976Y32610498D01*
X24270033Y32686740D01*
X24263500Y32693273D01*
X24263500Y33006214D01*
X24296739Y33028423D01*
X24361577Y33093261D01*
X24383786Y33126500D01*
X29136500Y33126500D01*
X29136500Y30837313D01*
G36*
X30638423Y33093261D02*
G01*
X30703261Y33028423D01*
X30779503Y32977480D01*
X30864219Y32942389D01*
X30954152Y32924500D01*
X31045848Y32924500D01*
X31135781Y32942389D01*
X31220497Y32977480D01*
X31296739Y33028423D01*
X31361577Y33093261D01*
X31383786Y33126500D01*
X31536500Y33126500D01*
X31536500Y30834500D01*
X31143292Y30834500D01*
X31135781Y30837611D01*
X31045848Y30855500D01*
X30954152Y30855500D01*
X30864219Y30837611D01*
X30779503Y30802520D01*
X30703261Y30751577D01*
X30638423Y30686739D01*
X30587480Y30610497D01*
X30552389Y30525781D01*
X30534500Y30435848D01*
X30534500Y30344152D01*
X30552389Y30254219D01*
X30587480Y30169503D01*
X30638423Y30093261D01*
X30703261Y30028423D01*
X30779503Y29977480D01*
X30864219Y29942389D01*
X30954152Y29924500D01*
X31045848Y29924500D01*
X31135781Y29942389D01*
X31143292Y29945500D01*
X31536500Y29945500D01*
X31536500Y29445903D01*
X31534500Y29435848D01*
X31534500Y29344152D01*
X31536500Y29334097D01*
X31536500Y24445903D01*
X31534500Y24435848D01*
X31534500Y24344152D01*
X31536500Y24334097D01*
X31536500Y22420243D01*
X31523382Y22354295D01*
X31523382Y22262599D01*
X31536500Y22196651D01*
X31536500Y21748775D01*
X31501127Y21719745D01*
X31501124Y21719742D01*
X31484171Y21705829D01*
X31470258Y21688876D01*
X31001125Y21219742D01*
X30984172Y21205829D01*
X30970259Y21188876D01*
X30970255Y21188872D01*
X30928624Y21138145D01*
X30887349Y21060925D01*
X30885097Y21053500D01*
X29463500Y21053500D01*
X29463500Y21334097D01*
X29465500Y21344152D01*
X29465500Y21435848D01*
X29463500Y21445903D01*
X29463500Y22435848D01*
X29534500Y22435848D01*
X29534500Y22344152D01*
X29552389Y22254219D01*
X29587480Y22169503D01*
X29638423Y22093261D01*
X29703261Y22028423D01*
X29779503Y21977480D01*
X29864219Y21942389D01*
X29954152Y21924500D01*
X30045848Y21924500D01*
X30135781Y21942389D01*
X30220497Y21977480D01*
X30296739Y22028423D01*
X30361577Y22093261D01*
X30412520Y22169503D01*
X30447611Y22254219D01*
X30465500Y22344152D01*
X30465500Y22435848D01*
X30534500Y22435848D01*
X30534500Y22344152D01*
X30552389Y22254219D01*
X30587480Y22169503D01*
X30638423Y22093261D01*
X30703261Y22028423D01*
X30779503Y21977480D01*
X30864219Y21942389D01*
X30954152Y21924500D01*
X31045848Y21924500D01*
X31135781Y21942389D01*
X31220497Y21977480D01*
X31296739Y22028423D01*
X31361577Y22093261D01*
X31412520Y22169503D01*
X31447611Y22254219D01*
X31465500Y22344152D01*
X31465500Y22435848D01*
X31447611Y22525781D01*
X31412520Y22610497D01*
X31361577Y22686739D01*
X31296739Y22751577D01*
X31220497Y22802520D01*
X31135781Y22837611D01*
X31045848Y22855500D01*
X30954152Y22855500D01*
X30864219Y22837611D01*
X30779503Y22802520D01*
X30703261Y22751577D01*
X30638423Y22686739D01*
X30587480Y22610497D01*
X30552389Y22525781D01*
X30534500Y22435848D01*
X30465500Y22435848D01*
X30447611Y22525781D01*
X30412520Y22610497D01*
X30361577Y22686739D01*
X30296739Y22751577D01*
X30220497Y22802520D01*
X30135781Y22837611D01*
X30045848Y22855500D01*
X29954152Y22855500D01*
X29864219Y22837611D01*
X29779503Y22802520D01*
X29703261Y22751577D01*
X29638423Y22686739D01*
X29587480Y22610497D01*
X29552389Y22525781D01*
X29534500Y22435848D01*
X29463500Y22435848D01*
X29463500Y23334097D01*
X29465500Y23344152D01*
X29465500Y23435848D01*
X29463500Y23445903D01*
X29463500Y24334097D01*
X29465500Y24344152D01*
X29465500Y24435848D01*
X29463500Y24445903D01*
X29463500Y25224883D01*
X30212987Y25974369D01*
X30220497Y25977480D01*
X30296739Y26028423D01*
X30361577Y26093261D01*
X30412520Y26169503D01*
X30447611Y26254219D01*
X30465500Y26344152D01*
X30465500Y26435848D01*
X30447611Y26525781D01*
X30412520Y26610497D01*
X30361577Y26686739D01*
X30296739Y26751577D01*
X30220497Y26802520D01*
X30135781Y26837611D01*
X30045848Y26855500D01*
X29954152Y26855500D01*
X29864219Y26837611D01*
X29779503Y26802520D01*
X29703261Y26751577D01*
X29638423Y26686739D01*
X29587480Y26610497D01*
X29584369Y26602987D01*
X29463500Y26482118D01*
X29463500Y28334097D01*
X29465500Y28344152D01*
X29465500Y28435848D01*
X29534500Y28435848D01*
X29534500Y28344152D01*
X29552389Y28254219D01*
X29587480Y28169503D01*
X29638423Y28093261D01*
X29703261Y28028423D01*
X29779503Y27977480D01*
X29864219Y27942389D01*
X29954152Y27924500D01*
X30045848Y27924500D01*
X30135781Y27942389D01*
X30220497Y27977480D01*
X30296739Y28028423D01*
X30361577Y28093261D01*
X30412520Y28169503D01*
X30447611Y28254219D01*
X30465500Y28344152D01*
X30465500Y28435848D01*
X30447611Y28525781D01*
X30412520Y28610497D01*
X30361577Y28686739D01*
X30296739Y28751577D01*
X30220497Y28802520D01*
X30135781Y28837611D01*
X30045848Y28855500D01*
X29954152Y28855500D01*
X29864219Y28837611D01*
X29779503Y28802520D01*
X29703261Y28751577D01*
X29638423Y28686739D01*
X29587480Y28610497D01*
X29552389Y28525781D01*
X29534500Y28435848D01*
X29465500Y28435848D01*
X29463500Y28445903D01*
X29463500Y29334097D01*
X29465500Y29344152D01*
X29465500Y29435848D01*
X29534500Y29435848D01*
X29534500Y29344152D01*
X29552389Y29254219D01*
X29587480Y29169503D01*
X29638423Y29093261D01*
X29703261Y29028423D01*
X29779503Y28977480D01*
X29864219Y28942389D01*
X29954152Y28924500D01*
X30045848Y28924500D01*
X30135781Y28942389D01*
X30220497Y28977480D01*
X30296739Y29028423D01*
X30361577Y29093261D01*
X30412520Y29169503D01*
X30447611Y29254219D01*
X30465500Y29344152D01*
X30465500Y29435848D01*
X30447611Y29525781D01*
X30412520Y29610497D01*
X30361577Y29686739D01*
X30296739Y29751577D01*
X30220497Y29802520D01*
X30135781Y29837611D01*
X30045848Y29855500D01*
X29954152Y29855500D01*
X29864219Y29837611D01*
X29779503Y29802520D01*
X29703261Y29751577D01*
X29638423Y29686739D01*
X29587480Y29610497D01*
X29552389Y29525781D01*
X29534500Y29435848D01*
X29465500Y29435848D01*
X29463500Y29445903D01*
X29463500Y30334097D01*
X29465500Y30344152D01*
X29465500Y30435848D01*
X29534500Y30435848D01*
X29534500Y30344152D01*
X29552389Y30254219D01*
X29587480Y30169503D01*
X29638423Y30093261D01*
X29703261Y30028423D01*
X29779503Y29977480D01*
X29864219Y29942389D01*
X29954152Y29924500D01*
X30045848Y29924500D01*
X30135781Y29942389D01*
X30220497Y29977480D01*
X30296739Y30028423D01*
X30361577Y30093261D01*
X30412520Y30169503D01*
X30447611Y30254219D01*
X30465500Y30344152D01*
X30465500Y30435848D01*
X30447611Y30525781D01*
X30412520Y30610497D01*
X30361577Y30686739D01*
X30296739Y30751577D01*
X30220497Y30802520D01*
X30135781Y30837611D01*
X30045848Y30855500D01*
X29954152Y30855500D01*
X29864219Y30837611D01*
X29779503Y30802520D01*
X29703261Y30751577D01*
X29638423Y30686739D01*
X29587480Y30610497D01*
X29552389Y30525781D01*
X29534500Y30435848D01*
X29465500Y30435848D01*
X29463500Y30445903D01*
X29463500Y32435848D01*
X30534500Y32435848D01*
X30534500Y32344152D01*
X30552389Y32254219D01*
X30587480Y32169503D01*
X30638423Y32093261D01*
X30703261Y32028423D01*
X30779503Y31977480D01*
X30864219Y31942389D01*
X30954152Y31924500D01*
X31045848Y31924500D01*
X31135781Y31942389D01*
X31220497Y31977480D01*
X31296739Y32028423D01*
X31361577Y32093261D01*
X31412520Y32169503D01*
X31447611Y32254219D01*
X31465500Y32344152D01*
X31465500Y32435848D01*
X31447611Y32525781D01*
X31412520Y32610497D01*
X31361577Y32686739D01*
X31296739Y32751577D01*
X31220497Y32802520D01*
X31135781Y32837611D01*
X31045848Y32855500D01*
X30954152Y32855500D01*
X30864219Y32837611D01*
X30779503Y32802520D01*
X30703261Y32751577D01*
X30638423Y32686739D01*
X30587480Y32610497D01*
X30552389Y32525781D01*
X30534500Y32435848D01*
X29463500Y32435848D01*
X29463500Y33126500D01*
X30616214Y33126500D01*
X30638423Y33093261D01*
G37*
X30638423Y33093261D02*
X30703261Y33028423D01*
X30779503Y32977480D01*
X30864219Y32942389D01*
X30954152Y32924500D01*
X31045848Y32924500D01*
X31135781Y32942389D01*
X31220497Y32977480D01*
X31296739Y33028423D01*
X31361577Y33093261D01*
X31383786Y33126500D01*
X31536500Y33126500D01*
X31536500Y30834500D01*
X31143292Y30834500D01*
X31135781Y30837611D01*
X31045848Y30855500D01*
X30954152Y30855500D01*
X30864219Y30837611D01*
X30779503Y30802520D01*
X30703261Y30751577D01*
X30638423Y30686739D01*
X30587480Y30610497D01*
X30552389Y30525781D01*
X30534500Y30435848D01*
X30534500Y30344152D01*
X30552389Y30254219D01*
X30587480Y30169503D01*
X30638423Y30093261D01*
X30703261Y30028423D01*
X30779503Y29977480D01*
X30864219Y29942389D01*
X30954152Y29924500D01*
X31045848Y29924500D01*
X31135781Y29942389D01*
X31143292Y29945500D01*
X31536500Y29945500D01*
X31536500Y29445903D01*
X31534500Y29435848D01*
X31534500Y29344152D01*
X31536500Y29334097D01*
X31536500Y24445903D01*
X31534500Y24435848D01*
X31534500Y24344152D01*
X31536500Y24334097D01*
X31536500Y22420243D01*
X31523382Y22354295D01*
X31523382Y22262599D01*
X31536500Y22196651D01*
X31536500Y21748775D01*
X31501127Y21719745D01*
X31501124Y21719742D01*
X31484171Y21705829D01*
X31470258Y21688876D01*
X31001125Y21219742D01*
X30984172Y21205829D01*
X30970259Y21188876D01*
X30970255Y21188872D01*
X30928624Y21138145D01*
X30887349Y21060925D01*
X30885097Y21053500D01*
X29463500Y21053500D01*
X29463500Y21334097D01*
X29465500Y21344152D01*
X29465500Y21435848D01*
X29463500Y21445903D01*
X29463500Y22435848D01*
X29534500Y22435848D01*
X29534500Y22344152D01*
X29552389Y22254219D01*
X29587480Y22169503D01*
X29638423Y22093261D01*
X29703261Y22028423D01*
X29779503Y21977480D01*
X29864219Y21942389D01*
X29954152Y21924500D01*
X30045848Y21924500D01*
X30135781Y21942389D01*
X30220497Y21977480D01*
X30296739Y22028423D01*
X30361577Y22093261D01*
X30412520Y22169503D01*
X30447611Y22254219D01*
X30465500Y22344152D01*
X30465500Y22435848D01*
X30534500Y22435848D01*
X30534500Y22344152D01*
X30552389Y22254219D01*
X30587480Y22169503D01*
X30638423Y22093261D01*
X30703261Y22028423D01*
X30779503Y21977480D01*
X30864219Y21942389D01*
X30954152Y21924500D01*
X31045848Y21924500D01*
X31135781Y21942389D01*
X31220497Y21977480D01*
X31296739Y22028423D01*
X31361577Y22093261D01*
X31412520Y22169503D01*
X31447611Y22254219D01*
X31465500Y22344152D01*
X31465500Y22435848D01*
X31447611Y22525781D01*
X31412520Y22610497D01*
X31361577Y22686739D01*
X31296739Y22751577D01*
X31220497Y22802520D01*
X31135781Y22837611D01*
X31045848Y22855500D01*
X30954152Y22855500D01*
X30864219Y22837611D01*
X30779503Y22802520D01*
X30703261Y22751577D01*
X30638423Y22686739D01*
X30587480Y22610497D01*
X30552389Y22525781D01*
X30534500Y22435848D01*
X30465500Y22435848D01*
X30447611Y22525781D01*
X30412520Y22610497D01*
X30361577Y22686739D01*
X30296739Y22751577D01*
X30220497Y22802520D01*
X30135781Y22837611D01*
X30045848Y22855500D01*
X29954152Y22855500D01*
X29864219Y22837611D01*
X29779503Y22802520D01*
X29703261Y22751577D01*
X29638423Y22686739D01*
X29587480Y22610497D01*
X29552389Y22525781D01*
X29534500Y22435848D01*
X29463500Y22435848D01*
X29463500Y23334097D01*
X29465500Y23344152D01*
X29465500Y23435848D01*
X29463500Y23445903D01*
X29463500Y24334097D01*
X29465500Y24344152D01*
X29465500Y24435848D01*
X29463500Y24445903D01*
X29463500Y25224883D01*
X30212987Y25974369D01*
X30220497Y25977480D01*
X30296739Y26028423D01*
X30361577Y26093261D01*
X30412520Y26169503D01*
X30447611Y26254219D01*
X30465500Y26344152D01*
X30465500Y26435848D01*
X30447611Y26525781D01*
X30412520Y26610497D01*
X30361577Y26686739D01*
X30296739Y26751577D01*
X30220497Y26802520D01*
X30135781Y26837611D01*
X30045848Y26855500D01*
X29954152Y26855500D01*
X29864219Y26837611D01*
X29779503Y26802520D01*
X29703261Y26751577D01*
X29638423Y26686739D01*
X29587480Y26610497D01*
X29584369Y26602987D01*
X29463500Y26482118D01*
X29463500Y28334097D01*
X29465500Y28344152D01*
X29465500Y28435848D01*
X29534500Y28435848D01*
X29534500Y28344152D01*
X29552389Y28254219D01*
X29587480Y28169503D01*
X29638423Y28093261D01*
X29703261Y28028423D01*
X29779503Y27977480D01*
X29864219Y27942389D01*
X29954152Y27924500D01*
X30045848Y27924500D01*
X30135781Y27942389D01*
X30220497Y27977480D01*
X30296739Y28028423D01*
X30361577Y28093261D01*
X30412520Y28169503D01*
X30447611Y28254219D01*
X30465500Y28344152D01*
X30465500Y28435848D01*
X30447611Y28525781D01*
X30412520Y28610497D01*
X30361577Y28686739D01*
X30296739Y28751577D01*
X30220497Y28802520D01*
X30135781Y28837611D01*
X30045848Y28855500D01*
X29954152Y28855500D01*
X29864219Y28837611D01*
X29779503Y28802520D01*
X29703261Y28751577D01*
X29638423Y28686739D01*
X29587480Y28610497D01*
X29552389Y28525781D01*
X29534500Y28435848D01*
X29465500Y28435848D01*
X29463500Y28445903D01*
X29463500Y29334097D01*
X29465500Y29344152D01*
X29465500Y29435848D01*
X29534500Y29435848D01*
X29534500Y29344152D01*
X29552389Y29254219D01*
X29587480Y29169503D01*
X29638423Y29093261D01*
X29703261Y29028423D01*
X29779503Y28977480D01*
X29864219Y28942389D01*
X29954152Y28924500D01*
X30045848Y28924500D01*
X30135781Y28942389D01*
X30220497Y28977480D01*
X30296739Y29028423D01*
X30361577Y29093261D01*
X30412520Y29169503D01*
X30447611Y29254219D01*
X30465500Y29344152D01*
X30465500Y29435848D01*
X30447611Y29525781D01*
X30412520Y29610497D01*
X30361577Y29686739D01*
X30296739Y29751577D01*
X30220497Y29802520D01*
X30135781Y29837611D01*
X30045848Y29855500D01*
X29954152Y29855500D01*
X29864219Y29837611D01*
X29779503Y29802520D01*
X29703261Y29751577D01*
X29638423Y29686739D01*
X29587480Y29610497D01*
X29552389Y29525781D01*
X29534500Y29435848D01*
X29465500Y29435848D01*
X29463500Y29445903D01*
X29463500Y30334097D01*
X29465500Y30344152D01*
X29465500Y30435848D01*
X29534500Y30435848D01*
X29534500Y30344152D01*
X29552389Y30254219D01*
X29587480Y30169503D01*
X29638423Y30093261D01*
X29703261Y30028423D01*
X29779503Y29977480D01*
X29864219Y29942389D01*
X29954152Y29924500D01*
X30045848Y29924500D01*
X30135781Y29942389D01*
X30220497Y29977480D01*
X30296739Y30028423D01*
X30361577Y30093261D01*
X30412520Y30169503D01*
X30447611Y30254219D01*
X30465500Y30344152D01*
X30465500Y30435848D01*
X30447611Y30525781D01*
X30412520Y30610497D01*
X30361577Y30686739D01*
X30296739Y30751577D01*
X30220497Y30802520D01*
X30135781Y30837611D01*
X30045848Y30855500D01*
X29954152Y30855500D01*
X29864219Y30837611D01*
X29779503Y30802520D01*
X29703261Y30751577D01*
X29638423Y30686739D01*
X29587480Y30610497D01*
X29552389Y30525781D01*
X29534500Y30435848D01*
X29465500Y30435848D01*
X29463500Y30445903D01*
X29463500Y32435848D01*
X30534500Y32435848D01*
X30534500Y32344152D01*
X30552389Y32254219D01*
X30587480Y32169503D01*
X30638423Y32093261D01*
X30703261Y32028423D01*
X30779503Y31977480D01*
X30864219Y31942389D01*
X30954152Y31924500D01*
X31045848Y31924500D01*
X31135781Y31942389D01*
X31220497Y31977480D01*
X31296739Y32028423D01*
X31361577Y32093261D01*
X31412520Y32169503D01*
X31447611Y32254219D01*
X31465500Y32344152D01*
X31465500Y32435848D01*
X31447611Y32525781D01*
X31412520Y32610497D01*
X31361577Y32686739D01*
X31296739Y32751577D01*
X31220497Y32802520D01*
X31135781Y32837611D01*
X31045848Y32855500D01*
X30954152Y32855500D01*
X30864219Y32837611D01*
X30779503Y32802520D01*
X30703261Y32751577D01*
X30638423Y32686739D01*
X30587480Y32610497D01*
X30552389Y32525781D01*
X30534500Y32435848D01*
X29463500Y32435848D01*
X29463500Y33126500D01*
X30616214Y33126500D01*
X30638423Y33093261D01*
D27*
G36*
X29523800Y37266200D02*
G01*
X23076200Y37266200D01*
X23076200Y40344327D01*
X25046400Y40344327D01*
X25046400Y40245127D01*
X25065753Y40147832D01*
X25103715Y40056183D01*
X25158828Y39973701D01*
X25201702Y39930827D01*
X25158828Y39887953D01*
X25103715Y39805471D01*
X25065753Y39713822D01*
X25046400Y39616527D01*
X25046400Y39517327D01*
X25065753Y39420032D01*
X25103715Y39328383D01*
X25158828Y39245901D01*
X25228974Y39175755D01*
X25311456Y39120642D01*
X25403105Y39082680D01*
X25500400Y39063327D01*
X25599600Y39063327D01*
X25696895Y39082680D01*
X25788544Y39120642D01*
X25871026Y39175755D01*
X25941172Y39245901D01*
X25996285Y39328383D01*
X26034247Y39420032D01*
X26053600Y39517327D01*
X26053600Y39616527D01*
X26034247Y39713822D01*
X25996285Y39805471D01*
X25941172Y39887953D01*
X25898298Y39930827D01*
X25941172Y39973701D01*
X25996285Y40056183D01*
X26034247Y40147832D01*
X26053600Y40245127D01*
X26053600Y40344327D01*
X26323260Y40344327D01*
X26323260Y40245127D01*
X26342613Y40147832D01*
X26380575Y40056183D01*
X26435688Y39973701D01*
X26478562Y39930827D01*
X26435688Y39887953D01*
X26380575Y39805471D01*
X26342613Y39713822D01*
X26323260Y39616527D01*
X26323260Y39517327D01*
X26342613Y39420032D01*
X26380575Y39328383D01*
X26435688Y39245901D01*
X26505834Y39175755D01*
X26588316Y39120642D01*
X26679965Y39082680D01*
X26777260Y39063327D01*
X26876460Y39063327D01*
X26973755Y39082680D01*
X27065404Y39120642D01*
X27147886Y39175755D01*
X27218032Y39245901D01*
X27273145Y39328383D01*
X27311107Y39420032D01*
X27330460Y39517327D01*
X27330460Y39616527D01*
X27311107Y39713822D01*
X27273145Y39805471D01*
X27218032Y39887953D01*
X27175158Y39930827D01*
X27218032Y39973701D01*
X27273145Y40056183D01*
X27311107Y40147832D01*
X27330460Y40245127D01*
X27330460Y40344327D01*
X27311107Y40441622D01*
X27273145Y40533271D01*
X27218032Y40615753D01*
X27147886Y40685899D01*
X27065404Y40741012D01*
X26973755Y40778974D01*
X26876460Y40798327D01*
X26777260Y40798327D01*
X26679965Y40778974D01*
X26588316Y40741012D01*
X26505834Y40685899D01*
X26435688Y40615753D01*
X26380575Y40533271D01*
X26342613Y40441622D01*
X26323260Y40344327D01*
X26053600Y40344327D01*
X26034247Y40441622D01*
X25996285Y40533271D01*
X25941172Y40615753D01*
X25871026Y40685899D01*
X25788544Y40741012D01*
X25696895Y40778974D01*
X25599600Y40798327D01*
X25500400Y40798327D01*
X25403105Y40778974D01*
X25311456Y40741012D01*
X25228974Y40685899D01*
X25158828Y40615753D01*
X25103715Y40533271D01*
X25065753Y40441622D01*
X25046400Y40344327D01*
X23076200Y40344327D01*
X23076200Y42597900D01*
X29523800Y42597900D01*
X29523800Y37266200D01*
G37*
X29523800Y37266200D02*
X23076200Y37266200D01*
X23076200Y40344327D01*
X25046400Y40344327D01*
X25046400Y40245127D01*
X25065753Y40147832D01*
X25103715Y40056183D01*
X25158828Y39973701D01*
X25201702Y39930827D01*
X25158828Y39887953D01*
X25103715Y39805471D01*
X25065753Y39713822D01*
X25046400Y39616527D01*
X25046400Y39517327D01*
X25065753Y39420032D01*
X25103715Y39328383D01*
X25158828Y39245901D01*
X25228974Y39175755D01*
X25311456Y39120642D01*
X25403105Y39082680D01*
X25500400Y39063327D01*
X25599600Y39063327D01*
X25696895Y39082680D01*
X25788544Y39120642D01*
X25871026Y39175755D01*
X25941172Y39245901D01*
X25996285Y39328383D01*
X26034247Y39420032D01*
X26053600Y39517327D01*
X26053600Y39616527D01*
X26034247Y39713822D01*
X25996285Y39805471D01*
X25941172Y39887953D01*
X25898298Y39930827D01*
X25941172Y39973701D01*
X25996285Y40056183D01*
X26034247Y40147832D01*
X26053600Y40245127D01*
X26053600Y40344327D01*
X26323260Y40344327D01*
X26323260Y40245127D01*
X26342613Y40147832D01*
X26380575Y40056183D01*
X26435688Y39973701D01*
X26478562Y39930827D01*
X26435688Y39887953D01*
X26380575Y39805471D01*
X26342613Y39713822D01*
X26323260Y39616527D01*
X26323260Y39517327D01*
X26342613Y39420032D01*
X26380575Y39328383D01*
X26435688Y39245901D01*
X26505834Y39175755D01*
X26588316Y39120642D01*
X26679965Y39082680D01*
X26777260Y39063327D01*
X26876460Y39063327D01*
X26973755Y39082680D01*
X27065404Y39120642D01*
X27147886Y39175755D01*
X27218032Y39245901D01*
X27273145Y39328383D01*
X27311107Y39420032D01*
X27330460Y39517327D01*
X27330460Y39616527D01*
X27311107Y39713822D01*
X27273145Y39805471D01*
X27218032Y39887953D01*
X27175158Y39930827D01*
X27218032Y39973701D01*
X27273145Y40056183D01*
X27311107Y40147832D01*
X27330460Y40245127D01*
X27330460Y40344327D01*
X27311107Y40441622D01*
X27273145Y40533271D01*
X27218032Y40615753D01*
X27147886Y40685899D01*
X27065404Y40741012D01*
X26973755Y40778974D01*
X26876460Y40798327D01*
X26777260Y40798327D01*
X26679965Y40778974D01*
X26588316Y40741012D01*
X26505834Y40685899D01*
X26435688Y40615753D01*
X26380575Y40533271D01*
X26342613Y40441622D01*
X26323260Y40344327D01*
X26053600Y40344327D01*
X26034247Y40441622D01*
X25996285Y40533271D01*
X25941172Y40615753D01*
X25871026Y40685899D01*
X25788544Y40741012D01*
X25696895Y40778974D01*
X25599600Y40798327D01*
X25500400Y40798327D01*
X25403105Y40778974D01*
X25311456Y40741012D01*
X25228974Y40685899D01*
X25158828Y40615753D01*
X25103715Y40533271D01*
X25065753Y40441622D01*
X25046400Y40344327D01*
X23076200Y40344327D01*
X23076200Y42597900D01*
X29523800Y42597900D01*
X29523800Y37266200D01*
D28*
G36*
X50387358Y27027142D02*
G01*
X50384335Y27026960D01*
X50382699Y27026754D01*
X50370049Y27024321D01*
X50368639Y27023965D01*
X50355489Y27019831D01*
X50354306Y27019394D01*
X50340657Y27013559D01*
X50339678Y27013090D01*
X50325531Y27005553D01*
X50324727Y27005086D01*
X50310080Y26995849D01*
X50309419Y26995403D01*
X50294272Y26984464D01*
X50293727Y26984047D01*
X50278082Y26971407D01*
X50277629Y26971023D01*
X50261485Y26956682D01*
X50261105Y26956331D01*
X50253439Y26948941D01*
X50058940Y27143440D01*
X50066330Y27151107D01*
X50066681Y27151486D01*
X50081022Y27167630D01*
X50081406Y27168083D01*
X50094046Y27183728D01*
X50094463Y27184273D01*
X50105402Y27199420D01*
X50105848Y27200081D01*
X50115086Y27214727D01*
X50115553Y27215531D01*
X50123089Y27229679D01*
X50123558Y27230658D01*
X50129393Y27244307D01*
X50129830Y27245490D01*
X50133964Y27258640D01*
X50134320Y27260050D01*
X50136753Y27272700D01*
X50136959Y27274335D01*
X50137141Y27277358D01*
X50479248Y27369248D01*
X50387358Y27027142D01*
G37*
X50387358Y27027142D02*
X50384335Y27026960D01*
X50382699Y27026754D01*
X50370049Y27024321D01*
X50368639Y27023965D01*
X50355489Y27019831D01*
X50354306Y27019394D01*
X50340657Y27013559D01*
X50339678Y27013090D01*
X50325531Y27005553D01*
X50324727Y27005086D01*
X50310080Y26995849D01*
X50309419Y26995403D01*
X50294272Y26984464D01*
X50293727Y26984047D01*
X50278082Y26971407D01*
X50277629Y26971023D01*
X50261485Y26956682D01*
X50261105Y26956331D01*
X50253439Y26948941D01*
X50058940Y27143440D01*
X50066330Y27151107D01*
X50066681Y27151486D01*
X50081022Y27167630D01*
X50081406Y27168083D01*
X50094046Y27183728D01*
X50094463Y27184273D01*
X50105402Y27199420D01*
X50105848Y27200081D01*
X50115086Y27214727D01*
X50115553Y27215531D01*
X50123089Y27229679D01*
X50123558Y27230658D01*
X50129393Y27244307D01*
X50129830Y27245490D01*
X50133964Y27258640D01*
X50134320Y27260050D01*
X50136753Y27272700D01*
X50136959Y27274335D01*
X50137141Y27277358D01*
X50479248Y27369248D01*
X50387358Y27027142D01*
G36*
X40312074Y21190000D02*
G01*
X40005192Y21013070D01*
X40002926Y21015079D01*
X40001624Y21016090D01*
X39990959Y21023315D01*
X39989709Y21024061D01*
X39977487Y21030436D01*
X39976341Y21030963D01*
X39962564Y21036488D01*
X39961541Y21036849D01*
X39946208Y21041524D01*
X39945309Y21041762D01*
X39928420Y21045587D01*
X39927637Y21045739D01*
X39909192Y21048714D01*
X39908512Y21048805D01*
X39888511Y21050930D01*
X39887919Y21050979D01*
X39866362Y21052254D01*
X39865845Y21052274D01*
X39855200Y21052470D01*
X39855200Y21327531D01*
X39865846Y21327727D01*
X39866362Y21327747D01*
X39887919Y21329022D01*
X39888511Y21329071D01*
X39908512Y21331196D01*
X39909192Y21331287D01*
X39927637Y21334262D01*
X39928420Y21334414D01*
X39945309Y21338239D01*
X39946208Y21338477D01*
X39961541Y21343152D01*
X39962564Y21343513D01*
X39976341Y21349038D01*
X39977487Y21349565D01*
X39989709Y21355940D01*
X39990959Y21356686D01*
X40001624Y21363911D01*
X40002925Y21364921D01*
X40005191Y21366930D01*
X40312074Y21190000D01*
G37*
X40312074Y21190000D02*
X40005192Y21013070D01*
X40002926Y21015079D01*
X40001624Y21016090D01*
X39990959Y21023315D01*
X39989709Y21024061D01*
X39977487Y21030436D01*
X39976341Y21030963D01*
X39962564Y21036488D01*
X39961541Y21036849D01*
X39946208Y21041524D01*
X39945309Y21041762D01*
X39928420Y21045587D01*
X39927637Y21045739D01*
X39909192Y21048714D01*
X39908512Y21048805D01*
X39888511Y21050930D01*
X39887919Y21050979D01*
X39866362Y21052254D01*
X39865845Y21052274D01*
X39855200Y21052470D01*
X39855200Y21327531D01*
X39865846Y21327727D01*
X39866362Y21327747D01*
X39887919Y21329022D01*
X39888511Y21329071D01*
X39908512Y21331196D01*
X39909192Y21331287D01*
X39927637Y21334262D01*
X39928420Y21334414D01*
X39945309Y21338239D01*
X39946208Y21338477D01*
X39961541Y21343152D01*
X39962564Y21343513D01*
X39976341Y21349038D01*
X39977487Y21349565D01*
X39989709Y21355940D01*
X39990959Y21356686D01*
X40001624Y21363911D01*
X40002925Y21364921D01*
X40005191Y21366930D01*
X40312074Y21190000D01*
G36*
X43676771Y25295467D02*
G01*
X43658765Y25276438D01*
X43658114Y25275693D01*
X43636184Y25248565D01*
X43635570Y25247740D01*
X43616220Y25219384D01*
X43615662Y25218488D01*
X43598892Y25188907D01*
X43598405Y25187957D01*
X43584215Y25157148D01*
X43583810Y25156162D01*
X43572200Y25124128D01*
X43571884Y25123128D01*
X43562854Y25089867D01*
X43562626Y25088875D01*
X43556176Y25054387D01*
X43556034Y25053420D01*
X43552164Y25017706D01*
X43552098Y25016781D01*
X43551236Y24992097D01*
X43448764Y24992097D01*
X43447902Y25016781D01*
X43447836Y25017706D01*
X43443966Y25053420D01*
X43443824Y25054387D01*
X43437374Y25088875D01*
X43437146Y25089867D01*
X43428116Y25123128D01*
X43427800Y25124128D01*
X43416190Y25156162D01*
X43415785Y25157148D01*
X43401595Y25187957D01*
X43401108Y25188907D01*
X43384338Y25218488D01*
X43383780Y25219384D01*
X43364430Y25247740D01*
X43363816Y25248565D01*
X43341886Y25275693D01*
X43341235Y25276438D01*
X43323229Y25295467D01*
X43500000Y25602074D01*
X43676771Y25295467D01*
G37*
X43676771Y25295467D02*
X43658765Y25276438D01*
X43658114Y25275693D01*
X43636184Y25248565D01*
X43635570Y25247740D01*
X43616220Y25219384D01*
X43615662Y25218488D01*
X43598892Y25188907D01*
X43598405Y25187957D01*
X43584215Y25157148D01*
X43583810Y25156162D01*
X43572200Y25124128D01*
X43571884Y25123128D01*
X43562854Y25089867D01*
X43562626Y25088875D01*
X43556176Y25054387D01*
X43556034Y25053420D01*
X43552164Y25017706D01*
X43552098Y25016781D01*
X43551236Y24992097D01*
X43448764Y24992097D01*
X43447902Y25016781D01*
X43447836Y25017706D01*
X43443966Y25053420D01*
X43443824Y25054387D01*
X43437374Y25088875D01*
X43437146Y25089867D01*
X43428116Y25123128D01*
X43427800Y25124128D01*
X43416190Y25156162D01*
X43415785Y25157148D01*
X43401595Y25187957D01*
X43401108Y25188907D01*
X43384338Y25218488D01*
X43383780Y25219384D01*
X43364430Y25247740D01*
X43363816Y25248565D01*
X43341886Y25275693D01*
X43341235Y25276438D01*
X43323229Y25295467D01*
X43500000Y25602074D01*
X43676771Y25295467D01*
G36*
X19844772Y18907426D02*
G01*
X19846332Y18906305D01*
X19860342Y18897767D01*
X19861731Y18897034D01*
X19878343Y18889544D01*
X19879525Y18889081D01*
X19898738Y18882638D01*
X19899726Y18882351D01*
X19921542Y18876954D01*
X19922365Y18876779D01*
X19946782Y18872430D01*
X19947468Y18872327D01*
X19974487Y18869024D01*
X19975064Y18868967D01*
X20004684Y18866711D01*
X20005172Y18866683D01*
X20037395Y18865475D01*
X20037812Y18865466D01*
X20062945Y18865348D01*
X20154694Y18523769D01*
X19813115Y18615518D01*
X19812997Y18640651D01*
X19812988Y18641068D01*
X19811780Y18673291D01*
X19811752Y18673779D01*
X19809496Y18703400D01*
X19809439Y18703977D01*
X19806136Y18730996D01*
X19806033Y18731682D01*
X19801684Y18756099D01*
X19801509Y18756922D01*
X19796112Y18778737D01*
X19795825Y18779725D01*
X19789382Y18798939D01*
X19788918Y18800121D01*
X19781428Y18816732D01*
X19780696Y18818121D01*
X19772159Y18832131D01*
X19771038Y18833691D01*
X19768944Y18836183D01*
X19842280Y18909519D01*
X19844772Y18907426D01*
G37*
X19844772Y18907426D02*
X19846332Y18906305D01*
X19860342Y18897767D01*
X19861731Y18897034D01*
X19878343Y18889544D01*
X19879525Y18889081D01*
X19898738Y18882638D01*
X19899726Y18882351D01*
X19921542Y18876954D01*
X19922365Y18876779D01*
X19946782Y18872430D01*
X19947468Y18872327D01*
X19974487Y18869024D01*
X19975064Y18868967D01*
X20004684Y18866711D01*
X20005172Y18866683D01*
X20037395Y18865475D01*
X20037812Y18865466D01*
X20062945Y18865348D01*
X20154694Y18523769D01*
X19813115Y18615518D01*
X19812997Y18640651D01*
X19812988Y18641068D01*
X19811780Y18673291D01*
X19811752Y18673779D01*
X19809496Y18703400D01*
X19809439Y18703977D01*
X19806136Y18730996D01*
X19806033Y18731682D01*
X19801684Y18756099D01*
X19801509Y18756922D01*
X19796112Y18778737D01*
X19795825Y18779725D01*
X19789382Y18798939D01*
X19788918Y18800121D01*
X19781428Y18816732D01*
X19780696Y18818121D01*
X19772159Y18832131D01*
X19771038Y18833691D01*
X19768944Y18836183D01*
X19842280Y18909519D01*
X19844772Y18907426D01*
G36*
X19620177Y27344048D02*
G01*
X19620750Y27343795D01*
X19688102Y27316027D01*
X19688812Y27315759D01*
X19751216Y27294293D01*
X19752106Y27294022D01*
X19809561Y27278859D01*
X19810688Y27278616D01*
X19863194Y27269754D01*
X19864625Y27269595D01*
X19912183Y27267035D01*
X19913977Y27267066D01*
X19956586Y27270809D01*
X19958748Y27271189D01*
X19996408Y27281234D01*
X19998812Y27282145D01*
X20031524Y27298492D01*
X20033875Y27300011D01*
X20054854Y27317124D01*
X20362074Y27140000D01*
X20055482Y26963238D01*
X20034593Y26983080D01*
X20034022Y26983591D01*
X20001310Y27011104D01*
X20000825Y27011492D01*
X19963165Y27040147D01*
X19962753Y27040448D01*
X19920144Y27070245D01*
X19919792Y27070482D01*
X19872234Y27101422D01*
X19871930Y27101614D01*
X19819424Y27133696D01*
X19819159Y27133853D01*
X19761704Y27167076D01*
X19761473Y27167207D01*
X19699069Y27201573D01*
X19698866Y27201682D01*
X19631514Y27237190D01*
X19631333Y27237284D01*
X19565991Y27270407D01*
X19565991Y27369582D01*
X19620177Y27344048D01*
G37*
X19620177Y27344048D02*
X19620750Y27343795D01*
X19688102Y27316027D01*
X19688812Y27315759D01*
X19751216Y27294293D01*
X19752106Y27294022D01*
X19809561Y27278859D01*
X19810688Y27278616D01*
X19863194Y27269754D01*
X19864625Y27269595D01*
X19912183Y27267035D01*
X19913977Y27267066D01*
X19956586Y27270809D01*
X19958748Y27271189D01*
X19996408Y27281234D01*
X19998812Y27282145D01*
X20031524Y27298492D01*
X20033875Y27300011D01*
X20054854Y27317124D01*
X20362074Y27140000D01*
X20055482Y26963238D01*
X20034593Y26983080D01*
X20034022Y26983591D01*
X20001310Y27011104D01*
X20000825Y27011492D01*
X19963165Y27040147D01*
X19962753Y27040448D01*
X19920144Y27070245D01*
X19919792Y27070482D01*
X19872234Y27101422D01*
X19871930Y27101614D01*
X19819424Y27133696D01*
X19819159Y27133853D01*
X19761704Y27167076D01*
X19761473Y27167207D01*
X19699069Y27201573D01*
X19698866Y27201682D01*
X19631514Y27237190D01*
X19631333Y27237284D01*
X19565991Y27270407D01*
X19565991Y27369582D01*
X19620177Y27344048D01*
G36*
X20362074Y27817013D02*
G01*
X20054854Y27639889D01*
X20033875Y27657003D01*
X20031524Y27658522D01*
X19998812Y27674869D01*
X19996408Y27675780D01*
X19958748Y27685825D01*
X19956586Y27686205D01*
X19913977Y27689947D01*
X19912184Y27689978D01*
X19864626Y27687419D01*
X19863194Y27687260D01*
X19810688Y27678398D01*
X19809561Y27678155D01*
X19752106Y27662991D01*
X19751216Y27662720D01*
X19688812Y27641254D01*
X19688102Y27640986D01*
X19620750Y27613218D01*
X19620177Y27612965D01*
X19565991Y27587430D01*
X19565991Y27686605D01*
X19631333Y27719729D01*
X19631514Y27719823D01*
X19698866Y27755331D01*
X19699069Y27755440D01*
X19761473Y27789806D01*
X19761705Y27789937D01*
X19819160Y27823161D01*
X19819424Y27823318D01*
X19871930Y27855400D01*
X19872233Y27855591D01*
X19919791Y27886530D01*
X19920144Y27886769D01*
X19962753Y27916567D01*
X19963165Y27916867D01*
X20000825Y27945522D01*
X20001310Y27945910D01*
X20034022Y27973423D01*
X20034593Y27973934D01*
X20055482Y27993775D01*
X20362074Y27817013D01*
G37*
X20362074Y27817013D02*
X20054854Y27639889D01*
X20033875Y27657003D01*
X20031524Y27658522D01*
X19998812Y27674869D01*
X19996408Y27675780D01*
X19958748Y27685825D01*
X19956586Y27686205D01*
X19913977Y27689947D01*
X19912184Y27689978D01*
X19864626Y27687419D01*
X19863194Y27687260D01*
X19810688Y27678398D01*
X19809561Y27678155D01*
X19752106Y27662991D01*
X19751216Y27662720D01*
X19688812Y27641254D01*
X19688102Y27640986D01*
X19620750Y27613218D01*
X19620177Y27612965D01*
X19565991Y27587430D01*
X19565991Y27686605D01*
X19631333Y27719729D01*
X19631514Y27719823D01*
X19698866Y27755331D01*
X19699069Y27755440D01*
X19761473Y27789806D01*
X19761705Y27789937D01*
X19819160Y27823161D01*
X19819424Y27823318D01*
X19871930Y27855400D01*
X19872233Y27855591D01*
X19919791Y27886530D01*
X19920144Y27886769D01*
X19962753Y27916567D01*
X19963165Y27916867D01*
X20000825Y27945522D01*
X20001310Y27945910D01*
X20034022Y27973423D01*
X20034593Y27973934D01*
X20055482Y27993775D01*
X20362074Y27817013D01*
G36*
X39737440Y39241348D02*
G01*
X39711253Y39240625D01*
X39710265Y39240559D01*
X39675575Y39236883D01*
X39674557Y39236734D01*
X39640824Y39230366D01*
X39639797Y39230127D01*
X39607022Y39221068D01*
X39606005Y39220741D01*
X39574186Y39208990D01*
X39573203Y39208579D01*
X39542342Y39194137D01*
X39541411Y39193653D01*
X39511507Y39176519D01*
X39510645Y39175978D01*
X39481698Y39156152D01*
X39480914Y39155570D01*
X39452923Y39133053D01*
X39452221Y39132445D01*
X39434158Y39115601D01*
X39361700Y39188059D01*
X39378544Y39206123D01*
X39379151Y39206823D01*
X39401669Y39234813D01*
X39402252Y39235598D01*
X39422077Y39264546D01*
X39422618Y39265408D01*
X39439752Y39295312D01*
X39440236Y39296243D01*
X39454679Y39327104D01*
X39455090Y39328088D01*
X39466840Y39359907D01*
X39467167Y39360923D01*
X39476226Y39393698D01*
X39476465Y39394725D01*
X39482833Y39428458D01*
X39482982Y39429476D01*
X39486658Y39464166D01*
X39486724Y39465153D01*
X39487448Y39491340D01*
X39829248Y39583148D01*
X39737440Y39241348D01*
G37*
X39737440Y39241348D02*
X39711253Y39240625D01*
X39710265Y39240559D01*
X39675575Y39236883D01*
X39674557Y39236734D01*
X39640824Y39230366D01*
X39639797Y39230127D01*
X39607022Y39221068D01*
X39606005Y39220741D01*
X39574186Y39208990D01*
X39573203Y39208579D01*
X39542342Y39194137D01*
X39541411Y39193653D01*
X39511507Y39176519D01*
X39510645Y39175978D01*
X39481698Y39156152D01*
X39480914Y39155570D01*
X39452923Y39133053D01*
X39452221Y39132445D01*
X39434158Y39115601D01*
X39361700Y39188059D01*
X39378544Y39206123D01*
X39379151Y39206823D01*
X39401669Y39234813D01*
X39402252Y39235598D01*
X39422077Y39264546D01*
X39422618Y39265408D01*
X39439752Y39295312D01*
X39440236Y39296243D01*
X39454679Y39327104D01*
X39455090Y39328088D01*
X39466840Y39359907D01*
X39467167Y39360923D01*
X39476226Y39393698D01*
X39476465Y39394725D01*
X39482833Y39428458D01*
X39482982Y39429476D01*
X39486658Y39464166D01*
X39486724Y39465153D01*
X39487448Y39491340D01*
X39829248Y39583148D01*
X39737440Y39241348D01*
G36*
X36802098Y35613220D02*
G01*
X36802164Y35612295D01*
X36806034Y35576581D01*
X36806176Y35575614D01*
X36812626Y35541126D01*
X36812854Y35540134D01*
X36821884Y35506873D01*
X36822200Y35505873D01*
X36833810Y35473838D01*
X36834215Y35472852D01*
X36848405Y35442044D01*
X36848892Y35441094D01*
X36865662Y35411513D01*
X36866220Y35410617D01*
X36885570Y35382261D01*
X36886184Y35381436D01*
X36908114Y35354308D01*
X36908765Y35353563D01*
X36926771Y35334533D01*
X36750000Y35027926D01*
X36573229Y35334533D01*
X36591235Y35353563D01*
X36591886Y35354308D01*
X36613816Y35381436D01*
X36614430Y35382261D01*
X36633780Y35410617D01*
X36634338Y35411513D01*
X36651108Y35441094D01*
X36651595Y35442044D01*
X36665785Y35472852D01*
X36666190Y35473838D01*
X36677800Y35505873D01*
X36678116Y35506873D01*
X36687146Y35540134D01*
X36687374Y35541126D01*
X36693824Y35575614D01*
X36693966Y35576581D01*
X36697836Y35612295D01*
X36697902Y35613220D01*
X36698764Y35637903D01*
X36801236Y35637903D01*
X36802098Y35613220D01*
G37*
X36802098Y35613220D02*
X36802164Y35612295D01*
X36806034Y35576581D01*
X36806176Y35575614D01*
X36812626Y35541126D01*
X36812854Y35540134D01*
X36821884Y35506873D01*
X36822200Y35505873D01*
X36833810Y35473838D01*
X36834215Y35472852D01*
X36848405Y35442044D01*
X36848892Y35441094D01*
X36865662Y35411513D01*
X36866220Y35410617D01*
X36885570Y35382261D01*
X36886184Y35381436D01*
X36908114Y35354308D01*
X36908765Y35353563D01*
X36926771Y35334533D01*
X36750000Y35027926D01*
X36573229Y35334533D01*
X36591235Y35353563D01*
X36591886Y35354308D01*
X36613816Y35381436D01*
X36614430Y35382261D01*
X36633780Y35410617D01*
X36634338Y35411513D01*
X36651108Y35441094D01*
X36651595Y35442044D01*
X36665785Y35472852D01*
X36666190Y35473838D01*
X36677800Y35505873D01*
X36678116Y35506873D01*
X36687146Y35540134D01*
X36687374Y35541126D01*
X36693824Y35575614D01*
X36693966Y35576581D01*
X36697836Y35612295D01*
X36697902Y35613220D01*
X36698764Y35637903D01*
X36801236Y35637903D01*
X36802098Y35613220D01*
G36*
X38750111Y15444854D02*
G01*
X38732997Y15423876D01*
X38731478Y15421525D01*
X38715131Y15388813D01*
X38714220Y15386409D01*
X38704175Y15348749D01*
X38703795Y15346587D01*
X38700052Y15303978D01*
X38700021Y15302184D01*
X38702581Y15254626D01*
X38702740Y15253195D01*
X38711602Y15200689D01*
X38711845Y15199562D01*
X38727008Y15142107D01*
X38727279Y15141217D01*
X38748745Y15078813D01*
X38749013Y15078103D01*
X38776781Y15010751D01*
X38777034Y15010178D01*
X38802569Y14955991D01*
X38703394Y14955991D01*
X38670270Y15021334D01*
X38670176Y15021515D01*
X38634668Y15088867D01*
X38634559Y15089070D01*
X38600193Y15151474D01*
X38600062Y15151705D01*
X38566839Y15209160D01*
X38566682Y15209425D01*
X38534600Y15261931D01*
X38534408Y15262235D01*
X38503468Y15309793D01*
X38503231Y15310145D01*
X38473434Y15352754D01*
X38473133Y15353166D01*
X38444478Y15390826D01*
X38444090Y15391311D01*
X38416577Y15424023D01*
X38416066Y15424594D01*
X38396225Y15445482D01*
X38572987Y15752074D01*
X38750111Y15444854D01*
G37*
X38750111Y15444854D02*
X38732997Y15423876D01*
X38731478Y15421525D01*
X38715131Y15388813D01*
X38714220Y15386409D01*
X38704175Y15348749D01*
X38703795Y15346587D01*
X38700052Y15303978D01*
X38700021Y15302184D01*
X38702581Y15254626D01*
X38702740Y15253195D01*
X38711602Y15200689D01*
X38711845Y15199562D01*
X38727008Y15142107D01*
X38727279Y15141217D01*
X38748745Y15078813D01*
X38749013Y15078103D01*
X38776781Y15010751D01*
X38777034Y15010178D01*
X38802569Y14955991D01*
X38703394Y14955991D01*
X38670270Y15021334D01*
X38670176Y15021515D01*
X38634668Y15088867D01*
X38634559Y15089070D01*
X38600193Y15151474D01*
X38600062Y15151705D01*
X38566839Y15209160D01*
X38566682Y15209425D01*
X38534600Y15261931D01*
X38534408Y15262235D01*
X38503468Y15309793D01*
X38503231Y15310145D01*
X38473434Y15352754D01*
X38473133Y15353166D01*
X38444478Y15390826D01*
X38444090Y15391311D01*
X38416577Y15424023D01*
X38416066Y15424594D01*
X38396225Y15445482D01*
X38572987Y15752074D01*
X38750111Y15444854D01*
G36*
X39426672Y15445638D02*
G01*
X39407079Y15425743D01*
X39406802Y15425453D01*
X39379289Y15395691D01*
X39379058Y15395434D01*
X39350403Y15362691D01*
X39350207Y15362462D01*
X39320409Y15326737D01*
X39320242Y15326531D01*
X39289303Y15287824D01*
X39289158Y15287640D01*
X39257076Y15245952D01*
X39256951Y15245786D01*
X39223727Y15201115D01*
X39223616Y15200965D01*
X39189250Y15153313D01*
X39189153Y15153176D01*
X39153645Y15102543D01*
X39153558Y15102418D01*
X39120690Y15054335D01*
X39023510Y15054335D01*
X39045182Y15088440D01*
X39045598Y15089144D01*
X39073366Y15139777D01*
X39073810Y15140668D01*
X39095276Y15188320D01*
X39095723Y15189454D01*
X39110887Y15234125D01*
X39111283Y15235566D01*
X39120145Y15277254D01*
X39120395Y15279057D01*
X39122954Y15317764D01*
X39122913Y15319925D01*
X39119171Y15355650D01*
X39118681Y15358052D01*
X39108636Y15390795D01*
X39107626Y15393184D01*
X39091279Y15422946D01*
X39089845Y15425033D01*
X39072959Y15444999D01*
X39250000Y15752074D01*
X39426672Y15445638D01*
G37*
X39426672Y15445638D02*
X39407079Y15425743D01*
X39406802Y15425453D01*
X39379289Y15395691D01*
X39379058Y15395434D01*
X39350403Y15362691D01*
X39350207Y15362462D01*
X39320409Y15326737D01*
X39320242Y15326531D01*
X39289303Y15287824D01*
X39289158Y15287640D01*
X39257076Y15245952D01*
X39256951Y15245786D01*
X39223727Y15201115D01*
X39223616Y15200965D01*
X39189250Y15153313D01*
X39189153Y15153176D01*
X39153645Y15102543D01*
X39153558Y15102418D01*
X39120690Y15054335D01*
X39023510Y15054335D01*
X39045182Y15088440D01*
X39045598Y15089144D01*
X39073366Y15139777D01*
X39073810Y15140668D01*
X39095276Y15188320D01*
X39095723Y15189454D01*
X39110887Y15234125D01*
X39111283Y15235566D01*
X39120145Y15277254D01*
X39120395Y15279057D01*
X39122954Y15317764D01*
X39122913Y15319925D01*
X39119171Y15355650D01*
X39118681Y15358052D01*
X39108636Y15390795D01*
X39107626Y15393184D01*
X39091279Y15422946D01*
X39089845Y15425033D01*
X39072959Y15444999D01*
X39250000Y15752074D01*
X39426672Y15445638D01*
G36*
X34212126Y28614488D02*
G01*
X34212405Y28614219D01*
X34235883Y28592289D01*
X34236222Y28591983D01*
X34258492Y28572633D01*
X34258912Y28572284D01*
X34279975Y28555514D01*
X34280501Y28555117D01*
X34300357Y28540927D01*
X34301029Y28540479D01*
X34319677Y28528869D01*
X34320550Y28528372D01*
X34337991Y28519343D01*
X34339140Y28518819D01*
X34355373Y28512368D01*
X34356895Y28511871D01*
X34371921Y28508001D01*
X34373909Y28507655D01*
X34376208Y28507440D01*
X34376208Y28403580D01*
X34373909Y28403365D01*
X34371921Y28403019D01*
X34356895Y28399149D01*
X34355373Y28398652D01*
X34339140Y28392202D01*
X34337991Y28391678D01*
X34320550Y28382648D01*
X34319677Y28382151D01*
X34301029Y28370541D01*
X34300357Y28370093D01*
X34280501Y28355903D01*
X34279975Y28355506D01*
X34258912Y28338737D01*
X34258492Y28338388D01*
X34236222Y28319037D01*
X34235883Y28318731D01*
X34212405Y28296801D01*
X34212126Y28296532D01*
X34194326Y28278858D01*
X33887926Y28455510D01*
X34194326Y28632162D01*
X34212126Y28614488D01*
G37*
X34212126Y28614488D02*
X34212405Y28614219D01*
X34235883Y28592289D01*
X34236222Y28591983D01*
X34258492Y28572633D01*
X34258912Y28572284D01*
X34279975Y28555514D01*
X34280501Y28555117D01*
X34300357Y28540927D01*
X34301029Y28540479D01*
X34319677Y28528869D01*
X34320550Y28528372D01*
X34337991Y28519343D01*
X34339140Y28518819D01*
X34355373Y28512368D01*
X34356895Y28511871D01*
X34371921Y28508001D01*
X34373909Y28507655D01*
X34376208Y28507440D01*
X34376208Y28403580D01*
X34373909Y28403365D01*
X34371921Y28403019D01*
X34356895Y28399149D01*
X34355373Y28398652D01*
X34339140Y28392202D01*
X34337991Y28391678D01*
X34320550Y28382648D01*
X34319677Y28382151D01*
X34301029Y28370541D01*
X34300357Y28370093D01*
X34280501Y28355903D01*
X34279975Y28355506D01*
X34258912Y28338737D01*
X34258492Y28338388D01*
X34236222Y28319037D01*
X34235883Y28318731D01*
X34212405Y28296801D01*
X34212126Y28296532D01*
X34194326Y28278858D01*
X33887926Y28455510D01*
X34194326Y28632162D01*
X34212126Y28614488D01*
G36*
X39010663Y26719690D02*
G01*
X39011386Y26693504D01*
X39011452Y26692516D01*
X39015128Y26657826D01*
X39015277Y26656808D01*
X39021645Y26623075D01*
X39021884Y26622048D01*
X39030943Y26589273D01*
X39031270Y26588256D01*
X39043021Y26556437D01*
X39043432Y26555454D01*
X39057874Y26524593D01*
X39058358Y26523662D01*
X39075492Y26493758D01*
X39076033Y26492896D01*
X39095859Y26463948D01*
X39096442Y26463163D01*
X39118959Y26435173D01*
X39119566Y26434473D01*
X39136411Y26416409D01*
X39063952Y26343950D01*
X39045888Y26360795D01*
X39045188Y26361402D01*
X39017198Y26383919D01*
X39016413Y26384502D01*
X38987465Y26404328D01*
X38986603Y26404869D01*
X38956699Y26422003D01*
X38955768Y26422487D01*
X38924907Y26436929D01*
X38923924Y26437340D01*
X38892105Y26449091D01*
X38891088Y26449418D01*
X38858313Y26458477D01*
X38857286Y26458716D01*
X38823553Y26465084D01*
X38822535Y26465233D01*
X38787845Y26468909D01*
X38786857Y26468975D01*
X38760671Y26469698D01*
X38668863Y26811498D01*
X39010663Y26719690D01*
G37*
X39010663Y26719690D02*
X39011386Y26693504D01*
X39011452Y26692516D01*
X39015128Y26657826D01*
X39015277Y26656808D01*
X39021645Y26623075D01*
X39021884Y26622048D01*
X39030943Y26589273D01*
X39031270Y26588256D01*
X39043021Y26556437D01*
X39043432Y26555454D01*
X39057874Y26524593D01*
X39058358Y26523662D01*
X39075492Y26493758D01*
X39076033Y26492896D01*
X39095859Y26463948D01*
X39096442Y26463163D01*
X39118959Y26435173D01*
X39119566Y26434473D01*
X39136411Y26416409D01*
X39063952Y26343950D01*
X39045888Y26360795D01*
X39045188Y26361402D01*
X39017198Y26383919D01*
X39016413Y26384502D01*
X38987465Y26404328D01*
X38986603Y26404869D01*
X38956699Y26422003D01*
X38955768Y26422487D01*
X38924907Y26436929D01*
X38923924Y26437340D01*
X38892105Y26449091D01*
X38891088Y26449418D01*
X38858313Y26458477D01*
X38857286Y26458716D01*
X38823553Y26465084D01*
X38822535Y26465233D01*
X38787845Y26468909D01*
X38786857Y26468975D01*
X38760671Y26469698D01*
X38668863Y26811498D01*
X39010663Y26719690D01*
G36*
X38450333Y27103706D02*
G01*
X38451033Y27103099D01*
X38479024Y27080581D01*
X38479809Y27079998D01*
X38508756Y27060173D01*
X38509618Y27059632D01*
X38539522Y27042498D01*
X38540453Y27042014D01*
X38571314Y27027571D01*
X38572298Y27027160D01*
X38604117Y27015410D01*
X38605133Y27015083D01*
X38637908Y27006024D01*
X38638935Y27005785D01*
X38672668Y26999417D01*
X38673686Y26999268D01*
X38708376Y26995592D01*
X38709363Y26995526D01*
X38735551Y26994802D01*
X38827359Y26653002D01*
X38485559Y26744810D01*
X38484835Y26770998D01*
X38484769Y26771985D01*
X38481093Y26806675D01*
X38480944Y26807692D01*
X38474577Y26841425D01*
X38474338Y26842454D01*
X38465278Y26875229D01*
X38464951Y26876244D01*
X38453201Y26908063D01*
X38452790Y26909047D01*
X38438347Y26939908D01*
X38437863Y26940839D01*
X38420729Y26970743D01*
X38420188Y26971605D01*
X38400363Y27000552D01*
X38399780Y27001337D01*
X38377262Y27029328D01*
X38376655Y27030028D01*
X38359811Y27048091D01*
X38432270Y27120550D01*
X38450333Y27103706D01*
G37*
X38450333Y27103706D02*
X38451033Y27103099D01*
X38479024Y27080581D01*
X38479809Y27079998D01*
X38508756Y27060173D01*
X38509618Y27059632D01*
X38539522Y27042498D01*
X38540453Y27042014D01*
X38571314Y27027571D01*
X38572298Y27027160D01*
X38604117Y27015410D01*
X38605133Y27015083D01*
X38637908Y27006024D01*
X38638935Y27005785D01*
X38672668Y26999417D01*
X38673686Y26999268D01*
X38708376Y26995592D01*
X38709363Y26995526D01*
X38735551Y26994802D01*
X38827359Y26653002D01*
X38485559Y26744810D01*
X38484835Y26770998D01*
X38484769Y26771985D01*
X38481093Y26806675D01*
X38480944Y26807692D01*
X38474577Y26841425D01*
X38474338Y26842454D01*
X38465278Y26875229D01*
X38464951Y26876244D01*
X38453201Y26908063D01*
X38452790Y26909047D01*
X38438347Y26939908D01*
X38437863Y26940839D01*
X38420729Y26970743D01*
X38420188Y26971605D01*
X38400363Y27000552D01*
X38399780Y27001337D01*
X38377262Y27029328D01*
X38376655Y27030028D01*
X38359811Y27048091D01*
X38432270Y27120550D01*
X38450333Y27103706D01*
G36*
X41133519Y26396884D02*
G01*
X40827119Y26220232D01*
X40809318Y26237906D01*
X40809039Y26238175D01*
X40785561Y26260105D01*
X40785222Y26260411D01*
X40762952Y26279761D01*
X40762532Y26280110D01*
X40741469Y26296880D01*
X40740943Y26297277D01*
X40721087Y26311467D01*
X40720415Y26311915D01*
X40701767Y26323525D01*
X40700894Y26324022D01*
X40683453Y26333052D01*
X40682304Y26333576D01*
X40666071Y26340026D01*
X40664549Y26340523D01*
X40649523Y26344393D01*
X40647535Y26344739D01*
X40645237Y26344954D01*
X40645237Y26448814D01*
X40647535Y26449029D01*
X40649523Y26449375D01*
X40664549Y26453245D01*
X40666071Y26453742D01*
X40682304Y26460192D01*
X40683453Y26460716D01*
X40700894Y26469746D01*
X40701767Y26470243D01*
X40720415Y26481853D01*
X40721087Y26482301D01*
X40740943Y26496491D01*
X40741469Y26496888D01*
X40762532Y26513658D01*
X40762952Y26514007D01*
X40785222Y26533357D01*
X40785561Y26533663D01*
X40809039Y26555593D01*
X40809318Y26555862D01*
X40827119Y26573536D01*
X41133519Y26396884D01*
G37*
X41133519Y26396884D02*
X40827119Y26220232D01*
X40809318Y26237906D01*
X40809039Y26238175D01*
X40785561Y26260105D01*
X40785222Y26260411D01*
X40762952Y26279761D01*
X40762532Y26280110D01*
X40741469Y26296880D01*
X40740943Y26297277D01*
X40721087Y26311467D01*
X40720415Y26311915D01*
X40701767Y26323525D01*
X40700894Y26324022D01*
X40683453Y26333052D01*
X40682304Y26333576D01*
X40666071Y26340026D01*
X40664549Y26340523D01*
X40649523Y26344393D01*
X40647535Y26344739D01*
X40645237Y26344954D01*
X40645237Y26448814D01*
X40647535Y26449029D01*
X40649523Y26449375D01*
X40664549Y26453245D01*
X40666071Y26453742D01*
X40682304Y26460192D01*
X40683453Y26460716D01*
X40700894Y26469746D01*
X40701767Y26470243D01*
X40720415Y26481853D01*
X40721087Y26482301D01*
X40740943Y26496491D01*
X40741469Y26496888D01*
X40762532Y26513658D01*
X40762952Y26514007D01*
X40785222Y26533357D01*
X40785561Y26533663D01*
X40809039Y26555593D01*
X40809318Y26555862D01*
X40827119Y26573536D01*
X41133519Y26396884D01*
G36*
X37569341Y29427525D02*
G01*
X37551335Y29408496D01*
X37550684Y29407751D01*
X37528754Y29380623D01*
X37528140Y29379798D01*
X37508790Y29351442D01*
X37508232Y29350546D01*
X37491462Y29320965D01*
X37490975Y29320015D01*
X37476785Y29289206D01*
X37476380Y29288220D01*
X37464770Y29256186D01*
X37464454Y29255186D01*
X37455424Y29221925D01*
X37455196Y29220933D01*
X37448746Y29186445D01*
X37448604Y29185478D01*
X37444734Y29149764D01*
X37444668Y29148839D01*
X37443806Y29124155D01*
X37341334Y29124155D01*
X37340472Y29148839D01*
X37340406Y29149764D01*
X37336536Y29185478D01*
X37336394Y29186445D01*
X37329944Y29220933D01*
X37329716Y29221925D01*
X37320686Y29255186D01*
X37320370Y29256186D01*
X37308760Y29288220D01*
X37308355Y29289206D01*
X37294165Y29320015D01*
X37293678Y29320965D01*
X37276908Y29350546D01*
X37276350Y29351442D01*
X37257000Y29379798D01*
X37256386Y29380623D01*
X37234456Y29407751D01*
X37233805Y29408496D01*
X37215799Y29427525D01*
X37392570Y29734132D01*
X37569341Y29427525D01*
G37*
X37569341Y29427525D02*
X37551335Y29408496D01*
X37550684Y29407751D01*
X37528754Y29380623D01*
X37528140Y29379798D01*
X37508790Y29351442D01*
X37508232Y29350546D01*
X37491462Y29320965D01*
X37490975Y29320015D01*
X37476785Y29289206D01*
X37476380Y29288220D01*
X37464770Y29256186D01*
X37464454Y29255186D01*
X37455424Y29221925D01*
X37455196Y29220933D01*
X37448746Y29186445D01*
X37448604Y29185478D01*
X37444734Y29149764D01*
X37444668Y29148839D01*
X37443806Y29124155D01*
X37341334Y29124155D01*
X37340472Y29148839D01*
X37340406Y29149764D01*
X37336536Y29185478D01*
X37336394Y29186445D01*
X37329944Y29220933D01*
X37329716Y29221925D01*
X37320686Y29255186D01*
X37320370Y29256186D01*
X37308760Y29288220D01*
X37308355Y29289206D01*
X37294165Y29320015D01*
X37293678Y29320965D01*
X37276908Y29350546D01*
X37276350Y29351442D01*
X37257000Y29379798D01*
X37256386Y29380623D01*
X37234456Y29407751D01*
X37233805Y29408496D01*
X37215799Y29427525D01*
X37392570Y29734132D01*
X37569341Y29427525D01*
G36*
X39213562Y18548765D02*
G01*
X39214307Y18548114D01*
X39241435Y18526184D01*
X39242260Y18525570D01*
X39270616Y18506220D01*
X39271512Y18505662D01*
X39301093Y18488892D01*
X39302043Y18488405D01*
X39332852Y18474215D01*
X39333838Y18473810D01*
X39365872Y18462200D01*
X39366872Y18461884D01*
X39400133Y18452854D01*
X39401125Y18452626D01*
X39435613Y18446176D01*
X39436580Y18446034D01*
X39472294Y18442164D01*
X39473219Y18442098D01*
X39497903Y18441236D01*
X39497903Y18338764D01*
X39473219Y18337902D01*
X39472294Y18337836D01*
X39436580Y18333966D01*
X39435613Y18333824D01*
X39401125Y18327374D01*
X39400133Y18327146D01*
X39366872Y18318116D01*
X39365872Y18317800D01*
X39333838Y18306190D01*
X39332852Y18305785D01*
X39302043Y18291595D01*
X39301093Y18291108D01*
X39271512Y18274338D01*
X39270616Y18273780D01*
X39242260Y18254430D01*
X39241435Y18253816D01*
X39214307Y18231886D01*
X39213562Y18231235D01*
X39194533Y18213229D01*
X38887926Y18390000D01*
X39194533Y18566771D01*
X39213562Y18548765D01*
G37*
X39213562Y18548765D02*
X39214307Y18548114D01*
X39241435Y18526184D01*
X39242260Y18525570D01*
X39270616Y18506220D01*
X39271512Y18505662D01*
X39301093Y18488892D01*
X39302043Y18488405D01*
X39332852Y18474215D01*
X39333838Y18473810D01*
X39365872Y18462200D01*
X39366872Y18461884D01*
X39400133Y18452854D01*
X39401125Y18452626D01*
X39435613Y18446176D01*
X39436580Y18446034D01*
X39472294Y18442164D01*
X39473219Y18442098D01*
X39497903Y18441236D01*
X39497903Y18338764D01*
X39473219Y18337902D01*
X39472294Y18337836D01*
X39436580Y18333966D01*
X39435613Y18333824D01*
X39401125Y18327374D01*
X39400133Y18327146D01*
X39366872Y18318116D01*
X39365872Y18317800D01*
X39333838Y18306190D01*
X39332852Y18305785D01*
X39302043Y18291595D01*
X39301093Y18291108D01*
X39271512Y18274338D01*
X39270616Y18273780D01*
X39242260Y18254430D01*
X39241435Y18253816D01*
X39214307Y18231886D01*
X39213562Y18231235D01*
X39194533Y18213229D01*
X38887926Y18390000D01*
X39194533Y18566771D01*
X39213562Y18548765D01*
G36*
X42112074Y19140000D02*
G01*
X41805674Y18963348D01*
X41787873Y18981022D01*
X41787594Y18981291D01*
X41764116Y19003221D01*
X41763777Y19003527D01*
X41741507Y19022877D01*
X41741087Y19023226D01*
X41720024Y19039996D01*
X41719498Y19040393D01*
X41699642Y19054583D01*
X41698970Y19055031D01*
X41680322Y19066641D01*
X41679449Y19067138D01*
X41662008Y19076168D01*
X41660859Y19076692D01*
X41644626Y19083142D01*
X41643104Y19083639D01*
X41628078Y19087509D01*
X41626090Y19087855D01*
X41623792Y19088070D01*
X41623792Y19191930D01*
X41626090Y19192145D01*
X41628078Y19192491D01*
X41643104Y19196361D01*
X41644626Y19196858D01*
X41660859Y19203308D01*
X41662008Y19203832D01*
X41679449Y19212862D01*
X41680322Y19213359D01*
X41698970Y19224969D01*
X41699642Y19225417D01*
X41719498Y19239607D01*
X41720024Y19240004D01*
X41741087Y19256774D01*
X41741507Y19257123D01*
X41763777Y19276473D01*
X41764116Y19276779D01*
X41787594Y19298709D01*
X41787873Y19298978D01*
X41805674Y19316652D01*
X42112074Y19140000D01*
G37*
X42112074Y19140000D02*
X41805674Y18963348D01*
X41787873Y18981022D01*
X41787594Y18981291D01*
X41764116Y19003221D01*
X41763777Y19003527D01*
X41741507Y19022877D01*
X41741087Y19023226D01*
X41720024Y19039996D01*
X41719498Y19040393D01*
X41699642Y19054583D01*
X41698970Y19055031D01*
X41680322Y19066641D01*
X41679449Y19067138D01*
X41662008Y19076168D01*
X41660859Y19076692D01*
X41644626Y19083142D01*
X41643104Y19083639D01*
X41628078Y19087509D01*
X41626090Y19087855D01*
X41623792Y19088070D01*
X41623792Y19191930D01*
X41626090Y19192145D01*
X41628078Y19192491D01*
X41643104Y19196361D01*
X41644626Y19196858D01*
X41660859Y19203308D01*
X41662008Y19203832D01*
X41679449Y19212862D01*
X41680322Y19213359D01*
X41698970Y19224969D01*
X41699642Y19225417D01*
X41719498Y19239607D01*
X41720024Y19240004D01*
X41741087Y19256774D01*
X41741507Y19257123D01*
X41763777Y19276473D01*
X41764116Y19276779D01*
X41787594Y19298709D01*
X41787873Y19298978D01*
X41805674Y19316652D01*
X42112074Y19140000D01*
G36*
X32723829Y15807688D02*
G01*
X32724529Y15807081D01*
X32752520Y15784563D01*
X32753305Y15783980D01*
X32782252Y15764155D01*
X32783114Y15763614D01*
X32813018Y15746480D01*
X32813949Y15745996D01*
X32844810Y15731553D01*
X32845794Y15731142D01*
X32877613Y15719392D01*
X32878629Y15719065D01*
X32911404Y15710006D01*
X32912431Y15709767D01*
X32946164Y15703399D01*
X32947182Y15703250D01*
X32981872Y15699574D01*
X32982859Y15699508D01*
X33009047Y15698784D01*
X33100855Y15356984D01*
X32759055Y15448792D01*
X32758331Y15474980D01*
X32758265Y15475967D01*
X32754589Y15510657D01*
X32754440Y15511674D01*
X32748073Y15545407D01*
X32747834Y15546436D01*
X32738774Y15579211D01*
X32738447Y15580226D01*
X32726697Y15612045D01*
X32726286Y15613029D01*
X32711843Y15643890D01*
X32711359Y15644821D01*
X32694225Y15674725D01*
X32693684Y15675587D01*
X32673859Y15704534D01*
X32673276Y15705319D01*
X32650758Y15733310D01*
X32650151Y15734010D01*
X32633307Y15752073D01*
X32705766Y15824532D01*
X32723829Y15807688D01*
G37*
X32723829Y15807688D02*
X32724529Y15807081D01*
X32752520Y15784563D01*
X32753305Y15783980D01*
X32782252Y15764155D01*
X32783114Y15763614D01*
X32813018Y15746480D01*
X32813949Y15745996D01*
X32844810Y15731553D01*
X32845794Y15731142D01*
X32877613Y15719392D01*
X32878629Y15719065D01*
X32911404Y15710006D01*
X32912431Y15709767D01*
X32946164Y15703399D01*
X32947182Y15703250D01*
X32981872Y15699574D01*
X32982859Y15699508D01*
X33009047Y15698784D01*
X33100855Y15356984D01*
X32759055Y15448792D01*
X32758331Y15474980D01*
X32758265Y15475967D01*
X32754589Y15510657D01*
X32754440Y15511674D01*
X32748073Y15545407D01*
X32747834Y15546436D01*
X32738774Y15579211D01*
X32738447Y15580226D01*
X32726697Y15612045D01*
X32726286Y15613029D01*
X32711843Y15643890D01*
X32711359Y15644821D01*
X32694225Y15674725D01*
X32693684Y15675587D01*
X32673859Y15704534D01*
X32673276Y15705319D01*
X32650758Y15733310D01*
X32650151Y15734010D01*
X32633307Y15752073D01*
X32705766Y15824532D01*
X32723829Y15807688D01*
G36*
X33133681Y15436232D02*
G01*
X32827074Y15259461D01*
X32808044Y15277467D01*
X32807299Y15278118D01*
X32780171Y15300048D01*
X32779346Y15300662D01*
X32750990Y15320012D01*
X32750094Y15320570D01*
X32720513Y15337340D01*
X32719563Y15337827D01*
X32688755Y15352017D01*
X32687769Y15352422D01*
X32655734Y15364032D01*
X32654734Y15364348D01*
X32621473Y15373378D01*
X32620481Y15373606D01*
X32585993Y15380056D01*
X32585026Y15380198D01*
X32549312Y15384068D01*
X32548387Y15384134D01*
X32523704Y15384996D01*
X32523704Y15487468D01*
X32548387Y15488330D01*
X32549312Y15488396D01*
X32585026Y15492266D01*
X32585993Y15492408D01*
X32620481Y15498858D01*
X32621473Y15499086D01*
X32654734Y15508116D01*
X32655734Y15508432D01*
X32687769Y15520042D01*
X32688755Y15520447D01*
X32719563Y15534637D01*
X32720513Y15535124D01*
X32750094Y15551894D01*
X32750990Y15552452D01*
X32779346Y15571802D01*
X32780171Y15572416D01*
X32807299Y15594346D01*
X32808044Y15594997D01*
X32827074Y15613003D01*
X33133681Y15436232D01*
G37*
X33133681Y15436232D02*
X32827074Y15259461D01*
X32808044Y15277467D01*
X32807299Y15278118D01*
X32780171Y15300048D01*
X32779346Y15300662D01*
X32750990Y15320012D01*
X32750094Y15320570D01*
X32720513Y15337340D01*
X32719563Y15337827D01*
X32688755Y15352017D01*
X32687769Y15352422D01*
X32655734Y15364032D01*
X32654734Y15364348D01*
X32621473Y15373378D01*
X32620481Y15373606D01*
X32585993Y15380056D01*
X32585026Y15380198D01*
X32549312Y15384068D01*
X32548387Y15384134D01*
X32523704Y15384996D01*
X32523704Y15487468D01*
X32548387Y15488330D01*
X32549312Y15488396D01*
X32585026Y15492266D01*
X32585993Y15492408D01*
X32620481Y15498858D01*
X32621473Y15499086D01*
X32654734Y15508116D01*
X32655734Y15508432D01*
X32687769Y15520042D01*
X32688755Y15520447D01*
X32719563Y15534637D01*
X32720513Y15535124D01*
X32750094Y15551894D01*
X32750990Y15552452D01*
X32779346Y15571802D01*
X32780171Y15572416D01*
X32807299Y15594346D01*
X32808044Y15594997D01*
X32827074Y15613003D01*
X33133681Y15436232D01*
G36*
X29201237Y16561090D02*
G01*
X29201982Y16560439D01*
X29229110Y16538509D01*
X29229935Y16537895D01*
X29258291Y16518545D01*
X29259187Y16517987D01*
X29288768Y16501217D01*
X29289718Y16500730D01*
X29320527Y16486540D01*
X29321513Y16486135D01*
X29353547Y16474525D01*
X29354547Y16474209D01*
X29387808Y16465179D01*
X29388800Y16464951D01*
X29423288Y16458501D01*
X29424255Y16458359D01*
X29459969Y16454489D01*
X29460894Y16454423D01*
X29485578Y16453561D01*
X29485578Y16351089D01*
X29460894Y16350227D01*
X29459969Y16350161D01*
X29424255Y16346291D01*
X29423288Y16346149D01*
X29388800Y16339699D01*
X29387808Y16339471D01*
X29354547Y16330441D01*
X29353547Y16330125D01*
X29321513Y16318515D01*
X29320527Y16318110D01*
X29289718Y16303920D01*
X29288768Y16303433D01*
X29259187Y16286663D01*
X29258291Y16286105D01*
X29229935Y16266755D01*
X29229110Y16266141D01*
X29201982Y16244211D01*
X29201237Y16243560D01*
X29182208Y16225554D01*
X28875601Y16402325D01*
X29182208Y16579096D01*
X29201237Y16561090D01*
G37*
X29201237Y16561090D02*
X29201982Y16560439D01*
X29229110Y16538509D01*
X29229935Y16537895D01*
X29258291Y16518545D01*
X29259187Y16517987D01*
X29288768Y16501217D01*
X29289718Y16500730D01*
X29320527Y16486540D01*
X29321513Y16486135D01*
X29353547Y16474525D01*
X29354547Y16474209D01*
X29387808Y16465179D01*
X29388800Y16464951D01*
X29423288Y16458501D01*
X29424255Y16458359D01*
X29459969Y16454489D01*
X29460894Y16454423D01*
X29485578Y16453561D01*
X29485578Y16351089D01*
X29460894Y16350227D01*
X29459969Y16350161D01*
X29424255Y16346291D01*
X29423288Y16346149D01*
X29388800Y16339699D01*
X29387808Y16339471D01*
X29354547Y16330441D01*
X29353547Y16330125D01*
X29321513Y16318515D01*
X29320527Y16318110D01*
X29289718Y16303920D01*
X29288768Y16303433D01*
X29259187Y16286663D01*
X29258291Y16286105D01*
X29229935Y16266755D01*
X29229110Y16266141D01*
X29201982Y16244211D01*
X29201237Y16243560D01*
X29182208Y16225554D01*
X28875601Y16402325D01*
X29182208Y16579096D01*
X29201237Y16561090D01*
G36*
X31095751Y18195467D02*
G01*
X31077745Y18176438D01*
X31077094Y18175693D01*
X31055164Y18148565D01*
X31054550Y18147740D01*
X31035200Y18119384D01*
X31034642Y18118488D01*
X31017872Y18088907D01*
X31017385Y18087957D01*
X31003195Y18057148D01*
X31002790Y18056162D01*
X30991180Y18024128D01*
X30990864Y18023129D01*
X30981833Y17989868D01*
X30981605Y17988874D01*
X30975156Y17954386D01*
X30975014Y17953420D01*
X30971144Y17917706D01*
X30971078Y17916781D01*
X30970216Y17892097D01*
X30867744Y17892097D01*
X30866882Y17916781D01*
X30866816Y17917706D01*
X30862946Y17953420D01*
X30862804Y17954387D01*
X30856354Y17988875D01*
X30856126Y17989867D01*
X30847096Y18023128D01*
X30846780Y18024128D01*
X30835170Y18056162D01*
X30834765Y18057148D01*
X30820575Y18087957D01*
X30820088Y18088908D01*
X30803317Y18118489D01*
X30802759Y18119383D01*
X30783410Y18147739D01*
X30782796Y18148565D01*
X30760866Y18175693D01*
X30760215Y18176438D01*
X30742209Y18195467D01*
X30918980Y18502074D01*
X31095751Y18195467D01*
G37*
X31095751Y18195467D02*
X31077745Y18176438D01*
X31077094Y18175693D01*
X31055164Y18148565D01*
X31054550Y18147740D01*
X31035200Y18119384D01*
X31034642Y18118488D01*
X31017872Y18088907D01*
X31017385Y18087957D01*
X31003195Y18057148D01*
X31002790Y18056162D01*
X30991180Y18024128D01*
X30990864Y18023129D01*
X30981833Y17989868D01*
X30981605Y17988874D01*
X30975156Y17954386D01*
X30975014Y17953420D01*
X30971144Y17917706D01*
X30971078Y17916781D01*
X30970216Y17892097D01*
X30867744Y17892097D01*
X30866882Y17916781D01*
X30866816Y17917706D01*
X30862946Y17953420D01*
X30862804Y17954387D01*
X30856354Y17988875D01*
X30856126Y17989867D01*
X30847096Y18023128D01*
X30846780Y18024128D01*
X30835170Y18056162D01*
X30834765Y18057148D01*
X30820575Y18087957D01*
X30820088Y18088908D01*
X30803317Y18118489D01*
X30802759Y18119383D01*
X30783410Y18147739D01*
X30782796Y18148565D01*
X30760866Y18175693D01*
X30760215Y18176438D01*
X30742209Y18195467D01*
X30918980Y18502074D01*
X31095751Y18195467D01*
G36*
X35513908Y15917487D02*
G01*
X35487721Y15916764D01*
X35486733Y15916698D01*
X35452043Y15913022D01*
X35451025Y15912873D01*
X35417292Y15906505D01*
X35416265Y15906266D01*
X35383490Y15897207D01*
X35382473Y15896880D01*
X35350654Y15885129D01*
X35349671Y15884718D01*
X35318810Y15870276D01*
X35317879Y15869792D01*
X35287975Y15852658D01*
X35287113Y15852117D01*
X35258166Y15832291D01*
X35257382Y15831709D01*
X35229391Y15809192D01*
X35228689Y15808584D01*
X35210626Y15791740D01*
X35138168Y15864198D01*
X35155012Y15882262D01*
X35155619Y15882962D01*
X35178137Y15910952D01*
X35178720Y15911737D01*
X35198545Y15940685D01*
X35199086Y15941547D01*
X35216220Y15971451D01*
X35216704Y15972382D01*
X35231147Y16003243D01*
X35231558Y16004227D01*
X35243308Y16036046D01*
X35243635Y16037061D01*
X35252695Y16069836D01*
X35252934Y16070865D01*
X35259301Y16104598D01*
X35259450Y16105615D01*
X35263126Y16140305D01*
X35263192Y16141292D01*
X35263916Y16167479D01*
X35605716Y16259287D01*
X35513908Y15917487D01*
G37*
X35513908Y15917487D02*
X35487721Y15916764D01*
X35486733Y15916698D01*
X35452043Y15913022D01*
X35451025Y15912873D01*
X35417292Y15906505D01*
X35416265Y15906266D01*
X35383490Y15897207D01*
X35382473Y15896880D01*
X35350654Y15885129D01*
X35349671Y15884718D01*
X35318810Y15870276D01*
X35317879Y15869792D01*
X35287975Y15852658D01*
X35287113Y15852117D01*
X35258166Y15832291D01*
X35257382Y15831709D01*
X35229391Y15809192D01*
X35228689Y15808584D01*
X35210626Y15791740D01*
X35138168Y15864198D01*
X35155012Y15882262D01*
X35155619Y15882962D01*
X35178137Y15910952D01*
X35178720Y15911737D01*
X35198545Y15940685D01*
X35199086Y15941547D01*
X35216220Y15971451D01*
X35216704Y15972382D01*
X35231147Y16003243D01*
X35231558Y16004227D01*
X35243308Y16036046D01*
X35243635Y16037061D01*
X35252695Y16069836D01*
X35252934Y16070865D01*
X35259301Y16104598D01*
X35259450Y16105615D01*
X35263126Y16140305D01*
X35263192Y16141292D01*
X35263916Y16167479D01*
X35605716Y16259287D01*
X35513908Y15917487D01*
G36*
X33235169Y15594997D02*
G01*
X33235914Y15594346D01*
X33263042Y15572416D01*
X33263867Y15571802D01*
X33292223Y15552452D01*
X33293119Y15551894D01*
X33322700Y15535124D01*
X33323650Y15534637D01*
X33354459Y15520447D01*
X33355445Y15520042D01*
X33387479Y15508432D01*
X33388479Y15508116D01*
X33421740Y15499086D01*
X33422732Y15498858D01*
X33457220Y15492408D01*
X33458187Y15492266D01*
X33493901Y15488396D01*
X33494826Y15488330D01*
X33519510Y15487468D01*
X33519510Y15384996D01*
X33494826Y15384134D01*
X33493901Y15384068D01*
X33458187Y15380198D01*
X33457220Y15380056D01*
X33422732Y15373606D01*
X33421740Y15373378D01*
X33388479Y15364348D01*
X33387479Y15364032D01*
X33355445Y15352422D01*
X33354459Y15352017D01*
X33323650Y15337827D01*
X33322700Y15337340D01*
X33293119Y15320570D01*
X33292223Y15320012D01*
X33263867Y15300662D01*
X33263042Y15300048D01*
X33235914Y15278118D01*
X33235169Y15277467D01*
X33216140Y15259461D01*
X32909533Y15436232D01*
X33216140Y15613003D01*
X33235169Y15594997D01*
G37*
X33235169Y15594997D02*
X33235914Y15594346D01*
X33263042Y15572416D01*
X33263867Y15571802D01*
X33292223Y15552452D01*
X33293119Y15551894D01*
X33322700Y15535124D01*
X33323650Y15534637D01*
X33354459Y15520447D01*
X33355445Y15520042D01*
X33387479Y15508432D01*
X33388479Y15508116D01*
X33421740Y15499086D01*
X33422732Y15498858D01*
X33457220Y15492408D01*
X33458187Y15492266D01*
X33493901Y15488396D01*
X33494826Y15488330D01*
X33519510Y15487468D01*
X33519510Y15384996D01*
X33494826Y15384134D01*
X33493901Y15384068D01*
X33458187Y15380198D01*
X33457220Y15380056D01*
X33422732Y15373606D01*
X33421740Y15373378D01*
X33388479Y15364348D01*
X33387479Y15364032D01*
X33355445Y15352422D01*
X33354459Y15352017D01*
X33323650Y15337827D01*
X33322700Y15337340D01*
X33293119Y15320570D01*
X33292223Y15320012D01*
X33263867Y15300662D01*
X33263042Y15300048D01*
X33235914Y15278118D01*
X33235169Y15277467D01*
X33216140Y15259461D01*
X32909533Y15436232D01*
X33216140Y15613003D01*
X33235169Y15594997D01*
G36*
X33052145Y37013910D02*
G01*
X33052491Y37011922D01*
X33056361Y36996896D01*
X33056858Y36995374D01*
X33063308Y36979141D01*
X33063832Y36977992D01*
X33072862Y36960551D01*
X33073359Y36959678D01*
X33084969Y36941030D01*
X33085417Y36940358D01*
X33099607Y36920502D01*
X33100004Y36919976D01*
X33116774Y36898913D01*
X33117123Y36898493D01*
X33136473Y36876223D01*
X33136779Y36875884D01*
X33158709Y36852406D01*
X33158978Y36852127D01*
X33176652Y36834326D01*
X33000000Y36527926D01*
X32823348Y36834326D01*
X32841022Y36852127D01*
X32841291Y36852406D01*
X32863221Y36875884D01*
X32863527Y36876223D01*
X32882877Y36898493D01*
X32883226Y36898913D01*
X32899996Y36919976D01*
X32900393Y36920502D01*
X32914583Y36940358D01*
X32915031Y36941030D01*
X32926641Y36959678D01*
X32927138Y36960551D01*
X32936168Y36977992D01*
X32936692Y36979141D01*
X32943142Y36995374D01*
X32943639Y36996896D01*
X32947509Y37011922D01*
X32947855Y37013910D01*
X32948070Y37016208D01*
X33051930Y37016208D01*
X33052145Y37013910D01*
G37*
X33052145Y37013910D02*
X33052491Y37011922D01*
X33056361Y36996896D01*
X33056858Y36995374D01*
X33063308Y36979141D01*
X33063832Y36977992D01*
X33072862Y36960551D01*
X33073359Y36959678D01*
X33084969Y36941030D01*
X33085417Y36940358D01*
X33099607Y36920502D01*
X33100004Y36919976D01*
X33116774Y36898913D01*
X33117123Y36898493D01*
X33136473Y36876223D01*
X33136779Y36875884D01*
X33158709Y36852406D01*
X33158978Y36852127D01*
X33176652Y36834326D01*
X33000000Y36527926D01*
X32823348Y36834326D01*
X32841022Y36852127D01*
X32841291Y36852406D01*
X32863221Y36875884D01*
X32863527Y36876223D01*
X32882877Y36898493D01*
X32883226Y36898913D01*
X32899996Y36919976D01*
X32900393Y36920502D01*
X32914583Y36940358D01*
X32915031Y36941030D01*
X32926641Y36959678D01*
X32927138Y36960551D01*
X32936168Y36977992D01*
X32936692Y36979141D01*
X32943142Y36995374D01*
X32943639Y36996896D01*
X32947509Y37011922D01*
X32947855Y37013910D01*
X32948070Y37016208D01*
X33051930Y37016208D01*
X33052145Y37013910D01*
G36*
X47452771Y47039467D02*
G01*
X47434765Y47020438D01*
X47434114Y47019693D01*
X47412184Y46992565D01*
X47411570Y46991740D01*
X47392220Y46963384D01*
X47391662Y46962488D01*
X47374892Y46932907D01*
X47374405Y46931957D01*
X47360215Y46901148D01*
X47359810Y46900162D01*
X47348200Y46868128D01*
X47347884Y46867128D01*
X47338854Y46833867D01*
X47338626Y46832875D01*
X47332176Y46798387D01*
X47332034Y46797420D01*
X47328164Y46761706D01*
X47328098Y46760781D01*
X47327236Y46736097D01*
X47224764Y46736097D01*
X47223902Y46760781D01*
X47223836Y46761706D01*
X47219966Y46797420D01*
X47219824Y46798387D01*
X47213374Y46832875D01*
X47213146Y46833867D01*
X47204116Y46867128D01*
X47203800Y46868128D01*
X47192190Y46900162D01*
X47191785Y46901148D01*
X47177595Y46931957D01*
X47177108Y46932907D01*
X47160338Y46962488D01*
X47159780Y46963384D01*
X47140430Y46991740D01*
X47139816Y46992565D01*
X47117886Y47019693D01*
X47117235Y47020438D01*
X47099229Y47039467D01*
X47276000Y47346074D01*
X47452771Y47039467D01*
G37*
X47452771Y47039467D02*
X47434765Y47020438D01*
X47434114Y47019693D01*
X47412184Y46992565D01*
X47411570Y46991740D01*
X47392220Y46963384D01*
X47391662Y46962488D01*
X47374892Y46932907D01*
X47374405Y46931957D01*
X47360215Y46901148D01*
X47359810Y46900162D01*
X47348200Y46868128D01*
X47347884Y46867128D01*
X47338854Y46833867D01*
X47338626Y46832875D01*
X47332176Y46798387D01*
X47332034Y46797420D01*
X47328164Y46761706D01*
X47328098Y46760781D01*
X47327236Y46736097D01*
X47224764Y46736097D01*
X47223902Y46760781D01*
X47223836Y46761706D01*
X47219966Y46797420D01*
X47219824Y46798387D01*
X47213374Y46832875D01*
X47213146Y46833867D01*
X47204116Y46867128D01*
X47203800Y46868128D01*
X47192190Y46900162D01*
X47191785Y46901148D01*
X47177595Y46931957D01*
X47177108Y46932907D01*
X47160338Y46962488D01*
X47159780Y46963384D01*
X47140430Y46991740D01*
X47139816Y46992565D01*
X47117886Y47019693D01*
X47117235Y47020438D01*
X47099229Y47039467D01*
X47276000Y47346074D01*
X47452771Y47039467D01*
G36*
X40963562Y38548765D02*
G01*
X40964307Y38548114D01*
X40991435Y38526184D01*
X40992260Y38525570D01*
X41020616Y38506220D01*
X41021512Y38505662D01*
X41051093Y38488892D01*
X41052043Y38488405D01*
X41082852Y38474215D01*
X41083838Y38473810D01*
X41115872Y38462200D01*
X41116872Y38461884D01*
X41150133Y38452854D01*
X41151125Y38452626D01*
X41185613Y38446176D01*
X41186580Y38446034D01*
X41222294Y38442164D01*
X41223219Y38442098D01*
X41247903Y38441236D01*
X41247903Y38338764D01*
X41223219Y38337902D01*
X41222294Y38337836D01*
X41186580Y38333966D01*
X41185613Y38333824D01*
X41151125Y38327374D01*
X41150133Y38327146D01*
X41116872Y38318116D01*
X41115872Y38317800D01*
X41083838Y38306190D01*
X41082852Y38305785D01*
X41052043Y38291595D01*
X41051093Y38291108D01*
X41021512Y38274338D01*
X41020616Y38273780D01*
X40992260Y38254430D01*
X40991435Y38253816D01*
X40964307Y38231886D01*
X40963562Y38231235D01*
X40944533Y38213229D01*
X40637926Y38390000D01*
X40944533Y38566771D01*
X40963562Y38548765D01*
G37*
X40963562Y38548765D02*
X40964307Y38548114D01*
X40991435Y38526184D01*
X40992260Y38525570D01*
X41020616Y38506220D01*
X41021512Y38505662D01*
X41051093Y38488892D01*
X41052043Y38488405D01*
X41082852Y38474215D01*
X41083838Y38473810D01*
X41115872Y38462200D01*
X41116872Y38461884D01*
X41150133Y38452854D01*
X41151125Y38452626D01*
X41185613Y38446176D01*
X41186580Y38446034D01*
X41222294Y38442164D01*
X41223219Y38442098D01*
X41247903Y38441236D01*
X41247903Y38338764D01*
X41223219Y38337902D01*
X41222294Y38337836D01*
X41186580Y38333966D01*
X41185613Y38333824D01*
X41151125Y38327374D01*
X41150133Y38327146D01*
X41116872Y38318116D01*
X41115872Y38317800D01*
X41083838Y38306190D01*
X41082852Y38305785D01*
X41052043Y38291595D01*
X41051093Y38291108D01*
X41021512Y38274338D01*
X41020616Y38273780D01*
X40992260Y38254430D01*
X40991435Y38253816D01*
X40964307Y38231886D01*
X40963562Y38231235D01*
X40944533Y38213229D01*
X40637926Y38390000D01*
X40944533Y38566771D01*
X40963562Y38548765D01*
G36*
X49107137Y43045358D02*
G01*
X49080950Y43044635D01*
X49079962Y43044569D01*
X49045272Y43040893D01*
X49044254Y43040744D01*
X49010521Y43034376D01*
X49009494Y43034137D01*
X48976719Y43025078D01*
X48975702Y43024751D01*
X48943883Y43013000D01*
X48942900Y43012589D01*
X48912039Y42998147D01*
X48911108Y42997663D01*
X48881204Y42980529D01*
X48880342Y42979988D01*
X48851395Y42960162D01*
X48850611Y42959580D01*
X48822620Y42937063D01*
X48821918Y42936455D01*
X48803855Y42919611D01*
X48731397Y42992069D01*
X48748241Y43010133D01*
X48748848Y43010833D01*
X48771366Y43038823D01*
X48771949Y43039608D01*
X48791774Y43068556D01*
X48792315Y43069418D01*
X48809449Y43099322D01*
X48809933Y43100253D01*
X48824376Y43131114D01*
X48824787Y43132098D01*
X48836537Y43163917D01*
X48836864Y43164932D01*
X48845924Y43197707D01*
X48846163Y43198736D01*
X48852530Y43232469D01*
X48852679Y43233486D01*
X48856355Y43268176D01*
X48856421Y43269163D01*
X48857145Y43295350D01*
X49198945Y43387158D01*
X49107137Y43045358D01*
G37*
X49107137Y43045358D02*
X49080950Y43044635D01*
X49079962Y43044569D01*
X49045272Y43040893D01*
X49044254Y43040744D01*
X49010521Y43034376D01*
X49009494Y43034137D01*
X48976719Y43025078D01*
X48975702Y43024751D01*
X48943883Y43013000D01*
X48942900Y43012589D01*
X48912039Y42998147D01*
X48911108Y42997663D01*
X48881204Y42980529D01*
X48880342Y42979988D01*
X48851395Y42960162D01*
X48850611Y42959580D01*
X48822620Y42937063D01*
X48821918Y42936455D01*
X48803855Y42919611D01*
X48731397Y42992069D01*
X48748241Y43010133D01*
X48748848Y43010833D01*
X48771366Y43038823D01*
X48771949Y43039608D01*
X48791774Y43068556D01*
X48792315Y43069418D01*
X48809449Y43099322D01*
X48809933Y43100253D01*
X48824376Y43131114D01*
X48824787Y43132098D01*
X48836537Y43163917D01*
X48836864Y43164932D01*
X48845924Y43197707D01*
X48846163Y43198736D01*
X48852530Y43232469D01*
X48852679Y43233486D01*
X48856355Y43268176D01*
X48856421Y43269163D01*
X48857145Y43295350D01*
X49198945Y43387158D01*
X49107137Y43045358D01*
G36*
X24605406Y46728202D02*
G01*
X24606101Y46727599D01*
X24642418Y46698324D01*
X24643196Y46697745D01*
X24680710Y46671969D01*
X24681568Y46671429D01*
X24720279Y46649152D01*
X24721206Y46648668D01*
X24761113Y46629889D01*
X24762095Y46629476D01*
X24803198Y46614197D01*
X24804216Y46613867D01*
X24846515Y46602086D01*
X24847546Y46601844D01*
X24891042Y46593561D01*
X24892067Y46593409D01*
X24936760Y46588626D01*
X24937756Y46588559D01*
X24974189Y46587539D01*
X25184153Y45805847D01*
X24402461Y46015811D01*
X24401441Y46052244D01*
X24401374Y46053240D01*
X24396591Y46097933D01*
X24396439Y46098958D01*
X24388156Y46142454D01*
X24387914Y46143485D01*
X24376133Y46185784D01*
X24375803Y46186802D01*
X24360524Y46227905D01*
X24360111Y46228887D01*
X24341332Y46268794D01*
X24340848Y46269721D01*
X24318571Y46308432D01*
X24318031Y46309290D01*
X24292255Y46346804D01*
X24291676Y46347582D01*
X24262401Y46383899D01*
X24261798Y46384594D01*
X24237395Y46410745D01*
X24579255Y46752605D01*
X24605406Y46728202D01*
G37*
X24605406Y46728202D02*
X24606101Y46727599D01*
X24642418Y46698324D01*
X24643196Y46697745D01*
X24680710Y46671969D01*
X24681568Y46671429D01*
X24720279Y46649152D01*
X24721206Y46648668D01*
X24761113Y46629889D01*
X24762095Y46629476D01*
X24803198Y46614197D01*
X24804216Y46613867D01*
X24846515Y46602086D01*
X24847546Y46601844D01*
X24891042Y46593561D01*
X24892067Y46593409D01*
X24936760Y46588626D01*
X24937756Y46588559D01*
X24974189Y46587539D01*
X25184153Y45805847D01*
X24402461Y46015811D01*
X24401441Y46052244D01*
X24401374Y46053240D01*
X24396591Y46097933D01*
X24396439Y46098958D01*
X24388156Y46142454D01*
X24387914Y46143485D01*
X24376133Y46185784D01*
X24375803Y46186802D01*
X24360524Y46227905D01*
X24360111Y46228887D01*
X24341332Y46268794D01*
X24340848Y46269721D01*
X24318571Y46308432D01*
X24318031Y46309290D01*
X24292255Y46346804D01*
X24291676Y46347582D01*
X24262401Y46383899D01*
X24261798Y46384594D01*
X24237395Y46410745D01*
X24579255Y46752605D01*
X24605406Y46728202D01*
G36*
X22052145Y31763910D02*
G01*
X22052491Y31761922D01*
X22056361Y31746896D01*
X22056858Y31745374D01*
X22063308Y31729141D01*
X22063832Y31727992D01*
X22072862Y31710551D01*
X22073359Y31709678D01*
X22084969Y31691030D01*
X22085417Y31690358D01*
X22099607Y31670502D01*
X22100004Y31669976D01*
X22116774Y31648913D01*
X22117123Y31648493D01*
X22136473Y31626223D01*
X22136779Y31625884D01*
X22158709Y31602406D01*
X22158978Y31602127D01*
X22176652Y31584326D01*
X22000000Y31277926D01*
X21823348Y31584326D01*
X21841022Y31602127D01*
X21841291Y31602406D01*
X21863221Y31625884D01*
X21863527Y31626223D01*
X21882877Y31648493D01*
X21883226Y31648913D01*
X21899996Y31669976D01*
X21900393Y31670502D01*
X21914583Y31690358D01*
X21915031Y31691030D01*
X21926641Y31709678D01*
X21927138Y31710551D01*
X21936168Y31727992D01*
X21936692Y31729141D01*
X21943142Y31745374D01*
X21943639Y31746896D01*
X21947509Y31761922D01*
X21947855Y31763910D01*
X21948070Y31766208D01*
X22051930Y31766208D01*
X22052145Y31763910D01*
G37*
X22052145Y31763910D02*
X22052491Y31761922D01*
X22056361Y31746896D01*
X22056858Y31745374D01*
X22063308Y31729141D01*
X22063832Y31727992D01*
X22072862Y31710551D01*
X22073359Y31709678D01*
X22084969Y31691030D01*
X22085417Y31690358D01*
X22099607Y31670502D01*
X22100004Y31669976D01*
X22116774Y31648913D01*
X22117123Y31648493D01*
X22136473Y31626223D01*
X22136779Y31625884D01*
X22158709Y31602406D01*
X22158978Y31602127D01*
X22176652Y31584326D01*
X22000000Y31277926D01*
X21823348Y31584326D01*
X21841022Y31602127D01*
X21841291Y31602406D01*
X21863221Y31625884D01*
X21863527Y31626223D01*
X21882877Y31648493D01*
X21883226Y31648913D01*
X21899996Y31669976D01*
X21900393Y31670502D01*
X21914583Y31690358D01*
X21915031Y31691030D01*
X21926641Y31709678D01*
X21927138Y31710551D01*
X21936168Y31727992D01*
X21936692Y31729141D01*
X21943142Y31745374D01*
X21943639Y31746896D01*
X21947509Y31761922D01*
X21947855Y31763910D01*
X21948070Y31766208D01*
X22051930Y31766208D01*
X22052145Y31763910D01*
G36*
X24020530Y32390001D02*
G01*
X23714096Y32213330D01*
X23696099Y32231058D01*
X23695740Y32231398D01*
X23671675Y32253328D01*
X23671246Y32253702D01*
X23647999Y32273052D01*
X23647478Y32273463D01*
X23625046Y32290233D01*
X23624412Y32290677D01*
X23602798Y32304867D01*
X23602018Y32305340D01*
X23581219Y32316950D01*
X23580259Y32317434D01*
X23560277Y32326464D01*
X23559098Y32326928D01*
X23539933Y32333378D01*
X23538503Y32333768D01*
X23520154Y32337638D01*
X23518465Y32337877D01*
X23512701Y32338301D01*
X23512701Y32441701D01*
X23518465Y32442125D01*
X23520154Y32442364D01*
X23538503Y32446234D01*
X23539933Y32446624D01*
X23559098Y32453074D01*
X23560277Y32453538D01*
X23580259Y32462568D01*
X23581219Y32463052D01*
X23602018Y32474662D01*
X23602798Y32475135D01*
X23624412Y32489325D01*
X23625046Y32489769D01*
X23647478Y32506539D01*
X23647999Y32506950D01*
X23671246Y32526300D01*
X23671675Y32526674D01*
X23695740Y32548604D01*
X23696099Y32548944D01*
X23714096Y32566672D01*
X24020530Y32390001D01*
G37*
X24020530Y32390001D02*
X23714096Y32213330D01*
X23696099Y32231058D01*
X23695740Y32231398D01*
X23671675Y32253328D01*
X23671246Y32253702D01*
X23647999Y32273052D01*
X23647478Y32273463D01*
X23625046Y32290233D01*
X23624412Y32290677D01*
X23602798Y32304867D01*
X23602018Y32305340D01*
X23581219Y32316950D01*
X23580259Y32317434D01*
X23560277Y32326464D01*
X23559098Y32326928D01*
X23539933Y32333378D01*
X23538503Y32333768D01*
X23520154Y32337638D01*
X23518465Y32337877D01*
X23512701Y32338301D01*
X23512701Y32441701D01*
X23518465Y32442125D01*
X23520154Y32442364D01*
X23538503Y32446234D01*
X23539933Y32446624D01*
X23559098Y32453074D01*
X23560277Y32453538D01*
X23580259Y32462568D01*
X23581219Y32463052D01*
X23602018Y32474662D01*
X23602798Y32475135D01*
X23624412Y32489325D01*
X23625046Y32489769D01*
X23647478Y32506539D01*
X23647999Y32506950D01*
X23671246Y32526300D01*
X23671675Y32526674D01*
X23695740Y32548604D01*
X23696099Y32548944D01*
X23714096Y32566672D01*
X24020530Y32390001D01*
G36*
X10912126Y43048978D02*
G01*
X10912405Y43048709D01*
X10935883Y43026779D01*
X10936222Y43026473D01*
X10958492Y43007123D01*
X10958912Y43006774D01*
X10979975Y42990004D01*
X10980501Y42989607D01*
X11000357Y42975417D01*
X11001029Y42974969D01*
X11019677Y42963359D01*
X11020550Y42962862D01*
X11037991Y42953832D01*
X11039140Y42953308D01*
X11055373Y42946858D01*
X11056895Y42946361D01*
X11071921Y42942491D01*
X11073909Y42942145D01*
X11076208Y42941930D01*
X11076208Y42838070D01*
X11073909Y42837855D01*
X11071921Y42837509D01*
X11056895Y42833639D01*
X11055373Y42833142D01*
X11039140Y42826692D01*
X11037991Y42826168D01*
X11020550Y42817138D01*
X11019677Y42816641D01*
X11001029Y42805031D01*
X11000357Y42804583D01*
X10980501Y42790393D01*
X10979975Y42789996D01*
X10958912Y42773226D01*
X10958492Y42772877D01*
X10936222Y42753527D01*
X10935883Y42753221D01*
X10912405Y42731291D01*
X10912126Y42731022D01*
X10894326Y42713348D01*
X10587926Y42890000D01*
X10894326Y43066652D01*
X10912126Y43048978D01*
G37*
X10912126Y43048978D02*
X10912405Y43048709D01*
X10935883Y43026779D01*
X10936222Y43026473D01*
X10958492Y43007123D01*
X10958912Y43006774D01*
X10979975Y42990004D01*
X10980501Y42989607D01*
X11000357Y42975417D01*
X11001029Y42974969D01*
X11019677Y42963359D01*
X11020550Y42962862D01*
X11037991Y42953832D01*
X11039140Y42953308D01*
X11055373Y42946858D01*
X11056895Y42946361D01*
X11071921Y42942491D01*
X11073909Y42942145D01*
X11076208Y42941930D01*
X11076208Y42838070D01*
X11073909Y42837855D01*
X11071921Y42837509D01*
X11056895Y42833639D01*
X11055373Y42833142D01*
X11039140Y42826692D01*
X11037991Y42826168D01*
X11020550Y42817138D01*
X11019677Y42816641D01*
X11001029Y42805031D01*
X11000357Y42804583D01*
X10980501Y42790393D01*
X10979975Y42789996D01*
X10958912Y42773226D01*
X10958492Y42772877D01*
X10936222Y42753527D01*
X10935883Y42753221D01*
X10912405Y42731291D01*
X10912126Y42731022D01*
X10894326Y42713348D01*
X10587926Y42890000D01*
X10894326Y43066652D01*
X10912126Y43048978D01*
G36*
X40042099Y26944763D02*
G01*
X40042165Y26943838D01*
X40046035Y26908124D01*
X40046177Y26907157D01*
X40052627Y26872669D01*
X40052855Y26871677D01*
X40061885Y26838416D01*
X40062201Y26837416D01*
X40073811Y26805381D01*
X40074216Y26804395D01*
X40088406Y26773587D01*
X40088893Y26772637D01*
X40105663Y26743056D01*
X40106221Y26742160D01*
X40125571Y26713804D01*
X40126185Y26712979D01*
X40148115Y26685851D01*
X40148766Y26685106D01*
X40166772Y26666076D01*
X39990001Y26359469D01*
X39813230Y26666076D01*
X39831236Y26685106D01*
X39831887Y26685851D01*
X39853817Y26712979D01*
X39854431Y26713804D01*
X39873781Y26742160D01*
X39874339Y26743056D01*
X39891109Y26772637D01*
X39891596Y26773587D01*
X39905786Y26804395D01*
X39906191Y26805381D01*
X39917801Y26837416D01*
X39918117Y26838416D01*
X39927147Y26871677D01*
X39927375Y26872669D01*
X39933825Y26907157D01*
X39933967Y26908124D01*
X39937837Y26943838D01*
X39937903Y26944763D01*
X39938765Y26969446D01*
X40041237Y26969446D01*
X40042099Y26944763D01*
G37*
X40042099Y26944763D02*
X40042165Y26943838D01*
X40046035Y26908124D01*
X40046177Y26907157D01*
X40052627Y26872669D01*
X40052855Y26871677D01*
X40061885Y26838416D01*
X40062201Y26837416D01*
X40073811Y26805381D01*
X40074216Y26804395D01*
X40088406Y26773587D01*
X40088893Y26772637D01*
X40105663Y26743056D01*
X40106221Y26742160D01*
X40125571Y26713804D01*
X40126185Y26712979D01*
X40148115Y26685851D01*
X40148766Y26685106D01*
X40166772Y26666076D01*
X39990001Y26359469D01*
X39813230Y26666076D01*
X39831236Y26685106D01*
X39831887Y26685851D01*
X39853817Y26712979D01*
X39854431Y26713804D01*
X39873781Y26742160D01*
X39874339Y26743056D01*
X39891109Y26772637D01*
X39891596Y26773587D01*
X39905786Y26804395D01*
X39906191Y26805381D01*
X39917801Y26837416D01*
X39918117Y26838416D01*
X39927147Y26871677D01*
X39927375Y26872669D01*
X39933825Y26907157D01*
X39933967Y26908124D01*
X39937837Y26943838D01*
X39937903Y26944763D01*
X39938765Y26969446D01*
X40041237Y26969446D01*
X40042099Y26944763D01*
G36*
X13288299Y42805842D02*
G01*
X13271455Y42787779D01*
X13270847Y42787077D01*
X13248330Y42759086D01*
X13247748Y42758302D01*
X13227922Y42729355D01*
X13227381Y42728493D01*
X13210247Y42698589D01*
X13209763Y42697658D01*
X13195321Y42666797D01*
X13194910Y42665814D01*
X13183159Y42633995D01*
X13182832Y42632978D01*
X13173773Y42600203D01*
X13173534Y42599176D01*
X13167166Y42565443D01*
X13167017Y42564425D01*
X13163341Y42529735D01*
X13163275Y42528747D01*
X13162552Y42502560D01*
X12820752Y42410752D01*
X12912560Y42752552D01*
X12938747Y42753276D01*
X12939734Y42753342D01*
X12974424Y42757018D01*
X12975441Y42757167D01*
X13009174Y42763534D01*
X13010203Y42763773D01*
X13042978Y42772833D01*
X13043993Y42773160D01*
X13075812Y42784910D01*
X13076796Y42785321D01*
X13107657Y42799764D01*
X13108588Y42800248D01*
X13138492Y42817382D01*
X13139354Y42817923D01*
X13168302Y42837748D01*
X13169087Y42838331D01*
X13197077Y42860849D01*
X13197777Y42861456D01*
X13215841Y42878300D01*
X13288299Y42805842D01*
G37*
X13288299Y42805842D02*
X13271455Y42787779D01*
X13270847Y42787077D01*
X13248330Y42759086D01*
X13247748Y42758302D01*
X13227922Y42729355D01*
X13227381Y42728493D01*
X13210247Y42698589D01*
X13209763Y42697658D01*
X13195321Y42666797D01*
X13194910Y42665814D01*
X13183159Y42633995D01*
X13182832Y42632978D01*
X13173773Y42600203D01*
X13173534Y42599176D01*
X13167166Y42565443D01*
X13167017Y42564425D01*
X13163341Y42529735D01*
X13163275Y42528747D01*
X13162552Y42502560D01*
X12820752Y42410752D01*
X12912560Y42752552D01*
X12938747Y42753276D01*
X12939734Y42753342D01*
X12974424Y42757018D01*
X12975441Y42757167D01*
X13009174Y42763534D01*
X13010203Y42763773D01*
X13042978Y42772833D01*
X13043993Y42773160D01*
X13075812Y42784910D01*
X13076796Y42785321D01*
X13107657Y42799764D01*
X13108588Y42800248D01*
X13138492Y42817382D01*
X13139354Y42817923D01*
X13168302Y42837748D01*
X13169087Y42838331D01*
X13197077Y42860849D01*
X13197777Y42861456D01*
X13215841Y42878300D01*
X13288299Y42805842D01*
G36*
X39008171Y27907279D02*
G01*
X39008237Y27906354D01*
X39012107Y27870640D01*
X39012249Y27869673D01*
X39018699Y27835185D01*
X39018927Y27834193D01*
X39027957Y27800932D01*
X39028273Y27799932D01*
X39039883Y27767897D01*
X39040288Y27766911D01*
X39054478Y27736103D01*
X39054965Y27735153D01*
X39071735Y27705572D01*
X39072293Y27704676D01*
X39091643Y27676320D01*
X39092257Y27675495D01*
X39114187Y27648367D01*
X39114838Y27647622D01*
X39132844Y27628592D01*
X38956073Y27321985D01*
X38779302Y27628592D01*
X38797308Y27647622D01*
X38797959Y27648367D01*
X38819889Y27675495D01*
X38820503Y27676320D01*
X38839853Y27704676D01*
X38840411Y27705572D01*
X38857181Y27735153D01*
X38857668Y27736103D01*
X38871858Y27766911D01*
X38872263Y27767897D01*
X38883873Y27799932D01*
X38884189Y27800932D01*
X38893219Y27834193D01*
X38893447Y27835185D01*
X38899897Y27869673D01*
X38900039Y27870640D01*
X38903909Y27906354D01*
X38903975Y27907279D01*
X38904837Y27931962D01*
X39007309Y27931962D01*
X39008171Y27907279D01*
G37*
X39008171Y27907279D02*
X39008237Y27906354D01*
X39012107Y27870640D01*
X39012249Y27869673D01*
X39018699Y27835185D01*
X39018927Y27834193D01*
X39027957Y27800932D01*
X39028273Y27799932D01*
X39039883Y27767897D01*
X39040288Y27766911D01*
X39054478Y27736103D01*
X39054965Y27735153D01*
X39071735Y27705572D01*
X39072293Y27704676D01*
X39091643Y27676320D01*
X39092257Y27675495D01*
X39114187Y27648367D01*
X39114838Y27647622D01*
X39132844Y27628592D01*
X38956073Y27321985D01*
X38779302Y27628592D01*
X38797308Y27647622D01*
X38797959Y27648367D01*
X38819889Y27675495D01*
X38820503Y27676320D01*
X38839853Y27704676D01*
X38840411Y27705572D01*
X38857181Y27735153D01*
X38857668Y27736103D01*
X38871858Y27766911D01*
X38872263Y27767897D01*
X38883873Y27799932D01*
X38884189Y27800932D01*
X38893219Y27834193D01*
X38893447Y27835185D01*
X38899897Y27869673D01*
X38900039Y27870640D01*
X38903909Y27906354D01*
X38903975Y27907279D01*
X38904837Y27931962D01*
X39007309Y27931962D01*
X39008171Y27907279D01*
G36*
X47962552Y33677440D02*
G01*
X47963275Y33651254D01*
X47963341Y33650266D01*
X47967017Y33615576D01*
X47967166Y33614558D01*
X47973534Y33580825D01*
X47973773Y33579798D01*
X47982832Y33547023D01*
X47983159Y33546006D01*
X47994910Y33514187D01*
X47995321Y33513204D01*
X48009763Y33482343D01*
X48010247Y33481412D01*
X48027381Y33451508D01*
X48027922Y33450646D01*
X48047748Y33421698D01*
X48048331Y33420913D01*
X48070848Y33392923D01*
X48071455Y33392223D01*
X48088300Y33374159D01*
X48015841Y33301700D01*
X47997777Y33318545D01*
X47997077Y33319152D01*
X47969087Y33341669D01*
X47968302Y33342252D01*
X47939354Y33362078D01*
X47938492Y33362619D01*
X47908588Y33379753D01*
X47907657Y33380237D01*
X47876796Y33394679D01*
X47875813Y33395090D01*
X47843994Y33406841D01*
X47842977Y33407168D01*
X47810202Y33416227D01*
X47809175Y33416466D01*
X47775442Y33422834D01*
X47774424Y33422983D01*
X47739734Y33426659D01*
X47738746Y33426725D01*
X47712560Y33427448D01*
X47620752Y33769248D01*
X47962552Y33677440D01*
G37*
X47962552Y33677440D02*
X47963275Y33651254D01*
X47963341Y33650266D01*
X47967017Y33615576D01*
X47967166Y33614558D01*
X47973534Y33580825D01*
X47973773Y33579798D01*
X47982832Y33547023D01*
X47983159Y33546006D01*
X47994910Y33514187D01*
X47995321Y33513204D01*
X48009763Y33482343D01*
X48010247Y33481412D01*
X48027381Y33451508D01*
X48027922Y33450646D01*
X48047748Y33421698D01*
X48048331Y33420913D01*
X48070848Y33392923D01*
X48071455Y33392223D01*
X48088300Y33374159D01*
X48015841Y33301700D01*
X47997777Y33318545D01*
X47997077Y33319152D01*
X47969087Y33341669D01*
X47968302Y33342252D01*
X47939354Y33362078D01*
X47938492Y33362619D01*
X47908588Y33379753D01*
X47907657Y33380237D01*
X47876796Y33394679D01*
X47875813Y33395090D01*
X47843994Y33406841D01*
X47842977Y33407168D01*
X47810202Y33416227D01*
X47809175Y33416466D01*
X47775442Y33422834D01*
X47774424Y33422983D01*
X47739734Y33426659D01*
X47738746Y33426725D01*
X47712560Y33427448D01*
X47620752Y33769248D01*
X47962552Y33677440D01*
G36*
X48593136Y27129988D02*
G01*
X48593415Y27129719D01*
X48616893Y27107789D01*
X48617232Y27107483D01*
X48639502Y27088133D01*
X48639922Y27087784D01*
X48660985Y27071014D01*
X48661511Y27070617D01*
X48681367Y27056427D01*
X48682039Y27055979D01*
X48700687Y27044369D01*
X48701560Y27043872D01*
X48719001Y27034843D01*
X48720150Y27034319D01*
X48736383Y27027868D01*
X48737905Y27027371D01*
X48752931Y27023501D01*
X48754919Y27023155D01*
X48757218Y27022940D01*
X48757218Y26919080D01*
X48754919Y26918865D01*
X48752931Y26918519D01*
X48737905Y26914649D01*
X48736383Y26914152D01*
X48720150Y26907702D01*
X48719001Y26907178D01*
X48701560Y26898148D01*
X48700687Y26897651D01*
X48682039Y26886041D01*
X48681367Y26885593D01*
X48661511Y26871403D01*
X48660985Y26871006D01*
X48639922Y26854237D01*
X48639502Y26853888D01*
X48617232Y26834537D01*
X48616893Y26834231D01*
X48593415Y26812301D01*
X48593136Y26812032D01*
X48575336Y26794358D01*
X48268936Y26971010D01*
X48575336Y27147662D01*
X48593136Y27129988D01*
G37*
X48593136Y27129988D02*
X48593415Y27129719D01*
X48616893Y27107789D01*
X48617232Y27107483D01*
X48639502Y27088133D01*
X48639922Y27087784D01*
X48660985Y27071014D01*
X48661511Y27070617D01*
X48681367Y27056427D01*
X48682039Y27055979D01*
X48700687Y27044369D01*
X48701560Y27043872D01*
X48719001Y27034843D01*
X48720150Y27034319D01*
X48736383Y27027868D01*
X48737905Y27027371D01*
X48752931Y27023501D01*
X48754919Y27023155D01*
X48757218Y27022940D01*
X48757218Y26919080D01*
X48754919Y26918865D01*
X48752931Y26918519D01*
X48737905Y26914649D01*
X48736383Y26914152D01*
X48720150Y26907702D01*
X48719001Y26907178D01*
X48701560Y26898148D01*
X48700687Y26897651D01*
X48682039Y26886041D01*
X48681367Y26885593D01*
X48661511Y26871403D01*
X48660985Y26871006D01*
X48639922Y26854237D01*
X48639502Y26853888D01*
X48617232Y26834537D01*
X48616893Y26834231D01*
X48593415Y26812301D01*
X48593136Y26812032D01*
X48575336Y26794358D01*
X48268936Y26971010D01*
X48575336Y27147662D01*
X48593136Y27129988D01*
G36*
X2454275Y18482831D02*
G01*
X2454341Y18481906D01*
X2458211Y18446192D01*
X2458353Y18445225D01*
X2464803Y18410737D01*
X2465031Y18409745D01*
X2474061Y18376484D01*
X2474377Y18375484D01*
X2485987Y18343449D01*
X2486392Y18342463D01*
X2500582Y18311655D01*
X2501069Y18310705D01*
X2517839Y18281124D01*
X2518397Y18280228D01*
X2537747Y18251872D01*
X2538361Y18251047D01*
X2560291Y18223919D01*
X2560942Y18223174D01*
X2578948Y18204144D01*
X2402177Y17897537D01*
X2225406Y18204144D01*
X2243412Y18223174D01*
X2244063Y18223919D01*
X2265993Y18251047D01*
X2266607Y18251872D01*
X2285957Y18280228D01*
X2286515Y18281124D01*
X2303285Y18310705D01*
X2303772Y18311655D01*
X2317962Y18342463D01*
X2318367Y18343449D01*
X2329977Y18375484D01*
X2330293Y18376484D01*
X2339323Y18409745D01*
X2339551Y18410737D01*
X2346001Y18445225D01*
X2346143Y18446192D01*
X2350013Y18481906D01*
X2350079Y18482831D01*
X2350941Y18507514D01*
X2453413Y18507514D01*
X2454275Y18482831D01*
G37*
X2454275Y18482831D02*
X2454341Y18481906D01*
X2458211Y18446192D01*
X2458353Y18445225D01*
X2464803Y18410737D01*
X2465031Y18409745D01*
X2474061Y18376484D01*
X2474377Y18375484D01*
X2485987Y18343449D01*
X2486392Y18342463D01*
X2500582Y18311655D01*
X2501069Y18310705D01*
X2517839Y18281124D01*
X2518397Y18280228D01*
X2537747Y18251872D01*
X2538361Y18251047D01*
X2560291Y18223919D01*
X2560942Y18223174D01*
X2578948Y18204144D01*
X2402177Y17897537D01*
X2225406Y18204144D01*
X2243412Y18223174D01*
X2244063Y18223919D01*
X2265993Y18251047D01*
X2266607Y18251872D01*
X2285957Y18280228D01*
X2286515Y18281124D01*
X2303285Y18310705D01*
X2303772Y18311655D01*
X2317962Y18342463D01*
X2318367Y18343449D01*
X2329977Y18375484D01*
X2330293Y18376484D01*
X2339323Y18409745D01*
X2339551Y18410737D01*
X2346001Y18445225D01*
X2346143Y18446192D01*
X2350013Y18481906D01*
X2350079Y18482831D01*
X2350941Y18507514D01*
X2453413Y18507514D01*
X2454275Y18482831D01*
G36*
X54700036Y15528831D02*
G01*
X54700781Y15528180D01*
X54727909Y15506250D01*
X54728734Y15505636D01*
X54757090Y15486286D01*
X54757986Y15485728D01*
X54787567Y15468958D01*
X54788517Y15468471D01*
X54819326Y15454281D01*
X54820312Y15453876D01*
X54852346Y15442266D01*
X54853346Y15441950D01*
X54886607Y15432920D01*
X54887599Y15432692D01*
X54922087Y15426242D01*
X54923054Y15426100D01*
X54958768Y15422230D01*
X54959693Y15422164D01*
X54984377Y15421302D01*
X54984377Y15318830D01*
X54959693Y15317968D01*
X54958768Y15317902D01*
X54923054Y15314032D01*
X54922087Y15313890D01*
X54887599Y15307440D01*
X54886607Y15307212D01*
X54853346Y15298182D01*
X54852346Y15297866D01*
X54820312Y15286256D01*
X54819326Y15285851D01*
X54788517Y15271661D01*
X54787567Y15271174D01*
X54757986Y15254404D01*
X54757090Y15253846D01*
X54728734Y15234496D01*
X54727909Y15233882D01*
X54700781Y15211952D01*
X54700036Y15211301D01*
X54681007Y15193295D01*
X54374400Y15370066D01*
X54681007Y15546837D01*
X54700036Y15528831D01*
G37*
X54700036Y15528831D02*
X54700781Y15528180D01*
X54727909Y15506250D01*
X54728734Y15505636D01*
X54757090Y15486286D01*
X54757986Y15485728D01*
X54787567Y15468958D01*
X54788517Y15468471D01*
X54819326Y15454281D01*
X54820312Y15453876D01*
X54852346Y15442266D01*
X54853346Y15441950D01*
X54886607Y15432920D01*
X54887599Y15432692D01*
X54922087Y15426242D01*
X54923054Y15426100D01*
X54958768Y15422230D01*
X54959693Y15422164D01*
X54984377Y15421302D01*
X54984377Y15318830D01*
X54959693Y15317968D01*
X54958768Y15317902D01*
X54923054Y15314032D01*
X54922087Y15313890D01*
X54887599Y15307440D01*
X54886607Y15307212D01*
X54853346Y15298182D01*
X54852346Y15297866D01*
X54820312Y15286256D01*
X54819326Y15285851D01*
X54788517Y15271661D01*
X54787567Y15271174D01*
X54757986Y15254404D01*
X54757090Y15253846D01*
X54728734Y15234496D01*
X54727909Y15233882D01*
X54700781Y15211952D01*
X54700036Y15211301D01*
X54681007Y15193295D01*
X54374400Y15370066D01*
X54681007Y15546837D01*
X54700036Y15528831D01*
G36*
X37176771Y16195467D02*
G01*
X37158765Y16176438D01*
X37158114Y16175693D01*
X37136184Y16148565D01*
X37135570Y16147740D01*
X37116220Y16119384D01*
X37115662Y16118488D01*
X37098892Y16088907D01*
X37098405Y16087957D01*
X37084215Y16057148D01*
X37083810Y16056162D01*
X37072200Y16024128D01*
X37071884Y16023128D01*
X37062854Y15989867D01*
X37062626Y15988875D01*
X37056176Y15954387D01*
X37056034Y15953420D01*
X37052164Y15917706D01*
X37052098Y15916781D01*
X37051236Y15892097D01*
X36948764Y15892097D01*
X36947902Y15916781D01*
X36947836Y15917706D01*
X36943966Y15953420D01*
X36943824Y15954387D01*
X36937374Y15988875D01*
X36937146Y15989867D01*
X36928116Y16023128D01*
X36927800Y16024128D01*
X36916190Y16056162D01*
X36915785Y16057148D01*
X36901595Y16087957D01*
X36901108Y16088907D01*
X36884338Y16118488D01*
X36883780Y16119384D01*
X36864430Y16147740D01*
X36863816Y16148565D01*
X36841886Y16175693D01*
X36841235Y16176438D01*
X36823229Y16195467D01*
X37000000Y16502074D01*
X37176771Y16195467D01*
G37*
X37176771Y16195467D02*
X37158765Y16176438D01*
X37158114Y16175693D01*
X37136184Y16148565D01*
X37135570Y16147740D01*
X37116220Y16119384D01*
X37115662Y16118488D01*
X37098892Y16088907D01*
X37098405Y16087957D01*
X37084215Y16057148D01*
X37083810Y16056162D01*
X37072200Y16024128D01*
X37071884Y16023128D01*
X37062854Y15989867D01*
X37062626Y15988875D01*
X37056176Y15954387D01*
X37056034Y15953420D01*
X37052164Y15917706D01*
X37052098Y15916781D01*
X37051236Y15892097D01*
X36948764Y15892097D01*
X36947902Y15916781D01*
X36947836Y15917706D01*
X36943966Y15953420D01*
X36943824Y15954387D01*
X36937374Y15988875D01*
X36937146Y15989867D01*
X36928116Y16023128D01*
X36927800Y16024128D01*
X36916190Y16056162D01*
X36915785Y16057148D01*
X36901595Y16087957D01*
X36901108Y16088907D01*
X36884338Y16118488D01*
X36883780Y16119384D01*
X36864430Y16147740D01*
X36863816Y16148565D01*
X36841886Y16175693D01*
X36841235Y16176438D01*
X36823229Y16195467D01*
X37000000Y16502074D01*
X37176771Y16195467D01*
G36*
X18538516Y36111573D02*
G01*
X18232116Y35934921D01*
X18214315Y35952595D01*
X18214036Y35952864D01*
X18190558Y35974794D01*
X18190219Y35975100D01*
X18167949Y35994450D01*
X18167529Y35994799D01*
X18146466Y36011569D01*
X18145940Y36011966D01*
X18126084Y36026156D01*
X18125412Y36026604D01*
X18106764Y36038214D01*
X18105891Y36038711D01*
X18088450Y36047741D01*
X18087301Y36048265D01*
X18071068Y36054715D01*
X18069546Y36055212D01*
X18054520Y36059082D01*
X18052532Y36059428D01*
X18050234Y36059643D01*
X18050234Y36163503D01*
X18052532Y36163718D01*
X18054520Y36164064D01*
X18069546Y36167934D01*
X18071068Y36168431D01*
X18087301Y36174881D01*
X18088450Y36175405D01*
X18105891Y36184435D01*
X18106764Y36184932D01*
X18125412Y36196542D01*
X18126084Y36196990D01*
X18145940Y36211180D01*
X18146466Y36211577D01*
X18167529Y36228347D01*
X18167949Y36228696D01*
X18190219Y36248046D01*
X18190558Y36248352D01*
X18214036Y36270282D01*
X18214315Y36270551D01*
X18232116Y36288225D01*
X18538516Y36111573D01*
G37*
X18538516Y36111573D02*
X18232116Y35934921D01*
X18214315Y35952595D01*
X18214036Y35952864D01*
X18190558Y35974794D01*
X18190219Y35975100D01*
X18167949Y35994450D01*
X18167529Y35994799D01*
X18146466Y36011569D01*
X18145940Y36011966D01*
X18126084Y36026156D01*
X18125412Y36026604D01*
X18106764Y36038214D01*
X18105891Y36038711D01*
X18088450Y36047741D01*
X18087301Y36048265D01*
X18071068Y36054715D01*
X18069546Y36055212D01*
X18054520Y36059082D01*
X18052532Y36059428D01*
X18050234Y36059643D01*
X18050234Y36163503D01*
X18052532Y36163718D01*
X18054520Y36164064D01*
X18069546Y36167934D01*
X18071068Y36168431D01*
X18087301Y36174881D01*
X18088450Y36175405D01*
X18105891Y36184435D01*
X18106764Y36184932D01*
X18125412Y36196542D01*
X18126084Y36196990D01*
X18145940Y36211180D01*
X18146466Y36211577D01*
X18167529Y36228347D01*
X18167949Y36228696D01*
X18190219Y36248046D01*
X18190558Y36248352D01*
X18214036Y36270282D01*
X18214315Y36270551D01*
X18232116Y36288225D01*
X18538516Y36111573D01*
G36*
X18002592Y36669734D02*
G01*
X17984918Y36651934D01*
X17984649Y36651655D01*
X17962719Y36628177D01*
X17962413Y36627838D01*
X17943063Y36605568D01*
X17942714Y36605148D01*
X17925944Y36584085D01*
X17925547Y36583559D01*
X17911357Y36563703D01*
X17910909Y36563031D01*
X17899299Y36544383D01*
X17898802Y36543511D01*
X17889771Y36526070D01*
X17889246Y36524919D01*
X17882797Y36508686D01*
X17882301Y36507165D01*
X17878431Y36492139D01*
X17878085Y36490151D01*
X17877870Y36487852D01*
X17774010Y36487852D01*
X17773795Y36490151D01*
X17773449Y36492139D01*
X17769579Y36507165D01*
X17769082Y36508687D01*
X17762632Y36524920D01*
X17762108Y36526069D01*
X17753078Y36543510D01*
X17752581Y36544383D01*
X17740971Y36563031D01*
X17740523Y36563703D01*
X17726333Y36583559D01*
X17725935Y36584086D01*
X17709164Y36605149D01*
X17708816Y36605567D01*
X17689467Y36627837D01*
X17689161Y36628177D01*
X17667231Y36651655D01*
X17666962Y36651934D01*
X17649288Y36669734D01*
X17825940Y36976134D01*
X18002592Y36669734D01*
G37*
X18002592Y36669734D02*
X17984918Y36651934D01*
X17984649Y36651655D01*
X17962719Y36628177D01*
X17962413Y36627838D01*
X17943063Y36605568D01*
X17942714Y36605148D01*
X17925944Y36584085D01*
X17925547Y36583559D01*
X17911357Y36563703D01*
X17910909Y36563031D01*
X17899299Y36544383D01*
X17898802Y36543511D01*
X17889771Y36526070D01*
X17889246Y36524919D01*
X17882797Y36508686D01*
X17882301Y36507165D01*
X17878431Y36492139D01*
X17878085Y36490151D01*
X17877870Y36487852D01*
X17774010Y36487852D01*
X17773795Y36490151D01*
X17773449Y36492139D01*
X17769579Y36507165D01*
X17769082Y36508687D01*
X17762632Y36524920D01*
X17762108Y36526069D01*
X17753078Y36543510D01*
X17752581Y36544383D01*
X17740971Y36563031D01*
X17740523Y36563703D01*
X17726333Y36583559D01*
X17725935Y36584086D01*
X17709164Y36605149D01*
X17708816Y36605567D01*
X17689467Y36627837D01*
X17689161Y36628177D01*
X17667231Y36651655D01*
X17666962Y36651934D01*
X17649288Y36669734D01*
X17825940Y36976134D01*
X18002592Y36669734D01*
G36*
X37987440Y16127448D02*
G01*
X37961253Y16126725D01*
X37960265Y16126659D01*
X37925575Y16122983D01*
X37924557Y16122834D01*
X37890824Y16116466D01*
X37889797Y16116227D01*
X37857022Y16107168D01*
X37856005Y16106841D01*
X37824186Y16095090D01*
X37823203Y16094679D01*
X37792342Y16080237D01*
X37791411Y16079753D01*
X37761507Y16062619D01*
X37760645Y16062078D01*
X37731698Y16042252D01*
X37730914Y16041670D01*
X37702923Y16019153D01*
X37702221Y16018545D01*
X37684158Y16001701D01*
X37611700Y16074159D01*
X37628544Y16092223D01*
X37629151Y16092923D01*
X37651669Y16120913D01*
X37652252Y16121698D01*
X37672077Y16150646D01*
X37672618Y16151508D01*
X37689752Y16181412D01*
X37690236Y16182343D01*
X37704679Y16213204D01*
X37705090Y16214188D01*
X37716840Y16246007D01*
X37717167Y16247023D01*
X37726226Y16279798D01*
X37726465Y16280825D01*
X37732833Y16314558D01*
X37732982Y16315576D01*
X37736658Y16350266D01*
X37736724Y16351253D01*
X37737448Y16377440D01*
X38079248Y16469248D01*
X37987440Y16127448D01*
G37*
X37987440Y16127448D02*
X37961253Y16126725D01*
X37960265Y16126659D01*
X37925575Y16122983D01*
X37924557Y16122834D01*
X37890824Y16116466D01*
X37889797Y16116227D01*
X37857022Y16107168D01*
X37856005Y16106841D01*
X37824186Y16095090D01*
X37823203Y16094679D01*
X37792342Y16080237D01*
X37791411Y16079753D01*
X37761507Y16062619D01*
X37760645Y16062078D01*
X37731698Y16042252D01*
X37730914Y16041670D01*
X37702923Y16019153D01*
X37702221Y16018545D01*
X37684158Y16001701D01*
X37611700Y16074159D01*
X37628544Y16092223D01*
X37629151Y16092923D01*
X37651669Y16120913D01*
X37652252Y16121698D01*
X37672077Y16150646D01*
X37672618Y16151508D01*
X37689752Y16181412D01*
X37690236Y16182343D01*
X37704679Y16213204D01*
X37705090Y16214188D01*
X37716840Y16246007D01*
X37717167Y16247023D01*
X37726226Y16279798D01*
X37726465Y16280825D01*
X37732833Y16314558D01*
X37732982Y16315576D01*
X37736658Y16350266D01*
X37736724Y16351253D01*
X37737448Y16377440D01*
X38079248Y16469248D01*
X37987440Y16127448D01*
G36*
X48643562Y17558450D02*
G01*
X48644285Y17532264D01*
X48644351Y17531276D01*
X48648027Y17496586D01*
X48648176Y17495568D01*
X48654544Y17461835D01*
X48654783Y17460808D01*
X48663842Y17428033D01*
X48664169Y17427016D01*
X48675920Y17395197D01*
X48676331Y17394214D01*
X48690773Y17363353D01*
X48691257Y17362422D01*
X48708391Y17332518D01*
X48708932Y17331656D01*
X48728758Y17302708D01*
X48729341Y17301923D01*
X48751858Y17273933D01*
X48752465Y17273233D01*
X48769310Y17255169D01*
X48696851Y17182710D01*
X48678787Y17199555D01*
X48678087Y17200162D01*
X48650097Y17222679D01*
X48649312Y17223262D01*
X48620364Y17243088D01*
X48619502Y17243629D01*
X48589598Y17260763D01*
X48588667Y17261247D01*
X48557806Y17275689D01*
X48556823Y17276100D01*
X48525004Y17287851D01*
X48523987Y17288178D01*
X48491212Y17297237D01*
X48490185Y17297476D01*
X48456452Y17303844D01*
X48455434Y17303993D01*
X48420744Y17307669D01*
X48419756Y17307735D01*
X48393570Y17308458D01*
X48301762Y17650258D01*
X48643562Y17558450D01*
G37*
X48643562Y17558450D02*
X48644285Y17532264D01*
X48644351Y17531276D01*
X48648027Y17496586D01*
X48648176Y17495568D01*
X48654544Y17461835D01*
X48654783Y17460808D01*
X48663842Y17428033D01*
X48664169Y17427016D01*
X48675920Y17395197D01*
X48676331Y17394214D01*
X48690773Y17363353D01*
X48691257Y17362422D01*
X48708391Y17332518D01*
X48708932Y17331656D01*
X48728758Y17302708D01*
X48729341Y17301923D01*
X48751858Y17273933D01*
X48752465Y17273233D01*
X48769310Y17255169D01*
X48696851Y17182710D01*
X48678787Y17199555D01*
X48678087Y17200162D01*
X48650097Y17222679D01*
X48649312Y17223262D01*
X48620364Y17243088D01*
X48619502Y17243629D01*
X48589598Y17260763D01*
X48588667Y17261247D01*
X48557806Y17275689D01*
X48556823Y17276100D01*
X48525004Y17287851D01*
X48523987Y17288178D01*
X48491212Y17297237D01*
X48490185Y17297476D01*
X48456452Y17303844D01*
X48455434Y17303993D01*
X48420744Y17307669D01*
X48419756Y17307735D01*
X48393570Y17308458D01*
X48301762Y17650258D01*
X48643562Y17558450D01*
G36*
X51287440Y17327448D02*
G01*
X51261253Y17326725D01*
X51260265Y17326659D01*
X51225575Y17322983D01*
X51224557Y17322834D01*
X51190824Y17316466D01*
X51189797Y17316227D01*
X51157022Y17307168D01*
X51156005Y17306841D01*
X51124186Y17295090D01*
X51123203Y17294679D01*
X51092342Y17280237D01*
X51091411Y17279753D01*
X51061507Y17262619D01*
X51060645Y17262078D01*
X51031698Y17242252D01*
X51030914Y17241670D01*
X51002923Y17219153D01*
X51002221Y17218545D01*
X50984158Y17201701D01*
X50911700Y17274159D01*
X50928544Y17292223D01*
X50929151Y17292923D01*
X50951669Y17320913D01*
X50952252Y17321698D01*
X50972077Y17350646D01*
X50972618Y17351508D01*
X50989752Y17381412D01*
X50990236Y17382343D01*
X51004679Y17413204D01*
X51005090Y17414188D01*
X51016840Y17446007D01*
X51017167Y17447023D01*
X51026226Y17479798D01*
X51026465Y17480825D01*
X51032833Y17514558D01*
X51032982Y17515576D01*
X51036658Y17550266D01*
X51036724Y17551253D01*
X51037448Y17577440D01*
X51379248Y17669248D01*
X51287440Y17327448D01*
G37*
X51287440Y17327448D02*
X51261253Y17326725D01*
X51260265Y17326659D01*
X51225575Y17322983D01*
X51224557Y17322834D01*
X51190824Y17316466D01*
X51189797Y17316227D01*
X51157022Y17307168D01*
X51156005Y17306841D01*
X51124186Y17295090D01*
X51123203Y17294679D01*
X51092342Y17280237D01*
X51091411Y17279753D01*
X51061507Y17262619D01*
X51060645Y17262078D01*
X51031698Y17242252D01*
X51030914Y17241670D01*
X51002923Y17219153D01*
X51002221Y17218545D01*
X50984158Y17201701D01*
X50911700Y17274159D01*
X50928544Y17292223D01*
X50929151Y17292923D01*
X50951669Y17320913D01*
X50952252Y17321698D01*
X50972077Y17350646D01*
X50972618Y17351508D01*
X50989752Y17381412D01*
X50990236Y17382343D01*
X51004679Y17413204D01*
X51005090Y17414188D01*
X51016840Y17446007D01*
X51017167Y17447023D01*
X51026226Y17479798D01*
X51026465Y17480825D01*
X51032833Y17514558D01*
X51032982Y17515576D01*
X51036658Y17550266D01*
X51036724Y17551253D01*
X51037448Y17577440D01*
X51379248Y17669248D01*
X51287440Y17327448D01*
G36*
X16612074Y24640000D02*
G01*
X16305467Y24463229D01*
X16286437Y24481235D01*
X16285692Y24481886D01*
X16258564Y24503816D01*
X16257739Y24504430D01*
X16229383Y24523780D01*
X16228487Y24524338D01*
X16198906Y24541108D01*
X16197956Y24541595D01*
X16167148Y24555785D01*
X16166162Y24556190D01*
X16134127Y24567800D01*
X16133127Y24568116D01*
X16099866Y24577146D01*
X16098874Y24577374D01*
X16064386Y24583824D01*
X16063419Y24583966D01*
X16027705Y24587836D01*
X16026780Y24587902D01*
X16002097Y24588764D01*
X16002097Y24691236D01*
X16026780Y24692098D01*
X16027705Y24692164D01*
X16063419Y24696034D01*
X16064386Y24696176D01*
X16098874Y24702626D01*
X16099866Y24702854D01*
X16133127Y24711884D01*
X16134127Y24712200D01*
X16166162Y24723810D01*
X16167148Y24724215D01*
X16197956Y24738405D01*
X16198906Y24738892D01*
X16228487Y24755662D01*
X16229383Y24756220D01*
X16257739Y24775570D01*
X16258564Y24776184D01*
X16285692Y24798114D01*
X16286437Y24798765D01*
X16305467Y24816771D01*
X16612074Y24640000D01*
G37*
X16612074Y24640000D02*
X16305467Y24463229D01*
X16286437Y24481235D01*
X16285692Y24481886D01*
X16258564Y24503816D01*
X16257739Y24504430D01*
X16229383Y24523780D01*
X16228487Y24524338D01*
X16198906Y24541108D01*
X16197956Y24541595D01*
X16167148Y24555785D01*
X16166162Y24556190D01*
X16134127Y24567800D01*
X16133127Y24568116D01*
X16099866Y24577146D01*
X16098874Y24577374D01*
X16064386Y24583824D01*
X16063419Y24583966D01*
X16027705Y24587836D01*
X16026780Y24587902D01*
X16002097Y24588764D01*
X16002097Y24691236D01*
X16026780Y24692098D01*
X16027705Y24692164D01*
X16063419Y24696034D01*
X16064386Y24696176D01*
X16098874Y24702626D01*
X16099866Y24702854D01*
X16133127Y24711884D01*
X16134127Y24712200D01*
X16166162Y24723810D01*
X16167148Y24724215D01*
X16197956Y24738405D01*
X16198906Y24738892D01*
X16228487Y24755662D01*
X16229383Y24756220D01*
X16257739Y24775570D01*
X16258564Y24776184D01*
X16285692Y24798114D01*
X16286437Y24798765D01*
X16305467Y24816771D01*
X16612074Y24640000D01*
G36*
X17676771Y34445467D02*
G01*
X17658765Y34426438D01*
X17658114Y34425693D01*
X17636184Y34398565D01*
X17635570Y34397740D01*
X17616220Y34369384D01*
X17615662Y34368488D01*
X17598892Y34338907D01*
X17598405Y34337957D01*
X17584215Y34307148D01*
X17583810Y34306162D01*
X17572200Y34274128D01*
X17571884Y34273128D01*
X17562854Y34239867D01*
X17562626Y34238875D01*
X17556176Y34204387D01*
X17556034Y34203420D01*
X17552164Y34167706D01*
X17552098Y34166781D01*
X17551236Y34142097D01*
X17448764Y34142097D01*
X17447902Y34166781D01*
X17447836Y34167706D01*
X17443966Y34203420D01*
X17443824Y34204387D01*
X17437374Y34238875D01*
X17437146Y34239867D01*
X17428116Y34273128D01*
X17427800Y34274128D01*
X17416190Y34306162D01*
X17415785Y34307148D01*
X17401595Y34337957D01*
X17401108Y34338907D01*
X17384338Y34368488D01*
X17383780Y34369384D01*
X17364430Y34397740D01*
X17363816Y34398565D01*
X17341886Y34425693D01*
X17341235Y34426438D01*
X17323229Y34445467D01*
X17500000Y34752074D01*
X17676771Y34445467D01*
G37*
X17676771Y34445467D02*
X17658765Y34426438D01*
X17658114Y34425693D01*
X17636184Y34398565D01*
X17635570Y34397740D01*
X17616220Y34369384D01*
X17615662Y34368488D01*
X17598892Y34338907D01*
X17598405Y34337957D01*
X17584215Y34307148D01*
X17583810Y34306162D01*
X17572200Y34274128D01*
X17571884Y34273128D01*
X17562854Y34239867D01*
X17562626Y34238875D01*
X17556176Y34204387D01*
X17556034Y34203420D01*
X17552164Y34167706D01*
X17552098Y34166781D01*
X17551236Y34142097D01*
X17448764Y34142097D01*
X17447902Y34166781D01*
X17447836Y34167706D01*
X17443966Y34203420D01*
X17443824Y34204387D01*
X17437374Y34238875D01*
X17437146Y34239867D01*
X17428116Y34273128D01*
X17427800Y34274128D01*
X17416190Y34306162D01*
X17415785Y34307148D01*
X17401595Y34337957D01*
X17401108Y34338907D01*
X17384338Y34368488D01*
X17383780Y34369384D01*
X17364430Y34397740D01*
X17363816Y34398565D01*
X17341886Y34425693D01*
X17341235Y34426438D01*
X17323229Y34445467D01*
X17500000Y34752074D01*
X17676771Y34445467D01*
G36*
X19301188Y24010705D02*
G01*
X19302490Y24009693D01*
X19313156Y24002468D01*
X19314405Y24001723D01*
X19326626Y23995348D01*
X19327773Y23994821D01*
X19341550Y23989296D01*
X19342573Y23988935D01*
X19357906Y23984260D01*
X19358805Y23984022D01*
X19375694Y23980197D01*
X19376477Y23980045D01*
X19394922Y23977070D01*
X19395602Y23976979D01*
X19415603Y23974854D01*
X19416195Y23974805D01*
X19437752Y23973530D01*
X19438268Y23973510D01*
X19448915Y23973314D01*
X19448915Y23698253D01*
X19438269Y23698057D01*
X19437752Y23698037D01*
X19416195Y23696762D01*
X19415603Y23696713D01*
X19395602Y23694588D01*
X19394922Y23694497D01*
X19376477Y23691522D01*
X19375694Y23691370D01*
X19358805Y23687545D01*
X19357906Y23687307D01*
X19342573Y23682632D01*
X19341550Y23682271D01*
X19327773Y23676746D01*
X19326626Y23676219D01*
X19314405Y23669844D01*
X19313156Y23669099D01*
X19302490Y23661874D01*
X19301188Y23660862D01*
X19298923Y23658854D01*
X18992041Y23835783D01*
X19298923Y24012713D01*
X19301188Y24010705D01*
G37*
X19301188Y24010705D02*
X19302490Y24009693D01*
X19313156Y24002468D01*
X19314405Y24001723D01*
X19326626Y23995348D01*
X19327773Y23994821D01*
X19341550Y23989296D01*
X19342573Y23988935D01*
X19357906Y23984260D01*
X19358805Y23984022D01*
X19375694Y23980197D01*
X19376477Y23980045D01*
X19394922Y23977070D01*
X19395602Y23976979D01*
X19415603Y23974854D01*
X19416195Y23974805D01*
X19437752Y23973530D01*
X19438268Y23973510D01*
X19448915Y23973314D01*
X19448915Y23698253D01*
X19438269Y23698057D01*
X19437752Y23698037D01*
X19416195Y23696762D01*
X19415603Y23696713D01*
X19395602Y23694588D01*
X19394922Y23694497D01*
X19376477Y23691522D01*
X19375694Y23691370D01*
X19358805Y23687545D01*
X19357906Y23687307D01*
X19342573Y23682632D01*
X19341550Y23682271D01*
X19327773Y23676746D01*
X19326626Y23676219D01*
X19314405Y23669844D01*
X19313156Y23669099D01*
X19302490Y23661874D01*
X19301188Y23660862D01*
X19298923Y23658854D01*
X18992041Y23835783D01*
X19298923Y24012713D01*
X19301188Y24010705D01*
G36*
X35933107Y46870647D02*
G01*
X35872020Y46805126D01*
X35871411Y46804424D01*
X35809378Y46727266D01*
X35808795Y46726480D01*
X35754177Y46646654D01*
X35753635Y46645789D01*
X35706433Y46563296D01*
X35705950Y46562364D01*
X35666164Y46477202D01*
X35665754Y46476219D01*
X35633383Y46388389D01*
X35633056Y46387373D01*
X35608100Y46296876D01*
X35607862Y46295850D01*
X35590322Y46202685D01*
X35590173Y46201669D01*
X35580048Y46105836D01*
X35579983Y46104851D01*
X35577534Y46015810D01*
X34795847Y45805847D01*
X35005810Y46587534D01*
X35094850Y46589984D01*
X35095835Y46590049D01*
X35191668Y46600174D01*
X35192684Y46600323D01*
X35285849Y46617863D01*
X35286875Y46618101D01*
X35377372Y46643057D01*
X35378388Y46643384D01*
X35466218Y46675755D01*
X35467201Y46676165D01*
X35552363Y46715951D01*
X35553295Y46716434D01*
X35635788Y46763636D01*
X35636653Y46764178D01*
X35716479Y46818796D01*
X35717265Y46819379D01*
X35794423Y46881412D01*
X35795125Y46882021D01*
X35860647Y46943107D01*
X35933107Y46870647D01*
G37*
X35933107Y46870647D02*
X35872020Y46805126D01*
X35871411Y46804424D01*
X35809378Y46727266D01*
X35808795Y46726480D01*
X35754177Y46646654D01*
X35753635Y46645789D01*
X35706433Y46563296D01*
X35705950Y46562364D01*
X35666164Y46477202D01*
X35665754Y46476219D01*
X35633383Y46388389D01*
X35633056Y46387373D01*
X35608100Y46296876D01*
X35607862Y46295850D01*
X35590322Y46202685D01*
X35590173Y46201669D01*
X35580048Y46105836D01*
X35579983Y46104851D01*
X35577534Y46015810D01*
X34795847Y45805847D01*
X35005810Y46587534D01*
X35094850Y46589984D01*
X35095835Y46590049D01*
X35191668Y46600174D01*
X35192684Y46600323D01*
X35285849Y46617863D01*
X35286875Y46618101D01*
X35377372Y46643057D01*
X35378388Y46643384D01*
X35466218Y46675755D01*
X35467201Y46676165D01*
X35552363Y46715951D01*
X35553295Y46716434D01*
X35635788Y46763636D01*
X35636653Y46764178D01*
X35716479Y46818796D01*
X35717265Y46819379D01*
X35794423Y46881412D01*
X35795125Y46882021D01*
X35860647Y46943107D01*
X35933107Y46870647D01*
G36*
X38812074Y48390000D02*
G01*
X38505467Y48213229D01*
X38486437Y48231235D01*
X38485692Y48231886D01*
X38458564Y48253816D01*
X38457739Y48254430D01*
X38429383Y48273780D01*
X38428487Y48274338D01*
X38398906Y48291108D01*
X38397956Y48291595D01*
X38367148Y48305785D01*
X38366162Y48306190D01*
X38334127Y48317800D01*
X38333127Y48318116D01*
X38299866Y48327146D01*
X38298874Y48327374D01*
X38264386Y48333824D01*
X38263419Y48333966D01*
X38227705Y48337836D01*
X38226780Y48337902D01*
X38202097Y48338764D01*
X38202097Y48441236D01*
X38226780Y48442098D01*
X38227705Y48442164D01*
X38263419Y48446034D01*
X38264386Y48446176D01*
X38298874Y48452626D01*
X38299866Y48452854D01*
X38333127Y48461884D01*
X38334127Y48462200D01*
X38366162Y48473810D01*
X38367148Y48474215D01*
X38397956Y48488405D01*
X38398906Y48488892D01*
X38428487Y48505662D01*
X38429383Y48506220D01*
X38457739Y48525570D01*
X38458564Y48526184D01*
X38485692Y48548114D01*
X38486437Y48548765D01*
X38505467Y48566771D01*
X38812074Y48390000D01*
G37*
X38812074Y48390000D02*
X38505467Y48213229D01*
X38486437Y48231235D01*
X38485692Y48231886D01*
X38458564Y48253816D01*
X38457739Y48254430D01*
X38429383Y48273780D01*
X38428487Y48274338D01*
X38398906Y48291108D01*
X38397956Y48291595D01*
X38367148Y48305785D01*
X38366162Y48306190D01*
X38334127Y48317800D01*
X38333127Y48318116D01*
X38299866Y48327146D01*
X38298874Y48327374D01*
X38264386Y48333824D01*
X38263419Y48333966D01*
X38227705Y48337836D01*
X38226780Y48337902D01*
X38202097Y48338764D01*
X38202097Y48441236D01*
X38226780Y48442098D01*
X38227705Y48442164D01*
X38263419Y48446034D01*
X38264386Y48446176D01*
X38298874Y48452626D01*
X38299866Y48452854D01*
X38333127Y48461884D01*
X38334127Y48462200D01*
X38366162Y48473810D01*
X38367148Y48474215D01*
X38397956Y48488405D01*
X38398906Y48488892D01*
X38428487Y48505662D01*
X38429383Y48506220D01*
X38457739Y48525570D01*
X38458564Y48526184D01*
X38485692Y48548114D01*
X38486437Y48548765D01*
X38505467Y48566771D01*
X38812074Y48390000D01*
G36*
X49385396Y38916675D02*
G01*
X49386141Y38916024D01*
X49413269Y38894094D01*
X49414094Y38893480D01*
X49442450Y38874130D01*
X49443346Y38873572D01*
X49472927Y38856802D01*
X49473877Y38856315D01*
X49504686Y38842125D01*
X49505672Y38841720D01*
X49537706Y38830110D01*
X49538706Y38829794D01*
X49571967Y38820765D01*
X49572959Y38820538D01*
X49607447Y38814087D01*
X49608414Y38813944D01*
X49644128Y38810074D01*
X49645053Y38810008D01*
X49669737Y38809146D01*
X49669737Y38706674D01*
X49645053Y38705812D01*
X49644128Y38705746D01*
X49608414Y38701876D01*
X49607447Y38701734D01*
X49572959Y38695284D01*
X49571967Y38695056D01*
X49538706Y38686026D01*
X49537706Y38685710D01*
X49505672Y38674100D01*
X49504686Y38673695D01*
X49473877Y38659505D01*
X49472927Y38659018D01*
X49443346Y38642249D01*
X49442450Y38641691D01*
X49414094Y38622340D01*
X49413269Y38621726D01*
X49386141Y38599796D01*
X49385396Y38599145D01*
X49366367Y38581139D01*
X49059760Y38757910D01*
X49366367Y38934681D01*
X49385396Y38916675D01*
G37*
X49385396Y38916675D02*
X49386141Y38916024D01*
X49413269Y38894094D01*
X49414094Y38893480D01*
X49442450Y38874130D01*
X49443346Y38873572D01*
X49472927Y38856802D01*
X49473877Y38856315D01*
X49504686Y38842125D01*
X49505672Y38841720D01*
X49537706Y38830110D01*
X49538706Y38829794D01*
X49571967Y38820765D01*
X49572959Y38820538D01*
X49607447Y38814087D01*
X49608414Y38813944D01*
X49644128Y38810074D01*
X49645053Y38810008D01*
X49669737Y38809146D01*
X49669737Y38706674D01*
X49645053Y38705812D01*
X49644128Y38705746D01*
X49608414Y38701876D01*
X49607447Y38701734D01*
X49572959Y38695284D01*
X49571967Y38695056D01*
X49538706Y38686026D01*
X49537706Y38685710D01*
X49505672Y38674100D01*
X49504686Y38673695D01*
X49473877Y38659505D01*
X49472927Y38659018D01*
X49443346Y38642249D01*
X49442450Y38641691D01*
X49414094Y38622340D01*
X49413269Y38621726D01*
X49386141Y38599796D01*
X49385396Y38599145D01*
X49366367Y38581139D01*
X49059760Y38757910D01*
X49366367Y38934681D01*
X49385396Y38916675D01*
G36*
X50214920Y38879568D02*
G01*
X49907908Y38702564D01*
X49887613Y38719996D01*
X49885823Y38721281D01*
X49855044Y38739561D01*
X49853125Y38740493D01*
X49818687Y38753760D01*
X49816810Y38754321D01*
X49778712Y38762575D01*
X49777006Y38762825D01*
X49735249Y38766066D01*
X49733771Y38766094D01*
X49688354Y38764322D01*
X49687109Y38764212D01*
X49638032Y38757426D01*
X49636999Y38757240D01*
X49584263Y38745441D01*
X49583408Y38745218D01*
X49527012Y38728407D01*
X49526302Y38728172D01*
X49483285Y38712538D01*
X49483285Y38812862D01*
X49535421Y38834050D01*
X49535709Y38834172D01*
X49592105Y38858723D01*
X49592423Y38858866D01*
X49645159Y38883565D01*
X49645508Y38883735D01*
X49694585Y38908581D01*
X49694972Y38908785D01*
X49740389Y38933777D01*
X49740816Y38934024D01*
X49782573Y38959163D01*
X49783046Y38959462D01*
X49821144Y38984748D01*
X49821666Y38985113D01*
X49856104Y39010546D01*
X49856676Y39010995D01*
X49887455Y39036575D01*
X49888078Y39037128D01*
X49908323Y39056333D01*
X50214920Y38879568D01*
G37*
X50214920Y38879568D02*
X49907908Y38702564D01*
X49887613Y38719996D01*
X49885823Y38721281D01*
X49855044Y38739561D01*
X49853125Y38740493D01*
X49818687Y38753760D01*
X49816810Y38754321D01*
X49778712Y38762575D01*
X49777006Y38762825D01*
X49735249Y38766066D01*
X49733771Y38766094D01*
X49688354Y38764322D01*
X49687109Y38764212D01*
X49638032Y38757426D01*
X49636999Y38757240D01*
X49584263Y38745441D01*
X49583408Y38745218D01*
X49527012Y38728407D01*
X49526302Y38728172D01*
X49483285Y38712538D01*
X49483285Y38812862D01*
X49535421Y38834050D01*
X49535709Y38834172D01*
X49592105Y38858723D01*
X49592423Y38858866D01*
X49645159Y38883565D01*
X49645508Y38883735D01*
X49694585Y38908581D01*
X49694972Y38908785D01*
X49740389Y38933777D01*
X49740816Y38934024D01*
X49782573Y38959163D01*
X49783046Y38959462D01*
X49821144Y38984748D01*
X49821666Y38985113D01*
X49856104Y39010546D01*
X49856676Y39010995D01*
X49887455Y39036575D01*
X49888078Y39037128D01*
X49908323Y39056333D01*
X50214920Y38879568D01*
M02*
