G04 #@! TF.GenerationSoftware,KiCad,Pcbnew,5.1.5-52549c5~86~ubuntu19.10.1*
G04 #@! TF.CreationDate,2020-04-19T19:19:03-07:00*
G04 #@! TF.ProjectId,artix7-pcie-v2,61727469-7837-42d7-9063-69652d76322e,rev?*
G04 #@! TF.SameCoordinates,PX69f4060PY6b00940*
G04 #@! TF.FileFunction,Paste,Top*
G04 #@! TF.FilePolarity,Positive*
%FSLAX46Y46*%
G04 Gerber Fmt 4.6, Leading zero omitted, Abs format (unit mm)*
G04 Created by KiCad (PCBNEW 5.1.5-52549c5~86~ubuntu19.10.1) date 2020-04-19 19:19:03*
%MOMM*%
%LPD*%
G04 APERTURE LIST*
%ADD10C,0.100000*%
%ADD11R,1.100000X1.100000*%
%ADD12R,0.400000X2.650000*%
%ADD13C,0.500000*%
%ADD14R,0.750000X0.850000*%
%ADD15R,0.900000X1.000000*%
G04 APERTURE END LIST*
D10*
G36*
X28311958Y10559290D02*
G01*
X28326276Y10557166D01*
X28340317Y10553649D01*
X28353946Y10548772D01*
X28367031Y10542583D01*
X28379447Y10535142D01*
X28391073Y10526519D01*
X28401798Y10516798D01*
X28411519Y10506073D01*
X28420142Y10494447D01*
X28427583Y10482031D01*
X28433772Y10468946D01*
X28438649Y10455317D01*
X28442166Y10441276D01*
X28444290Y10426958D01*
X28445000Y10412500D01*
X28445000Y10117500D01*
X28444290Y10103042D01*
X28442166Y10088724D01*
X28438649Y10074683D01*
X28433772Y10061054D01*
X28427583Y10047969D01*
X28420142Y10035553D01*
X28411519Y10023927D01*
X28401798Y10013202D01*
X28391073Y10003481D01*
X28379447Y9994858D01*
X28367031Y9987417D01*
X28353946Y9981228D01*
X28340317Y9976351D01*
X28326276Y9972834D01*
X28311958Y9970710D01*
X28297500Y9970000D01*
X27952500Y9970000D01*
X27938042Y9970710D01*
X27923724Y9972834D01*
X27909683Y9976351D01*
X27896054Y9981228D01*
X27882969Y9987417D01*
X27870553Y9994858D01*
X27858927Y10003481D01*
X27848202Y10013202D01*
X27838481Y10023927D01*
X27829858Y10035553D01*
X27822417Y10047969D01*
X27816228Y10061054D01*
X27811351Y10074683D01*
X27807834Y10088724D01*
X27805710Y10103042D01*
X27805000Y10117500D01*
X27805000Y10412500D01*
X27805710Y10426958D01*
X27807834Y10441276D01*
X27811351Y10455317D01*
X27816228Y10468946D01*
X27822417Y10482031D01*
X27829858Y10494447D01*
X27838481Y10506073D01*
X27848202Y10516798D01*
X27858927Y10526519D01*
X27870553Y10535142D01*
X27882969Y10542583D01*
X27896054Y10548772D01*
X27909683Y10553649D01*
X27923724Y10557166D01*
X27938042Y10559290D01*
X27952500Y10560000D01*
X28297500Y10560000D01*
X28311958Y10559290D01*
G37*
G36*
X28311958Y11529290D02*
G01*
X28326276Y11527166D01*
X28340317Y11523649D01*
X28353946Y11518772D01*
X28367031Y11512583D01*
X28379447Y11505142D01*
X28391073Y11496519D01*
X28401798Y11486798D01*
X28411519Y11476073D01*
X28420142Y11464447D01*
X28427583Y11452031D01*
X28433772Y11438946D01*
X28438649Y11425317D01*
X28442166Y11411276D01*
X28444290Y11396958D01*
X28445000Y11382500D01*
X28445000Y11087500D01*
X28444290Y11073042D01*
X28442166Y11058724D01*
X28438649Y11044683D01*
X28433772Y11031054D01*
X28427583Y11017969D01*
X28420142Y11005553D01*
X28411519Y10993927D01*
X28401798Y10983202D01*
X28391073Y10973481D01*
X28379447Y10964858D01*
X28367031Y10957417D01*
X28353946Y10951228D01*
X28340317Y10946351D01*
X28326276Y10942834D01*
X28311958Y10940710D01*
X28297500Y10940000D01*
X27952500Y10940000D01*
X27938042Y10940710D01*
X27923724Y10942834D01*
X27909683Y10946351D01*
X27896054Y10951228D01*
X27882969Y10957417D01*
X27870553Y10964858D01*
X27858927Y10973481D01*
X27848202Y10983202D01*
X27838481Y10993927D01*
X27829858Y11005553D01*
X27822417Y11017969D01*
X27816228Y11031054D01*
X27811351Y11044683D01*
X27807834Y11058724D01*
X27805710Y11073042D01*
X27805000Y11087500D01*
X27805000Y11382500D01*
X27805710Y11396958D01*
X27807834Y11411276D01*
X27811351Y11425317D01*
X27816228Y11438946D01*
X27822417Y11452031D01*
X27829858Y11464447D01*
X27838481Y11476073D01*
X27848202Y11486798D01*
X27858927Y11496519D01*
X27870553Y11505142D01*
X27882969Y11512583D01*
X27896054Y11518772D01*
X27909683Y11523649D01*
X27923724Y11527166D01*
X27938042Y11529290D01*
X27952500Y11530000D01*
X28297500Y11530000D01*
X28311958Y11529290D01*
G37*
G36*
X29561958Y10559290D02*
G01*
X29576276Y10557166D01*
X29590317Y10553649D01*
X29603946Y10548772D01*
X29617031Y10542583D01*
X29629447Y10535142D01*
X29641073Y10526519D01*
X29651798Y10516798D01*
X29661519Y10506073D01*
X29670142Y10494447D01*
X29677583Y10482031D01*
X29683772Y10468946D01*
X29688649Y10455317D01*
X29692166Y10441276D01*
X29694290Y10426958D01*
X29695000Y10412500D01*
X29695000Y10117500D01*
X29694290Y10103042D01*
X29692166Y10088724D01*
X29688649Y10074683D01*
X29683772Y10061054D01*
X29677583Y10047969D01*
X29670142Y10035553D01*
X29661519Y10023927D01*
X29651798Y10013202D01*
X29641073Y10003481D01*
X29629447Y9994858D01*
X29617031Y9987417D01*
X29603946Y9981228D01*
X29590317Y9976351D01*
X29576276Y9972834D01*
X29561958Y9970710D01*
X29547500Y9970000D01*
X29202500Y9970000D01*
X29188042Y9970710D01*
X29173724Y9972834D01*
X29159683Y9976351D01*
X29146054Y9981228D01*
X29132969Y9987417D01*
X29120553Y9994858D01*
X29108927Y10003481D01*
X29098202Y10013202D01*
X29088481Y10023927D01*
X29079858Y10035553D01*
X29072417Y10047969D01*
X29066228Y10061054D01*
X29061351Y10074683D01*
X29057834Y10088724D01*
X29055710Y10103042D01*
X29055000Y10117500D01*
X29055000Y10412500D01*
X29055710Y10426958D01*
X29057834Y10441276D01*
X29061351Y10455317D01*
X29066228Y10468946D01*
X29072417Y10482031D01*
X29079858Y10494447D01*
X29088481Y10506073D01*
X29098202Y10516798D01*
X29108927Y10526519D01*
X29120553Y10535142D01*
X29132969Y10542583D01*
X29146054Y10548772D01*
X29159683Y10553649D01*
X29173724Y10557166D01*
X29188042Y10559290D01*
X29202500Y10560000D01*
X29547500Y10560000D01*
X29561958Y10559290D01*
G37*
G36*
X29561958Y11529290D02*
G01*
X29576276Y11527166D01*
X29590317Y11523649D01*
X29603946Y11518772D01*
X29617031Y11512583D01*
X29629447Y11505142D01*
X29641073Y11496519D01*
X29651798Y11486798D01*
X29661519Y11476073D01*
X29670142Y11464447D01*
X29677583Y11452031D01*
X29683772Y11438946D01*
X29688649Y11425317D01*
X29692166Y11411276D01*
X29694290Y11396958D01*
X29695000Y11382500D01*
X29695000Y11087500D01*
X29694290Y11073042D01*
X29692166Y11058724D01*
X29688649Y11044683D01*
X29683772Y11031054D01*
X29677583Y11017969D01*
X29670142Y11005553D01*
X29661519Y10993927D01*
X29651798Y10983202D01*
X29641073Y10973481D01*
X29629447Y10964858D01*
X29617031Y10957417D01*
X29603946Y10951228D01*
X29590317Y10946351D01*
X29576276Y10942834D01*
X29561958Y10940710D01*
X29547500Y10940000D01*
X29202500Y10940000D01*
X29188042Y10940710D01*
X29173724Y10942834D01*
X29159683Y10946351D01*
X29146054Y10951228D01*
X29132969Y10957417D01*
X29120553Y10964858D01*
X29108927Y10973481D01*
X29098202Y10983202D01*
X29088481Y10993927D01*
X29079858Y11005553D01*
X29072417Y11017969D01*
X29066228Y11031054D01*
X29061351Y11044683D01*
X29057834Y11058724D01*
X29055710Y11073042D01*
X29055000Y11087500D01*
X29055000Y11382500D01*
X29055710Y11396958D01*
X29057834Y11411276D01*
X29061351Y11425317D01*
X29066228Y11438946D01*
X29072417Y11452031D01*
X29079858Y11464447D01*
X29088481Y11476073D01*
X29098202Y11486798D01*
X29108927Y11496519D01*
X29120553Y11505142D01*
X29132969Y11512583D01*
X29146054Y11518772D01*
X29159683Y11523649D01*
X29173724Y11527166D01*
X29188042Y11529290D01*
X29202500Y11530000D01*
X29547500Y11530000D01*
X29561958Y11529290D01*
G37*
G36*
X30811958Y10574290D02*
G01*
X30826276Y10572166D01*
X30840317Y10568649D01*
X30853946Y10563772D01*
X30867031Y10557583D01*
X30879447Y10550142D01*
X30891073Y10541519D01*
X30901798Y10531798D01*
X30911519Y10521073D01*
X30920142Y10509447D01*
X30927583Y10497031D01*
X30933772Y10483946D01*
X30938649Y10470317D01*
X30942166Y10456276D01*
X30944290Y10441958D01*
X30945000Y10427500D01*
X30945000Y10132500D01*
X30944290Y10118042D01*
X30942166Y10103724D01*
X30938649Y10089683D01*
X30933772Y10076054D01*
X30927583Y10062969D01*
X30920142Y10050553D01*
X30911519Y10038927D01*
X30901798Y10028202D01*
X30891073Y10018481D01*
X30879447Y10009858D01*
X30867031Y10002417D01*
X30853946Y9996228D01*
X30840317Y9991351D01*
X30826276Y9987834D01*
X30811958Y9985710D01*
X30797500Y9985000D01*
X30452500Y9985000D01*
X30438042Y9985710D01*
X30423724Y9987834D01*
X30409683Y9991351D01*
X30396054Y9996228D01*
X30382969Y10002417D01*
X30370553Y10009858D01*
X30358927Y10018481D01*
X30348202Y10028202D01*
X30338481Y10038927D01*
X30329858Y10050553D01*
X30322417Y10062969D01*
X30316228Y10076054D01*
X30311351Y10089683D01*
X30307834Y10103724D01*
X30305710Y10118042D01*
X30305000Y10132500D01*
X30305000Y10427500D01*
X30305710Y10441958D01*
X30307834Y10456276D01*
X30311351Y10470317D01*
X30316228Y10483946D01*
X30322417Y10497031D01*
X30329858Y10509447D01*
X30338481Y10521073D01*
X30348202Y10531798D01*
X30358927Y10541519D01*
X30370553Y10550142D01*
X30382969Y10557583D01*
X30396054Y10563772D01*
X30409683Y10568649D01*
X30423724Y10572166D01*
X30438042Y10574290D01*
X30452500Y10575000D01*
X30797500Y10575000D01*
X30811958Y10574290D01*
G37*
G36*
X30811958Y11544290D02*
G01*
X30826276Y11542166D01*
X30840317Y11538649D01*
X30853946Y11533772D01*
X30867031Y11527583D01*
X30879447Y11520142D01*
X30891073Y11511519D01*
X30901798Y11501798D01*
X30911519Y11491073D01*
X30920142Y11479447D01*
X30927583Y11467031D01*
X30933772Y11453946D01*
X30938649Y11440317D01*
X30942166Y11426276D01*
X30944290Y11411958D01*
X30945000Y11397500D01*
X30945000Y11102500D01*
X30944290Y11088042D01*
X30942166Y11073724D01*
X30938649Y11059683D01*
X30933772Y11046054D01*
X30927583Y11032969D01*
X30920142Y11020553D01*
X30911519Y11008927D01*
X30901798Y10998202D01*
X30891073Y10988481D01*
X30879447Y10979858D01*
X30867031Y10972417D01*
X30853946Y10966228D01*
X30840317Y10961351D01*
X30826276Y10957834D01*
X30811958Y10955710D01*
X30797500Y10955000D01*
X30452500Y10955000D01*
X30438042Y10955710D01*
X30423724Y10957834D01*
X30409683Y10961351D01*
X30396054Y10966228D01*
X30382969Y10972417D01*
X30370553Y10979858D01*
X30358927Y10988481D01*
X30348202Y10998202D01*
X30338481Y11008927D01*
X30329858Y11020553D01*
X30322417Y11032969D01*
X30316228Y11046054D01*
X30311351Y11059683D01*
X30307834Y11073724D01*
X30305710Y11088042D01*
X30305000Y11102500D01*
X30305000Y11397500D01*
X30305710Y11411958D01*
X30307834Y11426276D01*
X30311351Y11440317D01*
X30316228Y11453946D01*
X30322417Y11467031D01*
X30329858Y11479447D01*
X30338481Y11491073D01*
X30348202Y11501798D01*
X30358927Y11511519D01*
X30370553Y11520142D01*
X30382969Y11527583D01*
X30396054Y11533772D01*
X30409683Y11538649D01*
X30423724Y11542166D01*
X30438042Y11544290D01*
X30452500Y11545000D01*
X30797500Y11545000D01*
X30811958Y11544290D01*
G37*
G36*
X53086958Y25999290D02*
G01*
X53101276Y25997166D01*
X53115317Y25993649D01*
X53128946Y25988772D01*
X53142031Y25982583D01*
X53154447Y25975142D01*
X53166073Y25966519D01*
X53176798Y25956798D01*
X53186519Y25946073D01*
X53195142Y25934447D01*
X53202583Y25922031D01*
X53208772Y25908946D01*
X53213649Y25895317D01*
X53217166Y25881276D01*
X53219290Y25866958D01*
X53220000Y25852500D01*
X53220000Y25557500D01*
X53219290Y25543042D01*
X53217166Y25528724D01*
X53213649Y25514683D01*
X53208772Y25501054D01*
X53202583Y25487969D01*
X53195142Y25475553D01*
X53186519Y25463927D01*
X53176798Y25453202D01*
X53166073Y25443481D01*
X53154447Y25434858D01*
X53142031Y25427417D01*
X53128946Y25421228D01*
X53115317Y25416351D01*
X53101276Y25412834D01*
X53086958Y25410710D01*
X53072500Y25410000D01*
X52727500Y25410000D01*
X52713042Y25410710D01*
X52698724Y25412834D01*
X52684683Y25416351D01*
X52671054Y25421228D01*
X52657969Y25427417D01*
X52645553Y25434858D01*
X52633927Y25443481D01*
X52623202Y25453202D01*
X52613481Y25463927D01*
X52604858Y25475553D01*
X52597417Y25487969D01*
X52591228Y25501054D01*
X52586351Y25514683D01*
X52582834Y25528724D01*
X52580710Y25543042D01*
X52580000Y25557500D01*
X52580000Y25852500D01*
X52580710Y25866958D01*
X52582834Y25881276D01*
X52586351Y25895317D01*
X52591228Y25908946D01*
X52597417Y25922031D01*
X52604858Y25934447D01*
X52613481Y25946073D01*
X52623202Y25956798D01*
X52633927Y25966519D01*
X52645553Y25975142D01*
X52657969Y25982583D01*
X52671054Y25988772D01*
X52684683Y25993649D01*
X52698724Y25997166D01*
X52713042Y25999290D01*
X52727500Y26000000D01*
X53072500Y26000000D01*
X53086958Y25999290D01*
G37*
G36*
X53086958Y26969290D02*
G01*
X53101276Y26967166D01*
X53115317Y26963649D01*
X53128946Y26958772D01*
X53142031Y26952583D01*
X53154447Y26945142D01*
X53166073Y26936519D01*
X53176798Y26926798D01*
X53186519Y26916073D01*
X53195142Y26904447D01*
X53202583Y26892031D01*
X53208772Y26878946D01*
X53213649Y26865317D01*
X53217166Y26851276D01*
X53219290Y26836958D01*
X53220000Y26822500D01*
X53220000Y26527500D01*
X53219290Y26513042D01*
X53217166Y26498724D01*
X53213649Y26484683D01*
X53208772Y26471054D01*
X53202583Y26457969D01*
X53195142Y26445553D01*
X53186519Y26433927D01*
X53176798Y26423202D01*
X53166073Y26413481D01*
X53154447Y26404858D01*
X53142031Y26397417D01*
X53128946Y26391228D01*
X53115317Y26386351D01*
X53101276Y26382834D01*
X53086958Y26380710D01*
X53072500Y26380000D01*
X52727500Y26380000D01*
X52713042Y26380710D01*
X52698724Y26382834D01*
X52684683Y26386351D01*
X52671054Y26391228D01*
X52657969Y26397417D01*
X52645553Y26404858D01*
X52633927Y26413481D01*
X52623202Y26423202D01*
X52613481Y26433927D01*
X52604858Y26445553D01*
X52597417Y26457969D01*
X52591228Y26471054D01*
X52586351Y26484683D01*
X52582834Y26498724D01*
X52580710Y26513042D01*
X52580000Y26527500D01*
X52580000Y26822500D01*
X52580710Y26836958D01*
X52582834Y26851276D01*
X52586351Y26865317D01*
X52591228Y26878946D01*
X52597417Y26892031D01*
X52604858Y26904447D01*
X52613481Y26916073D01*
X52623202Y26926798D01*
X52633927Y26936519D01*
X52645553Y26945142D01*
X52657969Y26952583D01*
X52671054Y26958772D01*
X52684683Y26963649D01*
X52698724Y26967166D01*
X52713042Y26969290D01*
X52727500Y26970000D01*
X53072500Y26970000D01*
X53086958Y26969290D01*
G37*
G36*
X53076958Y28109290D02*
G01*
X53091276Y28107166D01*
X53105317Y28103649D01*
X53118946Y28098772D01*
X53132031Y28092583D01*
X53144447Y28085142D01*
X53156073Y28076519D01*
X53166798Y28066798D01*
X53176519Y28056073D01*
X53185142Y28044447D01*
X53192583Y28032031D01*
X53198772Y28018946D01*
X53203649Y28005317D01*
X53207166Y27991276D01*
X53209290Y27976958D01*
X53210000Y27962500D01*
X53210000Y27617500D01*
X53209290Y27603042D01*
X53207166Y27588724D01*
X53203649Y27574683D01*
X53198772Y27561054D01*
X53192583Y27547969D01*
X53185142Y27535553D01*
X53176519Y27523927D01*
X53166798Y27513202D01*
X53156073Y27503481D01*
X53144447Y27494858D01*
X53132031Y27487417D01*
X53118946Y27481228D01*
X53105317Y27476351D01*
X53091276Y27472834D01*
X53076958Y27470710D01*
X53062500Y27470000D01*
X52767500Y27470000D01*
X52753042Y27470710D01*
X52738724Y27472834D01*
X52724683Y27476351D01*
X52711054Y27481228D01*
X52697969Y27487417D01*
X52685553Y27494858D01*
X52673927Y27503481D01*
X52663202Y27513202D01*
X52653481Y27523927D01*
X52644858Y27535553D01*
X52637417Y27547969D01*
X52631228Y27561054D01*
X52626351Y27574683D01*
X52622834Y27588724D01*
X52620710Y27603042D01*
X52620000Y27617500D01*
X52620000Y27962500D01*
X52620710Y27976958D01*
X52622834Y27991276D01*
X52626351Y28005317D01*
X52631228Y28018946D01*
X52637417Y28032031D01*
X52644858Y28044447D01*
X52653481Y28056073D01*
X52663202Y28066798D01*
X52673927Y28076519D01*
X52685553Y28085142D01*
X52697969Y28092583D01*
X52711054Y28098772D01*
X52724683Y28103649D01*
X52738724Y28107166D01*
X52753042Y28109290D01*
X52767500Y28110000D01*
X53062500Y28110000D01*
X53076958Y28109290D01*
G37*
G36*
X54046958Y28109290D02*
G01*
X54061276Y28107166D01*
X54075317Y28103649D01*
X54088946Y28098772D01*
X54102031Y28092583D01*
X54114447Y28085142D01*
X54126073Y28076519D01*
X54136798Y28066798D01*
X54146519Y28056073D01*
X54155142Y28044447D01*
X54162583Y28032031D01*
X54168772Y28018946D01*
X54173649Y28005317D01*
X54177166Y27991276D01*
X54179290Y27976958D01*
X54180000Y27962500D01*
X54180000Y27617500D01*
X54179290Y27603042D01*
X54177166Y27588724D01*
X54173649Y27574683D01*
X54168772Y27561054D01*
X54162583Y27547969D01*
X54155142Y27535553D01*
X54146519Y27523927D01*
X54136798Y27513202D01*
X54126073Y27503481D01*
X54114447Y27494858D01*
X54102031Y27487417D01*
X54088946Y27481228D01*
X54075317Y27476351D01*
X54061276Y27472834D01*
X54046958Y27470710D01*
X54032500Y27470000D01*
X53737500Y27470000D01*
X53723042Y27470710D01*
X53708724Y27472834D01*
X53694683Y27476351D01*
X53681054Y27481228D01*
X53667969Y27487417D01*
X53655553Y27494858D01*
X53643927Y27503481D01*
X53633202Y27513202D01*
X53623481Y27523927D01*
X53614858Y27535553D01*
X53607417Y27547969D01*
X53601228Y27561054D01*
X53596351Y27574683D01*
X53592834Y27588724D01*
X53590710Y27603042D01*
X53590000Y27617500D01*
X53590000Y27962500D01*
X53590710Y27976958D01*
X53592834Y27991276D01*
X53596351Y28005317D01*
X53601228Y28018946D01*
X53607417Y28032031D01*
X53614858Y28044447D01*
X53623481Y28056073D01*
X53633202Y28066798D01*
X53643927Y28076519D01*
X53655553Y28085142D01*
X53667969Y28092583D01*
X53681054Y28098772D01*
X53694683Y28103649D01*
X53708724Y28107166D01*
X53723042Y28109290D01*
X53737500Y28110000D01*
X54032500Y28110000D01*
X54046958Y28109290D01*
G37*
G36*
X52991958Y24509290D02*
G01*
X53006276Y24507166D01*
X53020317Y24503649D01*
X53033946Y24498772D01*
X53047031Y24492583D01*
X53059447Y24485142D01*
X53071073Y24476519D01*
X53081798Y24466798D01*
X53091519Y24456073D01*
X53100142Y24444447D01*
X53107583Y24432031D01*
X53113772Y24418946D01*
X53118649Y24405317D01*
X53122166Y24391276D01*
X53124290Y24376958D01*
X53125000Y24362500D01*
X53125000Y24017500D01*
X53124290Y24003042D01*
X53122166Y23988724D01*
X53118649Y23974683D01*
X53113772Y23961054D01*
X53107583Y23947969D01*
X53100142Y23935553D01*
X53091519Y23923927D01*
X53081798Y23913202D01*
X53071073Y23903481D01*
X53059447Y23894858D01*
X53047031Y23887417D01*
X53033946Y23881228D01*
X53020317Y23876351D01*
X53006276Y23872834D01*
X52991958Y23870710D01*
X52977500Y23870000D01*
X52682500Y23870000D01*
X52668042Y23870710D01*
X52653724Y23872834D01*
X52639683Y23876351D01*
X52626054Y23881228D01*
X52612969Y23887417D01*
X52600553Y23894858D01*
X52588927Y23903481D01*
X52578202Y23913202D01*
X52568481Y23923927D01*
X52559858Y23935553D01*
X52552417Y23947969D01*
X52546228Y23961054D01*
X52541351Y23974683D01*
X52537834Y23988724D01*
X52535710Y24003042D01*
X52535000Y24017500D01*
X52535000Y24362500D01*
X52535710Y24376958D01*
X52537834Y24391276D01*
X52541351Y24405317D01*
X52546228Y24418946D01*
X52552417Y24432031D01*
X52559858Y24444447D01*
X52568481Y24456073D01*
X52578202Y24466798D01*
X52588927Y24476519D01*
X52600553Y24485142D01*
X52612969Y24492583D01*
X52626054Y24498772D01*
X52639683Y24503649D01*
X52653724Y24507166D01*
X52668042Y24509290D01*
X52682500Y24510000D01*
X52977500Y24510000D01*
X52991958Y24509290D01*
G37*
G36*
X53961958Y24509290D02*
G01*
X53976276Y24507166D01*
X53990317Y24503649D01*
X54003946Y24498772D01*
X54017031Y24492583D01*
X54029447Y24485142D01*
X54041073Y24476519D01*
X54051798Y24466798D01*
X54061519Y24456073D01*
X54070142Y24444447D01*
X54077583Y24432031D01*
X54083772Y24418946D01*
X54088649Y24405317D01*
X54092166Y24391276D01*
X54094290Y24376958D01*
X54095000Y24362500D01*
X54095000Y24017500D01*
X54094290Y24003042D01*
X54092166Y23988724D01*
X54088649Y23974683D01*
X54083772Y23961054D01*
X54077583Y23947969D01*
X54070142Y23935553D01*
X54061519Y23923927D01*
X54051798Y23913202D01*
X54041073Y23903481D01*
X54029447Y23894858D01*
X54017031Y23887417D01*
X54003946Y23881228D01*
X53990317Y23876351D01*
X53976276Y23872834D01*
X53961958Y23870710D01*
X53947500Y23870000D01*
X53652500Y23870000D01*
X53638042Y23870710D01*
X53623724Y23872834D01*
X53609683Y23876351D01*
X53596054Y23881228D01*
X53582969Y23887417D01*
X53570553Y23894858D01*
X53558927Y23903481D01*
X53548202Y23913202D01*
X53538481Y23923927D01*
X53529858Y23935553D01*
X53522417Y23947969D01*
X53516228Y23961054D01*
X53511351Y23974683D01*
X53507834Y23988724D01*
X53505710Y24003042D01*
X53505000Y24017500D01*
X53505000Y24362500D01*
X53505710Y24376958D01*
X53507834Y24391276D01*
X53511351Y24405317D01*
X53516228Y24418946D01*
X53522417Y24432031D01*
X53529858Y24444447D01*
X53538481Y24456073D01*
X53548202Y24466798D01*
X53558927Y24476519D01*
X53570553Y24485142D01*
X53582969Y24492583D01*
X53596054Y24498772D01*
X53609683Y24503649D01*
X53623724Y24507166D01*
X53638042Y24509290D01*
X53652500Y24510000D01*
X53947500Y24510000D01*
X53961958Y24509290D01*
G37*
G36*
X30646958Y4709290D02*
G01*
X30661276Y4707166D01*
X30675317Y4703649D01*
X30688946Y4698772D01*
X30702031Y4692583D01*
X30714447Y4685142D01*
X30726073Y4676519D01*
X30736798Y4666798D01*
X30746519Y4656073D01*
X30755142Y4644447D01*
X30762583Y4632031D01*
X30768772Y4618946D01*
X30773649Y4605317D01*
X30777166Y4591276D01*
X30779290Y4576958D01*
X30780000Y4562500D01*
X30780000Y4217500D01*
X30779290Y4203042D01*
X30777166Y4188724D01*
X30773649Y4174683D01*
X30768772Y4161054D01*
X30762583Y4147969D01*
X30755142Y4135553D01*
X30746519Y4123927D01*
X30736798Y4113202D01*
X30726073Y4103481D01*
X30714447Y4094858D01*
X30702031Y4087417D01*
X30688946Y4081228D01*
X30675317Y4076351D01*
X30661276Y4072834D01*
X30646958Y4070710D01*
X30632500Y4070000D01*
X30337500Y4070000D01*
X30323042Y4070710D01*
X30308724Y4072834D01*
X30294683Y4076351D01*
X30281054Y4081228D01*
X30267969Y4087417D01*
X30255553Y4094858D01*
X30243927Y4103481D01*
X30233202Y4113202D01*
X30223481Y4123927D01*
X30214858Y4135553D01*
X30207417Y4147969D01*
X30201228Y4161054D01*
X30196351Y4174683D01*
X30192834Y4188724D01*
X30190710Y4203042D01*
X30190000Y4217500D01*
X30190000Y4562500D01*
X30190710Y4576958D01*
X30192834Y4591276D01*
X30196351Y4605317D01*
X30201228Y4618946D01*
X30207417Y4632031D01*
X30214858Y4644447D01*
X30223481Y4656073D01*
X30233202Y4666798D01*
X30243927Y4676519D01*
X30255553Y4685142D01*
X30267969Y4692583D01*
X30281054Y4698772D01*
X30294683Y4703649D01*
X30308724Y4707166D01*
X30323042Y4709290D01*
X30337500Y4710000D01*
X30632500Y4710000D01*
X30646958Y4709290D01*
G37*
G36*
X29676958Y4709290D02*
G01*
X29691276Y4707166D01*
X29705317Y4703649D01*
X29718946Y4698772D01*
X29732031Y4692583D01*
X29744447Y4685142D01*
X29756073Y4676519D01*
X29766798Y4666798D01*
X29776519Y4656073D01*
X29785142Y4644447D01*
X29792583Y4632031D01*
X29798772Y4618946D01*
X29803649Y4605317D01*
X29807166Y4591276D01*
X29809290Y4576958D01*
X29810000Y4562500D01*
X29810000Y4217500D01*
X29809290Y4203042D01*
X29807166Y4188724D01*
X29803649Y4174683D01*
X29798772Y4161054D01*
X29792583Y4147969D01*
X29785142Y4135553D01*
X29776519Y4123927D01*
X29766798Y4113202D01*
X29756073Y4103481D01*
X29744447Y4094858D01*
X29732031Y4087417D01*
X29718946Y4081228D01*
X29705317Y4076351D01*
X29691276Y4072834D01*
X29676958Y4070710D01*
X29662500Y4070000D01*
X29367500Y4070000D01*
X29353042Y4070710D01*
X29338724Y4072834D01*
X29324683Y4076351D01*
X29311054Y4081228D01*
X29297969Y4087417D01*
X29285553Y4094858D01*
X29273927Y4103481D01*
X29263202Y4113202D01*
X29253481Y4123927D01*
X29244858Y4135553D01*
X29237417Y4147969D01*
X29231228Y4161054D01*
X29226351Y4174683D01*
X29222834Y4188724D01*
X29220710Y4203042D01*
X29220000Y4217500D01*
X29220000Y4562500D01*
X29220710Y4576958D01*
X29222834Y4591276D01*
X29226351Y4605317D01*
X29231228Y4618946D01*
X29237417Y4632031D01*
X29244858Y4644447D01*
X29253481Y4656073D01*
X29263202Y4666798D01*
X29273927Y4676519D01*
X29285553Y4685142D01*
X29297969Y4692583D01*
X29311054Y4698772D01*
X29324683Y4703649D01*
X29338724Y4707166D01*
X29353042Y4709290D01*
X29367500Y4710000D01*
X29662500Y4710000D01*
X29676958Y4709290D01*
G37*
G36*
X39786958Y8999290D02*
G01*
X39801276Y8997166D01*
X39815317Y8993649D01*
X39828946Y8988772D01*
X39842031Y8982583D01*
X39854447Y8975142D01*
X39866073Y8966519D01*
X39876798Y8956798D01*
X39886519Y8946073D01*
X39895142Y8934447D01*
X39902583Y8922031D01*
X39908772Y8908946D01*
X39913649Y8895317D01*
X39917166Y8881276D01*
X39919290Y8866958D01*
X39920000Y8852500D01*
X39920000Y8557500D01*
X39919290Y8543042D01*
X39917166Y8528724D01*
X39913649Y8514683D01*
X39908772Y8501054D01*
X39902583Y8487969D01*
X39895142Y8475553D01*
X39886519Y8463927D01*
X39876798Y8453202D01*
X39866073Y8443481D01*
X39854447Y8434858D01*
X39842031Y8427417D01*
X39828946Y8421228D01*
X39815317Y8416351D01*
X39801276Y8412834D01*
X39786958Y8410710D01*
X39772500Y8410000D01*
X39427500Y8410000D01*
X39413042Y8410710D01*
X39398724Y8412834D01*
X39384683Y8416351D01*
X39371054Y8421228D01*
X39357969Y8427417D01*
X39345553Y8434858D01*
X39333927Y8443481D01*
X39323202Y8453202D01*
X39313481Y8463927D01*
X39304858Y8475553D01*
X39297417Y8487969D01*
X39291228Y8501054D01*
X39286351Y8514683D01*
X39282834Y8528724D01*
X39280710Y8543042D01*
X39280000Y8557500D01*
X39280000Y8852500D01*
X39280710Y8866958D01*
X39282834Y8881276D01*
X39286351Y8895317D01*
X39291228Y8908946D01*
X39297417Y8922031D01*
X39304858Y8934447D01*
X39313481Y8946073D01*
X39323202Y8956798D01*
X39333927Y8966519D01*
X39345553Y8975142D01*
X39357969Y8982583D01*
X39371054Y8988772D01*
X39384683Y8993649D01*
X39398724Y8997166D01*
X39413042Y8999290D01*
X39427500Y9000000D01*
X39772500Y9000000D01*
X39786958Y8999290D01*
G37*
G36*
X39786958Y9969290D02*
G01*
X39801276Y9967166D01*
X39815317Y9963649D01*
X39828946Y9958772D01*
X39842031Y9952583D01*
X39854447Y9945142D01*
X39866073Y9936519D01*
X39876798Y9926798D01*
X39886519Y9916073D01*
X39895142Y9904447D01*
X39902583Y9892031D01*
X39908772Y9878946D01*
X39913649Y9865317D01*
X39917166Y9851276D01*
X39919290Y9836958D01*
X39920000Y9822500D01*
X39920000Y9527500D01*
X39919290Y9513042D01*
X39917166Y9498724D01*
X39913649Y9484683D01*
X39908772Y9471054D01*
X39902583Y9457969D01*
X39895142Y9445553D01*
X39886519Y9433927D01*
X39876798Y9423202D01*
X39866073Y9413481D01*
X39854447Y9404858D01*
X39842031Y9397417D01*
X39828946Y9391228D01*
X39815317Y9386351D01*
X39801276Y9382834D01*
X39786958Y9380710D01*
X39772500Y9380000D01*
X39427500Y9380000D01*
X39413042Y9380710D01*
X39398724Y9382834D01*
X39384683Y9386351D01*
X39371054Y9391228D01*
X39357969Y9397417D01*
X39345553Y9404858D01*
X39333927Y9413481D01*
X39323202Y9423202D01*
X39313481Y9433927D01*
X39304858Y9445553D01*
X39297417Y9457969D01*
X39291228Y9471054D01*
X39286351Y9484683D01*
X39282834Y9498724D01*
X39280710Y9513042D01*
X39280000Y9527500D01*
X39280000Y9822500D01*
X39280710Y9836958D01*
X39282834Y9851276D01*
X39286351Y9865317D01*
X39291228Y9878946D01*
X39297417Y9892031D01*
X39304858Y9904447D01*
X39313481Y9916073D01*
X39323202Y9926798D01*
X39333927Y9936519D01*
X39345553Y9945142D01*
X39357969Y9952583D01*
X39371054Y9958772D01*
X39384683Y9963649D01*
X39398724Y9967166D01*
X39413042Y9969290D01*
X39427500Y9970000D01*
X39772500Y9970000D01*
X39786958Y9969290D01*
G37*
G36*
X33076958Y11509290D02*
G01*
X33091276Y11507166D01*
X33105317Y11503649D01*
X33118946Y11498772D01*
X33132031Y11492583D01*
X33144447Y11485142D01*
X33156073Y11476519D01*
X33166798Y11466798D01*
X33176519Y11456073D01*
X33185142Y11444447D01*
X33192583Y11432031D01*
X33198772Y11418946D01*
X33203649Y11405317D01*
X33207166Y11391276D01*
X33209290Y11376958D01*
X33210000Y11362500D01*
X33210000Y11017500D01*
X33209290Y11003042D01*
X33207166Y10988724D01*
X33203649Y10974683D01*
X33198772Y10961054D01*
X33192583Y10947969D01*
X33185142Y10935553D01*
X33176519Y10923927D01*
X33166798Y10913202D01*
X33156073Y10903481D01*
X33144447Y10894858D01*
X33132031Y10887417D01*
X33118946Y10881228D01*
X33105317Y10876351D01*
X33091276Y10872834D01*
X33076958Y10870710D01*
X33062500Y10870000D01*
X32767500Y10870000D01*
X32753042Y10870710D01*
X32738724Y10872834D01*
X32724683Y10876351D01*
X32711054Y10881228D01*
X32697969Y10887417D01*
X32685553Y10894858D01*
X32673927Y10903481D01*
X32663202Y10913202D01*
X32653481Y10923927D01*
X32644858Y10935553D01*
X32637417Y10947969D01*
X32631228Y10961054D01*
X32626351Y10974683D01*
X32622834Y10988724D01*
X32620710Y11003042D01*
X32620000Y11017500D01*
X32620000Y11362500D01*
X32620710Y11376958D01*
X32622834Y11391276D01*
X32626351Y11405317D01*
X32631228Y11418946D01*
X32637417Y11432031D01*
X32644858Y11444447D01*
X32653481Y11456073D01*
X32663202Y11466798D01*
X32673927Y11476519D01*
X32685553Y11485142D01*
X32697969Y11492583D01*
X32711054Y11498772D01*
X32724683Y11503649D01*
X32738724Y11507166D01*
X32753042Y11509290D01*
X32767500Y11510000D01*
X33062500Y11510000D01*
X33076958Y11509290D01*
G37*
G36*
X34046958Y11509290D02*
G01*
X34061276Y11507166D01*
X34075317Y11503649D01*
X34088946Y11498772D01*
X34102031Y11492583D01*
X34114447Y11485142D01*
X34126073Y11476519D01*
X34136798Y11466798D01*
X34146519Y11456073D01*
X34155142Y11444447D01*
X34162583Y11432031D01*
X34168772Y11418946D01*
X34173649Y11405317D01*
X34177166Y11391276D01*
X34179290Y11376958D01*
X34180000Y11362500D01*
X34180000Y11017500D01*
X34179290Y11003042D01*
X34177166Y10988724D01*
X34173649Y10974683D01*
X34168772Y10961054D01*
X34162583Y10947969D01*
X34155142Y10935553D01*
X34146519Y10923927D01*
X34136798Y10913202D01*
X34126073Y10903481D01*
X34114447Y10894858D01*
X34102031Y10887417D01*
X34088946Y10881228D01*
X34075317Y10876351D01*
X34061276Y10872834D01*
X34046958Y10870710D01*
X34032500Y10870000D01*
X33737500Y10870000D01*
X33723042Y10870710D01*
X33708724Y10872834D01*
X33694683Y10876351D01*
X33681054Y10881228D01*
X33667969Y10887417D01*
X33655553Y10894858D01*
X33643927Y10903481D01*
X33633202Y10913202D01*
X33623481Y10923927D01*
X33614858Y10935553D01*
X33607417Y10947969D01*
X33601228Y10961054D01*
X33596351Y10974683D01*
X33592834Y10988724D01*
X33590710Y11003042D01*
X33590000Y11017500D01*
X33590000Y11362500D01*
X33590710Y11376958D01*
X33592834Y11391276D01*
X33596351Y11405317D01*
X33601228Y11418946D01*
X33607417Y11432031D01*
X33614858Y11444447D01*
X33623481Y11456073D01*
X33633202Y11466798D01*
X33643927Y11476519D01*
X33655553Y11485142D01*
X33667969Y11492583D01*
X33681054Y11498772D01*
X33694683Y11503649D01*
X33708724Y11507166D01*
X33723042Y11509290D01*
X33737500Y11510000D01*
X34032500Y11510000D01*
X34046958Y11509290D01*
G37*
D11*
X22500000Y1140000D03*
X25500000Y1140000D03*
D12*
X24000000Y5700000D03*
X23350000Y5700000D03*
X22700000Y5700000D03*
X24650000Y5700000D03*
X25300000Y5700000D03*
D10*
G36*
X28089727Y41906011D02*
G01*
X28104045Y41903887D01*
X28118086Y41900370D01*
X28131715Y41895493D01*
X28144800Y41889304D01*
X28157216Y41881863D01*
X28168842Y41873240D01*
X28179567Y41863519D01*
X28423519Y41619567D01*
X28433240Y41608842D01*
X28441863Y41597216D01*
X28449304Y41584800D01*
X28455493Y41571715D01*
X28460370Y41558086D01*
X28463887Y41544045D01*
X28466011Y41529727D01*
X28466721Y41515269D01*
X28466011Y41500811D01*
X28463887Y41486493D01*
X28460370Y41472452D01*
X28455493Y41458823D01*
X28449304Y41445738D01*
X28441863Y41433322D01*
X28433240Y41421696D01*
X28423519Y41410971D01*
X28214923Y41202375D01*
X28204198Y41192654D01*
X28192572Y41184031D01*
X28180156Y41176590D01*
X28167071Y41170401D01*
X28153442Y41165524D01*
X28139401Y41162007D01*
X28125083Y41159883D01*
X28110625Y41159173D01*
X28096167Y41159883D01*
X28081849Y41162007D01*
X28067808Y41165524D01*
X28054179Y41170401D01*
X28041094Y41176590D01*
X28028678Y41184031D01*
X28017052Y41192654D01*
X28006327Y41202375D01*
X27762375Y41446327D01*
X27752654Y41457052D01*
X27744031Y41468678D01*
X27736590Y41481094D01*
X27730401Y41494179D01*
X27725524Y41507808D01*
X27722007Y41521849D01*
X27719883Y41536167D01*
X27719173Y41550625D01*
X27719883Y41565083D01*
X27722007Y41579401D01*
X27725524Y41593442D01*
X27730401Y41607071D01*
X27736590Y41620156D01*
X27744031Y41632572D01*
X27752654Y41644198D01*
X27762375Y41654923D01*
X27970971Y41863519D01*
X27981696Y41873240D01*
X27993322Y41881863D01*
X28005738Y41889304D01*
X28018823Y41895493D01*
X28032452Y41900370D01*
X28046493Y41903887D01*
X28060811Y41906011D01*
X28075269Y41906721D01*
X28089727Y41906011D01*
G37*
G36*
X27403833Y41220117D02*
G01*
X27418151Y41217993D01*
X27432192Y41214476D01*
X27445821Y41209599D01*
X27458906Y41203410D01*
X27471322Y41195969D01*
X27482948Y41187346D01*
X27493673Y41177625D01*
X27737625Y40933673D01*
X27747346Y40922948D01*
X27755969Y40911322D01*
X27763410Y40898906D01*
X27769599Y40885821D01*
X27774476Y40872192D01*
X27777993Y40858151D01*
X27780117Y40843833D01*
X27780827Y40829375D01*
X27780117Y40814917D01*
X27777993Y40800599D01*
X27774476Y40786558D01*
X27769599Y40772929D01*
X27763410Y40759844D01*
X27755969Y40747428D01*
X27747346Y40735802D01*
X27737625Y40725077D01*
X27529029Y40516481D01*
X27518304Y40506760D01*
X27506678Y40498137D01*
X27494262Y40490696D01*
X27481177Y40484507D01*
X27467548Y40479630D01*
X27453507Y40476113D01*
X27439189Y40473989D01*
X27424731Y40473279D01*
X27410273Y40473989D01*
X27395955Y40476113D01*
X27381914Y40479630D01*
X27368285Y40484507D01*
X27355200Y40490696D01*
X27342784Y40498137D01*
X27331158Y40506760D01*
X27320433Y40516481D01*
X27076481Y40760433D01*
X27066760Y40771158D01*
X27058137Y40782784D01*
X27050696Y40795200D01*
X27044507Y40808285D01*
X27039630Y40821914D01*
X27036113Y40835955D01*
X27033989Y40850273D01*
X27033279Y40864731D01*
X27033989Y40879189D01*
X27036113Y40893507D01*
X27039630Y40907548D01*
X27044507Y40921177D01*
X27050696Y40934262D01*
X27058137Y40946678D01*
X27066760Y40958304D01*
X27076481Y40969029D01*
X27285077Y41177625D01*
X27295802Y41187346D01*
X27307428Y41195969D01*
X27319844Y41203410D01*
X27332929Y41209599D01*
X27346558Y41214476D01*
X27360599Y41217993D01*
X27374917Y41220117D01*
X27389375Y41220827D01*
X27403833Y41220117D01*
G37*
G36*
X28839727Y41206011D02*
G01*
X28854045Y41203887D01*
X28868086Y41200370D01*
X28881715Y41195493D01*
X28894800Y41189304D01*
X28907216Y41181863D01*
X28918842Y41173240D01*
X28929567Y41163519D01*
X29173519Y40919567D01*
X29183240Y40908842D01*
X29191863Y40897216D01*
X29199304Y40884800D01*
X29205493Y40871715D01*
X29210370Y40858086D01*
X29213887Y40844045D01*
X29216011Y40829727D01*
X29216721Y40815269D01*
X29216011Y40800811D01*
X29213887Y40786493D01*
X29210370Y40772452D01*
X29205493Y40758823D01*
X29199304Y40745738D01*
X29191863Y40733322D01*
X29183240Y40721696D01*
X29173519Y40710971D01*
X28964923Y40502375D01*
X28954198Y40492654D01*
X28942572Y40484031D01*
X28930156Y40476590D01*
X28917071Y40470401D01*
X28903442Y40465524D01*
X28889401Y40462007D01*
X28875083Y40459883D01*
X28860625Y40459173D01*
X28846167Y40459883D01*
X28831849Y40462007D01*
X28817808Y40465524D01*
X28804179Y40470401D01*
X28791094Y40476590D01*
X28778678Y40484031D01*
X28767052Y40492654D01*
X28756327Y40502375D01*
X28512375Y40746327D01*
X28502654Y40757052D01*
X28494031Y40768678D01*
X28486590Y40781094D01*
X28480401Y40794179D01*
X28475524Y40807808D01*
X28472007Y40821849D01*
X28469883Y40836167D01*
X28469173Y40850625D01*
X28469883Y40865083D01*
X28472007Y40879401D01*
X28475524Y40893442D01*
X28480401Y40907071D01*
X28486590Y40920156D01*
X28494031Y40932572D01*
X28502654Y40944198D01*
X28512375Y40954923D01*
X28720971Y41163519D01*
X28731696Y41173240D01*
X28743322Y41181863D01*
X28755738Y41189304D01*
X28768823Y41195493D01*
X28782452Y41200370D01*
X28796493Y41203887D01*
X28810811Y41206011D01*
X28825269Y41206721D01*
X28839727Y41206011D01*
G37*
G36*
X28153833Y40520117D02*
G01*
X28168151Y40517993D01*
X28182192Y40514476D01*
X28195821Y40509599D01*
X28208906Y40503410D01*
X28221322Y40495969D01*
X28232948Y40487346D01*
X28243673Y40477625D01*
X28487625Y40233673D01*
X28497346Y40222948D01*
X28505969Y40211322D01*
X28513410Y40198906D01*
X28519599Y40185821D01*
X28524476Y40172192D01*
X28527993Y40158151D01*
X28530117Y40143833D01*
X28530827Y40129375D01*
X28530117Y40114917D01*
X28527993Y40100599D01*
X28524476Y40086558D01*
X28519599Y40072929D01*
X28513410Y40059844D01*
X28505969Y40047428D01*
X28497346Y40035802D01*
X28487625Y40025077D01*
X28279029Y39816481D01*
X28268304Y39806760D01*
X28256678Y39798137D01*
X28244262Y39790696D01*
X28231177Y39784507D01*
X28217548Y39779630D01*
X28203507Y39776113D01*
X28189189Y39773989D01*
X28174731Y39773279D01*
X28160273Y39773989D01*
X28145955Y39776113D01*
X28131914Y39779630D01*
X28118285Y39784507D01*
X28105200Y39790696D01*
X28092784Y39798137D01*
X28081158Y39806760D01*
X28070433Y39816481D01*
X27826481Y40060433D01*
X27816760Y40071158D01*
X27808137Y40082784D01*
X27800696Y40095200D01*
X27794507Y40108285D01*
X27789630Y40121914D01*
X27786113Y40135955D01*
X27783989Y40150273D01*
X27783279Y40164731D01*
X27783989Y40179189D01*
X27786113Y40193507D01*
X27789630Y40207548D01*
X27794507Y40221177D01*
X27800696Y40234262D01*
X27808137Y40246678D01*
X27816760Y40258304D01*
X27826481Y40269029D01*
X28035077Y40477625D01*
X28045802Y40487346D01*
X28057428Y40495969D01*
X28069844Y40503410D01*
X28082929Y40509599D01*
X28096558Y40514476D01*
X28110599Y40517993D01*
X28124917Y40520117D01*
X28139375Y40520827D01*
X28153833Y40520117D01*
G37*
D13*
X40490000Y14890000D03*
X39490000Y14890000D03*
X38490000Y14890000D03*
X37490000Y14890000D03*
X36490000Y14890000D03*
X35490000Y14890000D03*
X34490000Y14890000D03*
X33490000Y14890000D03*
X32490000Y14890000D03*
X31490000Y14890000D03*
X30490000Y14890000D03*
X29490000Y14890000D03*
X28490000Y14890000D03*
X27490000Y14890000D03*
X26490000Y14890000D03*
X25490000Y14890000D03*
X24490000Y14890000D03*
X23490000Y14890000D03*
X22490000Y14890000D03*
X21490000Y14890000D03*
X20490000Y14890000D03*
X19490000Y14890000D03*
X40490000Y15890000D03*
X39490000Y15890000D03*
X38490000Y15890000D03*
X37490000Y15890000D03*
X36490000Y15890000D03*
X35490000Y15890000D03*
X34490000Y15890000D03*
X33490000Y15890000D03*
X32490000Y15890000D03*
X31490000Y15890000D03*
X30490000Y15890000D03*
X29490000Y15890000D03*
X28490000Y15890000D03*
X27490000Y15890000D03*
X26490000Y15890000D03*
X25490000Y15890000D03*
X24490000Y15890000D03*
X23490000Y15890000D03*
X22490000Y15890000D03*
X21490000Y15890000D03*
X20490000Y15890000D03*
X19490000Y15890000D03*
X40490000Y16890000D03*
X39490000Y16890000D03*
X38490000Y16890000D03*
X37490000Y16890000D03*
X36490000Y16890000D03*
X35490000Y16890000D03*
X34490000Y16890000D03*
X33490000Y16890000D03*
X32490000Y16890000D03*
X31490000Y16890000D03*
X30490000Y16890000D03*
X29490000Y16890000D03*
X28490000Y16890000D03*
X27490000Y16890000D03*
X26490000Y16890000D03*
X25490000Y16890000D03*
X24490000Y16890000D03*
X23490000Y16890000D03*
X22490000Y16890000D03*
X21490000Y16890000D03*
X20490000Y16890000D03*
X19490000Y16890000D03*
X40490000Y17890000D03*
X39490000Y17890000D03*
X38490000Y17890000D03*
X37490000Y17890000D03*
X36490000Y17890000D03*
X35490000Y17890000D03*
X34490000Y17890000D03*
X33490000Y17890000D03*
X32490000Y17890000D03*
X31490000Y17890000D03*
X30490000Y17890000D03*
X29490000Y17890000D03*
X28490000Y17890000D03*
X27490000Y17890000D03*
X26490000Y17890000D03*
X25490000Y17890000D03*
X24490000Y17890000D03*
X23490000Y17890000D03*
X22490000Y17890000D03*
X21490000Y17890000D03*
X20490000Y17890000D03*
X19490000Y17890000D03*
X40490000Y18890000D03*
X39490000Y18890000D03*
X38490000Y18890000D03*
X37490000Y18890000D03*
X36490000Y18890000D03*
X35490000Y18890000D03*
X34490000Y18890000D03*
X33490000Y18890000D03*
X32490000Y18890000D03*
X31490000Y18890000D03*
X30490000Y18890000D03*
X29490000Y18890000D03*
X28490000Y18890000D03*
X27490000Y18890000D03*
X26490000Y18890000D03*
X25490000Y18890000D03*
X24490000Y18890000D03*
X23490000Y18890000D03*
X22490000Y18890000D03*
X21490000Y18890000D03*
X20490000Y18890000D03*
X19490000Y18890000D03*
X40490000Y19890000D03*
X39490000Y19890000D03*
X38490000Y19890000D03*
X37490000Y19890000D03*
X36490000Y19890000D03*
X35490000Y19890000D03*
X34490000Y19890000D03*
X33490000Y19890000D03*
X32490000Y19890000D03*
X31490000Y19890000D03*
X30490000Y19890000D03*
X29490000Y19890000D03*
X28490000Y19890000D03*
X27490000Y19890000D03*
X26490000Y19890000D03*
X25490000Y19890000D03*
X24490000Y19890000D03*
X23490000Y19890000D03*
X22490000Y19890000D03*
X21490000Y19890000D03*
X20490000Y19890000D03*
X19490000Y19890000D03*
X40490000Y20890000D03*
X39490000Y20890000D03*
X38490000Y20890000D03*
X37490000Y20890000D03*
X36490000Y20890000D03*
X35490000Y20890000D03*
X34490000Y20890000D03*
X33490000Y20890000D03*
X32490000Y20890000D03*
X31490000Y20890000D03*
X30490000Y20890000D03*
X29490000Y20890000D03*
X28490000Y20890000D03*
X27490000Y20890000D03*
X26490000Y20890000D03*
X25490000Y20890000D03*
X24490000Y20890000D03*
X23490000Y20890000D03*
X22490000Y20890000D03*
X21490000Y20890000D03*
X20490000Y20890000D03*
X19490000Y20890000D03*
X40490000Y21890000D03*
X39490000Y21890000D03*
X38490000Y21890000D03*
X37490000Y21890000D03*
X36490000Y21890000D03*
X35490000Y21890000D03*
X34490000Y21890000D03*
X33490000Y21890000D03*
X32490000Y21890000D03*
X31490000Y21890000D03*
X30490000Y21890000D03*
X29490000Y21890000D03*
X28490000Y21890000D03*
X27490000Y21890000D03*
X26490000Y21890000D03*
X25490000Y21890000D03*
X24490000Y21890000D03*
X23490000Y21890000D03*
X22490000Y21890000D03*
X21490000Y21890000D03*
X20490000Y21890000D03*
X19490000Y21890000D03*
X40490000Y22890000D03*
X39490000Y22890000D03*
X38490000Y22890000D03*
X37490000Y22890000D03*
X36490000Y22890000D03*
X35490000Y22890000D03*
X34490000Y22890000D03*
X33490000Y22890000D03*
X32490000Y22890000D03*
X31490000Y22890000D03*
X30490000Y22890000D03*
X29490000Y22890000D03*
X28490000Y22890000D03*
X27490000Y22890000D03*
X26490000Y22890000D03*
X25490000Y22890000D03*
X24490000Y22890000D03*
X23490000Y22890000D03*
X22490000Y22890000D03*
X21490000Y22890000D03*
X20490000Y22890000D03*
X19490000Y22890000D03*
X40490000Y23890000D03*
X39490000Y23890000D03*
X38490000Y23890000D03*
X37490000Y23890000D03*
X36490000Y23890000D03*
X35490000Y23890000D03*
X34490000Y23890000D03*
X33490000Y23890000D03*
X32490000Y23890000D03*
X31490000Y23890000D03*
X30490000Y23890000D03*
X29490000Y23890000D03*
X28490000Y23890000D03*
X27490000Y23890000D03*
X26490000Y23890000D03*
X25490000Y23890000D03*
X24490000Y23890000D03*
X23490000Y23890000D03*
X22490000Y23890000D03*
X21490000Y23890000D03*
X20490000Y23890000D03*
X19490000Y23890000D03*
X40490000Y24890000D03*
X39490000Y24890000D03*
X38490000Y24890000D03*
X37490000Y24890000D03*
X36490000Y24890000D03*
X35490000Y24890000D03*
X34490000Y24890000D03*
X33490000Y24890000D03*
X32490000Y24890000D03*
X31490000Y24890000D03*
X30490000Y24890000D03*
X29490000Y24890000D03*
X28490000Y24890000D03*
X27490000Y24890000D03*
X26490000Y24890000D03*
X25490000Y24890000D03*
X24490000Y24890000D03*
X23490000Y24890000D03*
X22490000Y24890000D03*
X21490000Y24890000D03*
X20490000Y24890000D03*
X19490000Y24890000D03*
X40490000Y25890000D03*
X39490000Y25890000D03*
X38490000Y25890000D03*
X37490000Y25890000D03*
X36490000Y25890000D03*
X35490000Y25890000D03*
X34490000Y25890000D03*
X33490000Y25890000D03*
X32490000Y25890000D03*
X31490000Y25890000D03*
X30490000Y25890000D03*
X29490000Y25890000D03*
X28490000Y25890000D03*
X27490000Y25890000D03*
X26490000Y25890000D03*
X25490000Y25890000D03*
X24490000Y25890000D03*
X23490000Y25890000D03*
X22490000Y25890000D03*
X21490000Y25890000D03*
X20490000Y25890000D03*
X19490000Y25890000D03*
X40490000Y26890000D03*
X39490000Y26890000D03*
X38490000Y26890000D03*
X37490000Y26890000D03*
X36490000Y26890000D03*
X35490000Y26890000D03*
X34490000Y26890000D03*
X33490000Y26890000D03*
X32490000Y26890000D03*
X31490000Y26890000D03*
X30490000Y26890000D03*
X29490000Y26890000D03*
X28490000Y26890000D03*
X27490000Y26890000D03*
X26490000Y26890000D03*
X25490000Y26890000D03*
X24490000Y26890000D03*
X23490000Y26890000D03*
X22490000Y26890000D03*
X21490000Y26890000D03*
X20490000Y26890000D03*
X19490000Y26890000D03*
X40490000Y27890000D03*
X39490000Y27890000D03*
X38490000Y27890000D03*
X37490000Y27890000D03*
X36490000Y27890000D03*
X35490000Y27890000D03*
X34490000Y27890000D03*
X33490000Y27890000D03*
X32490000Y27890000D03*
X31490000Y27890000D03*
X30490000Y27890000D03*
X29490000Y27890000D03*
X28490000Y27890000D03*
X27490000Y27890000D03*
X26490000Y27890000D03*
X25490000Y27890000D03*
X24490000Y27890000D03*
X23490000Y27890000D03*
X22490000Y27890000D03*
X21490000Y27890000D03*
X20490000Y27890000D03*
X19490000Y27890000D03*
X40490000Y28890000D03*
X39490000Y28890000D03*
X38490000Y28890000D03*
X37490000Y28890000D03*
X36490000Y28890000D03*
X35490000Y28890000D03*
X34490000Y28890000D03*
X33490000Y28890000D03*
X32490000Y28890000D03*
X31490000Y28890000D03*
X30490000Y28890000D03*
X29490000Y28890000D03*
X28490000Y28890000D03*
X27490000Y28890000D03*
X26490000Y28890000D03*
X25490000Y28890000D03*
X24490000Y28890000D03*
X23490000Y28890000D03*
X22490000Y28890000D03*
X21490000Y28890000D03*
X20490000Y28890000D03*
X19490000Y28890000D03*
X40490000Y29890000D03*
X39490000Y29890000D03*
X38490000Y29890000D03*
X37490000Y29890000D03*
X36490000Y29890000D03*
X35490000Y29890000D03*
X34490000Y29890000D03*
X33490000Y29890000D03*
X32490000Y29890000D03*
X31490000Y29890000D03*
X30490000Y29890000D03*
X29490000Y29890000D03*
X28490000Y29890000D03*
X27490000Y29890000D03*
X26490000Y29890000D03*
X25490000Y29890000D03*
X24490000Y29890000D03*
X23490000Y29890000D03*
X22490000Y29890000D03*
X21490000Y29890000D03*
X20490000Y29890000D03*
X19490000Y29890000D03*
X40490000Y30890000D03*
X39490000Y30890000D03*
X38490000Y30890000D03*
X37490000Y30890000D03*
X36490000Y30890000D03*
X35490000Y30890000D03*
X34490000Y30890000D03*
X33490000Y30890000D03*
X32490000Y30890000D03*
X31490000Y30890000D03*
X30490000Y30890000D03*
X29490000Y30890000D03*
X28490000Y30890000D03*
X27490000Y30890000D03*
X26490000Y30890000D03*
X25490000Y30890000D03*
X24490000Y30890000D03*
X23490000Y30890000D03*
X22490000Y30890000D03*
X21490000Y30890000D03*
X20490000Y30890000D03*
X19490000Y30890000D03*
X40490000Y31890000D03*
X39490000Y31890000D03*
X38490000Y31890000D03*
X37490000Y31890000D03*
X36490000Y31890000D03*
X35490000Y31890000D03*
X34490000Y31890000D03*
X33490000Y31890000D03*
X32490000Y31890000D03*
X31490000Y31890000D03*
X30490000Y31890000D03*
X29490000Y31890000D03*
X28490000Y31890000D03*
X27490000Y31890000D03*
X26490000Y31890000D03*
X25490000Y31890000D03*
X24490000Y31890000D03*
X23490000Y31890000D03*
X22490000Y31890000D03*
X21490000Y31890000D03*
X20490000Y31890000D03*
X19490000Y31890000D03*
X40490000Y32890000D03*
X39490000Y32890000D03*
X38490000Y32890000D03*
X37490000Y32890000D03*
X36490000Y32890000D03*
X35490000Y32890000D03*
X34490000Y32890000D03*
X33490000Y32890000D03*
X32490000Y32890000D03*
X31490000Y32890000D03*
X30490000Y32890000D03*
X29490000Y32890000D03*
X28490000Y32890000D03*
X27490000Y32890000D03*
X26490000Y32890000D03*
X25490000Y32890000D03*
X24490000Y32890000D03*
X23490000Y32890000D03*
X22490000Y32890000D03*
X21490000Y32890000D03*
X20490000Y32890000D03*
X19490000Y32890000D03*
X40490000Y33890000D03*
X39490000Y33890000D03*
X38490000Y33890000D03*
X37490000Y33890000D03*
X36490000Y33890000D03*
X35490000Y33890000D03*
X34490000Y33890000D03*
X33490000Y33890000D03*
X32490000Y33890000D03*
X31490000Y33890000D03*
X30490000Y33890000D03*
X29490000Y33890000D03*
X28490000Y33890000D03*
X27490000Y33890000D03*
X26490000Y33890000D03*
X25490000Y33890000D03*
X24490000Y33890000D03*
X23490000Y33890000D03*
X22490000Y33890000D03*
X21490000Y33890000D03*
X20490000Y33890000D03*
X19490000Y33890000D03*
X40490000Y34890000D03*
X39490000Y34890000D03*
X38490000Y34890000D03*
X37490000Y34890000D03*
X36490000Y34890000D03*
X35490000Y34890000D03*
X34490000Y34890000D03*
X33490000Y34890000D03*
X32490000Y34890000D03*
X31490000Y34890000D03*
X30490000Y34890000D03*
X29490000Y34890000D03*
X28490000Y34890000D03*
X27490000Y34890000D03*
X26490000Y34890000D03*
X25490000Y34890000D03*
X24490000Y34890000D03*
X23490000Y34890000D03*
X22490000Y34890000D03*
X21490000Y34890000D03*
X20490000Y34890000D03*
X19490000Y34890000D03*
X40490000Y35890000D03*
X39490000Y35890000D03*
X38490000Y35890000D03*
X37490000Y35890000D03*
X36490000Y35890000D03*
X35490000Y35890000D03*
X34490000Y35890000D03*
X33490000Y35890000D03*
X32490000Y35890000D03*
X31490000Y35890000D03*
X30490000Y35890000D03*
X29490000Y35890000D03*
X28490000Y35890000D03*
X27490000Y35890000D03*
X26490000Y35890000D03*
X25490000Y35890000D03*
X24490000Y35890000D03*
X23490000Y35890000D03*
X22490000Y35890000D03*
X21490000Y35890000D03*
X20490000Y35890000D03*
X19490000Y35890000D03*
D10*
G36*
X49446958Y7709290D02*
G01*
X49461276Y7707166D01*
X49475317Y7703649D01*
X49488946Y7698772D01*
X49502031Y7692583D01*
X49514447Y7685142D01*
X49526073Y7676519D01*
X49536798Y7666798D01*
X49546519Y7656073D01*
X49555142Y7644447D01*
X49562583Y7632031D01*
X49568772Y7618946D01*
X49573649Y7605317D01*
X49577166Y7591276D01*
X49579290Y7576958D01*
X49580000Y7562500D01*
X49580000Y7217500D01*
X49579290Y7203042D01*
X49577166Y7188724D01*
X49573649Y7174683D01*
X49568772Y7161054D01*
X49562583Y7147969D01*
X49555142Y7135553D01*
X49546519Y7123927D01*
X49536798Y7113202D01*
X49526073Y7103481D01*
X49514447Y7094858D01*
X49502031Y7087417D01*
X49488946Y7081228D01*
X49475317Y7076351D01*
X49461276Y7072834D01*
X49446958Y7070710D01*
X49432500Y7070000D01*
X49137500Y7070000D01*
X49123042Y7070710D01*
X49108724Y7072834D01*
X49094683Y7076351D01*
X49081054Y7081228D01*
X49067969Y7087417D01*
X49055553Y7094858D01*
X49043927Y7103481D01*
X49033202Y7113202D01*
X49023481Y7123927D01*
X49014858Y7135553D01*
X49007417Y7147969D01*
X49001228Y7161054D01*
X48996351Y7174683D01*
X48992834Y7188724D01*
X48990710Y7203042D01*
X48990000Y7217500D01*
X48990000Y7562500D01*
X48990710Y7576958D01*
X48992834Y7591276D01*
X48996351Y7605317D01*
X49001228Y7618946D01*
X49007417Y7632031D01*
X49014858Y7644447D01*
X49023481Y7656073D01*
X49033202Y7666798D01*
X49043927Y7676519D01*
X49055553Y7685142D01*
X49067969Y7692583D01*
X49081054Y7698772D01*
X49094683Y7703649D01*
X49108724Y7707166D01*
X49123042Y7709290D01*
X49137500Y7710000D01*
X49432500Y7710000D01*
X49446958Y7709290D01*
G37*
G36*
X48476958Y7709290D02*
G01*
X48491276Y7707166D01*
X48505317Y7703649D01*
X48518946Y7698772D01*
X48532031Y7692583D01*
X48544447Y7685142D01*
X48556073Y7676519D01*
X48566798Y7666798D01*
X48576519Y7656073D01*
X48585142Y7644447D01*
X48592583Y7632031D01*
X48598772Y7618946D01*
X48603649Y7605317D01*
X48607166Y7591276D01*
X48609290Y7576958D01*
X48610000Y7562500D01*
X48610000Y7217500D01*
X48609290Y7203042D01*
X48607166Y7188724D01*
X48603649Y7174683D01*
X48598772Y7161054D01*
X48592583Y7147969D01*
X48585142Y7135553D01*
X48576519Y7123927D01*
X48566798Y7113202D01*
X48556073Y7103481D01*
X48544447Y7094858D01*
X48532031Y7087417D01*
X48518946Y7081228D01*
X48505317Y7076351D01*
X48491276Y7072834D01*
X48476958Y7070710D01*
X48462500Y7070000D01*
X48167500Y7070000D01*
X48153042Y7070710D01*
X48138724Y7072834D01*
X48124683Y7076351D01*
X48111054Y7081228D01*
X48097969Y7087417D01*
X48085553Y7094858D01*
X48073927Y7103481D01*
X48063202Y7113202D01*
X48053481Y7123927D01*
X48044858Y7135553D01*
X48037417Y7147969D01*
X48031228Y7161054D01*
X48026351Y7174683D01*
X48022834Y7188724D01*
X48020710Y7203042D01*
X48020000Y7217500D01*
X48020000Y7562500D01*
X48020710Y7576958D01*
X48022834Y7591276D01*
X48026351Y7605317D01*
X48031228Y7618946D01*
X48037417Y7632031D01*
X48044858Y7644447D01*
X48053481Y7656073D01*
X48063202Y7666798D01*
X48073927Y7676519D01*
X48085553Y7685142D01*
X48097969Y7692583D01*
X48111054Y7698772D01*
X48124683Y7703649D01*
X48138724Y7707166D01*
X48153042Y7709290D01*
X48167500Y7710000D01*
X48462500Y7710000D01*
X48476958Y7709290D01*
G37*
G36*
X20946958Y8109290D02*
G01*
X20961276Y8107166D01*
X20975317Y8103649D01*
X20988946Y8098772D01*
X21002031Y8092583D01*
X21014447Y8085142D01*
X21026073Y8076519D01*
X21036798Y8066798D01*
X21046519Y8056073D01*
X21055142Y8044447D01*
X21062583Y8032031D01*
X21068772Y8018946D01*
X21073649Y8005317D01*
X21077166Y7991276D01*
X21079290Y7976958D01*
X21080000Y7962500D01*
X21080000Y7617500D01*
X21079290Y7603042D01*
X21077166Y7588724D01*
X21073649Y7574683D01*
X21068772Y7561054D01*
X21062583Y7547969D01*
X21055142Y7535553D01*
X21046519Y7523927D01*
X21036798Y7513202D01*
X21026073Y7503481D01*
X21014447Y7494858D01*
X21002031Y7487417D01*
X20988946Y7481228D01*
X20975317Y7476351D01*
X20961276Y7472834D01*
X20946958Y7470710D01*
X20932500Y7470000D01*
X20637500Y7470000D01*
X20623042Y7470710D01*
X20608724Y7472834D01*
X20594683Y7476351D01*
X20581054Y7481228D01*
X20567969Y7487417D01*
X20555553Y7494858D01*
X20543927Y7503481D01*
X20533202Y7513202D01*
X20523481Y7523927D01*
X20514858Y7535553D01*
X20507417Y7547969D01*
X20501228Y7561054D01*
X20496351Y7574683D01*
X20492834Y7588724D01*
X20490710Y7603042D01*
X20490000Y7617500D01*
X20490000Y7962500D01*
X20490710Y7976958D01*
X20492834Y7991276D01*
X20496351Y8005317D01*
X20501228Y8018946D01*
X20507417Y8032031D01*
X20514858Y8044447D01*
X20523481Y8056073D01*
X20533202Y8066798D01*
X20543927Y8076519D01*
X20555553Y8085142D01*
X20567969Y8092583D01*
X20581054Y8098772D01*
X20594683Y8103649D01*
X20608724Y8107166D01*
X20623042Y8109290D01*
X20637500Y8110000D01*
X20932500Y8110000D01*
X20946958Y8109290D01*
G37*
G36*
X19976958Y8109290D02*
G01*
X19991276Y8107166D01*
X20005317Y8103649D01*
X20018946Y8098772D01*
X20032031Y8092583D01*
X20044447Y8085142D01*
X20056073Y8076519D01*
X20066798Y8066798D01*
X20076519Y8056073D01*
X20085142Y8044447D01*
X20092583Y8032031D01*
X20098772Y8018946D01*
X20103649Y8005317D01*
X20107166Y7991276D01*
X20109290Y7976958D01*
X20110000Y7962500D01*
X20110000Y7617500D01*
X20109290Y7603042D01*
X20107166Y7588724D01*
X20103649Y7574683D01*
X20098772Y7561054D01*
X20092583Y7547969D01*
X20085142Y7535553D01*
X20076519Y7523927D01*
X20066798Y7513202D01*
X20056073Y7503481D01*
X20044447Y7494858D01*
X20032031Y7487417D01*
X20018946Y7481228D01*
X20005317Y7476351D01*
X19991276Y7472834D01*
X19976958Y7470710D01*
X19962500Y7470000D01*
X19667500Y7470000D01*
X19653042Y7470710D01*
X19638724Y7472834D01*
X19624683Y7476351D01*
X19611054Y7481228D01*
X19597969Y7487417D01*
X19585553Y7494858D01*
X19573927Y7503481D01*
X19563202Y7513202D01*
X19553481Y7523927D01*
X19544858Y7535553D01*
X19537417Y7547969D01*
X19531228Y7561054D01*
X19526351Y7574683D01*
X19522834Y7588724D01*
X19520710Y7603042D01*
X19520000Y7617500D01*
X19520000Y7962500D01*
X19520710Y7976958D01*
X19522834Y7991276D01*
X19526351Y8005317D01*
X19531228Y8018946D01*
X19537417Y8032031D01*
X19544858Y8044447D01*
X19553481Y8056073D01*
X19563202Y8066798D01*
X19573927Y8076519D01*
X19585553Y8085142D01*
X19597969Y8092583D01*
X19611054Y8098772D01*
X19624683Y8103649D01*
X19638724Y8107166D01*
X19653042Y8109290D01*
X19667500Y8110000D01*
X19962500Y8110000D01*
X19976958Y8109290D01*
G37*
G36*
X51599752Y27544398D02*
G01*
X51611886Y27542598D01*
X51623786Y27539618D01*
X51635335Y27535485D01*
X51646425Y27530240D01*
X51656946Y27523934D01*
X51666799Y27516626D01*
X51675888Y27508388D01*
X51684126Y27499299D01*
X51691434Y27489446D01*
X51697740Y27478925D01*
X51702985Y27467835D01*
X51707118Y27456286D01*
X51710098Y27444386D01*
X51711898Y27432252D01*
X51712500Y27420000D01*
X51712500Y27170000D01*
X51711898Y27157748D01*
X51710098Y27145614D01*
X51707118Y27133714D01*
X51702985Y27122165D01*
X51697740Y27111075D01*
X51691434Y27100554D01*
X51684126Y27090701D01*
X51675888Y27081612D01*
X51666799Y27073374D01*
X51656946Y27066066D01*
X51646425Y27059760D01*
X51635335Y27054515D01*
X51623786Y27050382D01*
X51611886Y27047402D01*
X51599752Y27045602D01*
X51587500Y27045000D01*
X50937500Y27045000D01*
X50925248Y27045602D01*
X50913114Y27047402D01*
X50901214Y27050382D01*
X50889665Y27054515D01*
X50878575Y27059760D01*
X50868054Y27066066D01*
X50858201Y27073374D01*
X50849112Y27081612D01*
X50840874Y27090701D01*
X50833566Y27100554D01*
X50827260Y27111075D01*
X50822015Y27122165D01*
X50817882Y27133714D01*
X50814902Y27145614D01*
X50813102Y27157748D01*
X50812500Y27170000D01*
X50812500Y27420000D01*
X50813102Y27432252D01*
X50814902Y27444386D01*
X50817882Y27456286D01*
X50822015Y27467835D01*
X50827260Y27478925D01*
X50833566Y27489446D01*
X50840874Y27499299D01*
X50849112Y27508388D01*
X50858201Y27516626D01*
X50868054Y27523934D01*
X50878575Y27530240D01*
X50889665Y27535485D01*
X50901214Y27539618D01*
X50913114Y27542598D01*
X50925248Y27544398D01*
X50937500Y27545000D01*
X51587500Y27545000D01*
X51599752Y27544398D01*
G37*
G36*
X51599752Y26274398D02*
G01*
X51611886Y26272598D01*
X51623786Y26269618D01*
X51635335Y26265485D01*
X51646425Y26260240D01*
X51656946Y26253934D01*
X51666799Y26246626D01*
X51675888Y26238388D01*
X51684126Y26229299D01*
X51691434Y26219446D01*
X51697740Y26208925D01*
X51702985Y26197835D01*
X51707118Y26186286D01*
X51710098Y26174386D01*
X51711898Y26162252D01*
X51712500Y26150000D01*
X51712500Y25900000D01*
X51711898Y25887748D01*
X51710098Y25875614D01*
X51707118Y25863714D01*
X51702985Y25852165D01*
X51697740Y25841075D01*
X51691434Y25830554D01*
X51684126Y25820701D01*
X51675888Y25811612D01*
X51666799Y25803374D01*
X51656946Y25796066D01*
X51646425Y25789760D01*
X51635335Y25784515D01*
X51623786Y25780382D01*
X51611886Y25777402D01*
X51599752Y25775602D01*
X51587500Y25775000D01*
X50937500Y25775000D01*
X50925248Y25775602D01*
X50913114Y25777402D01*
X50901214Y25780382D01*
X50889665Y25784515D01*
X50878575Y25789760D01*
X50868054Y25796066D01*
X50858201Y25803374D01*
X50849112Y25811612D01*
X50840874Y25820701D01*
X50833566Y25830554D01*
X50827260Y25841075D01*
X50822015Y25852165D01*
X50817882Y25863714D01*
X50814902Y25875614D01*
X50813102Y25887748D01*
X50812500Y25900000D01*
X50812500Y26150000D01*
X50813102Y26162252D01*
X50814902Y26174386D01*
X50817882Y26186286D01*
X50822015Y26197835D01*
X50827260Y26208925D01*
X50833566Y26219446D01*
X50840874Y26229299D01*
X50849112Y26238388D01*
X50858201Y26246626D01*
X50868054Y26253934D01*
X50878575Y26260240D01*
X50889665Y26265485D01*
X50901214Y26269618D01*
X50913114Y26272598D01*
X50925248Y26274398D01*
X50937500Y26275000D01*
X51587500Y26275000D01*
X51599752Y26274398D01*
G37*
G36*
X51599752Y25004398D02*
G01*
X51611886Y25002598D01*
X51623786Y24999618D01*
X51635335Y24995485D01*
X51646425Y24990240D01*
X51656946Y24983934D01*
X51666799Y24976626D01*
X51675888Y24968388D01*
X51684126Y24959299D01*
X51691434Y24949446D01*
X51697740Y24938925D01*
X51702985Y24927835D01*
X51707118Y24916286D01*
X51710098Y24904386D01*
X51711898Y24892252D01*
X51712500Y24880000D01*
X51712500Y24630000D01*
X51711898Y24617748D01*
X51710098Y24605614D01*
X51707118Y24593714D01*
X51702985Y24582165D01*
X51697740Y24571075D01*
X51691434Y24560554D01*
X51684126Y24550701D01*
X51675888Y24541612D01*
X51666799Y24533374D01*
X51656946Y24526066D01*
X51646425Y24519760D01*
X51635335Y24514515D01*
X51623786Y24510382D01*
X51611886Y24507402D01*
X51599752Y24505602D01*
X51587500Y24505000D01*
X50937500Y24505000D01*
X50925248Y24505602D01*
X50913114Y24507402D01*
X50901214Y24510382D01*
X50889665Y24514515D01*
X50878575Y24519760D01*
X50868054Y24526066D01*
X50858201Y24533374D01*
X50849112Y24541612D01*
X50840874Y24550701D01*
X50833566Y24560554D01*
X50827260Y24571075D01*
X50822015Y24582165D01*
X50817882Y24593714D01*
X50814902Y24605614D01*
X50813102Y24617748D01*
X50812500Y24630000D01*
X50812500Y24880000D01*
X50813102Y24892252D01*
X50814902Y24904386D01*
X50817882Y24916286D01*
X50822015Y24927835D01*
X50827260Y24938925D01*
X50833566Y24949446D01*
X50840874Y24959299D01*
X50849112Y24968388D01*
X50858201Y24976626D01*
X50868054Y24983934D01*
X50878575Y24990240D01*
X50889665Y24995485D01*
X50901214Y24999618D01*
X50913114Y25002598D01*
X50925248Y25004398D01*
X50937500Y25005000D01*
X51587500Y25005000D01*
X51599752Y25004398D01*
G37*
G36*
X51599752Y23734398D02*
G01*
X51611886Y23732598D01*
X51623786Y23729618D01*
X51635335Y23725485D01*
X51646425Y23720240D01*
X51656946Y23713934D01*
X51666799Y23706626D01*
X51675888Y23698388D01*
X51684126Y23689299D01*
X51691434Y23679446D01*
X51697740Y23668925D01*
X51702985Y23657835D01*
X51707118Y23646286D01*
X51710098Y23634386D01*
X51711898Y23622252D01*
X51712500Y23610000D01*
X51712500Y23360000D01*
X51711898Y23347748D01*
X51710098Y23335614D01*
X51707118Y23323714D01*
X51702985Y23312165D01*
X51697740Y23301075D01*
X51691434Y23290554D01*
X51684126Y23280701D01*
X51675888Y23271612D01*
X51666799Y23263374D01*
X51656946Y23256066D01*
X51646425Y23249760D01*
X51635335Y23244515D01*
X51623786Y23240382D01*
X51611886Y23237402D01*
X51599752Y23235602D01*
X51587500Y23235000D01*
X50937500Y23235000D01*
X50925248Y23235602D01*
X50913114Y23237402D01*
X50901214Y23240382D01*
X50889665Y23244515D01*
X50878575Y23249760D01*
X50868054Y23256066D01*
X50858201Y23263374D01*
X50849112Y23271612D01*
X50840874Y23280701D01*
X50833566Y23290554D01*
X50827260Y23301075D01*
X50822015Y23312165D01*
X50817882Y23323714D01*
X50814902Y23335614D01*
X50813102Y23347748D01*
X50812500Y23360000D01*
X50812500Y23610000D01*
X50813102Y23622252D01*
X50814902Y23634386D01*
X50817882Y23646286D01*
X50822015Y23657835D01*
X50827260Y23668925D01*
X50833566Y23679446D01*
X50840874Y23689299D01*
X50849112Y23698388D01*
X50858201Y23706626D01*
X50868054Y23713934D01*
X50878575Y23720240D01*
X50889665Y23725485D01*
X50901214Y23729618D01*
X50913114Y23732598D01*
X50925248Y23734398D01*
X50937500Y23735000D01*
X51587500Y23735000D01*
X51599752Y23734398D01*
G37*
G36*
X43874752Y23734398D02*
G01*
X43886886Y23732598D01*
X43898786Y23729618D01*
X43910335Y23725485D01*
X43921425Y23720240D01*
X43931946Y23713934D01*
X43941799Y23706626D01*
X43950888Y23698388D01*
X43959126Y23689299D01*
X43966434Y23679446D01*
X43972740Y23668925D01*
X43977985Y23657835D01*
X43982118Y23646286D01*
X43985098Y23634386D01*
X43986898Y23622252D01*
X43987500Y23610000D01*
X43987500Y23360000D01*
X43986898Y23347748D01*
X43985098Y23335614D01*
X43982118Y23323714D01*
X43977985Y23312165D01*
X43972740Y23301075D01*
X43966434Y23290554D01*
X43959126Y23280701D01*
X43950888Y23271612D01*
X43941799Y23263374D01*
X43931946Y23256066D01*
X43921425Y23249760D01*
X43910335Y23244515D01*
X43898786Y23240382D01*
X43886886Y23237402D01*
X43874752Y23235602D01*
X43862500Y23235000D01*
X43212500Y23235000D01*
X43200248Y23235602D01*
X43188114Y23237402D01*
X43176214Y23240382D01*
X43164665Y23244515D01*
X43153575Y23249760D01*
X43143054Y23256066D01*
X43133201Y23263374D01*
X43124112Y23271612D01*
X43115874Y23280701D01*
X43108566Y23290554D01*
X43102260Y23301075D01*
X43097015Y23312165D01*
X43092882Y23323714D01*
X43089902Y23335614D01*
X43088102Y23347748D01*
X43087500Y23360000D01*
X43087500Y23610000D01*
X43088102Y23622252D01*
X43089902Y23634386D01*
X43092882Y23646286D01*
X43097015Y23657835D01*
X43102260Y23668925D01*
X43108566Y23679446D01*
X43115874Y23689299D01*
X43124112Y23698388D01*
X43133201Y23706626D01*
X43143054Y23713934D01*
X43153575Y23720240D01*
X43164665Y23725485D01*
X43176214Y23729618D01*
X43188114Y23732598D01*
X43200248Y23734398D01*
X43212500Y23735000D01*
X43862500Y23735000D01*
X43874752Y23734398D01*
G37*
G36*
X43874752Y25004398D02*
G01*
X43886886Y25002598D01*
X43898786Y24999618D01*
X43910335Y24995485D01*
X43921425Y24990240D01*
X43931946Y24983934D01*
X43941799Y24976626D01*
X43950888Y24968388D01*
X43959126Y24959299D01*
X43966434Y24949446D01*
X43972740Y24938925D01*
X43977985Y24927835D01*
X43982118Y24916286D01*
X43985098Y24904386D01*
X43986898Y24892252D01*
X43987500Y24880000D01*
X43987500Y24630000D01*
X43986898Y24617748D01*
X43985098Y24605614D01*
X43982118Y24593714D01*
X43977985Y24582165D01*
X43972740Y24571075D01*
X43966434Y24560554D01*
X43959126Y24550701D01*
X43950888Y24541612D01*
X43941799Y24533374D01*
X43931946Y24526066D01*
X43921425Y24519760D01*
X43910335Y24514515D01*
X43898786Y24510382D01*
X43886886Y24507402D01*
X43874752Y24505602D01*
X43862500Y24505000D01*
X43212500Y24505000D01*
X43200248Y24505602D01*
X43188114Y24507402D01*
X43176214Y24510382D01*
X43164665Y24514515D01*
X43153575Y24519760D01*
X43143054Y24526066D01*
X43133201Y24533374D01*
X43124112Y24541612D01*
X43115874Y24550701D01*
X43108566Y24560554D01*
X43102260Y24571075D01*
X43097015Y24582165D01*
X43092882Y24593714D01*
X43089902Y24605614D01*
X43088102Y24617748D01*
X43087500Y24630000D01*
X43087500Y24880000D01*
X43088102Y24892252D01*
X43089902Y24904386D01*
X43092882Y24916286D01*
X43097015Y24927835D01*
X43102260Y24938925D01*
X43108566Y24949446D01*
X43115874Y24959299D01*
X43124112Y24968388D01*
X43133201Y24976626D01*
X43143054Y24983934D01*
X43153575Y24990240D01*
X43164665Y24995485D01*
X43176214Y24999618D01*
X43188114Y25002598D01*
X43200248Y25004398D01*
X43212500Y25005000D01*
X43862500Y25005000D01*
X43874752Y25004398D01*
G37*
G36*
X43874752Y26274398D02*
G01*
X43886886Y26272598D01*
X43898786Y26269618D01*
X43910335Y26265485D01*
X43921425Y26260240D01*
X43931946Y26253934D01*
X43941799Y26246626D01*
X43950888Y26238388D01*
X43959126Y26229299D01*
X43966434Y26219446D01*
X43972740Y26208925D01*
X43977985Y26197835D01*
X43982118Y26186286D01*
X43985098Y26174386D01*
X43986898Y26162252D01*
X43987500Y26150000D01*
X43987500Y25900000D01*
X43986898Y25887748D01*
X43985098Y25875614D01*
X43982118Y25863714D01*
X43977985Y25852165D01*
X43972740Y25841075D01*
X43966434Y25830554D01*
X43959126Y25820701D01*
X43950888Y25811612D01*
X43941799Y25803374D01*
X43931946Y25796066D01*
X43921425Y25789760D01*
X43910335Y25784515D01*
X43898786Y25780382D01*
X43886886Y25777402D01*
X43874752Y25775602D01*
X43862500Y25775000D01*
X43212500Y25775000D01*
X43200248Y25775602D01*
X43188114Y25777402D01*
X43176214Y25780382D01*
X43164665Y25784515D01*
X43153575Y25789760D01*
X43143054Y25796066D01*
X43133201Y25803374D01*
X43124112Y25811612D01*
X43115874Y25820701D01*
X43108566Y25830554D01*
X43102260Y25841075D01*
X43097015Y25852165D01*
X43092882Y25863714D01*
X43089902Y25875614D01*
X43088102Y25887748D01*
X43087500Y25900000D01*
X43087500Y26150000D01*
X43088102Y26162252D01*
X43089902Y26174386D01*
X43092882Y26186286D01*
X43097015Y26197835D01*
X43102260Y26208925D01*
X43108566Y26219446D01*
X43115874Y26229299D01*
X43124112Y26238388D01*
X43133201Y26246626D01*
X43143054Y26253934D01*
X43153575Y26260240D01*
X43164665Y26265485D01*
X43176214Y26269618D01*
X43188114Y26272598D01*
X43200248Y26274398D01*
X43212500Y26275000D01*
X43862500Y26275000D01*
X43874752Y26274398D01*
G37*
G36*
X43874752Y27544398D02*
G01*
X43886886Y27542598D01*
X43898786Y27539618D01*
X43910335Y27535485D01*
X43921425Y27530240D01*
X43931946Y27523934D01*
X43941799Y27516626D01*
X43950888Y27508388D01*
X43959126Y27499299D01*
X43966434Y27489446D01*
X43972740Y27478925D01*
X43977985Y27467835D01*
X43982118Y27456286D01*
X43985098Y27444386D01*
X43986898Y27432252D01*
X43987500Y27420000D01*
X43987500Y27170000D01*
X43986898Y27157748D01*
X43985098Y27145614D01*
X43982118Y27133714D01*
X43977985Y27122165D01*
X43972740Y27111075D01*
X43966434Y27100554D01*
X43959126Y27090701D01*
X43950888Y27081612D01*
X43941799Y27073374D01*
X43931946Y27066066D01*
X43921425Y27059760D01*
X43910335Y27054515D01*
X43898786Y27050382D01*
X43886886Y27047402D01*
X43874752Y27045602D01*
X43862500Y27045000D01*
X43212500Y27045000D01*
X43200248Y27045602D01*
X43188114Y27047402D01*
X43176214Y27050382D01*
X43164665Y27054515D01*
X43153575Y27059760D01*
X43143054Y27066066D01*
X43133201Y27073374D01*
X43124112Y27081612D01*
X43115874Y27090701D01*
X43108566Y27100554D01*
X43102260Y27111075D01*
X43097015Y27122165D01*
X43092882Y27133714D01*
X43089902Y27145614D01*
X43088102Y27157748D01*
X43087500Y27170000D01*
X43087500Y27420000D01*
X43088102Y27432252D01*
X43089902Y27444386D01*
X43092882Y27456286D01*
X43097015Y27467835D01*
X43102260Y27478925D01*
X43108566Y27489446D01*
X43115874Y27499299D01*
X43124112Y27508388D01*
X43133201Y27516626D01*
X43143054Y27523934D01*
X43153575Y27530240D01*
X43164665Y27535485D01*
X43176214Y27539618D01*
X43188114Y27542598D01*
X43200248Y27544398D01*
X43212500Y27545000D01*
X43862500Y27545000D01*
X43874752Y27544398D01*
G37*
G36*
X31986958Y11544290D02*
G01*
X32001276Y11542166D01*
X32015317Y11538649D01*
X32028946Y11533772D01*
X32042031Y11527583D01*
X32054447Y11520142D01*
X32066073Y11511519D01*
X32076798Y11501798D01*
X32086519Y11491073D01*
X32095142Y11479447D01*
X32102583Y11467031D01*
X32108772Y11453946D01*
X32113649Y11440317D01*
X32117166Y11426276D01*
X32119290Y11411958D01*
X32120000Y11397500D01*
X32120000Y11102500D01*
X32119290Y11088042D01*
X32117166Y11073724D01*
X32113649Y11059683D01*
X32108772Y11046054D01*
X32102583Y11032969D01*
X32095142Y11020553D01*
X32086519Y11008927D01*
X32076798Y10998202D01*
X32066073Y10988481D01*
X32054447Y10979858D01*
X32042031Y10972417D01*
X32028946Y10966228D01*
X32015317Y10961351D01*
X32001276Y10957834D01*
X31986958Y10955710D01*
X31972500Y10955000D01*
X31627500Y10955000D01*
X31613042Y10955710D01*
X31598724Y10957834D01*
X31584683Y10961351D01*
X31571054Y10966228D01*
X31557969Y10972417D01*
X31545553Y10979858D01*
X31533927Y10988481D01*
X31523202Y10998202D01*
X31513481Y11008927D01*
X31504858Y11020553D01*
X31497417Y11032969D01*
X31491228Y11046054D01*
X31486351Y11059683D01*
X31482834Y11073724D01*
X31480710Y11088042D01*
X31480000Y11102500D01*
X31480000Y11397500D01*
X31480710Y11411958D01*
X31482834Y11426276D01*
X31486351Y11440317D01*
X31491228Y11453946D01*
X31497417Y11467031D01*
X31504858Y11479447D01*
X31513481Y11491073D01*
X31523202Y11501798D01*
X31533927Y11511519D01*
X31545553Y11520142D01*
X31557969Y11527583D01*
X31571054Y11533772D01*
X31584683Y11538649D01*
X31598724Y11542166D01*
X31613042Y11544290D01*
X31627500Y11545000D01*
X31972500Y11545000D01*
X31986958Y11544290D01*
G37*
G36*
X31986958Y10574290D02*
G01*
X32001276Y10572166D01*
X32015317Y10568649D01*
X32028946Y10563772D01*
X32042031Y10557583D01*
X32054447Y10550142D01*
X32066073Y10541519D01*
X32076798Y10531798D01*
X32086519Y10521073D01*
X32095142Y10509447D01*
X32102583Y10497031D01*
X32108772Y10483946D01*
X32113649Y10470317D01*
X32117166Y10456276D01*
X32119290Y10441958D01*
X32120000Y10427500D01*
X32120000Y10132500D01*
X32119290Y10118042D01*
X32117166Y10103724D01*
X32113649Y10089683D01*
X32108772Y10076054D01*
X32102583Y10062969D01*
X32095142Y10050553D01*
X32086519Y10038927D01*
X32076798Y10028202D01*
X32066073Y10018481D01*
X32054447Y10009858D01*
X32042031Y10002417D01*
X32028946Y9996228D01*
X32015317Y9991351D01*
X32001276Y9987834D01*
X31986958Y9985710D01*
X31972500Y9985000D01*
X31627500Y9985000D01*
X31613042Y9985710D01*
X31598724Y9987834D01*
X31584683Y9991351D01*
X31571054Y9996228D01*
X31557969Y10002417D01*
X31545553Y10009858D01*
X31533927Y10018481D01*
X31523202Y10028202D01*
X31513481Y10038927D01*
X31504858Y10050553D01*
X31497417Y10062969D01*
X31491228Y10076054D01*
X31486351Y10089683D01*
X31482834Y10103724D01*
X31480710Y10118042D01*
X31480000Y10132500D01*
X31480000Y10427500D01*
X31480710Y10441958D01*
X31482834Y10456276D01*
X31486351Y10470317D01*
X31491228Y10483946D01*
X31497417Y10497031D01*
X31504858Y10509447D01*
X31513481Y10521073D01*
X31523202Y10531798D01*
X31533927Y10541519D01*
X31545553Y10550142D01*
X31557969Y10557583D01*
X31571054Y10563772D01*
X31584683Y10568649D01*
X31598724Y10572166D01*
X31613042Y10574290D01*
X31627500Y10575000D01*
X31972500Y10575000D01*
X31986958Y10574290D01*
G37*
D14*
X30515000Y6525000D03*
X29465000Y6525000D03*
X29465000Y8975000D03*
X30515000Y8975000D03*
D15*
X38040000Y3490000D03*
X38040000Y5090000D03*
X33940000Y3490000D03*
X33940000Y5090000D03*
X38050000Y7840000D03*
X38050000Y9440000D03*
X33950000Y7840000D03*
X33950000Y9440000D03*
D10*
G36*
X24186958Y42669290D02*
G01*
X24201276Y42667166D01*
X24215317Y42663649D01*
X24228946Y42658772D01*
X24242031Y42652583D01*
X24254447Y42645142D01*
X24266073Y42636519D01*
X24276798Y42626798D01*
X24286519Y42616073D01*
X24295142Y42604447D01*
X24302583Y42592031D01*
X24308772Y42578946D01*
X24313649Y42565317D01*
X24317166Y42551276D01*
X24319290Y42536958D01*
X24320000Y42522500D01*
X24320000Y42227500D01*
X24319290Y42213042D01*
X24317166Y42198724D01*
X24313649Y42184683D01*
X24308772Y42171054D01*
X24302583Y42157969D01*
X24295142Y42145553D01*
X24286519Y42133927D01*
X24276798Y42123202D01*
X24266073Y42113481D01*
X24254447Y42104858D01*
X24242031Y42097417D01*
X24228946Y42091228D01*
X24215317Y42086351D01*
X24201276Y42082834D01*
X24186958Y42080710D01*
X24172500Y42080000D01*
X23827500Y42080000D01*
X23813042Y42080710D01*
X23798724Y42082834D01*
X23784683Y42086351D01*
X23771054Y42091228D01*
X23757969Y42097417D01*
X23745553Y42104858D01*
X23733927Y42113481D01*
X23723202Y42123202D01*
X23713481Y42133927D01*
X23704858Y42145553D01*
X23697417Y42157969D01*
X23691228Y42171054D01*
X23686351Y42184683D01*
X23682834Y42198724D01*
X23680710Y42213042D01*
X23680000Y42227500D01*
X23680000Y42522500D01*
X23680710Y42536958D01*
X23682834Y42551276D01*
X23686351Y42565317D01*
X23691228Y42578946D01*
X23697417Y42592031D01*
X23704858Y42604447D01*
X23713481Y42616073D01*
X23723202Y42626798D01*
X23733927Y42636519D01*
X23745553Y42645142D01*
X23757969Y42652583D01*
X23771054Y42658772D01*
X23784683Y42663649D01*
X23798724Y42667166D01*
X23813042Y42669290D01*
X23827500Y42670000D01*
X24172500Y42670000D01*
X24186958Y42669290D01*
G37*
G36*
X24186958Y41699290D02*
G01*
X24201276Y41697166D01*
X24215317Y41693649D01*
X24228946Y41688772D01*
X24242031Y41682583D01*
X24254447Y41675142D01*
X24266073Y41666519D01*
X24276798Y41656798D01*
X24286519Y41646073D01*
X24295142Y41634447D01*
X24302583Y41622031D01*
X24308772Y41608946D01*
X24313649Y41595317D01*
X24317166Y41581276D01*
X24319290Y41566958D01*
X24320000Y41552500D01*
X24320000Y41257500D01*
X24319290Y41243042D01*
X24317166Y41228724D01*
X24313649Y41214683D01*
X24308772Y41201054D01*
X24302583Y41187969D01*
X24295142Y41175553D01*
X24286519Y41163927D01*
X24276798Y41153202D01*
X24266073Y41143481D01*
X24254447Y41134858D01*
X24242031Y41127417D01*
X24228946Y41121228D01*
X24215317Y41116351D01*
X24201276Y41112834D01*
X24186958Y41110710D01*
X24172500Y41110000D01*
X23827500Y41110000D01*
X23813042Y41110710D01*
X23798724Y41112834D01*
X23784683Y41116351D01*
X23771054Y41121228D01*
X23757969Y41127417D01*
X23745553Y41134858D01*
X23733927Y41143481D01*
X23723202Y41153202D01*
X23713481Y41163927D01*
X23704858Y41175553D01*
X23697417Y41187969D01*
X23691228Y41201054D01*
X23686351Y41214683D01*
X23682834Y41228724D01*
X23680710Y41243042D01*
X23680000Y41257500D01*
X23680000Y41552500D01*
X23680710Y41566958D01*
X23682834Y41581276D01*
X23686351Y41595317D01*
X23691228Y41608946D01*
X23697417Y41622031D01*
X23704858Y41634447D01*
X23713481Y41646073D01*
X23723202Y41656798D01*
X23733927Y41666519D01*
X23745553Y41675142D01*
X23757969Y41682583D01*
X23771054Y41688772D01*
X23784683Y41693649D01*
X23798724Y41697166D01*
X23813042Y41699290D01*
X23827500Y41700000D01*
X24172500Y41700000D01*
X24186958Y41699290D01*
G37*
G36*
X25186958Y42669290D02*
G01*
X25201276Y42667166D01*
X25215317Y42663649D01*
X25228946Y42658772D01*
X25242031Y42652583D01*
X25254447Y42645142D01*
X25266073Y42636519D01*
X25276798Y42626798D01*
X25286519Y42616073D01*
X25295142Y42604447D01*
X25302583Y42592031D01*
X25308772Y42578946D01*
X25313649Y42565317D01*
X25317166Y42551276D01*
X25319290Y42536958D01*
X25320000Y42522500D01*
X25320000Y42227500D01*
X25319290Y42213042D01*
X25317166Y42198724D01*
X25313649Y42184683D01*
X25308772Y42171054D01*
X25302583Y42157969D01*
X25295142Y42145553D01*
X25286519Y42133927D01*
X25276798Y42123202D01*
X25266073Y42113481D01*
X25254447Y42104858D01*
X25242031Y42097417D01*
X25228946Y42091228D01*
X25215317Y42086351D01*
X25201276Y42082834D01*
X25186958Y42080710D01*
X25172500Y42080000D01*
X24827500Y42080000D01*
X24813042Y42080710D01*
X24798724Y42082834D01*
X24784683Y42086351D01*
X24771054Y42091228D01*
X24757969Y42097417D01*
X24745553Y42104858D01*
X24733927Y42113481D01*
X24723202Y42123202D01*
X24713481Y42133927D01*
X24704858Y42145553D01*
X24697417Y42157969D01*
X24691228Y42171054D01*
X24686351Y42184683D01*
X24682834Y42198724D01*
X24680710Y42213042D01*
X24680000Y42227500D01*
X24680000Y42522500D01*
X24680710Y42536958D01*
X24682834Y42551276D01*
X24686351Y42565317D01*
X24691228Y42578946D01*
X24697417Y42592031D01*
X24704858Y42604447D01*
X24713481Y42616073D01*
X24723202Y42626798D01*
X24733927Y42636519D01*
X24745553Y42645142D01*
X24757969Y42652583D01*
X24771054Y42658772D01*
X24784683Y42663649D01*
X24798724Y42667166D01*
X24813042Y42669290D01*
X24827500Y42670000D01*
X25172500Y42670000D01*
X25186958Y42669290D01*
G37*
G36*
X25186958Y41699290D02*
G01*
X25201276Y41697166D01*
X25215317Y41693649D01*
X25228946Y41688772D01*
X25242031Y41682583D01*
X25254447Y41675142D01*
X25266073Y41666519D01*
X25276798Y41656798D01*
X25286519Y41646073D01*
X25295142Y41634447D01*
X25302583Y41622031D01*
X25308772Y41608946D01*
X25313649Y41595317D01*
X25317166Y41581276D01*
X25319290Y41566958D01*
X25320000Y41552500D01*
X25320000Y41257500D01*
X25319290Y41243042D01*
X25317166Y41228724D01*
X25313649Y41214683D01*
X25308772Y41201054D01*
X25302583Y41187969D01*
X25295142Y41175553D01*
X25286519Y41163927D01*
X25276798Y41153202D01*
X25266073Y41143481D01*
X25254447Y41134858D01*
X25242031Y41127417D01*
X25228946Y41121228D01*
X25215317Y41116351D01*
X25201276Y41112834D01*
X25186958Y41110710D01*
X25172500Y41110000D01*
X24827500Y41110000D01*
X24813042Y41110710D01*
X24798724Y41112834D01*
X24784683Y41116351D01*
X24771054Y41121228D01*
X24757969Y41127417D01*
X24745553Y41134858D01*
X24733927Y41143481D01*
X24723202Y41153202D01*
X24713481Y41163927D01*
X24704858Y41175553D01*
X24697417Y41187969D01*
X24691228Y41201054D01*
X24686351Y41214683D01*
X24682834Y41228724D01*
X24680710Y41243042D01*
X24680000Y41257500D01*
X24680000Y41552500D01*
X24680710Y41566958D01*
X24682834Y41581276D01*
X24686351Y41595317D01*
X24691228Y41608946D01*
X24697417Y41622031D01*
X24704858Y41634447D01*
X24713481Y41646073D01*
X24723202Y41656798D01*
X24733927Y41666519D01*
X24745553Y41675142D01*
X24757969Y41682583D01*
X24771054Y41688772D01*
X24784683Y41693649D01*
X24798724Y41697166D01*
X24813042Y41699290D01*
X24827500Y41700000D01*
X25172500Y41700000D01*
X25186958Y41699290D01*
G37*
G36*
X54086958Y25999290D02*
G01*
X54101276Y25997166D01*
X54115317Y25993649D01*
X54128946Y25988772D01*
X54142031Y25982583D01*
X54154447Y25975142D01*
X54166073Y25966519D01*
X54176798Y25956798D01*
X54186519Y25946073D01*
X54195142Y25934447D01*
X54202583Y25922031D01*
X54208772Y25908946D01*
X54213649Y25895317D01*
X54217166Y25881276D01*
X54219290Y25866958D01*
X54220000Y25852500D01*
X54220000Y25557500D01*
X54219290Y25543042D01*
X54217166Y25528724D01*
X54213649Y25514683D01*
X54208772Y25501054D01*
X54202583Y25487969D01*
X54195142Y25475553D01*
X54186519Y25463927D01*
X54176798Y25453202D01*
X54166073Y25443481D01*
X54154447Y25434858D01*
X54142031Y25427417D01*
X54128946Y25421228D01*
X54115317Y25416351D01*
X54101276Y25412834D01*
X54086958Y25410710D01*
X54072500Y25410000D01*
X53727500Y25410000D01*
X53713042Y25410710D01*
X53698724Y25412834D01*
X53684683Y25416351D01*
X53671054Y25421228D01*
X53657969Y25427417D01*
X53645553Y25434858D01*
X53633927Y25443481D01*
X53623202Y25453202D01*
X53613481Y25463927D01*
X53604858Y25475553D01*
X53597417Y25487969D01*
X53591228Y25501054D01*
X53586351Y25514683D01*
X53582834Y25528724D01*
X53580710Y25543042D01*
X53580000Y25557500D01*
X53580000Y25852500D01*
X53580710Y25866958D01*
X53582834Y25881276D01*
X53586351Y25895317D01*
X53591228Y25908946D01*
X53597417Y25922031D01*
X53604858Y25934447D01*
X53613481Y25946073D01*
X53623202Y25956798D01*
X53633927Y25966519D01*
X53645553Y25975142D01*
X53657969Y25982583D01*
X53671054Y25988772D01*
X53684683Y25993649D01*
X53698724Y25997166D01*
X53713042Y25999290D01*
X53727500Y26000000D01*
X54072500Y26000000D01*
X54086958Y25999290D01*
G37*
G36*
X54086958Y26969290D02*
G01*
X54101276Y26967166D01*
X54115317Y26963649D01*
X54128946Y26958772D01*
X54142031Y26952583D01*
X54154447Y26945142D01*
X54166073Y26936519D01*
X54176798Y26926798D01*
X54186519Y26916073D01*
X54195142Y26904447D01*
X54202583Y26892031D01*
X54208772Y26878946D01*
X54213649Y26865317D01*
X54217166Y26851276D01*
X54219290Y26836958D01*
X54220000Y26822500D01*
X54220000Y26527500D01*
X54219290Y26513042D01*
X54217166Y26498724D01*
X54213649Y26484683D01*
X54208772Y26471054D01*
X54202583Y26457969D01*
X54195142Y26445553D01*
X54186519Y26433927D01*
X54176798Y26423202D01*
X54166073Y26413481D01*
X54154447Y26404858D01*
X54142031Y26397417D01*
X54128946Y26391228D01*
X54115317Y26386351D01*
X54101276Y26382834D01*
X54086958Y26380710D01*
X54072500Y26380000D01*
X53727500Y26380000D01*
X53713042Y26380710D01*
X53698724Y26382834D01*
X53684683Y26386351D01*
X53671054Y26391228D01*
X53657969Y26397417D01*
X53645553Y26404858D01*
X53633927Y26413481D01*
X53623202Y26423202D01*
X53613481Y26433927D01*
X53604858Y26445553D01*
X53597417Y26457969D01*
X53591228Y26471054D01*
X53586351Y26484683D01*
X53582834Y26498724D01*
X53580710Y26513042D01*
X53580000Y26527500D01*
X53580000Y26822500D01*
X53580710Y26836958D01*
X53582834Y26851276D01*
X53586351Y26865317D01*
X53591228Y26878946D01*
X53597417Y26892031D01*
X53604858Y26904447D01*
X53613481Y26916073D01*
X53623202Y26926798D01*
X53633927Y26936519D01*
X53645553Y26945142D01*
X53657969Y26952583D01*
X53671054Y26958772D01*
X53684683Y26963649D01*
X53698724Y26967166D01*
X53713042Y26969290D01*
X53727500Y26970000D01*
X54072500Y26970000D01*
X54086958Y26969290D01*
G37*
M02*
