G04 #@! TF.GenerationSoftware,KiCad,Pcbnew,5.1.6-c6e7f7d~87~ubuntu20.04.1*
G04 #@! TF.CreationDate,2020-09-18T07:25:33-07:00*
G04 #@! TF.ProjectId,artix7-pcie-v2,61727469-7837-42d7-9063-69652d76322e,rev?*
G04 #@! TF.SameCoordinates,PX69f4060PY6b00940*
G04 #@! TF.FileFunction,Soldermask,Top*
G04 #@! TF.FilePolarity,Negative*
%FSLAX46Y46*%
G04 Gerber Fmt 4.6, Leading zero omitted, Abs format (unit mm)*
G04 Created by KiCad (PCBNEW 5.1.6-c6e7f7d~87~ubuntu20.04.1) date 2020-09-18 07:25:33*
%MOMM*%
%LPD*%
G01*
G04 APERTURE LIST*
%ADD10C,1.448000*%
%ADD11R,1.070000X0.670000*%
%ADD12C,3.020000*%
%ADD13C,1.220000*%
%ADD14C,4.720000*%
%ADD15R,1.120000X1.120000*%
%ADD16R,0.420000X2.670000*%
%ADD17C,0.570000*%
%ADD18O,1.520000X2.220000*%
%ADD19C,0.600000*%
%ADD20C,2.020000*%
%ADD21O,1.720000X1.720000*%
%ADD22R,1.720000X1.720000*%
%ADD23R,0.770000X0.870000*%
%ADD24C,1.520000*%
%ADD25O,1.747200X1.747200*%
%ADD26R,1.747200X1.747200*%
G04 APERTURE END LIST*
D10*
X47900000Y1200000D03*
X19130000Y49160000D03*
X11900000Y1200000D03*
G36*
G01*
X48599000Y7686500D02*
X48599000Y8041500D01*
G75*
G02*
X48751500Y8194000I152500J0D01*
G01*
X49056500Y8194000D01*
G75*
G02*
X49209000Y8041500I0J-152500D01*
G01*
X49209000Y7686500D01*
G75*
G02*
X49056500Y7534000I-152500J0D01*
G01*
X48751500Y7534000D01*
G75*
G02*
X48599000Y7686500I0J152500D01*
G01*
G37*
G36*
G01*
X47629000Y7686500D02*
X47629000Y8041500D01*
G75*
G02*
X47781500Y8194000I152500J0D01*
G01*
X48086500Y8194000D01*
G75*
G02*
X48239000Y8041500I0J-152500D01*
G01*
X48239000Y7686500D01*
G75*
G02*
X48086500Y7534000I-152500J0D01*
G01*
X47781500Y7534000D01*
G75*
G02*
X47629000Y7686500I0J152500D01*
G01*
G37*
G36*
G01*
X48599000Y6670500D02*
X48599000Y7025500D01*
G75*
G02*
X48751500Y7178000I152500J0D01*
G01*
X49056500Y7178000D01*
G75*
G02*
X49209000Y7025500I0J-152500D01*
G01*
X49209000Y6670500D01*
G75*
G02*
X49056500Y6518000I-152500J0D01*
G01*
X48751500Y6518000D01*
G75*
G02*
X48599000Y6670500I0J152500D01*
G01*
G37*
G36*
G01*
X47629000Y6670500D02*
X47629000Y7025500D01*
G75*
G02*
X47781500Y7178000I152500J0D01*
G01*
X48086500Y7178000D01*
G75*
G02*
X48239000Y7025500I0J-152500D01*
G01*
X48239000Y6670500D01*
G75*
G02*
X48086500Y6518000I-152500J0D01*
G01*
X47781500Y6518000D01*
G75*
G02*
X47629000Y6670500I0J152500D01*
G01*
G37*
D11*
X38040000Y2875000D03*
X38065000Y5025000D03*
X33915000Y2875000D03*
X33915000Y5025000D03*
X38050000Y7125000D03*
X38075000Y9275000D03*
X33925000Y7125000D03*
X33925000Y9275000D03*
D12*
X31920000Y48000000D03*
X45060000Y48000000D03*
D13*
X42490000Y44500000D03*
X40490000Y44500000D03*
X38490000Y44500000D03*
X36490000Y44500000D03*
X34490000Y44500000D03*
X34990000Y46000000D03*
X37490000Y46000000D03*
X39490000Y46000000D03*
X41990000Y46000000D03*
D14*
X50490000Y3890000D03*
X50490000Y46890000D03*
X9490000Y3890000D03*
X9490000Y46890000D03*
D15*
X22500000Y1140000D03*
X25500000Y1140000D03*
D16*
X24000000Y5700000D03*
D17*
X22000000Y4440000D03*
X26000000Y4440000D03*
D16*
X23350000Y5700000D03*
X22700000Y5700000D03*
X24650000Y5700000D03*
X25300000Y5700000D03*
D18*
X20400000Y2290000D03*
X27600000Y2290000D03*
X27600000Y5760000D03*
X20400000Y5760000D03*
G36*
G01*
X28002791Y41191768D02*
X27751768Y41442791D01*
G75*
G02*
X27751768Y41658459I107834J107834D01*
G01*
X27967435Y41874126D01*
G75*
G02*
X28183103Y41874126I107834J-107834D01*
G01*
X28434126Y41623103D01*
G75*
G02*
X28434126Y41407435I-107834J-107834D01*
G01*
X28218459Y41191768D01*
G75*
G02*
X28002791Y41191768I-107834J107834D01*
G01*
G37*
G36*
G01*
X27316897Y40505874D02*
X27065874Y40756897D01*
G75*
G02*
X27065874Y40972565I107834J107834D01*
G01*
X27281541Y41188232D01*
G75*
G02*
X27497209Y41188232I107834J-107834D01*
G01*
X27748232Y40937209D01*
G75*
G02*
X27748232Y40721541I-107834J-107834D01*
G01*
X27532565Y40505874D01*
G75*
G02*
X27316897Y40505874I-107834J107834D01*
G01*
G37*
G36*
G01*
X28752791Y40491768D02*
X28501768Y40742791D01*
G75*
G02*
X28501768Y40958459I107834J107834D01*
G01*
X28717435Y41174126D01*
G75*
G02*
X28933103Y41174126I107834J-107834D01*
G01*
X29184126Y40923103D01*
G75*
G02*
X29184126Y40707435I-107834J-107834D01*
G01*
X28968459Y40491768D01*
G75*
G02*
X28752791Y40491768I-107834J107834D01*
G01*
G37*
G36*
G01*
X28066897Y39805874D02*
X27815874Y40056897D01*
G75*
G02*
X27815874Y40272565I107834J107834D01*
G01*
X28031541Y40488232D01*
G75*
G02*
X28247209Y40488232I107834J-107834D01*
G01*
X28498232Y40237209D01*
G75*
G02*
X28498232Y40021541I-107834J-107834D01*
G01*
X28282565Y39805874D01*
G75*
G02*
X28066897Y39805874I-107834J107834D01*
G01*
G37*
D19*
X40490000Y14890000D03*
X39490000Y14890000D03*
X38490000Y14890000D03*
X37490000Y14890000D03*
X36490000Y14890000D03*
X35490000Y14890000D03*
X34490000Y14890000D03*
X33490000Y14890000D03*
X32490000Y14890000D03*
X31490000Y14890000D03*
X30490000Y14890000D03*
X29490000Y14890000D03*
X28490000Y14890000D03*
X27490000Y14890000D03*
X26490000Y14890000D03*
X25490000Y14890000D03*
X24490000Y14890000D03*
X23490000Y14890000D03*
X22490000Y14890000D03*
X21490000Y14890000D03*
X20490000Y14890000D03*
X19490000Y14890000D03*
X40490000Y15890000D03*
X39490000Y15890000D03*
X38490000Y15890000D03*
X37490000Y15890000D03*
X36490000Y15890000D03*
X35490000Y15890000D03*
X34490000Y15890000D03*
X33490000Y15890000D03*
X32490000Y15890000D03*
X31490000Y15890000D03*
X30490000Y15890000D03*
X29490000Y15890000D03*
X28490000Y15890000D03*
X27490000Y15890000D03*
X26490000Y15890000D03*
X25490000Y15890000D03*
X24490000Y15890000D03*
X23490000Y15890000D03*
X22490000Y15890000D03*
X21490000Y15890000D03*
X20490000Y15890000D03*
X19490000Y15890000D03*
X40490000Y16890000D03*
X39490000Y16890000D03*
X38490000Y16890000D03*
X37490000Y16890000D03*
X36490000Y16890000D03*
X35490000Y16890000D03*
X34490000Y16890000D03*
X33490000Y16890000D03*
X32490000Y16890000D03*
X31490000Y16890000D03*
X30490000Y16890000D03*
X29490000Y16890000D03*
X28490000Y16890000D03*
X27490000Y16890000D03*
X26490000Y16890000D03*
X25490000Y16890000D03*
X24490000Y16890000D03*
X23490000Y16890000D03*
X22490000Y16890000D03*
X21490000Y16890000D03*
X20490000Y16890000D03*
X19490000Y16890000D03*
X40490000Y17890000D03*
X39490000Y17890000D03*
X38490000Y17890000D03*
X37490000Y17890000D03*
X36490000Y17890000D03*
X35490000Y17890000D03*
X34490000Y17890000D03*
X33490000Y17890000D03*
X32490000Y17890000D03*
X31490000Y17890000D03*
X30490000Y17890000D03*
X29490000Y17890000D03*
X28490000Y17890000D03*
X27490000Y17890000D03*
X26490000Y17890000D03*
X25490000Y17890000D03*
X24490000Y17890000D03*
X23490000Y17890000D03*
X22490000Y17890000D03*
X21490000Y17890000D03*
X20490000Y17890000D03*
X19490000Y17890000D03*
X40490000Y18890000D03*
X39490000Y18890000D03*
X38490000Y18890000D03*
X37490000Y18890000D03*
X36490000Y18890000D03*
X35490000Y18890000D03*
X34490000Y18890000D03*
X33490000Y18890000D03*
X32490000Y18890000D03*
X31490000Y18890000D03*
X30490000Y18890000D03*
X29490000Y18890000D03*
X28490000Y18890000D03*
X27490000Y18890000D03*
X26490000Y18890000D03*
X25490000Y18890000D03*
X24490000Y18890000D03*
X23490000Y18890000D03*
X22490000Y18890000D03*
X21490000Y18890000D03*
X20490000Y18890000D03*
X19490000Y18890000D03*
X40490000Y19890000D03*
X39490000Y19890000D03*
X38490000Y19890000D03*
X37490000Y19890000D03*
X36490000Y19890000D03*
X35490000Y19890000D03*
X34490000Y19890000D03*
X33490000Y19890000D03*
X32490000Y19890000D03*
X31490000Y19890000D03*
X30490000Y19890000D03*
X29490000Y19890000D03*
X28490000Y19890000D03*
X27490000Y19890000D03*
X26490000Y19890000D03*
X25490000Y19890000D03*
X24490000Y19890000D03*
X23490000Y19890000D03*
X22490000Y19890000D03*
X21490000Y19890000D03*
X20490000Y19890000D03*
X19490000Y19890000D03*
X40490000Y20890000D03*
X39490000Y20890000D03*
X38490000Y20890000D03*
X37490000Y20890000D03*
X36490000Y20890000D03*
X35490000Y20890000D03*
X34490000Y20890000D03*
X33490000Y20890000D03*
X32490000Y20890000D03*
X31490000Y20890000D03*
X30490000Y20890000D03*
X29490000Y20890000D03*
X28490000Y20890000D03*
X27490000Y20890000D03*
X26490000Y20890000D03*
X25490000Y20890000D03*
X24490000Y20890000D03*
X23490000Y20890000D03*
X22490000Y20890000D03*
X21490000Y20890000D03*
X20490000Y20890000D03*
X19490000Y20890000D03*
X40490000Y21890000D03*
X39490000Y21890000D03*
X38490000Y21890000D03*
X37490000Y21890000D03*
X36490000Y21890000D03*
X35490000Y21890000D03*
X34490000Y21890000D03*
X33490000Y21890000D03*
X32490000Y21890000D03*
X31490000Y21890000D03*
X30490000Y21890000D03*
X29490000Y21890000D03*
X28490000Y21890000D03*
X27490000Y21890000D03*
X26490000Y21890000D03*
X25490000Y21890000D03*
X24490000Y21890000D03*
X23490000Y21890000D03*
X22490000Y21890000D03*
X21490000Y21890000D03*
X20490000Y21890000D03*
X19490000Y21890000D03*
X40490000Y22890000D03*
X39490000Y22890000D03*
X38490000Y22890000D03*
X37490000Y22890000D03*
X36490000Y22890000D03*
X35490000Y22890000D03*
X34490000Y22890000D03*
X33490000Y22890000D03*
X32490000Y22890000D03*
X31490000Y22890000D03*
X30490000Y22890000D03*
X29490000Y22890000D03*
X28490000Y22890000D03*
X27490000Y22890000D03*
X26490000Y22890000D03*
X25490000Y22890000D03*
X24490000Y22890000D03*
X23490000Y22890000D03*
X22490000Y22890000D03*
X21490000Y22890000D03*
X20490000Y22890000D03*
X19490000Y22890000D03*
X40490000Y23890000D03*
X39490000Y23890000D03*
X38490000Y23890000D03*
X37490000Y23890000D03*
X36490000Y23890000D03*
X35490000Y23890000D03*
X34490000Y23890000D03*
X33490000Y23890000D03*
X32490000Y23890000D03*
X31490000Y23890000D03*
X30490000Y23890000D03*
X29490000Y23890000D03*
X28490000Y23890000D03*
X27490000Y23890000D03*
X26490000Y23890000D03*
X25490000Y23890000D03*
X24490000Y23890000D03*
X23490000Y23890000D03*
X22490000Y23890000D03*
X21490000Y23890000D03*
X20490000Y23890000D03*
X19490000Y23890000D03*
X40490000Y24890000D03*
X39490000Y24890000D03*
X38490000Y24890000D03*
X37490000Y24890000D03*
X36490000Y24890000D03*
X35490000Y24890000D03*
X34490000Y24890000D03*
X33490000Y24890000D03*
X32490000Y24890000D03*
X31490000Y24890000D03*
X30490000Y24890000D03*
X29490000Y24890000D03*
X28490000Y24890000D03*
X27490000Y24890000D03*
X26490000Y24890000D03*
X25490000Y24890000D03*
X24490000Y24890000D03*
X23490000Y24890000D03*
X22490000Y24890000D03*
X21490000Y24890000D03*
X20490000Y24890000D03*
X19490000Y24890000D03*
X40490000Y25890000D03*
X39490000Y25890000D03*
X38490000Y25890000D03*
X37490000Y25890000D03*
X36490000Y25890000D03*
X35490000Y25890000D03*
X34490000Y25890000D03*
X33490000Y25890000D03*
X32490000Y25890000D03*
X31490000Y25890000D03*
X30490000Y25890000D03*
X29490000Y25890000D03*
X28490000Y25890000D03*
X27490000Y25890000D03*
X26490000Y25890000D03*
X25490000Y25890000D03*
X24490000Y25890000D03*
X23490000Y25890000D03*
X22490000Y25890000D03*
X21490000Y25890000D03*
X20490000Y25890000D03*
X19490000Y25890000D03*
X40490000Y26890000D03*
X39490000Y26890000D03*
X38490000Y26890000D03*
X37490000Y26890000D03*
X36490000Y26890000D03*
X35490000Y26890000D03*
X34490000Y26890000D03*
X33490000Y26890000D03*
X32490000Y26890000D03*
X31490000Y26890000D03*
X30490000Y26890000D03*
X29490000Y26890000D03*
X28490000Y26890000D03*
X27490000Y26890000D03*
X26490000Y26890000D03*
X25490000Y26890000D03*
X24490000Y26890000D03*
X23490000Y26890000D03*
X22490000Y26890000D03*
X21490000Y26890000D03*
X20490000Y26890000D03*
X19490000Y26890000D03*
X40490000Y27890000D03*
X39490000Y27890000D03*
X38490000Y27890000D03*
X37490000Y27890000D03*
X36490000Y27890000D03*
X35490000Y27890000D03*
X34490000Y27890000D03*
X33490000Y27890000D03*
X32490000Y27890000D03*
X31490000Y27890000D03*
X30490000Y27890000D03*
X29490000Y27890000D03*
X28490000Y27890000D03*
X27490000Y27890000D03*
X26490000Y27890000D03*
X25490000Y27890000D03*
X24490000Y27890000D03*
X23490000Y27890000D03*
X22490000Y27890000D03*
X21490000Y27890000D03*
X20490000Y27890000D03*
X19490000Y27890000D03*
X40490000Y28890000D03*
X39490000Y28890000D03*
X38490000Y28890000D03*
X37490000Y28890000D03*
X36490000Y28890000D03*
X35490000Y28890000D03*
X34490000Y28890000D03*
X33490000Y28890000D03*
X32490000Y28890000D03*
X31490000Y28890000D03*
X30490000Y28890000D03*
X29490000Y28890000D03*
X28490000Y28890000D03*
X27490000Y28890000D03*
X26490000Y28890000D03*
X25490000Y28890000D03*
X24490000Y28890000D03*
X23490000Y28890000D03*
X22490000Y28890000D03*
X21490000Y28890000D03*
X20490000Y28890000D03*
X19490000Y28890000D03*
X40490000Y29890000D03*
X39490000Y29890000D03*
X38490000Y29890000D03*
X37490000Y29890000D03*
X36490000Y29890000D03*
X35490000Y29890000D03*
X34490000Y29890000D03*
X33490000Y29890000D03*
X32490000Y29890000D03*
X31490000Y29890000D03*
X30490000Y29890000D03*
X29490000Y29890000D03*
X28490000Y29890000D03*
X27490000Y29890000D03*
X26490000Y29890000D03*
X25490000Y29890000D03*
X24490000Y29890000D03*
X23490000Y29890000D03*
X22490000Y29890000D03*
X21490000Y29890000D03*
X20490000Y29890000D03*
X19490000Y29890000D03*
X40490000Y30890000D03*
X39490000Y30890000D03*
X38490000Y30890000D03*
X37490000Y30890000D03*
X36490000Y30890000D03*
X35490000Y30890000D03*
X34490000Y30890000D03*
X33490000Y30890000D03*
X32490000Y30890000D03*
X31490000Y30890000D03*
X30490000Y30890000D03*
X29490000Y30890000D03*
X28490000Y30890000D03*
X27490000Y30890000D03*
X26490000Y30890000D03*
X25490000Y30890000D03*
X24490000Y30890000D03*
X23490000Y30890000D03*
X22490000Y30890000D03*
X21490000Y30890000D03*
X20490000Y30890000D03*
X19490000Y30890000D03*
X40490000Y31890000D03*
X39490000Y31890000D03*
X38490000Y31890000D03*
X37490000Y31890000D03*
X36490000Y31890000D03*
X35490000Y31890000D03*
X34490000Y31890000D03*
X33490000Y31890000D03*
X32490000Y31890000D03*
X31490000Y31890000D03*
X30490000Y31890000D03*
X29490000Y31890000D03*
X28490000Y31890000D03*
X27490000Y31890000D03*
X26490000Y31890000D03*
X25490000Y31890000D03*
X24490000Y31890000D03*
X23490000Y31890000D03*
X22490000Y31890000D03*
X21490000Y31890000D03*
X20490000Y31890000D03*
X19490000Y31890000D03*
X40490000Y32890000D03*
X39490000Y32890000D03*
X38490000Y32890000D03*
X37490000Y32890000D03*
X36490000Y32890000D03*
X35490000Y32890000D03*
X34490000Y32890000D03*
X33490000Y32890000D03*
X32490000Y32890000D03*
X31490000Y32890000D03*
X30490000Y32890000D03*
X29490000Y32890000D03*
X28490000Y32890000D03*
X27490000Y32890000D03*
X26490000Y32890000D03*
X25490000Y32890000D03*
X24490000Y32890000D03*
X23490000Y32890000D03*
X22490000Y32890000D03*
X21490000Y32890000D03*
X20490000Y32890000D03*
X19490000Y32890000D03*
X40490000Y33890000D03*
X39490000Y33890000D03*
X38490000Y33890000D03*
X37490000Y33890000D03*
X36490000Y33890000D03*
X35490000Y33890000D03*
X34490000Y33890000D03*
X33490000Y33890000D03*
X32490000Y33890000D03*
X31490000Y33890000D03*
X30490000Y33890000D03*
X29490000Y33890000D03*
X28490000Y33890000D03*
X27490000Y33890000D03*
X26490000Y33890000D03*
X25490000Y33890000D03*
X24490000Y33890000D03*
X23490000Y33890000D03*
X22490000Y33890000D03*
X21490000Y33890000D03*
X20490000Y33890000D03*
X19490000Y33890000D03*
X40490000Y34890000D03*
X39490000Y34890000D03*
X38490000Y34890000D03*
X37490000Y34890000D03*
X36490000Y34890000D03*
X35490000Y34890000D03*
X34490000Y34890000D03*
X33490000Y34890000D03*
X32490000Y34890000D03*
X31490000Y34890000D03*
X30490000Y34890000D03*
X29490000Y34890000D03*
X28490000Y34890000D03*
X27490000Y34890000D03*
X26490000Y34890000D03*
X25490000Y34890000D03*
X24490000Y34890000D03*
X23490000Y34890000D03*
X22490000Y34890000D03*
X21490000Y34890000D03*
X20490000Y34890000D03*
X19490000Y34890000D03*
X40490000Y35890000D03*
X39490000Y35890000D03*
X38490000Y35890000D03*
X37490000Y35890000D03*
X36490000Y35890000D03*
X35490000Y35890000D03*
X34490000Y35890000D03*
X33490000Y35890000D03*
X32490000Y35890000D03*
X31490000Y35890000D03*
X30490000Y35890000D03*
X29490000Y35890000D03*
X28490000Y35890000D03*
X27490000Y35890000D03*
X26490000Y35890000D03*
X25490000Y35890000D03*
X24490000Y35890000D03*
X23490000Y35890000D03*
X22490000Y35890000D03*
X21490000Y35890000D03*
X20490000Y35890000D03*
X19490000Y35890000D03*
G36*
G01*
X50802500Y27165000D02*
X50802500Y27425000D01*
G75*
G02*
X50932500Y27555000I130000J0D01*
G01*
X51592500Y27555000D01*
G75*
G02*
X51722500Y27425000I0J-130000D01*
G01*
X51722500Y27165000D01*
G75*
G02*
X51592500Y27035000I-130000J0D01*
G01*
X50932500Y27035000D01*
G75*
G02*
X50802500Y27165000I0J130000D01*
G01*
G37*
G36*
G01*
X50802500Y25895000D02*
X50802500Y26155000D01*
G75*
G02*
X50932500Y26285000I130000J0D01*
G01*
X51592500Y26285000D01*
G75*
G02*
X51722500Y26155000I0J-130000D01*
G01*
X51722500Y25895000D01*
G75*
G02*
X51592500Y25765000I-130000J0D01*
G01*
X50932500Y25765000D01*
G75*
G02*
X50802500Y25895000I0J130000D01*
G01*
G37*
G36*
G01*
X50802500Y24625000D02*
X50802500Y24885000D01*
G75*
G02*
X50932500Y25015000I130000J0D01*
G01*
X51592500Y25015000D01*
G75*
G02*
X51722500Y24885000I0J-130000D01*
G01*
X51722500Y24625000D01*
G75*
G02*
X51592500Y24495000I-130000J0D01*
G01*
X50932500Y24495000D01*
G75*
G02*
X50802500Y24625000I0J130000D01*
G01*
G37*
G36*
G01*
X50802500Y23355000D02*
X50802500Y23615000D01*
G75*
G02*
X50932500Y23745000I130000J0D01*
G01*
X51592500Y23745000D01*
G75*
G02*
X51722500Y23615000I0J-130000D01*
G01*
X51722500Y23355000D01*
G75*
G02*
X51592500Y23225000I-130000J0D01*
G01*
X50932500Y23225000D01*
G75*
G02*
X50802500Y23355000I0J130000D01*
G01*
G37*
G36*
G01*
X43077500Y23355000D02*
X43077500Y23615000D01*
G75*
G02*
X43207500Y23745000I130000J0D01*
G01*
X43867500Y23745000D01*
G75*
G02*
X43997500Y23615000I0J-130000D01*
G01*
X43997500Y23355000D01*
G75*
G02*
X43867500Y23225000I-130000J0D01*
G01*
X43207500Y23225000D01*
G75*
G02*
X43077500Y23355000I0J130000D01*
G01*
G37*
G36*
G01*
X43077500Y24625000D02*
X43077500Y24885000D01*
G75*
G02*
X43207500Y25015000I130000J0D01*
G01*
X43867500Y25015000D01*
G75*
G02*
X43997500Y24885000I0J-130000D01*
G01*
X43997500Y24625000D01*
G75*
G02*
X43867500Y24495000I-130000J0D01*
G01*
X43207500Y24495000D01*
G75*
G02*
X43077500Y24625000I0J130000D01*
G01*
G37*
G36*
G01*
X43077500Y25895000D02*
X43077500Y26155000D01*
G75*
G02*
X43207500Y26285000I130000J0D01*
G01*
X43867500Y26285000D01*
G75*
G02*
X43997500Y26155000I0J-130000D01*
G01*
X43997500Y25895000D01*
G75*
G02*
X43867500Y25765000I-130000J0D01*
G01*
X43207500Y25765000D01*
G75*
G02*
X43077500Y25895000I0J130000D01*
G01*
G37*
G36*
G01*
X43077500Y27165000D02*
X43077500Y27425000D01*
G75*
G02*
X43207500Y27555000I130000J0D01*
G01*
X43867500Y27555000D01*
G75*
G02*
X43997500Y27425000I0J-130000D01*
G01*
X43997500Y27165000D01*
G75*
G02*
X43867500Y27035000I-130000J0D01*
G01*
X43207500Y27035000D01*
G75*
G02*
X43077500Y27165000I0J130000D01*
G01*
G37*
D20*
X29990000Y2300000D03*
D21*
X43130000Y6330000D03*
X45670000Y6330000D03*
X43130000Y3790000D03*
X45670000Y3790000D03*
X43130000Y1250000D03*
D22*
X45670000Y1250000D03*
D21*
X14460000Y6330000D03*
X17000000Y6330000D03*
X14460000Y3790000D03*
X17000000Y3790000D03*
X14460000Y1250000D03*
D22*
X17000000Y1250000D03*
D23*
X30515000Y6525000D03*
X29465000Y6525000D03*
X29465000Y8975000D03*
X30515000Y8975000D03*
D24*
X47530000Y43932000D03*
X47530000Y49520000D03*
X47875000Y19625000D03*
X50415000Y19625000D03*
X25375000Y10875000D03*
X22835000Y10875000D03*
X17465000Y40375000D03*
X20000000Y40375000D03*
D25*
X1270000Y1250000D03*
X3810000Y1250000D03*
D26*
X1270000Y3790000D03*
X3810000Y3790000D03*
D25*
X1270000Y6330000D03*
X3810000Y6330000D03*
X1270000Y8870000D03*
X3810000Y8870000D03*
X1270000Y11410000D03*
X3810000Y11410000D03*
X1270000Y13950000D03*
X3810000Y13950000D03*
X1270000Y16490000D03*
X3810000Y16490000D03*
X1270000Y19030000D03*
X3810000Y19030000D03*
X1270000Y21570000D03*
X3810000Y21570000D03*
D26*
X1270000Y24110000D03*
X3810000Y24110000D03*
D25*
X1270000Y26650000D03*
X3810000Y26650000D03*
X1270000Y29190000D03*
X3810000Y29190000D03*
X1270000Y31730000D03*
X3810000Y31730000D03*
X1270000Y34270000D03*
X3810000Y34270000D03*
X1270000Y36810000D03*
X3810000Y36810000D03*
X1270000Y39350000D03*
X3810000Y39350000D03*
X1270000Y41890000D03*
X3810000Y41890000D03*
X1270000Y44430000D03*
X3810000Y44430000D03*
D26*
X1270000Y46970000D03*
X3810000Y46970000D03*
D25*
X1270000Y49510000D03*
X3810000Y49510000D03*
D12*
X14920000Y48000000D03*
X28060000Y48000000D03*
D13*
X25490000Y44500000D03*
X23490000Y44500000D03*
X21490000Y44500000D03*
X19490000Y44500000D03*
X17490000Y44500000D03*
X17990000Y46000000D03*
X20490000Y46000000D03*
X22490000Y46000000D03*
X24990000Y46000000D03*
D25*
X58710000Y49510000D03*
X56170000Y49510000D03*
D26*
X58710000Y46970000D03*
X56170000Y46970000D03*
D25*
X58710000Y44430000D03*
X56170000Y44430000D03*
X58710000Y41890000D03*
X56170000Y41890000D03*
X58710000Y39350000D03*
X56170000Y39350000D03*
X58710000Y36810000D03*
X56170000Y36810000D03*
X58710000Y34270000D03*
X56170000Y34270000D03*
X58710000Y31730000D03*
X56170000Y31730000D03*
X58710000Y29190000D03*
X56170000Y29190000D03*
D26*
X58710000Y26650000D03*
X56170000Y26650000D03*
D25*
X58710000Y24110000D03*
X56170000Y24110000D03*
X58710000Y21570000D03*
X56170000Y21570000D03*
X58710000Y19030000D03*
X56170000Y19030000D03*
X58710000Y16490000D03*
X56170000Y16490000D03*
X58710000Y13950000D03*
X56170000Y13950000D03*
X58710000Y11410000D03*
X56170000Y11410000D03*
X58710000Y8870000D03*
X56170000Y8870000D03*
X58710000Y6330000D03*
X56170000Y6330000D03*
D26*
X58710000Y3790000D03*
X56170000Y3790000D03*
D25*
X58710000Y1250000D03*
X56170000Y1250000D03*
G36*
G01*
X24177500Y42070000D02*
X23822500Y42070000D01*
G75*
G02*
X23670000Y42222500I0J152500D01*
G01*
X23670000Y42527500D01*
G75*
G02*
X23822500Y42680000I152500J0D01*
G01*
X24177500Y42680000D01*
G75*
G02*
X24330000Y42527500I0J-152500D01*
G01*
X24330000Y42222500D01*
G75*
G02*
X24177500Y42070000I-152500J0D01*
G01*
G37*
G36*
G01*
X24177500Y41100000D02*
X23822500Y41100000D01*
G75*
G02*
X23670000Y41252500I0J152500D01*
G01*
X23670000Y41557500D01*
G75*
G02*
X23822500Y41710000I152500J0D01*
G01*
X24177500Y41710000D01*
G75*
G02*
X24330000Y41557500I0J-152500D01*
G01*
X24330000Y41252500D01*
G75*
G02*
X24177500Y41100000I-152500J0D01*
G01*
G37*
G36*
G01*
X25177500Y42070000D02*
X24822500Y42070000D01*
G75*
G02*
X24670000Y42222500I0J152500D01*
G01*
X24670000Y42527500D01*
G75*
G02*
X24822500Y42680000I152500J0D01*
G01*
X25177500Y42680000D01*
G75*
G02*
X25330000Y42527500I0J-152500D01*
G01*
X25330000Y42222500D01*
G75*
G02*
X25177500Y42070000I-152500J0D01*
G01*
G37*
G36*
G01*
X25177500Y41100000D02*
X24822500Y41100000D01*
G75*
G02*
X24670000Y41252500I0J152500D01*
G01*
X24670000Y41557500D01*
G75*
G02*
X24822500Y41710000I152500J0D01*
G01*
X25177500Y41710000D01*
G75*
G02*
X25330000Y41557500I0J-152500D01*
G01*
X25330000Y41252500D01*
G75*
G02*
X25177500Y41100000I-152500J0D01*
G01*
G37*
M02*
