M48
; DRILL file {KiCad 5.1.6-c6e7f7d~87~ubuntu20.04.1} date Sat Sep 19 08:52:56 2020
; FORMAT={-:-/ absolute / metric / decimal}
; #@! TF.CreationDate,2020-09-19T08:52:56-07:00
; #@! TF.GenerationSoftware,Kicad,Pcbnew,5.1.6-c6e7f7d~87~ubuntu20.04.1
FMAT,2
METRIC
T1C0.250
T2C0.550
T3C0.700
T4C0.800
T5C1.000
T6C1.016
T7C2.300
T8C2.700
T9C1.152
%
G90
G05
T1
X4.78Y22.59
X5.756Y7.019
X5.8Y16.05
X5.84Y18.07
X5.878Y45.968
X5.878Y45.284
X6.1Y39.39
X6.382Y18.07
X7.09Y13.43
X7.144Y42.408
X7.525Y41.646
X7.61Y31.28
X7.77Y24.12
X7.906Y8.88
X8.0Y28.66
X8.287Y44.059
X8.866Y35.898
X8.942Y20.74
X9.46Y39.192
X9.85Y12.3
X10.7Y42.89
X10.7Y38.49
X11.1Y33.79
X11.22Y30.41
X11.35Y32.33
X11.55Y40.258
X11.716Y25.6
X12.17Y8.88
X12.9Y42.49
X13.16Y33.54
X13.91Y33.53
X14.0Y42.424
X14.5Y39.89
X14.6Y37.59
X14.6Y34.89
X15.018Y21.58
X15.786Y37.74
X15.82Y14.37
X16.034Y24.374
X16.492Y22.58
X16.514Y37.74
X16.81Y34.27
X17.3Y22.39
X17.5Y34.64
X17.75Y29.64
X17.786Y22.876
X17.812Y27.803
X18.0Y29.14
X18.217Y16.147
X18.243Y18.647
X18.25Y30.14
X18.507Y28.147
X18.731Y15.633
X18.757Y18.133
X18.828Y28.819
X18.899Y19.615
X19.104Y23.836
X19.54Y8.9
X19.99Y32.308
X20.0Y33.39
X20.0Y19.39
X20.075Y18.603
X20.14Y16.96
X20.15Y17.64
X20.25Y27.817
X20.25Y27.14
X20.5Y36.64
X20.964Y25.432
X20.987Y31.39
X21.0Y20.39
X21.0Y16.39
X21.25Y38.764
X21.25Y38.036
X21.5Y36.64
X21.554Y7.836
X21.94Y14.22
X21.983Y28.317
X22.0Y34.39
X22.0Y33.39
X22.0Y27.39
X22.0Y26.39
X22.0Y18.39
X22.0Y15.39
X22.002Y23.384
X22.5Y7.853
X22.9Y14.22
X23.0Y25.39
X23.0Y21.39
X23.0Y20.39
X23.0Y18.39
X23.4Y7.59
X23.562Y36.58
X23.908Y32.39
X23.95Y1.14
X23.99Y24.472
X24.0Y33.39
X24.0Y17.39
X24.077Y7.608
X24.171Y28.894
X24.7Y3.59
X24.783Y29.493
X24.935Y15.413
X24.99Y34.308
X25.0Y32.39
X25.0Y26.4
X25.0Y24.39
X25.0Y23.39
X25.0Y19.39
X25.044Y27.414
X25.25Y38.79
X25.55Y40.295
X25.55Y39.567
X25.55Y36.59
X25.9Y5.69
X26.0Y32.39
X26.0Y31.39
X26.0Y28.39
X26.0Y27.39
X26.0Y26.39
X26.0Y25.39
X26.0Y24.39
X26.0Y23.39
X26.0Y21.39
X26.095Y22.485
X26.1Y12.79
X26.827Y40.295
X26.827Y39.567
X26.94Y19.45
X27.0Y34.39
X27.0Y32.39
X27.0Y28.39
X27.0Y27.39
X27.0Y26.39
X27.0Y24.39
X27.0Y22.39
X27.0Y21.39
X27.0Y12.79
X27.187Y30.498
X27.25Y42.14
X27.25Y38.79
X27.5Y36.59
X27.9Y12.79
X27.94Y32.39
X27.97Y18.38
X28.0Y30.39
X28.0Y28.39
X28.0Y27.39
X28.0Y25.39
X28.0Y24.39
X28.0Y23.39
X28.0Y22.39
X28.0Y21.39
X28.0Y16.356
X28.26Y7.81
X28.936Y26.454
X28.986Y27.402
X28.988Y16.402
X28.99Y28.41
X29.0Y30.39
X29.0Y29.39
X29.0Y24.39
X29.0Y19.446
X29.107Y7.47
X29.376Y9.888
X29.4Y12.79
X29.5Y36.59
X29.506Y35.238
X29.603Y34.232
X29.967Y19.446
X29.98Y24.45
X30.0Y31.39
X30.0Y30.39
X30.0Y29.39
X30.0Y28.39
X30.0Y26.39
X30.0Y22.39
X30.0Y21.39
X30.0Y20.39
X30.024Y15.373
X30.12Y23.29
X30.2Y12.79
X30.5Y38.79
X30.5Y36.59
X30.919Y18.39
X30.957Y16.345
X31.0Y38.19
X31.0Y33.39
X31.0Y32.39
X31.0Y30.39
X31.0Y29.39
X31.0Y24.39
X31.0Y22.39
X31.0Y12.79
X31.503Y8.787
X31.989Y22.308
X32.0Y29.39
X32.0Y27.38
X32.0Y24.39
X32.0Y20.39
X32.0Y19.39
X32.411Y13.807
X32.71Y9.967
X32.99Y22.308
X32.99Y27.424
X33.0Y36.64
X33.0Y34.39
X33.0Y25.403
X33.0Y24.39
X33.0Y20.39
X33.0Y16.39
X33.022Y15.436
X33.53Y7.85
X33.816Y13.782
X33.979Y32.455
X33.99Y22.308
X33.99Y19.308
X33.993Y33.397
X34.0Y28.456
X34.0Y24.39
X34.0Y21.39
X34.492Y13.807
X34.99Y32.46
X35.0Y35.39
X35.0Y24.39
X35.516Y13.677
X35.526Y16.18
X35.782Y25.635
X35.82Y21.288
X35.973Y37.074
X35.974Y3.304
X36.019Y35.439
X36.02Y20.438
X36.035Y27.423
X36.05Y32.49
X36.099Y18.638
X36.354Y37.455
X36.75Y35.14
X36.77Y17.75
X36.986Y22.324
X36.986Y21.376
X37.0Y34.39
X37.0Y18.39
X37.0Y16.39
X37.0Y11.49
X37.0Y10.89
X37.0Y10.29
X37.01Y19.378
X37.038Y32.421
X37.135Y22.984
X37.234Y25.291
X37.421Y14.061
X37.65Y29.59
X37.739Y18.287
X37.888Y19.436
X37.899Y34.615
X38.0Y32.39
X38.0Y22.39
X38.0Y21.39
X38.0Y16.39
X38.074Y17.18
X38.54Y15.55
X38.7Y48.39
X38.748Y26.732
X38.856Y7.856
X38.907Y19.391
X38.918Y21.385
X38.929Y22.377
X38.956Y27.434
X39.0Y33.39
X39.0Y18.39
X39.008Y24.451
X39.029Y29.419
X39.03Y9.26
X39.24Y15.53
X39.53Y19.127
X39.75Y39.504
X39.75Y38.776
X39.99Y26.472
X40.0Y31.39
X40.2Y21.19
X40.71Y25.796
X40.753Y19.915
X40.97Y8.873
X40.997Y16.397
X41.021Y26.397
X41.087Y28.491
X41.122Y27.109
X41.18Y35.423
X41.2Y33.19
X41.236Y15.763
X41.25Y21.14
X41.4Y22.39
X41.44Y14.03
X41.5Y14.64
X41.663Y28.134
X41.7Y31.49
X41.7Y30.79
X41.7Y30.008
X41.8Y24.82
X41.8Y21.424
X41.8Y20.89
X41.904Y8.59
X41.942Y38.09
X42.0Y19.14
X42.09Y23.77
X42.1Y31.09
X42.74Y15.29
X43.52Y21.75
X44.191Y18.923
X44.26Y25.38
X44.37Y19.98
X44.482Y5.705
X44.62Y22.97
X44.72Y20.43
X44.98Y26.99
X45.13Y18.9
X45.816Y43.392
X46.414Y32.93
X46.43Y39.93
X46.88Y26.32
X47.276Y47.234
X47.47Y8.65
X47.86Y37.54
X48.08Y8.65
X48.11Y36.751
X48.292Y13.706
X48.41Y17.136
X48.42Y24.49
X48.94Y22.33
X49.07Y36.75
X49.12Y43.308
X49.16Y20.46
X49.798Y7.188
X49.89Y28.74
X49.943Y43.805
X50.06Y38.44
X50.4Y27.29
X50.496Y26.593
X50.5Y28.39
X50.52Y25.4
X50.535Y23.485
X50.66Y37.84
X50.688Y7.764
X50.705Y43.805
X51.54Y11.55
X52.25Y13.504
X52.25Y12.776
X52.5Y22.39
X52.61Y9.134
X53.1Y22.39
X53.118Y8.626
X53.7Y22.39
X54.1Y47.19
X54.1Y46.39
X54.102Y5.489
X54.102Y4.53
X54.3Y22.39
X54.544Y38.346
X54.544Y37.357
T2
X22.0Y4.44
X26.0Y4.44
T3
X34.49Y44.5
X34.99Y46.0
X36.49Y44.5
X37.49Y46.0
X38.49Y44.5
X39.49Y46.0
X40.49Y44.5
X41.99Y46.0
X42.49Y44.5
X17.49Y44.5
X17.99Y46.0
X19.49Y44.5
X20.49Y46.0
X21.49Y44.5
X22.49Y46.0
X23.49Y44.5
X24.99Y46.0
X25.49Y44.5
T5
X14.46Y6.33
X14.46Y3.79
X14.46Y1.25
X17.0Y6.33
X17.0Y3.79
X17.0Y1.25
X43.13Y6.33
X43.13Y3.79
X43.13Y1.25
X45.67Y6.33
X45.67Y3.79
X45.67Y1.25
X29.99Y2.3
T6
X1.27Y49.51
X1.27Y46.97
X1.27Y44.43
X1.27Y41.89
X1.27Y39.35
X1.27Y36.81
X1.27Y34.27
X1.27Y31.73
X1.27Y29.19
X1.27Y26.65
X1.27Y24.11
X1.27Y21.57
X1.27Y19.03
X1.27Y16.49
X1.27Y13.95
X1.27Y11.41
X1.27Y8.87
X1.27Y6.33
X1.27Y3.79
X1.27Y1.25
X3.81Y49.51
X3.81Y46.97
X3.81Y44.43
X3.81Y41.89
X3.81Y39.35
X3.81Y36.81
X3.81Y34.27
X3.81Y31.73
X3.81Y29.19
X3.81Y26.65
X3.81Y24.11
X3.81Y21.57
X3.81Y19.03
X3.81Y16.49
X3.81Y13.95
X3.81Y11.41
X3.81Y8.87
X3.81Y6.33
X3.81Y3.79
X3.81Y1.25
X56.17Y49.51
X56.17Y46.97
X56.17Y44.43
X56.17Y41.89
X56.17Y39.35
X56.17Y36.81
X56.17Y34.27
X56.17Y31.73
X56.17Y29.19
X56.17Y26.65
X56.17Y24.11
X56.17Y21.57
X56.17Y19.03
X56.17Y16.49
X56.17Y13.95
X56.17Y11.41
X56.17Y8.87
X56.17Y6.33
X56.17Y3.79
X56.17Y1.25
X58.71Y49.51
X58.71Y46.97
X58.71Y44.43
X58.71Y41.89
X58.71Y39.35
X58.71Y36.81
X58.71Y34.27
X58.71Y31.73
X58.71Y29.19
X58.71Y26.65
X58.71Y24.11
X58.71Y21.57
X58.71Y19.03
X58.71Y16.49
X58.71Y13.95
X58.71Y11.41
X58.71Y8.87
X58.71Y6.33
X58.71Y3.79
X58.71Y1.25
T7
X31.92Y48.0
X45.06Y48.0
X14.92Y48.0
X28.06Y48.0
T8
X50.49Y3.89
X50.49Y46.89
X9.49Y46.89
X9.49Y3.89
T9
X19.13Y49.16
X47.9Y1.2
X11.9Y1.2
T4
G00X20.4Y6.11
M15
G01X20.4Y5.41
M16
G05
G00X20.4Y2.64
M15
G01X20.4Y1.94
M16
G05
G00X27.6Y6.11
M15
G01X27.6Y5.41
M16
G05
G00X27.6Y2.64
M15
G01X27.6Y1.94
M16
G05
T0
M30
