G04 #@! TF.GenerationSoftware,KiCad,Pcbnew,5.1.6-c6e7f7d~87~ubuntu20.04.1*
G04 #@! TF.CreationDate,2020-08-09T13:50:59-07:00*
G04 #@! TF.ProjectId,artix7-pcie-v2,61727469-7837-42d7-9063-69652d76322e,rev?*
G04 #@! TF.SameCoordinates,PX69f4060PY6b00940*
G04 #@! TF.FileFunction,Legend,Bot*
G04 #@! TF.FilePolarity,Positive*
%FSLAX46Y46*%
G04 Gerber Fmt 4.6, Leading zero omitted, Abs format (unit mm)*
G04 Created by KiCad (PCBNEW 5.1.6-c6e7f7d~87~ubuntu20.04.1) date 2020-08-09 13:50:59*
%MOMM*%
%LPD*%
G01*
G04 APERTURE LIST*
%ADD10C,0.200000*%
%ADD11C,0.120000*%
%ADD12C,0.250000*%
%ADD13C,0.152400*%
%ADD14C,0.203200*%
%ADD15C,0.150000*%
G04 APERTURE END LIST*
D10*
X40642857Y47311429D02*
X40642857Y48811429D01*
X40071428Y48811429D01*
X39928571Y48740000D01*
X39857142Y48668572D01*
X39785714Y48525715D01*
X39785714Y48311429D01*
X39857142Y48168572D01*
X39928571Y48097143D01*
X40071428Y48025715D01*
X40642857Y48025715D01*
X38285714Y47454286D02*
X38357142Y47382858D01*
X38571428Y47311429D01*
X38714285Y47311429D01*
X38928571Y47382858D01*
X39071428Y47525715D01*
X39142857Y47668572D01*
X39214285Y47954286D01*
X39214285Y48168572D01*
X39142857Y48454286D01*
X39071428Y48597143D01*
X38928571Y48740000D01*
X38714285Y48811429D01*
X38571428Y48811429D01*
X38357142Y48740000D01*
X38285714Y48668572D01*
X37642857Y47311429D02*
X37642857Y48811429D01*
X36357142Y47382858D02*
X36500000Y47311429D01*
X36785714Y47311429D01*
X36928571Y47382858D01*
X37000000Y47525715D01*
X37000000Y48097143D01*
X36928571Y48240000D01*
X36785714Y48311429D01*
X36500000Y48311429D01*
X36357142Y48240000D01*
X36285714Y48097143D01*
X36285714Y47954286D01*
X37000000Y47811429D01*
X25750000Y48811429D02*
X25750000Y47597143D01*
X25678571Y47454286D01*
X25607142Y47382858D01*
X25464285Y47311429D01*
X25178571Y47311429D01*
X25035714Y47382858D01*
X24964285Y47454286D01*
X24892857Y47597143D01*
X24892857Y48811429D01*
X24250000Y47382858D02*
X24035714Y47311429D01*
X23678571Y47311429D01*
X23535714Y47382858D01*
X23464285Y47454286D01*
X23392857Y47597143D01*
X23392857Y47740000D01*
X23464285Y47882858D01*
X23535714Y47954286D01*
X23678571Y48025715D01*
X23964285Y48097143D01*
X24107142Y48168572D01*
X24178571Y48240000D01*
X24250000Y48382858D01*
X24250000Y48525715D01*
X24178571Y48668572D01*
X24107142Y48740000D01*
X23964285Y48811429D01*
X23607142Y48811429D01*
X23392857Y48740000D01*
X22250000Y48097143D02*
X22035714Y48025715D01*
X21964285Y47954286D01*
X21892857Y47811429D01*
X21892857Y47597143D01*
X21964285Y47454286D01*
X22035714Y47382858D01*
X22178571Y47311429D01*
X22750000Y47311429D01*
X22750000Y48811429D01*
X22250000Y48811429D01*
X22107142Y48740000D01*
X22035714Y48668572D01*
X21964285Y48525715D01*
X21964285Y48382858D01*
X22035714Y48240000D01*
X22107142Y48168572D01*
X22250000Y48097143D01*
X22750000Y48097143D01*
X20250000Y48811429D02*
X19321428Y48811429D01*
X19821428Y48240000D01*
X19607142Y48240000D01*
X19464285Y48168572D01*
X19392857Y48097143D01*
X19321428Y47954286D01*
X19321428Y47597143D01*
X19392857Y47454286D01*
X19464285Y47382858D01*
X19607142Y47311429D01*
X20035714Y47311429D01*
X20178571Y47382858D01*
X20250000Y47454286D01*
X18678571Y47454286D02*
X18607142Y47382858D01*
X18678571Y47311429D01*
X18750000Y47382858D01*
X18678571Y47454286D01*
X18678571Y47311429D01*
X17678571Y48811429D02*
X17535714Y48811429D01*
X17392857Y48740000D01*
X17321428Y48668572D01*
X17250000Y48525715D01*
X17178571Y48240000D01*
X17178571Y47882858D01*
X17250000Y47597143D01*
X17321428Y47454286D01*
X17392857Y47382858D01*
X17535714Y47311429D01*
X17678571Y47311429D01*
X17821428Y47382858D01*
X17892857Y47454286D01*
X17964285Y47597143D01*
X18035714Y47882858D01*
X18035714Y48240000D01*
X17964285Y48525715D01*
X17892857Y48668572D01*
X17821428Y48740000D01*
X17678571Y48811429D01*
D11*
X23810000Y29155000D02*
X19900000Y29155000D01*
X23810000Y31025000D02*
X23810000Y29155000D01*
X19900000Y31025000D02*
X23810000Y31025000D01*
X18190000Y22425000D02*
X22100000Y22425000D01*
X18190000Y20555000D02*
X18190000Y22425000D01*
X22100000Y20555000D02*
X18190000Y20555000D01*
X34190000Y37725000D02*
X38100000Y37725000D01*
X34190000Y35855000D02*
X34190000Y37725000D01*
X38100000Y35855000D02*
X34190000Y35855000D01*
X52665000Y40080000D02*
X52665000Y43990000D01*
X54535000Y40080000D02*
X52665000Y40080000D01*
X54535000Y43990000D02*
X54535000Y40080000D01*
X54435000Y11100000D02*
X54435000Y7190000D01*
X52565000Y11100000D02*
X54435000Y11100000D01*
X52565000Y7190000D02*
X52565000Y11100000D01*
X33490000Y27325000D02*
X37400000Y27325000D01*
X33490000Y25455000D02*
X33490000Y27325000D01*
X37400000Y25455000D02*
X33490000Y25455000D01*
X25935000Y22200000D02*
X25935000Y18290000D01*
X24065000Y22200000D02*
X25935000Y22200000D01*
X24065000Y18290000D02*
X24065000Y22200000D01*
X32190000Y31125000D02*
X36100000Y31125000D01*
X32190000Y29255000D02*
X32190000Y31125000D01*
X36100000Y29255000D02*
X32190000Y29255000D01*
X7335000Y44900000D02*
X7335000Y40990000D01*
X5465000Y44900000D02*
X7335000Y44900000D01*
X5465000Y40990000D02*
X5465000Y44900000D01*
X5665000Y6080000D02*
X5665000Y9990000D01*
X7535000Y6080000D02*
X5665000Y6080000D01*
X7535000Y9990000D02*
X7535000Y6080000D01*
X52800000Y29340000D02*
G75*
G03*
X52800000Y29340000I-950000J0D01*
G01*
X44300000Y29440000D02*
G75*
G03*
X44300000Y29440000I-950000J0D01*
G01*
X52600000Y24290000D02*
G75*
G03*
X52600000Y24290000I-950000J0D01*
G01*
X53300000Y26740000D02*
G75*
G03*
X53300000Y26740000I-950000J0D01*
G01*
X10100000Y27890000D02*
G75*
G03*
X10100000Y27890000I-950000J0D01*
G01*
X12450000Y43890000D02*
G75*
G03*
X12450000Y43890000I-950000J0D01*
G01*
X13450000Y48890000D02*
G75*
G03*
X13450000Y48890000I-950000J0D01*
G01*
X19624721Y13480000D02*
X19950279Y13480000D01*
X19624721Y14500000D02*
X19950279Y14500000D01*
X17510000Y19227221D02*
X17510000Y19552779D01*
X16490000Y19227221D02*
X16490000Y19552779D01*
X43910000Y15787936D02*
X43910000Y16992064D01*
X42090000Y15787936D02*
X42090000Y16992064D01*
X16090000Y16192064D02*
X16090000Y14987936D01*
X17910000Y16192064D02*
X17910000Y14987936D01*
X43910000Y25187936D02*
X43910000Y26392064D01*
X42090000Y25187936D02*
X42090000Y26392064D01*
X43910000Y34587936D02*
X43910000Y35792064D01*
X42090000Y34587936D02*
X42090000Y35792064D01*
X17910000Y25592064D02*
X17910000Y24387936D01*
X16090000Y25592064D02*
X16090000Y24387936D01*
X30197936Y16880000D02*
X31402064Y16880000D01*
X30197936Y18700000D02*
X31402064Y18700000D01*
D12*
X9550000Y35390000D02*
G75*
G03*
X9550000Y35390000I-125000J0D01*
G01*
D13*
X44350400Y14212000D02*
X44350400Y17768000D01*
X44350400Y17768000D02*
X48109600Y17768000D01*
X48109600Y17768000D02*
X48109600Y14212000D01*
X48109600Y14212000D02*
X44350400Y14212000D01*
X47281200Y14259400D02*
G75*
G03*
X47281200Y14259400I-76200J0D01*
G01*
X15629600Y17768000D02*
X15629600Y14212000D01*
X15629600Y14212000D02*
X11870400Y14212000D01*
X11870400Y14212000D02*
X11870400Y17768000D01*
X11870400Y17768000D02*
X15629600Y17768000D01*
X12851200Y17720600D02*
G75*
G03*
X12851200Y17720600I-76200J0D01*
G01*
X44370400Y23612000D02*
X44370400Y27168000D01*
X44370400Y27168000D02*
X48129600Y27168000D01*
X48129600Y27168000D02*
X48129600Y23612000D01*
X48129600Y23612000D02*
X44370400Y23612000D01*
X47301200Y23659400D02*
G75*
G03*
X47301200Y23659400I-76200J0D01*
G01*
X44350400Y33012000D02*
X44350400Y36568000D01*
X44350400Y36568000D02*
X48109600Y36568000D01*
X48109600Y36568000D02*
X48109600Y33012000D01*
X48109600Y33012000D02*
X44350400Y33012000D01*
X47281200Y33059400D02*
G75*
G03*
X47281200Y33059400I-76200J0D01*
G01*
D11*
X45797936Y12080000D02*
X47002064Y12080000D01*
X45797936Y13900000D02*
X47002064Y13900000D01*
X14202064Y19900000D02*
X12997936Y19900000D01*
X14202064Y18080000D02*
X12997936Y18080000D01*
X45797936Y21480000D02*
X47002064Y21480000D01*
X45797936Y23300000D02*
X47002064Y23300000D01*
X45797936Y30880000D02*
X47002064Y30880000D01*
X45797936Y32700000D02*
X47002064Y32700000D01*
X8650000Y34990000D02*
X5350000Y34990000D01*
X5350000Y34990000D02*
X5350000Y38990000D01*
D13*
X15649600Y27168000D02*
X15649600Y23612000D01*
X15649600Y23612000D02*
X11890400Y23612000D01*
X11890400Y23612000D02*
X11890400Y27168000D01*
X11890400Y27168000D02*
X15649600Y27168000D01*
X12871200Y27120600D02*
G75*
G03*
X12871200Y27120600I-76200J0D01*
G01*
D11*
X14202064Y27480000D02*
X12997936Y27480000D01*
X14202064Y29300000D02*
X12997936Y29300000D01*
X21600000Y9540000D02*
X21600000Y12840000D01*
X21600000Y12840000D02*
X27000000Y12840000D01*
X21600000Y9540000D02*
X27000000Y9540000D01*
X35600000Y12840000D02*
X35600000Y9540000D01*
X35600000Y9540000D02*
X30200000Y9540000D01*
X35600000Y12840000D02*
X30200000Y12840000D01*
D14*
X32000000Y4390000D02*
X32000000Y7890000D01*
X32000000Y7890000D02*
X32800000Y7890000D01*
X32800000Y7890000D02*
X32800000Y5390000D01*
X32800000Y5390000D02*
X34000000Y5390000D01*
X38000000Y5390000D02*
X39200000Y5390000D01*
X39200000Y5390000D02*
X39200000Y7890000D01*
X39200000Y7890000D02*
X40000000Y7890000D01*
X40000000Y7890000D02*
X40000000Y4390000D01*
X38000000Y390000D02*
X34000000Y390000D01*
D11*
X12900000Y34200000D02*
X14700000Y34200000D01*
X14700000Y30980000D02*
X12250000Y30980000D01*
D15*
X48257142Y42106667D02*
X48304761Y42154286D01*
X48352380Y42297143D01*
X48352380Y42392381D01*
X48304761Y42535239D01*
X48209523Y42630477D01*
X48114285Y42678096D01*
X47923809Y42725715D01*
X47780952Y42725715D01*
X47590476Y42678096D01*
X47495238Y42630477D01*
X47400000Y42535239D01*
X47352380Y42392381D01*
X47352380Y42297143D01*
X47400000Y42154286D01*
X47447619Y42106667D01*
X47685714Y41249524D02*
X48352380Y41249524D01*
X47304761Y41487620D02*
X48019047Y41725715D01*
X48019047Y41106667D01*
X16257142Y44156667D02*
X16304761Y44204286D01*
X16352380Y44347143D01*
X16352380Y44442381D01*
X16304761Y44585239D01*
X16209523Y44680477D01*
X16114285Y44728096D01*
X15923809Y44775715D01*
X15780952Y44775715D01*
X15590476Y44728096D01*
X15495238Y44680477D01*
X15400000Y44585239D01*
X15352380Y44442381D01*
X15352380Y44347143D01*
X15400000Y44204286D01*
X15447619Y44156667D01*
X15352380Y43823334D02*
X15352380Y43204286D01*
X15733333Y43537620D01*
X15733333Y43394762D01*
X15780952Y43299524D01*
X15828571Y43251905D01*
X15923809Y43204286D01*
X16161904Y43204286D01*
X16257142Y43251905D01*
X16304761Y43299524D01*
X16352380Y43394762D01*
X16352380Y43680477D01*
X16304761Y43775715D01*
X16257142Y43823334D01*
X18892857Y30782858D02*
X18940476Y30735239D01*
X19083333Y30687620D01*
X19178571Y30687620D01*
X19321428Y30735239D01*
X19416666Y30830477D01*
X19464285Y30925715D01*
X19511904Y31116191D01*
X19511904Y31259048D01*
X19464285Y31449524D01*
X19416666Y31544762D01*
X19321428Y31640000D01*
X19178571Y31687620D01*
X19083333Y31687620D01*
X18940476Y31640000D01*
X18892857Y31592381D01*
X18321428Y31259048D02*
X18416666Y31306667D01*
X18464285Y31354286D01*
X18511904Y31449524D01*
X18511904Y31497143D01*
X18464285Y31592381D01*
X18416666Y31640000D01*
X18321428Y31687620D01*
X18130952Y31687620D01*
X18035714Y31640000D01*
X17988095Y31592381D01*
X17940476Y31497143D01*
X17940476Y31449524D01*
X17988095Y31354286D01*
X18035714Y31306667D01*
X18130952Y31259048D01*
X18321428Y31259048D01*
X18416666Y31211429D01*
X18464285Y31163810D01*
X18511904Y31068572D01*
X18511904Y30878096D01*
X18464285Y30782858D01*
X18416666Y30735239D01*
X18321428Y30687620D01*
X18130952Y30687620D01*
X18035714Y30735239D01*
X17988095Y30782858D01*
X17940476Y30878096D01*
X17940476Y31068572D01*
X17988095Y31163810D01*
X18035714Y31211429D01*
X18130952Y31259048D01*
X17083333Y31687620D02*
X17273809Y31687620D01*
X17369047Y31640000D01*
X17416666Y31592381D01*
X17511904Y31449524D01*
X17559523Y31259048D01*
X17559523Y30878096D01*
X17511904Y30782858D01*
X17464285Y30735239D01*
X17369047Y30687620D01*
X17178571Y30687620D01*
X17083333Y30735239D01*
X17035714Y30782858D01*
X16988095Y30878096D01*
X16988095Y31116191D01*
X17035714Y31211429D01*
X17083333Y31259048D01*
X17178571Y31306667D01*
X17369047Y31306667D01*
X17464285Y31259048D01*
X17511904Y31211429D01*
X17559523Y31116191D01*
X18142857Y20982858D02*
X18190476Y20935239D01*
X18333333Y20887620D01*
X18428571Y20887620D01*
X18571428Y20935239D01*
X18666666Y21030477D01*
X18714285Y21125715D01*
X18761904Y21316191D01*
X18761904Y21459048D01*
X18714285Y21649524D01*
X18666666Y21744762D01*
X18571428Y21840000D01*
X18428571Y21887620D01*
X18333333Y21887620D01*
X18190476Y21840000D01*
X18142857Y21792381D01*
X17571428Y21459048D02*
X17666666Y21506667D01*
X17714285Y21554286D01*
X17761904Y21649524D01*
X17761904Y21697143D01*
X17714285Y21792381D01*
X17666666Y21840000D01*
X17571428Y21887620D01*
X17380952Y21887620D01*
X17285714Y21840000D01*
X17238095Y21792381D01*
X17190476Y21697143D01*
X17190476Y21649524D01*
X17238095Y21554286D01*
X17285714Y21506667D01*
X17380952Y21459048D01*
X17571428Y21459048D01*
X17666666Y21411429D01*
X17714285Y21363810D01*
X17761904Y21268572D01*
X17761904Y21078096D01*
X17714285Y20982858D01*
X17666666Y20935239D01*
X17571428Y20887620D01*
X17380952Y20887620D01*
X17285714Y20935239D01*
X17238095Y20982858D01*
X17190476Y21078096D01*
X17190476Y21268572D01*
X17238095Y21363810D01*
X17285714Y21411429D01*
X17380952Y21459048D01*
X16285714Y21887620D02*
X16761904Y21887620D01*
X16809523Y21411429D01*
X16761904Y21459048D01*
X16666666Y21506667D01*
X16428571Y21506667D01*
X16333333Y21459048D01*
X16285714Y21411429D01*
X16238095Y21316191D01*
X16238095Y21078096D01*
X16285714Y20982858D01*
X16333333Y20935239D01*
X16428571Y20887620D01*
X16666666Y20887620D01*
X16761904Y20935239D01*
X16809523Y20982858D01*
X37142857Y38182858D02*
X37190476Y38135239D01*
X37333333Y38087620D01*
X37428571Y38087620D01*
X37571428Y38135239D01*
X37666666Y38230477D01*
X37714285Y38325715D01*
X37761904Y38516191D01*
X37761904Y38659048D01*
X37714285Y38849524D01*
X37666666Y38944762D01*
X37571428Y39040000D01*
X37428571Y39087620D01*
X37333333Y39087620D01*
X37190476Y39040000D01*
X37142857Y38992381D01*
X36809523Y39087620D02*
X36142857Y39087620D01*
X36571428Y38087620D01*
X35619047Y38659048D02*
X35714285Y38706667D01*
X35761904Y38754286D01*
X35809523Y38849524D01*
X35809523Y38897143D01*
X35761904Y38992381D01*
X35714285Y39040000D01*
X35619047Y39087620D01*
X35428571Y39087620D01*
X35333333Y39040000D01*
X35285714Y38992381D01*
X35238095Y38897143D01*
X35238095Y38849524D01*
X35285714Y38754286D01*
X35333333Y38706667D01*
X35428571Y38659048D01*
X35619047Y38659048D01*
X35714285Y38611429D01*
X35761904Y38563810D01*
X35809523Y38468572D01*
X35809523Y38278096D01*
X35761904Y38182858D01*
X35714285Y38135239D01*
X35619047Y38087620D01*
X35428571Y38087620D01*
X35333333Y38135239D01*
X35285714Y38182858D01*
X35238095Y38278096D01*
X35238095Y38468572D01*
X35285714Y38563810D01*
X35333333Y38611429D01*
X35428571Y38659048D01*
X52257142Y43032858D02*
X52304761Y43080477D01*
X52352380Y43223334D01*
X52352380Y43318572D01*
X52304761Y43461429D01*
X52209523Y43556667D01*
X52114285Y43604286D01*
X51923809Y43651905D01*
X51780952Y43651905D01*
X51590476Y43604286D01*
X51495238Y43556667D01*
X51400000Y43461429D01*
X51352380Y43318572D01*
X51352380Y43223334D01*
X51400000Y43080477D01*
X51447619Y43032858D01*
X51352380Y42175715D02*
X51352380Y42366191D01*
X51400000Y42461429D01*
X51447619Y42509048D01*
X51590476Y42604286D01*
X51780952Y42651905D01*
X52161904Y42651905D01*
X52257142Y42604286D01*
X52304761Y42556667D01*
X52352380Y42461429D01*
X52352380Y42270953D01*
X52304761Y42175715D01*
X52257142Y42128096D01*
X52161904Y42080477D01*
X51923809Y42080477D01*
X51828571Y42128096D01*
X51780952Y42175715D01*
X51733333Y42270953D01*
X51733333Y42461429D01*
X51780952Y42556667D01*
X51828571Y42604286D01*
X51923809Y42651905D01*
X51780952Y41509048D02*
X51733333Y41604286D01*
X51685714Y41651905D01*
X51590476Y41699524D01*
X51542857Y41699524D01*
X51447619Y41651905D01*
X51400000Y41604286D01*
X51352380Y41509048D01*
X51352380Y41318572D01*
X51400000Y41223334D01*
X51447619Y41175715D01*
X51542857Y41128096D01*
X51590476Y41128096D01*
X51685714Y41175715D01*
X51733333Y41223334D01*
X51780952Y41318572D01*
X51780952Y41509048D01*
X51828571Y41604286D01*
X51876190Y41651905D01*
X51971428Y41699524D01*
X52161904Y41699524D01*
X52257142Y41651905D01*
X52304761Y41604286D01*
X52352380Y41509048D01*
X52352380Y41318572D01*
X52304761Y41223334D01*
X52257142Y41175715D01*
X52161904Y41128096D01*
X51971428Y41128096D01*
X51876190Y41175715D01*
X51828571Y41223334D01*
X51780952Y41318572D01*
X52107142Y9432858D02*
X52154761Y9480477D01*
X52202380Y9623334D01*
X52202380Y9718572D01*
X52154761Y9861429D01*
X52059523Y9956667D01*
X51964285Y10004286D01*
X51773809Y10051905D01*
X51630952Y10051905D01*
X51440476Y10004286D01*
X51345238Y9956667D01*
X51250000Y9861429D01*
X51202380Y9718572D01*
X51202380Y9623334D01*
X51250000Y9480477D01*
X51297619Y9432858D01*
X51202380Y8575715D02*
X51202380Y8766191D01*
X51250000Y8861429D01*
X51297619Y8909048D01*
X51440476Y9004286D01*
X51630952Y9051905D01*
X52011904Y9051905D01*
X52107142Y9004286D01*
X52154761Y8956667D01*
X52202380Y8861429D01*
X52202380Y8670953D01*
X52154761Y8575715D01*
X52107142Y8528096D01*
X52011904Y8480477D01*
X51773809Y8480477D01*
X51678571Y8528096D01*
X51630952Y8575715D01*
X51583333Y8670953D01*
X51583333Y8861429D01*
X51630952Y8956667D01*
X51678571Y9004286D01*
X51773809Y9051905D01*
X51202380Y8147143D02*
X51202380Y7480477D01*
X52202380Y7909048D01*
X37392857Y24132858D02*
X37440476Y24085239D01*
X37583333Y24037620D01*
X37678571Y24037620D01*
X37821428Y24085239D01*
X37916666Y24180477D01*
X37964285Y24275715D01*
X38011904Y24466191D01*
X38011904Y24609048D01*
X37964285Y24799524D01*
X37916666Y24894762D01*
X37821428Y24990000D01*
X37678571Y25037620D01*
X37583333Y25037620D01*
X37440476Y24990000D01*
X37392857Y24942381D01*
X36535714Y25037620D02*
X36726190Y25037620D01*
X36821428Y24990000D01*
X36869047Y24942381D01*
X36964285Y24799524D01*
X37011904Y24609048D01*
X37011904Y24228096D01*
X36964285Y24132858D01*
X36916666Y24085239D01*
X36821428Y24037620D01*
X36630952Y24037620D01*
X36535714Y24085239D01*
X36488095Y24132858D01*
X36440476Y24228096D01*
X36440476Y24466191D01*
X36488095Y24561429D01*
X36535714Y24609048D01*
X36630952Y24656667D01*
X36821428Y24656667D01*
X36916666Y24609048D01*
X36964285Y24561429D01*
X37011904Y24466191D01*
X35821428Y25037620D02*
X35726190Y25037620D01*
X35630952Y24990000D01*
X35583333Y24942381D01*
X35535714Y24847143D01*
X35488095Y24656667D01*
X35488095Y24418572D01*
X35535714Y24228096D01*
X35583333Y24132858D01*
X35630952Y24085239D01*
X35726190Y24037620D01*
X35821428Y24037620D01*
X35916666Y24085239D01*
X35964285Y24132858D01*
X36011904Y24228096D01*
X36059523Y24418572D01*
X36059523Y24656667D01*
X36011904Y24847143D01*
X35964285Y24942381D01*
X35916666Y24990000D01*
X35821428Y25037620D01*
X23957142Y20682858D02*
X24004761Y20730477D01*
X24052380Y20873334D01*
X24052380Y20968572D01*
X24004761Y21111429D01*
X23909523Y21206667D01*
X23814285Y21254286D01*
X23623809Y21301905D01*
X23480952Y21301905D01*
X23290476Y21254286D01*
X23195238Y21206667D01*
X23100000Y21111429D01*
X23052380Y20968572D01*
X23052380Y20873334D01*
X23100000Y20730477D01*
X23147619Y20682858D01*
X23385714Y19825715D02*
X24052380Y19825715D01*
X23004761Y20063810D02*
X23719047Y20301905D01*
X23719047Y19682858D01*
X23385714Y18873334D02*
X24052380Y18873334D01*
X23004761Y19111429D02*
X23719047Y19349524D01*
X23719047Y18730477D01*
X37092857Y28182858D02*
X37140476Y28135239D01*
X37283333Y28087620D01*
X37378571Y28087620D01*
X37521428Y28135239D01*
X37616666Y28230477D01*
X37664285Y28325715D01*
X37711904Y28516191D01*
X37711904Y28659048D01*
X37664285Y28849524D01*
X37616666Y28944762D01*
X37521428Y29040000D01*
X37378571Y29087620D01*
X37283333Y29087620D01*
X37140476Y29040000D01*
X37092857Y28992381D01*
X36235714Y28754286D02*
X36235714Y28087620D01*
X36473809Y29135239D02*
X36711904Y28420953D01*
X36092857Y28420953D01*
X35759523Y28992381D02*
X35711904Y29040000D01*
X35616666Y29087620D01*
X35378571Y29087620D01*
X35283333Y29040000D01*
X35235714Y28992381D01*
X35188095Y28897143D01*
X35188095Y28801905D01*
X35235714Y28659048D01*
X35807142Y28087620D01*
X35188095Y28087620D01*
X8607142Y43532858D02*
X8654761Y43580477D01*
X8702380Y43723334D01*
X8702380Y43818572D01*
X8654761Y43961429D01*
X8559523Y44056667D01*
X8464285Y44104286D01*
X8273809Y44151905D01*
X8130952Y44151905D01*
X7940476Y44104286D01*
X7845238Y44056667D01*
X7750000Y43961429D01*
X7702380Y43818572D01*
X7702380Y43723334D01*
X7750000Y43580477D01*
X7797619Y43532858D01*
X7797619Y43151905D02*
X7750000Y43104286D01*
X7702380Y43009048D01*
X7702380Y42770953D01*
X7750000Y42675715D01*
X7797619Y42628096D01*
X7892857Y42580477D01*
X7988095Y42580477D01*
X8130952Y42628096D01*
X8702380Y43199524D01*
X8702380Y42580477D01*
X7702380Y42247143D02*
X7702380Y41628096D01*
X8083333Y41961429D01*
X8083333Y41818572D01*
X8130952Y41723334D01*
X8178571Y41675715D01*
X8273809Y41628096D01*
X8511904Y41628096D01*
X8607142Y41675715D01*
X8654761Y41723334D01*
X8702380Y41818572D01*
X8702380Y42104286D01*
X8654761Y42199524D01*
X8607142Y42247143D01*
X8707142Y9032858D02*
X8754761Y9080477D01*
X8802380Y9223334D01*
X8802380Y9318572D01*
X8754761Y9461429D01*
X8659523Y9556667D01*
X8564285Y9604286D01*
X8373809Y9651905D01*
X8230952Y9651905D01*
X8040476Y9604286D01*
X7945238Y9556667D01*
X7850000Y9461429D01*
X7802380Y9318572D01*
X7802380Y9223334D01*
X7850000Y9080477D01*
X7897619Y9032858D01*
X8802380Y8080477D02*
X8802380Y8651905D01*
X8802380Y8366191D02*
X7802380Y8366191D01*
X7945238Y8461429D01*
X8040476Y8556667D01*
X8088095Y8651905D01*
X8230952Y7509048D02*
X8183333Y7604286D01*
X8135714Y7651905D01*
X8040476Y7699524D01*
X7992857Y7699524D01*
X7897619Y7651905D01*
X7850000Y7604286D01*
X7802380Y7509048D01*
X7802380Y7318572D01*
X7850000Y7223334D01*
X7897619Y7175715D01*
X7992857Y7128096D01*
X8040476Y7128096D01*
X8135714Y7175715D01*
X8183333Y7223334D01*
X8230952Y7318572D01*
X8230952Y7509048D01*
X8278571Y7604286D01*
X8326190Y7651905D01*
X8421428Y7699524D01*
X8611904Y7699524D01*
X8707142Y7651905D01*
X8754761Y7604286D01*
X8802380Y7509048D01*
X8802380Y7318572D01*
X8754761Y7223334D01*
X8707142Y7175715D01*
X8611904Y7128096D01*
X8421428Y7128096D01*
X8326190Y7175715D01*
X8278571Y7223334D01*
X8230952Y7318572D01*
X10888095Y26789620D02*
X10316666Y26789620D01*
X10602380Y25789620D02*
X10602380Y26789620D01*
X9983333Y25789620D02*
X9983333Y26789620D01*
X9602380Y26789620D01*
X9507142Y26742000D01*
X9459523Y26694381D01*
X9411904Y26599143D01*
X9411904Y26456286D01*
X9459523Y26361048D01*
X9507142Y26313429D01*
X9602380Y26265810D01*
X9983333Y26265810D01*
X8459523Y25789620D02*
X9030952Y25789620D01*
X8745238Y25789620D02*
X8745238Y26789620D01*
X8840476Y26646762D01*
X8935714Y26551524D01*
X9030952Y26503905D01*
X7602380Y26789620D02*
X7792857Y26789620D01*
X7888095Y26742000D01*
X7935714Y26694381D01*
X8030952Y26551524D01*
X8078571Y26361048D01*
X8078571Y25980096D01*
X8030952Y25884858D01*
X7983333Y25837239D01*
X7888095Y25789620D01*
X7697619Y25789620D01*
X7602380Y25837239D01*
X7554761Y25884858D01*
X7507142Y25980096D01*
X7507142Y26218191D01*
X7554761Y26313429D01*
X7602380Y26361048D01*
X7697619Y26408667D01*
X7888095Y26408667D01*
X7983333Y26361048D01*
X8030952Y26313429D01*
X8078571Y26218191D01*
X37642857Y13937620D02*
X37976190Y14413810D01*
X38214285Y13937620D02*
X38214285Y14937620D01*
X37833333Y14937620D01*
X37738095Y14890000D01*
X37690476Y14842381D01*
X37642857Y14747143D01*
X37642857Y14604286D01*
X37690476Y14509048D01*
X37738095Y14461429D01*
X37833333Y14413810D01*
X38214285Y14413810D01*
X36738095Y14937620D02*
X37214285Y14937620D01*
X37261904Y14461429D01*
X37214285Y14509048D01*
X37119047Y14556667D01*
X36880952Y14556667D01*
X36785714Y14509048D01*
X36738095Y14461429D01*
X36690476Y14366191D01*
X36690476Y14128096D01*
X36738095Y14032858D01*
X36785714Y13985239D01*
X36880952Y13937620D01*
X37119047Y13937620D01*
X37214285Y13985239D01*
X37261904Y14032858D01*
X36309523Y14842381D02*
X36261904Y14890000D01*
X36166666Y14937620D01*
X35928571Y14937620D01*
X35833333Y14890000D01*
X35785714Y14842381D01*
X35738095Y14747143D01*
X35738095Y14651905D01*
X35785714Y14509048D01*
X36357142Y13937620D01*
X35738095Y13937620D01*
X49142857Y8437620D02*
X49476190Y8913810D01*
X49714285Y8437620D02*
X49714285Y9437620D01*
X49333333Y9437620D01*
X49238095Y9390000D01*
X49190476Y9342381D01*
X49142857Y9247143D01*
X49142857Y9104286D01*
X49190476Y9009048D01*
X49238095Y8961429D01*
X49333333Y8913810D01*
X49714285Y8913810D01*
X48238095Y9437620D02*
X48714285Y9437620D01*
X48761904Y8961429D01*
X48714285Y9009048D01*
X48619047Y9056667D01*
X48380952Y9056667D01*
X48285714Y9009048D01*
X48238095Y8961429D01*
X48190476Y8866191D01*
X48190476Y8628096D01*
X48238095Y8532858D01*
X48285714Y8485239D01*
X48380952Y8437620D01*
X48619047Y8437620D01*
X48714285Y8485239D01*
X48761904Y8532858D01*
X47238095Y8437620D02*
X47809523Y8437620D01*
X47523809Y8437620D02*
X47523809Y9437620D01*
X47619047Y9294762D01*
X47714285Y9199524D01*
X47809523Y9151905D01*
X46642857Y18937620D02*
X46976190Y19413810D01*
X47214285Y18937620D02*
X47214285Y19937620D01*
X46833333Y19937620D01*
X46738095Y19890000D01*
X46690476Y19842381D01*
X46642857Y19747143D01*
X46642857Y19604286D01*
X46690476Y19509048D01*
X46738095Y19461429D01*
X46833333Y19413810D01*
X47214285Y19413810D01*
X46309523Y19937620D02*
X45690476Y19937620D01*
X46023809Y19556667D01*
X45880952Y19556667D01*
X45785714Y19509048D01*
X45738095Y19461429D01*
X45690476Y19366191D01*
X45690476Y19128096D01*
X45738095Y19032858D01*
X45785714Y18985239D01*
X45880952Y18937620D01*
X46166666Y18937620D01*
X46261904Y18985239D01*
X46309523Y19032858D01*
X45214285Y18937620D02*
X45023809Y18937620D01*
X44928571Y18985239D01*
X44880952Y19032858D01*
X44785714Y19175715D01*
X44738095Y19366191D01*
X44738095Y19747143D01*
X44785714Y19842381D01*
X44833333Y19890000D01*
X44928571Y19937620D01*
X45119047Y19937620D01*
X45214285Y19890000D01*
X45261904Y19842381D01*
X45309523Y19747143D01*
X45309523Y19509048D01*
X45261904Y19413810D01*
X45214285Y19366191D01*
X45119047Y19318572D01*
X44928571Y19318572D01*
X44833333Y19366191D01*
X44785714Y19413810D01*
X44738095Y19509048D01*
X49392857Y18937620D02*
X49726190Y19413810D01*
X49964285Y18937620D02*
X49964285Y19937620D01*
X49583333Y19937620D01*
X49488095Y19890000D01*
X49440476Y19842381D01*
X49392857Y19747143D01*
X49392857Y19604286D01*
X49440476Y19509048D01*
X49488095Y19461429D01*
X49583333Y19413810D01*
X49964285Y19413810D01*
X49059523Y19937620D02*
X48440476Y19937620D01*
X48773809Y19556667D01*
X48630952Y19556667D01*
X48535714Y19509048D01*
X48488095Y19461429D01*
X48440476Y19366191D01*
X48440476Y19128096D01*
X48488095Y19032858D01*
X48535714Y18985239D01*
X48630952Y18937620D01*
X48916666Y18937620D01*
X49011904Y18985239D01*
X49059523Y19032858D01*
X47869047Y19509048D02*
X47964285Y19556667D01*
X48011904Y19604286D01*
X48059523Y19699524D01*
X48059523Y19747143D01*
X48011904Y19842381D01*
X47964285Y19890000D01*
X47869047Y19937620D01*
X47678571Y19937620D01*
X47583333Y19890000D01*
X47535714Y19842381D01*
X47488095Y19747143D01*
X47488095Y19699524D01*
X47535714Y19604286D01*
X47583333Y19556667D01*
X47678571Y19509048D01*
X47869047Y19509048D01*
X47964285Y19461429D01*
X48011904Y19413810D01*
X48059523Y19318572D01*
X48059523Y19128096D01*
X48011904Y19032858D01*
X47964285Y18985239D01*
X47869047Y18937620D01*
X47678571Y18937620D01*
X47583333Y18985239D01*
X47535714Y19032858D01*
X47488095Y19128096D01*
X47488095Y19318572D01*
X47535714Y19413810D01*
X47583333Y19461429D01*
X47678571Y19509048D01*
X37822380Y20632858D02*
X37346190Y20966191D01*
X37822380Y21204286D02*
X36822380Y21204286D01*
X36822380Y20823334D01*
X36870000Y20728096D01*
X36917619Y20680477D01*
X37012857Y20632858D01*
X37155714Y20632858D01*
X37250952Y20680477D01*
X37298571Y20728096D01*
X37346190Y20823334D01*
X37346190Y21204286D01*
X36822380Y20299524D02*
X36822380Y19680477D01*
X37203333Y20013810D01*
X37203333Y19870953D01*
X37250952Y19775715D01*
X37298571Y19728096D01*
X37393809Y19680477D01*
X37631904Y19680477D01*
X37727142Y19728096D01*
X37774761Y19775715D01*
X37822380Y19870953D01*
X37822380Y20156667D01*
X37774761Y20251905D01*
X37727142Y20299524D01*
X36822380Y19347143D02*
X36822380Y18680477D01*
X37822380Y19109048D01*
X51422380Y16632858D02*
X50946190Y16966191D01*
X51422380Y17204286D02*
X50422380Y17204286D01*
X50422380Y16823334D01*
X50470000Y16728096D01*
X50517619Y16680477D01*
X50612857Y16632858D01*
X50755714Y16632858D01*
X50850952Y16680477D01*
X50898571Y16728096D01*
X50946190Y16823334D01*
X50946190Y17204286D01*
X50422380Y16299524D02*
X50422380Y15680477D01*
X50803333Y16013810D01*
X50803333Y15870953D01*
X50850952Y15775715D01*
X50898571Y15728096D01*
X50993809Y15680477D01*
X51231904Y15680477D01*
X51327142Y15728096D01*
X51374761Y15775715D01*
X51422380Y15870953D01*
X51422380Y16156667D01*
X51374761Y16251905D01*
X51327142Y16299524D01*
X50422380Y14823334D02*
X50422380Y15013810D01*
X50470000Y15109048D01*
X50517619Y15156667D01*
X50660476Y15251905D01*
X50850952Y15299524D01*
X51231904Y15299524D01*
X51327142Y15251905D01*
X51374761Y15204286D01*
X51422380Y15109048D01*
X51422380Y14918572D01*
X51374761Y14823334D01*
X51327142Y14775715D01*
X51231904Y14728096D01*
X50993809Y14728096D01*
X50898571Y14775715D01*
X50850952Y14823334D01*
X50803333Y14918572D01*
X50803333Y15109048D01*
X50850952Y15204286D01*
X50898571Y15251905D01*
X50993809Y15299524D01*
X15252380Y12532858D02*
X14776190Y12866191D01*
X15252380Y13104286D02*
X14252380Y13104286D01*
X14252380Y12723334D01*
X14300000Y12628096D01*
X14347619Y12580477D01*
X14442857Y12532858D01*
X14585714Y12532858D01*
X14680952Y12580477D01*
X14728571Y12628096D01*
X14776190Y12723334D01*
X14776190Y13104286D01*
X14252380Y12199524D02*
X14252380Y11580477D01*
X14633333Y11913810D01*
X14633333Y11770953D01*
X14680952Y11675715D01*
X14728571Y11628096D01*
X14823809Y11580477D01*
X15061904Y11580477D01*
X15157142Y11628096D01*
X15204761Y11675715D01*
X15252380Y11770953D01*
X15252380Y12056667D01*
X15204761Y12151905D01*
X15157142Y12199524D01*
X14347619Y11199524D02*
X14300000Y11151905D01*
X14252380Y11056667D01*
X14252380Y10818572D01*
X14300000Y10723334D01*
X14347619Y10675715D01*
X14442857Y10628096D01*
X14538095Y10628096D01*
X14680952Y10675715D01*
X15252380Y11247143D01*
X15252380Y10628096D01*
X45642857Y29187620D02*
X45976190Y29663810D01*
X46214285Y29187620D02*
X46214285Y30187620D01*
X45833333Y30187620D01*
X45738095Y30140000D01*
X45690476Y30092381D01*
X45642857Y29997143D01*
X45642857Y29854286D01*
X45690476Y29759048D01*
X45738095Y29711429D01*
X45833333Y29663810D01*
X46214285Y29663810D01*
X45309523Y30187620D02*
X44690476Y30187620D01*
X45023809Y29806667D01*
X44880952Y29806667D01*
X44785714Y29759048D01*
X44738095Y29711429D01*
X44690476Y29616191D01*
X44690476Y29378096D01*
X44738095Y29282858D01*
X44785714Y29235239D01*
X44880952Y29187620D01*
X45166666Y29187620D01*
X45261904Y29235239D01*
X45309523Y29282858D01*
X43738095Y29187620D02*
X44309523Y29187620D01*
X44023809Y29187620D02*
X44023809Y30187620D01*
X44119047Y30044762D01*
X44214285Y29949524D01*
X44309523Y29901905D01*
X38642857Y21867620D02*
X38976190Y22343810D01*
X39214285Y21867620D02*
X39214285Y22867620D01*
X38833333Y22867620D01*
X38738095Y22820000D01*
X38690476Y22772381D01*
X38642857Y22677143D01*
X38642857Y22534286D01*
X38690476Y22439048D01*
X38738095Y22391429D01*
X38833333Y22343810D01*
X39214285Y22343810D01*
X38261904Y22772381D02*
X38214285Y22820000D01*
X38119047Y22867620D01*
X37880952Y22867620D01*
X37785714Y22820000D01*
X37738095Y22772381D01*
X37690476Y22677143D01*
X37690476Y22581905D01*
X37738095Y22439048D01*
X38309523Y21867620D01*
X37690476Y21867620D01*
X37214285Y21867620D02*
X37023809Y21867620D01*
X36928571Y21915239D01*
X36880952Y21962858D01*
X36785714Y22105715D01*
X36738095Y22296191D01*
X36738095Y22677143D01*
X36785714Y22772381D01*
X36833333Y22820000D01*
X36928571Y22867620D01*
X37119047Y22867620D01*
X37214285Y22820000D01*
X37261904Y22772381D01*
X37309523Y22677143D01*
X37309523Y22439048D01*
X37261904Y22343810D01*
X37214285Y22296191D01*
X37119047Y22248572D01*
X36928571Y22248572D01*
X36833333Y22296191D01*
X36785714Y22343810D01*
X36738095Y22439048D01*
X18792857Y33717620D02*
X19126190Y34193810D01*
X19364285Y33717620D02*
X19364285Y34717620D01*
X18983333Y34717620D01*
X18888095Y34670000D01*
X18840476Y34622381D01*
X18792857Y34527143D01*
X18792857Y34384286D01*
X18840476Y34289048D01*
X18888095Y34241429D01*
X18983333Y34193810D01*
X19364285Y34193810D01*
X18411904Y34622381D02*
X18364285Y34670000D01*
X18269047Y34717620D01*
X18030952Y34717620D01*
X17935714Y34670000D01*
X17888095Y34622381D01*
X17840476Y34527143D01*
X17840476Y34431905D01*
X17888095Y34289048D01*
X18459523Y33717620D01*
X17840476Y33717620D01*
X17269047Y34289048D02*
X17364285Y34336667D01*
X17411904Y34384286D01*
X17459523Y34479524D01*
X17459523Y34527143D01*
X17411904Y34622381D01*
X17364285Y34670000D01*
X17269047Y34717620D01*
X17078571Y34717620D01*
X16983333Y34670000D01*
X16935714Y34622381D01*
X16888095Y34527143D01*
X16888095Y34479524D01*
X16935714Y34384286D01*
X16983333Y34336667D01*
X17078571Y34289048D01*
X17269047Y34289048D01*
X17364285Y34241429D01*
X17411904Y34193810D01*
X17459523Y34098572D01*
X17459523Y33908096D01*
X17411904Y33812858D01*
X17364285Y33765239D01*
X17269047Y33717620D01*
X17078571Y33717620D01*
X16983333Y33765239D01*
X16935714Y33812858D01*
X16888095Y33908096D01*
X16888095Y34098572D01*
X16935714Y34193810D01*
X16983333Y34241429D01*
X17078571Y34289048D01*
X47002380Y42082858D02*
X46526190Y42416191D01*
X47002380Y42654286D02*
X46002380Y42654286D01*
X46002380Y42273334D01*
X46050000Y42178096D01*
X46097619Y42130477D01*
X46192857Y42082858D01*
X46335714Y42082858D01*
X46430952Y42130477D01*
X46478571Y42178096D01*
X46526190Y42273334D01*
X46526190Y42654286D01*
X46097619Y41701905D02*
X46050000Y41654286D01*
X46002380Y41559048D01*
X46002380Y41320953D01*
X46050000Y41225715D01*
X46097619Y41178096D01*
X46192857Y41130477D01*
X46288095Y41130477D01*
X46430952Y41178096D01*
X47002380Y41749524D01*
X47002380Y41130477D01*
X46002380Y40797143D02*
X46002380Y40130477D01*
X47002380Y40559048D01*
X13152380Y46882858D02*
X12676190Y47216191D01*
X13152380Y47454286D02*
X12152380Y47454286D01*
X12152380Y47073334D01*
X12200000Y46978096D01*
X12247619Y46930477D01*
X12342857Y46882858D01*
X12485714Y46882858D01*
X12580952Y46930477D01*
X12628571Y46978096D01*
X12676190Y47073334D01*
X12676190Y47454286D01*
X12247619Y46501905D02*
X12200000Y46454286D01*
X12152380Y46359048D01*
X12152380Y46120953D01*
X12200000Y46025715D01*
X12247619Y45978096D01*
X12342857Y45930477D01*
X12438095Y45930477D01*
X12580952Y45978096D01*
X13152380Y46549524D01*
X13152380Y45930477D01*
X12152380Y45073334D02*
X12152380Y45263810D01*
X12200000Y45359048D01*
X12247619Y45406667D01*
X12390476Y45501905D01*
X12580952Y45549524D01*
X12961904Y45549524D01*
X13057142Y45501905D01*
X13104761Y45454286D01*
X13152380Y45359048D01*
X13152380Y45168572D01*
X13104761Y45073334D01*
X13057142Y45025715D01*
X12961904Y44978096D01*
X12723809Y44978096D01*
X12628571Y45025715D01*
X12580952Y45073334D01*
X12533333Y45168572D01*
X12533333Y45359048D01*
X12580952Y45454286D01*
X12628571Y45501905D01*
X12723809Y45549524D01*
X13202380Y12532858D02*
X12726190Y12866191D01*
X13202380Y13104286D02*
X12202380Y13104286D01*
X12202380Y12723334D01*
X12250000Y12628096D01*
X12297619Y12580477D01*
X12392857Y12532858D01*
X12535714Y12532858D01*
X12630952Y12580477D01*
X12678571Y12628096D01*
X12726190Y12723334D01*
X12726190Y13104286D01*
X12297619Y12151905D02*
X12250000Y12104286D01*
X12202380Y12009048D01*
X12202380Y11770953D01*
X12250000Y11675715D01*
X12297619Y11628096D01*
X12392857Y11580477D01*
X12488095Y11580477D01*
X12630952Y11628096D01*
X13202380Y12199524D01*
X13202380Y11580477D01*
X12202380Y10675715D02*
X12202380Y11151905D01*
X12678571Y11199524D01*
X12630952Y11151905D01*
X12583333Y11056667D01*
X12583333Y10818572D01*
X12630952Y10723334D01*
X12678571Y10675715D01*
X12773809Y10628096D01*
X13011904Y10628096D01*
X13107142Y10675715D01*
X13154761Y10723334D01*
X13202380Y10818572D01*
X13202380Y11056667D01*
X13154761Y11151905D01*
X13107142Y11199524D01*
X9042857Y15437620D02*
X9376190Y15913810D01*
X9614285Y15437620D02*
X9614285Y16437620D01*
X9233333Y16437620D01*
X9138095Y16390000D01*
X9090476Y16342381D01*
X9042857Y16247143D01*
X9042857Y16104286D01*
X9090476Y16009048D01*
X9138095Y15961429D01*
X9233333Y15913810D01*
X9614285Y15913810D01*
X8661904Y16342381D02*
X8614285Y16390000D01*
X8519047Y16437620D01*
X8280952Y16437620D01*
X8185714Y16390000D01*
X8138095Y16342381D01*
X8090476Y16247143D01*
X8090476Y16151905D01*
X8138095Y16009048D01*
X8709523Y15437620D01*
X8090476Y15437620D01*
X7233333Y16104286D02*
X7233333Y15437620D01*
X7471428Y16485239D02*
X7709523Y15770953D01*
X7090476Y15770953D01*
X48642857Y29187620D02*
X48976190Y29663810D01*
X49214285Y29187620D02*
X49214285Y30187620D01*
X48833333Y30187620D01*
X48738095Y30140000D01*
X48690476Y30092381D01*
X48642857Y29997143D01*
X48642857Y29854286D01*
X48690476Y29759048D01*
X48738095Y29711429D01*
X48833333Y29663810D01*
X49214285Y29663810D01*
X48261904Y30092381D02*
X48214285Y30140000D01*
X48119047Y30187620D01*
X47880952Y30187620D01*
X47785714Y30140000D01*
X47738095Y30092381D01*
X47690476Y29997143D01*
X47690476Y29901905D01*
X47738095Y29759048D01*
X48309523Y29187620D01*
X47690476Y29187620D01*
X47357142Y30187620D02*
X46738095Y30187620D01*
X47071428Y29806667D01*
X46928571Y29806667D01*
X46833333Y29759048D01*
X46785714Y29711429D01*
X46738095Y29616191D01*
X46738095Y29378096D01*
X46785714Y29282858D01*
X46833333Y29235239D01*
X46928571Y29187620D01*
X47214285Y29187620D01*
X47309523Y29235239D01*
X47357142Y29282858D01*
X50302380Y23782858D02*
X49826190Y24116191D01*
X50302380Y24354286D02*
X49302380Y24354286D01*
X49302380Y23973334D01*
X49350000Y23878096D01*
X49397619Y23830477D01*
X49492857Y23782858D01*
X49635714Y23782858D01*
X49730952Y23830477D01*
X49778571Y23878096D01*
X49826190Y23973334D01*
X49826190Y24354286D01*
X49397619Y23401905D02*
X49350000Y23354286D01*
X49302380Y23259048D01*
X49302380Y23020953D01*
X49350000Y22925715D01*
X49397619Y22878096D01*
X49492857Y22830477D01*
X49588095Y22830477D01*
X49730952Y22878096D01*
X50302380Y23449524D01*
X50302380Y22830477D01*
X49397619Y22449524D02*
X49350000Y22401905D01*
X49302380Y22306667D01*
X49302380Y22068572D01*
X49350000Y21973334D01*
X49397619Y21925715D01*
X49492857Y21878096D01*
X49588095Y21878096D01*
X49730952Y21925715D01*
X50302380Y22497143D01*
X50302380Y21878096D01*
X45642857Y37737620D02*
X45976190Y38213810D01*
X46214285Y37737620D02*
X46214285Y38737620D01*
X45833333Y38737620D01*
X45738095Y38690000D01*
X45690476Y38642381D01*
X45642857Y38547143D01*
X45642857Y38404286D01*
X45690476Y38309048D01*
X45738095Y38261429D01*
X45833333Y38213810D01*
X46214285Y38213810D01*
X44690476Y37737620D02*
X45261904Y37737620D01*
X44976190Y37737620D02*
X44976190Y38737620D01*
X45071428Y38594762D01*
X45166666Y38499524D01*
X45261904Y38451905D01*
X44119047Y38309048D02*
X44214285Y38356667D01*
X44261904Y38404286D01*
X44309523Y38499524D01*
X44309523Y38547143D01*
X44261904Y38642381D01*
X44214285Y38690000D01*
X44119047Y38737620D01*
X43928571Y38737620D01*
X43833333Y38690000D01*
X43785714Y38642381D01*
X43738095Y38547143D01*
X43738095Y38499524D01*
X43785714Y38404286D01*
X43833333Y38356667D01*
X43928571Y38309048D01*
X44119047Y38309048D01*
X44214285Y38261429D01*
X44261904Y38213810D01*
X44309523Y38118572D01*
X44309523Y37928096D01*
X44261904Y37832858D01*
X44214285Y37785239D01*
X44119047Y37737620D01*
X43928571Y37737620D01*
X43833333Y37785239D01*
X43785714Y37832858D01*
X43738095Y37928096D01*
X43738095Y38118572D01*
X43785714Y38213810D01*
X43833333Y38261429D01*
X43928571Y38309048D01*
X48442857Y37737620D02*
X48776190Y38213810D01*
X49014285Y37737620D02*
X49014285Y38737620D01*
X48633333Y38737620D01*
X48538095Y38690000D01*
X48490476Y38642381D01*
X48442857Y38547143D01*
X48442857Y38404286D01*
X48490476Y38309048D01*
X48538095Y38261429D01*
X48633333Y38213810D01*
X49014285Y38213810D01*
X47490476Y37737620D02*
X48061904Y37737620D01*
X47776190Y37737620D02*
X47776190Y38737620D01*
X47871428Y38594762D01*
X47966666Y38499524D01*
X48061904Y38451905D01*
X47157142Y38737620D02*
X46490476Y38737620D01*
X46919047Y37737620D01*
X52242857Y34337620D02*
X52576190Y34813810D01*
X52814285Y34337620D02*
X52814285Y35337620D01*
X52433333Y35337620D01*
X52338095Y35290000D01*
X52290476Y35242381D01*
X52242857Y35147143D01*
X52242857Y35004286D01*
X52290476Y34909048D01*
X52338095Y34861429D01*
X52433333Y34813810D01*
X52814285Y34813810D01*
X51290476Y34337620D02*
X51861904Y34337620D01*
X51576190Y34337620D02*
X51576190Y35337620D01*
X51671428Y35194762D01*
X51766666Y35099524D01*
X51861904Y35051905D01*
X50433333Y35337620D02*
X50623809Y35337620D01*
X50719047Y35290000D01*
X50766666Y35242381D01*
X50861904Y35099524D01*
X50909523Y34909048D01*
X50909523Y34528096D01*
X50861904Y34432858D01*
X50814285Y34385239D01*
X50719047Y34337620D01*
X50528571Y34337620D01*
X50433333Y34385239D01*
X50385714Y34432858D01*
X50338095Y34528096D01*
X50338095Y34766191D01*
X50385714Y34861429D01*
X50433333Y34909048D01*
X50528571Y34956667D01*
X50719047Y34956667D01*
X50814285Y34909048D01*
X50861904Y34861429D01*
X50909523Y34766191D01*
X15442857Y21537620D02*
X15776190Y22013810D01*
X16014285Y21537620D02*
X16014285Y22537620D01*
X15633333Y22537620D01*
X15538095Y22490000D01*
X15490476Y22442381D01*
X15442857Y22347143D01*
X15442857Y22204286D01*
X15490476Y22109048D01*
X15538095Y22061429D01*
X15633333Y22013810D01*
X16014285Y22013810D01*
X14490476Y21537620D02*
X15061904Y21537620D01*
X14776190Y21537620D02*
X14776190Y22537620D01*
X14871428Y22394762D01*
X14966666Y22299524D01*
X15061904Y22251905D01*
X13633333Y22204286D02*
X13633333Y21537620D01*
X13871428Y22585239D02*
X14109523Y21870953D01*
X13490476Y21870953D01*
X12242857Y21337620D02*
X12576190Y21813810D01*
X12814285Y21337620D02*
X12814285Y22337620D01*
X12433333Y22337620D01*
X12338095Y22290000D01*
X12290476Y22242381D01*
X12242857Y22147143D01*
X12242857Y22004286D01*
X12290476Y21909048D01*
X12338095Y21861429D01*
X12433333Y21813810D01*
X12814285Y21813810D01*
X11290476Y21337620D02*
X11861904Y21337620D01*
X11576190Y21337620D02*
X11576190Y22337620D01*
X11671428Y22194762D01*
X11766666Y22099524D01*
X11861904Y22051905D01*
X10957142Y22337620D02*
X10338095Y22337620D01*
X10671428Y21956667D01*
X10528571Y21956667D01*
X10433333Y21909048D01*
X10385714Y21861429D01*
X10338095Y21766191D01*
X10338095Y21528096D01*
X10385714Y21432858D01*
X10433333Y21385239D01*
X10528571Y21337620D01*
X10814285Y21337620D01*
X10909523Y21385239D01*
X10957142Y21432858D01*
X9282380Y25832858D02*
X8806190Y26166191D01*
X9282380Y26404286D02*
X8282380Y26404286D01*
X8282380Y26023334D01*
X8330000Y25928096D01*
X8377619Y25880477D01*
X8472857Y25832858D01*
X8615714Y25832858D01*
X8710952Y25880477D01*
X8758571Y25928096D01*
X8806190Y26023334D01*
X8806190Y26404286D01*
X9282380Y24880477D02*
X9282380Y25451905D01*
X9282380Y25166191D02*
X8282380Y25166191D01*
X8425238Y25261429D01*
X8520476Y25356667D01*
X8568095Y25451905D01*
X8377619Y24499524D02*
X8330000Y24451905D01*
X8282380Y24356667D01*
X8282380Y24118572D01*
X8330000Y24023334D01*
X8377619Y23975715D01*
X8472857Y23928096D01*
X8568095Y23928096D01*
X8710952Y23975715D01*
X9282380Y24547143D01*
X9282380Y23928096D01*
X14142857Y41437620D02*
X14476190Y41913810D01*
X14714285Y41437620D02*
X14714285Y42437620D01*
X14333333Y42437620D01*
X14238095Y42390000D01*
X14190476Y42342381D01*
X14142857Y42247143D01*
X14142857Y42104286D01*
X14190476Y42009048D01*
X14238095Y41961429D01*
X14333333Y41913810D01*
X14714285Y41913810D01*
X13190476Y41437620D02*
X13761904Y41437620D01*
X13476190Y41437620D02*
X13476190Y42437620D01*
X13571428Y42294762D01*
X13666666Y42199524D01*
X13761904Y42151905D01*
X12571428Y42437620D02*
X12476190Y42437620D01*
X12380952Y42390000D01*
X12333333Y42342381D01*
X12285714Y42247143D01*
X12238095Y42056667D01*
X12238095Y41818572D01*
X12285714Y41628096D01*
X12333333Y41532858D01*
X12380952Y41485239D01*
X12476190Y41437620D01*
X12571428Y41437620D01*
X12666666Y41485239D01*
X12714285Y41532858D01*
X12761904Y41628096D01*
X12809523Y41818572D01*
X12809523Y42056667D01*
X12761904Y42247143D01*
X12714285Y42342381D01*
X12666666Y42390000D01*
X12571428Y42437620D01*
X9952380Y42056667D02*
X9476190Y42390000D01*
X9952380Y42628096D02*
X8952380Y42628096D01*
X8952380Y42247143D01*
X9000000Y42151905D01*
X9047619Y42104286D01*
X9142857Y42056667D01*
X9285714Y42056667D01*
X9380952Y42104286D01*
X9428571Y42151905D01*
X9476190Y42247143D01*
X9476190Y42628096D01*
X9952380Y41580477D02*
X9952380Y41390000D01*
X9904761Y41294762D01*
X9857142Y41247143D01*
X9714285Y41151905D01*
X9523809Y41104286D01*
X9142857Y41104286D01*
X9047619Y41151905D01*
X9000000Y41199524D01*
X8952380Y41294762D01*
X8952380Y41485239D01*
X9000000Y41580477D01*
X9047619Y41628096D01*
X9142857Y41675715D01*
X9380952Y41675715D01*
X9476190Y41628096D01*
X9523809Y41580477D01*
X9571428Y41485239D01*
X9571428Y41294762D01*
X9523809Y41199524D01*
X9476190Y41151905D01*
X9380952Y41104286D01*
X41852380Y18206667D02*
X41376190Y18540000D01*
X41852380Y18778096D02*
X40852380Y18778096D01*
X40852380Y18397143D01*
X40900000Y18301905D01*
X40947619Y18254286D01*
X41042857Y18206667D01*
X41185714Y18206667D01*
X41280952Y18254286D01*
X41328571Y18301905D01*
X41376190Y18397143D01*
X41376190Y18778096D01*
X41280952Y17635239D02*
X41233333Y17730477D01*
X41185714Y17778096D01*
X41090476Y17825715D01*
X41042857Y17825715D01*
X40947619Y17778096D01*
X40900000Y17730477D01*
X40852380Y17635239D01*
X40852380Y17444762D01*
X40900000Y17349524D01*
X40947619Y17301905D01*
X41042857Y17254286D01*
X41090476Y17254286D01*
X41185714Y17301905D01*
X41233333Y17349524D01*
X41280952Y17444762D01*
X41280952Y17635239D01*
X41328571Y17730477D01*
X41376190Y17778096D01*
X41471428Y17825715D01*
X41661904Y17825715D01*
X41757142Y17778096D01*
X41804761Y17730477D01*
X41852380Y17635239D01*
X41852380Y17444762D01*
X41804761Y17349524D01*
X41757142Y17301905D01*
X41661904Y17254286D01*
X41471428Y17254286D01*
X41376190Y17301905D01*
X41328571Y17349524D01*
X41280952Y17444762D01*
X30082380Y20056667D02*
X29606190Y20390000D01*
X30082380Y20628096D02*
X29082380Y20628096D01*
X29082380Y20247143D01*
X29130000Y20151905D01*
X29177619Y20104286D01*
X29272857Y20056667D01*
X29415714Y20056667D01*
X29510952Y20104286D01*
X29558571Y20151905D01*
X29606190Y20247143D01*
X29606190Y20628096D01*
X29177619Y19675715D02*
X29130000Y19628096D01*
X29082380Y19532858D01*
X29082380Y19294762D01*
X29130000Y19199524D01*
X29177619Y19151905D01*
X29272857Y19104286D01*
X29368095Y19104286D01*
X29510952Y19151905D01*
X30082380Y19723334D01*
X30082380Y19104286D01*
X20430357Y12107620D02*
X20763690Y12583810D01*
X21001785Y12107620D02*
X21001785Y13107620D01*
X20620833Y13107620D01*
X20525595Y13060000D01*
X20477976Y13012381D01*
X20430357Y12917143D01*
X20430357Y12774286D01*
X20477976Y12679048D01*
X20525595Y12631429D01*
X20620833Y12583810D01*
X21001785Y12583810D01*
X19573214Y12774286D02*
X19573214Y12107620D01*
X19811309Y13155239D02*
X20049404Y12440953D01*
X19430357Y12440953D01*
X18525595Y12107620D02*
X19097023Y12107620D01*
X18811309Y12107620D02*
X18811309Y13107620D01*
X18906547Y12964762D01*
X19001785Y12869524D01*
X19097023Y12821905D01*
X18882380Y19782858D02*
X18406190Y20116191D01*
X18882380Y20354286D02*
X17882380Y20354286D01*
X17882380Y19973334D01*
X17930000Y19878096D01*
X17977619Y19830477D01*
X18072857Y19782858D01*
X18215714Y19782858D01*
X18310952Y19830477D01*
X18358571Y19878096D01*
X18406190Y19973334D01*
X18406190Y20354286D01*
X18215714Y18925715D02*
X18882380Y18925715D01*
X17834761Y19163810D02*
X18549047Y19401905D01*
X18549047Y18782858D01*
X17882380Y18211429D02*
X17882380Y18116191D01*
X17930000Y18020953D01*
X17977619Y17973334D01*
X18072857Y17925715D01*
X18263333Y17878096D01*
X18501428Y17878096D01*
X18691904Y17925715D01*
X18787142Y17973334D01*
X18834761Y18020953D01*
X18882380Y18116191D01*
X18882380Y18211429D01*
X18834761Y18306667D01*
X18787142Y18354286D01*
X18691904Y18401905D01*
X18501428Y18449524D01*
X18263333Y18449524D01*
X18072857Y18401905D01*
X17977619Y18354286D01*
X17930000Y18306667D01*
X17882380Y18211429D01*
X21042857Y18832858D02*
X21090476Y18785239D01*
X21233333Y18737620D01*
X21328571Y18737620D01*
X21471428Y18785239D01*
X21566666Y18880477D01*
X21614285Y18975715D01*
X21661904Y19166191D01*
X21661904Y19309048D01*
X21614285Y19499524D01*
X21566666Y19594762D01*
X21471428Y19690000D01*
X21328571Y19737620D01*
X21233333Y19737620D01*
X21090476Y19690000D01*
X21042857Y19642381D01*
X20471428Y19309048D02*
X20566666Y19356667D01*
X20614285Y19404286D01*
X20661904Y19499524D01*
X20661904Y19547143D01*
X20614285Y19642381D01*
X20566666Y19690000D01*
X20471428Y19737620D01*
X20280952Y19737620D01*
X20185714Y19690000D01*
X20138095Y19642381D01*
X20090476Y19547143D01*
X20090476Y19499524D01*
X20138095Y19404286D01*
X20185714Y19356667D01*
X20280952Y19309048D01*
X20471428Y19309048D01*
X20566666Y19261429D01*
X20614285Y19213810D01*
X20661904Y19118572D01*
X20661904Y18928096D01*
X20614285Y18832858D01*
X20566666Y18785239D01*
X20471428Y18737620D01*
X20280952Y18737620D01*
X20185714Y18785239D01*
X20138095Y18832858D01*
X20090476Y18928096D01*
X20090476Y19118572D01*
X20138095Y19213810D01*
X20185714Y19261429D01*
X20280952Y19309048D01*
X19757142Y19737620D02*
X19090476Y19737620D01*
X19519047Y18737620D01*
X32307106Y41592031D02*
X32374450Y41592031D01*
X32509137Y41659375D01*
X32576480Y41726718D01*
X32643824Y41861405D01*
X32643824Y41996092D01*
X32610152Y42097107D01*
X32509137Y42265466D01*
X32408122Y42366481D01*
X32239763Y42467497D01*
X32138748Y42501168D01*
X32004061Y42501168D01*
X31869374Y42433825D01*
X31802030Y42366481D01*
X31734687Y42231794D01*
X31734687Y42164451D01*
X31296954Y41390000D02*
X31768358Y40918596D01*
X31195938Y41827733D02*
X31869374Y41491016D01*
X31431641Y41053283D01*
X30892893Y40851252D02*
X30926564Y40952268D01*
X30926564Y41019611D01*
X30892893Y41120626D01*
X30859221Y41154298D01*
X30758206Y41187970D01*
X30690862Y41187970D01*
X30589847Y41154298D01*
X30455160Y41019611D01*
X30421488Y40918596D01*
X30421488Y40851252D01*
X30455160Y40750237D01*
X30488832Y40716565D01*
X30589847Y40682894D01*
X30657190Y40682894D01*
X30758206Y40716565D01*
X30892893Y40851252D01*
X30993908Y40884924D01*
X31061251Y40884924D01*
X31162267Y40851252D01*
X31296954Y40716565D01*
X31330625Y40615550D01*
X31330625Y40548207D01*
X31296954Y40447191D01*
X31162267Y40312504D01*
X31061251Y40278833D01*
X30993908Y40278833D01*
X30892893Y40312504D01*
X30758206Y40447191D01*
X30724534Y40548207D01*
X30724534Y40615550D01*
X30758206Y40716565D01*
X34534421Y39364716D02*
X34601765Y39364716D01*
X34736452Y39432060D01*
X34803795Y39499403D01*
X34871139Y39634090D01*
X34871139Y39768777D01*
X34837467Y39869792D01*
X34736452Y40038151D01*
X34635437Y40139166D01*
X34467078Y40240182D01*
X34366063Y40273853D01*
X34231376Y40273853D01*
X34096689Y40206510D01*
X34029345Y40139166D01*
X33962002Y40004479D01*
X33962002Y39937136D01*
X33524269Y39162685D02*
X33995673Y38691281D01*
X33423253Y39600418D02*
X34096689Y39263701D01*
X33658956Y38825968D01*
X32985521Y39095342D02*
X32514116Y38623937D01*
X33524269Y38219876D01*
X32227142Y35532858D02*
X32274761Y35580477D01*
X32322380Y35723334D01*
X32322380Y35818572D01*
X32274761Y35961429D01*
X32179523Y36056667D01*
X32084285Y36104286D01*
X31893809Y36151905D01*
X31750952Y36151905D01*
X31560476Y36104286D01*
X31465238Y36056667D01*
X31370000Y35961429D01*
X31322380Y35818572D01*
X31322380Y35723334D01*
X31370000Y35580477D01*
X31417619Y35532858D01*
X31322380Y35199524D02*
X31322380Y34580477D01*
X31703333Y34913810D01*
X31703333Y34770953D01*
X31750952Y34675715D01*
X31798571Y34628096D01*
X31893809Y34580477D01*
X32131904Y34580477D01*
X32227142Y34628096D01*
X32274761Y34675715D01*
X32322380Y34770953D01*
X32322380Y35056667D01*
X32274761Y35151905D01*
X32227142Y35199524D01*
X31322380Y34247143D02*
X31322380Y33628096D01*
X31703333Y33961429D01*
X31703333Y33818572D01*
X31750952Y33723334D01*
X31798571Y33675715D01*
X31893809Y33628096D01*
X32131904Y33628096D01*
X32227142Y33675715D01*
X32274761Y33723334D01*
X32322380Y33818572D01*
X32322380Y34104286D01*
X32274761Y34199524D01*
X32227142Y34247143D01*
X34242857Y28232858D02*
X34290476Y28185239D01*
X34433333Y28137620D01*
X34528571Y28137620D01*
X34671428Y28185239D01*
X34766666Y28280477D01*
X34814285Y28375715D01*
X34861904Y28566191D01*
X34861904Y28709048D01*
X34814285Y28899524D01*
X34766666Y28994762D01*
X34671428Y29090000D01*
X34528571Y29137620D01*
X34433333Y29137620D01*
X34290476Y29090000D01*
X34242857Y29042381D01*
X33385714Y28804286D02*
X33385714Y28137620D01*
X33623809Y29185239D02*
X33861904Y28470953D01*
X33242857Y28470953D01*
X32385714Y29137620D02*
X32861904Y29137620D01*
X32909523Y28661429D01*
X32861904Y28709048D01*
X32766666Y28756667D01*
X32528571Y28756667D01*
X32433333Y28709048D01*
X32385714Y28661429D01*
X32338095Y28566191D01*
X32338095Y28328096D01*
X32385714Y28232858D01*
X32433333Y28185239D01*
X32528571Y28137620D01*
X32766666Y28137620D01*
X32861904Y28185239D01*
X32909523Y28232858D01*
X6442857Y39232858D02*
X6490476Y39185239D01*
X6633333Y39137620D01*
X6728571Y39137620D01*
X6871428Y39185239D01*
X6966666Y39280477D01*
X7014285Y39375715D01*
X7061904Y39566191D01*
X7061904Y39709048D01*
X7014285Y39899524D01*
X6966666Y39994762D01*
X6871428Y40090000D01*
X6728571Y40137620D01*
X6633333Y40137620D01*
X6490476Y40090000D01*
X6442857Y40042381D01*
X6109523Y40137620D02*
X5490476Y40137620D01*
X5823809Y39756667D01*
X5680952Y39756667D01*
X5585714Y39709048D01*
X5538095Y39661429D01*
X5490476Y39566191D01*
X5490476Y39328096D01*
X5538095Y39232858D01*
X5585714Y39185239D01*
X5680952Y39137620D01*
X5966666Y39137620D01*
X6061904Y39185239D01*
X6109523Y39232858D01*
X4538095Y39137620D02*
X5109523Y39137620D01*
X4823809Y39137620D02*
X4823809Y40137620D01*
X4919047Y39994762D01*
X5014285Y39899524D01*
X5109523Y39851905D01*
X15857142Y41532858D02*
X15904761Y41580477D01*
X15952380Y41723334D01*
X15952380Y41818572D01*
X15904761Y41961429D01*
X15809523Y42056667D01*
X15714285Y42104286D01*
X15523809Y42151905D01*
X15380952Y42151905D01*
X15190476Y42104286D01*
X15095238Y42056667D01*
X15000000Y41961429D01*
X14952380Y41818572D01*
X14952380Y41723334D01*
X15000000Y41580477D01*
X15047619Y41532858D01*
X15047619Y41151905D02*
X15000000Y41104286D01*
X14952380Y41009048D01*
X14952380Y40770953D01*
X15000000Y40675715D01*
X15047619Y40628096D01*
X15142857Y40580477D01*
X15238095Y40580477D01*
X15380952Y40628096D01*
X15952380Y41199524D01*
X15952380Y40580477D01*
X15952380Y40104286D02*
X15952380Y39913810D01*
X15904761Y39818572D01*
X15857142Y39770953D01*
X15714285Y39675715D01*
X15523809Y39628096D01*
X15142857Y39628096D01*
X15047619Y39675715D01*
X15000000Y39723334D01*
X14952380Y39818572D01*
X14952380Y40009048D01*
X15000000Y40104286D01*
X15047619Y40151905D01*
X15142857Y40199524D01*
X15380952Y40199524D01*
X15476190Y40151905D01*
X15523809Y40104286D01*
X15571428Y40009048D01*
X15571428Y39818572D01*
X15523809Y39723334D01*
X15476190Y39675715D01*
X15380952Y39628096D01*
X10242857Y32832858D02*
X10290476Y32785239D01*
X10433333Y32737620D01*
X10528571Y32737620D01*
X10671428Y32785239D01*
X10766666Y32880477D01*
X10814285Y32975715D01*
X10861904Y33166191D01*
X10861904Y33309048D01*
X10814285Y33499524D01*
X10766666Y33594762D01*
X10671428Y33690000D01*
X10528571Y33737620D01*
X10433333Y33737620D01*
X10290476Y33690000D01*
X10242857Y33642381D01*
X9861904Y33642381D02*
X9814285Y33690000D01*
X9719047Y33737620D01*
X9480952Y33737620D01*
X9385714Y33690000D01*
X9338095Y33642381D01*
X9290476Y33547143D01*
X9290476Y33451905D01*
X9338095Y33309048D01*
X9909523Y32737620D01*
X9290476Y32737620D01*
X8957142Y33737620D02*
X8290476Y33737620D01*
X8719047Y32737620D01*
X21442857Y35032858D02*
X21490476Y34985239D01*
X21633333Y34937620D01*
X21728571Y34937620D01*
X21871428Y34985239D01*
X21966666Y35080477D01*
X22014285Y35175715D01*
X22061904Y35366191D01*
X22061904Y35509048D01*
X22014285Y35699524D01*
X21966666Y35794762D01*
X21871428Y35890000D01*
X21728571Y35937620D01*
X21633333Y35937620D01*
X21490476Y35890000D01*
X21442857Y35842381D01*
X21061904Y35842381D02*
X21014285Y35890000D01*
X20919047Y35937620D01*
X20680952Y35937620D01*
X20585714Y35890000D01*
X20538095Y35842381D01*
X20490476Y35747143D01*
X20490476Y35651905D01*
X20538095Y35509048D01*
X21109523Y34937620D01*
X20490476Y34937620D01*
X19585714Y35937620D02*
X20061904Y35937620D01*
X20109523Y35461429D01*
X20061904Y35509048D01*
X19966666Y35556667D01*
X19728571Y35556667D01*
X19633333Y35509048D01*
X19585714Y35461429D01*
X19538095Y35366191D01*
X19538095Y35128096D01*
X19585714Y35032858D01*
X19633333Y34985239D01*
X19728571Y34937620D01*
X19966666Y34937620D01*
X20061904Y34985239D01*
X20109523Y35032858D01*
X27157142Y17632858D02*
X27204761Y17680477D01*
X27252380Y17823334D01*
X27252380Y17918572D01*
X27204761Y18061429D01*
X27109523Y18156667D01*
X27014285Y18204286D01*
X26823809Y18251905D01*
X26680952Y18251905D01*
X26490476Y18204286D01*
X26395238Y18156667D01*
X26300000Y18061429D01*
X26252380Y17918572D01*
X26252380Y17823334D01*
X26300000Y17680477D01*
X26347619Y17632858D01*
X26585714Y16775715D02*
X27252380Y16775715D01*
X26204761Y17013810D02*
X26919047Y17251905D01*
X26919047Y16632858D01*
X26252380Y16347143D02*
X26252380Y15728096D01*
X26633333Y16061429D01*
X26633333Y15918572D01*
X26680952Y15823334D01*
X26728571Y15775715D01*
X26823809Y15728096D01*
X27061904Y15728096D01*
X27157142Y15775715D01*
X27204761Y15823334D01*
X27252380Y15918572D01*
X27252380Y16204286D01*
X27204761Y16299524D01*
X27157142Y16347143D01*
X43642857Y15832858D02*
X43690476Y15785239D01*
X43833333Y15737620D01*
X43928571Y15737620D01*
X44071428Y15785239D01*
X44166666Y15880477D01*
X44214285Y15975715D01*
X44261904Y16166191D01*
X44261904Y16309048D01*
X44214285Y16499524D01*
X44166666Y16594762D01*
X44071428Y16690000D01*
X43928571Y16737620D01*
X43833333Y16737620D01*
X43690476Y16690000D01*
X43642857Y16642381D01*
X43309523Y16737620D02*
X42690476Y16737620D01*
X43023809Y16356667D01*
X42880952Y16356667D01*
X42785714Y16309048D01*
X42738095Y16261429D01*
X42690476Y16166191D01*
X42690476Y15928096D01*
X42738095Y15832858D01*
X42785714Y15785239D01*
X42880952Y15737620D01*
X43166666Y15737620D01*
X43261904Y15785239D01*
X43309523Y15832858D01*
X42214285Y15737620D02*
X42023809Y15737620D01*
X41928571Y15785239D01*
X41880952Y15832858D01*
X41785714Y15975715D01*
X41738095Y16166191D01*
X41738095Y16547143D01*
X41785714Y16642381D01*
X41833333Y16690000D01*
X41928571Y16737620D01*
X42119047Y16737620D01*
X42214285Y16690000D01*
X42261904Y16642381D01*
X42309523Y16547143D01*
X42309523Y16309048D01*
X42261904Y16213810D01*
X42214285Y16166191D01*
X42119047Y16118572D01*
X41928571Y16118572D01*
X41833333Y16166191D01*
X41785714Y16213810D01*
X41738095Y16309048D01*
X17642857Y15232858D02*
X17690476Y15185239D01*
X17833333Y15137620D01*
X17928571Y15137620D01*
X18071428Y15185239D01*
X18166666Y15280477D01*
X18214285Y15375715D01*
X18261904Y15566191D01*
X18261904Y15709048D01*
X18214285Y15899524D01*
X18166666Y15994762D01*
X18071428Y16090000D01*
X17928571Y16137620D01*
X17833333Y16137620D01*
X17690476Y16090000D01*
X17642857Y16042381D01*
X17309523Y16137620D02*
X16690476Y16137620D01*
X17023809Y15756667D01*
X16880952Y15756667D01*
X16785714Y15709048D01*
X16738095Y15661429D01*
X16690476Y15566191D01*
X16690476Y15328096D01*
X16738095Y15232858D01*
X16785714Y15185239D01*
X16880952Y15137620D01*
X17166666Y15137620D01*
X17261904Y15185239D01*
X17309523Y15232858D01*
X15833333Y16137620D02*
X16023809Y16137620D01*
X16119047Y16090000D01*
X16166666Y16042381D01*
X16261904Y15899524D01*
X16309523Y15709048D01*
X16309523Y15328096D01*
X16261904Y15232858D01*
X16214285Y15185239D01*
X16119047Y15137620D01*
X15928571Y15137620D01*
X15833333Y15185239D01*
X15785714Y15232858D01*
X15738095Y15328096D01*
X15738095Y15566191D01*
X15785714Y15661429D01*
X15833333Y15709048D01*
X15928571Y15756667D01*
X16119047Y15756667D01*
X16214285Y15709048D01*
X16261904Y15661429D01*
X16309523Y15566191D01*
X42842857Y25232858D02*
X42890476Y25185239D01*
X43033333Y25137620D01*
X43128571Y25137620D01*
X43271428Y25185239D01*
X43366666Y25280477D01*
X43414285Y25375715D01*
X43461904Y25566191D01*
X43461904Y25709048D01*
X43414285Y25899524D01*
X43366666Y25994762D01*
X43271428Y26090000D01*
X43128571Y26137620D01*
X43033333Y26137620D01*
X42890476Y26090000D01*
X42842857Y26042381D01*
X42509523Y26137620D02*
X41890476Y26137620D01*
X42223809Y25756667D01*
X42080952Y25756667D01*
X41985714Y25709048D01*
X41938095Y25661429D01*
X41890476Y25566191D01*
X41890476Y25328096D01*
X41938095Y25232858D01*
X41985714Y25185239D01*
X42080952Y25137620D01*
X42366666Y25137620D01*
X42461904Y25185239D01*
X42509523Y25232858D01*
X40985714Y26137620D02*
X41461904Y26137620D01*
X41509523Y25661429D01*
X41461904Y25709048D01*
X41366666Y25756667D01*
X41128571Y25756667D01*
X41033333Y25709048D01*
X40985714Y25661429D01*
X40938095Y25566191D01*
X40938095Y25328096D01*
X40985714Y25232858D01*
X41033333Y25185239D01*
X41128571Y25137620D01*
X41366666Y25137620D01*
X41461904Y25185239D01*
X41509523Y25232858D01*
X43242857Y34632858D02*
X43290476Y34585239D01*
X43433333Y34537620D01*
X43528571Y34537620D01*
X43671428Y34585239D01*
X43766666Y34680477D01*
X43814285Y34775715D01*
X43861904Y34966191D01*
X43861904Y35109048D01*
X43814285Y35299524D01*
X43766666Y35394762D01*
X43671428Y35490000D01*
X43528571Y35537620D01*
X43433333Y35537620D01*
X43290476Y35490000D01*
X43242857Y35442381D01*
X42290476Y34537620D02*
X42861904Y34537620D01*
X42576190Y34537620D02*
X42576190Y35537620D01*
X42671428Y35394762D01*
X42766666Y35299524D01*
X42861904Y35251905D01*
X41671428Y35537620D02*
X41576190Y35537620D01*
X41480952Y35490000D01*
X41433333Y35442381D01*
X41385714Y35347143D01*
X41338095Y35156667D01*
X41338095Y34918572D01*
X41385714Y34728096D01*
X41433333Y34632858D01*
X41480952Y34585239D01*
X41576190Y34537620D01*
X41671428Y34537620D01*
X41766666Y34585239D01*
X41814285Y34632858D01*
X41861904Y34728096D01*
X41909523Y34918572D01*
X41909523Y35156667D01*
X41861904Y35347143D01*
X41814285Y35442381D01*
X41766666Y35490000D01*
X41671428Y35537620D01*
X17166666Y24632858D02*
X17214285Y24585239D01*
X17357142Y24537620D01*
X17452380Y24537620D01*
X17595238Y24585239D01*
X17690476Y24680477D01*
X17738095Y24775715D01*
X17785714Y24966191D01*
X17785714Y25109048D01*
X17738095Y25299524D01*
X17690476Y25394762D01*
X17595238Y25490000D01*
X17452380Y25537620D01*
X17357142Y25537620D01*
X17214285Y25490000D01*
X17166666Y25442381D01*
X16833333Y25537620D02*
X16166666Y25537620D01*
X16595238Y24537620D01*
X30966666Y15612858D02*
X31014285Y15565239D01*
X31157142Y15517620D01*
X31252380Y15517620D01*
X31395238Y15565239D01*
X31490476Y15660477D01*
X31538095Y15755715D01*
X31585714Y15946191D01*
X31585714Y16089048D01*
X31538095Y16279524D01*
X31490476Y16374762D01*
X31395238Y16470000D01*
X31252380Y16517620D01*
X31157142Y16517620D01*
X31014285Y16470000D01*
X30966666Y16422381D01*
X30014285Y15517620D02*
X30585714Y15517620D01*
X30300000Y15517620D02*
X30300000Y16517620D01*
X30395238Y16374762D01*
X30490476Y16279524D01*
X30585714Y16231905D01*
X20042857Y27532858D02*
X20090476Y27485239D01*
X20233333Y27437620D01*
X20328571Y27437620D01*
X20471428Y27485239D01*
X20566666Y27580477D01*
X20614285Y27675715D01*
X20661904Y27866191D01*
X20661904Y28009048D01*
X20614285Y28199524D01*
X20566666Y28294762D01*
X20471428Y28390000D01*
X20328571Y28437620D01*
X20233333Y28437620D01*
X20090476Y28390000D01*
X20042857Y28342381D01*
X19566666Y27437620D02*
X19376190Y27437620D01*
X19280952Y27485239D01*
X19233333Y27532858D01*
X19138095Y27675715D01*
X19090476Y27866191D01*
X19090476Y28247143D01*
X19138095Y28342381D01*
X19185714Y28390000D01*
X19280952Y28437620D01*
X19471428Y28437620D01*
X19566666Y28390000D01*
X19614285Y28342381D01*
X19661904Y28247143D01*
X19661904Y28009048D01*
X19614285Y27913810D01*
X19566666Y27866191D01*
X19471428Y27818572D01*
X19280952Y27818572D01*
X19185714Y27866191D01*
X19138095Y27913810D01*
X19090476Y28009048D01*
X18519047Y28009048D02*
X18614285Y28056667D01*
X18661904Y28104286D01*
X18709523Y28199524D01*
X18709523Y28247143D01*
X18661904Y28342381D01*
X18614285Y28390000D01*
X18519047Y28437620D01*
X18328571Y28437620D01*
X18233333Y28390000D01*
X18185714Y28342381D01*
X18138095Y28247143D01*
X18138095Y28199524D01*
X18185714Y28104286D01*
X18233333Y28056667D01*
X18328571Y28009048D01*
X18519047Y28009048D01*
X18614285Y27961429D01*
X18661904Y27913810D01*
X18709523Y27818572D01*
X18709523Y27628096D01*
X18661904Y27532858D01*
X18614285Y27485239D01*
X18519047Y27437620D01*
X18328571Y27437620D01*
X18233333Y27485239D01*
X18185714Y27532858D01*
X18138095Y27628096D01*
X18138095Y27818572D01*
X18185714Y27913810D01*
X18233333Y27961429D01*
X18328571Y28009048D01*
X25642857Y14832858D02*
X25690476Y14785239D01*
X25833333Y14737620D01*
X25928571Y14737620D01*
X26071428Y14785239D01*
X26166666Y14880477D01*
X26214285Y14975715D01*
X26261904Y15166191D01*
X26261904Y15309048D01*
X26214285Y15499524D01*
X26166666Y15594762D01*
X26071428Y15690000D01*
X25928571Y15737620D01*
X25833333Y15737620D01*
X25690476Y15690000D01*
X25642857Y15642381D01*
X25166666Y14737620D02*
X24976190Y14737620D01*
X24880952Y14785239D01*
X24833333Y14832858D01*
X24738095Y14975715D01*
X24690476Y15166191D01*
X24690476Y15547143D01*
X24738095Y15642381D01*
X24785714Y15690000D01*
X24880952Y15737620D01*
X25071428Y15737620D01*
X25166666Y15690000D01*
X25214285Y15642381D01*
X25261904Y15547143D01*
X25261904Y15309048D01*
X25214285Y15213810D01*
X25166666Y15166191D01*
X25071428Y15118572D01*
X24880952Y15118572D01*
X24785714Y15166191D01*
X24738095Y15213810D01*
X24690476Y15309048D01*
X24357142Y15737620D02*
X23690476Y15737620D01*
X24119047Y14737620D01*
X24042857Y28432858D02*
X24090476Y28385239D01*
X24233333Y28337620D01*
X24328571Y28337620D01*
X24471428Y28385239D01*
X24566666Y28480477D01*
X24614285Y28575715D01*
X24661904Y28766191D01*
X24661904Y28909048D01*
X24614285Y29099524D01*
X24566666Y29194762D01*
X24471428Y29290000D01*
X24328571Y29337620D01*
X24233333Y29337620D01*
X24090476Y29290000D01*
X24042857Y29242381D01*
X23566666Y28337620D02*
X23376190Y28337620D01*
X23280952Y28385239D01*
X23233333Y28432858D01*
X23138095Y28575715D01*
X23090476Y28766191D01*
X23090476Y29147143D01*
X23138095Y29242381D01*
X23185714Y29290000D01*
X23280952Y29337620D01*
X23471428Y29337620D01*
X23566666Y29290000D01*
X23614285Y29242381D01*
X23661904Y29147143D01*
X23661904Y28909048D01*
X23614285Y28813810D01*
X23566666Y28766191D01*
X23471428Y28718572D01*
X23280952Y28718572D01*
X23185714Y28766191D01*
X23138095Y28813810D01*
X23090476Y28909048D01*
X22233333Y29337620D02*
X22423809Y29337620D01*
X22519047Y29290000D01*
X22566666Y29242381D01*
X22661904Y29099524D01*
X22709523Y28909048D01*
X22709523Y28528096D01*
X22661904Y28432858D01*
X22614285Y28385239D01*
X22519047Y28337620D01*
X22328571Y28337620D01*
X22233333Y28385239D01*
X22185714Y28432858D01*
X22138095Y28528096D01*
X22138095Y28766191D01*
X22185714Y28861429D01*
X22233333Y28909048D01*
X22328571Y28956667D01*
X22519047Y28956667D01*
X22614285Y28909048D01*
X22661904Y28861429D01*
X22709523Y28766191D01*
X23357142Y15432858D02*
X23404761Y15480477D01*
X23452380Y15623334D01*
X23452380Y15718572D01*
X23404761Y15861429D01*
X23309523Y15956667D01*
X23214285Y16004286D01*
X23023809Y16051905D01*
X22880952Y16051905D01*
X22690476Y16004286D01*
X22595238Y15956667D01*
X22500000Y15861429D01*
X22452380Y15718572D01*
X22452380Y15623334D01*
X22500000Y15480477D01*
X22547619Y15432858D01*
X23452380Y14956667D02*
X23452380Y14766191D01*
X23404761Y14670953D01*
X23357142Y14623334D01*
X23214285Y14528096D01*
X23023809Y14480477D01*
X22642857Y14480477D01*
X22547619Y14528096D01*
X22500000Y14575715D01*
X22452380Y14670953D01*
X22452380Y14861429D01*
X22500000Y14956667D01*
X22547619Y15004286D01*
X22642857Y15051905D01*
X22880952Y15051905D01*
X22976190Y15004286D01*
X23023809Y14956667D01*
X23071428Y14861429D01*
X23071428Y14670953D01*
X23023809Y14575715D01*
X22976190Y14528096D01*
X22880952Y14480477D01*
X22452380Y13575715D02*
X22452380Y14051905D01*
X22928571Y14099524D01*
X22880952Y14051905D01*
X22833333Y13956667D01*
X22833333Y13718572D01*
X22880952Y13623334D01*
X22928571Y13575715D01*
X23023809Y13528096D01*
X23261904Y13528096D01*
X23357142Y13575715D01*
X23404761Y13623334D01*
X23452380Y13718572D01*
X23452380Y13956667D01*
X23404761Y14051905D01*
X23357142Y14099524D01*
X19957142Y24632858D02*
X20004761Y24680477D01*
X20052380Y24823334D01*
X20052380Y24918572D01*
X20004761Y25061429D01*
X19909523Y25156667D01*
X19814285Y25204286D01*
X19623809Y25251905D01*
X19480952Y25251905D01*
X19290476Y25204286D01*
X19195238Y25156667D01*
X19100000Y25061429D01*
X19052380Y24918572D01*
X19052380Y24823334D01*
X19100000Y24680477D01*
X19147619Y24632858D01*
X20052380Y24156667D02*
X20052380Y23966191D01*
X20004761Y23870953D01*
X19957142Y23823334D01*
X19814285Y23728096D01*
X19623809Y23680477D01*
X19242857Y23680477D01*
X19147619Y23728096D01*
X19100000Y23775715D01*
X19052380Y23870953D01*
X19052380Y24061429D01*
X19100000Y24156667D01*
X19147619Y24204286D01*
X19242857Y24251905D01*
X19480952Y24251905D01*
X19576190Y24204286D01*
X19623809Y24156667D01*
X19671428Y24061429D01*
X19671428Y23870953D01*
X19623809Y23775715D01*
X19576190Y23728096D01*
X19480952Y23680477D01*
X19385714Y22823334D02*
X20052380Y22823334D01*
X19004761Y23061429D02*
X19719047Y23299524D01*
X19719047Y22680477D01*
X19957142Y17832858D02*
X20004761Y17880477D01*
X20052380Y18023334D01*
X20052380Y18118572D01*
X20004761Y18261429D01*
X19909523Y18356667D01*
X19814285Y18404286D01*
X19623809Y18451905D01*
X19480952Y18451905D01*
X19290476Y18404286D01*
X19195238Y18356667D01*
X19100000Y18261429D01*
X19052380Y18118572D01*
X19052380Y18023334D01*
X19100000Y17880477D01*
X19147619Y17832858D01*
X20052380Y17356667D02*
X20052380Y17166191D01*
X20004761Y17070953D01*
X19957142Y17023334D01*
X19814285Y16928096D01*
X19623809Y16880477D01*
X19242857Y16880477D01*
X19147619Y16928096D01*
X19100000Y16975715D01*
X19052380Y17070953D01*
X19052380Y17261429D01*
X19100000Y17356667D01*
X19147619Y17404286D01*
X19242857Y17451905D01*
X19480952Y17451905D01*
X19576190Y17404286D01*
X19623809Y17356667D01*
X19671428Y17261429D01*
X19671428Y17070953D01*
X19623809Y16975715D01*
X19576190Y16928096D01*
X19480952Y16880477D01*
X19052380Y16547143D02*
X19052380Y15928096D01*
X19433333Y16261429D01*
X19433333Y16118572D01*
X19480952Y16023334D01*
X19528571Y15975715D01*
X19623809Y15928096D01*
X19861904Y15928096D01*
X19957142Y15975715D01*
X20004761Y16023334D01*
X20052380Y16118572D01*
X20052380Y16404286D01*
X20004761Y16499524D01*
X19957142Y16547143D01*
X21442857Y33832858D02*
X21490476Y33785239D01*
X21633333Y33737620D01*
X21728571Y33737620D01*
X21871428Y33785239D01*
X21966666Y33880477D01*
X22014285Y33975715D01*
X22061904Y34166191D01*
X22061904Y34309048D01*
X22014285Y34499524D01*
X21966666Y34594762D01*
X21871428Y34690000D01*
X21728571Y34737620D01*
X21633333Y34737620D01*
X21490476Y34690000D01*
X21442857Y34642381D01*
X20966666Y33737620D02*
X20776190Y33737620D01*
X20680952Y33785239D01*
X20633333Y33832858D01*
X20538095Y33975715D01*
X20490476Y34166191D01*
X20490476Y34547143D01*
X20538095Y34642381D01*
X20585714Y34690000D01*
X20680952Y34737620D01*
X20871428Y34737620D01*
X20966666Y34690000D01*
X21014285Y34642381D01*
X21061904Y34547143D01*
X21061904Y34309048D01*
X21014285Y34213810D01*
X20966666Y34166191D01*
X20871428Y34118572D01*
X20680952Y34118572D01*
X20585714Y34166191D01*
X20538095Y34213810D01*
X20490476Y34309048D01*
X20109523Y34642381D02*
X20061904Y34690000D01*
X19966666Y34737620D01*
X19728571Y34737620D01*
X19633333Y34690000D01*
X19585714Y34642381D01*
X19538095Y34547143D01*
X19538095Y34451905D01*
X19585714Y34309048D01*
X20157142Y33737620D01*
X19538095Y33737620D01*
X22842857Y24032858D02*
X22890476Y23985239D01*
X23033333Y23937620D01*
X23128571Y23937620D01*
X23271428Y23985239D01*
X23366666Y24080477D01*
X23414285Y24175715D01*
X23461904Y24366191D01*
X23461904Y24509048D01*
X23414285Y24699524D01*
X23366666Y24794762D01*
X23271428Y24890000D01*
X23128571Y24937620D01*
X23033333Y24937620D01*
X22890476Y24890000D01*
X22842857Y24842381D01*
X22366666Y23937620D02*
X22176190Y23937620D01*
X22080952Y23985239D01*
X22033333Y24032858D01*
X21938095Y24175715D01*
X21890476Y24366191D01*
X21890476Y24747143D01*
X21938095Y24842381D01*
X21985714Y24890000D01*
X22080952Y24937620D01*
X22271428Y24937620D01*
X22366666Y24890000D01*
X22414285Y24842381D01*
X22461904Y24747143D01*
X22461904Y24509048D01*
X22414285Y24413810D01*
X22366666Y24366191D01*
X22271428Y24318572D01*
X22080952Y24318572D01*
X21985714Y24366191D01*
X21938095Y24413810D01*
X21890476Y24509048D01*
X20938095Y23937620D02*
X21509523Y23937620D01*
X21223809Y23937620D02*
X21223809Y24937620D01*
X21319047Y24794762D01*
X21414285Y24699524D01*
X21509523Y24651905D01*
X21642857Y30862858D02*
X21690476Y30815239D01*
X21833333Y30767620D01*
X21928571Y30767620D01*
X22071428Y30815239D01*
X22166666Y30910477D01*
X22214285Y31005715D01*
X22261904Y31196191D01*
X22261904Y31339048D01*
X22214285Y31529524D01*
X22166666Y31624762D01*
X22071428Y31720000D01*
X21928571Y31767620D01*
X21833333Y31767620D01*
X21690476Y31720000D01*
X21642857Y31672381D01*
X21166666Y30767620D02*
X20976190Y30767620D01*
X20880952Y30815239D01*
X20833333Y30862858D01*
X20738095Y31005715D01*
X20690476Y31196191D01*
X20690476Y31577143D01*
X20738095Y31672381D01*
X20785714Y31720000D01*
X20880952Y31767620D01*
X21071428Y31767620D01*
X21166666Y31720000D01*
X21214285Y31672381D01*
X21261904Y31577143D01*
X21261904Y31339048D01*
X21214285Y31243810D01*
X21166666Y31196191D01*
X21071428Y31148572D01*
X20880952Y31148572D01*
X20785714Y31196191D01*
X20738095Y31243810D01*
X20690476Y31339048D01*
X20071428Y31767620D02*
X19976190Y31767620D01*
X19880952Y31720000D01*
X19833333Y31672381D01*
X19785714Y31577143D01*
X19738095Y31386667D01*
X19738095Y31148572D01*
X19785714Y30958096D01*
X19833333Y30862858D01*
X19880952Y30815239D01*
X19976190Y30767620D01*
X20071428Y30767620D01*
X20166666Y30815239D01*
X20214285Y30862858D01*
X20261904Y30958096D01*
X20309523Y31148572D01*
X20309523Y31386667D01*
X20261904Y31577143D01*
X20214285Y31672381D01*
X20166666Y31720000D01*
X20071428Y31767620D01*
X21842857Y15032858D02*
X21890476Y14985239D01*
X22033333Y14937620D01*
X22128571Y14937620D01*
X22271428Y14985239D01*
X22366666Y15080477D01*
X22414285Y15175715D01*
X22461904Y15366191D01*
X22461904Y15509048D01*
X22414285Y15699524D01*
X22366666Y15794762D01*
X22271428Y15890000D01*
X22128571Y15937620D01*
X22033333Y15937620D01*
X21890476Y15890000D01*
X21842857Y15842381D01*
X21271428Y15509048D02*
X21366666Y15556667D01*
X21414285Y15604286D01*
X21461904Y15699524D01*
X21461904Y15747143D01*
X21414285Y15842381D01*
X21366666Y15890000D01*
X21271428Y15937620D01*
X21080952Y15937620D01*
X20985714Y15890000D01*
X20938095Y15842381D01*
X20890476Y15747143D01*
X20890476Y15699524D01*
X20938095Y15604286D01*
X20985714Y15556667D01*
X21080952Y15509048D01*
X21271428Y15509048D01*
X21366666Y15461429D01*
X21414285Y15413810D01*
X21461904Y15318572D01*
X21461904Y15128096D01*
X21414285Y15032858D01*
X21366666Y14985239D01*
X21271428Y14937620D01*
X21080952Y14937620D01*
X20985714Y14985239D01*
X20938095Y15032858D01*
X20890476Y15128096D01*
X20890476Y15318572D01*
X20938095Y15413810D01*
X20985714Y15461429D01*
X21080952Y15509048D01*
X20414285Y14937620D02*
X20223809Y14937620D01*
X20128571Y14985239D01*
X20080952Y15032858D01*
X19985714Y15175715D01*
X19938095Y15366191D01*
X19938095Y15747143D01*
X19985714Y15842381D01*
X20033333Y15890000D01*
X20128571Y15937620D01*
X20319047Y15937620D01*
X20414285Y15890000D01*
X20461904Y15842381D01*
X20509523Y15747143D01*
X20509523Y15509048D01*
X20461904Y15413810D01*
X20414285Y15366191D01*
X20319047Y15318572D01*
X20128571Y15318572D01*
X20033333Y15366191D01*
X19985714Y15413810D01*
X19938095Y15509048D01*
X20442857Y25832858D02*
X20490476Y25785239D01*
X20633333Y25737620D01*
X20728571Y25737620D01*
X20871428Y25785239D01*
X20966666Y25880477D01*
X21014285Y25975715D01*
X21061904Y26166191D01*
X21061904Y26309048D01*
X21014285Y26499524D01*
X20966666Y26594762D01*
X20871428Y26690000D01*
X20728571Y26737620D01*
X20633333Y26737620D01*
X20490476Y26690000D01*
X20442857Y26642381D01*
X19871428Y26309048D02*
X19966666Y26356667D01*
X20014285Y26404286D01*
X20061904Y26499524D01*
X20061904Y26547143D01*
X20014285Y26642381D01*
X19966666Y26690000D01*
X19871428Y26737620D01*
X19680952Y26737620D01*
X19585714Y26690000D01*
X19538095Y26642381D01*
X19490476Y26547143D01*
X19490476Y26499524D01*
X19538095Y26404286D01*
X19585714Y26356667D01*
X19680952Y26309048D01*
X19871428Y26309048D01*
X19966666Y26261429D01*
X20014285Y26213810D01*
X20061904Y26118572D01*
X20061904Y25928096D01*
X20014285Y25832858D01*
X19966666Y25785239D01*
X19871428Y25737620D01*
X19680952Y25737620D01*
X19585714Y25785239D01*
X19538095Y25832858D01*
X19490476Y25928096D01*
X19490476Y26118572D01*
X19538095Y26213810D01*
X19585714Y26261429D01*
X19680952Y26309048D01*
X18919047Y26309048D02*
X19014285Y26356667D01*
X19061904Y26404286D01*
X19109523Y26499524D01*
X19109523Y26547143D01*
X19061904Y26642381D01*
X19014285Y26690000D01*
X18919047Y26737620D01*
X18728571Y26737620D01*
X18633333Y26690000D01*
X18585714Y26642381D01*
X18538095Y26547143D01*
X18538095Y26499524D01*
X18585714Y26404286D01*
X18633333Y26356667D01*
X18728571Y26309048D01*
X18919047Y26309048D01*
X19014285Y26261429D01*
X19061904Y26213810D01*
X19109523Y26118572D01*
X19109523Y25928096D01*
X19061904Y25832858D01*
X19014285Y25785239D01*
X18919047Y25737620D01*
X18728571Y25737620D01*
X18633333Y25785239D01*
X18585714Y25832858D01*
X18538095Y25928096D01*
X18538095Y26118572D01*
X18585714Y26213810D01*
X18633333Y26261429D01*
X18728571Y26309048D01*
X39042857Y34232858D02*
X39090476Y34185239D01*
X39233333Y34137620D01*
X39328571Y34137620D01*
X39471428Y34185239D01*
X39566666Y34280477D01*
X39614285Y34375715D01*
X39661904Y34566191D01*
X39661904Y34709048D01*
X39614285Y34899524D01*
X39566666Y34994762D01*
X39471428Y35090000D01*
X39328571Y35137620D01*
X39233333Y35137620D01*
X39090476Y35090000D01*
X39042857Y35042381D01*
X38471428Y34709048D02*
X38566666Y34756667D01*
X38614285Y34804286D01*
X38661904Y34899524D01*
X38661904Y34947143D01*
X38614285Y35042381D01*
X38566666Y35090000D01*
X38471428Y35137620D01*
X38280952Y35137620D01*
X38185714Y35090000D01*
X38138095Y35042381D01*
X38090476Y34947143D01*
X38090476Y34899524D01*
X38138095Y34804286D01*
X38185714Y34756667D01*
X38280952Y34709048D01*
X38471428Y34709048D01*
X38566666Y34661429D01*
X38614285Y34613810D01*
X38661904Y34518572D01*
X38661904Y34328096D01*
X38614285Y34232858D01*
X38566666Y34185239D01*
X38471428Y34137620D01*
X38280952Y34137620D01*
X38185714Y34185239D01*
X38138095Y34232858D01*
X38090476Y34328096D01*
X38090476Y34518572D01*
X38138095Y34613810D01*
X38185714Y34661429D01*
X38280952Y34709048D01*
X37233333Y34804286D02*
X37233333Y34137620D01*
X37471428Y35185239D02*
X37709523Y34470953D01*
X37090476Y34470953D01*
X41157142Y32032858D02*
X41204761Y32080477D01*
X41252380Y32223334D01*
X41252380Y32318572D01*
X41204761Y32461429D01*
X41109523Y32556667D01*
X41014285Y32604286D01*
X40823809Y32651905D01*
X40680952Y32651905D01*
X40490476Y32604286D01*
X40395238Y32556667D01*
X40300000Y32461429D01*
X40252380Y32318572D01*
X40252380Y32223334D01*
X40300000Y32080477D01*
X40347619Y32032858D01*
X40680952Y31461429D02*
X40633333Y31556667D01*
X40585714Y31604286D01*
X40490476Y31651905D01*
X40442857Y31651905D01*
X40347619Y31604286D01*
X40300000Y31556667D01*
X40252380Y31461429D01*
X40252380Y31270953D01*
X40300000Y31175715D01*
X40347619Y31128096D01*
X40442857Y31080477D01*
X40490476Y31080477D01*
X40585714Y31128096D01*
X40633333Y31175715D01*
X40680952Y31270953D01*
X40680952Y31461429D01*
X40728571Y31556667D01*
X40776190Y31604286D01*
X40871428Y31651905D01*
X41061904Y31651905D01*
X41157142Y31604286D01*
X41204761Y31556667D01*
X41252380Y31461429D01*
X41252380Y31270953D01*
X41204761Y31175715D01*
X41157142Y31128096D01*
X41061904Y31080477D01*
X40871428Y31080477D01*
X40776190Y31128096D01*
X40728571Y31175715D01*
X40680952Y31270953D01*
X40252380Y30747143D02*
X40252380Y30128096D01*
X40633333Y30461429D01*
X40633333Y30318572D01*
X40680952Y30223334D01*
X40728571Y30175715D01*
X40823809Y30128096D01*
X41061904Y30128096D01*
X41157142Y30175715D01*
X41204761Y30223334D01*
X41252380Y30318572D01*
X41252380Y30604286D01*
X41204761Y30699524D01*
X41157142Y30747143D01*
X34157142Y37632858D02*
X34204761Y37680477D01*
X34252380Y37823334D01*
X34252380Y37918572D01*
X34204761Y38061429D01*
X34109523Y38156667D01*
X34014285Y38204286D01*
X33823809Y38251905D01*
X33680952Y38251905D01*
X33490476Y38204286D01*
X33395238Y38156667D01*
X33300000Y38061429D01*
X33252380Y37918572D01*
X33252380Y37823334D01*
X33300000Y37680477D01*
X33347619Y37632858D01*
X33680952Y37061429D02*
X33633333Y37156667D01*
X33585714Y37204286D01*
X33490476Y37251905D01*
X33442857Y37251905D01*
X33347619Y37204286D01*
X33300000Y37156667D01*
X33252380Y37061429D01*
X33252380Y36870953D01*
X33300000Y36775715D01*
X33347619Y36728096D01*
X33442857Y36680477D01*
X33490476Y36680477D01*
X33585714Y36728096D01*
X33633333Y36775715D01*
X33680952Y36870953D01*
X33680952Y37061429D01*
X33728571Y37156667D01*
X33776190Y37204286D01*
X33871428Y37251905D01*
X34061904Y37251905D01*
X34157142Y37204286D01*
X34204761Y37156667D01*
X34252380Y37061429D01*
X34252380Y36870953D01*
X34204761Y36775715D01*
X34157142Y36728096D01*
X34061904Y36680477D01*
X33871428Y36680477D01*
X33776190Y36728096D01*
X33728571Y36775715D01*
X33680952Y36870953D01*
X33347619Y36299524D02*
X33300000Y36251905D01*
X33252380Y36156667D01*
X33252380Y35918572D01*
X33300000Y35823334D01*
X33347619Y35775715D01*
X33442857Y35728096D01*
X33538095Y35728096D01*
X33680952Y35775715D01*
X34252380Y36347143D01*
X34252380Y35728096D01*
X39242857Y29832858D02*
X39290476Y29785239D01*
X39433333Y29737620D01*
X39528571Y29737620D01*
X39671428Y29785239D01*
X39766666Y29880477D01*
X39814285Y29975715D01*
X39861904Y30166191D01*
X39861904Y30309048D01*
X39814285Y30499524D01*
X39766666Y30594762D01*
X39671428Y30690000D01*
X39528571Y30737620D01*
X39433333Y30737620D01*
X39290476Y30690000D01*
X39242857Y30642381D01*
X38671428Y30309048D02*
X38766666Y30356667D01*
X38814285Y30404286D01*
X38861904Y30499524D01*
X38861904Y30547143D01*
X38814285Y30642381D01*
X38766666Y30690000D01*
X38671428Y30737620D01*
X38480952Y30737620D01*
X38385714Y30690000D01*
X38338095Y30642381D01*
X38290476Y30547143D01*
X38290476Y30499524D01*
X38338095Y30404286D01*
X38385714Y30356667D01*
X38480952Y30309048D01*
X38671428Y30309048D01*
X38766666Y30261429D01*
X38814285Y30213810D01*
X38861904Y30118572D01*
X38861904Y29928096D01*
X38814285Y29832858D01*
X38766666Y29785239D01*
X38671428Y29737620D01*
X38480952Y29737620D01*
X38385714Y29785239D01*
X38338095Y29832858D01*
X38290476Y29928096D01*
X38290476Y30118572D01*
X38338095Y30213810D01*
X38385714Y30261429D01*
X38480952Y30309048D01*
X37338095Y29737620D02*
X37909523Y29737620D01*
X37623809Y29737620D02*
X37623809Y30737620D01*
X37719047Y30594762D01*
X37814285Y30499524D01*
X37909523Y30451905D01*
X37042857Y31432858D02*
X37090476Y31385239D01*
X37233333Y31337620D01*
X37328571Y31337620D01*
X37471428Y31385239D01*
X37566666Y31480477D01*
X37614285Y31575715D01*
X37661904Y31766191D01*
X37661904Y31909048D01*
X37614285Y32099524D01*
X37566666Y32194762D01*
X37471428Y32290000D01*
X37328571Y32337620D01*
X37233333Y32337620D01*
X37090476Y32290000D01*
X37042857Y32242381D01*
X36471428Y31909048D02*
X36566666Y31956667D01*
X36614285Y32004286D01*
X36661904Y32099524D01*
X36661904Y32147143D01*
X36614285Y32242381D01*
X36566666Y32290000D01*
X36471428Y32337620D01*
X36280952Y32337620D01*
X36185714Y32290000D01*
X36138095Y32242381D01*
X36090476Y32147143D01*
X36090476Y32099524D01*
X36138095Y32004286D01*
X36185714Y31956667D01*
X36280952Y31909048D01*
X36471428Y31909048D01*
X36566666Y31861429D01*
X36614285Y31813810D01*
X36661904Y31718572D01*
X36661904Y31528096D01*
X36614285Y31432858D01*
X36566666Y31385239D01*
X36471428Y31337620D01*
X36280952Y31337620D01*
X36185714Y31385239D01*
X36138095Y31432858D01*
X36090476Y31528096D01*
X36090476Y31718572D01*
X36138095Y31813810D01*
X36185714Y31861429D01*
X36280952Y31909048D01*
X35471428Y32337620D02*
X35376190Y32337620D01*
X35280952Y32290000D01*
X35233333Y32242381D01*
X35185714Y32147143D01*
X35138095Y31956667D01*
X35138095Y31718572D01*
X35185714Y31528096D01*
X35233333Y31432858D01*
X35280952Y31385239D01*
X35376190Y31337620D01*
X35471428Y31337620D01*
X35566666Y31385239D01*
X35614285Y31432858D01*
X35661904Y31528096D01*
X35709523Y31718572D01*
X35709523Y31956667D01*
X35661904Y32147143D01*
X35614285Y32242381D01*
X35566666Y32290000D01*
X35471428Y32337620D01*
X33842857Y32032858D02*
X33890476Y31985239D01*
X34033333Y31937620D01*
X34128571Y31937620D01*
X34271428Y31985239D01*
X34366666Y32080477D01*
X34414285Y32175715D01*
X34461904Y32366191D01*
X34461904Y32509048D01*
X34414285Y32699524D01*
X34366666Y32794762D01*
X34271428Y32890000D01*
X34128571Y32937620D01*
X34033333Y32937620D01*
X33890476Y32890000D01*
X33842857Y32842381D01*
X33509523Y32937620D02*
X32842857Y32937620D01*
X33271428Y31937620D01*
X32414285Y31937620D02*
X32223809Y31937620D01*
X32128571Y31985239D01*
X32080952Y32032858D01*
X31985714Y32175715D01*
X31938095Y32366191D01*
X31938095Y32747143D01*
X31985714Y32842381D01*
X32033333Y32890000D01*
X32128571Y32937620D01*
X32319047Y32937620D01*
X32414285Y32890000D01*
X32461904Y32842381D01*
X32509523Y32747143D01*
X32509523Y32509048D01*
X32461904Y32413810D01*
X32414285Y32366191D01*
X32319047Y32318572D01*
X32128571Y32318572D01*
X32033333Y32366191D01*
X31985714Y32413810D01*
X31938095Y32509048D01*
X27642857Y21862858D02*
X27690476Y21815239D01*
X27833333Y21767620D01*
X27928571Y21767620D01*
X28071428Y21815239D01*
X28166666Y21910477D01*
X28214285Y22005715D01*
X28261904Y22196191D01*
X28261904Y22339048D01*
X28214285Y22529524D01*
X28166666Y22624762D01*
X28071428Y22720000D01*
X27928571Y22767620D01*
X27833333Y22767620D01*
X27690476Y22720000D01*
X27642857Y22672381D01*
X27309523Y22767620D02*
X26642857Y22767620D01*
X27071428Y21767620D01*
X26357142Y22767620D02*
X25690476Y22767620D01*
X26119047Y21767620D01*
X29527142Y30032858D02*
X29574761Y30080477D01*
X29622380Y30223334D01*
X29622380Y30318572D01*
X29574761Y30461429D01*
X29479523Y30556667D01*
X29384285Y30604286D01*
X29193809Y30651905D01*
X29050952Y30651905D01*
X28860476Y30604286D01*
X28765238Y30556667D01*
X28670000Y30461429D01*
X28622380Y30318572D01*
X28622380Y30223334D01*
X28670000Y30080477D01*
X28717619Y30032858D01*
X28622380Y29699524D02*
X28622380Y29032858D01*
X29622380Y29461429D01*
X28622380Y28223334D02*
X28622380Y28413810D01*
X28670000Y28509048D01*
X28717619Y28556667D01*
X28860476Y28651905D01*
X29050952Y28699524D01*
X29431904Y28699524D01*
X29527142Y28651905D01*
X29574761Y28604286D01*
X29622380Y28509048D01*
X29622380Y28318572D01*
X29574761Y28223334D01*
X29527142Y28175715D01*
X29431904Y28128096D01*
X29193809Y28128096D01*
X29098571Y28175715D01*
X29050952Y28223334D01*
X29003333Y28318572D01*
X29003333Y28509048D01*
X29050952Y28604286D01*
X29098571Y28651905D01*
X29193809Y28699524D01*
X28357142Y18632858D02*
X28404761Y18680477D01*
X28452380Y18823334D01*
X28452380Y18918572D01*
X28404761Y19061429D01*
X28309523Y19156667D01*
X28214285Y19204286D01*
X28023809Y19251905D01*
X27880952Y19251905D01*
X27690476Y19204286D01*
X27595238Y19156667D01*
X27500000Y19061429D01*
X27452380Y18918572D01*
X27452380Y18823334D01*
X27500000Y18680477D01*
X27547619Y18632858D01*
X27452380Y18299524D02*
X27452380Y17632858D01*
X28452380Y18061429D01*
X27452380Y16775715D02*
X27452380Y17251905D01*
X27928571Y17299524D01*
X27880952Y17251905D01*
X27833333Y17156667D01*
X27833333Y16918572D01*
X27880952Y16823334D01*
X27928571Y16775715D01*
X28023809Y16728096D01*
X28261904Y16728096D01*
X28357142Y16775715D01*
X28404761Y16823334D01*
X28452380Y16918572D01*
X28452380Y17156667D01*
X28404761Y17251905D01*
X28357142Y17299524D01*
X32357142Y27632858D02*
X32404761Y27680477D01*
X32452380Y27823334D01*
X32452380Y27918572D01*
X32404761Y28061429D01*
X32309523Y28156667D01*
X32214285Y28204286D01*
X32023809Y28251905D01*
X31880952Y28251905D01*
X31690476Y28204286D01*
X31595238Y28156667D01*
X31500000Y28061429D01*
X31452380Y27918572D01*
X31452380Y27823334D01*
X31500000Y27680477D01*
X31547619Y27632858D01*
X31452380Y27299524D02*
X31452380Y26632858D01*
X32452380Y27061429D01*
X31785714Y25823334D02*
X32452380Y25823334D01*
X31404761Y26061429D02*
X32119047Y26299524D01*
X32119047Y25680477D01*
X25542857Y23502858D02*
X25590476Y23455239D01*
X25733333Y23407620D01*
X25828571Y23407620D01*
X25971428Y23455239D01*
X26066666Y23550477D01*
X26114285Y23645715D01*
X26161904Y23836191D01*
X26161904Y23979048D01*
X26114285Y24169524D01*
X26066666Y24264762D01*
X25971428Y24360000D01*
X25828571Y24407620D01*
X25733333Y24407620D01*
X25590476Y24360000D01*
X25542857Y24312381D01*
X25209523Y24407620D02*
X24542857Y24407620D01*
X24971428Y23407620D01*
X24257142Y24407620D02*
X23638095Y24407620D01*
X23971428Y24026667D01*
X23828571Y24026667D01*
X23733333Y23979048D01*
X23685714Y23931429D01*
X23638095Y23836191D01*
X23638095Y23598096D01*
X23685714Y23502858D01*
X23733333Y23455239D01*
X23828571Y23407620D01*
X24114285Y23407620D01*
X24209523Y23455239D01*
X24257142Y23502858D01*
X29642857Y20862858D02*
X29690476Y20815239D01*
X29833333Y20767620D01*
X29928571Y20767620D01*
X30071428Y20815239D01*
X30166666Y20910477D01*
X30214285Y21005715D01*
X30261904Y21196191D01*
X30261904Y21339048D01*
X30214285Y21529524D01*
X30166666Y21624762D01*
X30071428Y21720000D01*
X29928571Y21767620D01*
X29833333Y21767620D01*
X29690476Y21720000D01*
X29642857Y21672381D01*
X29309523Y21767620D02*
X28642857Y21767620D01*
X29071428Y20767620D01*
X28309523Y21672381D02*
X28261904Y21720000D01*
X28166666Y21767620D01*
X27928571Y21767620D01*
X27833333Y21720000D01*
X27785714Y21672381D01*
X27738095Y21577143D01*
X27738095Y21481905D01*
X27785714Y21339048D01*
X28357142Y20767620D01*
X27738095Y20767620D01*
X28242857Y23832858D02*
X28290476Y23785239D01*
X28433333Y23737620D01*
X28528571Y23737620D01*
X28671428Y23785239D01*
X28766666Y23880477D01*
X28814285Y23975715D01*
X28861904Y24166191D01*
X28861904Y24309048D01*
X28814285Y24499524D01*
X28766666Y24594762D01*
X28671428Y24690000D01*
X28528571Y24737620D01*
X28433333Y24737620D01*
X28290476Y24690000D01*
X28242857Y24642381D01*
X27909523Y24737620D02*
X27242857Y24737620D01*
X27671428Y23737620D01*
X26338095Y23737620D02*
X26909523Y23737620D01*
X26623809Y23737620D02*
X26623809Y24737620D01*
X26719047Y24594762D01*
X26814285Y24499524D01*
X26909523Y24451905D01*
X31742857Y29762858D02*
X31790476Y29715239D01*
X31933333Y29667620D01*
X32028571Y29667620D01*
X32171428Y29715239D01*
X32266666Y29810477D01*
X32314285Y29905715D01*
X32361904Y30096191D01*
X32361904Y30239048D01*
X32314285Y30429524D01*
X32266666Y30524762D01*
X32171428Y30620000D01*
X32028571Y30667620D01*
X31933333Y30667620D01*
X31790476Y30620000D01*
X31742857Y30572381D01*
X31409523Y30667620D02*
X30742857Y30667620D01*
X31171428Y29667620D01*
X30171428Y30667620D02*
X30076190Y30667620D01*
X29980952Y30620000D01*
X29933333Y30572381D01*
X29885714Y30477143D01*
X29838095Y30286667D01*
X29838095Y30048572D01*
X29885714Y29858096D01*
X29933333Y29762858D01*
X29980952Y29715239D01*
X30076190Y29667620D01*
X30171428Y29667620D01*
X30266666Y29715239D01*
X30314285Y29762858D01*
X30361904Y29858096D01*
X30409523Y30048572D01*
X30409523Y30286667D01*
X30361904Y30477143D01*
X30314285Y30572381D01*
X30266666Y30620000D01*
X30171428Y30667620D01*
X30142857Y26202858D02*
X30190476Y26155239D01*
X30333333Y26107620D01*
X30428571Y26107620D01*
X30571428Y26155239D01*
X30666666Y26250477D01*
X30714285Y26345715D01*
X30761904Y26536191D01*
X30761904Y26679048D01*
X30714285Y26869524D01*
X30666666Y26964762D01*
X30571428Y27060000D01*
X30428571Y27107620D01*
X30333333Y27107620D01*
X30190476Y27060000D01*
X30142857Y27012381D01*
X29285714Y27107620D02*
X29476190Y27107620D01*
X29571428Y27060000D01*
X29619047Y27012381D01*
X29714285Y26869524D01*
X29761904Y26679048D01*
X29761904Y26298096D01*
X29714285Y26202858D01*
X29666666Y26155239D01*
X29571428Y26107620D01*
X29380952Y26107620D01*
X29285714Y26155239D01*
X29238095Y26202858D01*
X29190476Y26298096D01*
X29190476Y26536191D01*
X29238095Y26631429D01*
X29285714Y26679048D01*
X29380952Y26726667D01*
X29571428Y26726667D01*
X29666666Y26679048D01*
X29714285Y26631429D01*
X29761904Y26536191D01*
X28714285Y26107620D02*
X28523809Y26107620D01*
X28428571Y26155239D01*
X28380952Y26202858D01*
X28285714Y26345715D01*
X28238095Y26536191D01*
X28238095Y26917143D01*
X28285714Y27012381D01*
X28333333Y27060000D01*
X28428571Y27107620D01*
X28619047Y27107620D01*
X28714285Y27060000D01*
X28761904Y27012381D01*
X28809523Y26917143D01*
X28809523Y26679048D01*
X28761904Y26583810D01*
X28714285Y26536191D01*
X28619047Y26488572D01*
X28428571Y26488572D01*
X28333333Y26536191D01*
X28285714Y26583810D01*
X28238095Y26679048D01*
X33187142Y21032858D02*
X33234761Y21080477D01*
X33282380Y21223334D01*
X33282380Y21318572D01*
X33234761Y21461429D01*
X33139523Y21556667D01*
X33044285Y21604286D01*
X32853809Y21651905D01*
X32710952Y21651905D01*
X32520476Y21604286D01*
X32425238Y21556667D01*
X32330000Y21461429D01*
X32282380Y21318572D01*
X32282380Y21223334D01*
X32330000Y21080477D01*
X32377619Y21032858D01*
X32282380Y20175715D02*
X32282380Y20366191D01*
X32330000Y20461429D01*
X32377619Y20509048D01*
X32520476Y20604286D01*
X32710952Y20651905D01*
X33091904Y20651905D01*
X33187142Y20604286D01*
X33234761Y20556667D01*
X33282380Y20461429D01*
X33282380Y20270953D01*
X33234761Y20175715D01*
X33187142Y20128096D01*
X33091904Y20080477D01*
X32853809Y20080477D01*
X32758571Y20128096D01*
X32710952Y20175715D01*
X32663333Y20270953D01*
X32663333Y20461429D01*
X32710952Y20556667D01*
X32758571Y20604286D01*
X32853809Y20651905D01*
X32282380Y19223334D02*
X32282380Y19413810D01*
X32330000Y19509048D01*
X32377619Y19556667D01*
X32520476Y19651905D01*
X32710952Y19699524D01*
X33091904Y19699524D01*
X33187142Y19651905D01*
X33234761Y19604286D01*
X33282380Y19509048D01*
X33282380Y19318572D01*
X33234761Y19223334D01*
X33187142Y19175715D01*
X33091904Y19128096D01*
X32853809Y19128096D01*
X32758571Y19175715D01*
X32710952Y19223334D01*
X32663333Y19318572D01*
X32663333Y19509048D01*
X32710952Y19604286D01*
X32758571Y19651905D01*
X32853809Y19699524D01*
X40857142Y20832858D02*
X40904761Y20880477D01*
X40952380Y21023334D01*
X40952380Y21118572D01*
X40904761Y21261429D01*
X40809523Y21356667D01*
X40714285Y21404286D01*
X40523809Y21451905D01*
X40380952Y21451905D01*
X40190476Y21404286D01*
X40095238Y21356667D01*
X40000000Y21261429D01*
X39952380Y21118572D01*
X39952380Y21023334D01*
X40000000Y20880477D01*
X40047619Y20832858D01*
X39952380Y19975715D02*
X39952380Y20166191D01*
X40000000Y20261429D01*
X40047619Y20309048D01*
X40190476Y20404286D01*
X40380952Y20451905D01*
X40761904Y20451905D01*
X40857142Y20404286D01*
X40904761Y20356667D01*
X40952380Y20261429D01*
X40952380Y20070953D01*
X40904761Y19975715D01*
X40857142Y19928096D01*
X40761904Y19880477D01*
X40523809Y19880477D01*
X40428571Y19928096D01*
X40380952Y19975715D01*
X40333333Y20070953D01*
X40333333Y20261429D01*
X40380952Y20356667D01*
X40428571Y20404286D01*
X40523809Y20451905D01*
X39952380Y18975715D02*
X39952380Y19451905D01*
X40428571Y19499524D01*
X40380952Y19451905D01*
X40333333Y19356667D01*
X40333333Y19118572D01*
X40380952Y19023334D01*
X40428571Y18975715D01*
X40523809Y18928096D01*
X40761904Y18928096D01*
X40857142Y18975715D01*
X40904761Y19023334D01*
X40952380Y19118572D01*
X40952380Y19356667D01*
X40904761Y19451905D01*
X40857142Y19499524D01*
X39742857Y15862858D02*
X39790476Y15815239D01*
X39933333Y15767620D01*
X40028571Y15767620D01*
X40171428Y15815239D01*
X40266666Y15910477D01*
X40314285Y16005715D01*
X40361904Y16196191D01*
X40361904Y16339048D01*
X40314285Y16529524D01*
X40266666Y16624762D01*
X40171428Y16720000D01*
X40028571Y16767620D01*
X39933333Y16767620D01*
X39790476Y16720000D01*
X39742857Y16672381D01*
X38885714Y16767620D02*
X39076190Y16767620D01*
X39171428Y16720000D01*
X39219047Y16672381D01*
X39314285Y16529524D01*
X39361904Y16339048D01*
X39361904Y15958096D01*
X39314285Y15862858D01*
X39266666Y15815239D01*
X39171428Y15767620D01*
X38980952Y15767620D01*
X38885714Y15815239D01*
X38838095Y15862858D01*
X38790476Y15958096D01*
X38790476Y16196191D01*
X38838095Y16291429D01*
X38885714Y16339048D01*
X38980952Y16386667D01*
X39171428Y16386667D01*
X39266666Y16339048D01*
X39314285Y16291429D01*
X39361904Y16196191D01*
X37933333Y16434286D02*
X37933333Y15767620D01*
X38171428Y16815239D02*
X38409523Y16100953D01*
X37790476Y16100953D01*
X34657142Y24632858D02*
X34704761Y24680477D01*
X34752380Y24823334D01*
X34752380Y24918572D01*
X34704761Y25061429D01*
X34609523Y25156667D01*
X34514285Y25204286D01*
X34323809Y25251905D01*
X34180952Y25251905D01*
X33990476Y25204286D01*
X33895238Y25156667D01*
X33800000Y25061429D01*
X33752380Y24918572D01*
X33752380Y24823334D01*
X33800000Y24680477D01*
X33847619Y24632858D01*
X33752380Y23775715D02*
X33752380Y23966191D01*
X33800000Y24061429D01*
X33847619Y24109048D01*
X33990476Y24204286D01*
X34180952Y24251905D01*
X34561904Y24251905D01*
X34657142Y24204286D01*
X34704761Y24156667D01*
X34752380Y24061429D01*
X34752380Y23870953D01*
X34704761Y23775715D01*
X34657142Y23728096D01*
X34561904Y23680477D01*
X34323809Y23680477D01*
X34228571Y23728096D01*
X34180952Y23775715D01*
X34133333Y23870953D01*
X34133333Y24061429D01*
X34180952Y24156667D01*
X34228571Y24204286D01*
X34323809Y24251905D01*
X33752380Y23347143D02*
X33752380Y22728096D01*
X34133333Y23061429D01*
X34133333Y22918572D01*
X34180952Y22823334D01*
X34228571Y22775715D01*
X34323809Y22728096D01*
X34561904Y22728096D01*
X34657142Y22775715D01*
X34704761Y22823334D01*
X34752380Y22918572D01*
X34752380Y23204286D01*
X34704761Y23299524D01*
X34657142Y23347143D01*
X39457142Y20932858D02*
X39504761Y20980477D01*
X39552380Y21123334D01*
X39552380Y21218572D01*
X39504761Y21361429D01*
X39409523Y21456667D01*
X39314285Y21504286D01*
X39123809Y21551905D01*
X38980952Y21551905D01*
X38790476Y21504286D01*
X38695238Y21456667D01*
X38600000Y21361429D01*
X38552380Y21218572D01*
X38552380Y21123334D01*
X38600000Y20980477D01*
X38647619Y20932858D01*
X38552380Y20075715D02*
X38552380Y20266191D01*
X38600000Y20361429D01*
X38647619Y20409048D01*
X38790476Y20504286D01*
X38980952Y20551905D01*
X39361904Y20551905D01*
X39457142Y20504286D01*
X39504761Y20456667D01*
X39552380Y20361429D01*
X39552380Y20170953D01*
X39504761Y20075715D01*
X39457142Y20028096D01*
X39361904Y19980477D01*
X39123809Y19980477D01*
X39028571Y20028096D01*
X38980952Y20075715D01*
X38933333Y20170953D01*
X38933333Y20361429D01*
X38980952Y20456667D01*
X39028571Y20504286D01*
X39123809Y20551905D01*
X38647619Y19599524D02*
X38600000Y19551905D01*
X38552380Y19456667D01*
X38552380Y19218572D01*
X38600000Y19123334D01*
X38647619Y19075715D01*
X38742857Y19028096D01*
X38838095Y19028096D01*
X38980952Y19075715D01*
X39552380Y19647143D01*
X39552380Y19028096D01*
X35587142Y22532858D02*
X35634761Y22580477D01*
X35682380Y22723334D01*
X35682380Y22818572D01*
X35634761Y22961429D01*
X35539523Y23056667D01*
X35444285Y23104286D01*
X35253809Y23151905D01*
X35110952Y23151905D01*
X34920476Y23104286D01*
X34825238Y23056667D01*
X34730000Y22961429D01*
X34682380Y22818572D01*
X34682380Y22723334D01*
X34730000Y22580477D01*
X34777619Y22532858D01*
X34682380Y21675715D02*
X34682380Y21866191D01*
X34730000Y21961429D01*
X34777619Y22009048D01*
X34920476Y22104286D01*
X35110952Y22151905D01*
X35491904Y22151905D01*
X35587142Y22104286D01*
X35634761Y22056667D01*
X35682380Y21961429D01*
X35682380Y21770953D01*
X35634761Y21675715D01*
X35587142Y21628096D01*
X35491904Y21580477D01*
X35253809Y21580477D01*
X35158571Y21628096D01*
X35110952Y21675715D01*
X35063333Y21770953D01*
X35063333Y21961429D01*
X35110952Y22056667D01*
X35158571Y22104286D01*
X35253809Y22151905D01*
X35682380Y20628096D02*
X35682380Y21199524D01*
X35682380Y20913810D02*
X34682380Y20913810D01*
X34825238Y21009048D01*
X34920476Y21104286D01*
X34968095Y21199524D01*
X27042857Y29632858D02*
X27090476Y29585239D01*
X27233333Y29537620D01*
X27328571Y29537620D01*
X27471428Y29585239D01*
X27566666Y29680477D01*
X27614285Y29775715D01*
X27661904Y29966191D01*
X27661904Y30109048D01*
X27614285Y30299524D01*
X27566666Y30394762D01*
X27471428Y30490000D01*
X27328571Y30537620D01*
X27233333Y30537620D01*
X27090476Y30490000D01*
X27042857Y30442381D01*
X26138095Y30537620D02*
X26614285Y30537620D01*
X26661904Y30061429D01*
X26614285Y30109048D01*
X26519047Y30156667D01*
X26280952Y30156667D01*
X26185714Y30109048D01*
X26138095Y30061429D01*
X26090476Y29966191D01*
X26090476Y29728096D01*
X26138095Y29632858D01*
X26185714Y29585239D01*
X26280952Y29537620D01*
X26519047Y29537620D01*
X26614285Y29585239D01*
X26661904Y29632858D01*
X25614285Y29537620D02*
X25423809Y29537620D01*
X25328571Y29585239D01*
X25280952Y29632858D01*
X25185714Y29775715D01*
X25138095Y29966191D01*
X25138095Y30347143D01*
X25185714Y30442381D01*
X25233333Y30490000D01*
X25328571Y30537620D01*
X25519047Y30537620D01*
X25614285Y30490000D01*
X25661904Y30442381D01*
X25709523Y30347143D01*
X25709523Y30109048D01*
X25661904Y30013810D01*
X25614285Y29966191D01*
X25519047Y29918572D01*
X25328571Y29918572D01*
X25233333Y29966191D01*
X25185714Y30013810D01*
X25138095Y30109048D01*
X25357142Y29432858D02*
X25404761Y29480477D01*
X25452380Y29623334D01*
X25452380Y29718572D01*
X25404761Y29861429D01*
X25309523Y29956667D01*
X25214285Y30004286D01*
X25023809Y30051905D01*
X24880952Y30051905D01*
X24690476Y30004286D01*
X24595238Y29956667D01*
X24500000Y29861429D01*
X24452380Y29718572D01*
X24452380Y29623334D01*
X24500000Y29480477D01*
X24547619Y29432858D01*
X24452380Y28528096D02*
X24452380Y29004286D01*
X24928571Y29051905D01*
X24880952Y29004286D01*
X24833333Y28909048D01*
X24833333Y28670953D01*
X24880952Y28575715D01*
X24928571Y28528096D01*
X25023809Y28480477D01*
X25261904Y28480477D01*
X25357142Y28528096D01*
X25404761Y28575715D01*
X25452380Y28670953D01*
X25452380Y28909048D01*
X25404761Y29004286D01*
X25357142Y29051905D01*
X24880952Y27909048D02*
X24833333Y28004286D01*
X24785714Y28051905D01*
X24690476Y28099524D01*
X24642857Y28099524D01*
X24547619Y28051905D01*
X24500000Y28004286D01*
X24452380Y27909048D01*
X24452380Y27718572D01*
X24500000Y27623334D01*
X24547619Y27575715D01*
X24642857Y27528096D01*
X24690476Y27528096D01*
X24785714Y27575715D01*
X24833333Y27623334D01*
X24880952Y27718572D01*
X24880952Y27909048D01*
X24928571Y28004286D01*
X24976190Y28051905D01*
X25071428Y28099524D01*
X25261904Y28099524D01*
X25357142Y28051905D01*
X25404761Y28004286D01*
X25452380Y27909048D01*
X25452380Y27718572D01*
X25404761Y27623334D01*
X25357142Y27575715D01*
X25261904Y27528096D01*
X25071428Y27528096D01*
X24976190Y27575715D01*
X24928571Y27623334D01*
X24880952Y27718572D01*
X28642857Y27202858D02*
X28690476Y27155239D01*
X28833333Y27107620D01*
X28928571Y27107620D01*
X29071428Y27155239D01*
X29166666Y27250477D01*
X29214285Y27345715D01*
X29261904Y27536191D01*
X29261904Y27679048D01*
X29214285Y27869524D01*
X29166666Y27964762D01*
X29071428Y28060000D01*
X28928571Y28107620D01*
X28833333Y28107620D01*
X28690476Y28060000D01*
X28642857Y28012381D01*
X27738095Y28107620D02*
X28214285Y28107620D01*
X28261904Y27631429D01*
X28214285Y27679048D01*
X28119047Y27726667D01*
X27880952Y27726667D01*
X27785714Y27679048D01*
X27738095Y27631429D01*
X27690476Y27536191D01*
X27690476Y27298096D01*
X27738095Y27202858D01*
X27785714Y27155239D01*
X27880952Y27107620D01*
X28119047Y27107620D01*
X28214285Y27155239D01*
X28261904Y27202858D01*
X26833333Y28107620D02*
X27023809Y28107620D01*
X27119047Y28060000D01*
X27166666Y28012381D01*
X27261904Y27869524D01*
X27309523Y27679048D01*
X27309523Y27298096D01*
X27261904Y27202858D01*
X27214285Y27155239D01*
X27119047Y27107620D01*
X26928571Y27107620D01*
X26833333Y27155239D01*
X26785714Y27202858D01*
X26738095Y27298096D01*
X26738095Y27536191D01*
X26785714Y27631429D01*
X26833333Y27679048D01*
X26928571Y27726667D01*
X27119047Y27726667D01*
X27214285Y27679048D01*
X27261904Y27631429D01*
X27309523Y27536191D01*
X27942857Y31632858D02*
X27990476Y31585239D01*
X28133333Y31537620D01*
X28228571Y31537620D01*
X28371428Y31585239D01*
X28466666Y31680477D01*
X28514285Y31775715D01*
X28561904Y31966191D01*
X28561904Y32109048D01*
X28514285Y32299524D01*
X28466666Y32394762D01*
X28371428Y32490000D01*
X28228571Y32537620D01*
X28133333Y32537620D01*
X27990476Y32490000D01*
X27942857Y32442381D01*
X27038095Y32537620D02*
X27514285Y32537620D01*
X27561904Y32061429D01*
X27514285Y32109048D01*
X27419047Y32156667D01*
X27180952Y32156667D01*
X27085714Y32109048D01*
X27038095Y32061429D01*
X26990476Y31966191D01*
X26990476Y31728096D01*
X27038095Y31632858D01*
X27085714Y31585239D01*
X27180952Y31537620D01*
X27419047Y31537620D01*
X27514285Y31585239D01*
X27561904Y31632858D01*
X26085714Y32537620D02*
X26561904Y32537620D01*
X26609523Y32061429D01*
X26561904Y32109048D01*
X26466666Y32156667D01*
X26228571Y32156667D01*
X26133333Y32109048D01*
X26085714Y32061429D01*
X26038095Y31966191D01*
X26038095Y31728096D01*
X26085714Y31632858D01*
X26133333Y31585239D01*
X26228571Y31537620D01*
X26466666Y31537620D01*
X26561904Y31585239D01*
X26609523Y31632858D01*
X30242857Y22832858D02*
X30290476Y22785239D01*
X30433333Y22737620D01*
X30528571Y22737620D01*
X30671428Y22785239D01*
X30766666Y22880477D01*
X30814285Y22975715D01*
X30861904Y23166191D01*
X30861904Y23309048D01*
X30814285Y23499524D01*
X30766666Y23594762D01*
X30671428Y23690000D01*
X30528571Y23737620D01*
X30433333Y23737620D01*
X30290476Y23690000D01*
X30242857Y23642381D01*
X29338095Y23737620D02*
X29814285Y23737620D01*
X29861904Y23261429D01*
X29814285Y23309048D01*
X29719047Y23356667D01*
X29480952Y23356667D01*
X29385714Y23309048D01*
X29338095Y23261429D01*
X29290476Y23166191D01*
X29290476Y22928096D01*
X29338095Y22832858D01*
X29385714Y22785239D01*
X29480952Y22737620D01*
X29719047Y22737620D01*
X29814285Y22785239D01*
X29861904Y22832858D01*
X28433333Y23404286D02*
X28433333Y22737620D01*
X28671428Y23785239D02*
X28909523Y23070953D01*
X28290476Y23070953D01*
X24242857Y32232858D02*
X24290476Y32185239D01*
X24433333Y32137620D01*
X24528571Y32137620D01*
X24671428Y32185239D01*
X24766666Y32280477D01*
X24814285Y32375715D01*
X24861904Y32566191D01*
X24861904Y32709048D01*
X24814285Y32899524D01*
X24766666Y32994762D01*
X24671428Y33090000D01*
X24528571Y33137620D01*
X24433333Y33137620D01*
X24290476Y33090000D01*
X24242857Y33042381D01*
X23338095Y33137620D02*
X23814285Y33137620D01*
X23861904Y32661429D01*
X23814285Y32709048D01*
X23719047Y32756667D01*
X23480952Y32756667D01*
X23385714Y32709048D01*
X23338095Y32661429D01*
X23290476Y32566191D01*
X23290476Y32328096D01*
X23338095Y32232858D01*
X23385714Y32185239D01*
X23480952Y32137620D01*
X23719047Y32137620D01*
X23814285Y32185239D01*
X23861904Y32232858D01*
X22957142Y33137620D02*
X22338095Y33137620D01*
X22671428Y32756667D01*
X22528571Y32756667D01*
X22433333Y32709048D01*
X22385714Y32661429D01*
X22338095Y32566191D01*
X22338095Y32328096D01*
X22385714Y32232858D01*
X22433333Y32185239D01*
X22528571Y32137620D01*
X22814285Y32137620D01*
X22909523Y32185239D01*
X22957142Y32232858D01*
X33042857Y24032858D02*
X33090476Y23985239D01*
X33233333Y23937620D01*
X33328571Y23937620D01*
X33471428Y23985239D01*
X33566666Y24080477D01*
X33614285Y24175715D01*
X33661904Y24366191D01*
X33661904Y24509048D01*
X33614285Y24699524D01*
X33566666Y24794762D01*
X33471428Y24890000D01*
X33328571Y24937620D01*
X33233333Y24937620D01*
X33090476Y24890000D01*
X33042857Y24842381D01*
X32138095Y24937620D02*
X32614285Y24937620D01*
X32661904Y24461429D01*
X32614285Y24509048D01*
X32519047Y24556667D01*
X32280952Y24556667D01*
X32185714Y24509048D01*
X32138095Y24461429D01*
X32090476Y24366191D01*
X32090476Y24128096D01*
X32138095Y24032858D01*
X32185714Y23985239D01*
X32280952Y23937620D01*
X32519047Y23937620D01*
X32614285Y23985239D01*
X32661904Y24032858D01*
X31709523Y24842381D02*
X31661904Y24890000D01*
X31566666Y24937620D01*
X31328571Y24937620D01*
X31233333Y24890000D01*
X31185714Y24842381D01*
X31138095Y24747143D01*
X31138095Y24651905D01*
X31185714Y24509048D01*
X31757142Y23937620D01*
X31138095Y23937620D01*
X31842857Y19862858D02*
X31890476Y19815239D01*
X32033333Y19767620D01*
X32128571Y19767620D01*
X32271428Y19815239D01*
X32366666Y19910477D01*
X32414285Y20005715D01*
X32461904Y20196191D01*
X32461904Y20339048D01*
X32414285Y20529524D01*
X32366666Y20624762D01*
X32271428Y20720000D01*
X32128571Y20767620D01*
X32033333Y20767620D01*
X31890476Y20720000D01*
X31842857Y20672381D01*
X30938095Y20767620D02*
X31414285Y20767620D01*
X31461904Y20291429D01*
X31414285Y20339048D01*
X31319047Y20386667D01*
X31080952Y20386667D01*
X30985714Y20339048D01*
X30938095Y20291429D01*
X30890476Y20196191D01*
X30890476Y19958096D01*
X30938095Y19862858D01*
X30985714Y19815239D01*
X31080952Y19767620D01*
X31319047Y19767620D01*
X31414285Y19815239D01*
X31461904Y19862858D01*
X29938095Y19767620D02*
X30509523Y19767620D01*
X30223809Y19767620D02*
X30223809Y20767620D01*
X30319047Y20624762D01*
X30414285Y20529524D01*
X30509523Y20481905D01*
X31842857Y21762858D02*
X31890476Y21715239D01*
X32033333Y21667620D01*
X32128571Y21667620D01*
X32271428Y21715239D01*
X32366666Y21810477D01*
X32414285Y21905715D01*
X32461904Y22096191D01*
X32461904Y22239048D01*
X32414285Y22429524D01*
X32366666Y22524762D01*
X32271428Y22620000D01*
X32128571Y22667620D01*
X32033333Y22667620D01*
X31890476Y22620000D01*
X31842857Y22572381D01*
X30938095Y22667620D02*
X31414285Y22667620D01*
X31461904Y22191429D01*
X31414285Y22239048D01*
X31319047Y22286667D01*
X31080952Y22286667D01*
X30985714Y22239048D01*
X30938095Y22191429D01*
X30890476Y22096191D01*
X30890476Y21858096D01*
X30938095Y21762858D01*
X30985714Y21715239D01*
X31080952Y21667620D01*
X31319047Y21667620D01*
X31414285Y21715239D01*
X31461904Y21762858D01*
X30271428Y22667620D02*
X30176190Y22667620D01*
X30080952Y22620000D01*
X30033333Y22572381D01*
X29985714Y22477143D01*
X29938095Y22286667D01*
X29938095Y22048572D01*
X29985714Y21858096D01*
X30033333Y21762858D01*
X30080952Y21715239D01*
X30176190Y21667620D01*
X30271428Y21667620D01*
X30366666Y21715239D01*
X30414285Y21762858D01*
X30461904Y21858096D01*
X30509523Y22048572D01*
X30509523Y22286667D01*
X30461904Y22477143D01*
X30414285Y22572381D01*
X30366666Y22620000D01*
X30271428Y22667620D01*
X26557142Y27432858D02*
X26604761Y27480477D01*
X26652380Y27623334D01*
X26652380Y27718572D01*
X26604761Y27861429D01*
X26509523Y27956667D01*
X26414285Y28004286D01*
X26223809Y28051905D01*
X26080952Y28051905D01*
X25890476Y28004286D01*
X25795238Y27956667D01*
X25700000Y27861429D01*
X25652380Y27718572D01*
X25652380Y27623334D01*
X25700000Y27480477D01*
X25747619Y27432858D01*
X25985714Y26575715D02*
X26652380Y26575715D01*
X25604761Y26813810D02*
X26319047Y27051905D01*
X26319047Y26432858D01*
X26652380Y26004286D02*
X26652380Y25813810D01*
X26604761Y25718572D01*
X26557142Y25670953D01*
X26414285Y25575715D01*
X26223809Y25528096D01*
X25842857Y25528096D01*
X25747619Y25575715D01*
X25700000Y25623334D01*
X25652380Y25718572D01*
X25652380Y25909048D01*
X25700000Y26004286D01*
X25747619Y26051905D01*
X25842857Y26099524D01*
X26080952Y26099524D01*
X26176190Y26051905D01*
X26223809Y26004286D01*
X26271428Y25909048D01*
X26271428Y25718572D01*
X26223809Y25623334D01*
X26176190Y25575715D01*
X26080952Y25528096D01*
X23757142Y27032858D02*
X23804761Y27080477D01*
X23852380Y27223334D01*
X23852380Y27318572D01*
X23804761Y27461429D01*
X23709523Y27556667D01*
X23614285Y27604286D01*
X23423809Y27651905D01*
X23280952Y27651905D01*
X23090476Y27604286D01*
X22995238Y27556667D01*
X22900000Y27461429D01*
X22852380Y27318572D01*
X22852380Y27223334D01*
X22900000Y27080477D01*
X22947619Y27032858D01*
X23185714Y26175715D02*
X23852380Y26175715D01*
X22804761Y26413810D02*
X23519047Y26651905D01*
X23519047Y26032858D01*
X22852380Y25223334D02*
X22852380Y25413810D01*
X22900000Y25509048D01*
X22947619Y25556667D01*
X23090476Y25651905D01*
X23280952Y25699524D01*
X23661904Y25699524D01*
X23757142Y25651905D01*
X23804761Y25604286D01*
X23852380Y25509048D01*
X23852380Y25318572D01*
X23804761Y25223334D01*
X23757142Y25175715D01*
X23661904Y25128096D01*
X23423809Y25128096D01*
X23328571Y25175715D01*
X23280952Y25223334D01*
X23233333Y25318572D01*
X23233333Y25509048D01*
X23280952Y25604286D01*
X23328571Y25651905D01*
X23423809Y25699524D01*
X8952380Y40651905D02*
X9761904Y40651905D01*
X9857142Y40604286D01*
X9904761Y40556667D01*
X9952380Y40461429D01*
X9952380Y40270953D01*
X9904761Y40175715D01*
X9857142Y40128096D01*
X9761904Y40080477D01*
X8952380Y40080477D01*
X9285714Y39175715D02*
X9952380Y39175715D01*
X8904761Y39413810D02*
X9619047Y39651905D01*
X9619047Y39032858D01*
X52011904Y19937620D02*
X52011904Y19128096D01*
X51964285Y19032858D01*
X51916666Y18985239D01*
X51821428Y18937620D01*
X51630952Y18937620D01*
X51535714Y18985239D01*
X51488095Y19032858D01*
X51440476Y19128096D01*
X51440476Y19937620D01*
X50916666Y18937620D02*
X50726190Y18937620D01*
X50630952Y18985239D01*
X50583333Y19032858D01*
X50488095Y19175715D01*
X50440476Y19366191D01*
X50440476Y19747143D01*
X50488095Y19842381D01*
X50535714Y19890000D01*
X50630952Y19937620D01*
X50821428Y19937620D01*
X50916666Y19890000D01*
X50964285Y19842381D01*
X51011904Y19747143D01*
X51011904Y19509048D01*
X50964285Y19413810D01*
X50916666Y19366191D01*
X50821428Y19318572D01*
X50630952Y19318572D01*
X50535714Y19366191D01*
X50488095Y19413810D01*
X50440476Y19509048D01*
X9052380Y14151905D02*
X9861904Y14151905D01*
X9957142Y14104286D01*
X10004761Y14056667D01*
X10052380Y13961429D01*
X10052380Y13770953D01*
X10004761Y13675715D01*
X9957142Y13628096D01*
X9861904Y13580477D01*
X9052380Y13580477D01*
X9480952Y12961429D02*
X9433333Y13056667D01*
X9385714Y13104286D01*
X9290476Y13151905D01*
X9242857Y13151905D01*
X9147619Y13104286D01*
X9100000Y13056667D01*
X9052380Y12961429D01*
X9052380Y12770953D01*
X9100000Y12675715D01*
X9147619Y12628096D01*
X9242857Y12580477D01*
X9290476Y12580477D01*
X9385714Y12628096D01*
X9433333Y12675715D01*
X9480952Y12770953D01*
X9480952Y12961429D01*
X9528571Y13056667D01*
X9576190Y13104286D01*
X9671428Y13151905D01*
X9861904Y13151905D01*
X9957142Y13104286D01*
X10004761Y13056667D01*
X10052380Y12961429D01*
X10052380Y12770953D01*
X10004761Y12675715D01*
X9957142Y12628096D01*
X9861904Y12580477D01*
X9671428Y12580477D01*
X9576190Y12628096D01*
X9528571Y12675715D01*
X9480952Y12770953D01*
X49952380Y28201905D02*
X50761904Y28201905D01*
X50857142Y28154286D01*
X50904761Y28106667D01*
X50952380Y28011429D01*
X50952380Y27820953D01*
X50904761Y27725715D01*
X50857142Y27678096D01*
X50761904Y27630477D01*
X49952380Y27630477D01*
X49952380Y27249524D02*
X49952380Y26582858D01*
X50952380Y27011429D01*
X51561904Y37537620D02*
X51561904Y36728096D01*
X51514285Y36632858D01*
X51466666Y36585239D01*
X51371428Y36537620D01*
X51180952Y36537620D01*
X51085714Y36585239D01*
X51038095Y36632858D01*
X50990476Y36728096D01*
X50990476Y37537620D01*
X50085714Y37537620D02*
X50276190Y37537620D01*
X50371428Y37490000D01*
X50419047Y37442381D01*
X50514285Y37299524D01*
X50561904Y37109048D01*
X50561904Y36728096D01*
X50514285Y36632858D01*
X50466666Y36585239D01*
X50371428Y36537620D01*
X50180952Y36537620D01*
X50085714Y36585239D01*
X50038095Y36632858D01*
X49990476Y36728096D01*
X49990476Y36966191D01*
X50038095Y37061429D01*
X50085714Y37109048D01*
X50180952Y37156667D01*
X50371428Y37156667D01*
X50466666Y37109048D01*
X50514285Y37061429D01*
X50561904Y36966191D01*
X50242857Y17232858D02*
X50290476Y17185239D01*
X50433333Y17137620D01*
X50528571Y17137620D01*
X50671428Y17185239D01*
X50766666Y17280477D01*
X50814285Y17375715D01*
X50861904Y17566191D01*
X50861904Y17709048D01*
X50814285Y17899524D01*
X50766666Y17994762D01*
X50671428Y18090000D01*
X50528571Y18137620D01*
X50433333Y18137620D01*
X50290476Y18090000D01*
X50242857Y18042381D01*
X49909523Y18137620D02*
X49290476Y18137620D01*
X49623809Y17756667D01*
X49480952Y17756667D01*
X49385714Y17709048D01*
X49338095Y17661429D01*
X49290476Y17566191D01*
X49290476Y17328096D01*
X49338095Y17232858D01*
X49385714Y17185239D01*
X49480952Y17137620D01*
X49766666Y17137620D01*
X49861904Y17185239D01*
X49909523Y17232858D01*
X48719047Y17709048D02*
X48814285Y17756667D01*
X48861904Y17804286D01*
X48909523Y17899524D01*
X48909523Y17947143D01*
X48861904Y18042381D01*
X48814285Y18090000D01*
X48719047Y18137620D01*
X48528571Y18137620D01*
X48433333Y18090000D01*
X48385714Y18042381D01*
X48338095Y17947143D01*
X48338095Y17899524D01*
X48385714Y17804286D01*
X48433333Y17756667D01*
X48528571Y17709048D01*
X48719047Y17709048D01*
X48814285Y17661429D01*
X48861904Y17613810D01*
X48909523Y17518572D01*
X48909523Y17328096D01*
X48861904Y17232858D01*
X48814285Y17185239D01*
X48719047Y17137620D01*
X48528571Y17137620D01*
X48433333Y17185239D01*
X48385714Y17232858D01*
X48338095Y17328096D01*
X48338095Y17518572D01*
X48385714Y17613810D01*
X48433333Y17661429D01*
X48528571Y17709048D01*
X47042857Y10812858D02*
X47090476Y10765239D01*
X47233333Y10717620D01*
X47328571Y10717620D01*
X47471428Y10765239D01*
X47566666Y10860477D01*
X47614285Y10955715D01*
X47661904Y11146191D01*
X47661904Y11289048D01*
X47614285Y11479524D01*
X47566666Y11574762D01*
X47471428Y11670000D01*
X47328571Y11717620D01*
X47233333Y11717620D01*
X47090476Y11670000D01*
X47042857Y11622381D01*
X46709523Y11717620D02*
X46090476Y11717620D01*
X46423809Y11336667D01*
X46280952Y11336667D01*
X46185714Y11289048D01*
X46138095Y11241429D01*
X46090476Y11146191D01*
X46090476Y10908096D01*
X46138095Y10812858D01*
X46185714Y10765239D01*
X46280952Y10717620D01*
X46566666Y10717620D01*
X46661904Y10765239D01*
X46709523Y10812858D01*
X45757142Y11717620D02*
X45090476Y11717620D01*
X45519047Y10717620D01*
X11557142Y14432858D02*
X11604761Y14480477D01*
X11652380Y14623334D01*
X11652380Y14718572D01*
X11604761Y14861429D01*
X11509523Y14956667D01*
X11414285Y15004286D01*
X11223809Y15051905D01*
X11080952Y15051905D01*
X10890476Y15004286D01*
X10795238Y14956667D01*
X10700000Y14861429D01*
X10652380Y14718572D01*
X10652380Y14623334D01*
X10700000Y14480477D01*
X10747619Y14432858D01*
X11652380Y13480477D02*
X11652380Y14051905D01*
X11652380Y13766191D02*
X10652380Y13766191D01*
X10795238Y13861429D01*
X10890476Y13956667D01*
X10938095Y14051905D01*
X10652380Y12623334D02*
X10652380Y12813810D01*
X10700000Y12909048D01*
X10747619Y12956667D01*
X10890476Y13051905D01*
X11080952Y13099524D01*
X11461904Y13099524D01*
X11557142Y13051905D01*
X11604761Y13004286D01*
X11652380Y12909048D01*
X11652380Y12718572D01*
X11604761Y12623334D01*
X11557142Y12575715D01*
X11461904Y12528096D01*
X11223809Y12528096D01*
X11128571Y12575715D01*
X11080952Y12623334D01*
X11033333Y12718572D01*
X11033333Y12909048D01*
X11080952Y13004286D01*
X11128571Y13051905D01*
X11223809Y13099524D01*
X49557142Y28432858D02*
X49604761Y28480477D01*
X49652380Y28623334D01*
X49652380Y28718572D01*
X49604761Y28861429D01*
X49509523Y28956667D01*
X49414285Y29004286D01*
X49223809Y29051905D01*
X49080952Y29051905D01*
X48890476Y29004286D01*
X48795238Y28956667D01*
X48700000Y28861429D01*
X48652380Y28718572D01*
X48652380Y28623334D01*
X48700000Y28480477D01*
X48747619Y28432858D01*
X49652380Y27480477D02*
X49652380Y28051905D01*
X49652380Y27766191D02*
X48652380Y27766191D01*
X48795238Y27861429D01*
X48890476Y27956667D01*
X48938095Y28051905D01*
X48652380Y26575715D02*
X48652380Y27051905D01*
X49128571Y27099524D01*
X49080952Y27051905D01*
X49033333Y26956667D01*
X49033333Y26718572D01*
X49080952Y26623334D01*
X49128571Y26575715D01*
X49223809Y26528096D01*
X49461904Y26528096D01*
X49557142Y26575715D01*
X49604761Y26623334D01*
X49652380Y26718572D01*
X49652380Y26956667D01*
X49604761Y27051905D01*
X49557142Y27099524D01*
X14242857Y20232858D02*
X14290476Y20185239D01*
X14433333Y20137620D01*
X14528571Y20137620D01*
X14671428Y20185239D01*
X14766666Y20280477D01*
X14814285Y20375715D01*
X14861904Y20566191D01*
X14861904Y20709048D01*
X14814285Y20899524D01*
X14766666Y20994762D01*
X14671428Y21090000D01*
X14528571Y21137620D01*
X14433333Y21137620D01*
X14290476Y21090000D01*
X14242857Y21042381D01*
X13290476Y20137620D02*
X13861904Y20137620D01*
X13576190Y20137620D02*
X13576190Y21137620D01*
X13671428Y20994762D01*
X13766666Y20899524D01*
X13861904Y20851905D01*
X12957142Y21137620D02*
X12338095Y21137620D01*
X12671428Y20756667D01*
X12528571Y20756667D01*
X12433333Y20709048D01*
X12385714Y20661429D01*
X12338095Y20566191D01*
X12338095Y20328096D01*
X12385714Y20232858D01*
X12433333Y20185239D01*
X12528571Y20137620D01*
X12814285Y20137620D01*
X12909523Y20185239D01*
X12957142Y20232858D01*
X47042857Y20212858D02*
X47090476Y20165239D01*
X47233333Y20117620D01*
X47328571Y20117620D01*
X47471428Y20165239D01*
X47566666Y20260477D01*
X47614285Y20355715D01*
X47661904Y20546191D01*
X47661904Y20689048D01*
X47614285Y20879524D01*
X47566666Y20974762D01*
X47471428Y21070000D01*
X47328571Y21117620D01*
X47233333Y21117620D01*
X47090476Y21070000D01*
X47042857Y21022381D01*
X46090476Y20117620D02*
X46661904Y20117620D01*
X46376190Y20117620D02*
X46376190Y21117620D01*
X46471428Y20974762D01*
X46566666Y20879524D01*
X46661904Y20831905D01*
X45138095Y20117620D02*
X45709523Y20117620D01*
X45423809Y20117620D02*
X45423809Y21117620D01*
X45519047Y20974762D01*
X45614285Y20879524D01*
X45709523Y20831905D01*
X49557142Y36956667D02*
X49604761Y37004286D01*
X49652380Y37147143D01*
X49652380Y37242381D01*
X49604761Y37385239D01*
X49509523Y37480477D01*
X49414285Y37528096D01*
X49223809Y37575715D01*
X49080952Y37575715D01*
X48890476Y37528096D01*
X48795238Y37480477D01*
X48700000Y37385239D01*
X48652380Y37242381D01*
X48652380Y37147143D01*
X48700000Y37004286D01*
X48747619Y36956667D01*
X49652380Y36480477D02*
X49652380Y36290000D01*
X49604761Y36194762D01*
X49557142Y36147143D01*
X49414285Y36051905D01*
X49223809Y36004286D01*
X48842857Y36004286D01*
X48747619Y36051905D01*
X48700000Y36099524D01*
X48652380Y36194762D01*
X48652380Y36385239D01*
X48700000Y36480477D01*
X48747619Y36528096D01*
X48842857Y36575715D01*
X49080952Y36575715D01*
X49176190Y36528096D01*
X49223809Y36480477D01*
X49271428Y36385239D01*
X49271428Y36194762D01*
X49223809Y36099524D01*
X49176190Y36051905D01*
X49080952Y36004286D01*
X46957142Y31956667D02*
X47004761Y32004286D01*
X47052380Y32147143D01*
X47052380Y32242381D01*
X47004761Y32385239D01*
X46909523Y32480477D01*
X46814285Y32528096D01*
X46623809Y32575715D01*
X46480952Y32575715D01*
X46290476Y32528096D01*
X46195238Y32480477D01*
X46100000Y32385239D01*
X46052380Y32242381D01*
X46052380Y32147143D01*
X46100000Y32004286D01*
X46147619Y31956667D01*
X46480952Y31385239D02*
X46433333Y31480477D01*
X46385714Y31528096D01*
X46290476Y31575715D01*
X46242857Y31575715D01*
X46147619Y31528096D01*
X46100000Y31480477D01*
X46052380Y31385239D01*
X46052380Y31194762D01*
X46100000Y31099524D01*
X46147619Y31051905D01*
X46242857Y31004286D01*
X46290476Y31004286D01*
X46385714Y31051905D01*
X46433333Y31099524D01*
X46480952Y31194762D01*
X46480952Y31385239D01*
X46528571Y31480477D01*
X46576190Y31528096D01*
X46671428Y31575715D01*
X46861904Y31575715D01*
X46957142Y31528096D01*
X47004761Y31480477D01*
X47052380Y31385239D01*
X47052380Y31194762D01*
X47004761Y31099524D01*
X46957142Y31051905D01*
X46861904Y31004286D01*
X46671428Y31004286D01*
X46576190Y31051905D01*
X46528571Y31099524D01*
X46480952Y31194762D01*
X6809523Y34737620D02*
X6142857Y33737620D01*
X6142857Y34737620D02*
X6809523Y33737620D01*
X5238095Y33737620D02*
X5809523Y33737620D01*
X5523809Y33737620D02*
X5523809Y34737620D01*
X5619047Y34594762D01*
X5714285Y34499524D01*
X5809523Y34451905D01*
X9052380Y23351905D02*
X9861904Y23351905D01*
X9957142Y23304286D01*
X10004761Y23256667D01*
X10052380Y23161429D01*
X10052380Y22970953D01*
X10004761Y22875715D01*
X9957142Y22828096D01*
X9861904Y22780477D01*
X9052380Y22780477D01*
X9052380Y21828096D02*
X9052380Y22304286D01*
X9528571Y22351905D01*
X9480952Y22304286D01*
X9433333Y22209048D01*
X9433333Y21970953D01*
X9480952Y21875715D01*
X9528571Y21828096D01*
X9623809Y21780477D01*
X9861904Y21780477D01*
X9957142Y21828096D01*
X10004761Y21875715D01*
X10052380Y21970953D01*
X10052380Y22209048D01*
X10004761Y22304286D01*
X9957142Y22351905D01*
X11357142Y23556667D02*
X11404761Y23604286D01*
X11452380Y23747143D01*
X11452380Y23842381D01*
X11404761Y23985239D01*
X11309523Y24080477D01*
X11214285Y24128096D01*
X11023809Y24175715D01*
X10880952Y24175715D01*
X10690476Y24128096D01*
X10595238Y24080477D01*
X10500000Y23985239D01*
X10452380Y23842381D01*
X10452380Y23747143D01*
X10500000Y23604286D01*
X10547619Y23556667D01*
X10452380Y22699524D02*
X10452380Y22890000D01*
X10500000Y22985239D01*
X10547619Y23032858D01*
X10690476Y23128096D01*
X10880952Y23175715D01*
X11261904Y23175715D01*
X11357142Y23128096D01*
X11404761Y23080477D01*
X11452380Y22985239D01*
X11452380Y22794762D01*
X11404761Y22699524D01*
X11357142Y22651905D01*
X11261904Y22604286D01*
X11023809Y22604286D01*
X10928571Y22651905D01*
X10880952Y22699524D01*
X10833333Y22794762D01*
X10833333Y22985239D01*
X10880952Y23080477D01*
X10928571Y23128096D01*
X11023809Y23175715D01*
X13957142Y28556667D02*
X14004761Y28604286D01*
X14052380Y28747143D01*
X14052380Y28842381D01*
X14004761Y28985239D01*
X13909523Y29080477D01*
X13814285Y29128096D01*
X13623809Y29175715D01*
X13480952Y29175715D01*
X13290476Y29128096D01*
X13195238Y29080477D01*
X13100000Y28985239D01*
X13052380Y28842381D01*
X13052380Y28747143D01*
X13100000Y28604286D01*
X13147619Y28556667D01*
X13052380Y27651905D02*
X13052380Y28128096D01*
X13528571Y28175715D01*
X13480952Y28128096D01*
X13433333Y28032858D01*
X13433333Y27794762D01*
X13480952Y27699524D01*
X13528571Y27651905D01*
X13623809Y27604286D01*
X13861904Y27604286D01*
X13957142Y27651905D01*
X14004761Y27699524D01*
X14052380Y27794762D01*
X14052380Y28032858D01*
X14004761Y28128096D01*
X13957142Y28175715D01*
X25738095Y8237620D02*
X25738095Y9237620D01*
X25500000Y9237620D01*
X25357142Y9190000D01*
X25261904Y9094762D01*
X25214285Y8999524D01*
X25166666Y8809048D01*
X25166666Y8666191D01*
X25214285Y8475715D01*
X25261904Y8380477D01*
X25357142Y8285239D01*
X25500000Y8237620D01*
X25738095Y8237620D01*
X24309523Y8904286D02*
X24309523Y8237620D01*
X24547619Y9285239D02*
X24785714Y8570953D01*
X24166666Y8570953D01*
X33138095Y8337620D02*
X33138095Y9337620D01*
X32900000Y9337620D01*
X32757142Y9290000D01*
X32661904Y9194762D01*
X32614285Y9099524D01*
X32566666Y8909048D01*
X32566666Y8766191D01*
X32614285Y8575715D01*
X32661904Y8480477D01*
X32757142Y8385239D01*
X32900000Y8337620D01*
X33138095Y8337620D01*
X32233333Y9337620D02*
X31614285Y9337620D01*
X31947619Y8956667D01*
X31804761Y8956667D01*
X31709523Y8909048D01*
X31661904Y8861429D01*
X31614285Y8766191D01*
X31614285Y8528096D01*
X31661904Y8432858D01*
X31709523Y8385239D01*
X31804761Y8337620D01*
X32090476Y8337620D01*
X32185714Y8385239D01*
X32233333Y8432858D01*
X36487976Y2237620D02*
X36487976Y1523334D01*
X36535595Y1380477D01*
X36630833Y1285239D01*
X36773690Y1237620D01*
X36868928Y1237620D01*
X36107023Y2237620D02*
X35440357Y2237620D01*
X35868928Y1237620D01*
X8161904Y33137620D02*
X8161904Y32328096D01*
X8114285Y32232858D01*
X8066666Y32185239D01*
X7971428Y32137620D01*
X7780952Y32137620D01*
X7685714Y32185239D01*
X7638095Y32232858D01*
X7590476Y32328096D01*
X7590476Y33137620D01*
X7209523Y33137620D02*
X6590476Y33137620D01*
X6923809Y32756667D01*
X6780952Y32756667D01*
X6685714Y32709048D01*
X6638095Y32661429D01*
X6590476Y32566191D01*
X6590476Y32328096D01*
X6638095Y32232858D01*
X6685714Y32185239D01*
X6780952Y32137620D01*
X7066666Y32137620D01*
X7161904Y32185239D01*
X7209523Y32232858D01*
X23557142Y35832858D02*
X23604761Y35880477D01*
X23652380Y36023334D01*
X23652380Y36118572D01*
X23604761Y36261429D01*
X23509523Y36356667D01*
X23414285Y36404286D01*
X23223809Y36451905D01*
X23080952Y36451905D01*
X22890476Y36404286D01*
X22795238Y36356667D01*
X22700000Y36261429D01*
X22652380Y36118572D01*
X22652380Y36023334D01*
X22700000Y35880477D01*
X22747619Y35832858D01*
X22652380Y35499524D02*
X22652380Y34880477D01*
X23033333Y35213810D01*
X23033333Y35070953D01*
X23080952Y34975715D01*
X23128571Y34928096D01*
X23223809Y34880477D01*
X23461904Y34880477D01*
X23557142Y34928096D01*
X23604761Y34975715D01*
X23652380Y35070953D01*
X23652380Y35356667D01*
X23604761Y35451905D01*
X23557142Y35499524D01*
X22985714Y34023334D02*
X23652380Y34023334D01*
X22604761Y34261429D02*
X23319047Y34499524D01*
X23319047Y33880477D01*
X24757142Y38632858D02*
X24804761Y38680477D01*
X24852380Y38823334D01*
X24852380Y38918572D01*
X24804761Y39061429D01*
X24709523Y39156667D01*
X24614285Y39204286D01*
X24423809Y39251905D01*
X24280952Y39251905D01*
X24090476Y39204286D01*
X23995238Y39156667D01*
X23900000Y39061429D01*
X23852380Y38918572D01*
X23852380Y38823334D01*
X23900000Y38680477D01*
X23947619Y38632858D01*
X23852380Y38299524D02*
X23852380Y37680477D01*
X24233333Y38013810D01*
X24233333Y37870953D01*
X24280952Y37775715D01*
X24328571Y37728096D01*
X24423809Y37680477D01*
X24661904Y37680477D01*
X24757142Y37728096D01*
X24804761Y37775715D01*
X24852380Y37870953D01*
X24852380Y38156667D01*
X24804761Y38251905D01*
X24757142Y38299524D01*
X23947619Y37299524D02*
X23900000Y37251905D01*
X23852380Y37156667D01*
X23852380Y36918572D01*
X23900000Y36823334D01*
X23947619Y36775715D01*
X24042857Y36728096D01*
X24138095Y36728096D01*
X24280952Y36775715D01*
X24852380Y37347143D01*
X24852380Y36728096D01*
X28957142Y37032858D02*
X29004761Y37080477D01*
X29052380Y37223334D01*
X29052380Y37318572D01*
X29004761Y37461429D01*
X28909523Y37556667D01*
X28814285Y37604286D01*
X28623809Y37651905D01*
X28480952Y37651905D01*
X28290476Y37604286D01*
X28195238Y37556667D01*
X28100000Y37461429D01*
X28052380Y37318572D01*
X28052380Y37223334D01*
X28100000Y37080477D01*
X28147619Y37032858D01*
X28052380Y36699524D02*
X28052380Y36080477D01*
X28433333Y36413810D01*
X28433333Y36270953D01*
X28480952Y36175715D01*
X28528571Y36128096D01*
X28623809Y36080477D01*
X28861904Y36080477D01*
X28957142Y36128096D01*
X29004761Y36175715D01*
X29052380Y36270953D01*
X29052380Y36556667D01*
X29004761Y36651905D01*
X28957142Y36699524D01*
X28052380Y35461429D02*
X28052380Y35366191D01*
X28100000Y35270953D01*
X28147619Y35223334D01*
X28242857Y35175715D01*
X28433333Y35128096D01*
X28671428Y35128096D01*
X28861904Y35175715D01*
X28957142Y35223334D01*
X29004761Y35270953D01*
X29052380Y35366191D01*
X29052380Y35461429D01*
X29004761Y35556667D01*
X28957142Y35604286D01*
X28861904Y35651905D01*
X28671428Y35699524D01*
X28433333Y35699524D01*
X28242857Y35651905D01*
X28147619Y35604286D01*
X28100000Y35556667D01*
X28052380Y35461429D01*
X30642857Y31832858D02*
X30690476Y31785239D01*
X30833333Y31737620D01*
X30928571Y31737620D01*
X31071428Y31785239D01*
X31166666Y31880477D01*
X31214285Y31975715D01*
X31261904Y32166191D01*
X31261904Y32309048D01*
X31214285Y32499524D01*
X31166666Y32594762D01*
X31071428Y32690000D01*
X30928571Y32737620D01*
X30833333Y32737620D01*
X30690476Y32690000D01*
X30642857Y32642381D01*
X30261904Y32642381D02*
X30214285Y32690000D01*
X30119047Y32737620D01*
X29880952Y32737620D01*
X29785714Y32690000D01*
X29738095Y32642381D01*
X29690476Y32547143D01*
X29690476Y32451905D01*
X29738095Y32309048D01*
X30309523Y31737620D01*
X29690476Y31737620D01*
X28738095Y31737620D02*
X29309523Y31737620D01*
X29023809Y31737620D02*
X29023809Y32737620D01*
X29119047Y32594762D01*
X29214285Y32499524D01*
X29309523Y32451905D01*
X26157142Y35632858D02*
X26204761Y35680477D01*
X26252380Y35823334D01*
X26252380Y35918572D01*
X26204761Y36061429D01*
X26109523Y36156667D01*
X26014285Y36204286D01*
X25823809Y36251905D01*
X25680952Y36251905D01*
X25490476Y36204286D01*
X25395238Y36156667D01*
X25300000Y36061429D01*
X25252380Y35918572D01*
X25252380Y35823334D01*
X25300000Y35680477D01*
X25347619Y35632858D01*
X25347619Y35251905D02*
X25300000Y35204286D01*
X25252380Y35109048D01*
X25252380Y34870953D01*
X25300000Y34775715D01*
X25347619Y34728096D01*
X25442857Y34680477D01*
X25538095Y34680477D01*
X25680952Y34728096D01*
X26252380Y35299524D01*
X26252380Y34680477D01*
X25252380Y34061429D02*
X25252380Y33966191D01*
X25300000Y33870953D01*
X25347619Y33823334D01*
X25442857Y33775715D01*
X25633333Y33728096D01*
X25871428Y33728096D01*
X26061904Y33775715D01*
X26157142Y33823334D01*
X26204761Y33870953D01*
X26252380Y33966191D01*
X26252380Y34061429D01*
X26204761Y34156667D01*
X26157142Y34204286D01*
X26061904Y34251905D01*
X25871428Y34299524D01*
X25633333Y34299524D01*
X25442857Y34251905D01*
X25347619Y34204286D01*
X25300000Y34156667D01*
X25252380Y34061429D01*
X27557142Y35632858D02*
X27604761Y35680477D01*
X27652380Y35823334D01*
X27652380Y35918572D01*
X27604761Y36061429D01*
X27509523Y36156667D01*
X27414285Y36204286D01*
X27223809Y36251905D01*
X27080952Y36251905D01*
X26890476Y36204286D01*
X26795238Y36156667D01*
X26700000Y36061429D01*
X26652380Y35918572D01*
X26652380Y35823334D01*
X26700000Y35680477D01*
X26747619Y35632858D01*
X27652380Y34680477D02*
X27652380Y35251905D01*
X27652380Y34966191D02*
X26652380Y34966191D01*
X26795238Y35061429D01*
X26890476Y35156667D01*
X26938095Y35251905D01*
X27652380Y34204286D02*
X27652380Y34013810D01*
X27604761Y33918572D01*
X27557142Y33870953D01*
X27414285Y33775715D01*
X27223809Y33728096D01*
X26842857Y33728096D01*
X26747619Y33775715D01*
X26700000Y33823334D01*
X26652380Y33918572D01*
X26652380Y34109048D01*
X26700000Y34204286D01*
X26747619Y34251905D01*
X26842857Y34299524D01*
X27080952Y34299524D01*
X27176190Y34251905D01*
X27223809Y34204286D01*
X27271428Y34109048D01*
X27271428Y33918572D01*
X27223809Y33823334D01*
X27176190Y33775715D01*
X27080952Y33728096D01*
X17957142Y33832858D02*
X18004761Y33880477D01*
X18052380Y34023334D01*
X18052380Y34118572D01*
X18004761Y34261429D01*
X17909523Y34356667D01*
X17814285Y34404286D01*
X17623809Y34451905D01*
X17480952Y34451905D01*
X17290476Y34404286D01*
X17195238Y34356667D01*
X17100000Y34261429D01*
X17052380Y34118572D01*
X17052380Y34023334D01*
X17100000Y33880477D01*
X17147619Y33832858D01*
X18052380Y32880477D02*
X18052380Y33451905D01*
X18052380Y33166191D02*
X17052380Y33166191D01*
X17195238Y33261429D01*
X17290476Y33356667D01*
X17338095Y33451905D01*
X17385714Y32023334D02*
X18052380Y32023334D01*
X17004761Y32261429D02*
X17719047Y32499524D01*
X17719047Y31880477D01*
X13642857Y30032858D02*
X13690476Y29985239D01*
X13833333Y29937620D01*
X13928571Y29937620D01*
X14071428Y29985239D01*
X14166666Y30080477D01*
X14214285Y30175715D01*
X14261904Y30366191D01*
X14261904Y30509048D01*
X14214285Y30699524D01*
X14166666Y30794762D01*
X14071428Y30890000D01*
X13928571Y30937620D01*
X13833333Y30937620D01*
X13690476Y30890000D01*
X13642857Y30842381D01*
X12690476Y29937620D02*
X13261904Y29937620D01*
X12976190Y29937620D02*
X12976190Y30937620D01*
X13071428Y30794762D01*
X13166666Y30699524D01*
X13261904Y30651905D01*
X12309523Y30842381D02*
X12261904Y30890000D01*
X12166666Y30937620D01*
X11928571Y30937620D01*
X11833333Y30890000D01*
X11785714Y30842381D01*
X11738095Y30747143D01*
X11738095Y30651905D01*
X11785714Y30509048D01*
X12357142Y29937620D01*
X11738095Y29937620D01*
M02*
