G04 #@! TF.GenerationSoftware,KiCad,Pcbnew,5.1.6-c6e7f7d~87~ubuntu20.04.1*
G04 #@! TF.CreationDate,2020-09-05T21:21:54-07:00*
G04 #@! TF.ProjectId,artix7-pcie-v2,61727469-7837-42d7-9063-69652d76322e,rev?*
G04 #@! TF.SameCoordinates,PX69f4060PY6b00940*
G04 #@! TF.FileFunction,Copper,L4,Bot*
G04 #@! TF.FilePolarity,Positive*
%FSLAX46Y46*%
G04 Gerber Fmt 4.6, Leading zero omitted, Abs format (unit mm)*
G04 Created by KiCad (PCBNEW 5.1.6-c6e7f7d~87~ubuntu20.04.1) date 2020-09-05 21:21:54*
%MOMM*%
%LPD*%
G01*
G04 APERTURE LIST*
G04 #@! TA.AperFunction,EtchedComponent*
%ADD10C,0.010000*%
G04 #@! TD*
G04 #@! TA.AperFunction,SMDPad,CuDef*
%ADD11R,1.200000X2.200000*%
G04 #@! TD*
G04 #@! TA.AperFunction,SMDPad,CuDef*
%ADD12R,2.200000X1.200000*%
G04 #@! TD*
G04 #@! TA.AperFunction,SMDPad,CuDef*
%ADD13R,0.240000X0.600000*%
G04 #@! TD*
G04 #@! TA.AperFunction,Conductor*
%ADD14R,2.400000X1.650000*%
G04 #@! TD*
G04 #@! TA.AperFunction,SMDPad,CuDef*
%ADD15R,0.600000X0.240000*%
G04 #@! TD*
G04 #@! TA.AperFunction,Conductor*
%ADD16R,1.650000X2.400000*%
G04 #@! TD*
G04 #@! TA.AperFunction,SMDPad,CuDef*
%ADD17R,1.210000X0.590000*%
G04 #@! TD*
G04 #@! TA.AperFunction,SMDPad,CuDef*
%ADD18R,1.450000X0.590000*%
G04 #@! TD*
G04 #@! TA.AperFunction,SMDPad,CuDef*
%ADD19R,0.590000X1.210000*%
G04 #@! TD*
G04 #@! TA.AperFunction,SMDPad,CuDef*
%ADD20C,1.500000*%
G04 #@! TD*
G04 #@! TA.AperFunction,ComponentPad*
%ADD21C,3.000000*%
G04 #@! TD*
G04 #@! TA.AperFunction,ComponentPad*
%ADD22C,1.200000*%
G04 #@! TD*
G04 #@! TA.AperFunction,ComponentPad*
%ADD23C,4.700000*%
G04 #@! TD*
G04 #@! TA.AperFunction,ComponentPad*
%ADD24C,0.550000*%
G04 #@! TD*
G04 #@! TA.AperFunction,ComponentPad*
%ADD25O,1.500000X2.200000*%
G04 #@! TD*
G04 #@! TA.AperFunction,ComponentPad*
%ADD26C,2.000000*%
G04 #@! TD*
G04 #@! TA.AperFunction,ComponentPad*
%ADD27O,1.700000X1.700000*%
G04 #@! TD*
G04 #@! TA.AperFunction,ComponentPad*
%ADD28R,1.700000X1.700000*%
G04 #@! TD*
G04 #@! TA.AperFunction,SMDPad,CuDef*
%ADD29R,2.900000X2.900000*%
G04 #@! TD*
G04 #@! TA.AperFunction,SMDPad,CuDef*
%ADD30R,0.300000X0.750000*%
G04 #@! TD*
G04 #@! TA.AperFunction,SMDPad,CuDef*
%ADD31R,0.750000X0.300000*%
G04 #@! TD*
G04 #@! TA.AperFunction,SMDPad,CuDef*
%ADD32R,1.200000X1.400000*%
G04 #@! TD*
G04 #@! TA.AperFunction,SMDPad,CuDef*
%ADD33R,2.500000X1.800000*%
G04 #@! TD*
G04 #@! TA.AperFunction,SMDPad,CuDef*
%ADD34R,1.600000X3.400000*%
G04 #@! TD*
G04 #@! TA.AperFunction,SMDPad,CuDef*
%ADD35R,1.000000X4.600000*%
G04 #@! TD*
G04 #@! TA.AperFunction,ComponentPad*
%ADD36O,1.727200X1.727200*%
G04 #@! TD*
G04 #@! TA.AperFunction,ComponentPad*
%ADD37R,1.727200X1.727200*%
G04 #@! TD*
G04 #@! TA.AperFunction,ViaPad*
%ADD38C,0.550000*%
G04 #@! TD*
G04 #@! TA.AperFunction,Conductor*
%ADD39C,0.127000*%
G04 #@! TD*
G04 #@! TA.AperFunction,Conductor*
%ADD40C,0.762000*%
G04 #@! TD*
G04 #@! TA.AperFunction,Conductor*
%ADD41C,0.508000*%
G04 #@! TD*
G04 #@! TA.AperFunction,Conductor*
%ADD42C,0.300000*%
G04 #@! TD*
G04 #@! TA.AperFunction,Conductor*
%ADD43C,1.270000*%
G04 #@! TD*
G04 APERTURE END LIST*
D10*
G36*
X45590000Y24305000D02*
G01*
X45590000Y23855000D01*
X45090000Y23855000D01*
X45090000Y23605000D01*
X45590000Y23605000D01*
X45590000Y23355000D01*
X45090000Y23355000D01*
X45090000Y23105000D01*
X45590000Y23105000D01*
X45590000Y22655000D01*
X47990000Y22655000D01*
X47990000Y23105000D01*
X48490000Y23105000D01*
X48490000Y23355000D01*
X47990000Y23355000D01*
X47990000Y23605000D01*
X48490000Y23605000D01*
X48490000Y23855000D01*
X47990000Y23855000D01*
X47990000Y24305000D01*
X45590000Y24305000D01*
G37*
X45590000Y24305000D02*
X45590000Y23855000D01*
X45090000Y23855000D01*
X45090000Y23605000D01*
X45590000Y23605000D01*
X45590000Y23355000D01*
X45090000Y23355000D01*
X45090000Y23105000D01*
X45590000Y23105000D01*
X45590000Y22655000D01*
X47990000Y22655000D01*
X47990000Y23105000D01*
X48490000Y23105000D01*
X48490000Y23355000D01*
X47990000Y23355000D01*
X47990000Y23605000D01*
X48490000Y23605000D01*
X48490000Y23855000D01*
X47990000Y23855000D01*
X47990000Y24305000D01*
X45590000Y24305000D01*
G36*
X9855000Y30120000D02*
G01*
X10305000Y30120000D01*
X10305000Y29620000D01*
X10555000Y29620000D01*
X10555000Y30120000D01*
X10805000Y30120000D01*
X10805000Y29620000D01*
X11055000Y29620000D01*
X11055000Y30120000D01*
X11505000Y30120000D01*
X11505000Y32520000D01*
X11055000Y32520000D01*
X11055000Y33020000D01*
X10805000Y33020000D01*
X10805000Y32520000D01*
X10555000Y32520000D01*
X10555000Y33020000D01*
X10305000Y33020000D01*
X10305000Y32520000D01*
X9855000Y32520000D01*
X9855000Y30120000D01*
G37*
X9855000Y30120000D02*
X10305000Y30120000D01*
X10305000Y29620000D01*
X10555000Y29620000D01*
X10555000Y30120000D01*
X10805000Y30120000D01*
X10805000Y29620000D01*
X11055000Y29620000D01*
X11055000Y30120000D01*
X11505000Y30120000D01*
X11505000Y32520000D01*
X11055000Y32520000D01*
X11055000Y33020000D01*
X10805000Y33020000D01*
X10805000Y32520000D01*
X10555000Y32520000D01*
X10555000Y33020000D01*
X10305000Y33020000D01*
X10305000Y32520000D01*
X9855000Y32520000D01*
X9855000Y30120000D01*
D11*
X17210000Y13710000D03*
X12810000Y13710000D03*
X39790000Y36900000D03*
X44190000Y36900000D03*
X17190000Y19920000D03*
X12790000Y19920000D03*
X17480000Y26060000D03*
X13080000Y26060000D03*
D12*
X45820000Y8880000D03*
X45820000Y13280000D03*
D13*
X45790000Y24880000D03*
X46290000Y24880000D03*
X46790000Y24880000D03*
X47290000Y24880000D03*
X47790000Y24880000D03*
X47790000Y22080000D03*
X47290000Y22080000D03*
X46790000Y22080000D03*
X46290000Y22080000D03*
X45790000Y22080000D03*
D14*
X46790000Y23480000D03*
D15*
X9280000Y30320000D03*
X9280000Y30820000D03*
X9280000Y31320000D03*
X9280000Y31820000D03*
X9280000Y32320000D03*
X12080000Y32320000D03*
X12080000Y31820000D03*
X12080000Y31320000D03*
X12080000Y30820000D03*
X12080000Y30320000D03*
D16*
X10680000Y31320000D03*
D17*
X8265000Y13250000D03*
X8265000Y11350000D03*
X10775000Y11350000D03*
X10775000Y12300000D03*
X10775000Y13250000D03*
X49025000Y35800000D03*
X49025000Y37700000D03*
X46515000Y37700000D03*
X46515000Y36750000D03*
X46515000Y35800000D03*
X8365000Y21090000D03*
X8365000Y19190000D03*
X10875000Y19190000D03*
X10875000Y20140000D03*
X10875000Y21090000D03*
D18*
X8365000Y26550000D03*
X8365000Y25600000D03*
X8365000Y24650000D03*
X10675000Y24650000D03*
X10675000Y25600000D03*
X10675000Y26550000D03*
D19*
X47720000Y17815000D03*
X45820000Y17815000D03*
X45820000Y15305000D03*
X46770000Y15305000D03*
X47720000Y15305000D03*
G04 #@! TA.AperFunction,SMDPad,CuDef*
G36*
G01*
X46080000Y19817500D02*
X46080000Y20162500D01*
G75*
G02*
X46227500Y20310000I147500J0D01*
G01*
X46522500Y20310000D01*
G75*
G02*
X46670000Y20162500I0J-147500D01*
G01*
X46670000Y19817500D01*
G75*
G02*
X46522500Y19670000I-147500J0D01*
G01*
X46227500Y19670000D01*
G75*
G02*
X46080000Y19817500I0J147500D01*
G01*
G37*
G04 #@! TD.AperFunction*
G04 #@! TA.AperFunction,SMDPad,CuDef*
G36*
G01*
X45110000Y19817500D02*
X45110000Y20162500D01*
G75*
G02*
X45257500Y20310000I147500J0D01*
G01*
X45552500Y20310000D01*
G75*
G02*
X45700000Y20162500I0J-147500D01*
G01*
X45700000Y19817500D01*
G75*
G02*
X45552500Y19670000I-147500J0D01*
G01*
X45257500Y19670000D01*
G75*
G02*
X45110000Y19817500I0J147500D01*
G01*
G37*
G04 #@! TD.AperFunction*
G04 #@! TA.AperFunction,SMDPad,CuDef*
G36*
G01*
X48000000Y20827500D02*
X48000000Y21172500D01*
G75*
G02*
X48147500Y21320000I147500J0D01*
G01*
X48442500Y21320000D01*
G75*
G02*
X48590000Y21172500I0J-147500D01*
G01*
X48590000Y20827500D01*
G75*
G02*
X48442500Y20680000I-147500J0D01*
G01*
X48147500Y20680000D01*
G75*
G02*
X48000000Y20827500I0J147500D01*
G01*
G37*
G04 #@! TD.AperFunction*
G04 #@! TA.AperFunction,SMDPad,CuDef*
G36*
G01*
X47030000Y20827500D02*
X47030000Y21172500D01*
G75*
G02*
X47177500Y21320000I147500J0D01*
G01*
X47472500Y21320000D01*
G75*
G02*
X47620000Y21172500I0J-147500D01*
G01*
X47620000Y20827500D01*
G75*
G02*
X47472500Y20680000I-147500J0D01*
G01*
X47177500Y20680000D01*
G75*
G02*
X47030000Y20827500I0J147500D01*
G01*
G37*
G04 #@! TD.AperFunction*
G04 #@! TA.AperFunction,SMDPad,CuDef*
G36*
G01*
X46080000Y20827500D02*
X46080000Y21172500D01*
G75*
G02*
X46227500Y21320000I147500J0D01*
G01*
X46522500Y21320000D01*
G75*
G02*
X46670000Y21172500I0J-147500D01*
G01*
X46670000Y20827500D01*
G75*
G02*
X46522500Y20680000I-147500J0D01*
G01*
X46227500Y20680000D01*
G75*
G02*
X46080000Y20827500I0J147500D01*
G01*
G37*
G04 #@! TD.AperFunction*
G04 #@! TA.AperFunction,SMDPad,CuDef*
G36*
G01*
X45110000Y20827500D02*
X45110000Y21172500D01*
G75*
G02*
X45257500Y21320000I147500J0D01*
G01*
X45552500Y21320000D01*
G75*
G02*
X45700000Y21172500I0J-147500D01*
G01*
X45700000Y20827500D01*
G75*
G02*
X45552500Y20680000I-147500J0D01*
G01*
X45257500Y20680000D01*
G75*
G02*
X45110000Y20827500I0J147500D01*
G01*
G37*
G04 #@! TD.AperFunction*
G04 #@! TA.AperFunction,SMDPad,CuDef*
G36*
G01*
X47310000Y27122500D02*
X47310000Y26777500D01*
G75*
G02*
X47162500Y26630000I-147500J0D01*
G01*
X46867500Y26630000D01*
G75*
G02*
X46720000Y26777500I0J147500D01*
G01*
X46720000Y27122500D01*
G75*
G02*
X46867500Y27270000I147500J0D01*
G01*
X47162500Y27270000D01*
G75*
G02*
X47310000Y27122500I0J-147500D01*
G01*
G37*
G04 #@! TD.AperFunction*
G04 #@! TA.AperFunction,SMDPad,CuDef*
G36*
G01*
X48280000Y27122500D02*
X48280000Y26777500D01*
G75*
G02*
X48132500Y26630000I-147500J0D01*
G01*
X47837500Y26630000D01*
G75*
G02*
X47690000Y26777500I0J147500D01*
G01*
X47690000Y27122500D01*
G75*
G02*
X47837500Y27270000I147500J0D01*
G01*
X48132500Y27270000D01*
G75*
G02*
X48280000Y27122500I0J-147500D01*
G01*
G37*
G04 #@! TD.AperFunction*
G04 #@! TA.AperFunction,SMDPad,CuDef*
G36*
G01*
X13332500Y32500000D02*
X12987500Y32500000D01*
G75*
G02*
X12840000Y32647500I0J147500D01*
G01*
X12840000Y32942500D01*
G75*
G02*
X12987500Y33090000I147500J0D01*
G01*
X13332500Y33090000D01*
G75*
G02*
X13480000Y32942500I0J-147500D01*
G01*
X13480000Y32647500D01*
G75*
G02*
X13332500Y32500000I-147500J0D01*
G01*
G37*
G04 #@! TD.AperFunction*
G04 #@! TA.AperFunction,SMDPad,CuDef*
G36*
G01*
X13332500Y31530000D02*
X12987500Y31530000D01*
G75*
G02*
X12840000Y31677500I0J147500D01*
G01*
X12840000Y31972500D01*
G75*
G02*
X12987500Y32120000I147500J0D01*
G01*
X13332500Y32120000D01*
G75*
G02*
X13480000Y31972500I0J-147500D01*
G01*
X13480000Y31677500D01*
G75*
G02*
X13332500Y31530000I-147500J0D01*
G01*
G37*
G04 #@! TD.AperFunction*
G04 #@! TA.AperFunction,SMDPad,CuDef*
G36*
G01*
X13332500Y30580000D02*
X12987500Y30580000D01*
G75*
G02*
X12840000Y30727500I0J147500D01*
G01*
X12840000Y31022500D01*
G75*
G02*
X12987500Y31170000I147500J0D01*
G01*
X13332500Y31170000D01*
G75*
G02*
X13480000Y31022500I0J-147500D01*
G01*
X13480000Y30727500D01*
G75*
G02*
X13332500Y30580000I-147500J0D01*
G01*
G37*
G04 #@! TD.AperFunction*
G04 #@! TA.AperFunction,SMDPad,CuDef*
G36*
G01*
X13332500Y29610000D02*
X12987500Y29610000D01*
G75*
G02*
X12840000Y29757500I0J147500D01*
G01*
X12840000Y30052500D01*
G75*
G02*
X12987500Y30200000I147500J0D01*
G01*
X13332500Y30200000D01*
G75*
G02*
X13480000Y30052500I0J-147500D01*
G01*
X13480000Y29757500D01*
G75*
G02*
X13332500Y29610000I-147500J0D01*
G01*
G37*
G04 #@! TD.AperFunction*
G04 #@! TA.AperFunction,SMDPad,CuDef*
G36*
G01*
X46780000Y34297500D02*
X46780000Y34642500D01*
G75*
G02*
X46927500Y34790000I147500J0D01*
G01*
X47222500Y34790000D01*
G75*
G02*
X47370000Y34642500I0J-147500D01*
G01*
X47370000Y34297500D01*
G75*
G02*
X47222500Y34150000I-147500J0D01*
G01*
X46927500Y34150000D01*
G75*
G02*
X46780000Y34297500I0J147500D01*
G01*
G37*
G04 #@! TD.AperFunction*
G04 #@! TA.AperFunction,SMDPad,CuDef*
G36*
G01*
X45810000Y34297500D02*
X45810000Y34642500D01*
G75*
G02*
X45957500Y34790000I147500J0D01*
G01*
X46252500Y34790000D01*
G75*
G02*
X46400000Y34642500I0J-147500D01*
G01*
X46400000Y34297500D01*
G75*
G02*
X46252500Y34150000I-147500J0D01*
G01*
X45957500Y34150000D01*
G75*
G02*
X45810000Y34297500I0J147500D01*
G01*
G37*
G04 #@! TD.AperFunction*
G04 #@! TA.AperFunction,SMDPad,CuDef*
G36*
G01*
X9980000Y15702500D02*
X9980000Y15357500D01*
G75*
G02*
X9832500Y15210000I-147500J0D01*
G01*
X9537500Y15210000D01*
G75*
G02*
X9390000Y15357500I0J147500D01*
G01*
X9390000Y15702500D01*
G75*
G02*
X9537500Y15850000I147500J0D01*
G01*
X9832500Y15850000D01*
G75*
G02*
X9980000Y15702500I0J-147500D01*
G01*
G37*
G04 #@! TD.AperFunction*
G04 #@! TA.AperFunction,SMDPad,CuDef*
G36*
G01*
X10950000Y15702500D02*
X10950000Y15357500D01*
G75*
G02*
X10802500Y15210000I-147500J0D01*
G01*
X10507500Y15210000D01*
G75*
G02*
X10360000Y15357500I0J147500D01*
G01*
X10360000Y15702500D01*
G75*
G02*
X10507500Y15850000I147500J0D01*
G01*
X10802500Y15850000D01*
G75*
G02*
X10950000Y15702500I0J-147500D01*
G01*
G37*
G04 #@! TD.AperFunction*
G04 #@! TA.AperFunction,SMDPad,CuDef*
G36*
G01*
X9980000Y14702500D02*
X9980000Y14357500D01*
G75*
G02*
X9832500Y14210000I-147500J0D01*
G01*
X9537500Y14210000D01*
G75*
G02*
X9390000Y14357500I0J147500D01*
G01*
X9390000Y14702500D01*
G75*
G02*
X9537500Y14850000I147500J0D01*
G01*
X9832500Y14850000D01*
G75*
G02*
X9980000Y14702500I0J-147500D01*
G01*
G37*
G04 #@! TD.AperFunction*
G04 #@! TA.AperFunction,SMDPad,CuDef*
G36*
G01*
X10950000Y14702500D02*
X10950000Y14357500D01*
G75*
G02*
X10802500Y14210000I-147500J0D01*
G01*
X10507500Y14210000D01*
G75*
G02*
X10360000Y14357500I0J147500D01*
G01*
X10360000Y14702500D01*
G75*
G02*
X10507500Y14850000I147500J0D01*
G01*
X10802500Y14850000D01*
G75*
G02*
X10950000Y14702500I0J-147500D01*
G01*
G37*
G04 #@! TD.AperFunction*
G04 #@! TA.AperFunction,SMDPad,CuDef*
G36*
G01*
X48730000Y34297500D02*
X48730000Y34642500D01*
G75*
G02*
X48877500Y34790000I147500J0D01*
G01*
X49172500Y34790000D01*
G75*
G02*
X49320000Y34642500I0J-147500D01*
G01*
X49320000Y34297500D01*
G75*
G02*
X49172500Y34150000I-147500J0D01*
G01*
X48877500Y34150000D01*
G75*
G02*
X48730000Y34297500I0J147500D01*
G01*
G37*
G04 #@! TD.AperFunction*
G04 #@! TA.AperFunction,SMDPad,CuDef*
G36*
G01*
X47760000Y34297500D02*
X47760000Y34642500D01*
G75*
G02*
X47907500Y34790000I147500J0D01*
G01*
X48202500Y34790000D01*
G75*
G02*
X48350000Y34642500I0J-147500D01*
G01*
X48350000Y34297500D01*
G75*
G02*
X48202500Y34150000I-147500J0D01*
G01*
X47907500Y34150000D01*
G75*
G02*
X47760000Y34297500I0J147500D01*
G01*
G37*
G04 #@! TD.AperFunction*
G04 #@! TA.AperFunction,SMDPad,CuDef*
G36*
G01*
X7930000Y15202500D02*
X7930000Y14857500D01*
G75*
G02*
X7782500Y14710000I-147500J0D01*
G01*
X7487500Y14710000D01*
G75*
G02*
X7340000Y14857500I0J147500D01*
G01*
X7340000Y15202500D01*
G75*
G02*
X7487500Y15350000I147500J0D01*
G01*
X7782500Y15350000D01*
G75*
G02*
X7930000Y15202500I0J-147500D01*
G01*
G37*
G04 #@! TD.AperFunction*
G04 #@! TA.AperFunction,SMDPad,CuDef*
G36*
G01*
X8900000Y15202500D02*
X8900000Y14857500D01*
G75*
G02*
X8752500Y14710000I-147500J0D01*
G01*
X8457500Y14710000D01*
G75*
G02*
X8310000Y14857500I0J147500D01*
G01*
X8310000Y15202500D01*
G75*
G02*
X8457500Y15350000I147500J0D01*
G01*
X8752500Y15350000D01*
G75*
G02*
X8900000Y15202500I0J-147500D01*
G01*
G37*
G04 #@! TD.AperFunction*
G04 #@! TA.AperFunction,SMDPad,CuDef*
G36*
G01*
X50652500Y36480000D02*
X50307500Y36480000D01*
G75*
G02*
X50160000Y36627500I0J147500D01*
G01*
X50160000Y36922500D01*
G75*
G02*
X50307500Y37070000I147500J0D01*
G01*
X50652500Y37070000D01*
G75*
G02*
X50800000Y36922500I0J-147500D01*
G01*
X50800000Y36627500D01*
G75*
G02*
X50652500Y36480000I-147500J0D01*
G01*
G37*
G04 #@! TD.AperFunction*
G04 #@! TA.AperFunction,SMDPad,CuDef*
G36*
G01*
X50652500Y35510000D02*
X50307500Y35510000D01*
G75*
G02*
X50160000Y35657500I0J147500D01*
G01*
X50160000Y35952500D01*
G75*
G02*
X50307500Y36100000I147500J0D01*
G01*
X50652500Y36100000D01*
G75*
G02*
X50800000Y35952500I0J-147500D01*
G01*
X50800000Y35657500D01*
G75*
G02*
X50652500Y35510000I-147500J0D01*
G01*
G37*
G04 #@! TD.AperFunction*
G04 #@! TA.AperFunction,SMDPad,CuDef*
G36*
G01*
X9040000Y23532500D02*
X9040000Y23187500D01*
G75*
G02*
X8892500Y23040000I-147500J0D01*
G01*
X8597500Y23040000D01*
G75*
G02*
X8450000Y23187500I0J147500D01*
G01*
X8450000Y23532500D01*
G75*
G02*
X8597500Y23680000I147500J0D01*
G01*
X8892500Y23680000D01*
G75*
G02*
X9040000Y23532500I0J-147500D01*
G01*
G37*
G04 #@! TD.AperFunction*
G04 #@! TA.AperFunction,SMDPad,CuDef*
G36*
G01*
X10010000Y23532500D02*
X10010000Y23187500D01*
G75*
G02*
X9862500Y23040000I-147500J0D01*
G01*
X9567500Y23040000D01*
G75*
G02*
X9420000Y23187500I0J147500D01*
G01*
X9420000Y23532500D01*
G75*
G02*
X9567500Y23680000I147500J0D01*
G01*
X9862500Y23680000D01*
G75*
G02*
X10010000Y23532500I0J-147500D01*
G01*
G37*
G04 #@! TD.AperFunction*
G04 #@! TA.AperFunction,SMDPad,CuDef*
G36*
G01*
X9420000Y22197500D02*
X9420000Y22542500D01*
G75*
G02*
X9567500Y22690000I147500J0D01*
G01*
X9862500Y22690000D01*
G75*
G02*
X10010000Y22542500I0J-147500D01*
G01*
X10010000Y22197500D01*
G75*
G02*
X9862500Y22050000I-147500J0D01*
G01*
X9567500Y22050000D01*
G75*
G02*
X9420000Y22197500I0J147500D01*
G01*
G37*
G04 #@! TD.AperFunction*
G04 #@! TA.AperFunction,SMDPad,CuDef*
G36*
G01*
X8450000Y22197500D02*
X8450000Y22542500D01*
G75*
G02*
X8597500Y22690000I147500J0D01*
G01*
X8892500Y22690000D01*
G75*
G02*
X9040000Y22542500I0J-147500D01*
G01*
X9040000Y22197500D01*
G75*
G02*
X8892500Y22050000I-147500J0D01*
G01*
X8597500Y22050000D01*
G75*
G02*
X8450000Y22197500I0J147500D01*
G01*
G37*
G04 #@! TD.AperFunction*
G04 #@! TA.AperFunction,SMDPad,CuDef*
G36*
G01*
X9360000Y28002500D02*
X9360000Y27657500D01*
G75*
G02*
X9212500Y27510000I-147500J0D01*
G01*
X8917500Y27510000D01*
G75*
G02*
X8770000Y27657500I0J147500D01*
G01*
X8770000Y28002500D01*
G75*
G02*
X8917500Y28150000I147500J0D01*
G01*
X9212500Y28150000D01*
G75*
G02*
X9360000Y28002500I0J-147500D01*
G01*
G37*
G04 #@! TD.AperFunction*
G04 #@! TA.AperFunction,SMDPad,CuDef*
G36*
G01*
X10330000Y28002500D02*
X10330000Y27657500D01*
G75*
G02*
X10182500Y27510000I-147500J0D01*
G01*
X9887500Y27510000D01*
G75*
G02*
X9740000Y27657500I0J147500D01*
G01*
X9740000Y28002500D01*
G75*
G02*
X9887500Y28150000I147500J0D01*
G01*
X10182500Y28150000D01*
G75*
G02*
X10330000Y28002500I0J-147500D01*
G01*
G37*
G04 #@! TD.AperFunction*
G04 #@! TA.AperFunction,SMDPad,CuDef*
G36*
G01*
X9350000Y29012500D02*
X9350000Y28667500D01*
G75*
G02*
X9202500Y28520000I-147500J0D01*
G01*
X8907500Y28520000D01*
G75*
G02*
X8760000Y28667500I0J147500D01*
G01*
X8760000Y29012500D01*
G75*
G02*
X8907500Y29160000I147500J0D01*
G01*
X9202500Y29160000D01*
G75*
G02*
X9350000Y29012500I0J-147500D01*
G01*
G37*
G04 #@! TD.AperFunction*
G04 #@! TA.AperFunction,SMDPad,CuDef*
G36*
G01*
X10320000Y29012500D02*
X10320000Y28667500D01*
G75*
G02*
X10172500Y28520000I-147500J0D01*
G01*
X9877500Y28520000D01*
G75*
G02*
X9730000Y28667500I0J147500D01*
G01*
X9730000Y29012500D01*
G75*
G02*
X9877500Y29160000I147500J0D01*
G01*
X10172500Y29160000D01*
G75*
G02*
X10320000Y29012500I0J-147500D01*
G01*
G37*
G04 #@! TD.AperFunction*
G04 #@! TA.AperFunction,SMDPad,CuDef*
G36*
G01*
X49262500Y15470000D02*
X48917500Y15470000D01*
G75*
G02*
X48770000Y15617500I0J147500D01*
G01*
X48770000Y15912500D01*
G75*
G02*
X48917500Y16060000I147500J0D01*
G01*
X49262500Y16060000D01*
G75*
G02*
X49410000Y15912500I0J-147500D01*
G01*
X49410000Y15617500D01*
G75*
G02*
X49262500Y15470000I-147500J0D01*
G01*
G37*
G04 #@! TD.AperFunction*
G04 #@! TA.AperFunction,SMDPad,CuDef*
G36*
G01*
X49262500Y14500000D02*
X48917500Y14500000D01*
G75*
G02*
X48770000Y14647500I0J147500D01*
G01*
X48770000Y14942500D01*
G75*
G02*
X48917500Y15090000I147500J0D01*
G01*
X49262500Y15090000D01*
G75*
G02*
X49410000Y14942500I0J-147500D01*
G01*
X49410000Y14647500D01*
G75*
G02*
X49262500Y14500000I-147500J0D01*
G01*
G37*
G04 #@! TD.AperFunction*
G04 #@! TA.AperFunction,SMDPad,CuDef*
G36*
G01*
X6200000Y26702500D02*
X6200000Y26357500D01*
G75*
G02*
X6052500Y26210000I-147500J0D01*
G01*
X5757500Y26210000D01*
G75*
G02*
X5610000Y26357500I0J147500D01*
G01*
X5610000Y26702500D01*
G75*
G02*
X5757500Y26850000I147500J0D01*
G01*
X6052500Y26850000D01*
G75*
G02*
X6200000Y26702500I0J-147500D01*
G01*
G37*
G04 #@! TD.AperFunction*
G04 #@! TA.AperFunction,SMDPad,CuDef*
G36*
G01*
X7170000Y26702500D02*
X7170000Y26357500D01*
G75*
G02*
X7022500Y26210000I-147500J0D01*
G01*
X6727500Y26210000D01*
G75*
G02*
X6580000Y26357500I0J147500D01*
G01*
X6580000Y26702500D01*
G75*
G02*
X6727500Y26850000I147500J0D01*
G01*
X7022500Y26850000D01*
G75*
G02*
X7170000Y26702500I0J-147500D01*
G01*
G37*
G04 #@! TD.AperFunction*
G04 #@! TA.AperFunction,SMDPad,CuDef*
G36*
G01*
X49262500Y17420000D02*
X48917500Y17420000D01*
G75*
G02*
X48770000Y17567500I0J147500D01*
G01*
X48770000Y17862500D01*
G75*
G02*
X48917500Y18010000I147500J0D01*
G01*
X49262500Y18010000D01*
G75*
G02*
X49410000Y17862500I0J-147500D01*
G01*
X49410000Y17567500D01*
G75*
G02*
X49262500Y17420000I-147500J0D01*
G01*
G37*
G04 #@! TD.AperFunction*
G04 #@! TA.AperFunction,SMDPad,CuDef*
G36*
G01*
X49262500Y16450000D02*
X48917500Y16450000D01*
G75*
G02*
X48770000Y16597500I0J147500D01*
G01*
X48770000Y16892500D01*
G75*
G02*
X48917500Y17040000I147500J0D01*
G01*
X49262500Y17040000D01*
G75*
G02*
X49410000Y16892500I0J-147500D01*
G01*
X49410000Y16597500D01*
G75*
G02*
X49262500Y16450000I-147500J0D01*
G01*
G37*
G04 #@! TD.AperFunction*
G04 #@! TA.AperFunction,SMDPad,CuDef*
G36*
G01*
X49262500Y19360000D02*
X48917500Y19360000D01*
G75*
G02*
X48770000Y19507500I0J147500D01*
G01*
X48770000Y19802500D01*
G75*
G02*
X48917500Y19950000I147500J0D01*
G01*
X49262500Y19950000D01*
G75*
G02*
X49410000Y19802500I0J-147500D01*
G01*
X49410000Y19507500D01*
G75*
G02*
X49262500Y19360000I-147500J0D01*
G01*
G37*
G04 #@! TD.AperFunction*
G04 #@! TA.AperFunction,SMDPad,CuDef*
G36*
G01*
X49262500Y18390000D02*
X48917500Y18390000D01*
G75*
G02*
X48770000Y18537500I0J147500D01*
G01*
X48770000Y18832500D01*
G75*
G02*
X48917500Y18980000I147500J0D01*
G01*
X49262500Y18980000D01*
G75*
G02*
X49410000Y18832500I0J-147500D01*
G01*
X49410000Y18537500D01*
G75*
G02*
X49262500Y18390000I-147500J0D01*
G01*
G37*
G04 #@! TD.AperFunction*
G04 #@! TA.AperFunction,SMDPad,CuDef*
G36*
G01*
X6200000Y28052500D02*
X6200000Y27707500D01*
G75*
G02*
X6052500Y27560000I-147500J0D01*
G01*
X5757500Y27560000D01*
G75*
G02*
X5610000Y27707500I0J147500D01*
G01*
X5610000Y28052500D01*
G75*
G02*
X5757500Y28200000I147500J0D01*
G01*
X6052500Y28200000D01*
G75*
G02*
X6200000Y28052500I0J-147500D01*
G01*
G37*
G04 #@! TD.AperFunction*
G04 #@! TA.AperFunction,SMDPad,CuDef*
G36*
G01*
X7170000Y28052500D02*
X7170000Y27707500D01*
G75*
G02*
X7022500Y27560000I-147500J0D01*
G01*
X6727500Y27560000D01*
G75*
G02*
X6580000Y27707500I0J147500D01*
G01*
X6580000Y28052500D01*
G75*
G02*
X6727500Y28200000I147500J0D01*
G01*
X7022500Y28200000D01*
G75*
G02*
X7170000Y28052500I0J-147500D01*
G01*
G37*
G04 #@! TD.AperFunction*
G04 #@! TA.AperFunction,SMDPad,CuDef*
G36*
G01*
X44462500Y21770000D02*
X44117500Y21770000D01*
G75*
G02*
X43970000Y21917500I0J147500D01*
G01*
X43970000Y22212500D01*
G75*
G02*
X44117500Y22360000I147500J0D01*
G01*
X44462500Y22360000D01*
G75*
G02*
X44610000Y22212500I0J-147500D01*
G01*
X44610000Y21917500D01*
G75*
G02*
X44462500Y21770000I-147500J0D01*
G01*
G37*
G04 #@! TD.AperFunction*
G04 #@! TA.AperFunction,SMDPad,CuDef*
G36*
G01*
X44462500Y20800000D02*
X44117500Y20800000D01*
G75*
G02*
X43970000Y20947500I0J147500D01*
G01*
X43970000Y21242500D01*
G75*
G02*
X44117500Y21390000I147500J0D01*
G01*
X44462500Y21390000D01*
G75*
G02*
X44610000Y21242500I0J-147500D01*
G01*
X44610000Y20947500D01*
G75*
G02*
X44462500Y20800000I-147500J0D01*
G01*
G37*
G04 #@! TD.AperFunction*
G04 #@! TA.AperFunction,SMDPad,CuDef*
G36*
G01*
X13987500Y30200000D02*
X14332500Y30200000D01*
G75*
G02*
X14480000Y30052500I0J-147500D01*
G01*
X14480000Y29757500D01*
G75*
G02*
X14332500Y29610000I-147500J0D01*
G01*
X13987500Y29610000D01*
G75*
G02*
X13840000Y29757500I0J147500D01*
G01*
X13840000Y30052500D01*
G75*
G02*
X13987500Y30200000I147500J0D01*
G01*
G37*
G04 #@! TD.AperFunction*
G04 #@! TA.AperFunction,SMDPad,CuDef*
G36*
G01*
X13987500Y31170000D02*
X14332500Y31170000D01*
G75*
G02*
X14480000Y31022500I0J-147500D01*
G01*
X14480000Y30727500D01*
G75*
G02*
X14332500Y30580000I-147500J0D01*
G01*
X13987500Y30580000D01*
G75*
G02*
X13840000Y30727500I0J147500D01*
G01*
X13840000Y31022500D01*
G75*
G02*
X13987500Y31170000I147500J0D01*
G01*
G37*
G04 #@! TD.AperFunction*
G04 #@! TA.AperFunction,SMDPad,CuDef*
G36*
G01*
X45720000Y25807500D02*
X45720000Y26152500D01*
G75*
G02*
X45867500Y26300000I147500J0D01*
G01*
X46162500Y26300000D01*
G75*
G02*
X46310000Y26152500I0J-147500D01*
G01*
X46310000Y25807500D01*
G75*
G02*
X46162500Y25660000I-147500J0D01*
G01*
X45867500Y25660000D01*
G75*
G02*
X45720000Y25807500I0J147500D01*
G01*
G37*
G04 #@! TD.AperFunction*
G04 #@! TA.AperFunction,SMDPad,CuDef*
G36*
G01*
X44750000Y25807500D02*
X44750000Y26152500D01*
G75*
G02*
X44897500Y26300000I147500J0D01*
G01*
X45192500Y26300000D01*
G75*
G02*
X45340000Y26152500I0J-147500D01*
G01*
X45340000Y25807500D01*
G75*
G02*
X45192500Y25660000I-147500J0D01*
G01*
X44897500Y25660000D01*
G75*
G02*
X44750000Y25807500I0J147500D01*
G01*
G37*
G04 #@! TD.AperFunction*
G04 #@! TA.AperFunction,SMDPad,CuDef*
G36*
G01*
X8037500Y30610000D02*
X8382500Y30610000D01*
G75*
G02*
X8530000Y30462500I0J-147500D01*
G01*
X8530000Y30167500D01*
G75*
G02*
X8382500Y30020000I-147500J0D01*
G01*
X8037500Y30020000D01*
G75*
G02*
X7890000Y30167500I0J147500D01*
G01*
X7890000Y30462500D01*
G75*
G02*
X8037500Y30610000I147500J0D01*
G01*
G37*
G04 #@! TD.AperFunction*
G04 #@! TA.AperFunction,SMDPad,CuDef*
G36*
G01*
X8037500Y31580000D02*
X8382500Y31580000D01*
G75*
G02*
X8530000Y31432500I0J-147500D01*
G01*
X8530000Y31137500D01*
G75*
G02*
X8382500Y30990000I-147500J0D01*
G01*
X8037500Y30990000D01*
G75*
G02*
X7890000Y31137500I0J147500D01*
G01*
X7890000Y31432500D01*
G75*
G02*
X8037500Y31580000I147500J0D01*
G01*
G37*
G04 #@! TD.AperFunction*
G04 #@! TA.AperFunction,SMDPad,CuDef*
G36*
G01*
X12945000Y8765000D02*
X12945000Y10015000D01*
G75*
G02*
X13195000Y10265000I250000J0D01*
G01*
X13945000Y10265000D01*
G75*
G02*
X14195000Y10015000I0J-250000D01*
G01*
X14195000Y8765000D01*
G75*
G02*
X13945000Y8515000I-250000J0D01*
G01*
X13195000Y8515000D01*
G75*
G02*
X12945000Y8765000I0J250000D01*
G01*
G37*
G04 #@! TD.AperFunction*
G04 #@! TA.AperFunction,SMDPad,CuDef*
G36*
G01*
X10145000Y8765000D02*
X10145000Y10015000D01*
G75*
G02*
X10395000Y10265000I250000J0D01*
G01*
X11145000Y10265000D01*
G75*
G02*
X11395000Y10015000I0J-250000D01*
G01*
X11395000Y8765000D01*
G75*
G02*
X11145000Y8515000I-250000J0D01*
G01*
X10395000Y8515000D01*
G75*
G02*
X10145000Y8765000I0J250000D01*
G01*
G37*
G04 #@! TD.AperFunction*
G04 #@! TA.AperFunction,SMDPad,CuDef*
G36*
G01*
X43405000Y33265000D02*
X43405000Y32015000D01*
G75*
G02*
X43155000Y31765000I-250000J0D01*
G01*
X42405000Y31765000D01*
G75*
G02*
X42155000Y32015000I0J250000D01*
G01*
X42155000Y33265000D01*
G75*
G02*
X42405000Y33515000I250000J0D01*
G01*
X43155000Y33515000D01*
G75*
G02*
X43405000Y33265000I0J-250000D01*
G01*
G37*
G04 #@! TD.AperFunction*
G04 #@! TA.AperFunction,SMDPad,CuDef*
G36*
G01*
X46205000Y33265000D02*
X46205000Y32015000D01*
G75*
G02*
X45955000Y31765000I-250000J0D01*
G01*
X45205000Y31765000D01*
G75*
G02*
X44955000Y32015000I0J250000D01*
G01*
X44955000Y33265000D01*
G75*
G02*
X45205000Y33515000I250000J0D01*
G01*
X45955000Y33515000D01*
G75*
G02*
X46205000Y33265000I0J-250000D01*
G01*
G37*
G04 #@! TD.AperFunction*
G04 #@! TA.AperFunction,SMDPad,CuDef*
G36*
G01*
X10175000Y16645000D02*
X10175000Y17895000D01*
G75*
G02*
X10425000Y18145000I250000J0D01*
G01*
X11175000Y18145000D01*
G75*
G02*
X11425000Y17895000I0J-250000D01*
G01*
X11425000Y16645000D01*
G75*
G02*
X11175000Y16395000I-250000J0D01*
G01*
X10425000Y16395000D01*
G75*
G02*
X10175000Y16645000I0J250000D01*
G01*
G37*
G04 #@! TD.AperFunction*
G04 #@! TA.AperFunction,SMDPad,CuDef*
G36*
G01*
X7375000Y16645000D02*
X7375000Y17895000D01*
G75*
G02*
X7625000Y18145000I250000J0D01*
G01*
X8375000Y18145000D01*
G75*
G02*
X8625000Y17895000I0J-250000D01*
G01*
X8625000Y16645000D01*
G75*
G02*
X8375000Y16395000I-250000J0D01*
G01*
X7625000Y16395000D01*
G75*
G02*
X7375000Y16645000I0J250000D01*
G01*
G37*
G04 #@! TD.AperFunction*
G04 #@! TA.AperFunction,SMDPad,CuDef*
G36*
G01*
X9192500Y9720000D02*
X8847500Y9720000D01*
G75*
G02*
X8700000Y9867500I0J147500D01*
G01*
X8700000Y10162500D01*
G75*
G02*
X8847500Y10310000I147500J0D01*
G01*
X9192500Y10310000D01*
G75*
G02*
X9340000Y10162500I0J-147500D01*
G01*
X9340000Y9867500D01*
G75*
G02*
X9192500Y9720000I-147500J0D01*
G01*
G37*
G04 #@! TD.AperFunction*
G04 #@! TA.AperFunction,SMDPad,CuDef*
G36*
G01*
X9192500Y8750000D02*
X8847500Y8750000D01*
G75*
G02*
X8700000Y8897500I0J147500D01*
G01*
X8700000Y9192500D01*
G75*
G02*
X8847500Y9340000I147500J0D01*
G01*
X9192500Y9340000D01*
G75*
G02*
X9340000Y9192500I0J-147500D01*
G01*
X9340000Y8897500D01*
G75*
G02*
X9192500Y8750000I-147500J0D01*
G01*
G37*
G04 #@! TD.AperFunction*
G04 #@! TA.AperFunction,SMDPad,CuDef*
G36*
G01*
X48740000Y38837500D02*
X48740000Y39182500D01*
G75*
G02*
X48887500Y39330000I147500J0D01*
G01*
X49182500Y39330000D01*
G75*
G02*
X49330000Y39182500I0J-147500D01*
G01*
X49330000Y38837500D01*
G75*
G02*
X49182500Y38690000I-147500J0D01*
G01*
X48887500Y38690000D01*
G75*
G02*
X48740000Y38837500I0J147500D01*
G01*
G37*
G04 #@! TD.AperFunction*
G04 #@! TA.AperFunction,SMDPad,CuDef*
G36*
G01*
X47770000Y38837500D02*
X47770000Y39182500D01*
G75*
G02*
X47917500Y39330000I147500J0D01*
G01*
X48212500Y39330000D01*
G75*
G02*
X48360000Y39182500I0J-147500D01*
G01*
X48360000Y38837500D01*
G75*
G02*
X48212500Y38690000I-147500J0D01*
G01*
X47917500Y38690000D01*
G75*
G02*
X47770000Y38837500I0J147500D01*
G01*
G37*
G04 #@! TD.AperFunction*
G04 #@! TA.AperFunction,SMDPad,CuDef*
G36*
G01*
X15325000Y30765000D02*
X16575000Y30765000D01*
G75*
G02*
X16825000Y30515000I0J-250000D01*
G01*
X16825000Y29765000D01*
G75*
G02*
X16575000Y29515000I-250000J0D01*
G01*
X15325000Y29515000D01*
G75*
G02*
X15075000Y29765000I0J250000D01*
G01*
X15075000Y30515000D01*
G75*
G02*
X15325000Y30765000I250000J0D01*
G01*
G37*
G04 #@! TD.AperFunction*
G04 #@! TA.AperFunction,SMDPad,CuDef*
G36*
G01*
X15325000Y33565000D02*
X16575000Y33565000D01*
G75*
G02*
X16825000Y33315000I0J-250000D01*
G01*
X16825000Y32565000D01*
G75*
G02*
X16575000Y32315000I-250000J0D01*
G01*
X15325000Y32315000D01*
G75*
G02*
X15075000Y32565000I0J250000D01*
G01*
X15075000Y33315000D01*
G75*
G02*
X15325000Y33565000I250000J0D01*
G01*
G37*
G04 #@! TD.AperFunction*
G04 #@! TA.AperFunction,SMDPad,CuDef*
G36*
G01*
X6787500Y19470000D02*
X7132500Y19470000D01*
G75*
G02*
X7280000Y19322500I0J-147500D01*
G01*
X7280000Y19027500D01*
G75*
G02*
X7132500Y18880000I-147500J0D01*
G01*
X6787500Y18880000D01*
G75*
G02*
X6640000Y19027500I0J147500D01*
G01*
X6640000Y19322500D01*
G75*
G02*
X6787500Y19470000I147500J0D01*
G01*
G37*
G04 #@! TD.AperFunction*
G04 #@! TA.AperFunction,SMDPad,CuDef*
G36*
G01*
X6787500Y20440000D02*
X7132500Y20440000D01*
G75*
G02*
X7280000Y20292500I0J-147500D01*
G01*
X7280000Y19997500D01*
G75*
G02*
X7132500Y19850000I-147500J0D01*
G01*
X6787500Y19850000D01*
G75*
G02*
X6640000Y19997500I0J147500D01*
G01*
X6640000Y20292500D01*
G75*
G02*
X6787500Y20440000I147500J0D01*
G01*
G37*
G04 #@! TD.AperFunction*
G04 #@! TA.AperFunction,SMDPad,CuDef*
G36*
G01*
X49635000Y10125000D02*
X50885000Y10125000D01*
G75*
G02*
X51135000Y9875000I0J-250000D01*
G01*
X51135000Y9125000D01*
G75*
G02*
X50885000Y8875000I-250000J0D01*
G01*
X49635000Y8875000D01*
G75*
G02*
X49385000Y9125000I0J250000D01*
G01*
X49385000Y9875000D01*
G75*
G02*
X49635000Y10125000I250000J0D01*
G01*
G37*
G04 #@! TD.AperFunction*
G04 #@! TA.AperFunction,SMDPad,CuDef*
G36*
G01*
X49635000Y12925000D02*
X50885000Y12925000D01*
G75*
G02*
X51135000Y12675000I0J-250000D01*
G01*
X51135000Y11925000D01*
G75*
G02*
X50885000Y11675000I-250000J0D01*
G01*
X49635000Y11675000D01*
G75*
G02*
X49385000Y11925000I0J250000D01*
G01*
X49385000Y12675000D01*
G75*
G02*
X49635000Y12925000I250000J0D01*
G01*
G37*
G04 #@! TD.AperFunction*
G04 #@! TA.AperFunction,SMDPad,CuDef*
G36*
G01*
X6862500Y24350000D02*
X6517500Y24350000D01*
G75*
G02*
X6370000Y24497500I0J147500D01*
G01*
X6370000Y24792500D01*
G75*
G02*
X6517500Y24940000I147500J0D01*
G01*
X6862500Y24940000D01*
G75*
G02*
X7010000Y24792500I0J-147500D01*
G01*
X7010000Y24497500D01*
G75*
G02*
X6862500Y24350000I-147500J0D01*
G01*
G37*
G04 #@! TD.AperFunction*
G04 #@! TA.AperFunction,SMDPad,CuDef*
G36*
G01*
X6862500Y23380000D02*
X6517500Y23380000D01*
G75*
G02*
X6370000Y23527500I0J147500D01*
G01*
X6370000Y23822500D01*
G75*
G02*
X6517500Y23970000I147500J0D01*
G01*
X6862500Y23970000D01*
G75*
G02*
X7010000Y23822500I0J-147500D01*
G01*
X7010000Y23527500D01*
G75*
G02*
X6862500Y23380000I-147500J0D01*
G01*
G37*
G04 #@! TD.AperFunction*
G04 #@! TA.AperFunction,SMDPad,CuDef*
G36*
G01*
X44642500Y17510000D02*
X44297500Y17510000D01*
G75*
G02*
X44150000Y17657500I0J147500D01*
G01*
X44150000Y17952500D01*
G75*
G02*
X44297500Y18100000I147500J0D01*
G01*
X44642500Y18100000D01*
G75*
G02*
X44790000Y17952500I0J-147500D01*
G01*
X44790000Y17657500D01*
G75*
G02*
X44642500Y17510000I-147500J0D01*
G01*
G37*
G04 #@! TD.AperFunction*
G04 #@! TA.AperFunction,SMDPad,CuDef*
G36*
G01*
X44642500Y16540000D02*
X44297500Y16540000D01*
G75*
G02*
X44150000Y16687500I0J147500D01*
G01*
X44150000Y16982500D01*
G75*
G02*
X44297500Y17130000I147500J0D01*
G01*
X44642500Y17130000D01*
G75*
G02*
X44790000Y16982500I0J-147500D01*
G01*
X44790000Y16687500D01*
G75*
G02*
X44642500Y16540000I-147500J0D01*
G01*
G37*
G04 #@! TD.AperFunction*
G04 #@! TA.AperFunction,SMDPad,CuDef*
G36*
G01*
X47727500Y43700000D02*
X48072500Y43700000D01*
G75*
G02*
X48220000Y43552500I0J-147500D01*
G01*
X48220000Y43257500D01*
G75*
G02*
X48072500Y43110000I-147500J0D01*
G01*
X47727500Y43110000D01*
G75*
G02*
X47580000Y43257500I0J147500D01*
G01*
X47580000Y43552500D01*
G75*
G02*
X47727500Y43700000I147500J0D01*
G01*
G37*
G04 #@! TD.AperFunction*
G04 #@! TA.AperFunction,SMDPad,CuDef*
G36*
G01*
X47727500Y44670000D02*
X48072500Y44670000D01*
G75*
G02*
X48220000Y44522500I0J-147500D01*
G01*
X48220000Y44227500D01*
G75*
G02*
X48072500Y44080000I-147500J0D01*
G01*
X47727500Y44080000D01*
G75*
G02*
X47580000Y44227500I0J147500D01*
G01*
X47580000Y44522500D01*
G75*
G02*
X47727500Y44670000I147500J0D01*
G01*
G37*
G04 #@! TD.AperFunction*
G04 #@! TA.AperFunction,SMDPad,CuDef*
G36*
G01*
X14527500Y43800000D02*
X14872500Y43800000D01*
G75*
G02*
X15020000Y43652500I0J-147500D01*
G01*
X15020000Y43357500D01*
G75*
G02*
X14872500Y43210000I-147500J0D01*
G01*
X14527500Y43210000D01*
G75*
G02*
X14380000Y43357500I0J147500D01*
G01*
X14380000Y43652500D01*
G75*
G02*
X14527500Y43800000I147500J0D01*
G01*
G37*
G04 #@! TD.AperFunction*
G04 #@! TA.AperFunction,SMDPad,CuDef*
G36*
G01*
X14527500Y44770000D02*
X14872500Y44770000D01*
G75*
G02*
X15020000Y44622500I0J-147500D01*
G01*
X15020000Y44327500D01*
G75*
G02*
X14872500Y44180000I-147500J0D01*
G01*
X14527500Y44180000D01*
G75*
G02*
X14380000Y44327500I0J147500D01*
G01*
X14380000Y44622500D01*
G75*
G02*
X14527500Y44770000I147500J0D01*
G01*
G37*
G04 #@! TD.AperFunction*
G04 #@! TA.AperFunction,SMDPad,CuDef*
G36*
G01*
X20850000Y30515001D02*
X20850000Y29664999D01*
G75*
G02*
X20600001Y29415000I-249999J0D01*
G01*
X19699999Y29415000D01*
G75*
G02*
X19450000Y29664999I0J249999D01*
G01*
X19450000Y30515001D01*
G75*
G02*
X19699999Y30765000I249999J0D01*
G01*
X20600001Y30765000D01*
G75*
G02*
X20850000Y30515001I0J-249999D01*
G01*
G37*
G04 #@! TD.AperFunction*
G04 #@! TA.AperFunction,SMDPad,CuDef*
G36*
G01*
X23550000Y30515001D02*
X23550000Y29664999D01*
G75*
G02*
X23300001Y29415000I-249999J0D01*
G01*
X22399999Y29415000D01*
G75*
G02*
X22150000Y29664999I0J249999D01*
G01*
X22150000Y30515001D01*
G75*
G02*
X22399999Y30765000I249999J0D01*
G01*
X23300001Y30765000D01*
G75*
G02*
X23550000Y30515001I0J-249999D01*
G01*
G37*
G04 #@! TD.AperFunction*
G04 #@! TA.AperFunction,SMDPad,CuDef*
G36*
G01*
X21150000Y21064999D02*
X21150000Y21915001D01*
G75*
G02*
X21399999Y22165000I249999J0D01*
G01*
X22300001Y22165000D01*
G75*
G02*
X22550000Y21915001I0J-249999D01*
G01*
X22550000Y21064999D01*
G75*
G02*
X22300001Y20815000I-249999J0D01*
G01*
X21399999Y20815000D01*
G75*
G02*
X21150000Y21064999I0J249999D01*
G01*
G37*
G04 #@! TD.AperFunction*
G04 #@! TA.AperFunction,SMDPad,CuDef*
G36*
G01*
X18450000Y21064999D02*
X18450000Y21915001D01*
G75*
G02*
X18699999Y22165000I249999J0D01*
G01*
X19600001Y22165000D01*
G75*
G02*
X19850000Y21915001I0J-249999D01*
G01*
X19850000Y21064999D01*
G75*
G02*
X19600001Y20815000I-249999J0D01*
G01*
X18699999Y20815000D01*
G75*
G02*
X18450000Y21064999I0J249999D01*
G01*
G37*
G04 #@! TD.AperFunction*
G04 #@! TA.AperFunction,SMDPad,CuDef*
G36*
G01*
X37150000Y36364999D02*
X37150000Y37215001D01*
G75*
G02*
X37399999Y37465000I249999J0D01*
G01*
X38300001Y37465000D01*
G75*
G02*
X38550000Y37215001I0J-249999D01*
G01*
X38550000Y36364999D01*
G75*
G02*
X38300001Y36115000I-249999J0D01*
G01*
X37399999Y36115000D01*
G75*
G02*
X37150000Y36364999I0J249999D01*
G01*
G37*
G04 #@! TD.AperFunction*
G04 #@! TA.AperFunction,SMDPad,CuDef*
G36*
G01*
X34450000Y36364999D02*
X34450000Y37215001D01*
G75*
G02*
X34699999Y37465000I249999J0D01*
G01*
X35600001Y37465000D01*
G75*
G02*
X35850000Y37215001I0J-249999D01*
G01*
X35850000Y36364999D01*
G75*
G02*
X35600001Y36115000I-249999J0D01*
G01*
X34699999Y36115000D01*
G75*
G02*
X34450000Y36364999I0J249999D01*
G01*
G37*
G04 #@! TD.AperFunction*
G04 #@! TA.AperFunction,SMDPad,CuDef*
G36*
G01*
X54025001Y43040000D02*
X53174999Y43040000D01*
G75*
G02*
X52925000Y43289999I0J249999D01*
G01*
X52925000Y44190001D01*
G75*
G02*
X53174999Y44440000I249999J0D01*
G01*
X54025001Y44440000D01*
G75*
G02*
X54275000Y44190001I0J-249999D01*
G01*
X54275000Y43289999D01*
G75*
G02*
X54025001Y43040000I-249999J0D01*
G01*
G37*
G04 #@! TD.AperFunction*
G04 #@! TA.AperFunction,SMDPad,CuDef*
G36*
G01*
X54025001Y40340000D02*
X53174999Y40340000D01*
G75*
G02*
X52925000Y40589999I0J249999D01*
G01*
X52925000Y41490001D01*
G75*
G02*
X53174999Y41740000I249999J0D01*
G01*
X54025001Y41740000D01*
G75*
G02*
X54275000Y41490001I0J-249999D01*
G01*
X54275000Y40589999D01*
G75*
G02*
X54025001Y40340000I-249999J0D01*
G01*
G37*
G04 #@! TD.AperFunction*
G04 #@! TA.AperFunction,SMDPad,CuDef*
G36*
G01*
X53074999Y8140000D02*
X53925001Y8140000D01*
G75*
G02*
X54175000Y7890001I0J-249999D01*
G01*
X54175000Y6989999D01*
G75*
G02*
X53925001Y6740000I-249999J0D01*
G01*
X53074999Y6740000D01*
G75*
G02*
X52825000Y6989999I0J249999D01*
G01*
X52825000Y7890001D01*
G75*
G02*
X53074999Y8140000I249999J0D01*
G01*
G37*
G04 #@! TD.AperFunction*
G04 #@! TA.AperFunction,SMDPad,CuDef*
G36*
G01*
X53074999Y10840000D02*
X53925001Y10840000D01*
G75*
G02*
X54175000Y10590001I0J-249999D01*
G01*
X54175000Y9689999D01*
G75*
G02*
X53925001Y9440000I-249999J0D01*
G01*
X53074999Y9440000D01*
G75*
G02*
X52825000Y9689999I0J249999D01*
G01*
X52825000Y10590001D01*
G75*
G02*
X53074999Y10840000I249999J0D01*
G01*
G37*
G04 #@! TD.AperFunction*
G04 #@! TA.AperFunction,SMDPad,CuDef*
G36*
G01*
X36450000Y25964999D02*
X36450000Y26815001D01*
G75*
G02*
X36699999Y27065000I249999J0D01*
G01*
X37600001Y27065000D01*
G75*
G02*
X37850000Y26815001I0J-249999D01*
G01*
X37850000Y25964999D01*
G75*
G02*
X37600001Y25715000I-249999J0D01*
G01*
X36699999Y25715000D01*
G75*
G02*
X36450000Y25964999I0J249999D01*
G01*
G37*
G04 #@! TD.AperFunction*
G04 #@! TA.AperFunction,SMDPad,CuDef*
G36*
G01*
X33750000Y25964999D02*
X33750000Y26815001D01*
G75*
G02*
X33999999Y27065000I249999J0D01*
G01*
X34900001Y27065000D01*
G75*
G02*
X35150000Y26815001I0J-249999D01*
G01*
X35150000Y25964999D01*
G75*
G02*
X34900001Y25715000I-249999J0D01*
G01*
X33999999Y25715000D01*
G75*
G02*
X33750000Y25964999I0J249999D01*
G01*
G37*
G04 #@! TD.AperFunction*
G04 #@! TA.AperFunction,SMDPad,CuDef*
G36*
G01*
X24574999Y19240000D02*
X25425001Y19240000D01*
G75*
G02*
X25675000Y18990001I0J-249999D01*
G01*
X25675000Y18089999D01*
G75*
G02*
X25425001Y17840000I-249999J0D01*
G01*
X24574999Y17840000D01*
G75*
G02*
X24325000Y18089999I0J249999D01*
G01*
X24325000Y18990001D01*
G75*
G02*
X24574999Y19240000I249999J0D01*
G01*
G37*
G04 #@! TD.AperFunction*
G04 #@! TA.AperFunction,SMDPad,CuDef*
G36*
G01*
X24574999Y21940000D02*
X25425001Y21940000D01*
G75*
G02*
X25675000Y21690001I0J-249999D01*
G01*
X25675000Y20789999D01*
G75*
G02*
X25425001Y20540000I-249999J0D01*
G01*
X24574999Y20540000D01*
G75*
G02*
X24325000Y20789999I0J249999D01*
G01*
X24325000Y21690001D01*
G75*
G02*
X24574999Y21940000I249999J0D01*
G01*
G37*
G04 #@! TD.AperFunction*
G04 #@! TA.AperFunction,SMDPad,CuDef*
G36*
G01*
X35150000Y29764999D02*
X35150000Y30615001D01*
G75*
G02*
X35399999Y30865000I249999J0D01*
G01*
X36300001Y30865000D01*
G75*
G02*
X36550000Y30615001I0J-249999D01*
G01*
X36550000Y29764999D01*
G75*
G02*
X36300001Y29515000I-249999J0D01*
G01*
X35399999Y29515000D01*
G75*
G02*
X35150000Y29764999I0J249999D01*
G01*
G37*
G04 #@! TD.AperFunction*
G04 #@! TA.AperFunction,SMDPad,CuDef*
G36*
G01*
X32450000Y29764999D02*
X32450000Y30615001D01*
G75*
G02*
X32699999Y30865000I249999J0D01*
G01*
X33600001Y30865000D01*
G75*
G02*
X33850000Y30615001I0J-249999D01*
G01*
X33850000Y29764999D01*
G75*
G02*
X33600001Y29515000I-249999J0D01*
G01*
X32699999Y29515000D01*
G75*
G02*
X32450000Y29764999I0J249999D01*
G01*
G37*
G04 #@! TD.AperFunction*
G04 #@! TA.AperFunction,SMDPad,CuDef*
G36*
G01*
X5974999Y41940000D02*
X6825001Y41940000D01*
G75*
G02*
X7075000Y41690001I0J-249999D01*
G01*
X7075000Y40789999D01*
G75*
G02*
X6825001Y40540000I-249999J0D01*
G01*
X5974999Y40540000D01*
G75*
G02*
X5725000Y40789999I0J249999D01*
G01*
X5725000Y41690001D01*
G75*
G02*
X5974999Y41940000I249999J0D01*
G01*
G37*
G04 #@! TD.AperFunction*
G04 #@! TA.AperFunction,SMDPad,CuDef*
G36*
G01*
X5974999Y44640000D02*
X6825001Y44640000D01*
G75*
G02*
X7075000Y44390001I0J-249999D01*
G01*
X7075000Y43489999D01*
G75*
G02*
X6825001Y43240000I-249999J0D01*
G01*
X5974999Y43240000D01*
G75*
G02*
X5725000Y43489999I0J249999D01*
G01*
X5725000Y44390001D01*
G75*
G02*
X5974999Y44640000I249999J0D01*
G01*
G37*
G04 #@! TD.AperFunction*
G04 #@! TA.AperFunction,SMDPad,CuDef*
G36*
G01*
X7015001Y8750000D02*
X6164999Y8750000D01*
G75*
G02*
X5915000Y8999999I0J249999D01*
G01*
X5915000Y9900001D01*
G75*
G02*
X6164999Y10150000I249999J0D01*
G01*
X7015001Y10150000D01*
G75*
G02*
X7265000Y9900001I0J-249999D01*
G01*
X7265000Y8999999D01*
G75*
G02*
X7015001Y8750000I-249999J0D01*
G01*
G37*
G04 #@! TD.AperFunction*
G04 #@! TA.AperFunction,SMDPad,CuDef*
G36*
G01*
X7015001Y6050000D02*
X6164999Y6050000D01*
G75*
G02*
X5915000Y6299999I0J249999D01*
G01*
X5915000Y7200001D01*
G75*
G02*
X6164999Y7450000I249999J0D01*
G01*
X7015001Y7450000D01*
G75*
G02*
X7265000Y7200001I0J-249999D01*
G01*
X7265000Y6299999D01*
G75*
G02*
X7015001Y6050000I-249999J0D01*
G01*
G37*
G04 #@! TD.AperFunction*
D20*
X51850000Y29340000D03*
X40420000Y29800000D03*
X51650000Y24290000D03*
X52990000Y26740000D03*
X6390000Y30900000D03*
D21*
X31920000Y48000000D03*
X45060000Y48000000D03*
D22*
X42490000Y44500000D03*
X40490000Y44500000D03*
X38490000Y44500000D03*
X36490000Y44500000D03*
X34490000Y44500000D03*
X34990000Y46000000D03*
X37490000Y46000000D03*
X39490000Y46000000D03*
X41990000Y46000000D03*
D20*
X11500000Y43890000D03*
X12500000Y48890000D03*
G04 #@! TA.AperFunction,SMDPad,CuDef*
G36*
G01*
X37510000Y15417500D02*
X37510000Y15762500D01*
G75*
G02*
X37657500Y15910000I147500J0D01*
G01*
X37952500Y15910000D01*
G75*
G02*
X38100000Y15762500I0J-147500D01*
G01*
X38100000Y15417500D01*
G75*
G02*
X37952500Y15270000I-147500J0D01*
G01*
X37657500Y15270000D01*
G75*
G02*
X37510000Y15417500I0J147500D01*
G01*
G37*
G04 #@! TD.AperFunction*
G04 #@! TA.AperFunction,SMDPad,CuDef*
G36*
G01*
X36540000Y15417500D02*
X36540000Y15762500D01*
G75*
G02*
X36687500Y15910000I147500J0D01*
G01*
X36982500Y15910000D01*
G75*
G02*
X37130000Y15762500I0J-147500D01*
G01*
X37130000Y15417500D01*
G75*
G02*
X36982500Y15270000I-147500J0D01*
G01*
X36687500Y15270000D01*
G75*
G02*
X36540000Y15417500I0J147500D01*
G01*
G37*
G04 #@! TD.AperFunction*
D23*
X50490000Y3890000D03*
X50490000Y46890000D03*
X9490000Y3890000D03*
X9490000Y46890000D03*
G04 #@! TA.AperFunction,SMDPad,CuDef*
G36*
G01*
X48990000Y7217500D02*
X48990000Y7562500D01*
G75*
G02*
X49137500Y7710000I147500J0D01*
G01*
X49432500Y7710000D01*
G75*
G02*
X49580000Y7562500I0J-147500D01*
G01*
X49580000Y7217500D01*
G75*
G02*
X49432500Y7070000I-147500J0D01*
G01*
X49137500Y7070000D01*
G75*
G02*
X48990000Y7217500I0J147500D01*
G01*
G37*
G04 #@! TD.AperFunction*
G04 #@! TA.AperFunction,SMDPad,CuDef*
G36*
G01*
X48020000Y7217500D02*
X48020000Y7562500D01*
G75*
G02*
X48167500Y7710000I147500J0D01*
G01*
X48462500Y7710000D01*
G75*
G02*
X48610000Y7562500I0J-147500D01*
G01*
X48610000Y7217500D01*
G75*
G02*
X48462500Y7070000I-147500J0D01*
G01*
X48167500Y7070000D01*
G75*
G02*
X48020000Y7217500I0J147500D01*
G01*
G37*
G04 #@! TD.AperFunction*
G04 #@! TA.AperFunction,SMDPad,CuDef*
G36*
G01*
X36372500Y20180000D02*
X36027500Y20180000D01*
G75*
G02*
X35880000Y20327500I0J147500D01*
G01*
X35880000Y20622500D01*
G75*
G02*
X36027500Y20770000I147500J0D01*
G01*
X36372500Y20770000D01*
G75*
G02*
X36520000Y20622500I0J-147500D01*
G01*
X36520000Y20327500D01*
G75*
G02*
X36372500Y20180000I-147500J0D01*
G01*
G37*
G04 #@! TD.AperFunction*
G04 #@! TA.AperFunction,SMDPad,CuDef*
G36*
G01*
X36372500Y19210000D02*
X36027500Y19210000D01*
G75*
G02*
X35880000Y19357500I0J147500D01*
G01*
X35880000Y19652500D01*
G75*
G02*
X36027500Y19800000I147500J0D01*
G01*
X36372500Y19800000D01*
G75*
G02*
X36520000Y19652500I0J-147500D01*
G01*
X36520000Y19357500D01*
G75*
G02*
X36372500Y19210000I-147500J0D01*
G01*
G37*
G04 #@! TD.AperFunction*
G04 #@! TA.AperFunction,SMDPad,CuDef*
G36*
G01*
X28300000Y15002500D02*
X28300000Y14657500D01*
G75*
G02*
X28152500Y14510000I-147500J0D01*
G01*
X27857500Y14510000D01*
G75*
G02*
X27710000Y14657500I0J147500D01*
G01*
X27710000Y15002500D01*
G75*
G02*
X27857500Y15150000I147500J0D01*
G01*
X28152500Y15150000D01*
G75*
G02*
X28300000Y15002500I0J-147500D01*
G01*
G37*
G04 #@! TD.AperFunction*
G04 #@! TA.AperFunction,SMDPad,CuDef*
G36*
G01*
X29270000Y15002500D02*
X29270000Y14657500D01*
G75*
G02*
X29122500Y14510000I-147500J0D01*
G01*
X28827500Y14510000D01*
G75*
G02*
X28680000Y14657500I0J147500D01*
G01*
X28680000Y15002500D01*
G75*
G02*
X28827500Y15150000I147500J0D01*
G01*
X29122500Y15150000D01*
G75*
G02*
X29270000Y15002500I0J-147500D01*
G01*
G37*
G04 #@! TD.AperFunction*
G04 #@! TA.AperFunction,SMDPad,CuDef*
G36*
G01*
X28760000Y13992500D02*
X28760000Y13647500D01*
G75*
G02*
X28612500Y13500000I-147500J0D01*
G01*
X28317500Y13500000D01*
G75*
G02*
X28170000Y13647500I0J147500D01*
G01*
X28170000Y13992500D01*
G75*
G02*
X28317500Y14140000I147500J0D01*
G01*
X28612500Y14140000D01*
G75*
G02*
X28760000Y13992500I0J-147500D01*
G01*
G37*
G04 #@! TD.AperFunction*
G04 #@! TA.AperFunction,SMDPad,CuDef*
G36*
G01*
X29730000Y13992500D02*
X29730000Y13647500D01*
G75*
G02*
X29582500Y13500000I-147500J0D01*
G01*
X29287500Y13500000D01*
G75*
G02*
X29140000Y13647500I0J147500D01*
G01*
X29140000Y13992500D01*
G75*
G02*
X29287500Y14140000I147500J0D01*
G01*
X29582500Y14140000D01*
G75*
G02*
X29730000Y13992500I0J-147500D01*
G01*
G37*
G04 #@! TD.AperFunction*
G04 #@! TA.AperFunction,SMDPad,CuDef*
G36*
G01*
X30990000Y13922500D02*
X30990000Y13577500D01*
G75*
G02*
X30842500Y13430000I-147500J0D01*
G01*
X30547500Y13430000D01*
G75*
G02*
X30400000Y13577500I0J147500D01*
G01*
X30400000Y13922500D01*
G75*
G02*
X30547500Y14070000I147500J0D01*
G01*
X30842500Y14070000D01*
G75*
G02*
X30990000Y13922500I0J-147500D01*
G01*
G37*
G04 #@! TD.AperFunction*
G04 #@! TA.AperFunction,SMDPad,CuDef*
G36*
G01*
X31960000Y13922500D02*
X31960000Y13577500D01*
G75*
G02*
X31812500Y13430000I-147500J0D01*
G01*
X31517500Y13430000D01*
G75*
G02*
X31370000Y13577500I0J147500D01*
G01*
X31370000Y13922500D01*
G75*
G02*
X31517500Y14070000I147500J0D01*
G01*
X31812500Y14070000D01*
G75*
G02*
X31960000Y13922500I0J-147500D01*
G01*
G37*
G04 #@! TD.AperFunction*
G04 #@! TA.AperFunction,SMDPad,CuDef*
G36*
G01*
X38190000Y23317500D02*
X38190000Y23662500D01*
G75*
G02*
X38337500Y23810000I147500J0D01*
G01*
X38632500Y23810000D01*
G75*
G02*
X38780000Y23662500I0J-147500D01*
G01*
X38780000Y23317500D01*
G75*
G02*
X38632500Y23170000I-147500J0D01*
G01*
X38337500Y23170000D01*
G75*
G02*
X38190000Y23317500I0J147500D01*
G01*
G37*
G04 #@! TD.AperFunction*
G04 #@! TA.AperFunction,SMDPad,CuDef*
G36*
G01*
X37220000Y23317500D02*
X37220000Y23662500D01*
G75*
G02*
X37367500Y23810000I147500J0D01*
G01*
X37662500Y23810000D01*
G75*
G02*
X37810000Y23662500I0J-147500D01*
G01*
X37810000Y23317500D01*
G75*
G02*
X37662500Y23170000I-147500J0D01*
G01*
X37367500Y23170000D01*
G75*
G02*
X37220000Y23317500I0J147500D01*
G01*
G37*
G04 #@! TD.AperFunction*
G04 #@! TA.AperFunction,SMDPad,CuDef*
G36*
G01*
X18340000Y35167500D02*
X18340000Y35512500D01*
G75*
G02*
X18487500Y35660000I147500J0D01*
G01*
X18782500Y35660000D01*
G75*
G02*
X18930000Y35512500I0J-147500D01*
G01*
X18930000Y35167500D01*
G75*
G02*
X18782500Y35020000I-147500J0D01*
G01*
X18487500Y35020000D01*
G75*
G02*
X18340000Y35167500I0J147500D01*
G01*
G37*
G04 #@! TD.AperFunction*
G04 #@! TA.AperFunction,SMDPad,CuDef*
G36*
G01*
X17370000Y35167500D02*
X17370000Y35512500D01*
G75*
G02*
X17517500Y35660000I147500J0D01*
G01*
X17812500Y35660000D01*
G75*
G02*
X17960000Y35512500I0J-147500D01*
G01*
X17960000Y35167500D01*
G75*
G02*
X17812500Y35020000I-147500J0D01*
G01*
X17517500Y35020000D01*
G75*
G02*
X17370000Y35167500I0J147500D01*
G01*
G37*
G04 #@! TD.AperFunction*
G04 #@! TA.AperFunction,SMDPad,CuDef*
G36*
G01*
X46527500Y43700000D02*
X46872500Y43700000D01*
G75*
G02*
X47020000Y43552500I0J-147500D01*
G01*
X47020000Y43257500D01*
G75*
G02*
X46872500Y43110000I-147500J0D01*
G01*
X46527500Y43110000D01*
G75*
G02*
X46380000Y43257500I0J147500D01*
G01*
X46380000Y43552500D01*
G75*
G02*
X46527500Y43700000I147500J0D01*
G01*
G37*
G04 #@! TD.AperFunction*
G04 #@! TA.AperFunction,SMDPad,CuDef*
G36*
G01*
X46527500Y44670000D02*
X46872500Y44670000D01*
G75*
G02*
X47020000Y44522500I0J-147500D01*
G01*
X47020000Y44227500D01*
G75*
G02*
X46872500Y44080000I-147500J0D01*
G01*
X46527500Y44080000D01*
G75*
G02*
X46380000Y44227500I0J147500D01*
G01*
X46380000Y44522500D01*
G75*
G02*
X46527500Y44670000I147500J0D01*
G01*
G37*
G04 #@! TD.AperFunction*
G04 #@! TA.AperFunction,SMDPad,CuDef*
G36*
G01*
X13227500Y43800000D02*
X13572500Y43800000D01*
G75*
G02*
X13720000Y43652500I0J-147500D01*
G01*
X13720000Y43357500D01*
G75*
G02*
X13572500Y43210000I-147500J0D01*
G01*
X13227500Y43210000D01*
G75*
G02*
X13080000Y43357500I0J147500D01*
G01*
X13080000Y43652500D01*
G75*
G02*
X13227500Y43800000I147500J0D01*
G01*
G37*
G04 #@! TD.AperFunction*
G04 #@! TA.AperFunction,SMDPad,CuDef*
G36*
G01*
X13227500Y44770000D02*
X13572500Y44770000D01*
G75*
G02*
X13720000Y44622500I0J-147500D01*
G01*
X13720000Y44327500D01*
G75*
G02*
X13572500Y44180000I-147500J0D01*
G01*
X13227500Y44180000D01*
G75*
G02*
X13080000Y44327500I0J147500D01*
G01*
X13080000Y44622500D01*
G75*
G02*
X13227500Y44770000I147500J0D01*
G01*
G37*
G04 #@! TD.AperFunction*
G04 #@! TA.AperFunction,SMDPad,CuDef*
G36*
G01*
X11627500Y41400000D02*
X11972500Y41400000D01*
G75*
G02*
X12120000Y41252500I0J-147500D01*
G01*
X12120000Y40957500D01*
G75*
G02*
X11972500Y40810000I-147500J0D01*
G01*
X11627500Y40810000D01*
G75*
G02*
X11480000Y40957500I0J147500D01*
G01*
X11480000Y41252500D01*
G75*
G02*
X11627500Y41400000I147500J0D01*
G01*
G37*
G04 #@! TD.AperFunction*
G04 #@! TA.AperFunction,SMDPad,CuDef*
G36*
G01*
X11627500Y42370000D02*
X11972500Y42370000D01*
G75*
G02*
X12120000Y42222500I0J-147500D01*
G01*
X12120000Y41927500D01*
G75*
G02*
X11972500Y41780000I-147500J0D01*
G01*
X11627500Y41780000D01*
G75*
G02*
X11480000Y41927500I0J147500D01*
G01*
X11480000Y42222500D01*
G75*
G02*
X11627500Y42370000I147500J0D01*
G01*
G37*
G04 #@! TD.AperFunction*
G04 #@! TA.AperFunction,SMDPad,CuDef*
G36*
G01*
X10627500Y41400000D02*
X10972500Y41400000D01*
G75*
G02*
X11120000Y41252500I0J-147500D01*
G01*
X11120000Y40957500D01*
G75*
G02*
X10972500Y40810000I-147500J0D01*
G01*
X10627500Y40810000D01*
G75*
G02*
X10480000Y40957500I0J147500D01*
G01*
X10480000Y41252500D01*
G75*
G02*
X10627500Y41400000I147500J0D01*
G01*
G37*
G04 #@! TD.AperFunction*
G04 #@! TA.AperFunction,SMDPad,CuDef*
G36*
G01*
X10627500Y42370000D02*
X10972500Y42370000D01*
G75*
G02*
X11120000Y42222500I0J-147500D01*
G01*
X11120000Y41927500D01*
G75*
G02*
X10972500Y41780000I-147500J0D01*
G01*
X10627500Y41780000D01*
G75*
G02*
X10480000Y41927500I0J147500D01*
G01*
X10480000Y42222500D01*
G75*
G02*
X10627500Y42370000I147500J0D01*
G01*
G37*
G04 #@! TD.AperFunction*
G04 #@! TA.AperFunction,SMDPad,CuDef*
G36*
G01*
X42210000Y20062500D02*
X42210000Y19717500D01*
G75*
G02*
X42062500Y19570000I-147500J0D01*
G01*
X41767500Y19570000D01*
G75*
G02*
X41620000Y19717500I0J147500D01*
G01*
X41620000Y20062500D01*
G75*
G02*
X41767500Y20210000I147500J0D01*
G01*
X42062500Y20210000D01*
G75*
G02*
X42210000Y20062500I0J-147500D01*
G01*
G37*
G04 #@! TD.AperFunction*
G04 #@! TA.AperFunction,SMDPad,CuDef*
G36*
G01*
X43180000Y20062500D02*
X43180000Y19717500D01*
G75*
G02*
X43032500Y19570000I-147500J0D01*
G01*
X42737500Y19570000D01*
G75*
G02*
X42590000Y19717500I0J147500D01*
G01*
X42590000Y20062500D01*
G75*
G02*
X42737500Y20210000I147500J0D01*
G01*
X43032500Y20210000D01*
G75*
G02*
X43180000Y20062500I0J-147500D01*
G01*
G37*
G04 #@! TD.AperFunction*
G04 #@! TA.AperFunction,SMDPad,CuDef*
G36*
G01*
X43207500Y29090000D02*
X43552500Y29090000D01*
G75*
G02*
X43700000Y28942500I0J-147500D01*
G01*
X43700000Y28647500D01*
G75*
G02*
X43552500Y28500000I-147500J0D01*
G01*
X43207500Y28500000D01*
G75*
G02*
X43060000Y28647500I0J147500D01*
G01*
X43060000Y28942500D01*
G75*
G02*
X43207500Y29090000I147500J0D01*
G01*
G37*
G04 #@! TD.AperFunction*
G04 #@! TA.AperFunction,SMDPad,CuDef*
G36*
G01*
X43207500Y30060000D02*
X43552500Y30060000D01*
G75*
G02*
X43700000Y29912500I0J-147500D01*
G01*
X43700000Y29617500D01*
G75*
G02*
X43552500Y29470000I-147500J0D01*
G01*
X43207500Y29470000D01*
G75*
G02*
X43060000Y29617500I0J147500D01*
G01*
X43060000Y29912500D01*
G75*
G02*
X43207500Y30060000I147500J0D01*
G01*
G37*
G04 #@! TD.AperFunction*
G04 #@! TA.AperFunction,SMDPad,CuDef*
G36*
G01*
X48837500Y29090000D02*
X49182500Y29090000D01*
G75*
G02*
X49330000Y28942500I0J-147500D01*
G01*
X49330000Y28647500D01*
G75*
G02*
X49182500Y28500000I-147500J0D01*
G01*
X48837500Y28500000D01*
G75*
G02*
X48690000Y28647500I0J147500D01*
G01*
X48690000Y28942500D01*
G75*
G02*
X48837500Y29090000I147500J0D01*
G01*
G37*
G04 #@! TD.AperFunction*
G04 #@! TA.AperFunction,SMDPad,CuDef*
G36*
G01*
X48837500Y30060000D02*
X49182500Y30060000D01*
G75*
G02*
X49330000Y29912500I0J-147500D01*
G01*
X49330000Y29617500D01*
G75*
G02*
X49182500Y29470000I-147500J0D01*
G01*
X48837500Y29470000D01*
G75*
G02*
X48690000Y29617500I0J147500D01*
G01*
X48690000Y29912500D01*
G75*
G02*
X48837500Y30060000I147500J0D01*
G01*
G37*
G04 #@! TD.AperFunction*
G04 #@! TA.AperFunction,SMDPad,CuDef*
G36*
G01*
X44367500Y29090000D02*
X44712500Y29090000D01*
G75*
G02*
X44860000Y28942500I0J-147500D01*
G01*
X44860000Y28647500D01*
G75*
G02*
X44712500Y28500000I-147500J0D01*
G01*
X44367500Y28500000D01*
G75*
G02*
X44220000Y28647500I0J147500D01*
G01*
X44220000Y28942500D01*
G75*
G02*
X44367500Y29090000I147500J0D01*
G01*
G37*
G04 #@! TD.AperFunction*
G04 #@! TA.AperFunction,SMDPad,CuDef*
G36*
G01*
X44367500Y30060000D02*
X44712500Y30060000D01*
G75*
G02*
X44860000Y29912500I0J-147500D01*
G01*
X44860000Y29617500D01*
G75*
G02*
X44712500Y29470000I-147500J0D01*
G01*
X44367500Y29470000D01*
G75*
G02*
X44220000Y29617500I0J147500D01*
G01*
X44220000Y29912500D01*
G75*
G02*
X44367500Y30060000I147500J0D01*
G01*
G37*
G04 #@! TD.AperFunction*
G04 #@! TA.AperFunction,SMDPad,CuDef*
G36*
G01*
X37897500Y11460000D02*
X38242500Y11460000D01*
G75*
G02*
X38390000Y11312500I0J-147500D01*
G01*
X38390000Y11017500D01*
G75*
G02*
X38242500Y10870000I-147500J0D01*
G01*
X37897500Y10870000D01*
G75*
G02*
X37750000Y11017500I0J147500D01*
G01*
X37750000Y11312500D01*
G75*
G02*
X37897500Y11460000I147500J0D01*
G01*
G37*
G04 #@! TD.AperFunction*
G04 #@! TA.AperFunction,SMDPad,CuDef*
G36*
G01*
X37897500Y12430000D02*
X38242500Y12430000D01*
G75*
G02*
X38390000Y12282500I0J-147500D01*
G01*
X38390000Y11987500D01*
G75*
G02*
X38242500Y11840000I-147500J0D01*
G01*
X37897500Y11840000D01*
G75*
G02*
X37750000Y11987500I0J147500D01*
G01*
X37750000Y12282500D01*
G75*
G02*
X37897500Y12430000I147500J0D01*
G01*
G37*
G04 #@! TD.AperFunction*
G04 #@! TA.AperFunction,SMDPad,CuDef*
G36*
G01*
X30627500Y19700000D02*
X30972500Y19700000D01*
G75*
G02*
X31120000Y19552500I0J-147500D01*
G01*
X31120000Y19257500D01*
G75*
G02*
X30972500Y19110000I-147500J0D01*
G01*
X30627500Y19110000D01*
G75*
G02*
X30480000Y19257500I0J147500D01*
G01*
X30480000Y19552500D01*
G75*
G02*
X30627500Y19700000I147500J0D01*
G01*
G37*
G04 #@! TD.AperFunction*
G04 #@! TA.AperFunction,SMDPad,CuDef*
G36*
G01*
X30627500Y20670000D02*
X30972500Y20670000D01*
G75*
G02*
X31120000Y20522500I0J-147500D01*
G01*
X31120000Y20227500D01*
G75*
G02*
X30972500Y20080000I-147500J0D01*
G01*
X30627500Y20080000D01*
G75*
G02*
X30480000Y20227500I0J147500D01*
G01*
X30480000Y20522500D01*
G75*
G02*
X30627500Y20670000I147500J0D01*
G01*
G37*
G04 #@! TD.AperFunction*
G04 #@! TA.AperFunction,SMDPad,CuDef*
G36*
G01*
X32162500Y6160000D02*
X31817500Y6160000D01*
G75*
G02*
X31670000Y6307500I0J147500D01*
G01*
X31670000Y6602500D01*
G75*
G02*
X31817500Y6750000I147500J0D01*
G01*
X32162500Y6750000D01*
G75*
G02*
X32310000Y6602500I0J-147500D01*
G01*
X32310000Y6307500D01*
G75*
G02*
X32162500Y6160000I-147500J0D01*
G01*
G37*
G04 #@! TD.AperFunction*
G04 #@! TA.AperFunction,SMDPad,CuDef*
G36*
G01*
X32162500Y5190000D02*
X31817500Y5190000D01*
G75*
G02*
X31670000Y5337500I0J147500D01*
G01*
X31670000Y5632500D01*
G75*
G02*
X31817500Y5780000I147500J0D01*
G01*
X32162500Y5780000D01*
G75*
G02*
X32310000Y5632500I0J-147500D01*
G01*
X32310000Y5337500D01*
G75*
G02*
X32162500Y5190000I-147500J0D01*
G01*
G37*
G04 #@! TD.AperFunction*
G04 #@! TA.AperFunction,SMDPad,CuDef*
G36*
G01*
X22690000Y19467500D02*
X22690000Y19812500D01*
G75*
G02*
X22837500Y19960000I147500J0D01*
G01*
X23132500Y19960000D01*
G75*
G02*
X23280000Y19812500I0J-147500D01*
G01*
X23280000Y19467500D01*
G75*
G02*
X23132500Y19320000I-147500J0D01*
G01*
X22837500Y19320000D01*
G75*
G02*
X22690000Y19467500I0J147500D01*
G01*
G37*
G04 #@! TD.AperFunction*
G04 #@! TA.AperFunction,SMDPad,CuDef*
G36*
G01*
X21720000Y19467500D02*
X21720000Y19812500D01*
G75*
G02*
X21867500Y19960000I147500J0D01*
G01*
X22162500Y19960000D01*
G75*
G02*
X22310000Y19812500I0J-147500D01*
G01*
X22310000Y19467500D01*
G75*
G02*
X22162500Y19320000I-147500J0D01*
G01*
X21867500Y19320000D01*
G75*
G02*
X21720000Y19467500I0J147500D01*
G01*
G37*
G04 #@! TD.AperFunction*
D24*
X22000000Y4440000D03*
X26000000Y4440000D03*
D25*
X20400000Y2290000D03*
X27600000Y2290000D03*
X27600000Y5760000D03*
X20400000Y5760000D03*
G04 #@! TA.AperFunction,SMDPad,CuDef*
G36*
G01*
X32556326Y40702375D02*
X32312375Y40946327D01*
G75*
G02*
X32312375Y41154923I104298J104298D01*
G01*
X32520971Y41363519D01*
G75*
G02*
X32729567Y41363519I104298J-104298D01*
G01*
X32973519Y41119567D01*
G75*
G02*
X32973519Y40910971I-104298J-104298D01*
G01*
X32764923Y40702375D01*
G75*
G02*
X32556327Y40702375I-104298J104298D01*
G01*
G37*
G04 #@! TD.AperFunction*
G04 #@! TA.AperFunction,SMDPad,CuDef*
G36*
G01*
X31870432Y40016481D02*
X31626481Y40260433D01*
G75*
G02*
X31626481Y40469029I104298J104298D01*
G01*
X31835077Y40677625D01*
G75*
G02*
X32043673Y40677625I104298J-104298D01*
G01*
X32287625Y40433673D01*
G75*
G02*
X32287625Y40225077I-104298J-104298D01*
G01*
X32079029Y40016481D01*
G75*
G02*
X31870433Y40016481I-104298J104298D01*
G01*
G37*
G04 #@! TD.AperFunction*
G04 #@! TA.AperFunction,SMDPad,CuDef*
G36*
G01*
X33256326Y40002375D02*
X33012375Y40246327D01*
G75*
G02*
X33012375Y40454923I104298J104298D01*
G01*
X33220971Y40663519D01*
G75*
G02*
X33429567Y40663519I104298J-104298D01*
G01*
X33673519Y40419567D01*
G75*
G02*
X33673519Y40210971I-104298J-104298D01*
G01*
X33464923Y40002375D01*
G75*
G02*
X33256327Y40002375I-104298J104298D01*
G01*
G37*
G04 #@! TD.AperFunction*
G04 #@! TA.AperFunction,SMDPad,CuDef*
G36*
G01*
X32570432Y39316481D02*
X32326481Y39560433D01*
G75*
G02*
X32326481Y39769029I104298J104298D01*
G01*
X32535077Y39977625D01*
G75*
G02*
X32743673Y39977625I104298J-104298D01*
G01*
X32987625Y39733673D01*
G75*
G02*
X32987625Y39525077I-104298J-104298D01*
G01*
X32779029Y39316481D01*
G75*
G02*
X32570433Y39316481I-104298J104298D01*
G01*
G37*
G04 #@! TD.AperFunction*
G04 #@! TA.AperFunction,SMDPad,CuDef*
G36*
G01*
X30872500Y35080000D02*
X30527500Y35080000D01*
G75*
G02*
X30380000Y35227500I0J147500D01*
G01*
X30380000Y35522500D01*
G75*
G02*
X30527500Y35670000I147500J0D01*
G01*
X30872500Y35670000D01*
G75*
G02*
X31020000Y35522500I0J-147500D01*
G01*
X31020000Y35227500D01*
G75*
G02*
X30872500Y35080000I-147500J0D01*
G01*
G37*
G04 #@! TD.AperFunction*
G04 #@! TA.AperFunction,SMDPad,CuDef*
G36*
G01*
X30872500Y34110000D02*
X30527500Y34110000D01*
G75*
G02*
X30380000Y34257500I0J147500D01*
G01*
X30380000Y34552500D01*
G75*
G02*
X30527500Y34700000I147500J0D01*
G01*
X30872500Y34700000D01*
G75*
G02*
X31020000Y34552500I0J-147500D01*
G01*
X31020000Y34257500D01*
G75*
G02*
X30872500Y34110000I-147500J0D01*
G01*
G37*
G04 #@! TD.AperFunction*
G04 #@! TA.AperFunction,SMDPad,CuDef*
G36*
G01*
X31690000Y28417500D02*
X31690000Y28762500D01*
G75*
G02*
X31837500Y28910000I147500J0D01*
G01*
X32132500Y28910000D01*
G75*
G02*
X32280000Y28762500I0J-147500D01*
G01*
X32280000Y28417500D01*
G75*
G02*
X32132500Y28270000I-147500J0D01*
G01*
X31837500Y28270000D01*
G75*
G02*
X31690000Y28417500I0J147500D01*
G01*
G37*
G04 #@! TD.AperFunction*
G04 #@! TA.AperFunction,SMDPad,CuDef*
G36*
G01*
X30720000Y28417500D02*
X30720000Y28762500D01*
G75*
G02*
X30867500Y28910000I147500J0D01*
G01*
X31162500Y28910000D01*
G75*
G02*
X31310000Y28762500I0J-147500D01*
G01*
X31310000Y28417500D01*
G75*
G02*
X31162500Y28270000I-147500J0D01*
G01*
X30867500Y28270000D01*
G75*
G02*
X30720000Y28417500I0J147500D01*
G01*
G37*
G04 #@! TD.AperFunction*
G04 #@! TA.AperFunction,SMDPad,CuDef*
G36*
G01*
X7910000Y39762500D02*
X7910000Y39417500D01*
G75*
G02*
X7762500Y39270000I-147500J0D01*
G01*
X7467500Y39270000D01*
G75*
G02*
X7320000Y39417500I0J147500D01*
G01*
X7320000Y39762500D01*
G75*
G02*
X7467500Y39910000I147500J0D01*
G01*
X7762500Y39910000D01*
G75*
G02*
X7910000Y39762500I0J-147500D01*
G01*
G37*
G04 #@! TD.AperFunction*
G04 #@! TA.AperFunction,SMDPad,CuDef*
G36*
G01*
X8880000Y39762500D02*
X8880000Y39417500D01*
G75*
G02*
X8732500Y39270000I-147500J0D01*
G01*
X8437500Y39270000D01*
G75*
G02*
X8290000Y39417500I0J147500D01*
G01*
X8290000Y39762500D01*
G75*
G02*
X8437500Y39910000I147500J0D01*
G01*
X8732500Y39910000D01*
G75*
G02*
X8880000Y39762500I0J-147500D01*
G01*
G37*
G04 #@! TD.AperFunction*
G04 #@! TA.AperFunction,SMDPad,CuDef*
G36*
G01*
X13690000Y40517500D02*
X13690000Y40862500D01*
G75*
G02*
X13837500Y41010000I147500J0D01*
G01*
X14132500Y41010000D01*
G75*
G02*
X14280000Y40862500I0J-147500D01*
G01*
X14280000Y40517500D01*
G75*
G02*
X14132500Y40370000I-147500J0D01*
G01*
X13837500Y40370000D01*
G75*
G02*
X13690000Y40517500I0J147500D01*
G01*
G37*
G04 #@! TD.AperFunction*
G04 #@! TA.AperFunction,SMDPad,CuDef*
G36*
G01*
X12720000Y40517500D02*
X12720000Y40862500D01*
G75*
G02*
X12867500Y41010000I147500J0D01*
G01*
X13162500Y41010000D01*
G75*
G02*
X13310000Y40862500I0J-147500D01*
G01*
X13310000Y40517500D01*
G75*
G02*
X13162500Y40370000I-147500J0D01*
G01*
X12867500Y40370000D01*
G75*
G02*
X12720000Y40517500I0J147500D01*
G01*
G37*
G04 #@! TD.AperFunction*
G04 #@! TA.AperFunction,SMDPad,CuDef*
G36*
G01*
X9710000Y34362500D02*
X9710000Y34017500D01*
G75*
G02*
X9562500Y33870000I-147500J0D01*
G01*
X9267500Y33870000D01*
G75*
G02*
X9120000Y34017500I0J147500D01*
G01*
X9120000Y34362500D01*
G75*
G02*
X9267500Y34510000I147500J0D01*
G01*
X9562500Y34510000D01*
G75*
G02*
X9710000Y34362500I0J-147500D01*
G01*
G37*
G04 #@! TD.AperFunction*
G04 #@! TA.AperFunction,SMDPad,CuDef*
G36*
G01*
X10680000Y34362500D02*
X10680000Y34017500D01*
G75*
G02*
X10532500Y33870000I-147500J0D01*
G01*
X10237500Y33870000D01*
G75*
G02*
X10090000Y34017500I0J147500D01*
G01*
X10090000Y34362500D01*
G75*
G02*
X10237500Y34510000I147500J0D01*
G01*
X10532500Y34510000D01*
G75*
G02*
X10680000Y34362500I0J-147500D01*
G01*
G37*
G04 #@! TD.AperFunction*
G04 #@! TA.AperFunction,SMDPad,CuDef*
G36*
G01*
X16090000Y34717500D02*
X16090000Y35062500D01*
G75*
G02*
X16237500Y35210000I147500J0D01*
G01*
X16532500Y35210000D01*
G75*
G02*
X16680000Y35062500I0J-147500D01*
G01*
X16680000Y34717500D01*
G75*
G02*
X16532500Y34570000I-147500J0D01*
G01*
X16237500Y34570000D01*
G75*
G02*
X16090000Y34717500I0J147500D01*
G01*
G37*
G04 #@! TD.AperFunction*
G04 #@! TA.AperFunction,SMDPad,CuDef*
G36*
G01*
X15120000Y34717500D02*
X15120000Y35062500D01*
G75*
G02*
X15267500Y35210000I147500J0D01*
G01*
X15562500Y35210000D01*
G75*
G02*
X15710000Y35062500I0J-147500D01*
G01*
X15710000Y34717500D01*
G75*
G02*
X15562500Y34570000I-147500J0D01*
G01*
X15267500Y34570000D01*
G75*
G02*
X15120000Y34717500I0J147500D01*
G01*
G37*
G04 #@! TD.AperFunction*
G04 #@! TA.AperFunction,SMDPad,CuDef*
G36*
G01*
X28740000Y23562500D02*
X28740000Y23217500D01*
G75*
G02*
X28592500Y23070000I-147500J0D01*
G01*
X28297500Y23070000D01*
G75*
G02*
X28150000Y23217500I0J147500D01*
G01*
X28150000Y23562500D01*
G75*
G02*
X28297500Y23710000I147500J0D01*
G01*
X28592500Y23710000D01*
G75*
G02*
X28740000Y23562500I0J-147500D01*
G01*
G37*
G04 #@! TD.AperFunction*
G04 #@! TA.AperFunction,SMDPad,CuDef*
G36*
G01*
X29710000Y23562500D02*
X29710000Y23217500D01*
G75*
G02*
X29562500Y23070000I-147500J0D01*
G01*
X29267500Y23070000D01*
G75*
G02*
X29120000Y23217500I0J147500D01*
G01*
X29120000Y23562500D01*
G75*
G02*
X29267500Y23710000I147500J0D01*
G01*
X29562500Y23710000D01*
G75*
G02*
X29710000Y23562500I0J-147500D01*
G01*
G37*
G04 #@! TD.AperFunction*
G04 #@! TA.AperFunction,SMDPad,CuDef*
G36*
G01*
X20490000Y7617500D02*
X20490000Y7962500D01*
G75*
G02*
X20637500Y8110000I147500J0D01*
G01*
X20932500Y8110000D01*
G75*
G02*
X21080000Y7962500I0J-147500D01*
G01*
X21080000Y7617500D01*
G75*
G02*
X20932500Y7470000I-147500J0D01*
G01*
X20637500Y7470000D01*
G75*
G02*
X20490000Y7617500I0J147500D01*
G01*
G37*
G04 #@! TD.AperFunction*
G04 #@! TA.AperFunction,SMDPad,CuDef*
G36*
G01*
X19520000Y7617500D02*
X19520000Y7962500D01*
G75*
G02*
X19667500Y8110000I147500J0D01*
G01*
X19962500Y8110000D01*
G75*
G02*
X20110000Y7962500I0J-147500D01*
G01*
X20110000Y7617500D01*
G75*
G02*
X19962500Y7470000I-147500J0D01*
G01*
X19667500Y7470000D01*
G75*
G02*
X19520000Y7617500I0J147500D01*
G01*
G37*
G04 #@! TD.AperFunction*
D26*
X29990000Y2300000D03*
D27*
X43130000Y6330000D03*
X45670000Y6330000D03*
X43130000Y3790000D03*
X45670000Y3790000D03*
X43130000Y1250000D03*
D28*
X45670000Y1250000D03*
G04 #@! TA.AperFunction,SMDPad,CuDef*
G36*
G01*
X31575000Y17165000D02*
X31575000Y18415000D01*
G75*
G02*
X31825000Y18665000I250000J0D01*
G01*
X32575000Y18665000D01*
G75*
G02*
X32825000Y18415000I0J-250000D01*
G01*
X32825000Y17165000D01*
G75*
G02*
X32575000Y16915000I-250000J0D01*
G01*
X31825000Y16915000D01*
G75*
G02*
X31575000Y17165000I0J250000D01*
G01*
G37*
G04 #@! TD.AperFunction*
G04 #@! TA.AperFunction,SMDPad,CuDef*
G36*
G01*
X28775000Y17165000D02*
X28775000Y18415000D01*
G75*
G02*
X29025000Y18665000I250000J0D01*
G01*
X29775000Y18665000D01*
G75*
G02*
X30025000Y18415000I0J-250000D01*
G01*
X30025000Y17165000D01*
G75*
G02*
X29775000Y16915000I-250000J0D01*
G01*
X29025000Y16915000D01*
G75*
G02*
X28775000Y17165000I0J250000D01*
G01*
G37*
G04 #@! TD.AperFunction*
G04 #@! TA.AperFunction,SMDPad,CuDef*
G36*
G01*
X21422500Y28080000D02*
X21077500Y28080000D01*
G75*
G02*
X20930000Y28227500I0J147500D01*
G01*
X20930000Y28522500D01*
G75*
G02*
X21077500Y28670000I147500J0D01*
G01*
X21422500Y28670000D01*
G75*
G02*
X21570000Y28522500I0J-147500D01*
G01*
X21570000Y28227500D01*
G75*
G02*
X21422500Y28080000I-147500J0D01*
G01*
G37*
G04 #@! TD.AperFunction*
G04 #@! TA.AperFunction,SMDPad,CuDef*
G36*
G01*
X21422500Y27110000D02*
X21077500Y27110000D01*
G75*
G02*
X20930000Y27257500I0J147500D01*
G01*
X20930000Y27552500D01*
G75*
G02*
X21077500Y27700000I147500J0D01*
G01*
X21422500Y27700000D01*
G75*
G02*
X21570000Y27552500I0J-147500D01*
G01*
X21570000Y27257500D01*
G75*
G02*
X21422500Y27110000I-147500J0D01*
G01*
G37*
G04 #@! TD.AperFunction*
G04 #@! TA.AperFunction,SMDPad,CuDef*
G36*
G01*
X24410000Y16562500D02*
X24410000Y16217500D01*
G75*
G02*
X24262500Y16070000I-147500J0D01*
G01*
X23967500Y16070000D01*
G75*
G02*
X23820000Y16217500I0J147500D01*
G01*
X23820000Y16562500D01*
G75*
G02*
X23967500Y16710000I147500J0D01*
G01*
X24262500Y16710000D01*
G75*
G02*
X24410000Y16562500I0J-147500D01*
G01*
G37*
G04 #@! TD.AperFunction*
G04 #@! TA.AperFunction,SMDPad,CuDef*
G36*
G01*
X25380000Y16562500D02*
X25380000Y16217500D01*
G75*
G02*
X25232500Y16070000I-147500J0D01*
G01*
X24937500Y16070000D01*
G75*
G02*
X24790000Y16217500I0J147500D01*
G01*
X24790000Y16562500D01*
G75*
G02*
X24937500Y16710000I147500J0D01*
G01*
X25232500Y16710000D01*
G75*
G02*
X25380000Y16562500I0J-147500D01*
G01*
G37*
G04 #@! TD.AperFunction*
G04 #@! TA.AperFunction,SMDPad,CuDef*
G36*
G01*
X22810000Y28562500D02*
X22810000Y28217500D01*
G75*
G02*
X22662500Y28070000I-147500J0D01*
G01*
X22367500Y28070000D01*
G75*
G02*
X22220000Y28217500I0J147500D01*
G01*
X22220000Y28562500D01*
G75*
G02*
X22367500Y28710000I147500J0D01*
G01*
X22662500Y28710000D01*
G75*
G02*
X22810000Y28562500I0J-147500D01*
G01*
G37*
G04 #@! TD.AperFunction*
G04 #@! TA.AperFunction,SMDPad,CuDef*
G36*
G01*
X23780000Y28562500D02*
X23780000Y28217500D01*
G75*
G02*
X23632500Y28070000I-147500J0D01*
G01*
X23337500Y28070000D01*
G75*
G02*
X23190000Y28217500I0J147500D01*
G01*
X23190000Y28562500D01*
G75*
G02*
X23337500Y28710000I147500J0D01*
G01*
X23632500Y28710000D01*
G75*
G02*
X23780000Y28562500I0J-147500D01*
G01*
G37*
G04 #@! TD.AperFunction*
G04 #@! TA.AperFunction,SMDPad,CuDef*
G36*
G01*
X22827500Y16950000D02*
X23172500Y16950000D01*
G75*
G02*
X23320000Y16802500I0J-147500D01*
G01*
X23320000Y16507500D01*
G75*
G02*
X23172500Y16360000I-147500J0D01*
G01*
X22827500Y16360000D01*
G75*
G02*
X22680000Y16507500I0J147500D01*
G01*
X22680000Y16802500D01*
G75*
G02*
X22827500Y16950000I147500J0D01*
G01*
G37*
G04 #@! TD.AperFunction*
G04 #@! TA.AperFunction,SMDPad,CuDef*
G36*
G01*
X22827500Y17920000D02*
X23172500Y17920000D01*
G75*
G02*
X23320000Y17772500I0J-147500D01*
G01*
X23320000Y17477500D01*
G75*
G02*
X23172500Y17330000I-147500J0D01*
G01*
X22827500Y17330000D01*
G75*
G02*
X22680000Y17477500I0J147500D01*
G01*
X22680000Y17772500D01*
G75*
G02*
X22827500Y17920000I147500J0D01*
G01*
G37*
G04 #@! TD.AperFunction*
G04 #@! TA.AperFunction,SMDPad,CuDef*
G36*
G01*
X21190000Y23217500D02*
X21190000Y23562500D01*
G75*
G02*
X21337500Y23710000I147500J0D01*
G01*
X21632500Y23710000D01*
G75*
G02*
X21780000Y23562500I0J-147500D01*
G01*
X21780000Y23217500D01*
G75*
G02*
X21632500Y23070000I-147500J0D01*
G01*
X21337500Y23070000D01*
G75*
G02*
X21190000Y23217500I0J147500D01*
G01*
G37*
G04 #@! TD.AperFunction*
G04 #@! TA.AperFunction,SMDPad,CuDef*
G36*
G01*
X20220000Y23217500D02*
X20220000Y23562500D01*
G75*
G02*
X20367500Y23710000I147500J0D01*
G01*
X20662500Y23710000D01*
G75*
G02*
X20810000Y23562500I0J-147500D01*
G01*
X20810000Y23217500D01*
G75*
G02*
X20662500Y23070000I-147500J0D01*
G01*
X20367500Y23070000D01*
G75*
G02*
X20220000Y23217500I0J147500D01*
G01*
G37*
G04 #@! TD.AperFunction*
G04 #@! TA.AperFunction,SMDPad,CuDef*
G36*
G01*
X20827500Y17500000D02*
X21172500Y17500000D01*
G75*
G02*
X21320000Y17352500I0J-147500D01*
G01*
X21320000Y17057500D01*
G75*
G02*
X21172500Y16910000I-147500J0D01*
G01*
X20827500Y16910000D01*
G75*
G02*
X20680000Y17057500I0J147500D01*
G01*
X20680000Y17352500D01*
G75*
G02*
X20827500Y17500000I147500J0D01*
G01*
G37*
G04 #@! TD.AperFunction*
G04 #@! TA.AperFunction,SMDPad,CuDef*
G36*
G01*
X20827500Y18470000D02*
X21172500Y18470000D01*
G75*
G02*
X21320000Y18322500I0J-147500D01*
G01*
X21320000Y18027500D01*
G75*
G02*
X21172500Y17880000I-147500J0D01*
G01*
X20827500Y17880000D01*
G75*
G02*
X20680000Y18027500I0J147500D01*
G01*
X20680000Y18322500D01*
G75*
G02*
X20827500Y18470000I147500J0D01*
G01*
G37*
G04 #@! TD.AperFunction*
G04 #@! TA.AperFunction,SMDPad,CuDef*
G36*
G01*
X21190000Y33217500D02*
X21190000Y33562500D01*
G75*
G02*
X21337500Y33710000I147500J0D01*
G01*
X21632500Y33710000D01*
G75*
G02*
X21780000Y33562500I0J-147500D01*
G01*
X21780000Y33217500D01*
G75*
G02*
X21632500Y33070000I-147500J0D01*
G01*
X21337500Y33070000D01*
G75*
G02*
X21190000Y33217500I0J147500D01*
G01*
G37*
G04 #@! TD.AperFunction*
G04 #@! TA.AperFunction,SMDPad,CuDef*
G36*
G01*
X20220000Y33217500D02*
X20220000Y33562500D01*
G75*
G02*
X20367500Y33710000I147500J0D01*
G01*
X20662500Y33710000D01*
G75*
G02*
X20810000Y33562500I0J-147500D01*
G01*
X20810000Y33217500D01*
G75*
G02*
X20662500Y33070000I-147500J0D01*
G01*
X20367500Y33070000D01*
G75*
G02*
X20220000Y33217500I0J147500D01*
G01*
G37*
G04 #@! TD.AperFunction*
G04 #@! TA.AperFunction,SMDPad,CuDef*
G36*
G01*
X23472500Y22880000D02*
X23127500Y22880000D01*
G75*
G02*
X22980000Y23027500I0J147500D01*
G01*
X22980000Y23322500D01*
G75*
G02*
X23127500Y23470000I147500J0D01*
G01*
X23472500Y23470000D01*
G75*
G02*
X23620000Y23322500I0J-147500D01*
G01*
X23620000Y23027500D01*
G75*
G02*
X23472500Y22880000I-147500J0D01*
G01*
G37*
G04 #@! TD.AperFunction*
G04 #@! TA.AperFunction,SMDPad,CuDef*
G36*
G01*
X23472500Y21910000D02*
X23127500Y21910000D01*
G75*
G02*
X22980000Y22057500I0J147500D01*
G01*
X22980000Y22352500D01*
G75*
G02*
X23127500Y22500000I147500J0D01*
G01*
X23472500Y22500000D01*
G75*
G02*
X23620000Y22352500I0J-147500D01*
G01*
X23620000Y22057500D01*
G75*
G02*
X23472500Y21910000I-147500J0D01*
G01*
G37*
G04 #@! TD.AperFunction*
G04 #@! TA.AperFunction,SMDPad,CuDef*
G36*
G01*
X21190000Y32217500D02*
X21190000Y32562500D01*
G75*
G02*
X21337500Y32710000I147500J0D01*
G01*
X21632500Y32710000D01*
G75*
G02*
X21780000Y32562500I0J-147500D01*
G01*
X21780000Y32217500D01*
G75*
G02*
X21632500Y32070000I-147500J0D01*
G01*
X21337500Y32070000D01*
G75*
G02*
X21190000Y32217500I0J147500D01*
G01*
G37*
G04 #@! TD.AperFunction*
G04 #@! TA.AperFunction,SMDPad,CuDef*
G36*
G01*
X20220000Y32217500D02*
X20220000Y32562500D01*
G75*
G02*
X20367500Y32710000I147500J0D01*
G01*
X20662500Y32710000D01*
G75*
G02*
X20810000Y32562500I0J-147500D01*
G01*
X20810000Y32217500D01*
G75*
G02*
X20662500Y32070000I-147500J0D01*
G01*
X20367500Y32070000D01*
G75*
G02*
X20220000Y32217500I0J147500D01*
G01*
G37*
G04 #@! TD.AperFunction*
G04 #@! TA.AperFunction,SMDPad,CuDef*
G36*
G01*
X22172500Y16780000D02*
X21827500Y16780000D01*
G75*
G02*
X21680000Y16927500I0J147500D01*
G01*
X21680000Y17222500D01*
G75*
G02*
X21827500Y17370000I147500J0D01*
G01*
X22172500Y17370000D01*
G75*
G02*
X22320000Y17222500I0J-147500D01*
G01*
X22320000Y16927500D01*
G75*
G02*
X22172500Y16780000I-147500J0D01*
G01*
G37*
G04 #@! TD.AperFunction*
G04 #@! TA.AperFunction,SMDPad,CuDef*
G36*
G01*
X22172500Y15810000D02*
X21827500Y15810000D01*
G75*
G02*
X21680000Y15957500I0J147500D01*
G01*
X21680000Y16252500D01*
G75*
G02*
X21827500Y16400000I147500J0D01*
G01*
X22172500Y16400000D01*
G75*
G02*
X22320000Y16252500I0J-147500D01*
G01*
X22320000Y15957500D01*
G75*
G02*
X22172500Y15810000I-147500J0D01*
G01*
G37*
G04 #@! TD.AperFunction*
G04 #@! TA.AperFunction,SMDPad,CuDef*
G36*
G01*
X21810000Y25562500D02*
X21810000Y25217500D01*
G75*
G02*
X21662500Y25070000I-147500J0D01*
G01*
X21367500Y25070000D01*
G75*
G02*
X21220000Y25217500I0J147500D01*
G01*
X21220000Y25562500D01*
G75*
G02*
X21367500Y25710000I147500J0D01*
G01*
X21662500Y25710000D01*
G75*
G02*
X21810000Y25562500I0J-147500D01*
G01*
G37*
G04 #@! TD.AperFunction*
G04 #@! TA.AperFunction,SMDPad,CuDef*
G36*
G01*
X22780000Y25562500D02*
X22780000Y25217500D01*
G75*
G02*
X22632500Y25070000I-147500J0D01*
G01*
X22337500Y25070000D01*
G75*
G02*
X22190000Y25217500I0J147500D01*
G01*
X22190000Y25562500D01*
G75*
G02*
X22337500Y25710000I147500J0D01*
G01*
X22632500Y25710000D01*
G75*
G02*
X22780000Y25562500I0J-147500D01*
G01*
G37*
G04 #@! TD.AperFunction*
G04 #@! TA.AperFunction,SMDPad,CuDef*
G36*
G01*
X35690000Y34517500D02*
X35690000Y34862500D01*
G75*
G02*
X35837500Y35010000I147500J0D01*
G01*
X36132500Y35010000D01*
G75*
G02*
X36280000Y34862500I0J-147500D01*
G01*
X36280000Y34517500D01*
G75*
G02*
X36132500Y34370000I-147500J0D01*
G01*
X35837500Y34370000D01*
G75*
G02*
X35690000Y34517500I0J147500D01*
G01*
G37*
G04 #@! TD.AperFunction*
G04 #@! TA.AperFunction,SMDPad,CuDef*
G36*
G01*
X34720000Y34517500D02*
X34720000Y34862500D01*
G75*
G02*
X34867500Y35010000I147500J0D01*
G01*
X35162500Y35010000D01*
G75*
G02*
X35310000Y34862500I0J-147500D01*
G01*
X35310000Y34517500D01*
G75*
G02*
X35162500Y34370000I-147500J0D01*
G01*
X34867500Y34370000D01*
G75*
G02*
X34720000Y34517500I0J147500D01*
G01*
G37*
G04 #@! TD.AperFunction*
G04 #@! TA.AperFunction,SMDPad,CuDef*
G36*
G01*
X40390000Y33017500D02*
X40390000Y33362500D01*
G75*
G02*
X40537500Y33510000I147500J0D01*
G01*
X40832500Y33510000D01*
G75*
G02*
X40980000Y33362500I0J-147500D01*
G01*
X40980000Y33017500D01*
G75*
G02*
X40832500Y32870000I-147500J0D01*
G01*
X40537500Y32870000D01*
G75*
G02*
X40390000Y33017500I0J147500D01*
G01*
G37*
G04 #@! TD.AperFunction*
G04 #@! TA.AperFunction,SMDPad,CuDef*
G36*
G01*
X39420000Y33017500D02*
X39420000Y33362500D01*
G75*
G02*
X39567500Y33510000I147500J0D01*
G01*
X39862500Y33510000D01*
G75*
G02*
X40010000Y33362500I0J-147500D01*
G01*
X40010000Y33017500D01*
G75*
G02*
X39862500Y32870000I-147500J0D01*
G01*
X39567500Y32870000D01*
G75*
G02*
X39420000Y33017500I0J147500D01*
G01*
G37*
G04 #@! TD.AperFunction*
G04 #@! TA.AperFunction,SMDPad,CuDef*
G36*
G01*
X33790000Y35017500D02*
X33790000Y35362500D01*
G75*
G02*
X33937500Y35510000I147500J0D01*
G01*
X34232500Y35510000D01*
G75*
G02*
X34380000Y35362500I0J-147500D01*
G01*
X34380000Y35017500D01*
G75*
G02*
X34232500Y34870000I-147500J0D01*
G01*
X33937500Y34870000D01*
G75*
G02*
X33790000Y35017500I0J147500D01*
G01*
G37*
G04 #@! TD.AperFunction*
G04 #@! TA.AperFunction,SMDPad,CuDef*
G36*
G01*
X32820000Y35017500D02*
X32820000Y35362500D01*
G75*
G02*
X32967500Y35510000I147500J0D01*
G01*
X33262500Y35510000D01*
G75*
G02*
X33410000Y35362500I0J-147500D01*
G01*
X33410000Y35017500D01*
G75*
G02*
X33262500Y34870000I-147500J0D01*
G01*
X32967500Y34870000D01*
G75*
G02*
X32820000Y35017500I0J147500D01*
G01*
G37*
G04 #@! TD.AperFunction*
G04 #@! TA.AperFunction,SMDPad,CuDef*
G36*
G01*
X38610000Y31562500D02*
X38610000Y31217500D01*
G75*
G02*
X38462500Y31070000I-147500J0D01*
G01*
X38167500Y31070000D01*
G75*
G02*
X38020000Y31217500I0J147500D01*
G01*
X38020000Y31562500D01*
G75*
G02*
X38167500Y31710000I147500J0D01*
G01*
X38462500Y31710000D01*
G75*
G02*
X38610000Y31562500I0J-147500D01*
G01*
G37*
G04 #@! TD.AperFunction*
G04 #@! TA.AperFunction,SMDPad,CuDef*
G36*
G01*
X39580000Y31562500D02*
X39580000Y31217500D01*
G75*
G02*
X39432500Y31070000I-147500J0D01*
G01*
X39137500Y31070000D01*
G75*
G02*
X38990000Y31217500I0J147500D01*
G01*
X38990000Y31562500D01*
G75*
G02*
X39137500Y31710000I147500J0D01*
G01*
X39432500Y31710000D01*
G75*
G02*
X39580000Y31562500I0J-147500D01*
G01*
G37*
G04 #@! TD.AperFunction*
G04 #@! TA.AperFunction,SMDPad,CuDef*
G36*
G01*
X37390000Y33017500D02*
X37390000Y33362500D01*
G75*
G02*
X37537500Y33510000I147500J0D01*
G01*
X37832500Y33510000D01*
G75*
G02*
X37980000Y33362500I0J-147500D01*
G01*
X37980000Y33017500D01*
G75*
G02*
X37832500Y32870000I-147500J0D01*
G01*
X37537500Y32870000D01*
G75*
G02*
X37390000Y33017500I0J147500D01*
G01*
G37*
G04 #@! TD.AperFunction*
G04 #@! TA.AperFunction,SMDPad,CuDef*
G36*
G01*
X36420000Y33017500D02*
X36420000Y33362500D01*
G75*
G02*
X36567500Y33510000I147500J0D01*
G01*
X36862500Y33510000D01*
G75*
G02*
X37010000Y33362500I0J-147500D01*
G01*
X37010000Y33017500D01*
G75*
G02*
X36862500Y32870000I-147500J0D01*
G01*
X36567500Y32870000D01*
G75*
G02*
X36420000Y33017500I0J147500D01*
G01*
G37*
G04 #@! TD.AperFunction*
G04 #@! TA.AperFunction,SMDPad,CuDef*
G36*
G01*
X35390000Y33017500D02*
X35390000Y33362500D01*
G75*
G02*
X35537500Y33510000I147500J0D01*
G01*
X35832500Y33510000D01*
G75*
G02*
X35980000Y33362500I0J-147500D01*
G01*
X35980000Y33017500D01*
G75*
G02*
X35832500Y32870000I-147500J0D01*
G01*
X35537500Y32870000D01*
G75*
G02*
X35390000Y33017500I0J147500D01*
G01*
G37*
G04 #@! TD.AperFunction*
G04 #@! TA.AperFunction,SMDPad,CuDef*
G36*
G01*
X34420000Y33017500D02*
X34420000Y33362500D01*
G75*
G02*
X34567500Y33510000I147500J0D01*
G01*
X34862500Y33510000D01*
G75*
G02*
X35010000Y33362500I0J-147500D01*
G01*
X35010000Y33017500D01*
G75*
G02*
X34862500Y32870000I-147500J0D01*
G01*
X34567500Y32870000D01*
G75*
G02*
X34420000Y33017500I0J147500D01*
G01*
G37*
G04 #@! TD.AperFunction*
G04 #@! TA.AperFunction,SMDPad,CuDef*
G36*
G01*
X27190000Y23217500D02*
X27190000Y23562500D01*
G75*
G02*
X27337500Y23710000I147500J0D01*
G01*
X27632500Y23710000D01*
G75*
G02*
X27780000Y23562500I0J-147500D01*
G01*
X27780000Y23217500D01*
G75*
G02*
X27632500Y23070000I-147500J0D01*
G01*
X27337500Y23070000D01*
G75*
G02*
X27190000Y23217500I0J147500D01*
G01*
G37*
G04 #@! TD.AperFunction*
G04 #@! TA.AperFunction,SMDPad,CuDef*
G36*
G01*
X26220000Y23217500D02*
X26220000Y23562500D01*
G75*
G02*
X26367500Y23710000I147500J0D01*
G01*
X26662500Y23710000D01*
G75*
G02*
X26810000Y23562500I0J-147500D01*
G01*
X26810000Y23217500D01*
G75*
G02*
X26662500Y23070000I-147500J0D01*
G01*
X26367500Y23070000D01*
G75*
G02*
X26220000Y23217500I0J147500D01*
G01*
G37*
G04 #@! TD.AperFunction*
G04 #@! TA.AperFunction,SMDPad,CuDef*
G36*
G01*
X28172500Y29580000D02*
X27827500Y29580000D01*
G75*
G02*
X27680000Y29727500I0J147500D01*
G01*
X27680000Y30022500D01*
G75*
G02*
X27827500Y30170000I147500J0D01*
G01*
X28172500Y30170000D01*
G75*
G02*
X28320000Y30022500I0J-147500D01*
G01*
X28320000Y29727500D01*
G75*
G02*
X28172500Y29580000I-147500J0D01*
G01*
G37*
G04 #@! TD.AperFunction*
G04 #@! TA.AperFunction,SMDPad,CuDef*
G36*
G01*
X28172500Y28610000D02*
X27827500Y28610000D01*
G75*
G02*
X27680000Y28757500I0J147500D01*
G01*
X27680000Y29052500D01*
G75*
G02*
X27827500Y29200000I147500J0D01*
G01*
X28172500Y29200000D01*
G75*
G02*
X28320000Y29052500I0J-147500D01*
G01*
X28320000Y28757500D01*
G75*
G02*
X28172500Y28610000I-147500J0D01*
G01*
G37*
G04 #@! TD.AperFunction*
G04 #@! TA.AperFunction,SMDPad,CuDef*
G36*
G01*
X27827500Y20000000D02*
X28172500Y20000000D01*
G75*
G02*
X28320000Y19852500I0J-147500D01*
G01*
X28320000Y19557500D01*
G75*
G02*
X28172500Y19410000I-147500J0D01*
G01*
X27827500Y19410000D01*
G75*
G02*
X27680000Y19557500I0J147500D01*
G01*
X27680000Y19852500D01*
G75*
G02*
X27827500Y20000000I147500J0D01*
G01*
G37*
G04 #@! TD.AperFunction*
G04 #@! TA.AperFunction,SMDPad,CuDef*
G36*
G01*
X27827500Y20970000D02*
X28172500Y20970000D01*
G75*
G02*
X28320000Y20822500I0J-147500D01*
G01*
X28320000Y20527500D01*
G75*
G02*
X28172500Y20380000I-147500J0D01*
G01*
X27827500Y20380000D01*
G75*
G02*
X27680000Y20527500I0J147500D01*
G01*
X27680000Y20822500D01*
G75*
G02*
X27827500Y20970000I147500J0D01*
G01*
G37*
G04 #@! TD.AperFunction*
G04 #@! TA.AperFunction,SMDPad,CuDef*
G36*
G01*
X30727500Y26700000D02*
X31072500Y26700000D01*
G75*
G02*
X31220000Y26552500I0J-147500D01*
G01*
X31220000Y26257500D01*
G75*
G02*
X31072500Y26110000I-147500J0D01*
G01*
X30727500Y26110000D01*
G75*
G02*
X30580000Y26257500I0J147500D01*
G01*
X30580000Y26552500D01*
G75*
G02*
X30727500Y26700000I147500J0D01*
G01*
G37*
G04 #@! TD.AperFunction*
G04 #@! TA.AperFunction,SMDPad,CuDef*
G36*
G01*
X30727500Y27670000D02*
X31072500Y27670000D01*
G75*
G02*
X31220000Y27522500I0J-147500D01*
G01*
X31220000Y27227500D01*
G75*
G02*
X31072500Y27080000I-147500J0D01*
G01*
X30727500Y27080000D01*
G75*
G02*
X30580000Y27227500I0J147500D01*
G01*
X30580000Y27522500D01*
G75*
G02*
X30727500Y27670000I147500J0D01*
G01*
G37*
G04 #@! TD.AperFunction*
G04 #@! TA.AperFunction,SMDPad,CuDef*
G36*
G01*
X24710000Y22862500D02*
X24710000Y22517500D01*
G75*
G02*
X24562500Y22370000I-147500J0D01*
G01*
X24267500Y22370000D01*
G75*
G02*
X24120000Y22517500I0J147500D01*
G01*
X24120000Y22862500D01*
G75*
G02*
X24267500Y23010000I147500J0D01*
G01*
X24562500Y23010000D01*
G75*
G02*
X24710000Y22862500I0J-147500D01*
G01*
G37*
G04 #@! TD.AperFunction*
G04 #@! TA.AperFunction,SMDPad,CuDef*
G36*
G01*
X25680000Y22862500D02*
X25680000Y22517500D01*
G75*
G02*
X25532500Y22370000I-147500J0D01*
G01*
X25237500Y22370000D01*
G75*
G02*
X25090000Y22517500I0J147500D01*
G01*
X25090000Y22862500D01*
G75*
G02*
X25237500Y23010000I147500J0D01*
G01*
X25532500Y23010000D01*
G75*
G02*
X25680000Y22862500I0J-147500D01*
G01*
G37*
G04 #@! TD.AperFunction*
G04 #@! TA.AperFunction,SMDPad,CuDef*
G36*
G01*
X29190000Y22217500D02*
X29190000Y22562500D01*
G75*
G02*
X29337500Y22710000I147500J0D01*
G01*
X29632500Y22710000D01*
G75*
G02*
X29780000Y22562500I0J-147500D01*
G01*
X29780000Y22217500D01*
G75*
G02*
X29632500Y22070000I-147500J0D01*
G01*
X29337500Y22070000D01*
G75*
G02*
X29190000Y22217500I0J147500D01*
G01*
G37*
G04 #@! TD.AperFunction*
G04 #@! TA.AperFunction,SMDPad,CuDef*
G36*
G01*
X28220000Y22217500D02*
X28220000Y22562500D01*
G75*
G02*
X28367500Y22710000I147500J0D01*
G01*
X28662500Y22710000D01*
G75*
G02*
X28810000Y22562500I0J-147500D01*
G01*
X28810000Y22217500D01*
G75*
G02*
X28662500Y22070000I-147500J0D01*
G01*
X28367500Y22070000D01*
G75*
G02*
X28220000Y22217500I0J147500D01*
G01*
G37*
G04 #@! TD.AperFunction*
G04 #@! TA.AperFunction,SMDPad,CuDef*
G36*
G01*
X27190000Y24917500D02*
X27190000Y25262500D01*
G75*
G02*
X27337500Y25410000I147500J0D01*
G01*
X27632500Y25410000D01*
G75*
G02*
X27780000Y25262500I0J-147500D01*
G01*
X27780000Y24917500D01*
G75*
G02*
X27632500Y24770000I-147500J0D01*
G01*
X27337500Y24770000D01*
G75*
G02*
X27190000Y24917500I0J147500D01*
G01*
G37*
G04 #@! TD.AperFunction*
G04 #@! TA.AperFunction,SMDPad,CuDef*
G36*
G01*
X26220000Y24917500D02*
X26220000Y25262500D01*
G75*
G02*
X26367500Y25410000I147500J0D01*
G01*
X26662500Y25410000D01*
G75*
G02*
X26810000Y25262500I0J-147500D01*
G01*
X26810000Y24917500D01*
G75*
G02*
X26662500Y24770000I-147500J0D01*
G01*
X26367500Y24770000D01*
G75*
G02*
X26220000Y24917500I0J147500D01*
G01*
G37*
G04 #@! TD.AperFunction*
G04 #@! TA.AperFunction,SMDPad,CuDef*
G36*
G01*
X31290000Y31117500D02*
X31290000Y31462500D01*
G75*
G02*
X31437500Y31610000I147500J0D01*
G01*
X31732500Y31610000D01*
G75*
G02*
X31880000Y31462500I0J-147500D01*
G01*
X31880000Y31117500D01*
G75*
G02*
X31732500Y30970000I-147500J0D01*
G01*
X31437500Y30970000D01*
G75*
G02*
X31290000Y31117500I0J147500D01*
G01*
G37*
G04 #@! TD.AperFunction*
G04 #@! TA.AperFunction,SMDPad,CuDef*
G36*
G01*
X30320000Y31117500D02*
X30320000Y31462500D01*
G75*
G02*
X30467500Y31610000I147500J0D01*
G01*
X30762500Y31610000D01*
G75*
G02*
X30910000Y31462500I0J-147500D01*
G01*
X30910000Y31117500D01*
G75*
G02*
X30762500Y30970000I-147500J0D01*
G01*
X30467500Y30970000D01*
G75*
G02*
X30320000Y31117500I0J147500D01*
G01*
G37*
G04 #@! TD.AperFunction*
G04 #@! TA.AperFunction,SMDPad,CuDef*
G36*
G01*
X29310000Y25562500D02*
X29310000Y25217500D01*
G75*
G02*
X29162500Y25070000I-147500J0D01*
G01*
X28867500Y25070000D01*
G75*
G02*
X28720000Y25217500I0J147500D01*
G01*
X28720000Y25562500D01*
G75*
G02*
X28867500Y25710000I147500J0D01*
G01*
X29162500Y25710000D01*
G75*
G02*
X29310000Y25562500I0J-147500D01*
G01*
G37*
G04 #@! TD.AperFunction*
G04 #@! TA.AperFunction,SMDPad,CuDef*
G36*
G01*
X30280000Y25562500D02*
X30280000Y25217500D01*
G75*
G02*
X30132500Y25070000I-147500J0D01*
G01*
X29837500Y25070000D01*
G75*
G02*
X29690000Y25217500I0J147500D01*
G01*
X29690000Y25562500D01*
G75*
G02*
X29837500Y25710000I147500J0D01*
G01*
X30132500Y25710000D01*
G75*
G02*
X30280000Y25562500I0J-147500D01*
G01*
G37*
G04 #@! TD.AperFunction*
G04 #@! TA.AperFunction,SMDPad,CuDef*
G36*
G01*
X33827500Y20200000D02*
X34172500Y20200000D01*
G75*
G02*
X34320000Y20052500I0J-147500D01*
G01*
X34320000Y19757500D01*
G75*
G02*
X34172500Y19610000I-147500J0D01*
G01*
X33827500Y19610000D01*
G75*
G02*
X33680000Y19757500I0J147500D01*
G01*
X33680000Y20052500D01*
G75*
G02*
X33827500Y20200000I147500J0D01*
G01*
G37*
G04 #@! TD.AperFunction*
G04 #@! TA.AperFunction,SMDPad,CuDef*
G36*
G01*
X33827500Y21170000D02*
X34172500Y21170000D01*
G75*
G02*
X34320000Y21022500I0J-147500D01*
G01*
X34320000Y20727500D01*
G75*
G02*
X34172500Y20580000I-147500J0D01*
G01*
X33827500Y20580000D01*
G75*
G02*
X33680000Y20727500I0J147500D01*
G01*
X33680000Y21022500D01*
G75*
G02*
X33827500Y21170000I147500J0D01*
G01*
G37*
G04 #@! TD.AperFunction*
G04 #@! TA.AperFunction,SMDPad,CuDef*
G36*
G01*
X40672500Y22580000D02*
X40327500Y22580000D01*
G75*
G02*
X40180000Y22727500I0J147500D01*
G01*
X40180000Y23022500D01*
G75*
G02*
X40327500Y23170000I147500J0D01*
G01*
X40672500Y23170000D01*
G75*
G02*
X40820000Y23022500I0J-147500D01*
G01*
X40820000Y22727500D01*
G75*
G02*
X40672500Y22580000I-147500J0D01*
G01*
G37*
G04 #@! TD.AperFunction*
G04 #@! TA.AperFunction,SMDPad,CuDef*
G36*
G01*
X40672500Y21610000D02*
X40327500Y21610000D01*
G75*
G02*
X40180000Y21757500I0J147500D01*
G01*
X40180000Y22052500D01*
G75*
G02*
X40327500Y22200000I147500J0D01*
G01*
X40672500Y22200000D01*
G75*
G02*
X40820000Y22052500I0J-147500D01*
G01*
X40820000Y21757500D01*
G75*
G02*
X40672500Y21610000I-147500J0D01*
G01*
G37*
G04 #@! TD.AperFunction*
G04 #@! TA.AperFunction,SMDPad,CuDef*
G36*
G01*
X39290000Y17217500D02*
X39290000Y17562500D01*
G75*
G02*
X39437500Y17710000I147500J0D01*
G01*
X39732500Y17710000D01*
G75*
G02*
X39880000Y17562500I0J-147500D01*
G01*
X39880000Y17217500D01*
G75*
G02*
X39732500Y17070000I-147500J0D01*
G01*
X39437500Y17070000D01*
G75*
G02*
X39290000Y17217500I0J147500D01*
G01*
G37*
G04 #@! TD.AperFunction*
G04 #@! TA.AperFunction,SMDPad,CuDef*
G36*
G01*
X38320000Y17217500D02*
X38320000Y17562500D01*
G75*
G02*
X38467500Y17710000I147500J0D01*
G01*
X38762500Y17710000D01*
G75*
G02*
X38910000Y17562500I0J-147500D01*
G01*
X38910000Y17217500D01*
G75*
G02*
X38762500Y17070000I-147500J0D01*
G01*
X38467500Y17070000D01*
G75*
G02*
X38320000Y17217500I0J147500D01*
G01*
G37*
G04 #@! TD.AperFunction*
G04 #@! TA.AperFunction,SMDPad,CuDef*
G36*
G01*
X33172500Y26480000D02*
X32827500Y26480000D01*
G75*
G02*
X32680000Y26627500I0J147500D01*
G01*
X32680000Y26922500D01*
G75*
G02*
X32827500Y27070000I147500J0D01*
G01*
X33172500Y27070000D01*
G75*
G02*
X33320000Y26922500I0J-147500D01*
G01*
X33320000Y26627500D01*
G75*
G02*
X33172500Y26480000I-147500J0D01*
G01*
G37*
G04 #@! TD.AperFunction*
G04 #@! TA.AperFunction,SMDPad,CuDef*
G36*
G01*
X33172500Y25510000D02*
X32827500Y25510000D01*
G75*
G02*
X32680000Y25657500I0J147500D01*
G01*
X32680000Y25952500D01*
G75*
G02*
X32827500Y26100000I147500J0D01*
G01*
X33172500Y26100000D01*
G75*
G02*
X33320000Y25952500I0J-147500D01*
G01*
X33320000Y25657500D01*
G75*
G02*
X33172500Y25510000I-147500J0D01*
G01*
G37*
G04 #@! TD.AperFunction*
G04 #@! TA.AperFunction,SMDPad,CuDef*
G36*
G01*
X37510000Y20462500D02*
X37510000Y20117500D01*
G75*
G02*
X37362500Y19970000I-147500J0D01*
G01*
X37067500Y19970000D01*
G75*
G02*
X36920000Y20117500I0J147500D01*
G01*
X36920000Y20462500D01*
G75*
G02*
X37067500Y20610000I147500J0D01*
G01*
X37362500Y20610000D01*
G75*
G02*
X37510000Y20462500I0J-147500D01*
G01*
G37*
G04 #@! TD.AperFunction*
G04 #@! TA.AperFunction,SMDPad,CuDef*
G36*
G01*
X38480000Y20462500D02*
X38480000Y20117500D01*
G75*
G02*
X38332500Y19970000I-147500J0D01*
G01*
X38037500Y19970000D01*
G75*
G02*
X37890000Y20117500I0J147500D01*
G01*
X37890000Y20462500D01*
G75*
G02*
X38037500Y20610000I147500J0D01*
G01*
X38332500Y20610000D01*
G75*
G02*
X38480000Y20462500I0J-147500D01*
G01*
G37*
G04 #@! TD.AperFunction*
G04 #@! TA.AperFunction,SMDPad,CuDef*
G36*
G01*
X36227500Y21700000D02*
X36572500Y21700000D01*
G75*
G02*
X36720000Y21552500I0J-147500D01*
G01*
X36720000Y21257500D01*
G75*
G02*
X36572500Y21110000I-147500J0D01*
G01*
X36227500Y21110000D01*
G75*
G02*
X36080000Y21257500I0J147500D01*
G01*
X36080000Y21552500D01*
G75*
G02*
X36227500Y21700000I147500J0D01*
G01*
G37*
G04 #@! TD.AperFunction*
G04 #@! TA.AperFunction,SMDPad,CuDef*
G36*
G01*
X36227500Y22670000D02*
X36572500Y22670000D01*
G75*
G02*
X36720000Y22522500I0J-147500D01*
G01*
X36720000Y22227500D01*
G75*
G02*
X36572500Y22080000I-147500J0D01*
G01*
X36227500Y22080000D01*
G75*
G02*
X36080000Y22227500I0J147500D01*
G01*
X36080000Y22522500D01*
G75*
G02*
X36227500Y22670000I147500J0D01*
G01*
G37*
G04 #@! TD.AperFunction*
G04 #@! TA.AperFunction,SMDPad,CuDef*
G36*
G01*
X26310000Y29362500D02*
X26310000Y29017500D01*
G75*
G02*
X26162500Y28870000I-147500J0D01*
G01*
X25867500Y28870000D01*
G75*
G02*
X25720000Y29017500I0J147500D01*
G01*
X25720000Y29362500D01*
G75*
G02*
X25867500Y29510000I147500J0D01*
G01*
X26162500Y29510000D01*
G75*
G02*
X26310000Y29362500I0J-147500D01*
G01*
G37*
G04 #@! TD.AperFunction*
G04 #@! TA.AperFunction,SMDPad,CuDef*
G36*
G01*
X27280000Y29362500D02*
X27280000Y29017500D01*
G75*
G02*
X27132500Y28870000I-147500J0D01*
G01*
X26837500Y28870000D01*
G75*
G02*
X26690000Y29017500I0J147500D01*
G01*
X26690000Y29362500D01*
G75*
G02*
X26837500Y29510000I147500J0D01*
G01*
X27132500Y29510000D01*
G75*
G02*
X27280000Y29362500I0J-147500D01*
G01*
G37*
G04 #@! TD.AperFunction*
G04 #@! TA.AperFunction,SMDPad,CuDef*
G36*
G01*
X24610000Y30662500D02*
X24610000Y30317500D01*
G75*
G02*
X24462500Y30170000I-147500J0D01*
G01*
X24167500Y30170000D01*
G75*
G02*
X24020000Y30317500I0J147500D01*
G01*
X24020000Y30662500D01*
G75*
G02*
X24167500Y30810000I147500J0D01*
G01*
X24462500Y30810000D01*
G75*
G02*
X24610000Y30662500I0J-147500D01*
G01*
G37*
G04 #@! TD.AperFunction*
G04 #@! TA.AperFunction,SMDPad,CuDef*
G36*
G01*
X25580000Y30662500D02*
X25580000Y30317500D01*
G75*
G02*
X25432500Y30170000I-147500J0D01*
G01*
X25137500Y30170000D01*
G75*
G02*
X24990000Y30317500I0J147500D01*
G01*
X24990000Y30662500D01*
G75*
G02*
X25137500Y30810000I147500J0D01*
G01*
X25432500Y30810000D01*
G75*
G02*
X25580000Y30662500I0J-147500D01*
G01*
G37*
G04 #@! TD.AperFunction*
G04 #@! TA.AperFunction,SMDPad,CuDef*
G36*
G01*
X27810000Y26562500D02*
X27810000Y26217500D01*
G75*
G02*
X27662500Y26070000I-147500J0D01*
G01*
X27367500Y26070000D01*
G75*
G02*
X27220000Y26217500I0J147500D01*
G01*
X27220000Y26562500D01*
G75*
G02*
X27367500Y26710000I147500J0D01*
G01*
X27662500Y26710000D01*
G75*
G02*
X27810000Y26562500I0J-147500D01*
G01*
G37*
G04 #@! TD.AperFunction*
G04 #@! TA.AperFunction,SMDPad,CuDef*
G36*
G01*
X28780000Y26562500D02*
X28780000Y26217500D01*
G75*
G02*
X28632500Y26070000I-147500J0D01*
G01*
X28337500Y26070000D01*
G75*
G02*
X28190000Y26217500I0J147500D01*
G01*
X28190000Y26562500D01*
G75*
G02*
X28337500Y26710000I147500J0D01*
G01*
X28632500Y26710000D01*
G75*
G02*
X28780000Y26562500I0J-147500D01*
G01*
G37*
G04 #@! TD.AperFunction*
G04 #@! TA.AperFunction,SMDPad,CuDef*
G36*
G01*
X27490000Y31017500D02*
X27490000Y31362500D01*
G75*
G02*
X27637500Y31510000I147500J0D01*
G01*
X27932500Y31510000D01*
G75*
G02*
X28080000Y31362500I0J-147500D01*
G01*
X28080000Y31017500D01*
G75*
G02*
X27932500Y30870000I-147500J0D01*
G01*
X27637500Y30870000D01*
G75*
G02*
X27490000Y31017500I0J147500D01*
G01*
G37*
G04 #@! TD.AperFunction*
G04 #@! TA.AperFunction,SMDPad,CuDef*
G36*
G01*
X26520000Y31017500D02*
X26520000Y31362500D01*
G75*
G02*
X26667500Y31510000I147500J0D01*
G01*
X26962500Y31510000D01*
G75*
G02*
X27110000Y31362500I0J-147500D01*
G01*
X27110000Y31017500D01*
G75*
G02*
X26962500Y30870000I-147500J0D01*
G01*
X26667500Y30870000D01*
G75*
G02*
X26520000Y31017500I0J147500D01*
G01*
G37*
G04 #@! TD.AperFunction*
G04 #@! TA.AperFunction,SMDPad,CuDef*
G36*
G01*
X28990000Y32352500D02*
X28990000Y32007500D01*
G75*
G02*
X28842500Y31860000I-147500J0D01*
G01*
X28547500Y31860000D01*
G75*
G02*
X28400000Y32007500I0J147500D01*
G01*
X28400000Y32352500D01*
G75*
G02*
X28547500Y32500000I147500J0D01*
G01*
X28842500Y32500000D01*
G75*
G02*
X28990000Y32352500I0J-147500D01*
G01*
G37*
G04 #@! TD.AperFunction*
G04 #@! TA.AperFunction,SMDPad,CuDef*
G36*
G01*
X29960000Y32352500D02*
X29960000Y32007500D01*
G75*
G02*
X29812500Y31860000I-147500J0D01*
G01*
X29517500Y31860000D01*
G75*
G02*
X29370000Y32007500I0J147500D01*
G01*
X29370000Y32352500D01*
G75*
G02*
X29517500Y32500000I147500J0D01*
G01*
X29812500Y32500000D01*
G75*
G02*
X29960000Y32352500I0J-147500D01*
G01*
G37*
G04 #@! TD.AperFunction*
G04 #@! TA.AperFunction,SMDPad,CuDef*
G36*
G01*
X24610000Y31662500D02*
X24610000Y31317500D01*
G75*
G02*
X24462500Y31170000I-147500J0D01*
G01*
X24167500Y31170000D01*
G75*
G02*
X24020000Y31317500I0J147500D01*
G01*
X24020000Y31662500D01*
G75*
G02*
X24167500Y31810000I147500J0D01*
G01*
X24462500Y31810000D01*
G75*
G02*
X24610000Y31662500I0J-147500D01*
G01*
G37*
G04 #@! TD.AperFunction*
G04 #@! TA.AperFunction,SMDPad,CuDef*
G36*
G01*
X25580000Y31662500D02*
X25580000Y31317500D01*
G75*
G02*
X25432500Y31170000I-147500J0D01*
G01*
X25137500Y31170000D01*
G75*
G02*
X24990000Y31317500I0J147500D01*
G01*
X24990000Y31662500D01*
G75*
G02*
X25137500Y31810000I147500J0D01*
G01*
X25432500Y31810000D01*
G75*
G02*
X25580000Y31662500I0J-147500D01*
G01*
G37*
G04 #@! TD.AperFunction*
G04 #@! TA.AperFunction,SMDPad,CuDef*
G36*
G01*
X31690000Y25217500D02*
X31690000Y25562500D01*
G75*
G02*
X31837500Y25710000I147500J0D01*
G01*
X32132500Y25710000D01*
G75*
G02*
X32280000Y25562500I0J-147500D01*
G01*
X32280000Y25217500D01*
G75*
G02*
X32132500Y25070000I-147500J0D01*
G01*
X31837500Y25070000D01*
G75*
G02*
X31690000Y25217500I0J147500D01*
G01*
G37*
G04 #@! TD.AperFunction*
G04 #@! TA.AperFunction,SMDPad,CuDef*
G36*
G01*
X30720000Y25217500D02*
X30720000Y25562500D01*
G75*
G02*
X30867500Y25710000I147500J0D01*
G01*
X31162500Y25710000D01*
G75*
G02*
X31310000Y25562500I0J-147500D01*
G01*
X31310000Y25217500D01*
G75*
G02*
X31162500Y25070000I-147500J0D01*
G01*
X30867500Y25070000D01*
G75*
G02*
X30720000Y25217500I0J147500D01*
G01*
G37*
G04 #@! TD.AperFunction*
G04 #@! TA.AperFunction,SMDPad,CuDef*
G36*
G01*
X31390000Y21217500D02*
X31390000Y21562500D01*
G75*
G02*
X31537500Y21710000I147500J0D01*
G01*
X31832500Y21710000D01*
G75*
G02*
X31980000Y21562500I0J-147500D01*
G01*
X31980000Y21217500D01*
G75*
G02*
X31832500Y21070000I-147500J0D01*
G01*
X31537500Y21070000D01*
G75*
G02*
X31390000Y21217500I0J147500D01*
G01*
G37*
G04 #@! TD.AperFunction*
G04 #@! TA.AperFunction,SMDPad,CuDef*
G36*
G01*
X30420000Y21217500D02*
X30420000Y21562500D01*
G75*
G02*
X30567500Y21710000I147500J0D01*
G01*
X30862500Y21710000D01*
G75*
G02*
X31010000Y21562500I0J-147500D01*
G01*
X31010000Y21217500D01*
G75*
G02*
X30862500Y21070000I-147500J0D01*
G01*
X30567500Y21070000D01*
G75*
G02*
X30420000Y21217500I0J147500D01*
G01*
G37*
G04 #@! TD.AperFunction*
G04 #@! TA.AperFunction,SMDPad,CuDef*
G36*
G01*
X31390000Y23117500D02*
X31390000Y23462500D01*
G75*
G02*
X31537500Y23610000I147500J0D01*
G01*
X31832500Y23610000D01*
G75*
G02*
X31980000Y23462500I0J-147500D01*
G01*
X31980000Y23117500D01*
G75*
G02*
X31832500Y22970000I-147500J0D01*
G01*
X31537500Y22970000D01*
G75*
G02*
X31390000Y23117500I0J147500D01*
G01*
G37*
G04 #@! TD.AperFunction*
G04 #@! TA.AperFunction,SMDPad,CuDef*
G36*
G01*
X30420000Y23117500D02*
X30420000Y23462500D01*
G75*
G02*
X30567500Y23610000I147500J0D01*
G01*
X30862500Y23610000D01*
G75*
G02*
X31010000Y23462500I0J-147500D01*
G01*
X31010000Y23117500D01*
G75*
G02*
X30862500Y22970000I-147500J0D01*
G01*
X30567500Y22970000D01*
G75*
G02*
X30420000Y23117500I0J147500D01*
G01*
G37*
G04 #@! TD.AperFunction*
G04 #@! TA.AperFunction,SMDPad,CuDef*
G36*
G01*
X29010000Y27842500D02*
X29010000Y27497500D01*
G75*
G02*
X28862500Y27350000I-147500J0D01*
G01*
X28567500Y27350000D01*
G75*
G02*
X28420000Y27497500I0J147500D01*
G01*
X28420000Y27842500D01*
G75*
G02*
X28567500Y27990000I147500J0D01*
G01*
X28862500Y27990000D01*
G75*
G02*
X29010000Y27842500I0J-147500D01*
G01*
G37*
G04 #@! TD.AperFunction*
G04 #@! TA.AperFunction,SMDPad,CuDef*
G36*
G01*
X29980000Y27842500D02*
X29980000Y27497500D01*
G75*
G02*
X29832500Y27350000I-147500J0D01*
G01*
X29537500Y27350000D01*
G75*
G02*
X29390000Y27497500I0J147500D01*
G01*
X29390000Y27842500D01*
G75*
G02*
X29537500Y27990000I147500J0D01*
G01*
X29832500Y27990000D01*
G75*
G02*
X29980000Y27842500I0J-147500D01*
G01*
G37*
G04 #@! TD.AperFunction*
G04 #@! TA.AperFunction,SMDPad,CuDef*
G36*
G01*
X24610000Y25762500D02*
X24610000Y25417500D01*
G75*
G02*
X24462500Y25270000I-147500J0D01*
G01*
X24167500Y25270000D01*
G75*
G02*
X24020000Y25417500I0J147500D01*
G01*
X24020000Y25762500D01*
G75*
G02*
X24167500Y25910000I147500J0D01*
G01*
X24462500Y25910000D01*
G75*
G02*
X24610000Y25762500I0J-147500D01*
G01*
G37*
G04 #@! TD.AperFunction*
G04 #@! TA.AperFunction,SMDPad,CuDef*
G36*
G01*
X25580000Y25762500D02*
X25580000Y25417500D01*
G75*
G02*
X25432500Y25270000I-147500J0D01*
G01*
X25137500Y25270000D01*
G75*
G02*
X24990000Y25417500I0J147500D01*
G01*
X24990000Y25762500D01*
G75*
G02*
X25137500Y25910000I147500J0D01*
G01*
X25432500Y25910000D01*
G75*
G02*
X25580000Y25762500I0J-147500D01*
G01*
G37*
G04 #@! TD.AperFunction*
D29*
X11800000Y37390000D03*
D30*
X10550000Y35390000D03*
X11050000Y35390000D03*
X11550000Y35390000D03*
X12050000Y35390000D03*
X12550000Y35390000D03*
X13050000Y35390000D03*
D31*
X13800000Y36140000D03*
X13800000Y36640000D03*
X13800000Y37140000D03*
X13800000Y37640000D03*
X13800000Y38140000D03*
X13800000Y38640000D03*
D30*
X13050000Y39390000D03*
X12550000Y39390000D03*
X12050000Y39390000D03*
X11550000Y39390000D03*
X11050000Y39390000D03*
X10550000Y39390000D03*
D31*
X9800000Y38640000D03*
X9800000Y38140000D03*
X9800000Y37640000D03*
X9800000Y37140000D03*
X9800000Y36640000D03*
X9800000Y36140000D03*
D27*
X14460000Y6330000D03*
X17000000Y6330000D03*
X14460000Y3790000D03*
X17000000Y3790000D03*
X14460000Y1250000D03*
D28*
X17000000Y1250000D03*
D32*
X7850000Y35890000D03*
X7850000Y38090000D03*
X6150000Y38090000D03*
X6150000Y35890000D03*
D33*
X23000000Y11190000D03*
X27000000Y11190000D03*
X34200000Y11190000D03*
X30200000Y11190000D03*
D34*
X39400000Y1890000D03*
X32600000Y1890000D03*
D35*
X37000000Y7090000D03*
X35000000Y7090000D03*
D36*
X1270000Y1250000D03*
X3810000Y1250000D03*
D37*
X1270000Y3790000D03*
X3810000Y3790000D03*
D36*
X1270000Y6330000D03*
X3810000Y6330000D03*
X1270000Y8870000D03*
X3810000Y8870000D03*
X1270000Y11410000D03*
X3810000Y11410000D03*
X1270000Y13950000D03*
X3810000Y13950000D03*
X1270000Y16490000D03*
X3810000Y16490000D03*
X1270000Y19030000D03*
X3810000Y19030000D03*
X1270000Y21570000D03*
X3810000Y21570000D03*
D37*
X1270000Y24110000D03*
X3810000Y24110000D03*
D36*
X1270000Y26650000D03*
X3810000Y26650000D03*
X1270000Y29190000D03*
X3810000Y29190000D03*
X1270000Y31730000D03*
X3810000Y31730000D03*
X1270000Y34270000D03*
X3810000Y34270000D03*
X1270000Y36810000D03*
X3810000Y36810000D03*
X1270000Y39350000D03*
X3810000Y39350000D03*
X1270000Y41890000D03*
X3810000Y41890000D03*
X1270000Y44430000D03*
X3810000Y44430000D03*
D37*
X1270000Y46970000D03*
X3810000Y46970000D03*
D36*
X1270000Y49510000D03*
X3810000Y49510000D03*
D21*
X14920000Y48000000D03*
X28060000Y48000000D03*
D22*
X25490000Y44500000D03*
X23490000Y44500000D03*
X21490000Y44500000D03*
X19490000Y44500000D03*
X17490000Y44500000D03*
X17990000Y46000000D03*
X20490000Y46000000D03*
X22490000Y46000000D03*
X24990000Y46000000D03*
D36*
X58710000Y49510000D03*
X56170000Y49510000D03*
D37*
X58710000Y46970000D03*
X56170000Y46970000D03*
D36*
X58710000Y44430000D03*
X56170000Y44430000D03*
X58710000Y41890000D03*
X56170000Y41890000D03*
X58710000Y39350000D03*
X56170000Y39350000D03*
X58710000Y36810000D03*
X56170000Y36810000D03*
X58710000Y34270000D03*
X56170000Y34270000D03*
X58710000Y31730000D03*
X56170000Y31730000D03*
X58710000Y29190000D03*
X56170000Y29190000D03*
D37*
X58710000Y26650000D03*
X56170000Y26650000D03*
D36*
X58710000Y24110000D03*
X56170000Y24110000D03*
X58710000Y21570000D03*
X56170000Y21570000D03*
X58710000Y19030000D03*
X56170000Y19030000D03*
X58710000Y16490000D03*
X56170000Y16490000D03*
X58710000Y13950000D03*
X56170000Y13950000D03*
X58710000Y11410000D03*
X56170000Y11410000D03*
X58710000Y8870000D03*
X56170000Y8870000D03*
X58710000Y6330000D03*
X56170000Y6330000D03*
D37*
X58710000Y3790000D03*
X56170000Y3790000D03*
D36*
X58710000Y1250000D03*
X56170000Y1250000D03*
G04 #@! TA.AperFunction,SMDPad,CuDef*
G36*
G01*
X23390000Y33217500D02*
X23390000Y33562500D01*
G75*
G02*
X23537500Y33710000I147500J0D01*
G01*
X23832500Y33710000D01*
G75*
G02*
X23980000Y33562500I0J-147500D01*
G01*
X23980000Y33217500D01*
G75*
G02*
X23832500Y33070000I-147500J0D01*
G01*
X23537500Y33070000D01*
G75*
G02*
X23390000Y33217500I0J147500D01*
G01*
G37*
G04 #@! TD.AperFunction*
G04 #@! TA.AperFunction,SMDPad,CuDef*
G36*
G01*
X22420000Y33217500D02*
X22420000Y33562500D01*
G75*
G02*
X22567500Y33710000I147500J0D01*
G01*
X22862500Y33710000D01*
G75*
G02*
X23010000Y33562500I0J-147500D01*
G01*
X23010000Y33217500D01*
G75*
G02*
X22862500Y33070000I-147500J0D01*
G01*
X22567500Y33070000D01*
G75*
G02*
X22420000Y33217500I0J147500D01*
G01*
G37*
G04 #@! TD.AperFunction*
G04 #@! TA.AperFunction,SMDPad,CuDef*
G36*
G01*
X24572500Y35580000D02*
X24227500Y35580000D01*
G75*
G02*
X24080000Y35727500I0J147500D01*
G01*
X24080000Y36022500D01*
G75*
G02*
X24227500Y36170000I147500J0D01*
G01*
X24572500Y36170000D01*
G75*
G02*
X24720000Y36022500I0J-147500D01*
G01*
X24720000Y35727500D01*
G75*
G02*
X24572500Y35580000I-147500J0D01*
G01*
G37*
G04 #@! TD.AperFunction*
G04 #@! TA.AperFunction,SMDPad,CuDef*
G36*
G01*
X24572500Y34610000D02*
X24227500Y34610000D01*
G75*
G02*
X24080000Y34757500I0J147500D01*
G01*
X24080000Y35052500D01*
G75*
G02*
X24227500Y35200000I147500J0D01*
G01*
X24572500Y35200000D01*
G75*
G02*
X24720000Y35052500I0J-147500D01*
G01*
X24720000Y34757500D01*
G75*
G02*
X24572500Y34610000I-147500J0D01*
G01*
G37*
G04 #@! TD.AperFunction*
G04 #@! TA.AperFunction,SMDPad,CuDef*
G36*
G01*
X28890000Y34217500D02*
X28890000Y34562500D01*
G75*
G02*
X29037500Y34710000I147500J0D01*
G01*
X29332500Y34710000D01*
G75*
G02*
X29480000Y34562500I0J-147500D01*
G01*
X29480000Y34217500D01*
G75*
G02*
X29332500Y34070000I-147500J0D01*
G01*
X29037500Y34070000D01*
G75*
G02*
X28890000Y34217500I0J147500D01*
G01*
G37*
G04 #@! TD.AperFunction*
G04 #@! TA.AperFunction,SMDPad,CuDef*
G36*
G01*
X27920000Y34217500D02*
X27920000Y34562500D01*
G75*
G02*
X28067500Y34710000I147500J0D01*
G01*
X28362500Y34710000D01*
G75*
G02*
X28510000Y34562500I0J-147500D01*
G01*
X28510000Y34217500D01*
G75*
G02*
X28362500Y34070000I-147500J0D01*
G01*
X28067500Y34070000D01*
G75*
G02*
X27920000Y34217500I0J147500D01*
G01*
G37*
G04 #@! TD.AperFunction*
G04 #@! TA.AperFunction,SMDPad,CuDef*
G36*
G01*
X29290000Y33017500D02*
X29290000Y33362500D01*
G75*
G02*
X29437500Y33510000I147500J0D01*
G01*
X29732500Y33510000D01*
G75*
G02*
X29880000Y33362500I0J-147500D01*
G01*
X29880000Y33017500D01*
G75*
G02*
X29732500Y32870000I-147500J0D01*
G01*
X29437500Y32870000D01*
G75*
G02*
X29290000Y33017500I0J147500D01*
G01*
G37*
G04 #@! TD.AperFunction*
G04 #@! TA.AperFunction,SMDPad,CuDef*
G36*
G01*
X28320000Y33017500D02*
X28320000Y33362500D01*
G75*
G02*
X28467500Y33510000I147500J0D01*
G01*
X28762500Y33510000D01*
G75*
G02*
X28910000Y33362500I0J-147500D01*
G01*
X28910000Y33017500D01*
G75*
G02*
X28762500Y32870000I-147500J0D01*
G01*
X28467500Y32870000D01*
G75*
G02*
X28320000Y33017500I0J147500D01*
G01*
G37*
G04 #@! TD.AperFunction*
G04 #@! TA.AperFunction,SMDPad,CuDef*
G36*
G01*
X25490000Y33017500D02*
X25490000Y33362500D01*
G75*
G02*
X25637500Y33510000I147500J0D01*
G01*
X25932500Y33510000D01*
G75*
G02*
X26080000Y33362500I0J-147500D01*
G01*
X26080000Y33017500D01*
G75*
G02*
X25932500Y32870000I-147500J0D01*
G01*
X25637500Y32870000D01*
G75*
G02*
X25490000Y33017500I0J147500D01*
G01*
G37*
G04 #@! TD.AperFunction*
G04 #@! TA.AperFunction,SMDPad,CuDef*
G36*
G01*
X24520000Y33017500D02*
X24520000Y33362500D01*
G75*
G02*
X24667500Y33510000I147500J0D01*
G01*
X24962500Y33510000D01*
G75*
G02*
X25110000Y33362500I0J-147500D01*
G01*
X25110000Y33017500D01*
G75*
G02*
X24962500Y32870000I-147500J0D01*
G01*
X24667500Y32870000D01*
G75*
G02*
X24520000Y33017500I0J147500D01*
G01*
G37*
G04 #@! TD.AperFunction*
G04 #@! TA.AperFunction,SMDPad,CuDef*
G36*
G01*
X27010000Y33362500D02*
X27010000Y33017500D01*
G75*
G02*
X26862500Y32870000I-147500J0D01*
G01*
X26567500Y32870000D01*
G75*
G02*
X26420000Y33017500I0J147500D01*
G01*
X26420000Y33362500D01*
G75*
G02*
X26567500Y33510000I147500J0D01*
G01*
X26862500Y33510000D01*
G75*
G02*
X27010000Y33362500I0J-147500D01*
G01*
G37*
G04 #@! TD.AperFunction*
G04 #@! TA.AperFunction,SMDPad,CuDef*
G36*
G01*
X27980000Y33362500D02*
X27980000Y33017500D01*
G75*
G02*
X27832500Y32870000I-147500J0D01*
G01*
X27537500Y32870000D01*
G75*
G02*
X27390000Y33017500I0J147500D01*
G01*
X27390000Y33362500D01*
G75*
G02*
X27537500Y33510000I147500J0D01*
G01*
X27832500Y33510000D01*
G75*
G02*
X27980000Y33362500I0J-147500D01*
G01*
G37*
G04 #@! TD.AperFunction*
G04 #@! TA.AperFunction,SMDPad,CuDef*
G36*
G01*
X50987500Y26590000D02*
X51332500Y26590000D01*
G75*
G02*
X51480000Y26442500I0J-147500D01*
G01*
X51480000Y26147500D01*
G75*
G02*
X51332500Y26000000I-147500J0D01*
G01*
X50987500Y26000000D01*
G75*
G02*
X50840000Y26147500I0J147500D01*
G01*
X50840000Y26442500D01*
G75*
G02*
X50987500Y26590000I147500J0D01*
G01*
G37*
G04 #@! TD.AperFunction*
G04 #@! TA.AperFunction,SMDPad,CuDef*
G36*
G01*
X50987500Y27560000D02*
X51332500Y27560000D01*
G75*
G02*
X51480000Y27412500I0J-147500D01*
G01*
X51480000Y27117500D01*
G75*
G02*
X51332500Y26970000I-147500J0D01*
G01*
X50987500Y26970000D01*
G75*
G02*
X50840000Y27117500I0J147500D01*
G01*
X50840000Y27412500D01*
G75*
G02*
X50987500Y27560000I147500J0D01*
G01*
G37*
G04 #@! TD.AperFunction*
D38*
X27250000Y38790000D03*
X10700000Y38490000D03*
X27000000Y26390000D03*
X28000000Y25390000D03*
X27000000Y24390000D03*
X28000000Y23390000D03*
X30000000Y22390000D03*
X31000000Y22390000D03*
X28000000Y24390000D03*
X29000000Y24390000D03*
X25000000Y24390000D03*
X25000000Y23390000D03*
X26000000Y28390000D03*
X28000000Y27390000D03*
X26000000Y32390000D03*
X27000000Y32390000D03*
X30000000Y28390000D03*
X30000000Y29390000D03*
X30000000Y30390000D03*
X29000000Y30390000D03*
X31000000Y33390000D03*
X27000000Y21390000D03*
X34000000Y24390000D03*
X23000000Y20390000D03*
X24000000Y17390000D03*
X33000000Y16390000D03*
X38000000Y22390000D03*
X34000000Y33390000D03*
X32000000Y29390000D03*
X22000000Y33390000D03*
X27500000Y36590000D03*
X24000000Y33390000D03*
X21000000Y16390000D03*
X28986217Y27401998D03*
X32000000Y20390000D03*
X25000000Y19390000D03*
X23990000Y24471544D03*
X37000000Y34390000D03*
X33989999Y19308457D03*
X21908456Y28390000D03*
X38000000Y32390000D03*
X41200000Y33190000D03*
X29000000Y19446010D03*
X36986130Y21376130D03*
X23950000Y1140000D03*
X37000000Y11490000D03*
X37000000Y10890000D03*
X37000000Y10290000D03*
X28000000Y16355511D03*
X7700000Y41190000D03*
X28000000Y30390000D03*
X6100000Y39390000D03*
X30024084Y15373010D03*
X32990000Y27424490D03*
X40825989Y35856129D03*
X25900000Y5690000D03*
X29500000Y36590000D03*
X30500000Y36590000D03*
X31000000Y32390000D03*
X29602585Y34231701D03*
X45815510Y43391901D03*
X40709522Y25796011D03*
X37233613Y25290512D03*
X36050000Y28290000D03*
X39028920Y29419412D03*
X35049663Y31224490D03*
X25550000Y36590000D03*
X35819521Y21288013D03*
X23561772Y36579948D03*
X24782645Y29492918D03*
X23000000Y31826890D03*
X7849130Y9862990D03*
X37420834Y14060834D03*
X20964095Y25431742D03*
X22001512Y23383952D03*
X18898832Y19614973D03*
X21500000Y36640000D03*
X20500000Y36640000D03*
X37898711Y34615235D03*
X48000000Y6640000D03*
X25250000Y38790000D03*
X27250000Y42140000D03*
X14000000Y42424490D03*
X41235756Y15763314D03*
X18923781Y28706436D03*
X9850000Y12300000D03*
X8866256Y35897604D03*
X39530024Y19126649D03*
X36770000Y17750000D03*
X42090000Y23770000D03*
X11350000Y32330000D03*
X13160000Y33540000D03*
X11220000Y30410000D03*
X11800000Y25600000D03*
X13910000Y33530000D03*
X16810000Y34270000D03*
X14980000Y21480000D03*
X7090000Y13430000D03*
X12170000Y8880000D03*
X9030000Y8320000D03*
X4780000Y22590000D03*
X46430000Y39930000D03*
X49070000Y36750000D03*
X44720000Y20430000D03*
X42740000Y15290000D03*
X49160000Y20460000D03*
X48940000Y22330000D03*
X48420000Y24490000D03*
X44370000Y19980000D03*
X46414490Y32930000D03*
X48110053Y36751011D03*
X44260000Y25380000D03*
X51540000Y11550000D03*
X48114490Y14015510D03*
X35974212Y3304490D03*
X6480000Y18070000D03*
X5840000Y18070000D03*
X7610000Y31280000D03*
X50495989Y26593181D03*
X32110000Y7640000D03*
X33530000Y7850000D03*
X21554447Y7835553D03*
X25000000Y26400000D03*
X27970000Y18380000D03*
X30000000Y20390000D03*
X34000000Y21390000D03*
X31000000Y30390000D03*
X11100000Y33790000D03*
X14500000Y39890000D03*
X33000000Y25402555D03*
X14600000Y34890000D03*
X14600000Y37590000D03*
X37888079Y19436411D03*
X40200000Y21190000D03*
X50400000Y27290000D03*
X36985646Y22323740D03*
X9459983Y39192002D03*
X41904481Y8590008D03*
X50687762Y7764068D03*
X41439692Y14029692D03*
X40969521Y8872935D03*
X38073778Y17180383D03*
X41500000Y14640000D03*
X38855988Y7855988D03*
X47470000Y8650000D03*
X48080000Y8650000D03*
X31503390Y8786610D03*
X19540000Y8900000D03*
X26940000Y19450000D03*
X28000000Y28390000D03*
X27000000Y28390000D03*
X27000000Y27390000D03*
X26000000Y26390000D03*
X26000000Y27390000D03*
X26000000Y31390000D03*
X27940000Y32390000D03*
X25000000Y32390000D03*
X26000000Y25390000D03*
X26000000Y24390000D03*
X26000000Y23390000D03*
X26000000Y22390000D03*
X26000000Y21390000D03*
X27000000Y22390000D03*
X28000000Y22390000D03*
X28000000Y21390000D03*
X17750000Y29640000D03*
X18000000Y29140000D03*
X27187238Y30497541D03*
X18250000Y30140000D03*
X18750000Y29640000D03*
X30000000Y21390000D03*
X32000000Y27380000D03*
X30000000Y31390000D03*
X31000000Y24390000D03*
X28936130Y26453870D03*
X31000000Y29390000D03*
X30120000Y23290000D03*
X41800000Y21424490D03*
X41400000Y22390000D03*
X41800000Y20890000D03*
X41250000Y21140000D03*
X26100000Y12790000D03*
X27000000Y12790000D03*
X27900000Y12790000D03*
X29400000Y12790000D03*
X30200000Y12790000D03*
X31000000Y12790000D03*
X54300000Y22390000D03*
X53700000Y22390000D03*
X53100000Y22390000D03*
X52500000Y22390000D03*
X8000000Y28660000D03*
X7770000Y24120000D03*
X9450000Y20740000D03*
X15820000Y14370000D03*
X50060000Y38440000D03*
X50660000Y37840000D03*
X45130000Y18900000D03*
X44191432Y18923072D03*
X31988882Y22308447D03*
X30956691Y16345308D03*
X32000000Y19390000D03*
X33000000Y20390000D03*
X33815635Y13781511D03*
X29000000Y29390000D03*
X32710469Y9967153D03*
X29967473Y19446010D03*
X32000000Y24390000D03*
X34492167Y13806990D03*
X32411316Y13806990D03*
X35516468Y13677010D03*
X39030000Y9260000D03*
X44980000Y26990000D03*
X38918082Y21385287D03*
X50500000Y28390000D03*
X41662611Y28133921D03*
X44620000Y22970000D03*
X41800000Y24820000D03*
X43520000Y21750000D03*
X50535000Y23485000D03*
X50520000Y25400000D03*
X18216780Y16147317D03*
X20150000Y17640000D03*
X18731414Y15632683D03*
X20140000Y16960000D03*
X20000000Y19390000D03*
X18242683Y18647317D03*
X20075446Y18603017D03*
X18757317Y18132683D03*
X20250000Y27140000D03*
X17992683Y27632683D03*
X20250000Y27817013D03*
X18507317Y28147317D03*
X36018668Y35439497D03*
X39750000Y39503900D03*
X36750000Y35140000D03*
X39750000Y38776100D03*
X52250000Y12776100D03*
X38540000Y15550000D03*
X52250000Y13503900D03*
X39240000Y15530000D03*
X34000000Y28455510D03*
X41021445Y26396884D03*
X38748111Y26732250D03*
X35781905Y25634671D03*
X37650000Y29590000D03*
X39000000Y18390000D03*
X42000000Y19140000D03*
X28260000Y7810000D03*
X29375686Y9887792D03*
X29107406Y7470177D03*
X30918980Y18390000D03*
X28987675Y16402325D03*
X33021607Y15436232D03*
X35526468Y16180039D03*
X37739146Y18287478D03*
X40997378Y16396971D03*
X37135365Y22983989D03*
X38000000Y21390000D03*
X38929337Y22377405D03*
X32989999Y22308456D03*
X33989999Y22308456D03*
X33000000Y24390000D03*
X33000000Y36640000D03*
X47276000Y47234000D03*
X40750000Y38390000D03*
X49119697Y43307910D03*
X24076776Y7607870D03*
X36020442Y20437635D03*
X36098875Y18637846D03*
X37000000Y18390000D03*
X23400000Y7590000D03*
X37009806Y19377742D03*
X9900000Y43090000D03*
X8791848Y40720802D03*
X22499623Y7852990D03*
X21250000Y38036100D03*
X22000000Y31390000D03*
X21250000Y38763900D03*
X23908456Y32390001D03*
X23000000Y21390000D03*
X23000000Y18390000D03*
X22000000Y15390000D03*
X22000000Y18390000D03*
X21000000Y20390000D03*
X5800000Y4690000D03*
X23000000Y25390000D03*
X22000000Y27390000D03*
X20000000Y33390000D03*
X19990001Y32308457D03*
X5877999Y45284239D03*
X24170719Y28893841D03*
X19104115Y23835783D03*
X24984224Y17315263D03*
X17000000Y22580000D03*
X16120000Y19620000D03*
X15370000Y19630000D03*
X5800000Y16050000D03*
X33000000Y34390000D03*
X39000000Y33390000D03*
X35000000Y35390000D03*
X40000000Y31390000D03*
X41700000Y31490000D03*
X41700000Y30790000D03*
X54100000Y47190000D03*
X33979470Y32454916D03*
X54100000Y46390000D03*
X50500000Y43640000D03*
X51200000Y43640000D03*
X36050000Y32490000D03*
X42100000Y31090000D03*
X39007558Y24451416D03*
X39990001Y26471543D03*
X10700000Y42890000D03*
X38956073Y27434059D03*
X12900000Y42490000D03*
X11550000Y40257910D03*
X22000000Y34390000D03*
X24989999Y34308456D03*
X29506294Y35238201D03*
X27000000Y34390000D03*
X46880000Y26320000D03*
X47860000Y37540000D03*
X48410176Y17136234D03*
X37000000Y16390000D03*
X16513900Y37740000D03*
X38000000Y16390000D03*
X15786100Y37740000D03*
X35000000Y24390000D03*
X36034838Y27423167D03*
X41700000Y30007910D03*
X41122316Y27109353D03*
X38700000Y48390000D03*
X41087379Y28490927D03*
X49890000Y28740000D03*
X40752812Y19915009D03*
X17500000Y34640000D03*
X22000000Y26390000D03*
X16500000Y24640000D03*
X49797638Y7187638D03*
X24700000Y3590000D03*
X38906892Y19391319D03*
X31000000Y38190000D03*
X30500000Y38790000D03*
X25550000Y40294727D03*
X26826860Y40294727D03*
X25550000Y39566927D03*
X26826860Y39566927D03*
X30000000Y26390000D03*
X28990000Y28410000D03*
X29980000Y24450000D03*
X21940000Y14220000D03*
X22900000Y14220000D03*
D39*
X24000000Y33390000D02*
X23685000Y33390000D01*
X34085000Y33475000D02*
X34000000Y33390000D01*
X34085000Y35190000D02*
X34085000Y33475000D01*
X36565000Y34390000D02*
X37000000Y34390000D01*
X29015000Y24405000D02*
X29000000Y24390000D01*
X29015000Y25390000D02*
X29015000Y24405000D01*
X27515000Y26390000D02*
X27000000Y26390000D01*
X29485000Y22390000D02*
X30000000Y22390000D01*
X32825000Y17790000D02*
X32200000Y17790000D01*
X33000000Y17615000D02*
X32825000Y17790000D01*
X33000000Y16390000D02*
X33000000Y17615000D01*
X27485000Y23390000D02*
X28000000Y23390000D01*
X27700000Y25090000D02*
X28000000Y25390000D01*
X27485000Y25090000D02*
X27700000Y25090000D01*
X38315000Y31980406D02*
X38315000Y31390000D01*
X38000000Y32390000D02*
X38315000Y31980406D01*
X38000000Y32875000D02*
X37685000Y33190000D01*
X38000000Y32390000D02*
X38000000Y32875000D01*
X40685000Y33190000D02*
X41200000Y33190000D01*
X31413020Y31290000D02*
X31585000Y31290000D01*
D40*
X37000000Y7090000D02*
X37000000Y11490000D01*
D41*
X6400000Y41190000D02*
X7700000Y41190000D01*
D39*
X31290000Y26405000D02*
X31220000Y26405000D01*
X31985000Y25390000D02*
X31985000Y25710000D01*
D41*
X13985000Y40690000D02*
X13985000Y42475000D01*
D42*
X6150000Y38090000D02*
X6150000Y39340000D01*
X6150000Y39340000D02*
X6100000Y39390000D01*
X7850000Y35890000D02*
X7850000Y36390000D01*
X6300000Y39590000D02*
X6100000Y39390000D01*
X7615000Y39590000D02*
X6300000Y39590000D01*
D41*
X56170000Y46360000D02*
X53600000Y43790000D01*
X56170000Y46970000D02*
X56170000Y46360000D01*
D40*
X53500000Y6460000D02*
X56170000Y3790000D01*
X53500000Y7390000D02*
X53500000Y6460000D01*
D42*
X36986130Y20518870D02*
X37215000Y20290000D01*
X36986130Y21376130D02*
X36986130Y20518870D01*
D39*
X30685000Y35390000D02*
X30700000Y35375000D01*
X31985000Y26419490D02*
X31970510Y26405000D01*
D42*
X29185000Y34390000D02*
X29185000Y34575000D01*
X30500000Y35575000D02*
X30700000Y35375000D01*
X30500000Y36590000D02*
X30500000Y35575000D01*
X31000000Y31875000D02*
X31585000Y31290000D01*
X31000000Y32390000D02*
X31000000Y31875000D01*
X30200000Y33190000D02*
X31000000Y32390000D01*
X29585000Y33190000D02*
X30200000Y33190000D01*
X28954293Y34940707D02*
X28954293Y36044293D01*
X28954293Y36044293D02*
X29500000Y36590000D01*
X29185000Y34390000D02*
X29185000Y34710000D01*
D41*
X46700000Y43405000D02*
X45828609Y43405000D01*
D39*
X45828609Y43405000D02*
X45815510Y43391901D01*
X37200000Y26390000D02*
X37200000Y25324125D01*
X37200000Y25324125D02*
X37233613Y25290512D01*
X35900000Y30190000D02*
X35900000Y31065000D01*
X35740510Y31224490D02*
X35049663Y31224490D01*
X35900000Y31065000D02*
X35740510Y31224490D01*
D41*
X25000000Y19390000D02*
X25000000Y18490000D01*
D42*
X29185000Y34710000D02*
X28954293Y34940707D01*
X26015000Y28405000D02*
X26000000Y28390000D01*
X26015000Y29190000D02*
X26015000Y28405000D01*
X27785000Y31605000D02*
X27000000Y32390000D01*
X27785000Y31190000D02*
X27785000Y31605000D01*
X26715000Y33105000D02*
X26000000Y32390000D01*
X26715000Y33190000D02*
X26715000Y33105000D01*
X25785000Y32605000D02*
X26000000Y32390000D01*
X25785000Y33190000D02*
X25785000Y32605000D01*
X32000000Y28605000D02*
X31985000Y28590000D01*
X32000000Y29390000D02*
X32000000Y28605000D01*
X28000000Y30390000D02*
X28000000Y29875000D01*
X24315000Y24796544D02*
X23990000Y24471544D01*
X24315000Y25590000D02*
X24315000Y24796544D01*
X24785000Y23175000D02*
X25000000Y23390000D01*
X23300000Y23175000D02*
X24785000Y23175000D01*
X25000000Y23275000D02*
X24415000Y22690000D01*
X25000000Y23390000D02*
X25000000Y23275000D01*
X31685000Y20705000D02*
X32000000Y20390000D01*
X31685000Y21390000D02*
X31685000Y20705000D01*
X31685000Y23075000D02*
X31000000Y22390000D01*
X31685000Y23290000D02*
X31685000Y23075000D01*
X21000000Y17205000D02*
X21000000Y16390000D01*
X21685000Y17075000D02*
X21000000Y16390000D01*
X22000000Y17075000D02*
X21685000Y17075000D01*
X24000000Y16505000D02*
X24115000Y16390000D01*
X24000000Y17390000D02*
X24000000Y16505000D01*
X31220000Y26405000D02*
X31235000Y26390000D01*
X31235000Y26390000D02*
X31950000Y26390000D01*
X30900000Y26405000D02*
X31220000Y26405000D01*
D39*
X31970510Y26405000D02*
X31950000Y26390000D01*
X31950000Y26390000D02*
X30900000Y26405000D01*
D42*
X31985000Y25390000D02*
X31985000Y26419490D01*
X32990000Y26785000D02*
X33000000Y26775000D01*
X32990000Y27424490D02*
X32990000Y26785000D01*
X36986130Y21376130D02*
X36428870Y21376130D01*
X36283013Y21288013D02*
X36400000Y21405000D01*
X33989999Y19894999D02*
X34000000Y19905000D01*
X33989999Y19308457D02*
X33989999Y19894999D01*
X23561772Y36393228D02*
X23561772Y36579948D01*
X24400000Y35875000D02*
X24080000Y35875000D01*
X24080000Y35875000D02*
X23561772Y36393228D01*
X21485000Y33390000D02*
X22000000Y33390000D01*
X21485000Y32390000D02*
X21780000Y32390000D01*
X21908456Y28390000D02*
X22515000Y28390000D01*
X24315000Y29960563D02*
X24782645Y29492918D01*
X24315000Y30490000D02*
X24315000Y29960563D01*
X21780000Y32390000D02*
X22000000Y32610000D01*
X22000000Y32610000D02*
X22000000Y33390000D01*
X23978110Y31826890D02*
X24315000Y31490000D01*
X23000000Y31826890D02*
X23978110Y31826890D01*
D41*
X6600000Y9790000D02*
X7776140Y9790000D01*
X7776140Y9790000D02*
X7849130Y9862990D01*
D42*
X21900000Y21490000D02*
X21900000Y23282440D01*
X21900000Y23282440D02*
X22001512Y23383952D01*
D39*
X21485000Y23390000D02*
X21995464Y23390000D01*
X21995464Y23390000D02*
X22001512Y23383952D01*
D42*
X21893456Y28375000D02*
X21908456Y28390000D01*
X21250000Y28375000D02*
X21893456Y28375000D01*
X21473258Y25431742D02*
X21515000Y25390000D01*
X20964095Y25431742D02*
X21473258Y25431742D01*
X23265000Y16655000D02*
X24000000Y17390000D01*
X23000000Y16655000D02*
X23265000Y16655000D01*
X22985000Y20375000D02*
X23000000Y20390000D01*
X22985000Y19640000D02*
X22985000Y20375000D01*
D41*
X37900000Y34616524D02*
X37898711Y34615235D01*
X37900000Y36790000D02*
X37900000Y34616524D01*
D42*
X36285000Y34390000D02*
X35985000Y34690000D01*
X37000000Y34390000D02*
X36285000Y34390000D01*
X36885000Y34390000D02*
X35685000Y33190000D01*
X37000000Y34390000D02*
X36885000Y34390000D01*
D41*
X13400000Y43505000D02*
X13400000Y43024490D01*
D39*
X13985000Y42475000D02*
X14000000Y42460000D01*
X14000000Y42460000D02*
X14000000Y42424490D01*
D41*
X20100000Y29215000D02*
X19591436Y28706436D01*
X19591436Y28706436D02*
X18923781Y28706436D01*
X20100000Y30090000D02*
X20100000Y29215000D01*
D42*
X9415000Y34190000D02*
X9415000Y35348860D01*
X9415000Y35348860D02*
X8866256Y35897604D01*
X7850000Y35890000D02*
X8858652Y35890000D01*
X8858652Y35890000D02*
X8866256Y35897604D01*
D41*
X13400000Y43024490D02*
X14000000Y42424490D01*
X14700000Y43124490D02*
X14000000Y42424490D01*
X14700000Y43505000D02*
X14700000Y43124490D01*
X47900000Y43405000D02*
X46700000Y43405000D01*
D42*
X39585000Y17975000D02*
X39585000Y17390000D01*
X39750000Y18140000D02*
X39585000Y17975000D01*
X39750000Y18517765D02*
X39750000Y18140000D01*
X39530024Y18737741D02*
X39750000Y18517765D01*
X39530024Y19126649D02*
X39530024Y18737741D01*
X41395000Y23770000D02*
X40500000Y22875000D01*
X42090000Y23770000D02*
X41395000Y23770000D01*
D41*
X11800000Y25600000D02*
X10675000Y25600000D01*
X3810000Y24110000D02*
X5225000Y25525000D01*
X5905000Y26205000D02*
X5225000Y25525000D01*
X5905000Y26530000D02*
X5905000Y26205000D01*
D42*
X11360000Y32320000D02*
X11350000Y32330000D01*
X12080000Y32320000D02*
X11360000Y32320000D01*
X13160000Y33540000D02*
X13160000Y32795000D01*
X14500000Y32940000D02*
X13910000Y33530000D01*
X15950000Y32940000D02*
X14500000Y32940000D01*
X14160000Y33280000D02*
X13910000Y33530000D01*
X14160000Y30875000D02*
X14160000Y33280000D01*
X16385000Y34695000D02*
X16810000Y34270000D01*
X16385000Y34890000D02*
X16385000Y34695000D01*
X9715000Y22370000D02*
X14090000Y22370000D01*
X14090000Y22370000D02*
X14980000Y21480000D01*
D41*
X10775000Y12300000D02*
X9850000Y12300000D01*
X7090000Y14485000D02*
X7090000Y13430000D01*
X7635000Y15030000D02*
X7090000Y14485000D01*
D40*
X11660000Y9390000D02*
X12170000Y8880000D01*
X10770000Y9390000D02*
X11660000Y9390000D01*
D41*
X9020000Y8330000D02*
X9030000Y8320000D01*
X9020000Y9045000D02*
X9020000Y8330000D01*
X6960000Y20145000D02*
X6960000Y20410000D01*
X5605000Y22590000D02*
X4780000Y22590000D01*
X6690000Y23675000D02*
X5605000Y22590000D01*
X5605000Y21765000D02*
X5625000Y21745000D01*
X5605000Y22590000D02*
X5605000Y21765000D01*
X5625000Y21745000D02*
X4780000Y22590000D01*
X6960000Y20410000D02*
X5625000Y21745000D01*
X44285000Y16835000D02*
X42740000Y15290000D01*
X44470000Y16835000D02*
X44285000Y16835000D01*
X44280000Y19890000D02*
X44370000Y19980000D01*
X42885000Y19890000D02*
X44280000Y19890000D01*
X44290000Y20860000D02*
X44720000Y20430000D01*
X44290000Y21095000D02*
X44290000Y20860000D01*
X47410000Y23480000D02*
X46790000Y23480000D01*
X47965000Y24035000D02*
X47410000Y23480000D01*
X48420000Y24490000D02*
X47965000Y24035000D01*
X46790000Y23480000D02*
X47325000Y22945000D01*
D42*
X47790000Y22480000D02*
X46790000Y23480000D01*
X47790000Y22080000D02*
X47790000Y22480000D01*
X47790000Y22700000D02*
X48035000Y22945000D01*
X47790000Y22480000D02*
X47790000Y22700000D01*
D41*
X48035000Y22945000D02*
X48325000Y22945000D01*
X47325000Y22945000D02*
X48035000Y22945000D01*
X48620000Y21000000D02*
X49160000Y20460000D01*
X48295000Y21000000D02*
X48620000Y21000000D01*
X49160000Y19725000D02*
X49090000Y19655000D01*
X49160000Y20460000D02*
X49160000Y19725000D01*
D42*
X49095000Y36775000D02*
X49070000Y36750000D01*
X50480000Y36775000D02*
X49095000Y36775000D01*
D41*
X47350000Y39010000D02*
X46430000Y39930000D01*
X48065000Y39010000D02*
X47350000Y39010000D01*
X45580000Y32640000D02*
X45870000Y32930000D01*
X45870000Y32930000D02*
X46414490Y32930000D01*
X46515000Y36750000D02*
X48109042Y36750000D01*
X48109042Y36750000D02*
X48110053Y36751011D01*
X44860000Y25980000D02*
X44260000Y25380000D01*
X45045000Y25980000D02*
X44860000Y25980000D01*
X50790000Y12300000D02*
X51540000Y11550000D01*
X50260000Y12300000D02*
X50790000Y12300000D01*
X48420000Y22850000D02*
X48500000Y22770000D01*
X48420000Y24490000D02*
X48420000Y22850000D01*
X48500000Y22770000D02*
X48325000Y22945000D01*
X48940000Y22330000D02*
X48500000Y22770000D01*
X48420000Y24490000D02*
X48070000Y24140000D01*
X48070000Y24140000D02*
X48070000Y23210000D01*
X46770000Y15305000D02*
X46770000Y14715802D01*
X46770000Y14715802D02*
X47470292Y14015510D01*
X47470292Y14015510D02*
X48114490Y14015510D01*
X9664511Y19565313D02*
X9664511Y18309511D01*
X10875000Y20140000D02*
X10239198Y20140000D01*
X10239198Y20140000D02*
X9664511Y19565313D01*
X9664511Y18309511D02*
X8625000Y17270000D01*
X8625000Y17270000D02*
X8000000Y17270000D01*
X7280000Y17270000D02*
X6480000Y18070000D01*
X8000000Y17270000D02*
X7280000Y17270000D01*
X6480000Y18070000D02*
X5840000Y18070000D01*
X7820000Y31285000D02*
X8210000Y31285000D01*
X7610000Y31280000D02*
X7820000Y31285000D01*
X50794170Y26295000D02*
X50495989Y26593181D01*
X51160000Y26295000D02*
X50794170Y26295000D01*
D42*
X21508894Y7790000D02*
X21554447Y7835553D01*
X20785000Y7790000D02*
X21508894Y7790000D01*
D39*
X28718215Y27670000D02*
X28986217Y27401998D01*
X28715000Y27670000D02*
X28718215Y27670000D01*
D42*
X31985000Y26419490D02*
X32990000Y27424490D01*
X28445000Y23390000D02*
X28000000Y23390000D01*
X28695000Y30695000D02*
X29000000Y30390000D01*
X28695000Y32180000D02*
X28695000Y30695000D01*
X28000000Y18410000D02*
X27970000Y18380000D01*
X28000000Y19705000D02*
X28000000Y18410000D01*
D39*
X30015000Y20375000D02*
X30000000Y20390000D01*
X30800000Y20375000D02*
X30015000Y20375000D01*
X29400000Y18665000D02*
X29500000Y18765000D01*
X29400000Y17790000D02*
X29400000Y18665000D01*
X29500000Y19890000D02*
X30000000Y20390000D01*
X29500000Y18765000D02*
X29500000Y19890000D01*
D42*
X11050000Y33840000D02*
X11100000Y33790000D01*
X12050000Y35390000D02*
X12050000Y34740000D01*
X13421601Y34737999D02*
X12052001Y34737999D01*
X10800000Y42075000D02*
X11800000Y42075000D01*
X12050000Y39913602D02*
X12050000Y39390000D01*
X14111092Y39890000D02*
X13959091Y40042001D01*
X12178399Y40042001D02*
X12050000Y39913602D01*
X14500000Y39890000D02*
X14111092Y39890000D01*
X12552001Y41642999D02*
X12120000Y42075000D01*
X12120000Y42075000D02*
X11800000Y42075000D01*
X13959091Y40042001D02*
X12552001Y40042001D01*
X12552001Y40042001D02*
X12178399Y40042001D01*
D39*
X34287555Y25402555D02*
X33000000Y25402555D01*
X33000000Y25805000D02*
X33000000Y25402555D01*
X34400000Y25515000D02*
X34287555Y25402555D01*
X34400000Y26390000D02*
X34400000Y25515000D01*
X12552001Y40742001D02*
X12604002Y40690000D01*
D42*
X12552001Y40042001D02*
X12552001Y40742001D01*
D39*
X12604002Y40690000D02*
X13015000Y40690000D01*
D42*
X12552001Y40742001D02*
X12552001Y41642999D01*
X13421601Y34737999D02*
X13573602Y34890000D01*
X13800000Y34890000D02*
X13800000Y36140000D01*
X13573602Y34890000D02*
X13800000Y34890000D01*
X13800000Y34890000D02*
X15415000Y34890000D01*
D39*
X14350000Y37640000D02*
X13800000Y37640000D01*
X14600000Y37590000D02*
X14350000Y37640000D01*
D42*
X11000000Y34190000D02*
X10385000Y34190000D01*
X11050000Y34240000D02*
X11000000Y34190000D01*
X11050000Y35390000D02*
X11050000Y34240000D01*
X11050000Y34240000D02*
X11050000Y33840000D01*
X11550000Y35390000D02*
X11550000Y34740000D01*
X11550000Y34740000D02*
X11550000Y34240000D01*
X12050000Y34740000D02*
X12052001Y34737999D01*
X11550000Y34740000D02*
X12050000Y34740000D01*
X11500000Y33790000D02*
X11100000Y33790000D01*
X11550000Y33840000D02*
X11500000Y33790000D01*
X11550000Y34740000D02*
X11550000Y33840000D01*
X9147999Y39322001D02*
X8880000Y39590000D01*
X9147999Y38268399D02*
X9147999Y39322001D01*
X9276398Y38140000D02*
X9147999Y38268399D01*
X9800000Y38140000D02*
X9276398Y38140000D01*
X8585000Y39590000D02*
X8880000Y39590000D01*
D39*
X38000000Y20005000D02*
X38000000Y19548332D01*
X38000000Y19548332D02*
X37888079Y19436411D01*
X40200000Y21190000D02*
X40200000Y21075000D01*
D42*
X9277998Y39192002D02*
X9147999Y39322001D01*
X9459983Y39192002D02*
X9277998Y39192002D01*
X36451260Y22323740D02*
X36400000Y22375000D01*
X36985646Y22323740D02*
X36451260Y22323740D01*
X34000000Y21390000D02*
X34000000Y20875000D01*
X41724992Y8590008D02*
X41904481Y8590008D01*
D40*
X53500000Y10190000D02*
X53500000Y9565000D01*
D42*
X48315000Y7390000D02*
X48315000Y7710000D01*
X48315000Y7710000D02*
X48644067Y8039067D01*
X48644067Y8039067D02*
X50412763Y8039067D01*
D40*
X53500000Y9565000D02*
X51699068Y7764068D01*
X51699068Y7764068D02*
X50687762Y7764068D01*
D42*
X50412763Y8039067D02*
X50687762Y7764068D01*
D41*
X41412500Y14002500D02*
X41439692Y14029692D01*
X41412500Y13190000D02*
X41412500Y14002500D01*
X41412500Y14056884D02*
X41439692Y14029692D01*
D42*
X40999086Y8902500D02*
X40969521Y8872935D01*
D40*
X41412500Y9315914D02*
X40969521Y8872935D01*
X41412500Y13190000D02*
X41412500Y9315914D01*
X41412500Y9081989D02*
X41412500Y9315914D01*
X41904481Y8590008D02*
X41412500Y9081989D01*
D42*
X40500000Y21490000D02*
X40200000Y21190000D01*
X40500000Y21905000D02*
X40500000Y21490000D01*
D39*
X38000000Y17342761D02*
X38073778Y17268983D01*
X38073778Y17268983D02*
X38073778Y17180383D01*
D42*
X38615000Y17390000D02*
X38283395Y17390000D01*
X38283395Y17390000D02*
X38073778Y17180383D01*
X37890000Y20290000D02*
X37888079Y20288079D01*
X37888079Y20288079D02*
X37888079Y19436411D01*
X38185000Y20290000D02*
X37890000Y20290000D01*
D40*
X41412500Y14552500D02*
X41500000Y14640000D01*
X41412500Y13190000D02*
X41412500Y14552500D01*
D39*
X39500000Y10705000D02*
X39500000Y8500000D01*
X39500000Y8500000D02*
X38855988Y7855988D01*
X38070000Y12135000D02*
X39500000Y10705000D01*
D41*
X49640000Y8880000D02*
X50260000Y9500000D01*
X49410000Y8650000D02*
X49640000Y8880000D01*
X48080000Y8650000D02*
X49410000Y8650000D01*
X48080000Y8650000D02*
X47470000Y8650000D01*
X46050000Y8650000D02*
X45820000Y8880000D01*
X47470000Y8650000D02*
X46050000Y8650000D01*
D39*
X49090000Y10670000D02*
X50260000Y9500000D01*
X49090000Y14795000D02*
X49090000Y10670000D01*
D41*
X50425000Y27265000D02*
X50400000Y27290000D01*
X51160000Y27265000D02*
X50425000Y27265000D01*
D42*
X43380000Y29765000D02*
X44540000Y29765000D01*
X50400000Y27290000D02*
X49540000Y27290000D01*
X48085000Y28745000D02*
X48085000Y29765000D01*
X49540000Y27290000D02*
X48085000Y28745000D01*
X48085000Y29765000D02*
X49010000Y29765000D01*
X44540000Y29765000D02*
X48085000Y29765000D01*
D39*
X31479490Y8762710D02*
X31503390Y8786610D01*
X31479490Y5995510D02*
X31479490Y8762710D01*
X31990000Y5485000D02*
X31479490Y5995510D01*
D42*
X19540000Y8900000D02*
X19800000Y8640000D01*
X19800000Y7805000D02*
X19815000Y7790000D01*
X19800000Y8640000D02*
X19800000Y7805000D01*
D39*
X26300000Y25090000D02*
X26000000Y25390000D01*
X26515000Y25090000D02*
X26300000Y25090000D01*
X26515000Y23390000D02*
X26000000Y23390000D01*
X25900000Y21290000D02*
X26000000Y21390000D01*
X25000000Y21290000D02*
X25900000Y21290000D01*
X25685000Y22390000D02*
X25385000Y22690000D01*
X26000000Y22390000D02*
X25685000Y22390000D01*
X28000000Y22390000D02*
X28515000Y22390000D01*
D42*
X26985000Y28405000D02*
X27000000Y28390000D01*
X26985000Y29190000D02*
X26985000Y28405000D01*
X24815000Y32575000D02*
X25000000Y32390000D01*
X24815000Y33190000D02*
X24815000Y32575000D01*
X27685000Y32705000D02*
X28000000Y32390000D01*
X27685000Y33190000D02*
X27685000Y32705000D01*
X25385000Y31390000D02*
X25285000Y31490000D01*
X26000000Y31390000D02*
X25385000Y31390000D01*
X25416218Y30358782D02*
X25285000Y30490000D01*
X28000000Y28905000D02*
X28000000Y28390000D01*
X25800000Y25590000D02*
X26000000Y25390000D01*
X25285000Y25590000D02*
X25800000Y25590000D01*
X28000000Y21390000D02*
X28000000Y20675000D01*
X25285000Y30490000D02*
X25750000Y30490000D01*
X26000000Y30740000D02*
X26000000Y31390000D01*
X25750000Y30490000D02*
X26000000Y30740000D01*
X26815000Y30869779D02*
X27187238Y30497541D01*
X26815000Y31190000D02*
X26815000Y30869779D01*
D40*
X17687500Y29577500D02*
X17750000Y29640000D01*
X17750000Y29640000D02*
X18250000Y30140000D01*
X18750000Y29640000D02*
X18250000Y30140000D01*
X18250000Y29140000D02*
X18750000Y29640000D01*
X18000000Y29140000D02*
X18250000Y29140000D01*
X17010000Y26530000D02*
X17480000Y26060000D01*
X15950000Y29960000D02*
X17010000Y28900000D01*
X15950000Y30140000D02*
X15950000Y29960000D01*
X16500000Y30140000D02*
X17375000Y29265000D01*
X15950000Y30140000D02*
X16500000Y30140000D01*
X17375000Y29265000D02*
X17010000Y28900000D01*
X17750000Y29640000D02*
X17375000Y29265000D01*
X17020000Y28160000D02*
X17010000Y28160000D01*
X18000000Y29140000D02*
X17020000Y28160000D01*
X17010000Y28160000D02*
X17010000Y26530000D01*
X17010000Y28900000D02*
X17010000Y28160000D01*
D42*
X10025000Y27840000D02*
X10035000Y27830000D01*
X10025000Y28840000D02*
X10025000Y27840000D01*
X16950000Y28840000D02*
X17010000Y28900000D01*
X10025000Y28840000D02*
X16950000Y28840000D01*
X28615000Y33065000D02*
X27940000Y32390000D01*
X28615000Y33190000D02*
X28615000Y33065000D01*
D40*
X41887500Y21102500D02*
X41800000Y21190000D01*
D39*
X30100000Y31290000D02*
X30000000Y31390000D01*
X30615000Y31290000D02*
X30100000Y31290000D01*
X28548870Y26453870D02*
X28485000Y26390000D01*
X28936130Y26453870D02*
X28548870Y26453870D01*
X31015000Y24405000D02*
X31000000Y24390000D01*
X31015000Y25390000D02*
X31015000Y24405000D01*
D42*
X31800000Y30190000D02*
X31000000Y29390000D01*
X33100000Y30190000D02*
X31800000Y30190000D01*
X31000000Y28605000D02*
X31015000Y28590000D01*
X31000000Y29390000D02*
X31000000Y28605000D01*
X30715000Y21390000D02*
X30000000Y21390000D01*
X30200000Y23290000D02*
X30100000Y23190000D01*
X30715000Y23290000D02*
X30200000Y23290000D01*
D40*
X41800000Y21390000D02*
X41800000Y20890000D01*
X41400000Y21832320D02*
X41400000Y22390000D01*
X41800000Y21416660D02*
X41807830Y21424490D01*
X41800000Y20890000D02*
X41800000Y21416660D01*
X41807830Y21424490D02*
X41400000Y21832320D01*
X41400000Y21290000D02*
X41250000Y21140000D01*
X41400000Y22390000D02*
X41400000Y21290000D01*
X41550000Y21140000D02*
X41800000Y20890000D01*
X41250000Y21140000D02*
X41550000Y21140000D01*
X41800000Y21690000D02*
X41800000Y20890000D01*
D42*
X45405000Y19990000D02*
X45405000Y21000000D01*
X46290000Y22080000D02*
X45790000Y22080000D01*
X45790000Y22080000D02*
X45750000Y22080000D01*
X45405000Y21735000D02*
X45405000Y21000000D01*
X45750000Y22080000D02*
X45405000Y21735000D01*
X45075000Y22065000D02*
X45405000Y21735000D01*
X44290000Y22065000D02*
X45075000Y22065000D01*
D41*
X44290000Y22065000D02*
X44290000Y22270000D01*
X44290000Y22270000D02*
X44050000Y22510000D01*
X42885510Y22510000D02*
X41800000Y21424490D01*
X44050000Y22510000D02*
X42885510Y22510000D01*
D42*
X30905000Y27380000D02*
X30900000Y27375000D01*
X32000000Y27380000D02*
X30905000Y27380000D01*
X29665000Y31725000D02*
X30000000Y31390000D01*
X29665000Y32180000D02*
X29665000Y31725000D01*
X29555250Y27072990D02*
X28936130Y26453870D01*
X30597990Y27072990D02*
X29555250Y27072990D01*
X30900000Y27375000D02*
X30597990Y27072990D01*
D40*
X30200000Y11190000D02*
X30200000Y12790000D01*
X26100000Y12790000D02*
X27900000Y12790000D01*
X27000000Y12790000D02*
X27000000Y11190000D01*
X29400000Y12790000D02*
X31000000Y12790000D01*
D41*
X53700000Y22390000D02*
X54300000Y22390000D01*
X53100000Y22390000D02*
X53700000Y22390000D01*
X52500000Y22390000D02*
X53100000Y22390000D01*
X7500000Y24650000D02*
X7500000Y24040000D01*
X8365000Y24650000D02*
X7500000Y24650000D01*
X8000000Y24285000D02*
X8000000Y23540000D01*
X8365000Y24650000D02*
X8000000Y24285000D01*
X7800000Y23740000D02*
X8000000Y23540000D01*
X7500000Y24040000D02*
X7800000Y23740000D01*
D40*
X8210000Y30315000D02*
X8000000Y30105000D01*
X6390000Y30900000D02*
X8000000Y29290000D01*
X8000000Y28860000D02*
X8000000Y28660000D01*
X8000000Y29290000D02*
X8000000Y28860000D01*
X8000000Y30105000D02*
X8000000Y28860000D01*
D41*
X9471001Y25000199D02*
X9120802Y24650000D01*
X9471001Y26101803D02*
X9471001Y25000199D01*
X9919198Y26550000D02*
X9471001Y26101803D01*
X9120802Y24650000D02*
X8365000Y24650000D01*
X10675000Y26550000D02*
X9919198Y26550000D01*
X8350000Y19175000D02*
X8365000Y19190000D01*
X6960000Y19175000D02*
X8350000Y19175000D01*
D42*
X8215000Y30320000D02*
X8210000Y30315000D01*
X9280000Y30320000D02*
X8215000Y30320000D01*
X8715000Y30820000D02*
X8210000Y30315000D01*
X9280000Y30820000D02*
X8715000Y30820000D01*
X8000000Y28660000D02*
X8000000Y28170000D01*
X7710000Y27880000D02*
X6875000Y27880000D01*
X8000000Y28170000D02*
X7710000Y27880000D01*
D41*
X7245000Y24645000D02*
X7770000Y24120000D01*
X6690000Y24645000D02*
X7245000Y24645000D01*
X9850802Y13250000D02*
X8265000Y11664198D01*
X8265000Y11664198D02*
X8265000Y11350000D01*
X10775000Y13250000D02*
X9850802Y13250000D01*
X9020000Y10595000D02*
X8265000Y11350000D01*
X9020000Y10015000D02*
X9020000Y10595000D01*
X12096010Y10646010D02*
X15820000Y14370000D01*
X9071010Y10646010D02*
X12096010Y10646010D01*
X9020000Y10595000D02*
X9071010Y10646010D01*
D42*
X45810000Y17805000D02*
X45820000Y17815000D01*
D41*
X46015000Y25105000D02*
X45790000Y24880000D01*
X46015000Y25980000D02*
X46015000Y25105000D01*
X46015000Y25155000D02*
X46288999Y24881001D01*
X46015000Y25980000D02*
X46015000Y25155000D01*
X50480000Y22390000D02*
X54300000Y22390000D01*
X49740000Y23130000D02*
X50480000Y22390000D01*
X46015000Y27535000D02*
X46310000Y27830000D01*
X46015000Y25980000D02*
X46015000Y27535000D01*
D42*
X47985000Y27805000D02*
X48010000Y27830000D01*
X47985000Y26950000D02*
X47985000Y27805000D01*
D41*
X46310000Y27830000D02*
X48010000Y27830000D01*
X49740000Y25830000D02*
X47400000Y25830000D01*
X49740000Y25830000D02*
X49740000Y23130000D01*
X47400000Y25830000D02*
X47260000Y25690000D01*
X47260000Y25690000D02*
X47260000Y25430000D01*
D42*
X47290000Y25400000D02*
X47290000Y24880000D01*
X47260000Y25430000D02*
X47290000Y25400000D01*
D41*
X49035000Y37710000D02*
X49025000Y37700000D01*
X49035000Y39010000D02*
X49035000Y37710000D01*
D40*
X49490000Y39010000D02*
X50060000Y38440000D01*
X49035000Y39010000D02*
X49490000Y39010000D01*
X50060000Y38440000D02*
X50660000Y37840000D01*
D41*
X44191432Y18083568D02*
X44470000Y17805000D01*
X44191432Y18923072D02*
X44191432Y18083568D01*
X44480000Y17815000D02*
X44470000Y17805000D01*
X45820000Y17815000D02*
X44480000Y17815000D01*
X8365000Y19190000D02*
X8365000Y19523067D01*
X9450000Y20608067D02*
X9450000Y20740000D01*
X8365000Y19523067D02*
X9450000Y20608067D01*
D42*
X7347010Y31857010D02*
X6390000Y30900000D01*
X9242990Y31857010D02*
X7347010Y31857010D01*
X9280000Y31820000D02*
X9242990Y31857010D01*
D41*
X49740000Y26100000D02*
X49740000Y25830000D01*
X48010000Y27830000D02*
X49740000Y26100000D01*
D39*
X29793530Y21900510D02*
X31580945Y21900510D01*
X18988250Y13298022D02*
X23530348Y13298022D01*
X29772510Y21879490D02*
X29793530Y21900510D01*
X14460000Y8769772D02*
X18988250Y13298022D01*
X31580945Y21900510D02*
X31988882Y22308447D01*
X27489490Y17257164D02*
X27489490Y21558470D01*
X23530348Y13298022D02*
X27489490Y17257164D01*
X14460000Y6330000D02*
X14460000Y8769772D01*
X27489490Y21558470D02*
X27810510Y21879490D01*
X27810510Y21879490D02*
X29772510Y21879490D01*
X15555908Y2694092D02*
X14460000Y3790000D01*
X17414867Y2694092D02*
X15555908Y2694092D01*
X18040501Y3319726D02*
X17414867Y2694092D01*
X18040501Y11272600D02*
X18040501Y3319726D01*
X23800000Y12490000D02*
X19257902Y12490000D01*
X26691978Y15381979D02*
X23800000Y12490000D01*
X29344111Y15381979D02*
X26691978Y15381979D01*
X19257902Y12490000D02*
X18040501Y11272600D01*
X30956691Y16345308D02*
X30307440Y16345308D01*
X30307440Y16345308D02*
X29344111Y15381979D01*
X31384490Y17781583D02*
X31384490Y18597468D01*
X23694786Y12744011D02*
X26586765Y15635990D01*
X19152688Y12744011D02*
X23694786Y12744011D01*
X29238897Y15635990D02*
X31384490Y17781583D01*
X17000000Y6330000D02*
X17000000Y10591323D01*
X31725001Y19115001D02*
X32000000Y19390000D01*
X31725001Y18937979D02*
X31725001Y19115001D01*
X26586765Y15635990D02*
X29238897Y15635990D01*
X31384490Y18597468D02*
X31725001Y18937979D01*
X17000000Y10591323D02*
X19152688Y12744011D01*
X15959499Y9910047D02*
X19093463Y13044011D01*
X31600000Y19890000D02*
X32500000Y19890000D01*
X23635562Y13044011D02*
X26481551Y15890001D01*
X30300000Y18590000D02*
X30600000Y18890000D01*
X29133683Y15890001D02*
X30300000Y17056318D01*
X30300000Y17056318D02*
X30300000Y18590000D01*
X30600000Y18890000D02*
X31200000Y18890000D01*
X26481551Y15890001D02*
X29133683Y15890001D01*
X32500000Y19890000D02*
X33000000Y20390000D01*
X15959499Y4830501D02*
X15959499Y9910047D01*
X17000000Y3790000D02*
X15959499Y4830501D01*
X19093463Y13044011D02*
X23635562Y13044011D01*
X31310510Y19600510D02*
X31600000Y19890000D01*
X31310510Y19000510D02*
X31310510Y19600510D01*
X31200000Y18890000D02*
X31310510Y19000510D01*
X35303027Y22386973D02*
X35303027Y16645540D01*
X35340510Y26997468D02*
X35340510Y25782532D01*
X35340510Y25782532D02*
X34500000Y24942022D01*
X35060967Y15319581D02*
X33815635Y14074249D01*
X34447978Y27890000D02*
X35340510Y26997468D01*
X35060967Y16403480D02*
X35060967Y15319581D01*
X34500000Y24942022D02*
X34500000Y23190000D01*
X34500000Y23190000D02*
X35303027Y22386973D01*
X29000000Y29390000D02*
X29500000Y28890000D01*
X33815635Y14074249D02*
X33815635Y13781511D01*
X35303027Y16645540D02*
X35060967Y16403480D01*
X32710469Y7175469D02*
X31990000Y6455000D01*
X32710469Y9967153D02*
X32710469Y7175469D01*
X29500000Y28890000D02*
X30220000Y28890000D01*
X30529490Y28580510D02*
X30529490Y28210510D01*
X30220000Y28890000D02*
X30529490Y28580510D01*
X30850000Y27890000D02*
X34447978Y27890000D01*
X30529490Y28210510D02*
X30850000Y27890000D01*
X30008483Y19405000D02*
X29967473Y19446010D01*
X30800000Y19405000D02*
X30008483Y19405000D01*
X34492167Y13806990D02*
X35386488Y13806990D01*
X35386488Y13806990D02*
X35516468Y13677010D01*
X32812455Y13806990D02*
X32411316Y13806990D01*
X34552945Y15547480D02*
X32812455Y13806990D01*
X32000000Y24390000D02*
X33410428Y22979572D01*
X34552945Y16613908D02*
X34552945Y15547480D01*
X33991978Y22979572D02*
X34764521Y22207029D01*
X34764521Y16825483D02*
X34552945Y16613908D01*
X33410428Y22979572D02*
X33991978Y22979572D01*
X34764521Y22207029D02*
X34764521Y16825483D01*
X38070000Y10220000D02*
X39030000Y9260000D01*
X38070000Y11165000D02*
X38070000Y10220000D01*
X44980000Y28355000D02*
X44540000Y28795000D01*
X44980000Y26990000D02*
X44980000Y28355000D01*
X50900000Y28390000D02*
X51850000Y29340000D01*
X50500000Y28390000D02*
X50900000Y28390000D01*
X39989490Y23793745D02*
X41662611Y25466866D01*
X39989490Y22067787D02*
X39989490Y23793745D01*
X38918082Y21385287D02*
X39306990Y21385287D01*
X41662611Y25466866D02*
X41662611Y28133921D01*
X39306990Y21385287D02*
X39989490Y22067787D01*
X49010000Y28795000D02*
X49010000Y28650000D01*
X50228942Y28390000D02*
X50500000Y28390000D01*
X50113441Y28274499D02*
X50228942Y28390000D01*
X49385501Y28274499D02*
X50113441Y28274499D01*
X49010000Y28650000D02*
X49385501Y28274499D01*
X43380000Y24210000D02*
X43380000Y28795000D01*
X44620000Y22970000D02*
X43380000Y24210000D01*
X40590000Y29870000D02*
X40320000Y29870000D01*
X41200000Y29800000D02*
X40420000Y29800000D01*
X42140000Y28860000D02*
X41200000Y29800000D01*
X42140000Y27950000D02*
X42140000Y28860000D01*
X41937468Y27747468D02*
X42140000Y27950000D01*
X41934490Y27747468D02*
X41937468Y27747468D01*
X41934490Y24954490D02*
X41934490Y27747468D01*
X41800000Y24820000D02*
X41934490Y24954490D01*
X50825850Y23465850D02*
X51650000Y24290000D01*
X50535000Y23485000D02*
X50825850Y23465850D01*
X51650000Y25400000D02*
X52990000Y26740000D01*
X50520000Y25400000D02*
X51650000Y25400000D01*
X34241693Y28455510D02*
X35780827Y26916376D01*
X34000000Y28455510D02*
X34241693Y28455510D01*
X35780827Y25635749D02*
X35781905Y25634671D01*
X35780827Y26916376D02*
X35780827Y25635749D01*
X28260000Y7810000D02*
X28440501Y7990501D01*
X28440501Y12522264D02*
X28471510Y12553273D01*
X28471510Y12553273D02*
X28471510Y13026727D01*
X28136727Y13361510D02*
X28125470Y13361510D01*
X27979490Y13507490D02*
X27979490Y14804490D01*
X28471510Y13026727D02*
X28136727Y13361510D01*
X28125470Y13361510D02*
X27979490Y13507490D01*
X28440501Y7990501D02*
X28440501Y12522264D01*
X27979490Y14804490D02*
X28005000Y14830000D01*
X28759499Y10115071D02*
X28986778Y9887792D01*
X28465000Y13820000D02*
X28759499Y13525501D01*
X28986778Y9887792D02*
X29375686Y9887792D01*
X28759499Y13525501D02*
X28759499Y10115071D01*
X30695000Y13750000D02*
X30848237Y13750000D01*
X31640501Y12957736D02*
X31640501Y10190501D01*
X31640501Y10190501D02*
X31549499Y10099499D01*
X31347820Y10099499D02*
X29107406Y7859085D01*
X31549499Y10099499D02*
X31347820Y10099499D01*
X30848237Y13750000D02*
X31640501Y12957736D01*
X29107406Y7859085D02*
X29107406Y7470177D01*
D41*
X34200000Y11190000D02*
X35000000Y10390000D01*
X35000000Y10390000D02*
X35000000Y7090000D01*
D39*
X40344521Y16734520D02*
X40089513Y16479512D01*
X37739146Y18287478D02*
X38400000Y18948332D01*
X38400000Y18948332D02*
X38400000Y19590000D01*
X39600000Y20190000D02*
X40344521Y19445479D01*
X40344521Y19445479D02*
X40344521Y16734520D01*
X39000000Y20190000D02*
X39600000Y20190000D01*
X40089513Y16479512D02*
X40089513Y8288656D01*
X42048169Y6330000D02*
X43130000Y6330000D01*
X38400000Y19590000D02*
X39000000Y20190000D01*
X40089513Y8288656D02*
X42048169Y6330000D01*
X40343524Y15743117D02*
X40997378Y16396971D01*
X40343524Y8690695D02*
X40343524Y15743117D01*
X41398227Y7635991D02*
X40343524Y8690695D01*
X44364009Y7635991D02*
X41398227Y7635991D01*
X45670000Y6330000D02*
X44364009Y7635991D01*
X37135365Y23405365D02*
X37135365Y22983989D01*
X37220000Y23490000D02*
X37135365Y23405365D01*
X37515000Y23490000D02*
X37220000Y23490000D01*
X38150000Y24040000D02*
X37750000Y24040000D01*
X38150000Y24540000D02*
X38350000Y24340000D01*
X37650000Y24540000D02*
X38150000Y24540000D01*
X37500000Y24840000D02*
X37500000Y24690000D01*
X37674203Y25014203D02*
X37500000Y24840000D01*
X38350000Y25490000D02*
X38350000Y25290000D01*
X37750000Y24040000D02*
X37515000Y23810000D01*
X38100000Y25740000D02*
X38350000Y25490000D01*
X20490000Y46000000D02*
X20490000Y43700000D01*
X38074203Y25014203D02*
X37674203Y25014203D01*
X20490000Y43700000D02*
X22200000Y41990000D01*
X37500000Y24690000D02*
X37650000Y24540000D01*
X26100000Y41990000D02*
X31500000Y36590000D01*
X31500000Y36590000D02*
X31500000Y33412978D01*
X37515000Y23810000D02*
X37515000Y23490000D01*
X31500000Y33412978D02*
X34100000Y30812978D01*
X22200000Y41990000D02*
X26100000Y41990000D01*
X38606043Y28166558D02*
X38100000Y27640000D01*
X38350000Y24340000D02*
X38350000Y24240000D01*
X34100000Y30812978D02*
X34100000Y29190000D01*
X34100000Y29190000D02*
X34500000Y28790000D01*
X34500000Y28790000D02*
X38200000Y28790000D01*
X38350000Y24240000D02*
X38150000Y24040000D01*
X38350000Y25290000D02*
X38074203Y25014203D01*
X38200000Y28790000D02*
X38606043Y28383957D01*
X38606043Y28383957D02*
X38606043Y28166558D01*
X38100000Y27640000D02*
X38100000Y25740000D01*
X40244012Y24407490D02*
X39500000Y23663478D01*
X34400000Y29290000D02*
X34600000Y29090000D01*
X31800000Y33490000D02*
X34400000Y30890000D01*
X39500000Y22274008D02*
X39137896Y21911904D01*
X34400000Y30890000D02*
X34400000Y29290000D01*
X34600000Y29090000D02*
X38400000Y29090000D01*
X38400000Y29090000D02*
X40455503Y27034497D01*
X38521904Y21911904D02*
X38000000Y21390000D01*
X31800000Y36690000D02*
X31800000Y33490000D01*
X39500000Y23663478D02*
X39500000Y22274008D01*
X40244012Y26036610D02*
X40244012Y24407490D01*
X40455503Y27034497D02*
X40455503Y26248101D01*
X22900000Y42390000D02*
X26100000Y42390000D01*
X22490000Y42800000D02*
X22900000Y42390000D01*
X22490000Y46000000D02*
X22490000Y42800000D01*
X26100000Y42390000D02*
X31800000Y36690000D01*
X40455503Y26248101D02*
X40244012Y26036610D01*
X39137896Y21911904D02*
X38521904Y21911904D01*
X38485000Y23490000D02*
X38485000Y22821742D01*
X38485000Y22821742D02*
X38929337Y22377405D01*
X29195487Y14609513D02*
X28975000Y14830000D01*
X32896528Y14609513D02*
X29195487Y14609513D01*
X33489490Y15202475D02*
X32896528Y14609513D01*
X33489490Y21808965D02*
X33489490Y15202475D01*
X32989999Y22308456D02*
X33489490Y21808965D01*
X29970502Y14355502D02*
X29435000Y13820000D01*
X34298934Y15652693D02*
X33001743Y14355502D01*
X33001743Y14355502D02*
X29970502Y14355502D01*
X34298934Y16719122D02*
X34298934Y15652693D01*
X34510510Y16930697D02*
X34298934Y16719122D01*
X34510510Y21787945D02*
X34510510Y16930697D01*
X33989999Y22308456D02*
X34510510Y21787945D01*
X33274999Y24115001D02*
X33000000Y24390000D01*
X33274999Y24055777D02*
X33274999Y24115001D01*
X35027289Y22303487D02*
X33274999Y24055777D01*
X34806956Y16508694D02*
X35027288Y16729025D01*
X34806956Y15442266D02*
X34806956Y16508694D01*
X32073511Y13341489D02*
X32706179Y13341489D01*
X35027288Y16729025D02*
X35027289Y22303487D01*
X32706179Y13341489D02*
X34806956Y15442266D01*
X31665000Y13750000D02*
X32073511Y13341489D01*
X36200000Y20475000D02*
X36057807Y20475000D01*
X36057807Y20475000D02*
X36020442Y20437635D01*
X35991978Y18530949D02*
X36098875Y18637846D01*
X35991978Y13372035D02*
X35991978Y18530949D01*
X35189943Y12570000D02*
X35991978Y13372035D01*
X31944009Y10024785D02*
X31944009Y11824009D01*
X31575215Y9655991D02*
X31944009Y10024785D01*
X29635502Y7309329D02*
X29635502Y7936278D01*
X28883964Y7004675D02*
X29330848Y7004675D01*
X27375501Y7344499D02*
X28544140Y7344499D01*
X27308744Y7352020D02*
X27375501Y7344499D01*
X27245335Y7374208D02*
X27308744Y7352020D01*
X27188454Y7409949D02*
X27245335Y7374208D01*
X25883022Y7577742D02*
X25905210Y7514333D01*
X25340951Y7908071D02*
X25388454Y7955574D01*
X31355215Y9655991D02*
X31575215Y9655991D01*
X25875501Y7644499D02*
X25883022Y7577742D01*
X25875501Y7721025D02*
X25875501Y7644499D01*
X25867979Y7787781D02*
X25875501Y7721025D01*
X25845791Y7851190D02*
X25867979Y7787781D01*
X25810050Y7908071D02*
X25845791Y7851190D01*
X25705666Y7991315D02*
X25762547Y7955574D01*
X25940951Y7457452D02*
X25988454Y7409949D01*
X25575501Y8021025D02*
X25642257Y8013503D01*
X26410050Y7457452D02*
X26445791Y7514333D01*
X29635502Y7936278D02*
X31355215Y9655991D01*
X26962547Y7955574D02*
X27010050Y7908071D01*
X24076776Y7607870D02*
X24340147Y7344499D01*
X25762547Y7955574D02*
X25810050Y7908071D01*
X32690000Y12570000D02*
X35189943Y12570000D01*
X24340147Y7344499D02*
X24975501Y7344499D01*
X28544140Y7344499D02*
X28883964Y7004675D01*
X25162547Y7409949D02*
X25210050Y7457452D01*
X25642257Y8013503D02*
X25705666Y7991315D01*
X24975501Y7344499D02*
X25042257Y7352020D01*
X26445791Y7514333D02*
X26467979Y7577742D01*
X25042257Y7352020D02*
X25105666Y7374208D01*
X26108744Y7352020D02*
X26175501Y7344499D01*
X25445335Y7991315D02*
X25508744Y8013503D01*
X26475501Y7644499D02*
X26475501Y7721025D01*
X26475501Y7721025D02*
X26483022Y7787781D01*
X25388454Y7955574D02*
X25445335Y7991315D01*
X26362547Y7409949D02*
X26410050Y7457452D01*
X25245791Y7514333D02*
X25267979Y7577742D01*
X25275501Y7721025D02*
X25283022Y7787781D01*
X29330848Y7004675D02*
X29635502Y7309329D01*
X25105666Y7374208D02*
X25162547Y7409949D01*
X25275501Y7644499D02*
X25275501Y7721025D01*
X26467979Y7577742D02*
X26475501Y7644499D01*
X25283022Y7787781D02*
X25305210Y7851190D01*
X26842257Y8013503D02*
X26905666Y7991315D01*
X25267979Y7577742D02*
X25275501Y7644499D01*
X25305210Y7851190D02*
X25340951Y7908071D01*
X25988454Y7409949D02*
X26045335Y7374208D01*
X27083022Y7577742D02*
X27105210Y7514333D01*
X27140951Y7457452D02*
X27188454Y7409949D01*
X26175501Y7344499D02*
X26242257Y7352020D01*
X26242257Y7352020D02*
X26305666Y7374208D01*
X26775501Y8021025D02*
X26842257Y8013503D01*
X26905666Y7991315D02*
X26962547Y7955574D01*
X26305666Y7374208D02*
X26362547Y7409949D01*
X25210050Y7457452D02*
X25245791Y7514333D01*
X26505210Y7851190D02*
X26540951Y7908071D01*
X26483022Y7787781D02*
X26505210Y7851190D01*
X27105210Y7514333D02*
X27140951Y7457452D01*
X26540951Y7908071D02*
X26588454Y7955574D01*
X26588454Y7955574D02*
X26645335Y7991315D01*
X26708744Y8013503D02*
X26775501Y8021025D01*
X26045335Y7374208D02*
X26108744Y7352020D01*
X26645335Y7991315D02*
X26708744Y8013503D01*
X25508744Y8013503D02*
X25575501Y8021025D01*
X27010050Y7908071D02*
X27045791Y7851190D01*
X27045791Y7851190D02*
X27067979Y7787781D01*
X25905210Y7514333D02*
X25940951Y7457452D01*
X27075501Y7721025D02*
X27075501Y7644499D01*
X31944009Y11824009D02*
X32690000Y12570000D01*
X27067979Y7787781D02*
X27075501Y7721025D01*
X27075501Y7644499D02*
X27083022Y7577742D01*
X35295157Y12315989D02*
X32833087Y12315989D01*
X36350771Y18246377D02*
X36245991Y18141597D01*
X29889513Y7831065D02*
X29889513Y7204115D01*
X29889513Y7204115D02*
X29436062Y6750664D01*
X29436062Y6750664D02*
X28778750Y6750664D01*
X32833087Y12315989D02*
X32198020Y11680922D01*
X32198020Y9919571D02*
X31680429Y9401980D01*
X28439414Y7090000D02*
X23900000Y7090000D01*
X31460428Y9401980D02*
X29889513Y7831065D01*
X28778750Y6750664D02*
X28439414Y7090000D01*
X36856377Y18246377D02*
X36350771Y18246377D01*
X31680429Y9401980D02*
X31460428Y9401980D01*
X23900000Y7090000D02*
X23400000Y7590000D01*
X32198020Y11680922D02*
X32198020Y9919571D01*
X36245991Y18141597D02*
X36245991Y13266823D01*
X36245991Y13266823D02*
X35295157Y12315989D01*
X37000000Y18390000D02*
X36856377Y18246377D01*
X36200000Y19505000D02*
X36882548Y19505000D01*
X36882548Y19505000D02*
X37009806Y19377742D01*
D41*
X9900000Y43090000D02*
X8791848Y41981848D01*
X8791848Y41981848D02*
X8791848Y40720802D01*
X23000000Y8353367D02*
X22499623Y7852990D01*
X23000000Y11190000D02*
X23000000Y8353367D01*
D39*
X13907600Y38247600D02*
X13800000Y38140000D01*
X21038500Y38247600D02*
X13907600Y38247600D01*
X21250000Y38036100D02*
X21038500Y38247600D01*
X15183992Y38903964D02*
X15221402Y38927470D01*
X15152750Y38872722D02*
X15183992Y38903964D01*
X15529244Y38664097D02*
X15552750Y38626687D01*
X15707010Y38552400D02*
X21038500Y38552400D01*
X15114651Y38793609D02*
X15129244Y38835312D01*
X15263105Y38942063D02*
X15307010Y38947010D01*
X21038500Y38552400D02*
X21250000Y38763900D01*
X15035417Y38595445D02*
X15066659Y38626687D01*
X15583992Y38595445D02*
X15621402Y38571939D01*
X15129244Y38835312D02*
X15152750Y38872722D01*
X15090165Y38664097D02*
X15104758Y38705800D01*
X15398007Y38927470D02*
X15435417Y38903964D01*
X15552750Y38626687D02*
X15583992Y38595445D01*
X14998007Y38571939D02*
X15035417Y38595445D01*
X15490165Y38835312D02*
X15504758Y38793609D01*
X14912400Y38552400D02*
X14956304Y38557346D01*
X15621402Y38571939D02*
X15663105Y38557346D01*
X13800000Y38640000D02*
X13887600Y38552400D01*
X15066659Y38626687D02*
X15090165Y38664097D01*
X14956304Y38557346D02*
X14998007Y38571939D01*
X15221402Y38927470D02*
X15263105Y38942063D01*
X15307010Y38947010D02*
X15312400Y38947010D01*
X15466659Y38872722D02*
X15490165Y38835312D01*
X15312400Y38947010D02*
X15356304Y38942063D01*
X15356304Y38942063D02*
X15398007Y38927470D01*
X15504758Y38793609D02*
X15514651Y38705800D01*
X15435417Y38903964D02*
X15466659Y38872722D01*
X15104758Y38705800D02*
X15114651Y38793609D01*
X15514651Y38705800D02*
X15529244Y38664097D01*
X13887600Y38552400D02*
X14912400Y38552400D01*
X15663105Y38557346D02*
X15707010Y38552400D01*
X22885000Y21275000D02*
X23000000Y21390000D01*
X23300000Y21690000D02*
X23000000Y21390000D01*
X23300000Y22205000D02*
X23300000Y21690000D01*
D41*
X6600000Y6990000D02*
X6600000Y6590000D01*
D42*
X21785000Y18175000D02*
X22000000Y18390000D01*
X21000000Y18175000D02*
X21785000Y18175000D01*
X19900000Y21490000D02*
X21000000Y20390000D01*
X19100000Y21490000D02*
X19900000Y21490000D01*
X22000000Y16105000D02*
X22000000Y15390000D01*
D40*
X20825000Y20390000D02*
X20928010Y20390000D01*
X19100000Y21490000D02*
X19725000Y21490000D01*
X19725000Y21490000D02*
X20825000Y20390000D01*
D42*
X23000000Y18390000D02*
X23000000Y17625000D01*
X21750000Y19640000D02*
X21000000Y20390000D01*
X22015000Y19640000D02*
X21750000Y19640000D01*
D41*
X6600000Y6365000D02*
X5750000Y5515000D01*
X6600000Y6990000D02*
X6600000Y6365000D01*
X5750000Y5515000D02*
X5750000Y4740000D01*
X5750000Y4740000D02*
X5800000Y4690000D01*
D39*
X20515000Y33390000D02*
X20000000Y33390000D01*
X22485000Y25390000D02*
X23000000Y25390000D01*
X20071544Y32390000D02*
X19990001Y32308457D01*
X20515000Y32390000D02*
X20071544Y32390000D01*
D41*
X6400000Y43990000D02*
X6400000Y44762238D01*
X6400000Y44762238D02*
X5877999Y45284239D01*
D42*
X21485000Y27390000D02*
X22000000Y27390000D01*
D41*
X23107251Y28893841D02*
X24170719Y28893841D01*
X22900000Y30090000D02*
X22900000Y29101092D01*
D39*
X24170719Y28780719D02*
X24170719Y28893841D01*
D41*
X22900000Y29101092D02*
X23107251Y28893841D01*
D39*
X23485000Y28390000D02*
X23780000Y28390000D01*
X23780000Y28390000D02*
X24170719Y28780719D01*
D42*
X20515000Y23390000D02*
X19549898Y23390000D01*
X19549898Y23390000D02*
X19104115Y23835783D01*
X24984224Y16490776D02*
X25085000Y16390000D01*
X24984224Y17315263D02*
X24984224Y16490776D01*
X22402990Y15792990D02*
X22000000Y15390000D01*
X24487990Y15792990D02*
X22402990Y15792990D01*
X25085000Y16390000D02*
X24487990Y15792990D01*
D43*
X16900000Y19630000D02*
X17190000Y19920000D01*
X15370000Y19630000D02*
X16900000Y19630000D01*
D42*
X9715000Y23360000D02*
X13916964Y23360000D01*
X13916964Y23360000D02*
X15644999Y21631965D01*
X15644999Y21631965D02*
X15644999Y19904999D01*
X15644999Y19904999D02*
X15370000Y19630000D01*
D43*
X13010000Y17270000D02*
X10800000Y17270000D01*
X15370000Y19630000D02*
X13010000Y17270000D01*
D40*
X5963010Y15886990D02*
X5800000Y16050000D01*
X10071990Y17270000D02*
X8688980Y15886990D01*
X10800000Y17270000D02*
X10071990Y17270000D01*
X8688980Y15886990D02*
X5963010Y15886990D01*
D39*
X33115000Y34505000D02*
X33000000Y34390000D01*
X33115000Y35190000D02*
X33115000Y34505000D01*
X35000000Y34705000D02*
X35015000Y34690000D01*
X35000000Y35390000D02*
X35000000Y34705000D01*
X39285000Y31390000D02*
X40000000Y31390000D01*
X39200000Y33190000D02*
X39000000Y33390000D01*
X39715000Y33190000D02*
X39200000Y33190000D01*
X35100000Y35490000D02*
X35000000Y35390000D01*
X35100000Y36790000D02*
X35100000Y35490000D01*
D43*
X54544399Y24514287D02*
X54544399Y38345601D01*
X56170000Y24110000D02*
X54948686Y24110000D01*
X54948686Y24110000D02*
X54544399Y24514287D01*
X53600000Y39290000D02*
X53600000Y40990000D01*
X54544399Y38345601D02*
X53600000Y39290000D01*
D39*
X34715000Y32870000D02*
X34299916Y32454916D01*
X34715000Y33190000D02*
X34715000Y32870000D01*
X34299916Y32454916D02*
X33979470Y32454916D01*
D43*
X50500000Y43640000D02*
X50550000Y43640000D01*
X51200000Y43640000D02*
X50500000Y43640000D01*
D41*
X42100000Y31090000D02*
X41700000Y31490000D01*
X41700000Y31490000D02*
X41700000Y30790000D01*
X41800000Y30790000D02*
X42100000Y31090000D01*
X41700000Y30790000D02*
X41800000Y30790000D01*
D39*
X36715000Y32870000D02*
X36715000Y33190000D01*
X36404521Y32559521D02*
X36715000Y32870000D01*
X36050000Y32490000D02*
X36404521Y32559521D01*
D41*
X44610000Y34470000D02*
X42780000Y32640000D01*
X46105000Y34470000D02*
X44610000Y34470000D01*
X42780000Y32570000D02*
X41700000Y31490000D01*
X42780000Y32640000D02*
X42780000Y32570000D01*
X42100000Y31960000D02*
X42780000Y32640000D01*
X42100000Y31090000D02*
X42100000Y31960000D01*
D43*
X53600000Y39290000D02*
X50500000Y42390000D01*
X50500000Y42390000D02*
X50500000Y43251092D01*
X50500000Y43251092D02*
X50500000Y43640000D01*
X39790000Y36900000D02*
X42530000Y36900000D01*
X42530000Y36900000D02*
X42700000Y36730000D01*
X42700000Y36730000D02*
X42700000Y34470000D01*
D41*
X42700000Y32720000D02*
X42780000Y32640000D01*
X42700000Y34470000D02*
X42700000Y32720000D01*
D39*
X11050000Y40340000D02*
X11050000Y39390000D01*
X39990001Y25433859D02*
X39990001Y26471543D01*
X39007558Y24451416D02*
X39990001Y25433859D01*
X10800000Y40590000D02*
X11050000Y40340000D01*
X10800000Y41105000D02*
X10800000Y40590000D01*
X10289490Y41295510D02*
X10480000Y41105000D01*
X10289490Y42479490D02*
X10289490Y41295510D01*
X10480000Y41105000D02*
X10800000Y41105000D01*
X10700000Y42890000D02*
X10289490Y42479490D01*
X10700000Y43090000D02*
X10700000Y42890000D01*
X11500000Y43890000D02*
X10700000Y43090000D01*
X11550000Y40560000D02*
X11550000Y39390000D01*
X11800000Y40810000D02*
X11550000Y40560000D01*
X11800000Y41105000D02*
X11800000Y40810000D01*
X12500000Y48890000D02*
X12500000Y42890000D01*
X12500000Y42890000D02*
X12900000Y42490000D01*
X5905000Y27880000D02*
X2500000Y27880000D01*
X2500000Y27880000D02*
X2500000Y32750000D01*
X6846980Y25600000D02*
X5500000Y24253020D01*
X5500000Y23729898D02*
X4825604Y23055502D01*
X8365000Y25600000D02*
X6846980Y25600000D01*
X5500000Y24253020D02*
X5500000Y23729898D01*
X2500000Y23349898D02*
X2500000Y27880000D01*
X2794396Y23055502D02*
X2500000Y23349898D01*
X4825604Y23055502D02*
X2794396Y23055502D01*
X2500000Y44840000D02*
X2500000Y32750000D01*
X3390000Y45730000D02*
X2500000Y44840000D01*
X4640102Y45730000D02*
X3390000Y45730000D01*
X53490000Y48220000D02*
X51220000Y50490000D01*
X55664031Y22624101D02*
X56774101Y22624101D01*
X47790000Y24890000D02*
X48050000Y25150000D01*
X51220000Y50490000D02*
X9400102Y50490000D01*
X48050000Y25150000D02*
X48580000Y25150000D01*
X47790000Y24880000D02*
X47790000Y24890000D01*
X48580000Y25150000D02*
X49100000Y24630000D01*
X57655899Y47704101D02*
X57140000Y48220000D01*
X54669930Y21630000D02*
X55664031Y22624101D01*
X49100000Y24630000D02*
X49100000Y23120000D01*
X50590000Y21630000D02*
X54669930Y21630000D01*
X56774101Y22624101D02*
X57655899Y23505899D01*
X9400102Y50490000D02*
X4640102Y45730000D01*
X57140000Y48220000D02*
X53490000Y48220000D01*
X49100000Y23120000D02*
X50590000Y21630000D01*
X57655899Y23505899D02*
X57655899Y47704101D01*
X2750000Y33000000D02*
X8600000Y33000000D01*
X2500000Y32750000D02*
X2750000Y33000000D01*
X8600000Y33000000D02*
X9280000Y32320000D01*
D42*
X8345000Y26530000D02*
X8365000Y26550000D01*
X6875000Y26530000D02*
X8345000Y26530000D01*
X9055000Y27840000D02*
X9065000Y27830000D01*
X9055000Y28840000D02*
X9055000Y27840000D01*
X9065000Y27250000D02*
X8365000Y26550000D01*
X9065000Y27830000D02*
X9065000Y27250000D01*
D39*
X28000000Y34605000D02*
X28215000Y34390000D01*
D40*
X18800000Y34390000D02*
X22000000Y34390000D01*
D42*
X30339495Y34405000D02*
X30700000Y34405000D01*
X29506294Y35238201D02*
X30339495Y34405000D01*
X28215000Y34390000D02*
X27000000Y34390000D01*
X24989999Y34315001D02*
X24400000Y34905000D01*
X24989999Y34308456D02*
X24989999Y34315001D01*
X22715000Y33675000D02*
X22715000Y33390000D01*
X22000000Y34390000D02*
X22715000Y33675000D01*
D39*
X18800000Y34855000D02*
X18800000Y34390000D01*
X18635000Y35020000D02*
X18800000Y34855000D01*
X18635000Y35340000D02*
X18635000Y35020000D01*
D40*
X18391156Y34390000D02*
X18800000Y34390000D01*
X17485000Y33483844D02*
X18391156Y34390000D01*
X17485000Y32403010D02*
X16761990Y31680000D01*
X17485000Y33483844D02*
X17485000Y32403010D01*
X16761990Y31680000D02*
X15510000Y31680000D01*
X15510000Y31680000D02*
X15200000Y31370000D01*
D42*
X14110348Y29905000D02*
X13160000Y29905000D01*
X14757010Y30927010D02*
X14757010Y30551662D01*
X14757010Y30551662D02*
X14110348Y29905000D01*
X15200000Y31370000D02*
X14757010Y30927010D01*
X12495000Y29905000D02*
X12080000Y30320000D01*
X13160000Y29905000D02*
X12495000Y29905000D01*
X12080000Y30320000D02*
X12080000Y30820000D01*
D39*
X47015000Y26950000D02*
X46790000Y26725000D01*
X46790000Y26230000D02*
X46880000Y26320000D01*
X46790000Y25920000D02*
X46790000Y26230000D01*
X46790000Y26725000D02*
X46790000Y25920000D01*
X46790000Y25920000D02*
X46790000Y24880000D01*
X47247000Y35800000D02*
X46515000Y35800000D01*
X47732501Y36285501D02*
X47247000Y35800000D01*
X48406111Y36285501D02*
X47732501Y36285501D01*
X48592819Y36472209D02*
X48406111Y36285501D01*
X47860000Y37540000D02*
X48007856Y37540000D01*
X48592819Y36955037D02*
X48592819Y36472209D01*
X48007856Y37540000D02*
X48592819Y36955037D01*
X48410176Y15995176D02*
X47720000Y15305000D01*
X48410176Y17136234D02*
X48410176Y15995176D01*
X47720000Y15305000D02*
X47720000Y15150000D01*
X48580000Y14445000D02*
X47720000Y15305000D01*
X48580000Y14135000D02*
X48580000Y14445000D01*
X48579991Y14135000D02*
X48580000Y14135000D01*
X48579991Y13792069D02*
X48579991Y14135000D01*
X44390000Y9602078D02*
X48579991Y13792069D01*
X2560000Y17060000D02*
X2560000Y8559930D01*
X20010429Y3580510D02*
X20789571Y3580510D01*
X20789571Y3580510D02*
X21360081Y3010000D01*
X12030501Y5109441D02*
X12030501Y4679557D01*
X4445121Y17544101D02*
X3044101Y17544101D01*
X46710501Y6829441D02*
X45939942Y7600000D01*
X10560565Y21090000D02*
X9220000Y19749435D01*
X26310000Y3010000D02*
X27080501Y3780501D01*
X44390000Y8267098D02*
X44390000Y9602078D01*
X5590510Y18689490D02*
X4445121Y17544101D01*
X9220000Y19749435D02*
X9220000Y18802098D01*
X14269977Y2440081D02*
X18870000Y2440081D01*
X38492127Y5080000D02*
X46430000Y5080000D01*
X18870000Y2440081D02*
X20010429Y3580510D01*
X9349942Y7790000D02*
X12030501Y5109441D01*
X9220000Y18802098D02*
X9107392Y18689490D01*
X3044101Y17544101D02*
X2560000Y17060000D01*
X21360081Y3010000D02*
X26310000Y3010000D01*
X45057098Y7600000D02*
X44390000Y8267098D01*
X2560000Y8559930D02*
X3329930Y7790000D01*
X10875000Y21090000D02*
X10560565Y21090000D01*
X3329930Y7790000D02*
X9349942Y7790000D01*
X9107392Y18689490D02*
X5590510Y18689490D01*
X12030501Y4679557D02*
X14269977Y2440081D01*
X45939942Y7600000D02*
X45057098Y7600000D01*
X27080501Y3780501D02*
X37192628Y3780501D01*
X37192628Y3780501D02*
X38492127Y5080000D01*
X46430000Y5080000D02*
X46710501Y5360501D01*
X46710501Y5360501D02*
X46710501Y6829441D01*
D42*
X46375000Y19990000D02*
X46375000Y21000000D01*
X46790000Y21415000D02*
X46790000Y22080000D01*
X46375000Y21000000D02*
X46790000Y21415000D01*
X47205000Y21000000D02*
X46790000Y21415000D01*
X47325000Y21000000D02*
X47205000Y21000000D01*
X49090000Y18685000D02*
X49090000Y17715000D01*
X48990000Y17815000D02*
X49090000Y17715000D01*
X47720000Y17815000D02*
X48990000Y17815000D01*
X8300000Y37640000D02*
X7850000Y38090000D01*
X9800000Y37640000D02*
X8300000Y37640000D01*
X6150000Y35990000D02*
X6150000Y35890000D01*
X8875000Y36890000D02*
X7050000Y36890000D01*
X7050000Y36890000D02*
X6150000Y35990000D01*
X9125000Y37140000D02*
X8875000Y36890000D01*
X9800000Y37140000D02*
X9125000Y37140000D01*
D39*
X37000000Y15755000D02*
X36835000Y15590000D01*
X37000000Y16390000D02*
X37000000Y15755000D01*
X13897600Y36737600D02*
X13800000Y36640000D01*
X15511500Y36737600D02*
X13897600Y36737600D01*
X16513900Y37740000D02*
X15511500Y36737600D01*
X38000000Y15785000D02*
X37805000Y15590000D01*
X38000000Y16390000D02*
X38000000Y15785000D01*
X13897600Y37042400D02*
X13800000Y37140000D01*
X15385247Y37042400D02*
X13897600Y37042400D01*
X15786100Y37443253D02*
X15385247Y37042400D01*
X15786100Y37740000D02*
X15786100Y37443253D01*
X36034838Y26040069D02*
X36300000Y25774907D01*
X36034838Y27423167D02*
X36034838Y26040069D01*
X36300000Y25774907D02*
X36300000Y24690000D01*
X36000000Y24390000D02*
X35000000Y24390000D01*
X36300000Y24690000D02*
X36000000Y24390000D01*
X42072591Y30380501D02*
X41700000Y30007910D01*
X50279445Y30380501D02*
X42072591Y30380501D01*
X52115502Y39134498D02*
X52115502Y32216558D01*
X52115502Y32216558D02*
X50279445Y30380501D01*
X45070000Y43100000D02*
X45740000Y42430000D01*
X45070000Y43768528D02*
X45070000Y43100000D01*
X48820000Y42430000D02*
X52115502Y39134498D01*
X45740000Y42430000D02*
X48820000Y42430000D01*
X42838528Y46000000D02*
X45070000Y43768528D01*
X41990000Y46000000D02*
X42838528Y46000000D01*
X41122316Y27109353D02*
X41122316Y28455990D01*
X41122316Y28455990D02*
X41087379Y28490927D01*
X49890000Y28740000D02*
X52369513Y31219513D01*
X45350000Y43180000D02*
X45350000Y44390000D01*
X52369513Y39239712D02*
X48919225Y42690000D01*
X48919225Y42690000D02*
X45840000Y42690000D01*
X45840000Y42690000D02*
X45350000Y43180000D01*
X45350000Y44390000D02*
X41350000Y48390000D01*
X52369513Y31219513D02*
X52369513Y39239712D01*
X41350000Y48390000D02*
X38700000Y48390000D01*
X40777821Y19890000D02*
X40752812Y19915009D01*
X41915000Y19890000D02*
X40777821Y19890000D01*
X17500000Y35175000D02*
X17665000Y35340000D01*
X17500000Y34640000D02*
X17500000Y35175000D01*
X16500000Y24640000D02*
X19500000Y24640000D01*
X22000000Y26390000D02*
X21250000Y26390000D01*
X21250000Y26390000D02*
X19500000Y24640000D01*
D42*
X49285000Y7390000D02*
X49595276Y7390000D01*
X49595276Y7390000D02*
X49797638Y7187638D01*
D39*
X37087415Y4034512D02*
X26975287Y4034512D01*
X39764458Y19666318D02*
X40090510Y19340265D01*
X39835502Y6782599D02*
X37087415Y4034512D01*
X40090510Y19340265D02*
X40090510Y16839734D01*
X39835502Y16584726D02*
X39835502Y6782599D01*
X38906892Y19391319D02*
X39181891Y19666318D01*
X26530776Y3590000D02*
X24700000Y3590000D01*
X40090510Y16839734D02*
X39835502Y16584726D01*
X39181891Y19666318D02*
X39764458Y19666318D01*
X26975287Y4034512D02*
X26530776Y3590000D01*
X32457053Y39647053D02*
X32657053Y39647053D01*
X31000000Y38190000D02*
X32457053Y39647053D01*
X31957053Y40247053D02*
X31957053Y40347053D01*
X30500000Y38790000D02*
X31957053Y40247053D01*
X25761500Y40083227D02*
X25550000Y40294727D01*
X26826860Y40294727D02*
X26615360Y40083227D01*
X26615360Y40083227D02*
X25761500Y40083227D01*
X26615360Y39778427D02*
X25761500Y39778427D01*
X26826860Y39566927D02*
X26615360Y39778427D01*
X25761500Y39778427D02*
X25550000Y39566927D01*
X33342947Y40332947D02*
X33342947Y40817420D01*
X38337600Y46847600D02*
X37490000Y46000000D01*
X38068872Y47335600D02*
X38337600Y47066872D01*
X38337600Y47066872D02*
X38337600Y46847600D01*
X34639128Y47335600D02*
X38068872Y47335600D01*
X33458400Y46154872D02*
X34639128Y47335600D01*
X33458400Y40932873D02*
X33458400Y46154872D01*
X33342947Y40817420D02*
X33458400Y40932873D01*
X33127420Y41032947D02*
X33153600Y41059127D01*
X38642400Y47193128D02*
X38642400Y46847600D01*
X38195128Y47640400D02*
X38642400Y47193128D01*
X38642400Y46847600D02*
X39490000Y46000000D01*
X34512872Y47640400D02*
X38195128Y47640400D01*
X33153600Y46281128D02*
X34512872Y47640400D01*
X33153600Y41059127D02*
X33153600Y46281128D01*
X32642947Y41032947D02*
X33127420Y41032947D01*
D40*
X14920000Y48000000D02*
X28060000Y48000000D01*
D41*
X13400000Y44475000D02*
X14700000Y44475000D01*
X14920000Y44695000D02*
X14700000Y44475000D01*
X14920000Y48000000D02*
X14920000Y44695000D01*
X33350000Y49440000D02*
X43620000Y49440000D01*
X31920000Y48000000D02*
X31920000Y48010000D01*
X43620000Y49440000D02*
X45060000Y48000000D01*
X31920000Y48010000D02*
X33350000Y49440000D01*
X45060000Y48000000D02*
X46700000Y46360000D01*
X46700000Y46360000D02*
X46700000Y44375000D01*
X47900000Y44375000D02*
X46700000Y44375000D01*
D39*
X30000000Y25405000D02*
X29985000Y25390000D01*
X30000000Y26390000D02*
X30000000Y25405000D01*
D42*
X10655000Y15530000D02*
X10655000Y14530000D01*
X10655000Y15530000D02*
X16420000Y15530000D01*
X17210000Y14740000D02*
X17210000Y13710000D01*
X16420000Y15530000D02*
X17210000Y14740000D01*
D40*
X17210000Y13030000D02*
X13570000Y9390000D01*
X17210000Y13710000D02*
X17210000Y13030000D01*
D39*
X29685000Y27715000D02*
X28990000Y28410000D01*
X29685000Y27670000D02*
X29685000Y27715000D01*
X29415000Y23885000D02*
X29415000Y23390000D01*
X29980000Y24450000D02*
X29415000Y23885000D01*
D40*
X17210000Y13710000D02*
X18520000Y13710000D01*
X19030000Y14220000D02*
X21940000Y14220000D01*
X18520000Y13710000D02*
X19030000Y14220000D01*
D42*
X49090000Y16745000D02*
X49090000Y15765000D01*
X47075000Y34470000D02*
X48055000Y34470000D01*
X8745000Y23360000D02*
X8745000Y22370000D01*
X8745000Y21470000D02*
X8365000Y21090000D01*
X8745000Y22370000D02*
X8745000Y21470000D01*
X49025000Y34470000D02*
X49025000Y35800000D01*
X50480000Y35805000D02*
X50480000Y35070000D01*
X49880000Y34470000D02*
X49025000Y34470000D01*
X50480000Y35070000D02*
X49880000Y34470000D01*
X8265000Y14690000D02*
X8605000Y15030000D01*
X8265000Y13250000D02*
X8265000Y14690000D01*
X9600000Y15030000D02*
X9685000Y15115000D01*
X8605000Y15030000D02*
X9600000Y15030000D01*
X9685000Y15115000D02*
X9685000Y14530000D01*
X9685000Y15530000D02*
X9685000Y15115000D01*
X13130000Y31320000D02*
X13160000Y31350000D01*
X12080000Y31320000D02*
X13130000Y31320000D01*
X13160000Y31350000D02*
X13160000Y30875000D01*
X13160000Y31825000D02*
X13160000Y31350000D01*
X45820000Y15305000D02*
X45820000Y13280000D01*
D41*
X44990000Y37700000D02*
X44190000Y36900000D01*
X46515000Y37700000D02*
X44990000Y37700000D01*
X12810000Y12272000D02*
X11888000Y11350000D01*
X12810000Y13710000D02*
X12810000Y12272000D01*
X11888000Y11350000D02*
X10775000Y11350000D01*
D40*
X13080000Y25568000D02*
X13080000Y26060000D01*
X12162000Y24650000D02*
X13080000Y25568000D01*
X10675000Y24650000D02*
X12162000Y24650000D01*
D41*
X12060000Y19190000D02*
X12790000Y19920000D01*
X10875000Y19190000D02*
X12060000Y19190000D01*
M02*
