G04 #@! TF.GenerationSoftware,KiCad,Pcbnew,5.1.6-c6e7f7d~87~ubuntu20.04.1*
G04 #@! TF.CreationDate,2020-08-09T13:50:59-07:00*
G04 #@! TF.ProjectId,artix7-pcie-v2,61727469-7837-42d7-9063-69652d76322e,rev?*
G04 #@! TF.SameCoordinates,PX69f4060PY6b00940*
G04 #@! TF.FileFunction,Soldermask,Top*
G04 #@! TF.FilePolarity,Negative*
%FSLAX46Y46*%
G04 Gerber Fmt 4.6, Leading zero omitted, Abs format (unit mm)*
G04 Created by KiCad (PCBNEW 5.1.6-c6e7f7d~87~ubuntu20.04.1) date 2020-08-09 13:50:59*
%MOMM*%
%LPD*%
G01*
G04 APERTURE LIST*
%ADD10R,1.070000X0.670000*%
%ADD11C,3.020000*%
%ADD12C,1.220000*%
%ADD13C,4.720000*%
%ADD14R,1.120000X1.120000*%
%ADD15R,0.420000X2.670000*%
%ADD16C,0.570000*%
%ADD17O,1.520000X2.220000*%
%ADD18C,0.600000*%
%ADD19C,2.020000*%
%ADD20O,1.720000X1.720000*%
%ADD21R,1.720000X1.720000*%
%ADD22R,0.770000X0.870000*%
%ADD23C,1.520000*%
%ADD24O,1.747200X1.747200*%
%ADD25R,1.747200X1.747200*%
%ADD26O,1.020000X1.020000*%
%ADD27R,1.020000X1.020000*%
G04 APERTURE END LIST*
D10*
X38040000Y2875000D03*
X38065000Y5025000D03*
X33915000Y2875000D03*
X33915000Y5025000D03*
X38050000Y7125000D03*
X38075000Y9275000D03*
X33925000Y7125000D03*
X33925000Y9275000D03*
D11*
X31920000Y48000000D03*
X45060000Y48000000D03*
D12*
X42490000Y44500000D03*
X40490000Y44500000D03*
X38490000Y44500000D03*
X36490000Y44500000D03*
X34490000Y44500000D03*
X34990000Y46000000D03*
X37490000Y46000000D03*
X39490000Y46000000D03*
X41990000Y46000000D03*
D13*
X50490000Y3890000D03*
X50490000Y46890000D03*
X9490000Y3890000D03*
X9490000Y46890000D03*
G36*
G01*
X27947500Y10570000D02*
X28302500Y10570000D01*
G75*
G02*
X28455000Y10417500I0J-152500D01*
G01*
X28455000Y10112500D01*
G75*
G02*
X28302500Y9960000I-152500J0D01*
G01*
X27947500Y9960000D01*
G75*
G02*
X27795000Y10112500I0J152500D01*
G01*
X27795000Y10417500D01*
G75*
G02*
X27947500Y10570000I152500J0D01*
G01*
G37*
G36*
G01*
X27947500Y11540000D02*
X28302500Y11540000D01*
G75*
G02*
X28455000Y11387500I0J-152500D01*
G01*
X28455000Y11082500D01*
G75*
G02*
X28302500Y10930000I-152500J0D01*
G01*
X27947500Y10930000D01*
G75*
G02*
X27795000Y11082500I0J152500D01*
G01*
X27795000Y11387500D01*
G75*
G02*
X27947500Y11540000I152500J0D01*
G01*
G37*
G36*
G01*
X29197500Y10570000D02*
X29552500Y10570000D01*
G75*
G02*
X29705000Y10417500I0J-152500D01*
G01*
X29705000Y10112500D01*
G75*
G02*
X29552500Y9960000I-152500J0D01*
G01*
X29197500Y9960000D01*
G75*
G02*
X29045000Y10112500I0J152500D01*
G01*
X29045000Y10417500D01*
G75*
G02*
X29197500Y10570000I152500J0D01*
G01*
G37*
G36*
G01*
X29197500Y11540000D02*
X29552500Y11540000D01*
G75*
G02*
X29705000Y11387500I0J-152500D01*
G01*
X29705000Y11082500D01*
G75*
G02*
X29552500Y10930000I-152500J0D01*
G01*
X29197500Y10930000D01*
G75*
G02*
X29045000Y11082500I0J152500D01*
G01*
X29045000Y11387500D01*
G75*
G02*
X29197500Y11540000I152500J0D01*
G01*
G37*
G36*
G01*
X30447500Y10585000D02*
X30802500Y10585000D01*
G75*
G02*
X30955000Y10432500I0J-152500D01*
G01*
X30955000Y10127500D01*
G75*
G02*
X30802500Y9975000I-152500J0D01*
G01*
X30447500Y9975000D01*
G75*
G02*
X30295000Y10127500I0J152500D01*
G01*
X30295000Y10432500D01*
G75*
G02*
X30447500Y10585000I152500J0D01*
G01*
G37*
G36*
G01*
X30447500Y11555000D02*
X30802500Y11555000D01*
G75*
G02*
X30955000Y11402500I0J-152500D01*
G01*
X30955000Y11097500D01*
G75*
G02*
X30802500Y10945000I-152500J0D01*
G01*
X30447500Y10945000D01*
G75*
G02*
X30295000Y11097500I0J152500D01*
G01*
X30295000Y11402500D01*
G75*
G02*
X30447500Y11555000I152500J0D01*
G01*
G37*
G36*
G01*
X52722500Y26010000D02*
X53077500Y26010000D01*
G75*
G02*
X53230000Y25857500I0J-152500D01*
G01*
X53230000Y25552500D01*
G75*
G02*
X53077500Y25400000I-152500J0D01*
G01*
X52722500Y25400000D01*
G75*
G02*
X52570000Y25552500I0J152500D01*
G01*
X52570000Y25857500D01*
G75*
G02*
X52722500Y26010000I152500J0D01*
G01*
G37*
G36*
G01*
X52722500Y26980000D02*
X53077500Y26980000D01*
G75*
G02*
X53230000Y26827500I0J-152500D01*
G01*
X53230000Y26522500D01*
G75*
G02*
X53077500Y26370000I-152500J0D01*
G01*
X52722500Y26370000D01*
G75*
G02*
X52570000Y26522500I0J152500D01*
G01*
X52570000Y26827500D01*
G75*
G02*
X52722500Y26980000I152500J0D01*
G01*
G37*
G36*
G01*
X53220000Y27967500D02*
X53220000Y27612500D01*
G75*
G02*
X53067500Y27460000I-152500J0D01*
G01*
X52762500Y27460000D01*
G75*
G02*
X52610000Y27612500I0J152500D01*
G01*
X52610000Y27967500D01*
G75*
G02*
X52762500Y28120000I152500J0D01*
G01*
X53067500Y28120000D01*
G75*
G02*
X53220000Y27967500I0J-152500D01*
G01*
G37*
G36*
G01*
X54190000Y27967500D02*
X54190000Y27612500D01*
G75*
G02*
X54037500Y27460000I-152500J0D01*
G01*
X53732500Y27460000D01*
G75*
G02*
X53580000Y27612500I0J152500D01*
G01*
X53580000Y27967500D01*
G75*
G02*
X53732500Y28120000I152500J0D01*
G01*
X54037500Y28120000D01*
G75*
G02*
X54190000Y27967500I0J-152500D01*
G01*
G37*
G36*
G01*
X53135000Y24367500D02*
X53135000Y24012500D01*
G75*
G02*
X52982500Y23860000I-152500J0D01*
G01*
X52677500Y23860000D01*
G75*
G02*
X52525000Y24012500I0J152500D01*
G01*
X52525000Y24367500D01*
G75*
G02*
X52677500Y24520000I152500J0D01*
G01*
X52982500Y24520000D01*
G75*
G02*
X53135000Y24367500I0J-152500D01*
G01*
G37*
G36*
G01*
X54105000Y24367500D02*
X54105000Y24012500D01*
G75*
G02*
X53952500Y23860000I-152500J0D01*
G01*
X53647500Y23860000D01*
G75*
G02*
X53495000Y24012500I0J152500D01*
G01*
X53495000Y24367500D01*
G75*
G02*
X53647500Y24520000I152500J0D01*
G01*
X53952500Y24520000D01*
G75*
G02*
X54105000Y24367500I0J-152500D01*
G01*
G37*
G36*
G01*
X30180000Y4212500D02*
X30180000Y4567500D01*
G75*
G02*
X30332500Y4720000I152500J0D01*
G01*
X30637500Y4720000D01*
G75*
G02*
X30790000Y4567500I0J-152500D01*
G01*
X30790000Y4212500D01*
G75*
G02*
X30637500Y4060000I-152500J0D01*
G01*
X30332500Y4060000D01*
G75*
G02*
X30180000Y4212500I0J152500D01*
G01*
G37*
G36*
G01*
X29210000Y4212500D02*
X29210000Y4567500D01*
G75*
G02*
X29362500Y4720000I152500J0D01*
G01*
X29667500Y4720000D01*
G75*
G02*
X29820000Y4567500I0J-152500D01*
G01*
X29820000Y4212500D01*
G75*
G02*
X29667500Y4060000I-152500J0D01*
G01*
X29362500Y4060000D01*
G75*
G02*
X29210000Y4212500I0J152500D01*
G01*
G37*
G36*
G01*
X39422500Y9010000D02*
X39777500Y9010000D01*
G75*
G02*
X39930000Y8857500I0J-152500D01*
G01*
X39930000Y8552500D01*
G75*
G02*
X39777500Y8400000I-152500J0D01*
G01*
X39422500Y8400000D01*
G75*
G02*
X39270000Y8552500I0J152500D01*
G01*
X39270000Y8857500D01*
G75*
G02*
X39422500Y9010000I152500J0D01*
G01*
G37*
G36*
G01*
X39422500Y9980000D02*
X39777500Y9980000D01*
G75*
G02*
X39930000Y9827500I0J-152500D01*
G01*
X39930000Y9522500D01*
G75*
G02*
X39777500Y9370000I-152500J0D01*
G01*
X39422500Y9370000D01*
G75*
G02*
X39270000Y9522500I0J152500D01*
G01*
X39270000Y9827500D01*
G75*
G02*
X39422500Y9980000I152500J0D01*
G01*
G37*
G36*
G01*
X33220000Y11367500D02*
X33220000Y11012500D01*
G75*
G02*
X33067500Y10860000I-152500J0D01*
G01*
X32762500Y10860000D01*
G75*
G02*
X32610000Y11012500I0J152500D01*
G01*
X32610000Y11367500D01*
G75*
G02*
X32762500Y11520000I152500J0D01*
G01*
X33067500Y11520000D01*
G75*
G02*
X33220000Y11367500I0J-152500D01*
G01*
G37*
G36*
G01*
X34190000Y11367500D02*
X34190000Y11012500D01*
G75*
G02*
X34037500Y10860000I-152500J0D01*
G01*
X33732500Y10860000D01*
G75*
G02*
X33580000Y11012500I0J152500D01*
G01*
X33580000Y11367500D01*
G75*
G02*
X33732500Y11520000I152500J0D01*
G01*
X34037500Y11520000D01*
G75*
G02*
X34190000Y11367500I0J-152500D01*
G01*
G37*
D14*
X22500000Y1140000D03*
X25500000Y1140000D03*
D15*
X24000000Y5700000D03*
D16*
X22000000Y4440000D03*
X26000000Y4440000D03*
D15*
X23350000Y5700000D03*
X22700000Y5700000D03*
X24650000Y5700000D03*
X25300000Y5700000D03*
D17*
X20400000Y2290000D03*
X27600000Y2290000D03*
X27600000Y5760000D03*
X20400000Y5760000D03*
G36*
G01*
X28002791Y41191768D02*
X27751768Y41442791D01*
G75*
G02*
X27751768Y41658459I107834J107834D01*
G01*
X27967435Y41874126D01*
G75*
G02*
X28183103Y41874126I107834J-107834D01*
G01*
X28434126Y41623103D01*
G75*
G02*
X28434126Y41407435I-107834J-107834D01*
G01*
X28218459Y41191768D01*
G75*
G02*
X28002791Y41191768I-107834J107834D01*
G01*
G37*
G36*
G01*
X27316897Y40505874D02*
X27065874Y40756897D01*
G75*
G02*
X27065874Y40972565I107834J107834D01*
G01*
X27281541Y41188232D01*
G75*
G02*
X27497209Y41188232I107834J-107834D01*
G01*
X27748232Y40937209D01*
G75*
G02*
X27748232Y40721541I-107834J-107834D01*
G01*
X27532565Y40505874D01*
G75*
G02*
X27316897Y40505874I-107834J107834D01*
G01*
G37*
G36*
G01*
X28752791Y40491768D02*
X28501768Y40742791D01*
G75*
G02*
X28501768Y40958459I107834J107834D01*
G01*
X28717435Y41174126D01*
G75*
G02*
X28933103Y41174126I107834J-107834D01*
G01*
X29184126Y40923103D01*
G75*
G02*
X29184126Y40707435I-107834J-107834D01*
G01*
X28968459Y40491768D01*
G75*
G02*
X28752791Y40491768I-107834J107834D01*
G01*
G37*
G36*
G01*
X28066897Y39805874D02*
X27815874Y40056897D01*
G75*
G02*
X27815874Y40272565I107834J107834D01*
G01*
X28031541Y40488232D01*
G75*
G02*
X28247209Y40488232I107834J-107834D01*
G01*
X28498232Y40237209D01*
G75*
G02*
X28498232Y40021541I-107834J-107834D01*
G01*
X28282565Y39805874D01*
G75*
G02*
X28066897Y39805874I-107834J107834D01*
G01*
G37*
D18*
X40490000Y14890000D03*
X39490000Y14890000D03*
X38490000Y14890000D03*
X37490000Y14890000D03*
X36490000Y14890000D03*
X35490000Y14890000D03*
X34490000Y14890000D03*
X33490000Y14890000D03*
X32490000Y14890000D03*
X31490000Y14890000D03*
X30490000Y14890000D03*
X29490000Y14890000D03*
X28490000Y14890000D03*
X27490000Y14890000D03*
X26490000Y14890000D03*
X25490000Y14890000D03*
X24490000Y14890000D03*
X23490000Y14890000D03*
X22490000Y14890000D03*
X21490000Y14890000D03*
X20490000Y14890000D03*
X19490000Y14890000D03*
X40490000Y15890000D03*
X39490000Y15890000D03*
X38490000Y15890000D03*
X37490000Y15890000D03*
X36490000Y15890000D03*
X35490000Y15890000D03*
X34490000Y15890000D03*
X33490000Y15890000D03*
X32490000Y15890000D03*
X31490000Y15890000D03*
X30490000Y15890000D03*
X29490000Y15890000D03*
X28490000Y15890000D03*
X27490000Y15890000D03*
X26490000Y15890000D03*
X25490000Y15890000D03*
X24490000Y15890000D03*
X23490000Y15890000D03*
X22490000Y15890000D03*
X21490000Y15890000D03*
X20490000Y15890000D03*
X19490000Y15890000D03*
X40490000Y16890000D03*
X39490000Y16890000D03*
X38490000Y16890000D03*
X37490000Y16890000D03*
X36490000Y16890000D03*
X35490000Y16890000D03*
X34490000Y16890000D03*
X33490000Y16890000D03*
X32490000Y16890000D03*
X31490000Y16890000D03*
X30490000Y16890000D03*
X29490000Y16890000D03*
X28490000Y16890000D03*
X27490000Y16890000D03*
X26490000Y16890000D03*
X25490000Y16890000D03*
X24490000Y16890000D03*
X23490000Y16890000D03*
X22490000Y16890000D03*
X21490000Y16890000D03*
X20490000Y16890000D03*
X19490000Y16890000D03*
X40490000Y17890000D03*
X39490000Y17890000D03*
X38490000Y17890000D03*
X37490000Y17890000D03*
X36490000Y17890000D03*
X35490000Y17890000D03*
X34490000Y17890000D03*
X33490000Y17890000D03*
X32490000Y17890000D03*
X31490000Y17890000D03*
X30490000Y17890000D03*
X29490000Y17890000D03*
X28490000Y17890000D03*
X27490000Y17890000D03*
X26490000Y17890000D03*
X25490000Y17890000D03*
X24490000Y17890000D03*
X23490000Y17890000D03*
X22490000Y17890000D03*
X21490000Y17890000D03*
X20490000Y17890000D03*
X19490000Y17890000D03*
X40490000Y18890000D03*
X39490000Y18890000D03*
X38490000Y18890000D03*
X37490000Y18890000D03*
X36490000Y18890000D03*
X35490000Y18890000D03*
X34490000Y18890000D03*
X33490000Y18890000D03*
X32490000Y18890000D03*
X31490000Y18890000D03*
X30490000Y18890000D03*
X29490000Y18890000D03*
X28490000Y18890000D03*
X27490000Y18890000D03*
X26490000Y18890000D03*
X25490000Y18890000D03*
X24490000Y18890000D03*
X23490000Y18890000D03*
X22490000Y18890000D03*
X21490000Y18890000D03*
X20490000Y18890000D03*
X19490000Y18890000D03*
X40490000Y19890000D03*
X39490000Y19890000D03*
X38490000Y19890000D03*
X37490000Y19890000D03*
X36490000Y19890000D03*
X35490000Y19890000D03*
X34490000Y19890000D03*
X33490000Y19890000D03*
X32490000Y19890000D03*
X31490000Y19890000D03*
X30490000Y19890000D03*
X29490000Y19890000D03*
X28490000Y19890000D03*
X27490000Y19890000D03*
X26490000Y19890000D03*
X25490000Y19890000D03*
X24490000Y19890000D03*
X23490000Y19890000D03*
X22490000Y19890000D03*
X21490000Y19890000D03*
X20490000Y19890000D03*
X19490000Y19890000D03*
X40490000Y20890000D03*
X39490000Y20890000D03*
X38490000Y20890000D03*
X37490000Y20890000D03*
X36490000Y20890000D03*
X35490000Y20890000D03*
X34490000Y20890000D03*
X33490000Y20890000D03*
X32490000Y20890000D03*
X31490000Y20890000D03*
X30490000Y20890000D03*
X29490000Y20890000D03*
X28490000Y20890000D03*
X27490000Y20890000D03*
X26490000Y20890000D03*
X25490000Y20890000D03*
X24490000Y20890000D03*
X23490000Y20890000D03*
X22490000Y20890000D03*
X21490000Y20890000D03*
X20490000Y20890000D03*
X19490000Y20890000D03*
X40490000Y21890000D03*
X39490000Y21890000D03*
X38490000Y21890000D03*
X37490000Y21890000D03*
X36490000Y21890000D03*
X35490000Y21890000D03*
X34490000Y21890000D03*
X33490000Y21890000D03*
X32490000Y21890000D03*
X31490000Y21890000D03*
X30490000Y21890000D03*
X29490000Y21890000D03*
X28490000Y21890000D03*
X27490000Y21890000D03*
X26490000Y21890000D03*
X25490000Y21890000D03*
X24490000Y21890000D03*
X23490000Y21890000D03*
X22490000Y21890000D03*
X21490000Y21890000D03*
X20490000Y21890000D03*
X19490000Y21890000D03*
X40490000Y22890000D03*
X39490000Y22890000D03*
X38490000Y22890000D03*
X37490000Y22890000D03*
X36490000Y22890000D03*
X35490000Y22890000D03*
X34490000Y22890000D03*
X33490000Y22890000D03*
X32490000Y22890000D03*
X31490000Y22890000D03*
X30490000Y22890000D03*
X29490000Y22890000D03*
X28490000Y22890000D03*
X27490000Y22890000D03*
X26490000Y22890000D03*
X25490000Y22890000D03*
X24490000Y22890000D03*
X23490000Y22890000D03*
X22490000Y22890000D03*
X21490000Y22890000D03*
X20490000Y22890000D03*
X19490000Y22890000D03*
X40490000Y23890000D03*
X39490000Y23890000D03*
X38490000Y23890000D03*
X37490000Y23890000D03*
X36490000Y23890000D03*
X35490000Y23890000D03*
X34490000Y23890000D03*
X33490000Y23890000D03*
X32490000Y23890000D03*
X31490000Y23890000D03*
X30490000Y23890000D03*
X29490000Y23890000D03*
X28490000Y23890000D03*
X27490000Y23890000D03*
X26490000Y23890000D03*
X25490000Y23890000D03*
X24490000Y23890000D03*
X23490000Y23890000D03*
X22490000Y23890000D03*
X21490000Y23890000D03*
X20490000Y23890000D03*
X19490000Y23890000D03*
X40490000Y24890000D03*
X39490000Y24890000D03*
X38490000Y24890000D03*
X37490000Y24890000D03*
X36490000Y24890000D03*
X35490000Y24890000D03*
X34490000Y24890000D03*
X33490000Y24890000D03*
X32490000Y24890000D03*
X31490000Y24890000D03*
X30490000Y24890000D03*
X29490000Y24890000D03*
X28490000Y24890000D03*
X27490000Y24890000D03*
X26490000Y24890000D03*
X25490000Y24890000D03*
X24490000Y24890000D03*
X23490000Y24890000D03*
X22490000Y24890000D03*
X21490000Y24890000D03*
X20490000Y24890000D03*
X19490000Y24890000D03*
X40490000Y25890000D03*
X39490000Y25890000D03*
X38490000Y25890000D03*
X37490000Y25890000D03*
X36490000Y25890000D03*
X35490000Y25890000D03*
X34490000Y25890000D03*
X33490000Y25890000D03*
X32490000Y25890000D03*
X31490000Y25890000D03*
X30490000Y25890000D03*
X29490000Y25890000D03*
X28490000Y25890000D03*
X27490000Y25890000D03*
X26490000Y25890000D03*
X25490000Y25890000D03*
X24490000Y25890000D03*
X23490000Y25890000D03*
X22490000Y25890000D03*
X21490000Y25890000D03*
X20490000Y25890000D03*
X19490000Y25890000D03*
X40490000Y26890000D03*
X39490000Y26890000D03*
X38490000Y26890000D03*
X37490000Y26890000D03*
X36490000Y26890000D03*
X35490000Y26890000D03*
X34490000Y26890000D03*
X33490000Y26890000D03*
X32490000Y26890000D03*
X31490000Y26890000D03*
X30490000Y26890000D03*
X29490000Y26890000D03*
X28490000Y26890000D03*
X27490000Y26890000D03*
X26490000Y26890000D03*
X25490000Y26890000D03*
X24490000Y26890000D03*
X23490000Y26890000D03*
X22490000Y26890000D03*
X21490000Y26890000D03*
X20490000Y26890000D03*
X19490000Y26890000D03*
X40490000Y27890000D03*
X39490000Y27890000D03*
X38490000Y27890000D03*
X37490000Y27890000D03*
X36490000Y27890000D03*
X35490000Y27890000D03*
X34490000Y27890000D03*
X33490000Y27890000D03*
X32490000Y27890000D03*
X31490000Y27890000D03*
X30490000Y27890000D03*
X29490000Y27890000D03*
X28490000Y27890000D03*
X27490000Y27890000D03*
X26490000Y27890000D03*
X25490000Y27890000D03*
X24490000Y27890000D03*
X23490000Y27890000D03*
X22490000Y27890000D03*
X21490000Y27890000D03*
X20490000Y27890000D03*
X19490000Y27890000D03*
X40490000Y28890000D03*
X39490000Y28890000D03*
X38490000Y28890000D03*
X37490000Y28890000D03*
X36490000Y28890000D03*
X35490000Y28890000D03*
X34490000Y28890000D03*
X33490000Y28890000D03*
X32490000Y28890000D03*
X31490000Y28890000D03*
X30490000Y28890000D03*
X29490000Y28890000D03*
X28490000Y28890000D03*
X27490000Y28890000D03*
X26490000Y28890000D03*
X25490000Y28890000D03*
X24490000Y28890000D03*
X23490000Y28890000D03*
X22490000Y28890000D03*
X21490000Y28890000D03*
X20490000Y28890000D03*
X19490000Y28890000D03*
X40490000Y29890000D03*
X39490000Y29890000D03*
X38490000Y29890000D03*
X37490000Y29890000D03*
X36490000Y29890000D03*
X35490000Y29890000D03*
X34490000Y29890000D03*
X33490000Y29890000D03*
X32490000Y29890000D03*
X31490000Y29890000D03*
X30490000Y29890000D03*
X29490000Y29890000D03*
X28490000Y29890000D03*
X27490000Y29890000D03*
X26490000Y29890000D03*
X25490000Y29890000D03*
X24490000Y29890000D03*
X23490000Y29890000D03*
X22490000Y29890000D03*
X21490000Y29890000D03*
X20490000Y29890000D03*
X19490000Y29890000D03*
X40490000Y30890000D03*
X39490000Y30890000D03*
X38490000Y30890000D03*
X37490000Y30890000D03*
X36490000Y30890000D03*
X35490000Y30890000D03*
X34490000Y30890000D03*
X33490000Y30890000D03*
X32490000Y30890000D03*
X31490000Y30890000D03*
X30490000Y30890000D03*
X29490000Y30890000D03*
X28490000Y30890000D03*
X27490000Y30890000D03*
X26490000Y30890000D03*
X25490000Y30890000D03*
X24490000Y30890000D03*
X23490000Y30890000D03*
X22490000Y30890000D03*
X21490000Y30890000D03*
X20490000Y30890000D03*
X19490000Y30890000D03*
X40490000Y31890000D03*
X39490000Y31890000D03*
X38490000Y31890000D03*
X37490000Y31890000D03*
X36490000Y31890000D03*
X35490000Y31890000D03*
X34490000Y31890000D03*
X33490000Y31890000D03*
X32490000Y31890000D03*
X31490000Y31890000D03*
X30490000Y31890000D03*
X29490000Y31890000D03*
X28490000Y31890000D03*
X27490000Y31890000D03*
X26490000Y31890000D03*
X25490000Y31890000D03*
X24490000Y31890000D03*
X23490000Y31890000D03*
X22490000Y31890000D03*
X21490000Y31890000D03*
X20490000Y31890000D03*
X19490000Y31890000D03*
X40490000Y32890000D03*
X39490000Y32890000D03*
X38490000Y32890000D03*
X37490000Y32890000D03*
X36490000Y32890000D03*
X35490000Y32890000D03*
X34490000Y32890000D03*
X33490000Y32890000D03*
X32490000Y32890000D03*
X31490000Y32890000D03*
X30490000Y32890000D03*
X29490000Y32890000D03*
X28490000Y32890000D03*
X27490000Y32890000D03*
X26490000Y32890000D03*
X25490000Y32890000D03*
X24490000Y32890000D03*
X23490000Y32890000D03*
X22490000Y32890000D03*
X21490000Y32890000D03*
X20490000Y32890000D03*
X19490000Y32890000D03*
X40490000Y33890000D03*
X39490000Y33890000D03*
X38490000Y33890000D03*
X37490000Y33890000D03*
X36490000Y33890000D03*
X35490000Y33890000D03*
X34490000Y33890000D03*
X33490000Y33890000D03*
X32490000Y33890000D03*
X31490000Y33890000D03*
X30490000Y33890000D03*
X29490000Y33890000D03*
X28490000Y33890000D03*
X27490000Y33890000D03*
X26490000Y33890000D03*
X25490000Y33890000D03*
X24490000Y33890000D03*
X23490000Y33890000D03*
X22490000Y33890000D03*
X21490000Y33890000D03*
X20490000Y33890000D03*
X19490000Y33890000D03*
X40490000Y34890000D03*
X39490000Y34890000D03*
X38490000Y34890000D03*
X37490000Y34890000D03*
X36490000Y34890000D03*
X35490000Y34890000D03*
X34490000Y34890000D03*
X33490000Y34890000D03*
X32490000Y34890000D03*
X31490000Y34890000D03*
X30490000Y34890000D03*
X29490000Y34890000D03*
X28490000Y34890000D03*
X27490000Y34890000D03*
X26490000Y34890000D03*
X25490000Y34890000D03*
X24490000Y34890000D03*
X23490000Y34890000D03*
X22490000Y34890000D03*
X21490000Y34890000D03*
X20490000Y34890000D03*
X19490000Y34890000D03*
X40490000Y35890000D03*
X39490000Y35890000D03*
X38490000Y35890000D03*
X37490000Y35890000D03*
X36490000Y35890000D03*
X35490000Y35890000D03*
X34490000Y35890000D03*
X33490000Y35890000D03*
X32490000Y35890000D03*
X31490000Y35890000D03*
X30490000Y35890000D03*
X29490000Y35890000D03*
X28490000Y35890000D03*
X27490000Y35890000D03*
X26490000Y35890000D03*
X25490000Y35890000D03*
X24490000Y35890000D03*
X23490000Y35890000D03*
X22490000Y35890000D03*
X21490000Y35890000D03*
X20490000Y35890000D03*
X19490000Y35890000D03*
G36*
G01*
X48980000Y7212500D02*
X48980000Y7567500D01*
G75*
G02*
X49132500Y7720000I152500J0D01*
G01*
X49437500Y7720000D01*
G75*
G02*
X49590000Y7567500I0J-152500D01*
G01*
X49590000Y7212500D01*
G75*
G02*
X49437500Y7060000I-152500J0D01*
G01*
X49132500Y7060000D01*
G75*
G02*
X48980000Y7212500I0J152500D01*
G01*
G37*
G36*
G01*
X48010000Y7212500D02*
X48010000Y7567500D01*
G75*
G02*
X48162500Y7720000I152500J0D01*
G01*
X48467500Y7720000D01*
G75*
G02*
X48620000Y7567500I0J-152500D01*
G01*
X48620000Y7212500D01*
G75*
G02*
X48467500Y7060000I-152500J0D01*
G01*
X48162500Y7060000D01*
G75*
G02*
X48010000Y7212500I0J152500D01*
G01*
G37*
G36*
G01*
X20480000Y7612500D02*
X20480000Y7967500D01*
G75*
G02*
X20632500Y8120000I152500J0D01*
G01*
X20937500Y8120000D01*
G75*
G02*
X21090000Y7967500I0J-152500D01*
G01*
X21090000Y7612500D01*
G75*
G02*
X20937500Y7460000I-152500J0D01*
G01*
X20632500Y7460000D01*
G75*
G02*
X20480000Y7612500I0J152500D01*
G01*
G37*
G36*
G01*
X19510000Y7612500D02*
X19510000Y7967500D01*
G75*
G02*
X19662500Y8120000I152500J0D01*
G01*
X19967500Y8120000D01*
G75*
G02*
X20120000Y7967500I0J-152500D01*
G01*
X20120000Y7612500D01*
G75*
G02*
X19967500Y7460000I-152500J0D01*
G01*
X19662500Y7460000D01*
G75*
G02*
X19510000Y7612500I0J152500D01*
G01*
G37*
G36*
G01*
X50802500Y27165000D02*
X50802500Y27425000D01*
G75*
G02*
X50932500Y27555000I130000J0D01*
G01*
X51592500Y27555000D01*
G75*
G02*
X51722500Y27425000I0J-130000D01*
G01*
X51722500Y27165000D01*
G75*
G02*
X51592500Y27035000I-130000J0D01*
G01*
X50932500Y27035000D01*
G75*
G02*
X50802500Y27165000I0J130000D01*
G01*
G37*
G36*
G01*
X50802500Y25895000D02*
X50802500Y26155000D01*
G75*
G02*
X50932500Y26285000I130000J0D01*
G01*
X51592500Y26285000D01*
G75*
G02*
X51722500Y26155000I0J-130000D01*
G01*
X51722500Y25895000D01*
G75*
G02*
X51592500Y25765000I-130000J0D01*
G01*
X50932500Y25765000D01*
G75*
G02*
X50802500Y25895000I0J130000D01*
G01*
G37*
G36*
G01*
X50802500Y24625000D02*
X50802500Y24885000D01*
G75*
G02*
X50932500Y25015000I130000J0D01*
G01*
X51592500Y25015000D01*
G75*
G02*
X51722500Y24885000I0J-130000D01*
G01*
X51722500Y24625000D01*
G75*
G02*
X51592500Y24495000I-130000J0D01*
G01*
X50932500Y24495000D01*
G75*
G02*
X50802500Y24625000I0J130000D01*
G01*
G37*
G36*
G01*
X50802500Y23355000D02*
X50802500Y23615000D01*
G75*
G02*
X50932500Y23745000I130000J0D01*
G01*
X51592500Y23745000D01*
G75*
G02*
X51722500Y23615000I0J-130000D01*
G01*
X51722500Y23355000D01*
G75*
G02*
X51592500Y23225000I-130000J0D01*
G01*
X50932500Y23225000D01*
G75*
G02*
X50802500Y23355000I0J130000D01*
G01*
G37*
G36*
G01*
X43077500Y23355000D02*
X43077500Y23615000D01*
G75*
G02*
X43207500Y23745000I130000J0D01*
G01*
X43867500Y23745000D01*
G75*
G02*
X43997500Y23615000I0J-130000D01*
G01*
X43997500Y23355000D01*
G75*
G02*
X43867500Y23225000I-130000J0D01*
G01*
X43207500Y23225000D01*
G75*
G02*
X43077500Y23355000I0J130000D01*
G01*
G37*
G36*
G01*
X43077500Y24625000D02*
X43077500Y24885000D01*
G75*
G02*
X43207500Y25015000I130000J0D01*
G01*
X43867500Y25015000D01*
G75*
G02*
X43997500Y24885000I0J-130000D01*
G01*
X43997500Y24625000D01*
G75*
G02*
X43867500Y24495000I-130000J0D01*
G01*
X43207500Y24495000D01*
G75*
G02*
X43077500Y24625000I0J130000D01*
G01*
G37*
G36*
G01*
X43077500Y25895000D02*
X43077500Y26155000D01*
G75*
G02*
X43207500Y26285000I130000J0D01*
G01*
X43867500Y26285000D01*
G75*
G02*
X43997500Y26155000I0J-130000D01*
G01*
X43997500Y25895000D01*
G75*
G02*
X43867500Y25765000I-130000J0D01*
G01*
X43207500Y25765000D01*
G75*
G02*
X43077500Y25895000I0J130000D01*
G01*
G37*
G36*
G01*
X43077500Y27165000D02*
X43077500Y27425000D01*
G75*
G02*
X43207500Y27555000I130000J0D01*
G01*
X43867500Y27555000D01*
G75*
G02*
X43997500Y27425000I0J-130000D01*
G01*
X43997500Y27165000D01*
G75*
G02*
X43867500Y27035000I-130000J0D01*
G01*
X43207500Y27035000D01*
G75*
G02*
X43077500Y27165000I0J130000D01*
G01*
G37*
D19*
X10800000Y8190000D03*
D20*
X43130000Y6330000D03*
X45670000Y6330000D03*
X43130000Y3790000D03*
X45670000Y3790000D03*
X43130000Y1250000D03*
D21*
X45670000Y1250000D03*
G36*
G01*
X31977500Y10945000D02*
X31622500Y10945000D01*
G75*
G02*
X31470000Y11097500I0J152500D01*
G01*
X31470000Y11402500D01*
G75*
G02*
X31622500Y11555000I152500J0D01*
G01*
X31977500Y11555000D01*
G75*
G02*
X32130000Y11402500I0J-152500D01*
G01*
X32130000Y11097500D01*
G75*
G02*
X31977500Y10945000I-152500J0D01*
G01*
G37*
G36*
G01*
X31977500Y9975000D02*
X31622500Y9975000D01*
G75*
G02*
X31470000Y10127500I0J152500D01*
G01*
X31470000Y10432500D01*
G75*
G02*
X31622500Y10585000I152500J0D01*
G01*
X31977500Y10585000D01*
G75*
G02*
X32130000Y10432500I0J-152500D01*
G01*
X32130000Y10127500D01*
G75*
G02*
X31977500Y9975000I-152500J0D01*
G01*
G37*
D20*
X14460000Y6330000D03*
X17000000Y6330000D03*
X14460000Y3790000D03*
X17000000Y3790000D03*
X14460000Y1250000D03*
D21*
X17000000Y1250000D03*
D22*
X30515000Y6525000D03*
X29465000Y6525000D03*
X29465000Y8975000D03*
X30515000Y8975000D03*
D23*
X47530000Y43932000D03*
X47530000Y49520000D03*
X47875000Y19625000D03*
X50415000Y19625000D03*
X25375000Y10875000D03*
X22835000Y10875000D03*
X17465000Y40375000D03*
X20000000Y40375000D03*
D24*
X1270000Y1250000D03*
X3810000Y1250000D03*
D25*
X1270000Y3790000D03*
X3810000Y3790000D03*
D24*
X1270000Y6330000D03*
X3810000Y6330000D03*
X1270000Y8870000D03*
X3810000Y8870000D03*
X1270000Y11410000D03*
X3810000Y11410000D03*
X1270000Y13950000D03*
X3810000Y13950000D03*
X1270000Y16490000D03*
X3810000Y16490000D03*
X1270000Y19030000D03*
X3810000Y19030000D03*
X1270000Y21570000D03*
X3810000Y21570000D03*
D25*
X1270000Y24110000D03*
X3810000Y24110000D03*
D24*
X1270000Y26650000D03*
X3810000Y26650000D03*
X1270000Y29190000D03*
X3810000Y29190000D03*
X1270000Y31730000D03*
X3810000Y31730000D03*
X1270000Y34270000D03*
X3810000Y34270000D03*
X1270000Y36810000D03*
X3810000Y36810000D03*
X1270000Y39350000D03*
X3810000Y39350000D03*
X1270000Y41890000D03*
X3810000Y41890000D03*
X1270000Y44430000D03*
X3810000Y44430000D03*
D25*
X1270000Y46970000D03*
X3810000Y46970000D03*
D24*
X1270000Y49510000D03*
X3810000Y49510000D03*
D11*
X14920000Y48000000D03*
X28060000Y48000000D03*
D12*
X25490000Y44500000D03*
X23490000Y44500000D03*
X21490000Y44500000D03*
X19490000Y44500000D03*
X17490000Y44500000D03*
X17990000Y46000000D03*
X20490000Y46000000D03*
X22490000Y46000000D03*
X24990000Y46000000D03*
D24*
X58710000Y49510000D03*
X56170000Y49510000D03*
D25*
X58710000Y46970000D03*
X56170000Y46970000D03*
D24*
X58710000Y44430000D03*
X56170000Y44430000D03*
X58710000Y41890000D03*
X56170000Y41890000D03*
X58710000Y39350000D03*
X56170000Y39350000D03*
X58710000Y36810000D03*
X56170000Y36810000D03*
X58710000Y34270000D03*
X56170000Y34270000D03*
X58710000Y31730000D03*
X56170000Y31730000D03*
X58710000Y29190000D03*
X56170000Y29190000D03*
D25*
X58710000Y26650000D03*
X56170000Y26650000D03*
D24*
X58710000Y24110000D03*
X56170000Y24110000D03*
X58710000Y21570000D03*
X56170000Y21570000D03*
X58710000Y19030000D03*
X56170000Y19030000D03*
X58710000Y16490000D03*
X56170000Y16490000D03*
X58710000Y13950000D03*
X56170000Y13950000D03*
X58710000Y11410000D03*
X56170000Y11410000D03*
X58710000Y8870000D03*
X56170000Y8870000D03*
X58710000Y6330000D03*
X56170000Y6330000D03*
D25*
X58710000Y3790000D03*
X56170000Y3790000D03*
D24*
X58710000Y1250000D03*
X56170000Y1250000D03*
D26*
X30000000Y2460000D03*
D27*
X30000000Y1190000D03*
G36*
G01*
X24177500Y42070000D02*
X23822500Y42070000D01*
G75*
G02*
X23670000Y42222500I0J152500D01*
G01*
X23670000Y42527500D01*
G75*
G02*
X23822500Y42680000I152500J0D01*
G01*
X24177500Y42680000D01*
G75*
G02*
X24330000Y42527500I0J-152500D01*
G01*
X24330000Y42222500D01*
G75*
G02*
X24177500Y42070000I-152500J0D01*
G01*
G37*
G36*
G01*
X24177500Y41100000D02*
X23822500Y41100000D01*
G75*
G02*
X23670000Y41252500I0J152500D01*
G01*
X23670000Y41557500D01*
G75*
G02*
X23822500Y41710000I152500J0D01*
G01*
X24177500Y41710000D01*
G75*
G02*
X24330000Y41557500I0J-152500D01*
G01*
X24330000Y41252500D01*
G75*
G02*
X24177500Y41100000I-152500J0D01*
G01*
G37*
G36*
G01*
X25177500Y42070000D02*
X24822500Y42070000D01*
G75*
G02*
X24670000Y42222500I0J152500D01*
G01*
X24670000Y42527500D01*
G75*
G02*
X24822500Y42680000I152500J0D01*
G01*
X25177500Y42680000D01*
G75*
G02*
X25330000Y42527500I0J-152500D01*
G01*
X25330000Y42222500D01*
G75*
G02*
X25177500Y42070000I-152500J0D01*
G01*
G37*
G36*
G01*
X25177500Y41100000D02*
X24822500Y41100000D01*
G75*
G02*
X24670000Y41252500I0J152500D01*
G01*
X24670000Y41557500D01*
G75*
G02*
X24822500Y41710000I152500J0D01*
G01*
X25177500Y41710000D01*
G75*
G02*
X25330000Y41557500I0J-152500D01*
G01*
X25330000Y41252500D01*
G75*
G02*
X25177500Y41100000I-152500J0D01*
G01*
G37*
G36*
G01*
X53722500Y26010000D02*
X54077500Y26010000D01*
G75*
G02*
X54230000Y25857500I0J-152500D01*
G01*
X54230000Y25552500D01*
G75*
G02*
X54077500Y25400000I-152500J0D01*
G01*
X53722500Y25400000D01*
G75*
G02*
X53570000Y25552500I0J152500D01*
G01*
X53570000Y25857500D01*
G75*
G02*
X53722500Y26010000I152500J0D01*
G01*
G37*
G36*
G01*
X53722500Y26980000D02*
X54077500Y26980000D01*
G75*
G02*
X54230000Y26827500I0J-152500D01*
G01*
X54230000Y26522500D01*
G75*
G02*
X54077500Y26370000I-152500J0D01*
G01*
X53722500Y26370000D01*
G75*
G02*
X53570000Y26522500I0J152500D01*
G01*
X53570000Y26827500D01*
G75*
G02*
X53722500Y26980000I152500J0D01*
G01*
G37*
M02*
