G04 #@! TF.GenerationSoftware,KiCad,Pcbnew,5.1.6-c6e7f7d~87~ubuntu20.04.1*
G04 #@! TF.CreationDate,2020-08-09T17:29:32-07:00*
G04 #@! TF.ProjectId,artix7-pcie-v2,61727469-7837-42d7-9063-69652d76322e,rev?*
G04 #@! TF.SameCoordinates,PX69f4060PY6b00940*
G04 #@! TF.FileFunction,Paste,Bot*
G04 #@! TF.FilePolarity,Positive*
%FSLAX46Y46*%
G04 Gerber Fmt 4.6, Leading zero omitted, Abs format (unit mm)*
G04 Created by KiCad (PCBNEW 5.1.6-c6e7f7d~87~ubuntu20.04.1) date 2020-08-09 17:29:32*
%MOMM*%
%LPD*%
G01*
G04 APERTURE LIST*
%ADD10C,0.152400*%
%ADD11R,2.900000X2.900000*%
%ADD12R,0.300000X0.750000*%
%ADD13R,0.750000X0.300000*%
%ADD14R,1.905000X1.092200*%
%ADD15R,1.200000X1.400000*%
%ADD16R,2.500000X1.800000*%
%ADD17R,1.600000X3.400000*%
%ADD18R,1.000000X4.600000*%
%ADD19R,1.060000X0.650000*%
G04 APERTURE END LIST*
D10*
X47408199Y14686000D02*
X47001799Y14686000D01*
X47001799Y14686000D02*
X47001799Y15194000D01*
X47001799Y15194000D02*
X47408199Y15194000D01*
X47408199Y15194000D02*
X47408199Y14686000D01*
X46758201Y14686000D02*
X46351801Y14686000D01*
X46351801Y14686000D02*
X46351801Y15194000D01*
X46351801Y15194000D02*
X46758201Y15194000D01*
X46758201Y15194000D02*
X46758201Y14686000D01*
X46108199Y14686000D02*
X45701799Y14686000D01*
X45701799Y14686000D02*
X45701799Y15194000D01*
X45701799Y15194000D02*
X46108199Y15194000D01*
X46108199Y15194000D02*
X46108199Y14686000D01*
X45458201Y14686000D02*
X45051801Y14686000D01*
X45051801Y14686000D02*
X45051801Y15194000D01*
X45051801Y15194000D02*
X45458201Y15194000D01*
X45458201Y15194000D02*
X45458201Y14686000D01*
X45458201Y16786000D02*
X45051801Y16786000D01*
X45051801Y16786000D02*
X45051801Y17294000D01*
X45051801Y17294000D02*
X45458201Y17294000D01*
X45458201Y17294000D02*
X45458201Y16786000D01*
X46108199Y16786000D02*
X45701799Y16786000D01*
X45701799Y16786000D02*
X45701799Y17294000D01*
X45701799Y17294000D02*
X46108199Y17294000D01*
X46108199Y17294000D02*
X46108199Y16786000D01*
X46758201Y16786000D02*
X46351801Y16786000D01*
X46351801Y16786000D02*
X46351801Y17294000D01*
X46351801Y17294000D02*
X46758201Y17294000D01*
X46758201Y17294000D02*
X46758201Y16786000D01*
X47408199Y16786000D02*
X47001799Y16786000D01*
X47001799Y16786000D02*
X47001799Y17294000D01*
X47001799Y17294000D02*
X47408199Y17294000D01*
X47408199Y17294000D02*
X47408199Y16786000D01*
X47107570Y15518830D02*
X46723700Y15518830D01*
X46723700Y15518830D02*
X46723700Y15748579D01*
X46723700Y15748579D02*
X46723700Y15748579D01*
X46723700Y15748579D02*
X46865121Y15890000D01*
X46865121Y15890000D02*
X46865121Y15890000D01*
X46865121Y15890000D02*
X47107570Y15890000D01*
X47107570Y15890000D02*
X47107570Y15518830D01*
X46523700Y15518830D02*
X45936300Y15518830D01*
X45936300Y15518830D02*
X45936300Y15748579D01*
X45936300Y15748579D02*
X45936300Y15748579D01*
X45936300Y15748579D02*
X46077721Y15890000D01*
X46077721Y15890000D02*
X46077721Y15890000D01*
X46077721Y15890000D02*
X46382279Y15890000D01*
X46382279Y15890000D02*
X46382279Y15890000D01*
X46382279Y15890000D02*
X46523700Y15748579D01*
X46523700Y15748579D02*
X46523700Y15748579D01*
X46523700Y15748579D02*
X46523700Y15518830D01*
X45736300Y15518830D02*
X45352430Y15518830D01*
X45352430Y15518830D02*
X45352430Y15890000D01*
X45352430Y15890000D02*
X45594879Y15890000D01*
X45594879Y15890000D02*
X45594879Y15890000D01*
X45594879Y15890000D02*
X45736300Y15748579D01*
X45736300Y15748579D02*
X45736300Y15748579D01*
X45736300Y15748579D02*
X45736300Y15518830D01*
X47107570Y16090000D02*
X46865121Y16090000D01*
X46865121Y16090000D02*
X46865121Y16090000D01*
X46865121Y16090000D02*
X46723700Y16231421D01*
X46723700Y16231421D02*
X46723700Y16231421D01*
X46723700Y16231421D02*
X46723700Y16461170D01*
X46723700Y16461170D02*
X47107570Y16461170D01*
X47107570Y16461170D02*
X47107570Y16090000D01*
X46523700Y16231421D02*
X46523700Y16231421D01*
X46523700Y16231421D02*
X46382279Y16090000D01*
X46382279Y16090000D02*
X46382279Y16090000D01*
X46382279Y16090000D02*
X46077721Y16090000D01*
X46077721Y16090000D02*
X46077721Y16090000D01*
X46077721Y16090000D02*
X45936300Y16231421D01*
X45936300Y16231421D02*
X45936300Y16231421D01*
X45936300Y16231421D02*
X45936300Y16461170D01*
X45936300Y16461170D02*
X46523700Y16461170D01*
X46523700Y16461170D02*
X46523700Y16231421D01*
X45736300Y16231421D02*
X45736300Y16231421D01*
X45736300Y16231421D02*
X45594879Y16090000D01*
X45594879Y16090000D02*
X45594879Y16090000D01*
X45594879Y16090000D02*
X45352430Y16090000D01*
X45352430Y16090000D02*
X45352430Y16461170D01*
X45352430Y16461170D02*
X45736300Y16461170D01*
X45736300Y16461170D02*
X45736300Y16231421D01*
X12571801Y17294000D02*
X12978201Y17294000D01*
X12978201Y17294000D02*
X12978201Y16786000D01*
X12978201Y16786000D02*
X12571801Y16786000D01*
X12571801Y16786000D02*
X12571801Y17294000D01*
X13221799Y17294000D02*
X13628199Y17294000D01*
X13628199Y17294000D02*
X13628199Y16786000D01*
X13628199Y16786000D02*
X13221799Y16786000D01*
X13221799Y16786000D02*
X13221799Y17294000D01*
X13871801Y17294000D02*
X14278201Y17294000D01*
X14278201Y17294000D02*
X14278201Y16786000D01*
X14278201Y16786000D02*
X13871801Y16786000D01*
X13871801Y16786000D02*
X13871801Y17294000D01*
X14521799Y17294000D02*
X14928199Y17294000D01*
X14928199Y17294000D02*
X14928199Y16786000D01*
X14928199Y16786000D02*
X14521799Y16786000D01*
X14521799Y16786000D02*
X14521799Y17294000D01*
X14521799Y15194000D02*
X14928199Y15194000D01*
X14928199Y15194000D02*
X14928199Y14686000D01*
X14928199Y14686000D02*
X14521799Y14686000D01*
X14521799Y14686000D02*
X14521799Y15194000D01*
X13871801Y15194000D02*
X14278201Y15194000D01*
X14278201Y15194000D02*
X14278201Y14686000D01*
X14278201Y14686000D02*
X13871801Y14686000D01*
X13871801Y14686000D02*
X13871801Y15194000D01*
X13221799Y15194000D02*
X13628199Y15194000D01*
X13628199Y15194000D02*
X13628199Y14686000D01*
X13628199Y14686000D02*
X13221799Y14686000D01*
X13221799Y14686000D02*
X13221799Y15194000D01*
X12571801Y15194000D02*
X12978201Y15194000D01*
X12978201Y15194000D02*
X12978201Y14686000D01*
X12978201Y14686000D02*
X12571801Y14686000D01*
X12571801Y14686000D02*
X12571801Y15194000D01*
X12872430Y16461170D02*
X13256300Y16461170D01*
X13256300Y16461170D02*
X13256300Y16231421D01*
X13256300Y16231421D02*
X13256300Y16231421D01*
X13256300Y16231421D02*
X13114879Y16090000D01*
X13114879Y16090000D02*
X13114879Y16090000D01*
X13114879Y16090000D02*
X12872430Y16090000D01*
X12872430Y16090000D02*
X12872430Y16461170D01*
X13456300Y16461170D02*
X14043700Y16461170D01*
X14043700Y16461170D02*
X14043700Y16231421D01*
X14043700Y16231421D02*
X14043700Y16231421D01*
X14043700Y16231421D02*
X13902279Y16090000D01*
X13902279Y16090000D02*
X13902279Y16090000D01*
X13902279Y16090000D02*
X13597721Y16090000D01*
X13597721Y16090000D02*
X13597721Y16090000D01*
X13597721Y16090000D02*
X13456300Y16231421D01*
X13456300Y16231421D02*
X13456300Y16231421D01*
X13456300Y16231421D02*
X13456300Y16461170D01*
X14243700Y16461170D02*
X14627570Y16461170D01*
X14627570Y16461170D02*
X14627570Y16090000D01*
X14627570Y16090000D02*
X14385121Y16090000D01*
X14385121Y16090000D02*
X14385121Y16090000D01*
X14385121Y16090000D02*
X14243700Y16231421D01*
X14243700Y16231421D02*
X14243700Y16231421D01*
X14243700Y16231421D02*
X14243700Y16461170D01*
X12872430Y15890000D02*
X13114879Y15890000D01*
X13114879Y15890000D02*
X13114879Y15890000D01*
X13114879Y15890000D02*
X13256300Y15748579D01*
X13256300Y15748579D02*
X13256300Y15748579D01*
X13256300Y15748579D02*
X13256300Y15518830D01*
X13256300Y15518830D02*
X12872430Y15518830D01*
X12872430Y15518830D02*
X12872430Y15890000D01*
X13456300Y15748579D02*
X13456300Y15748579D01*
X13456300Y15748579D02*
X13597721Y15890000D01*
X13597721Y15890000D02*
X13597721Y15890000D01*
X13597721Y15890000D02*
X13902279Y15890000D01*
X13902279Y15890000D02*
X13902279Y15890000D01*
X13902279Y15890000D02*
X14043700Y15748579D01*
X14043700Y15748579D02*
X14043700Y15748579D01*
X14043700Y15748579D02*
X14043700Y15518830D01*
X14043700Y15518830D02*
X13456300Y15518830D01*
X13456300Y15518830D02*
X13456300Y15748579D01*
X14243700Y15748579D02*
X14243700Y15748579D01*
X14243700Y15748579D02*
X14385121Y15890000D01*
X14385121Y15890000D02*
X14385121Y15890000D01*
X14385121Y15890000D02*
X14627570Y15890000D01*
X14627570Y15890000D02*
X14627570Y15518830D01*
X14627570Y15518830D02*
X14243700Y15518830D01*
X14243700Y15518830D02*
X14243700Y15748579D01*
X47428199Y24086000D02*
X47021799Y24086000D01*
X47021799Y24086000D02*
X47021799Y24594000D01*
X47021799Y24594000D02*
X47428199Y24594000D01*
X47428199Y24594000D02*
X47428199Y24086000D01*
X46778201Y24086000D02*
X46371801Y24086000D01*
X46371801Y24086000D02*
X46371801Y24594000D01*
X46371801Y24594000D02*
X46778201Y24594000D01*
X46778201Y24594000D02*
X46778201Y24086000D01*
X46128199Y24086000D02*
X45721799Y24086000D01*
X45721799Y24086000D02*
X45721799Y24594000D01*
X45721799Y24594000D02*
X46128199Y24594000D01*
X46128199Y24594000D02*
X46128199Y24086000D01*
X45478201Y24086000D02*
X45071801Y24086000D01*
X45071801Y24086000D02*
X45071801Y24594000D01*
X45071801Y24594000D02*
X45478201Y24594000D01*
X45478201Y24594000D02*
X45478201Y24086000D01*
X45478201Y26186000D02*
X45071801Y26186000D01*
X45071801Y26186000D02*
X45071801Y26694000D01*
X45071801Y26694000D02*
X45478201Y26694000D01*
X45478201Y26694000D02*
X45478201Y26186000D01*
X46128199Y26186000D02*
X45721799Y26186000D01*
X45721799Y26186000D02*
X45721799Y26694000D01*
X45721799Y26694000D02*
X46128199Y26694000D01*
X46128199Y26694000D02*
X46128199Y26186000D01*
X46778201Y26186000D02*
X46371801Y26186000D01*
X46371801Y26186000D02*
X46371801Y26694000D01*
X46371801Y26694000D02*
X46778201Y26694000D01*
X46778201Y26694000D02*
X46778201Y26186000D01*
X47428199Y26186000D02*
X47021799Y26186000D01*
X47021799Y26186000D02*
X47021799Y26694000D01*
X47021799Y26694000D02*
X47428199Y26694000D01*
X47428199Y26694000D02*
X47428199Y26186000D01*
X47127570Y24918830D02*
X46743700Y24918830D01*
X46743700Y24918830D02*
X46743700Y25148579D01*
X46743700Y25148579D02*
X46743700Y25148579D01*
X46743700Y25148579D02*
X46885121Y25290000D01*
X46885121Y25290000D02*
X46885121Y25290000D01*
X46885121Y25290000D02*
X47127570Y25290000D01*
X47127570Y25290000D02*
X47127570Y24918830D01*
X46543700Y24918830D02*
X45956300Y24918830D01*
X45956300Y24918830D02*
X45956300Y25148579D01*
X45956300Y25148579D02*
X45956300Y25148579D01*
X45956300Y25148579D02*
X46097721Y25290000D01*
X46097721Y25290000D02*
X46097721Y25290000D01*
X46097721Y25290000D02*
X46402279Y25290000D01*
X46402279Y25290000D02*
X46402279Y25290000D01*
X46402279Y25290000D02*
X46543700Y25148579D01*
X46543700Y25148579D02*
X46543700Y25148579D01*
X46543700Y25148579D02*
X46543700Y24918830D01*
X45756300Y24918830D02*
X45372430Y24918830D01*
X45372430Y24918830D02*
X45372430Y25290000D01*
X45372430Y25290000D02*
X45614879Y25290000D01*
X45614879Y25290000D02*
X45614879Y25290000D01*
X45614879Y25290000D02*
X45756300Y25148579D01*
X45756300Y25148579D02*
X45756300Y25148579D01*
X45756300Y25148579D02*
X45756300Y24918830D01*
X47127570Y25490000D02*
X46885121Y25490000D01*
X46885121Y25490000D02*
X46885121Y25490000D01*
X46885121Y25490000D02*
X46743700Y25631421D01*
X46743700Y25631421D02*
X46743700Y25631421D01*
X46743700Y25631421D02*
X46743700Y25861170D01*
X46743700Y25861170D02*
X47127570Y25861170D01*
X47127570Y25861170D02*
X47127570Y25490000D01*
X46543700Y25631421D02*
X46543700Y25631421D01*
X46543700Y25631421D02*
X46402279Y25490000D01*
X46402279Y25490000D02*
X46402279Y25490000D01*
X46402279Y25490000D02*
X46097721Y25490000D01*
X46097721Y25490000D02*
X46097721Y25490000D01*
X46097721Y25490000D02*
X45956300Y25631421D01*
X45956300Y25631421D02*
X45956300Y25631421D01*
X45956300Y25631421D02*
X45956300Y25861170D01*
X45956300Y25861170D02*
X46543700Y25861170D01*
X46543700Y25861170D02*
X46543700Y25631421D01*
X45756300Y25631421D02*
X45756300Y25631421D01*
X45756300Y25631421D02*
X45614879Y25490000D01*
X45614879Y25490000D02*
X45614879Y25490000D01*
X45614879Y25490000D02*
X45372430Y25490000D01*
X45372430Y25490000D02*
X45372430Y25861170D01*
X45372430Y25861170D02*
X45756300Y25861170D01*
X45756300Y25861170D02*
X45756300Y25631421D01*
X47408199Y33486000D02*
X47001799Y33486000D01*
X47001799Y33486000D02*
X47001799Y33994000D01*
X47001799Y33994000D02*
X47408199Y33994000D01*
X47408199Y33994000D02*
X47408199Y33486000D01*
X46758201Y33486000D02*
X46351801Y33486000D01*
X46351801Y33486000D02*
X46351801Y33994000D01*
X46351801Y33994000D02*
X46758201Y33994000D01*
X46758201Y33994000D02*
X46758201Y33486000D01*
X46108199Y33486000D02*
X45701799Y33486000D01*
X45701799Y33486000D02*
X45701799Y33994000D01*
X45701799Y33994000D02*
X46108199Y33994000D01*
X46108199Y33994000D02*
X46108199Y33486000D01*
X45458201Y33486000D02*
X45051801Y33486000D01*
X45051801Y33486000D02*
X45051801Y33994000D01*
X45051801Y33994000D02*
X45458201Y33994000D01*
X45458201Y33994000D02*
X45458201Y33486000D01*
X45458201Y35586000D02*
X45051801Y35586000D01*
X45051801Y35586000D02*
X45051801Y36094000D01*
X45051801Y36094000D02*
X45458201Y36094000D01*
X45458201Y36094000D02*
X45458201Y35586000D01*
X46108199Y35586000D02*
X45701799Y35586000D01*
X45701799Y35586000D02*
X45701799Y36094000D01*
X45701799Y36094000D02*
X46108199Y36094000D01*
X46108199Y36094000D02*
X46108199Y35586000D01*
X46758201Y35586000D02*
X46351801Y35586000D01*
X46351801Y35586000D02*
X46351801Y36094000D01*
X46351801Y36094000D02*
X46758201Y36094000D01*
X46758201Y36094000D02*
X46758201Y35586000D01*
X47408199Y35586000D02*
X47001799Y35586000D01*
X47001799Y35586000D02*
X47001799Y36094000D01*
X47001799Y36094000D02*
X47408199Y36094000D01*
X47408199Y36094000D02*
X47408199Y35586000D01*
X47107570Y34318830D02*
X46723700Y34318830D01*
X46723700Y34318830D02*
X46723700Y34548579D01*
X46723700Y34548579D02*
X46723700Y34548579D01*
X46723700Y34548579D02*
X46865121Y34690000D01*
X46865121Y34690000D02*
X46865121Y34690000D01*
X46865121Y34690000D02*
X47107570Y34690000D01*
X47107570Y34690000D02*
X47107570Y34318830D01*
X46523700Y34318830D02*
X45936300Y34318830D01*
X45936300Y34318830D02*
X45936300Y34548579D01*
X45936300Y34548579D02*
X45936300Y34548579D01*
X45936300Y34548579D02*
X46077721Y34690000D01*
X46077721Y34690000D02*
X46077721Y34690000D01*
X46077721Y34690000D02*
X46382279Y34690000D01*
X46382279Y34690000D02*
X46382279Y34690000D01*
X46382279Y34690000D02*
X46523700Y34548579D01*
X46523700Y34548579D02*
X46523700Y34548579D01*
X46523700Y34548579D02*
X46523700Y34318830D01*
X45736300Y34318830D02*
X45352430Y34318830D01*
X45352430Y34318830D02*
X45352430Y34690000D01*
X45352430Y34690000D02*
X45594879Y34690000D01*
X45594879Y34690000D02*
X45594879Y34690000D01*
X45594879Y34690000D02*
X45736300Y34548579D01*
X45736300Y34548579D02*
X45736300Y34548579D01*
X45736300Y34548579D02*
X45736300Y34318830D01*
X47107570Y34890000D02*
X46865121Y34890000D01*
X46865121Y34890000D02*
X46865121Y34890000D01*
X46865121Y34890000D02*
X46723700Y35031421D01*
X46723700Y35031421D02*
X46723700Y35031421D01*
X46723700Y35031421D02*
X46723700Y35261170D01*
X46723700Y35261170D02*
X47107570Y35261170D01*
X47107570Y35261170D02*
X47107570Y34890000D01*
X46523700Y35031421D02*
X46523700Y35031421D01*
X46523700Y35031421D02*
X46382279Y34890000D01*
X46382279Y34890000D02*
X46382279Y34890000D01*
X46382279Y34890000D02*
X46077721Y34890000D01*
X46077721Y34890000D02*
X46077721Y34890000D01*
X46077721Y34890000D02*
X45936300Y35031421D01*
X45936300Y35031421D02*
X45936300Y35031421D01*
X45936300Y35031421D02*
X45936300Y35261170D01*
X45936300Y35261170D02*
X46523700Y35261170D01*
X46523700Y35261170D02*
X46523700Y35031421D01*
X45736300Y35031421D02*
X45736300Y35031421D01*
X45736300Y35031421D02*
X45594879Y34890000D01*
X45594879Y34890000D02*
X45594879Y34890000D01*
X45594879Y34890000D02*
X45352430Y34890000D01*
X45352430Y34890000D02*
X45352430Y35261170D01*
X45352430Y35261170D02*
X45736300Y35261170D01*
X45736300Y35261170D02*
X45736300Y35031421D01*
X12591801Y26694000D02*
X12998201Y26694000D01*
X12998201Y26694000D02*
X12998201Y26186000D01*
X12998201Y26186000D02*
X12591801Y26186000D01*
X12591801Y26186000D02*
X12591801Y26694000D01*
X13241799Y26694000D02*
X13648199Y26694000D01*
X13648199Y26694000D02*
X13648199Y26186000D01*
X13648199Y26186000D02*
X13241799Y26186000D01*
X13241799Y26186000D02*
X13241799Y26694000D01*
X13891801Y26694000D02*
X14298201Y26694000D01*
X14298201Y26694000D02*
X14298201Y26186000D01*
X14298201Y26186000D02*
X13891801Y26186000D01*
X13891801Y26186000D02*
X13891801Y26694000D01*
X14541799Y26694000D02*
X14948199Y26694000D01*
X14948199Y26694000D02*
X14948199Y26186000D01*
X14948199Y26186000D02*
X14541799Y26186000D01*
X14541799Y26186000D02*
X14541799Y26694000D01*
X14541799Y24594000D02*
X14948199Y24594000D01*
X14948199Y24594000D02*
X14948199Y24086000D01*
X14948199Y24086000D02*
X14541799Y24086000D01*
X14541799Y24086000D02*
X14541799Y24594000D01*
X13891801Y24594000D02*
X14298201Y24594000D01*
X14298201Y24594000D02*
X14298201Y24086000D01*
X14298201Y24086000D02*
X13891801Y24086000D01*
X13891801Y24086000D02*
X13891801Y24594000D01*
X13241799Y24594000D02*
X13648199Y24594000D01*
X13648199Y24594000D02*
X13648199Y24086000D01*
X13648199Y24086000D02*
X13241799Y24086000D01*
X13241799Y24086000D02*
X13241799Y24594000D01*
X12591801Y24594000D02*
X12998201Y24594000D01*
X12998201Y24594000D02*
X12998201Y24086000D01*
X12998201Y24086000D02*
X12591801Y24086000D01*
X12591801Y24086000D02*
X12591801Y24594000D01*
X12892430Y25861170D02*
X13276300Y25861170D01*
X13276300Y25861170D02*
X13276300Y25631421D01*
X13276300Y25631421D02*
X13276300Y25631421D01*
X13276300Y25631421D02*
X13134879Y25490000D01*
X13134879Y25490000D02*
X13134879Y25490000D01*
X13134879Y25490000D02*
X12892430Y25490000D01*
X12892430Y25490000D02*
X12892430Y25861170D01*
X13476300Y25861170D02*
X14063700Y25861170D01*
X14063700Y25861170D02*
X14063700Y25631421D01*
X14063700Y25631421D02*
X14063700Y25631421D01*
X14063700Y25631421D02*
X13922279Y25490000D01*
X13922279Y25490000D02*
X13922279Y25490000D01*
X13922279Y25490000D02*
X13617721Y25490000D01*
X13617721Y25490000D02*
X13617721Y25490000D01*
X13617721Y25490000D02*
X13476300Y25631421D01*
X13476300Y25631421D02*
X13476300Y25631421D01*
X13476300Y25631421D02*
X13476300Y25861170D01*
X14263700Y25861170D02*
X14647570Y25861170D01*
X14647570Y25861170D02*
X14647570Y25490000D01*
X14647570Y25490000D02*
X14405121Y25490000D01*
X14405121Y25490000D02*
X14405121Y25490000D01*
X14405121Y25490000D02*
X14263700Y25631421D01*
X14263700Y25631421D02*
X14263700Y25631421D01*
X14263700Y25631421D02*
X14263700Y25861170D01*
X12892430Y25290000D02*
X13134879Y25290000D01*
X13134879Y25290000D02*
X13134879Y25290000D01*
X13134879Y25290000D02*
X13276300Y25148579D01*
X13276300Y25148579D02*
X13276300Y25148579D01*
X13276300Y25148579D02*
X13276300Y24918830D01*
X13276300Y24918830D02*
X12892430Y24918830D01*
X12892430Y24918830D02*
X12892430Y25290000D01*
X13476300Y25148579D02*
X13476300Y25148579D01*
X13476300Y25148579D02*
X13617721Y25290000D01*
X13617721Y25290000D02*
X13617721Y25290000D01*
X13617721Y25290000D02*
X13922279Y25290000D01*
X13922279Y25290000D02*
X13922279Y25290000D01*
X13922279Y25290000D02*
X14063700Y25148579D01*
X14063700Y25148579D02*
X14063700Y25148579D01*
X14063700Y25148579D02*
X14063700Y24918830D01*
X14063700Y24918830D02*
X13476300Y24918830D01*
X13476300Y24918830D02*
X13476300Y25148579D01*
X14263700Y25148579D02*
X14263700Y25148579D01*
X14263700Y25148579D02*
X14405121Y25290000D01*
X14405121Y25290000D02*
X14405121Y25290000D01*
X14405121Y25290000D02*
X14647570Y25290000D01*
X14647570Y25290000D02*
X14647570Y24918830D01*
X14647570Y24918830D02*
X14263700Y24918830D01*
X14263700Y24918830D02*
X14263700Y25148579D01*
G36*
G01*
X43446250Y17400000D02*
X42533750Y17400000D01*
G75*
G02*
X42290000Y17643750I0J243750D01*
G01*
X42290000Y18131250D01*
G75*
G02*
X42533750Y18375000I243750J0D01*
G01*
X43446250Y18375000D01*
G75*
G02*
X43690000Y18131250I0J-243750D01*
G01*
X43690000Y17643750D01*
G75*
G02*
X43446250Y17400000I-243750J0D01*
G01*
G37*
G36*
G01*
X43446250Y15525000D02*
X42533750Y15525000D01*
G75*
G02*
X42290000Y15768750I0J243750D01*
G01*
X42290000Y16256250D01*
G75*
G02*
X42533750Y16500000I243750J0D01*
G01*
X43446250Y16500000D01*
G75*
G02*
X43690000Y16256250I0J-243750D01*
G01*
X43690000Y15768750D01*
G75*
G02*
X43446250Y15525000I-243750J0D01*
G01*
G37*
G36*
G01*
X16543750Y15140000D02*
X17456250Y15140000D01*
G75*
G02*
X17700000Y14896250I0J-243750D01*
G01*
X17700000Y14408750D01*
G75*
G02*
X17456250Y14165000I-243750J0D01*
G01*
X16543750Y14165000D01*
G75*
G02*
X16300000Y14408750I0J243750D01*
G01*
X16300000Y14896250D01*
G75*
G02*
X16543750Y15140000I243750J0D01*
G01*
G37*
G36*
G01*
X16543750Y17015000D02*
X17456250Y17015000D01*
G75*
G02*
X17700000Y16771250I0J-243750D01*
G01*
X17700000Y16283750D01*
G75*
G02*
X17456250Y16040000I-243750J0D01*
G01*
X16543750Y16040000D01*
G75*
G02*
X16300000Y16283750I0J243750D01*
G01*
X16300000Y16771250D01*
G75*
G02*
X16543750Y17015000I243750J0D01*
G01*
G37*
G36*
G01*
X43456250Y26240000D02*
X42543750Y26240000D01*
G75*
G02*
X42300000Y26483750I0J243750D01*
G01*
X42300000Y26971250D01*
G75*
G02*
X42543750Y27215000I243750J0D01*
G01*
X43456250Y27215000D01*
G75*
G02*
X43700000Y26971250I0J-243750D01*
G01*
X43700000Y26483750D01*
G75*
G02*
X43456250Y26240000I-243750J0D01*
G01*
G37*
G36*
G01*
X43456250Y24365000D02*
X42543750Y24365000D01*
G75*
G02*
X42300000Y24608750I0J243750D01*
G01*
X42300000Y25096250D01*
G75*
G02*
X42543750Y25340000I243750J0D01*
G01*
X43456250Y25340000D01*
G75*
G02*
X43700000Y25096250I0J-243750D01*
G01*
X43700000Y24608750D01*
G75*
G02*
X43456250Y24365000I-243750J0D01*
G01*
G37*
G36*
G01*
X43456250Y35640000D02*
X42543750Y35640000D01*
G75*
G02*
X42300000Y35883750I0J243750D01*
G01*
X42300000Y36371250D01*
G75*
G02*
X42543750Y36615000I243750J0D01*
G01*
X43456250Y36615000D01*
G75*
G02*
X43700000Y36371250I0J-243750D01*
G01*
X43700000Y35883750D01*
G75*
G02*
X43456250Y35640000I-243750J0D01*
G01*
G37*
G36*
G01*
X43456250Y33765000D02*
X42543750Y33765000D01*
G75*
G02*
X42300000Y34008750I0J243750D01*
G01*
X42300000Y34496250D01*
G75*
G02*
X42543750Y34740000I243750J0D01*
G01*
X43456250Y34740000D01*
G75*
G02*
X43700000Y34496250I0J-243750D01*
G01*
X43700000Y34008750D01*
G75*
G02*
X43456250Y33765000I-243750J0D01*
G01*
G37*
G36*
G01*
X16543750Y24202500D02*
X17456250Y24202500D01*
G75*
G02*
X17700000Y23958750I0J-243750D01*
G01*
X17700000Y23471250D01*
G75*
G02*
X17456250Y23227500I-243750J0D01*
G01*
X16543750Y23227500D01*
G75*
G02*
X16300000Y23471250I0J243750D01*
G01*
X16300000Y23958750D01*
G75*
G02*
X16543750Y24202500I243750J0D01*
G01*
G37*
G36*
G01*
X16543750Y26077500D02*
X17456250Y26077500D01*
G75*
G02*
X17700000Y25833750I0J-243750D01*
G01*
X17700000Y25346250D01*
G75*
G02*
X17456250Y25102500I-243750J0D01*
G01*
X16543750Y25102500D01*
G75*
G02*
X16300000Y25346250I0J243750D01*
G01*
X16300000Y25833750D01*
G75*
G02*
X16543750Y26077500I243750J0D01*
G01*
G37*
G36*
G01*
X47727500Y43700000D02*
X48072500Y43700000D01*
G75*
G02*
X48220000Y43552500I0J-147500D01*
G01*
X48220000Y43257500D01*
G75*
G02*
X48072500Y43110000I-147500J0D01*
G01*
X47727500Y43110000D01*
G75*
G02*
X47580000Y43257500I0J147500D01*
G01*
X47580000Y43552500D01*
G75*
G02*
X47727500Y43700000I147500J0D01*
G01*
G37*
G36*
G01*
X47727500Y44670000D02*
X48072500Y44670000D01*
G75*
G02*
X48220000Y44522500I0J-147500D01*
G01*
X48220000Y44227500D01*
G75*
G02*
X48072500Y44080000I-147500J0D01*
G01*
X47727500Y44080000D01*
G75*
G02*
X47580000Y44227500I0J147500D01*
G01*
X47580000Y44522500D01*
G75*
G02*
X47727500Y44670000I147500J0D01*
G01*
G37*
G36*
G01*
X14527500Y43800000D02*
X14872500Y43800000D01*
G75*
G02*
X15020000Y43652500I0J-147500D01*
G01*
X15020000Y43357500D01*
G75*
G02*
X14872500Y43210000I-147500J0D01*
G01*
X14527500Y43210000D01*
G75*
G02*
X14380000Y43357500I0J147500D01*
G01*
X14380000Y43652500D01*
G75*
G02*
X14527500Y43800000I147500J0D01*
G01*
G37*
G36*
G01*
X14527500Y44770000D02*
X14872500Y44770000D01*
G75*
G02*
X15020000Y44622500I0J-147500D01*
G01*
X15020000Y44327500D01*
G75*
G02*
X14872500Y44180000I-147500J0D01*
G01*
X14527500Y44180000D01*
G75*
G02*
X14380000Y44327500I0J147500D01*
G01*
X14380000Y44622500D01*
G75*
G02*
X14527500Y44770000I147500J0D01*
G01*
G37*
G36*
G01*
X20850000Y30515001D02*
X20850000Y29664999D01*
G75*
G02*
X20600001Y29415000I-249999J0D01*
G01*
X19699999Y29415000D01*
G75*
G02*
X19450000Y29664999I0J249999D01*
G01*
X19450000Y30515001D01*
G75*
G02*
X19699999Y30765000I249999J0D01*
G01*
X20600001Y30765000D01*
G75*
G02*
X20850000Y30515001I0J-249999D01*
G01*
G37*
G36*
G01*
X23550000Y30515001D02*
X23550000Y29664999D01*
G75*
G02*
X23300001Y29415000I-249999J0D01*
G01*
X22399999Y29415000D01*
G75*
G02*
X22150000Y29664999I0J249999D01*
G01*
X22150000Y30515001D01*
G75*
G02*
X22399999Y30765000I249999J0D01*
G01*
X23300001Y30765000D01*
G75*
G02*
X23550000Y30515001I0J-249999D01*
G01*
G37*
G36*
G01*
X21150000Y21064999D02*
X21150000Y21915001D01*
G75*
G02*
X21399999Y22165000I249999J0D01*
G01*
X22300001Y22165000D01*
G75*
G02*
X22550000Y21915001I0J-249999D01*
G01*
X22550000Y21064999D01*
G75*
G02*
X22300001Y20815000I-249999J0D01*
G01*
X21399999Y20815000D01*
G75*
G02*
X21150000Y21064999I0J249999D01*
G01*
G37*
G36*
G01*
X18450000Y21064999D02*
X18450000Y21915001D01*
G75*
G02*
X18699999Y22165000I249999J0D01*
G01*
X19600001Y22165000D01*
G75*
G02*
X19850000Y21915001I0J-249999D01*
G01*
X19850000Y21064999D01*
G75*
G02*
X19600001Y20815000I-249999J0D01*
G01*
X18699999Y20815000D01*
G75*
G02*
X18450000Y21064999I0J249999D01*
G01*
G37*
G36*
G01*
X37150000Y36364999D02*
X37150000Y37215001D01*
G75*
G02*
X37399999Y37465000I249999J0D01*
G01*
X38300001Y37465000D01*
G75*
G02*
X38550000Y37215001I0J-249999D01*
G01*
X38550000Y36364999D01*
G75*
G02*
X38300001Y36115000I-249999J0D01*
G01*
X37399999Y36115000D01*
G75*
G02*
X37150000Y36364999I0J249999D01*
G01*
G37*
G36*
G01*
X34450000Y36364999D02*
X34450000Y37215001D01*
G75*
G02*
X34699999Y37465000I249999J0D01*
G01*
X35600001Y37465000D01*
G75*
G02*
X35850000Y37215001I0J-249999D01*
G01*
X35850000Y36364999D01*
G75*
G02*
X35600001Y36115000I-249999J0D01*
G01*
X34699999Y36115000D01*
G75*
G02*
X34450000Y36364999I0J249999D01*
G01*
G37*
G36*
G01*
X54025001Y43040000D02*
X53174999Y43040000D01*
G75*
G02*
X52925000Y43289999I0J249999D01*
G01*
X52925000Y44190001D01*
G75*
G02*
X53174999Y44440000I249999J0D01*
G01*
X54025001Y44440000D01*
G75*
G02*
X54275000Y44190001I0J-249999D01*
G01*
X54275000Y43289999D01*
G75*
G02*
X54025001Y43040000I-249999J0D01*
G01*
G37*
G36*
G01*
X54025001Y40340000D02*
X53174999Y40340000D01*
G75*
G02*
X52925000Y40589999I0J249999D01*
G01*
X52925000Y41490001D01*
G75*
G02*
X53174999Y41740000I249999J0D01*
G01*
X54025001Y41740000D01*
G75*
G02*
X54275000Y41490001I0J-249999D01*
G01*
X54275000Y40589999D01*
G75*
G02*
X54025001Y40340000I-249999J0D01*
G01*
G37*
G36*
G01*
X53074999Y8140000D02*
X53925001Y8140000D01*
G75*
G02*
X54175000Y7890001I0J-249999D01*
G01*
X54175000Y6989999D01*
G75*
G02*
X53925001Y6740000I-249999J0D01*
G01*
X53074999Y6740000D01*
G75*
G02*
X52825000Y6989999I0J249999D01*
G01*
X52825000Y7890001D01*
G75*
G02*
X53074999Y8140000I249999J0D01*
G01*
G37*
G36*
G01*
X53074999Y10840000D02*
X53925001Y10840000D01*
G75*
G02*
X54175000Y10590001I0J-249999D01*
G01*
X54175000Y9689999D01*
G75*
G02*
X53925001Y9440000I-249999J0D01*
G01*
X53074999Y9440000D01*
G75*
G02*
X52825000Y9689999I0J249999D01*
G01*
X52825000Y10590001D01*
G75*
G02*
X53074999Y10840000I249999J0D01*
G01*
G37*
G36*
G01*
X36450000Y25964999D02*
X36450000Y26815001D01*
G75*
G02*
X36699999Y27065000I249999J0D01*
G01*
X37600001Y27065000D01*
G75*
G02*
X37850000Y26815001I0J-249999D01*
G01*
X37850000Y25964999D01*
G75*
G02*
X37600001Y25715000I-249999J0D01*
G01*
X36699999Y25715000D01*
G75*
G02*
X36450000Y25964999I0J249999D01*
G01*
G37*
G36*
G01*
X33750000Y25964999D02*
X33750000Y26815001D01*
G75*
G02*
X33999999Y27065000I249999J0D01*
G01*
X34900001Y27065000D01*
G75*
G02*
X35150000Y26815001I0J-249999D01*
G01*
X35150000Y25964999D01*
G75*
G02*
X34900001Y25715000I-249999J0D01*
G01*
X33999999Y25715000D01*
G75*
G02*
X33750000Y25964999I0J249999D01*
G01*
G37*
G36*
G01*
X24574999Y19240000D02*
X25425001Y19240000D01*
G75*
G02*
X25675000Y18990001I0J-249999D01*
G01*
X25675000Y18089999D01*
G75*
G02*
X25425001Y17840000I-249999J0D01*
G01*
X24574999Y17840000D01*
G75*
G02*
X24325000Y18089999I0J249999D01*
G01*
X24325000Y18990001D01*
G75*
G02*
X24574999Y19240000I249999J0D01*
G01*
G37*
G36*
G01*
X24574999Y21940000D02*
X25425001Y21940000D01*
G75*
G02*
X25675000Y21690001I0J-249999D01*
G01*
X25675000Y20789999D01*
G75*
G02*
X25425001Y20540000I-249999J0D01*
G01*
X24574999Y20540000D01*
G75*
G02*
X24325000Y20789999I0J249999D01*
G01*
X24325000Y21690001D01*
G75*
G02*
X24574999Y21940000I249999J0D01*
G01*
G37*
G36*
G01*
X35150000Y29764999D02*
X35150000Y30615001D01*
G75*
G02*
X35399999Y30865000I249999J0D01*
G01*
X36300001Y30865000D01*
G75*
G02*
X36550000Y30615001I0J-249999D01*
G01*
X36550000Y29764999D01*
G75*
G02*
X36300001Y29515000I-249999J0D01*
G01*
X35399999Y29515000D01*
G75*
G02*
X35150000Y29764999I0J249999D01*
G01*
G37*
G36*
G01*
X32450000Y29764999D02*
X32450000Y30615001D01*
G75*
G02*
X32699999Y30865000I249999J0D01*
G01*
X33600001Y30865000D01*
G75*
G02*
X33850000Y30615001I0J-249999D01*
G01*
X33850000Y29764999D01*
G75*
G02*
X33600001Y29515000I-249999J0D01*
G01*
X32699999Y29515000D01*
G75*
G02*
X32450000Y29764999I0J249999D01*
G01*
G37*
G36*
G01*
X5974999Y41940000D02*
X6825001Y41940000D01*
G75*
G02*
X7075000Y41690001I0J-249999D01*
G01*
X7075000Y40789999D01*
G75*
G02*
X6825001Y40540000I-249999J0D01*
G01*
X5974999Y40540000D01*
G75*
G02*
X5725000Y40789999I0J249999D01*
G01*
X5725000Y41690001D01*
G75*
G02*
X5974999Y41940000I249999J0D01*
G01*
G37*
G36*
G01*
X5974999Y44640000D02*
X6825001Y44640000D01*
G75*
G02*
X7075000Y44390001I0J-249999D01*
G01*
X7075000Y43489999D01*
G75*
G02*
X6825001Y43240000I-249999J0D01*
G01*
X5974999Y43240000D01*
G75*
G02*
X5725000Y43489999I0J249999D01*
G01*
X5725000Y44390001D01*
G75*
G02*
X5974999Y44640000I249999J0D01*
G01*
G37*
G36*
G01*
X7025001Y9040000D02*
X6174999Y9040000D01*
G75*
G02*
X5925000Y9289999I0J249999D01*
G01*
X5925000Y10190001D01*
G75*
G02*
X6174999Y10440000I249999J0D01*
G01*
X7025001Y10440000D01*
G75*
G02*
X7275000Y10190001I0J-249999D01*
G01*
X7275000Y9289999D01*
G75*
G02*
X7025001Y9040000I-249999J0D01*
G01*
G37*
G36*
G01*
X7025001Y6340000D02*
X6174999Y6340000D01*
G75*
G02*
X5925000Y6589999I0J249999D01*
G01*
X5925000Y7490001D01*
G75*
G02*
X6174999Y7740000I249999J0D01*
G01*
X7025001Y7740000D01*
G75*
G02*
X7275000Y7490001I0J-249999D01*
G01*
X7275000Y6589999D01*
G75*
G02*
X7025001Y6340000I-249999J0D01*
G01*
G37*
G36*
G01*
X37510000Y15417500D02*
X37510000Y15762500D01*
G75*
G02*
X37657500Y15910000I147500J0D01*
G01*
X37952500Y15910000D01*
G75*
G02*
X38100000Y15762500I0J-147500D01*
G01*
X38100000Y15417500D01*
G75*
G02*
X37952500Y15270000I-147500J0D01*
G01*
X37657500Y15270000D01*
G75*
G02*
X37510000Y15417500I0J147500D01*
G01*
G37*
G36*
G01*
X36540000Y15417500D02*
X36540000Y15762500D01*
G75*
G02*
X36687500Y15910000I147500J0D01*
G01*
X36982500Y15910000D01*
G75*
G02*
X37130000Y15762500I0J-147500D01*
G01*
X37130000Y15417500D01*
G75*
G02*
X36982500Y15270000I-147500J0D01*
G01*
X36687500Y15270000D01*
G75*
G02*
X36540000Y15417500I0J147500D01*
G01*
G37*
G36*
G01*
X48990000Y7217500D02*
X48990000Y7562500D01*
G75*
G02*
X49137500Y7710000I147500J0D01*
G01*
X49432500Y7710000D01*
G75*
G02*
X49580000Y7562500I0J-147500D01*
G01*
X49580000Y7217500D01*
G75*
G02*
X49432500Y7070000I-147500J0D01*
G01*
X49137500Y7070000D01*
G75*
G02*
X48990000Y7217500I0J147500D01*
G01*
G37*
G36*
G01*
X48020000Y7217500D02*
X48020000Y7562500D01*
G75*
G02*
X48167500Y7710000I147500J0D01*
G01*
X48462500Y7710000D01*
G75*
G02*
X48610000Y7562500I0J-147500D01*
G01*
X48610000Y7217500D01*
G75*
G02*
X48462500Y7070000I-147500J0D01*
G01*
X48167500Y7070000D01*
G75*
G02*
X48020000Y7217500I0J147500D01*
G01*
G37*
G36*
G01*
X45010000Y18562500D02*
X45010000Y18217500D01*
G75*
G02*
X44862500Y18070000I-147500J0D01*
G01*
X44567500Y18070000D01*
G75*
G02*
X44420000Y18217500I0J147500D01*
G01*
X44420000Y18562500D01*
G75*
G02*
X44567500Y18710000I147500J0D01*
G01*
X44862500Y18710000D01*
G75*
G02*
X45010000Y18562500I0J-147500D01*
G01*
G37*
G36*
G01*
X45980000Y18562500D02*
X45980000Y18217500D01*
G75*
G02*
X45832500Y18070000I-147500J0D01*
G01*
X45537500Y18070000D01*
G75*
G02*
X45390000Y18217500I0J147500D01*
G01*
X45390000Y18562500D01*
G75*
G02*
X45537500Y18710000I147500J0D01*
G01*
X45832500Y18710000D01*
G75*
G02*
X45980000Y18562500I0J-147500D01*
G01*
G37*
G36*
G01*
X47390000Y18217500D02*
X47390000Y18562500D01*
G75*
G02*
X47537500Y18710000I147500J0D01*
G01*
X47832500Y18710000D01*
G75*
G02*
X47980000Y18562500I0J-147500D01*
G01*
X47980000Y18217500D01*
G75*
G02*
X47832500Y18070000I-147500J0D01*
G01*
X47537500Y18070000D01*
G75*
G02*
X47390000Y18217500I0J147500D01*
G01*
G37*
G36*
G01*
X46420000Y18217500D02*
X46420000Y18562500D01*
G75*
G02*
X46567500Y18710000I147500J0D01*
G01*
X46862500Y18710000D01*
G75*
G02*
X47010000Y18562500I0J-147500D01*
G01*
X47010000Y18217500D01*
G75*
G02*
X46862500Y18070000I-147500J0D01*
G01*
X46567500Y18070000D01*
G75*
G02*
X46420000Y18217500I0J147500D01*
G01*
G37*
G36*
G01*
X36372500Y20180000D02*
X36027500Y20180000D01*
G75*
G02*
X35880000Y20327500I0J147500D01*
G01*
X35880000Y20622500D01*
G75*
G02*
X36027500Y20770000I147500J0D01*
G01*
X36372500Y20770000D01*
G75*
G02*
X36520000Y20622500I0J-147500D01*
G01*
X36520000Y20327500D01*
G75*
G02*
X36372500Y20180000I-147500J0D01*
G01*
G37*
G36*
G01*
X36372500Y19210000D02*
X36027500Y19210000D01*
G75*
G02*
X35880000Y19357500I0J147500D01*
G01*
X35880000Y19652500D01*
G75*
G02*
X36027500Y19800000I147500J0D01*
G01*
X36372500Y19800000D01*
G75*
G02*
X36520000Y19652500I0J-147500D01*
G01*
X36520000Y19357500D01*
G75*
G02*
X36372500Y19210000I-147500J0D01*
G01*
G37*
G36*
G01*
X49972500Y16180000D02*
X49627500Y16180000D01*
G75*
G02*
X49480000Y16327500I0J147500D01*
G01*
X49480000Y16622500D01*
G75*
G02*
X49627500Y16770000I147500J0D01*
G01*
X49972500Y16770000D01*
G75*
G02*
X50120000Y16622500I0J-147500D01*
G01*
X50120000Y16327500D01*
G75*
G02*
X49972500Y16180000I-147500J0D01*
G01*
G37*
G36*
G01*
X49972500Y15210000D02*
X49627500Y15210000D01*
G75*
G02*
X49480000Y15357500I0J147500D01*
G01*
X49480000Y15652500D01*
G75*
G02*
X49627500Y15800000I147500J0D01*
G01*
X49972500Y15800000D01*
G75*
G02*
X50120000Y15652500I0J-147500D01*
G01*
X50120000Y15357500D01*
G75*
G02*
X49972500Y15210000I-147500J0D01*
G01*
G37*
G36*
G01*
X14990000Y13417500D02*
X14990000Y13762500D01*
G75*
G02*
X15137500Y13910000I147500J0D01*
G01*
X15432500Y13910000D01*
G75*
G02*
X15580000Y13762500I0J-147500D01*
G01*
X15580000Y13417500D01*
G75*
G02*
X15432500Y13270000I-147500J0D01*
G01*
X15137500Y13270000D01*
G75*
G02*
X14990000Y13417500I0J147500D01*
G01*
G37*
G36*
G01*
X14020000Y13417500D02*
X14020000Y13762500D01*
G75*
G02*
X14167500Y13910000I147500J0D01*
G01*
X14462500Y13910000D01*
G75*
G02*
X14610000Y13762500I0J-147500D01*
G01*
X14610000Y13417500D01*
G75*
G02*
X14462500Y13270000I-147500J0D01*
G01*
X14167500Y13270000D01*
G75*
G02*
X14020000Y13417500I0J147500D01*
G01*
G37*
G36*
G01*
X45010000Y27962500D02*
X45010000Y27617500D01*
G75*
G02*
X44862500Y27470000I-147500J0D01*
G01*
X44567500Y27470000D01*
G75*
G02*
X44420000Y27617500I0J147500D01*
G01*
X44420000Y27962500D01*
G75*
G02*
X44567500Y28110000I147500J0D01*
G01*
X44862500Y28110000D01*
G75*
G02*
X45010000Y27962500I0J-147500D01*
G01*
G37*
G36*
G01*
X45980000Y27962500D02*
X45980000Y27617500D01*
G75*
G02*
X45832500Y27470000I-147500J0D01*
G01*
X45537500Y27470000D01*
G75*
G02*
X45390000Y27617500I0J147500D01*
G01*
X45390000Y27962500D01*
G75*
G02*
X45537500Y28110000I147500J0D01*
G01*
X45832500Y28110000D01*
G75*
G02*
X45980000Y27962500I0J-147500D01*
G01*
G37*
G36*
G01*
X38190000Y23317500D02*
X38190000Y23662500D01*
G75*
G02*
X38337500Y23810000I147500J0D01*
G01*
X38632500Y23810000D01*
G75*
G02*
X38780000Y23662500I0J-147500D01*
G01*
X38780000Y23317500D01*
G75*
G02*
X38632500Y23170000I-147500J0D01*
G01*
X38337500Y23170000D01*
G75*
G02*
X38190000Y23317500I0J147500D01*
G01*
G37*
G36*
G01*
X37220000Y23317500D02*
X37220000Y23662500D01*
G75*
G02*
X37367500Y23810000I147500J0D01*
G01*
X37662500Y23810000D01*
G75*
G02*
X37810000Y23662500I0J-147500D01*
G01*
X37810000Y23317500D01*
G75*
G02*
X37662500Y23170000I-147500J0D01*
G01*
X37367500Y23170000D01*
G75*
G02*
X37220000Y23317500I0J147500D01*
G01*
G37*
G36*
G01*
X18340000Y35167500D02*
X18340000Y35512500D01*
G75*
G02*
X18487500Y35660000I147500J0D01*
G01*
X18782500Y35660000D01*
G75*
G02*
X18930000Y35512500I0J-147500D01*
G01*
X18930000Y35167500D01*
G75*
G02*
X18782500Y35020000I-147500J0D01*
G01*
X18487500Y35020000D01*
G75*
G02*
X18340000Y35167500I0J147500D01*
G01*
G37*
G36*
G01*
X17370000Y35167500D02*
X17370000Y35512500D01*
G75*
G02*
X17517500Y35660000I147500J0D01*
G01*
X17812500Y35660000D01*
G75*
G02*
X17960000Y35512500I0J-147500D01*
G01*
X17960000Y35167500D01*
G75*
G02*
X17812500Y35020000I-147500J0D01*
G01*
X17517500Y35020000D01*
G75*
G02*
X17370000Y35167500I0J147500D01*
G01*
G37*
G36*
G01*
X46527500Y43700000D02*
X46872500Y43700000D01*
G75*
G02*
X47020000Y43552500I0J-147500D01*
G01*
X47020000Y43257500D01*
G75*
G02*
X46872500Y43110000I-147500J0D01*
G01*
X46527500Y43110000D01*
G75*
G02*
X46380000Y43257500I0J147500D01*
G01*
X46380000Y43552500D01*
G75*
G02*
X46527500Y43700000I147500J0D01*
G01*
G37*
G36*
G01*
X46527500Y44670000D02*
X46872500Y44670000D01*
G75*
G02*
X47020000Y44522500I0J-147500D01*
G01*
X47020000Y44227500D01*
G75*
G02*
X46872500Y44080000I-147500J0D01*
G01*
X46527500Y44080000D01*
G75*
G02*
X46380000Y44227500I0J147500D01*
G01*
X46380000Y44522500D01*
G75*
G02*
X46527500Y44670000I147500J0D01*
G01*
G37*
G36*
G01*
X13227500Y43800000D02*
X13572500Y43800000D01*
G75*
G02*
X13720000Y43652500I0J-147500D01*
G01*
X13720000Y43357500D01*
G75*
G02*
X13572500Y43210000I-147500J0D01*
G01*
X13227500Y43210000D01*
G75*
G02*
X13080000Y43357500I0J147500D01*
G01*
X13080000Y43652500D01*
G75*
G02*
X13227500Y43800000I147500J0D01*
G01*
G37*
G36*
G01*
X13227500Y44770000D02*
X13572500Y44770000D01*
G75*
G02*
X13720000Y44622500I0J-147500D01*
G01*
X13720000Y44327500D01*
G75*
G02*
X13572500Y44180000I-147500J0D01*
G01*
X13227500Y44180000D01*
G75*
G02*
X13080000Y44327500I0J147500D01*
G01*
X13080000Y44622500D01*
G75*
G02*
X13227500Y44770000I147500J0D01*
G01*
G37*
G36*
G01*
X12610000Y13762500D02*
X12610000Y13417500D01*
G75*
G02*
X12462500Y13270000I-147500J0D01*
G01*
X12167500Y13270000D01*
G75*
G02*
X12020000Y13417500I0J147500D01*
G01*
X12020000Y13762500D01*
G75*
G02*
X12167500Y13910000I147500J0D01*
G01*
X12462500Y13910000D01*
G75*
G02*
X12610000Y13762500I0J-147500D01*
G01*
G37*
G36*
G01*
X13580000Y13762500D02*
X13580000Y13417500D01*
G75*
G02*
X13432500Y13270000I-147500J0D01*
G01*
X13137500Y13270000D01*
G75*
G02*
X12990000Y13417500I0J147500D01*
G01*
X12990000Y13762500D01*
G75*
G02*
X13137500Y13910000I147500J0D01*
G01*
X13432500Y13910000D01*
G75*
G02*
X13580000Y13762500I0J-147500D01*
G01*
G37*
G36*
G01*
X10027500Y15800000D02*
X10372500Y15800000D01*
G75*
G02*
X10520000Y15652500I0J-147500D01*
G01*
X10520000Y15357500D01*
G75*
G02*
X10372500Y15210000I-147500J0D01*
G01*
X10027500Y15210000D01*
G75*
G02*
X9880000Y15357500I0J147500D01*
G01*
X9880000Y15652500D01*
G75*
G02*
X10027500Y15800000I147500J0D01*
G01*
G37*
G36*
G01*
X10027500Y16770000D02*
X10372500Y16770000D01*
G75*
G02*
X10520000Y16622500I0J-147500D01*
G01*
X10520000Y16327500D01*
G75*
G02*
X10372500Y16180000I-147500J0D01*
G01*
X10027500Y16180000D01*
G75*
G02*
X9880000Y16327500I0J147500D01*
G01*
X9880000Y16622500D01*
G75*
G02*
X10027500Y16770000I147500J0D01*
G01*
G37*
G36*
G01*
X47390000Y27617500D02*
X47390000Y27962500D01*
G75*
G02*
X47537500Y28110000I147500J0D01*
G01*
X47832500Y28110000D01*
G75*
G02*
X47980000Y27962500I0J-147500D01*
G01*
X47980000Y27617500D01*
G75*
G02*
X47832500Y27470000I-147500J0D01*
G01*
X47537500Y27470000D01*
G75*
G02*
X47390000Y27617500I0J147500D01*
G01*
G37*
G36*
G01*
X46420000Y27617500D02*
X46420000Y27962500D01*
G75*
G02*
X46567500Y28110000I147500J0D01*
G01*
X46862500Y28110000D01*
G75*
G02*
X47010000Y27962500I0J-147500D01*
G01*
X47010000Y27617500D01*
G75*
G02*
X46862500Y27470000I-147500J0D01*
G01*
X46567500Y27470000D01*
G75*
G02*
X46420000Y27617500I0J147500D01*
G01*
G37*
G36*
G01*
X49972500Y25580000D02*
X49627500Y25580000D01*
G75*
G02*
X49480000Y25727500I0J147500D01*
G01*
X49480000Y26022500D01*
G75*
G02*
X49627500Y26170000I147500J0D01*
G01*
X49972500Y26170000D01*
G75*
G02*
X50120000Y26022500I0J-147500D01*
G01*
X50120000Y25727500D01*
G75*
G02*
X49972500Y25580000I-147500J0D01*
G01*
G37*
G36*
G01*
X49972500Y24610000D02*
X49627500Y24610000D01*
G75*
G02*
X49480000Y24757500I0J147500D01*
G01*
X49480000Y25052500D01*
G75*
G02*
X49627500Y25200000I147500J0D01*
G01*
X49972500Y25200000D01*
G75*
G02*
X50120000Y25052500I0J-147500D01*
G01*
X50120000Y24757500D01*
G75*
G02*
X49972500Y24610000I-147500J0D01*
G01*
G37*
G36*
G01*
X45010000Y37362500D02*
X45010000Y37017500D01*
G75*
G02*
X44862500Y36870000I-147500J0D01*
G01*
X44567500Y36870000D01*
G75*
G02*
X44420000Y37017500I0J147500D01*
G01*
X44420000Y37362500D01*
G75*
G02*
X44567500Y37510000I147500J0D01*
G01*
X44862500Y37510000D01*
G75*
G02*
X45010000Y37362500I0J-147500D01*
G01*
G37*
G36*
G01*
X45980000Y37362500D02*
X45980000Y37017500D01*
G75*
G02*
X45832500Y36870000I-147500J0D01*
G01*
X45537500Y36870000D01*
G75*
G02*
X45390000Y37017500I0J147500D01*
G01*
X45390000Y37362500D01*
G75*
G02*
X45537500Y37510000I147500J0D01*
G01*
X45832500Y37510000D01*
G75*
G02*
X45980000Y37362500I0J-147500D01*
G01*
G37*
G36*
G01*
X47390000Y37017500D02*
X47390000Y37362500D01*
G75*
G02*
X47537500Y37510000I147500J0D01*
G01*
X47832500Y37510000D01*
G75*
G02*
X47980000Y37362500I0J-147500D01*
G01*
X47980000Y37017500D01*
G75*
G02*
X47832500Y36870000I-147500J0D01*
G01*
X47537500Y36870000D01*
G75*
G02*
X47390000Y37017500I0J147500D01*
G01*
G37*
G36*
G01*
X46420000Y37017500D02*
X46420000Y37362500D01*
G75*
G02*
X46567500Y37510000I147500J0D01*
G01*
X46862500Y37510000D01*
G75*
G02*
X47010000Y37362500I0J-147500D01*
G01*
X47010000Y37017500D01*
G75*
G02*
X46862500Y36870000I-147500J0D01*
G01*
X46567500Y36870000D01*
G75*
G02*
X46420000Y37017500I0J147500D01*
G01*
G37*
G36*
G01*
X49972500Y34980000D02*
X49627500Y34980000D01*
G75*
G02*
X49480000Y35127500I0J147500D01*
G01*
X49480000Y35422500D01*
G75*
G02*
X49627500Y35570000I147500J0D01*
G01*
X49972500Y35570000D01*
G75*
G02*
X50120000Y35422500I0J-147500D01*
G01*
X50120000Y35127500D01*
G75*
G02*
X49972500Y34980000I-147500J0D01*
G01*
G37*
G36*
G01*
X49972500Y34010000D02*
X49627500Y34010000D01*
G75*
G02*
X49480000Y34157500I0J147500D01*
G01*
X49480000Y34452500D01*
G75*
G02*
X49627500Y34600000I147500J0D01*
G01*
X49972500Y34600000D01*
G75*
G02*
X50120000Y34452500I0J-147500D01*
G01*
X50120000Y34157500D01*
G75*
G02*
X49972500Y34010000I-147500J0D01*
G01*
G37*
G36*
G01*
X14990000Y22817500D02*
X14990000Y23162500D01*
G75*
G02*
X15137500Y23310000I147500J0D01*
G01*
X15432500Y23310000D01*
G75*
G02*
X15580000Y23162500I0J-147500D01*
G01*
X15580000Y22817500D01*
G75*
G02*
X15432500Y22670000I-147500J0D01*
G01*
X15137500Y22670000D01*
G75*
G02*
X14990000Y22817500I0J147500D01*
G01*
G37*
G36*
G01*
X14020000Y22817500D02*
X14020000Y23162500D01*
G75*
G02*
X14167500Y23310000I147500J0D01*
G01*
X14462500Y23310000D01*
G75*
G02*
X14610000Y23162500I0J-147500D01*
G01*
X14610000Y22817500D01*
G75*
G02*
X14462500Y22670000I-147500J0D01*
G01*
X14167500Y22670000D01*
G75*
G02*
X14020000Y22817500I0J147500D01*
G01*
G37*
G36*
G01*
X12610000Y23162500D02*
X12610000Y22817500D01*
G75*
G02*
X12462500Y22670000I-147500J0D01*
G01*
X12167500Y22670000D01*
G75*
G02*
X12020000Y22817500I0J147500D01*
G01*
X12020000Y23162500D01*
G75*
G02*
X12167500Y23310000I147500J0D01*
G01*
X12462500Y23310000D01*
G75*
G02*
X12610000Y23162500I0J-147500D01*
G01*
G37*
G36*
G01*
X13580000Y23162500D02*
X13580000Y22817500D01*
G75*
G02*
X13432500Y22670000I-147500J0D01*
G01*
X13137500Y22670000D01*
G75*
G02*
X12990000Y22817500I0J147500D01*
G01*
X12990000Y23162500D01*
G75*
G02*
X13137500Y23310000I147500J0D01*
G01*
X13432500Y23310000D01*
G75*
G02*
X13580000Y23162500I0J-147500D01*
G01*
G37*
G36*
G01*
X9827500Y25000000D02*
X10172500Y25000000D01*
G75*
G02*
X10320000Y24852500I0J-147500D01*
G01*
X10320000Y24557500D01*
G75*
G02*
X10172500Y24410000I-147500J0D01*
G01*
X9827500Y24410000D01*
G75*
G02*
X9680000Y24557500I0J147500D01*
G01*
X9680000Y24852500D01*
G75*
G02*
X9827500Y25000000I147500J0D01*
G01*
G37*
G36*
G01*
X9827500Y25970000D02*
X10172500Y25970000D01*
G75*
G02*
X10320000Y25822500I0J-147500D01*
G01*
X10320000Y25527500D01*
G75*
G02*
X10172500Y25380000I-147500J0D01*
G01*
X9827500Y25380000D01*
G75*
G02*
X9680000Y25527500I0J147500D01*
G01*
X9680000Y25822500D01*
G75*
G02*
X9827500Y25970000I147500J0D01*
G01*
G37*
G36*
G01*
X11627500Y41400000D02*
X11972500Y41400000D01*
G75*
G02*
X12120000Y41252500I0J-147500D01*
G01*
X12120000Y40957500D01*
G75*
G02*
X11972500Y40810000I-147500J0D01*
G01*
X11627500Y40810000D01*
G75*
G02*
X11480000Y40957500I0J147500D01*
G01*
X11480000Y41252500D01*
G75*
G02*
X11627500Y41400000I147500J0D01*
G01*
G37*
G36*
G01*
X11627500Y42370000D02*
X11972500Y42370000D01*
G75*
G02*
X12120000Y42222500I0J-147500D01*
G01*
X12120000Y41927500D01*
G75*
G02*
X11972500Y41780000I-147500J0D01*
G01*
X11627500Y41780000D01*
G75*
G02*
X11480000Y41927500I0J147500D01*
G01*
X11480000Y42222500D01*
G75*
G02*
X11627500Y42370000I147500J0D01*
G01*
G37*
G36*
G01*
X10627500Y41400000D02*
X10972500Y41400000D01*
G75*
G02*
X11120000Y41252500I0J-147500D01*
G01*
X11120000Y40957500D01*
G75*
G02*
X10972500Y40810000I-147500J0D01*
G01*
X10627500Y40810000D01*
G75*
G02*
X10480000Y40957500I0J147500D01*
G01*
X10480000Y41252500D01*
G75*
G02*
X10627500Y41400000I147500J0D01*
G01*
G37*
G36*
G01*
X10627500Y42370000D02*
X10972500Y42370000D01*
G75*
G02*
X11120000Y42222500I0J-147500D01*
G01*
X11120000Y41927500D01*
G75*
G02*
X10972500Y41780000I-147500J0D01*
G01*
X10627500Y41780000D01*
G75*
G02*
X10480000Y41927500I0J147500D01*
G01*
X10480000Y42222500D01*
G75*
G02*
X10627500Y42370000I147500J0D01*
G01*
G37*
G36*
G01*
X42210000Y20062500D02*
X42210000Y19717500D01*
G75*
G02*
X42062500Y19570000I-147500J0D01*
G01*
X41767500Y19570000D01*
G75*
G02*
X41620000Y19717500I0J147500D01*
G01*
X41620000Y20062500D01*
G75*
G02*
X41767500Y20210000I147500J0D01*
G01*
X42062500Y20210000D01*
G75*
G02*
X42210000Y20062500I0J-147500D01*
G01*
G37*
G36*
G01*
X43180000Y20062500D02*
X43180000Y19717500D01*
G75*
G02*
X43032500Y19570000I-147500J0D01*
G01*
X42737500Y19570000D01*
G75*
G02*
X42590000Y19717500I0J147500D01*
G01*
X42590000Y20062500D01*
G75*
G02*
X42737500Y20210000I147500J0D01*
G01*
X43032500Y20210000D01*
G75*
G02*
X43180000Y20062500I0J-147500D01*
G01*
G37*
G36*
G01*
X30170000Y5277500D02*
X30170000Y5622500D01*
G75*
G02*
X30317500Y5770000I147500J0D01*
G01*
X30612500Y5770000D01*
G75*
G02*
X30760000Y5622500I0J-147500D01*
G01*
X30760000Y5277500D01*
G75*
G02*
X30612500Y5130000I-147500J0D01*
G01*
X30317500Y5130000D01*
G75*
G02*
X30170000Y5277500I0J147500D01*
G01*
G37*
G36*
G01*
X29200000Y5277500D02*
X29200000Y5622500D01*
G75*
G02*
X29347500Y5770000I147500J0D01*
G01*
X29642500Y5770000D01*
G75*
G02*
X29790000Y5622500I0J-147500D01*
G01*
X29790000Y5277500D01*
G75*
G02*
X29642500Y5130000I-147500J0D01*
G01*
X29347500Y5130000D01*
G75*
G02*
X29200000Y5277500I0J147500D01*
G01*
G37*
G36*
G01*
X37897500Y11460000D02*
X38242500Y11460000D01*
G75*
G02*
X38390000Y11312500I0J-147500D01*
G01*
X38390000Y11017500D01*
G75*
G02*
X38242500Y10870000I-147500J0D01*
G01*
X37897500Y10870000D01*
G75*
G02*
X37750000Y11017500I0J147500D01*
G01*
X37750000Y11312500D01*
G75*
G02*
X37897500Y11460000I147500J0D01*
G01*
G37*
G36*
G01*
X37897500Y12430000D02*
X38242500Y12430000D01*
G75*
G02*
X38390000Y12282500I0J-147500D01*
G01*
X38390000Y11987500D01*
G75*
G02*
X38242500Y11840000I-147500J0D01*
G01*
X37897500Y11840000D01*
G75*
G02*
X37750000Y11987500I0J147500D01*
G01*
X37750000Y12282500D01*
G75*
G02*
X37897500Y12430000I147500J0D01*
G01*
G37*
G36*
G01*
X30627500Y19700000D02*
X30972500Y19700000D01*
G75*
G02*
X31120000Y19552500I0J-147500D01*
G01*
X31120000Y19257500D01*
G75*
G02*
X30972500Y19110000I-147500J0D01*
G01*
X30627500Y19110000D01*
G75*
G02*
X30480000Y19257500I0J147500D01*
G01*
X30480000Y19552500D01*
G75*
G02*
X30627500Y19700000I147500J0D01*
G01*
G37*
G36*
G01*
X30627500Y20670000D02*
X30972500Y20670000D01*
G75*
G02*
X31120000Y20522500I0J-147500D01*
G01*
X31120000Y20227500D01*
G75*
G02*
X30972500Y20080000I-147500J0D01*
G01*
X30627500Y20080000D01*
G75*
G02*
X30480000Y20227500I0J147500D01*
G01*
X30480000Y20522500D01*
G75*
G02*
X30627500Y20670000I147500J0D01*
G01*
G37*
G36*
G01*
X26745000Y13557500D02*
X26745000Y13902500D01*
G75*
G02*
X26892500Y14050000I147500J0D01*
G01*
X27187500Y14050000D01*
G75*
G02*
X27335000Y13902500I0J-147500D01*
G01*
X27335000Y13557500D01*
G75*
G02*
X27187500Y13410000I-147500J0D01*
G01*
X26892500Y13410000D01*
G75*
G02*
X26745000Y13557500I0J147500D01*
G01*
G37*
G36*
G01*
X25775000Y13557500D02*
X25775000Y13902500D01*
G75*
G02*
X25922500Y14050000I147500J0D01*
G01*
X26217500Y14050000D01*
G75*
G02*
X26365000Y13902500I0J-147500D01*
G01*
X26365000Y13557500D01*
G75*
G02*
X26217500Y13410000I-147500J0D01*
G01*
X25922500Y13410000D01*
G75*
G02*
X25775000Y13557500I0J147500D01*
G01*
G37*
G36*
G01*
X22690000Y19467500D02*
X22690000Y19812500D01*
G75*
G02*
X22837500Y19960000I147500J0D01*
G01*
X23132500Y19960000D01*
G75*
G02*
X23280000Y19812500I0J-147500D01*
G01*
X23280000Y19467500D01*
G75*
G02*
X23132500Y19320000I-147500J0D01*
G01*
X22837500Y19320000D01*
G75*
G02*
X22690000Y19467500I0J147500D01*
G01*
G37*
G36*
G01*
X21720000Y19467500D02*
X21720000Y19812500D01*
G75*
G02*
X21867500Y19960000I147500J0D01*
G01*
X22162500Y19960000D01*
G75*
G02*
X22310000Y19812500I0J-147500D01*
G01*
X22310000Y19467500D01*
G75*
G02*
X22162500Y19320000I-147500J0D01*
G01*
X21867500Y19320000D01*
G75*
G02*
X21720000Y19467500I0J147500D01*
G01*
G37*
G36*
G01*
X32556326Y40702375D02*
X32312375Y40946327D01*
G75*
G02*
X32312375Y41154923I104298J104298D01*
G01*
X32520971Y41363519D01*
G75*
G02*
X32729567Y41363519I104298J-104298D01*
G01*
X32973519Y41119567D01*
G75*
G02*
X32973519Y40910971I-104298J-104298D01*
G01*
X32764923Y40702375D01*
G75*
G02*
X32556327Y40702375I-104298J104298D01*
G01*
G37*
G36*
G01*
X31870432Y40016481D02*
X31626481Y40260433D01*
G75*
G02*
X31626481Y40469029I104298J104298D01*
G01*
X31835077Y40677625D01*
G75*
G02*
X32043673Y40677625I104298J-104298D01*
G01*
X32287625Y40433673D01*
G75*
G02*
X32287625Y40225077I-104298J-104298D01*
G01*
X32079029Y40016481D01*
G75*
G02*
X31870433Y40016481I-104298J104298D01*
G01*
G37*
G36*
G01*
X33256326Y40002375D02*
X33012375Y40246327D01*
G75*
G02*
X33012375Y40454923I104298J104298D01*
G01*
X33220971Y40663519D01*
G75*
G02*
X33429567Y40663519I104298J-104298D01*
G01*
X33673519Y40419567D01*
G75*
G02*
X33673519Y40210971I-104298J-104298D01*
G01*
X33464923Y40002375D01*
G75*
G02*
X33256327Y40002375I-104298J104298D01*
G01*
G37*
G36*
G01*
X32570432Y39316481D02*
X32326481Y39560433D01*
G75*
G02*
X32326481Y39769029I104298J104298D01*
G01*
X32535077Y39977625D01*
G75*
G02*
X32743673Y39977625I104298J-104298D01*
G01*
X32987625Y39733673D01*
G75*
G02*
X32987625Y39525077I-104298J-104298D01*
G01*
X32779029Y39316481D01*
G75*
G02*
X32570433Y39316481I-104298J104298D01*
G01*
G37*
G36*
G01*
X30872500Y35080000D02*
X30527500Y35080000D01*
G75*
G02*
X30380000Y35227500I0J147500D01*
G01*
X30380000Y35522500D01*
G75*
G02*
X30527500Y35670000I147500J0D01*
G01*
X30872500Y35670000D01*
G75*
G02*
X31020000Y35522500I0J-147500D01*
G01*
X31020000Y35227500D01*
G75*
G02*
X30872500Y35080000I-147500J0D01*
G01*
G37*
G36*
G01*
X30872500Y34110000D02*
X30527500Y34110000D01*
G75*
G02*
X30380000Y34257500I0J147500D01*
G01*
X30380000Y34552500D01*
G75*
G02*
X30527500Y34700000I147500J0D01*
G01*
X30872500Y34700000D01*
G75*
G02*
X31020000Y34552500I0J-147500D01*
G01*
X31020000Y34257500D01*
G75*
G02*
X30872500Y34110000I-147500J0D01*
G01*
G37*
G36*
G01*
X31690000Y28417500D02*
X31690000Y28762500D01*
G75*
G02*
X31837500Y28910000I147500J0D01*
G01*
X32132500Y28910000D01*
G75*
G02*
X32280000Y28762500I0J-147500D01*
G01*
X32280000Y28417500D01*
G75*
G02*
X32132500Y28270000I-147500J0D01*
G01*
X31837500Y28270000D01*
G75*
G02*
X31690000Y28417500I0J147500D01*
G01*
G37*
G36*
G01*
X30720000Y28417500D02*
X30720000Y28762500D01*
G75*
G02*
X30867500Y28910000I147500J0D01*
G01*
X31162500Y28910000D01*
G75*
G02*
X31310000Y28762500I0J-147500D01*
G01*
X31310000Y28417500D01*
G75*
G02*
X31162500Y28270000I-147500J0D01*
G01*
X30867500Y28270000D01*
G75*
G02*
X30720000Y28417500I0J147500D01*
G01*
G37*
G36*
G01*
X7910000Y39762500D02*
X7910000Y39417500D01*
G75*
G02*
X7762500Y39270000I-147500J0D01*
G01*
X7467500Y39270000D01*
G75*
G02*
X7320000Y39417500I0J147500D01*
G01*
X7320000Y39762500D01*
G75*
G02*
X7467500Y39910000I147500J0D01*
G01*
X7762500Y39910000D01*
G75*
G02*
X7910000Y39762500I0J-147500D01*
G01*
G37*
G36*
G01*
X8880000Y39762500D02*
X8880000Y39417500D01*
G75*
G02*
X8732500Y39270000I-147500J0D01*
G01*
X8437500Y39270000D01*
G75*
G02*
X8290000Y39417500I0J147500D01*
G01*
X8290000Y39762500D01*
G75*
G02*
X8437500Y39910000I147500J0D01*
G01*
X8732500Y39910000D01*
G75*
G02*
X8880000Y39762500I0J-147500D01*
G01*
G37*
G36*
G01*
X13690000Y40517500D02*
X13690000Y40862500D01*
G75*
G02*
X13837500Y41010000I147500J0D01*
G01*
X14132500Y41010000D01*
G75*
G02*
X14280000Y40862500I0J-147500D01*
G01*
X14280000Y40517500D01*
G75*
G02*
X14132500Y40370000I-147500J0D01*
G01*
X13837500Y40370000D01*
G75*
G02*
X13690000Y40517500I0J147500D01*
G01*
G37*
G36*
G01*
X12720000Y40517500D02*
X12720000Y40862500D01*
G75*
G02*
X12867500Y41010000I147500J0D01*
G01*
X13162500Y41010000D01*
G75*
G02*
X13310000Y40862500I0J-147500D01*
G01*
X13310000Y40517500D01*
G75*
G02*
X13162500Y40370000I-147500J0D01*
G01*
X12867500Y40370000D01*
G75*
G02*
X12720000Y40517500I0J147500D01*
G01*
G37*
G36*
G01*
X9710000Y34362500D02*
X9710000Y34017500D01*
G75*
G02*
X9562500Y33870000I-147500J0D01*
G01*
X9267500Y33870000D01*
G75*
G02*
X9120000Y34017500I0J147500D01*
G01*
X9120000Y34362500D01*
G75*
G02*
X9267500Y34510000I147500J0D01*
G01*
X9562500Y34510000D01*
G75*
G02*
X9710000Y34362500I0J-147500D01*
G01*
G37*
G36*
G01*
X10680000Y34362500D02*
X10680000Y34017500D01*
G75*
G02*
X10532500Y33870000I-147500J0D01*
G01*
X10237500Y33870000D01*
G75*
G02*
X10090000Y34017500I0J147500D01*
G01*
X10090000Y34362500D01*
G75*
G02*
X10237500Y34510000I147500J0D01*
G01*
X10532500Y34510000D01*
G75*
G02*
X10680000Y34362500I0J-147500D01*
G01*
G37*
G36*
G01*
X16090000Y34717500D02*
X16090000Y35062500D01*
G75*
G02*
X16237500Y35210000I147500J0D01*
G01*
X16532500Y35210000D01*
G75*
G02*
X16680000Y35062500I0J-147500D01*
G01*
X16680000Y34717500D01*
G75*
G02*
X16532500Y34570000I-147500J0D01*
G01*
X16237500Y34570000D01*
G75*
G02*
X16090000Y34717500I0J147500D01*
G01*
G37*
G36*
G01*
X15120000Y34717500D02*
X15120000Y35062500D01*
G75*
G02*
X15267500Y35210000I147500J0D01*
G01*
X15562500Y35210000D01*
G75*
G02*
X15710000Y35062500I0J-147500D01*
G01*
X15710000Y34717500D01*
G75*
G02*
X15562500Y34570000I-147500J0D01*
G01*
X15267500Y34570000D01*
G75*
G02*
X15120000Y34717500I0J147500D01*
G01*
G37*
G36*
G01*
X26527500Y19000000D02*
X26872500Y19000000D01*
G75*
G02*
X27020000Y18852500I0J-147500D01*
G01*
X27020000Y18557500D01*
G75*
G02*
X26872500Y18410000I-147500J0D01*
G01*
X26527500Y18410000D01*
G75*
G02*
X26380000Y18557500I0J147500D01*
G01*
X26380000Y18852500D01*
G75*
G02*
X26527500Y19000000I147500J0D01*
G01*
G37*
G36*
G01*
X26527500Y19970000D02*
X26872500Y19970000D01*
G75*
G02*
X27020000Y19822500I0J-147500D01*
G01*
X27020000Y19527500D01*
G75*
G02*
X26872500Y19380000I-147500J0D01*
G01*
X26527500Y19380000D01*
G75*
G02*
X26380000Y19527500I0J147500D01*
G01*
X26380000Y19822500D01*
G75*
G02*
X26527500Y19970000I147500J0D01*
G01*
G37*
G36*
G01*
X20490000Y7617500D02*
X20490000Y7962500D01*
G75*
G02*
X20637500Y8110000I147500J0D01*
G01*
X20932500Y8110000D01*
G75*
G02*
X21080000Y7962500I0J-147500D01*
G01*
X21080000Y7617500D01*
G75*
G02*
X20932500Y7470000I-147500J0D01*
G01*
X20637500Y7470000D01*
G75*
G02*
X20490000Y7617500I0J147500D01*
G01*
G37*
G36*
G01*
X19520000Y7617500D02*
X19520000Y7962500D01*
G75*
G02*
X19667500Y8110000I147500J0D01*
G01*
X19962500Y8110000D01*
G75*
G02*
X20110000Y7962500I0J-147500D01*
G01*
X20110000Y7617500D01*
G75*
G02*
X19962500Y7470000I-147500J0D01*
G01*
X19667500Y7470000D01*
G75*
G02*
X19520000Y7617500I0J147500D01*
G01*
G37*
G36*
G01*
X31575000Y17165000D02*
X31575000Y18415000D01*
G75*
G02*
X31825000Y18665000I250000J0D01*
G01*
X32575000Y18665000D01*
G75*
G02*
X32825000Y18415000I0J-250000D01*
G01*
X32825000Y17165000D01*
G75*
G02*
X32575000Y16915000I-250000J0D01*
G01*
X31825000Y16915000D01*
G75*
G02*
X31575000Y17165000I0J250000D01*
G01*
G37*
G36*
G01*
X28775000Y17165000D02*
X28775000Y18415000D01*
G75*
G02*
X29025000Y18665000I250000J0D01*
G01*
X29775000Y18665000D01*
G75*
G02*
X30025000Y18415000I0J-250000D01*
G01*
X30025000Y17165000D01*
G75*
G02*
X29775000Y16915000I-250000J0D01*
G01*
X29025000Y16915000D01*
G75*
G02*
X28775000Y17165000I0J250000D01*
G01*
G37*
G36*
G01*
X21422500Y28080000D02*
X21077500Y28080000D01*
G75*
G02*
X20930000Y28227500I0J147500D01*
G01*
X20930000Y28522500D01*
G75*
G02*
X21077500Y28670000I147500J0D01*
G01*
X21422500Y28670000D01*
G75*
G02*
X21570000Y28522500I0J-147500D01*
G01*
X21570000Y28227500D01*
G75*
G02*
X21422500Y28080000I-147500J0D01*
G01*
G37*
G36*
G01*
X21422500Y27110000D02*
X21077500Y27110000D01*
G75*
G02*
X20930000Y27257500I0J147500D01*
G01*
X20930000Y27552500D01*
G75*
G02*
X21077500Y27700000I147500J0D01*
G01*
X21422500Y27700000D01*
G75*
G02*
X21570000Y27552500I0J-147500D01*
G01*
X21570000Y27257500D01*
G75*
G02*
X21422500Y27110000I-147500J0D01*
G01*
G37*
G36*
G01*
X24410000Y16562500D02*
X24410000Y16217500D01*
G75*
G02*
X24262500Y16070000I-147500J0D01*
G01*
X23967500Y16070000D01*
G75*
G02*
X23820000Y16217500I0J147500D01*
G01*
X23820000Y16562500D01*
G75*
G02*
X23967500Y16710000I147500J0D01*
G01*
X24262500Y16710000D01*
G75*
G02*
X24410000Y16562500I0J-147500D01*
G01*
G37*
G36*
G01*
X25380000Y16562500D02*
X25380000Y16217500D01*
G75*
G02*
X25232500Y16070000I-147500J0D01*
G01*
X24937500Y16070000D01*
G75*
G02*
X24790000Y16217500I0J147500D01*
G01*
X24790000Y16562500D01*
G75*
G02*
X24937500Y16710000I147500J0D01*
G01*
X25232500Y16710000D01*
G75*
G02*
X25380000Y16562500I0J-147500D01*
G01*
G37*
G36*
G01*
X22810000Y28562500D02*
X22810000Y28217500D01*
G75*
G02*
X22662500Y28070000I-147500J0D01*
G01*
X22367500Y28070000D01*
G75*
G02*
X22220000Y28217500I0J147500D01*
G01*
X22220000Y28562500D01*
G75*
G02*
X22367500Y28710000I147500J0D01*
G01*
X22662500Y28710000D01*
G75*
G02*
X22810000Y28562500I0J-147500D01*
G01*
G37*
G36*
G01*
X23780000Y28562500D02*
X23780000Y28217500D01*
G75*
G02*
X23632500Y28070000I-147500J0D01*
G01*
X23337500Y28070000D01*
G75*
G02*
X23190000Y28217500I0J147500D01*
G01*
X23190000Y28562500D01*
G75*
G02*
X23337500Y28710000I147500J0D01*
G01*
X23632500Y28710000D01*
G75*
G02*
X23780000Y28562500I0J-147500D01*
G01*
G37*
G36*
G01*
X22827500Y16950000D02*
X23172500Y16950000D01*
G75*
G02*
X23320000Y16802500I0J-147500D01*
G01*
X23320000Y16507500D01*
G75*
G02*
X23172500Y16360000I-147500J0D01*
G01*
X22827500Y16360000D01*
G75*
G02*
X22680000Y16507500I0J147500D01*
G01*
X22680000Y16802500D01*
G75*
G02*
X22827500Y16950000I147500J0D01*
G01*
G37*
G36*
G01*
X22827500Y17920000D02*
X23172500Y17920000D01*
G75*
G02*
X23320000Y17772500I0J-147500D01*
G01*
X23320000Y17477500D01*
G75*
G02*
X23172500Y17330000I-147500J0D01*
G01*
X22827500Y17330000D01*
G75*
G02*
X22680000Y17477500I0J147500D01*
G01*
X22680000Y17772500D01*
G75*
G02*
X22827500Y17920000I147500J0D01*
G01*
G37*
G36*
G01*
X21190000Y23217500D02*
X21190000Y23562500D01*
G75*
G02*
X21337500Y23710000I147500J0D01*
G01*
X21632500Y23710000D01*
G75*
G02*
X21780000Y23562500I0J-147500D01*
G01*
X21780000Y23217500D01*
G75*
G02*
X21632500Y23070000I-147500J0D01*
G01*
X21337500Y23070000D01*
G75*
G02*
X21190000Y23217500I0J147500D01*
G01*
G37*
G36*
G01*
X20220000Y23217500D02*
X20220000Y23562500D01*
G75*
G02*
X20367500Y23710000I147500J0D01*
G01*
X20662500Y23710000D01*
G75*
G02*
X20810000Y23562500I0J-147500D01*
G01*
X20810000Y23217500D01*
G75*
G02*
X20662500Y23070000I-147500J0D01*
G01*
X20367500Y23070000D01*
G75*
G02*
X20220000Y23217500I0J147500D01*
G01*
G37*
G36*
G01*
X20827500Y17500000D02*
X21172500Y17500000D01*
G75*
G02*
X21320000Y17352500I0J-147500D01*
G01*
X21320000Y17057500D01*
G75*
G02*
X21172500Y16910000I-147500J0D01*
G01*
X20827500Y16910000D01*
G75*
G02*
X20680000Y17057500I0J147500D01*
G01*
X20680000Y17352500D01*
G75*
G02*
X20827500Y17500000I147500J0D01*
G01*
G37*
G36*
G01*
X20827500Y18470000D02*
X21172500Y18470000D01*
G75*
G02*
X21320000Y18322500I0J-147500D01*
G01*
X21320000Y18027500D01*
G75*
G02*
X21172500Y17880000I-147500J0D01*
G01*
X20827500Y17880000D01*
G75*
G02*
X20680000Y18027500I0J147500D01*
G01*
X20680000Y18322500D01*
G75*
G02*
X20827500Y18470000I147500J0D01*
G01*
G37*
G36*
G01*
X21190000Y33217500D02*
X21190000Y33562500D01*
G75*
G02*
X21337500Y33710000I147500J0D01*
G01*
X21632500Y33710000D01*
G75*
G02*
X21780000Y33562500I0J-147500D01*
G01*
X21780000Y33217500D01*
G75*
G02*
X21632500Y33070000I-147500J0D01*
G01*
X21337500Y33070000D01*
G75*
G02*
X21190000Y33217500I0J147500D01*
G01*
G37*
G36*
G01*
X20220000Y33217500D02*
X20220000Y33562500D01*
G75*
G02*
X20367500Y33710000I147500J0D01*
G01*
X20662500Y33710000D01*
G75*
G02*
X20810000Y33562500I0J-147500D01*
G01*
X20810000Y33217500D01*
G75*
G02*
X20662500Y33070000I-147500J0D01*
G01*
X20367500Y33070000D01*
G75*
G02*
X20220000Y33217500I0J147500D01*
G01*
G37*
G36*
G01*
X23472500Y22880000D02*
X23127500Y22880000D01*
G75*
G02*
X22980000Y23027500I0J147500D01*
G01*
X22980000Y23322500D01*
G75*
G02*
X23127500Y23470000I147500J0D01*
G01*
X23472500Y23470000D01*
G75*
G02*
X23620000Y23322500I0J-147500D01*
G01*
X23620000Y23027500D01*
G75*
G02*
X23472500Y22880000I-147500J0D01*
G01*
G37*
G36*
G01*
X23472500Y21910000D02*
X23127500Y21910000D01*
G75*
G02*
X22980000Y22057500I0J147500D01*
G01*
X22980000Y22352500D01*
G75*
G02*
X23127500Y22500000I147500J0D01*
G01*
X23472500Y22500000D01*
G75*
G02*
X23620000Y22352500I0J-147500D01*
G01*
X23620000Y22057500D01*
G75*
G02*
X23472500Y21910000I-147500J0D01*
G01*
G37*
G36*
G01*
X21190000Y32217500D02*
X21190000Y32562500D01*
G75*
G02*
X21337500Y32710000I147500J0D01*
G01*
X21632500Y32710000D01*
G75*
G02*
X21780000Y32562500I0J-147500D01*
G01*
X21780000Y32217500D01*
G75*
G02*
X21632500Y32070000I-147500J0D01*
G01*
X21337500Y32070000D01*
G75*
G02*
X21190000Y32217500I0J147500D01*
G01*
G37*
G36*
G01*
X20220000Y32217500D02*
X20220000Y32562500D01*
G75*
G02*
X20367500Y32710000I147500J0D01*
G01*
X20662500Y32710000D01*
G75*
G02*
X20810000Y32562500I0J-147500D01*
G01*
X20810000Y32217500D01*
G75*
G02*
X20662500Y32070000I-147500J0D01*
G01*
X20367500Y32070000D01*
G75*
G02*
X20220000Y32217500I0J147500D01*
G01*
G37*
G36*
G01*
X22172500Y16780000D02*
X21827500Y16780000D01*
G75*
G02*
X21680000Y16927500I0J147500D01*
G01*
X21680000Y17222500D01*
G75*
G02*
X21827500Y17370000I147500J0D01*
G01*
X22172500Y17370000D01*
G75*
G02*
X22320000Y17222500I0J-147500D01*
G01*
X22320000Y16927500D01*
G75*
G02*
X22172500Y16780000I-147500J0D01*
G01*
G37*
G36*
G01*
X22172500Y15810000D02*
X21827500Y15810000D01*
G75*
G02*
X21680000Y15957500I0J147500D01*
G01*
X21680000Y16252500D01*
G75*
G02*
X21827500Y16400000I147500J0D01*
G01*
X22172500Y16400000D01*
G75*
G02*
X22320000Y16252500I0J-147500D01*
G01*
X22320000Y15957500D01*
G75*
G02*
X22172500Y15810000I-147500J0D01*
G01*
G37*
G36*
G01*
X21810000Y25562500D02*
X21810000Y25217500D01*
G75*
G02*
X21662500Y25070000I-147500J0D01*
G01*
X21367500Y25070000D01*
G75*
G02*
X21220000Y25217500I0J147500D01*
G01*
X21220000Y25562500D01*
G75*
G02*
X21367500Y25710000I147500J0D01*
G01*
X21662500Y25710000D01*
G75*
G02*
X21810000Y25562500I0J-147500D01*
G01*
G37*
G36*
G01*
X22780000Y25562500D02*
X22780000Y25217500D01*
G75*
G02*
X22632500Y25070000I-147500J0D01*
G01*
X22337500Y25070000D01*
G75*
G02*
X22190000Y25217500I0J147500D01*
G01*
X22190000Y25562500D01*
G75*
G02*
X22337500Y25710000I147500J0D01*
G01*
X22632500Y25710000D01*
G75*
G02*
X22780000Y25562500I0J-147500D01*
G01*
G37*
G36*
G01*
X35690000Y34517500D02*
X35690000Y34862500D01*
G75*
G02*
X35837500Y35010000I147500J0D01*
G01*
X36132500Y35010000D01*
G75*
G02*
X36280000Y34862500I0J-147500D01*
G01*
X36280000Y34517500D01*
G75*
G02*
X36132500Y34370000I-147500J0D01*
G01*
X35837500Y34370000D01*
G75*
G02*
X35690000Y34517500I0J147500D01*
G01*
G37*
G36*
G01*
X34720000Y34517500D02*
X34720000Y34862500D01*
G75*
G02*
X34867500Y35010000I147500J0D01*
G01*
X35162500Y35010000D01*
G75*
G02*
X35310000Y34862500I0J-147500D01*
G01*
X35310000Y34517500D01*
G75*
G02*
X35162500Y34370000I-147500J0D01*
G01*
X34867500Y34370000D01*
G75*
G02*
X34720000Y34517500I0J147500D01*
G01*
G37*
G36*
G01*
X40390000Y33017500D02*
X40390000Y33362500D01*
G75*
G02*
X40537500Y33510000I147500J0D01*
G01*
X40832500Y33510000D01*
G75*
G02*
X40980000Y33362500I0J-147500D01*
G01*
X40980000Y33017500D01*
G75*
G02*
X40832500Y32870000I-147500J0D01*
G01*
X40537500Y32870000D01*
G75*
G02*
X40390000Y33017500I0J147500D01*
G01*
G37*
G36*
G01*
X39420000Y33017500D02*
X39420000Y33362500D01*
G75*
G02*
X39567500Y33510000I147500J0D01*
G01*
X39862500Y33510000D01*
G75*
G02*
X40010000Y33362500I0J-147500D01*
G01*
X40010000Y33017500D01*
G75*
G02*
X39862500Y32870000I-147500J0D01*
G01*
X39567500Y32870000D01*
G75*
G02*
X39420000Y33017500I0J147500D01*
G01*
G37*
G36*
G01*
X33790000Y35017500D02*
X33790000Y35362500D01*
G75*
G02*
X33937500Y35510000I147500J0D01*
G01*
X34232500Y35510000D01*
G75*
G02*
X34380000Y35362500I0J-147500D01*
G01*
X34380000Y35017500D01*
G75*
G02*
X34232500Y34870000I-147500J0D01*
G01*
X33937500Y34870000D01*
G75*
G02*
X33790000Y35017500I0J147500D01*
G01*
G37*
G36*
G01*
X32820000Y35017500D02*
X32820000Y35362500D01*
G75*
G02*
X32967500Y35510000I147500J0D01*
G01*
X33262500Y35510000D01*
G75*
G02*
X33410000Y35362500I0J-147500D01*
G01*
X33410000Y35017500D01*
G75*
G02*
X33262500Y34870000I-147500J0D01*
G01*
X32967500Y34870000D01*
G75*
G02*
X32820000Y35017500I0J147500D01*
G01*
G37*
G36*
G01*
X38610000Y31562500D02*
X38610000Y31217500D01*
G75*
G02*
X38462500Y31070000I-147500J0D01*
G01*
X38167500Y31070000D01*
G75*
G02*
X38020000Y31217500I0J147500D01*
G01*
X38020000Y31562500D01*
G75*
G02*
X38167500Y31710000I147500J0D01*
G01*
X38462500Y31710000D01*
G75*
G02*
X38610000Y31562500I0J-147500D01*
G01*
G37*
G36*
G01*
X39580000Y31562500D02*
X39580000Y31217500D01*
G75*
G02*
X39432500Y31070000I-147500J0D01*
G01*
X39137500Y31070000D01*
G75*
G02*
X38990000Y31217500I0J147500D01*
G01*
X38990000Y31562500D01*
G75*
G02*
X39137500Y31710000I147500J0D01*
G01*
X39432500Y31710000D01*
G75*
G02*
X39580000Y31562500I0J-147500D01*
G01*
G37*
G36*
G01*
X37390000Y33017500D02*
X37390000Y33362500D01*
G75*
G02*
X37537500Y33510000I147500J0D01*
G01*
X37832500Y33510000D01*
G75*
G02*
X37980000Y33362500I0J-147500D01*
G01*
X37980000Y33017500D01*
G75*
G02*
X37832500Y32870000I-147500J0D01*
G01*
X37537500Y32870000D01*
G75*
G02*
X37390000Y33017500I0J147500D01*
G01*
G37*
G36*
G01*
X36420000Y33017500D02*
X36420000Y33362500D01*
G75*
G02*
X36567500Y33510000I147500J0D01*
G01*
X36862500Y33510000D01*
G75*
G02*
X37010000Y33362500I0J-147500D01*
G01*
X37010000Y33017500D01*
G75*
G02*
X36862500Y32870000I-147500J0D01*
G01*
X36567500Y32870000D01*
G75*
G02*
X36420000Y33017500I0J147500D01*
G01*
G37*
G36*
G01*
X35390000Y33017500D02*
X35390000Y33362500D01*
G75*
G02*
X35537500Y33510000I147500J0D01*
G01*
X35832500Y33510000D01*
G75*
G02*
X35980000Y33362500I0J-147500D01*
G01*
X35980000Y33017500D01*
G75*
G02*
X35832500Y32870000I-147500J0D01*
G01*
X35537500Y32870000D01*
G75*
G02*
X35390000Y33017500I0J147500D01*
G01*
G37*
G36*
G01*
X34420000Y33017500D02*
X34420000Y33362500D01*
G75*
G02*
X34567500Y33510000I147500J0D01*
G01*
X34862500Y33510000D01*
G75*
G02*
X35010000Y33362500I0J-147500D01*
G01*
X35010000Y33017500D01*
G75*
G02*
X34862500Y32870000I-147500J0D01*
G01*
X34567500Y32870000D01*
G75*
G02*
X34420000Y33017500I0J147500D01*
G01*
G37*
G36*
G01*
X27190000Y23217500D02*
X27190000Y23562500D01*
G75*
G02*
X27337500Y23710000I147500J0D01*
G01*
X27632500Y23710000D01*
G75*
G02*
X27780000Y23562500I0J-147500D01*
G01*
X27780000Y23217500D01*
G75*
G02*
X27632500Y23070000I-147500J0D01*
G01*
X27337500Y23070000D01*
G75*
G02*
X27190000Y23217500I0J147500D01*
G01*
G37*
G36*
G01*
X26220000Y23217500D02*
X26220000Y23562500D01*
G75*
G02*
X26367500Y23710000I147500J0D01*
G01*
X26662500Y23710000D01*
G75*
G02*
X26810000Y23562500I0J-147500D01*
G01*
X26810000Y23217500D01*
G75*
G02*
X26662500Y23070000I-147500J0D01*
G01*
X26367500Y23070000D01*
G75*
G02*
X26220000Y23217500I0J147500D01*
G01*
G37*
G36*
G01*
X28172500Y29580000D02*
X27827500Y29580000D01*
G75*
G02*
X27680000Y29727500I0J147500D01*
G01*
X27680000Y30022500D01*
G75*
G02*
X27827500Y30170000I147500J0D01*
G01*
X28172500Y30170000D01*
G75*
G02*
X28320000Y30022500I0J-147500D01*
G01*
X28320000Y29727500D01*
G75*
G02*
X28172500Y29580000I-147500J0D01*
G01*
G37*
G36*
G01*
X28172500Y28610000D02*
X27827500Y28610000D01*
G75*
G02*
X27680000Y28757500I0J147500D01*
G01*
X27680000Y29052500D01*
G75*
G02*
X27827500Y29200000I147500J0D01*
G01*
X28172500Y29200000D01*
G75*
G02*
X28320000Y29052500I0J-147500D01*
G01*
X28320000Y28757500D01*
G75*
G02*
X28172500Y28610000I-147500J0D01*
G01*
G37*
G36*
G01*
X27827500Y20000000D02*
X28172500Y20000000D01*
G75*
G02*
X28320000Y19852500I0J-147500D01*
G01*
X28320000Y19557500D01*
G75*
G02*
X28172500Y19410000I-147500J0D01*
G01*
X27827500Y19410000D01*
G75*
G02*
X27680000Y19557500I0J147500D01*
G01*
X27680000Y19852500D01*
G75*
G02*
X27827500Y20000000I147500J0D01*
G01*
G37*
G36*
G01*
X27827500Y20970000D02*
X28172500Y20970000D01*
G75*
G02*
X28320000Y20822500I0J-147500D01*
G01*
X28320000Y20527500D01*
G75*
G02*
X28172500Y20380000I-147500J0D01*
G01*
X27827500Y20380000D01*
G75*
G02*
X27680000Y20527500I0J147500D01*
G01*
X27680000Y20822500D01*
G75*
G02*
X27827500Y20970000I147500J0D01*
G01*
G37*
G36*
G01*
X30727500Y26700000D02*
X31072500Y26700000D01*
G75*
G02*
X31220000Y26552500I0J-147500D01*
G01*
X31220000Y26257500D01*
G75*
G02*
X31072500Y26110000I-147500J0D01*
G01*
X30727500Y26110000D01*
G75*
G02*
X30580000Y26257500I0J147500D01*
G01*
X30580000Y26552500D01*
G75*
G02*
X30727500Y26700000I147500J0D01*
G01*
G37*
G36*
G01*
X30727500Y27670000D02*
X31072500Y27670000D01*
G75*
G02*
X31220000Y27522500I0J-147500D01*
G01*
X31220000Y27227500D01*
G75*
G02*
X31072500Y27080000I-147500J0D01*
G01*
X30727500Y27080000D01*
G75*
G02*
X30580000Y27227500I0J147500D01*
G01*
X30580000Y27522500D01*
G75*
G02*
X30727500Y27670000I147500J0D01*
G01*
G37*
G36*
G01*
X24710000Y22862500D02*
X24710000Y22517500D01*
G75*
G02*
X24562500Y22370000I-147500J0D01*
G01*
X24267500Y22370000D01*
G75*
G02*
X24120000Y22517500I0J147500D01*
G01*
X24120000Y22862500D01*
G75*
G02*
X24267500Y23010000I147500J0D01*
G01*
X24562500Y23010000D01*
G75*
G02*
X24710000Y22862500I0J-147500D01*
G01*
G37*
G36*
G01*
X25680000Y22862500D02*
X25680000Y22517500D01*
G75*
G02*
X25532500Y22370000I-147500J0D01*
G01*
X25237500Y22370000D01*
G75*
G02*
X25090000Y22517500I0J147500D01*
G01*
X25090000Y22862500D01*
G75*
G02*
X25237500Y23010000I147500J0D01*
G01*
X25532500Y23010000D01*
G75*
G02*
X25680000Y22862500I0J-147500D01*
G01*
G37*
G36*
G01*
X29190000Y22217500D02*
X29190000Y22562500D01*
G75*
G02*
X29337500Y22710000I147500J0D01*
G01*
X29632500Y22710000D01*
G75*
G02*
X29780000Y22562500I0J-147500D01*
G01*
X29780000Y22217500D01*
G75*
G02*
X29632500Y22070000I-147500J0D01*
G01*
X29337500Y22070000D01*
G75*
G02*
X29190000Y22217500I0J147500D01*
G01*
G37*
G36*
G01*
X28220000Y22217500D02*
X28220000Y22562500D01*
G75*
G02*
X28367500Y22710000I147500J0D01*
G01*
X28662500Y22710000D01*
G75*
G02*
X28810000Y22562500I0J-147500D01*
G01*
X28810000Y22217500D01*
G75*
G02*
X28662500Y22070000I-147500J0D01*
G01*
X28367500Y22070000D01*
G75*
G02*
X28220000Y22217500I0J147500D01*
G01*
G37*
G36*
G01*
X27190000Y24917500D02*
X27190000Y25262500D01*
G75*
G02*
X27337500Y25410000I147500J0D01*
G01*
X27632500Y25410000D01*
G75*
G02*
X27780000Y25262500I0J-147500D01*
G01*
X27780000Y24917500D01*
G75*
G02*
X27632500Y24770000I-147500J0D01*
G01*
X27337500Y24770000D01*
G75*
G02*
X27190000Y24917500I0J147500D01*
G01*
G37*
G36*
G01*
X26220000Y24917500D02*
X26220000Y25262500D01*
G75*
G02*
X26367500Y25410000I147500J0D01*
G01*
X26662500Y25410000D01*
G75*
G02*
X26810000Y25262500I0J-147500D01*
G01*
X26810000Y24917500D01*
G75*
G02*
X26662500Y24770000I-147500J0D01*
G01*
X26367500Y24770000D01*
G75*
G02*
X26220000Y24917500I0J147500D01*
G01*
G37*
G36*
G01*
X31290000Y31117500D02*
X31290000Y31462500D01*
G75*
G02*
X31437500Y31610000I147500J0D01*
G01*
X31732500Y31610000D01*
G75*
G02*
X31880000Y31462500I0J-147500D01*
G01*
X31880000Y31117500D01*
G75*
G02*
X31732500Y30970000I-147500J0D01*
G01*
X31437500Y30970000D01*
G75*
G02*
X31290000Y31117500I0J147500D01*
G01*
G37*
G36*
G01*
X30320000Y31117500D02*
X30320000Y31462500D01*
G75*
G02*
X30467500Y31610000I147500J0D01*
G01*
X30762500Y31610000D01*
G75*
G02*
X30910000Y31462500I0J-147500D01*
G01*
X30910000Y31117500D01*
G75*
G02*
X30762500Y30970000I-147500J0D01*
G01*
X30467500Y30970000D01*
G75*
G02*
X30320000Y31117500I0J147500D01*
G01*
G37*
G36*
G01*
X29310000Y25562500D02*
X29310000Y25217500D01*
G75*
G02*
X29162500Y25070000I-147500J0D01*
G01*
X28867500Y25070000D01*
G75*
G02*
X28720000Y25217500I0J147500D01*
G01*
X28720000Y25562500D01*
G75*
G02*
X28867500Y25710000I147500J0D01*
G01*
X29162500Y25710000D01*
G75*
G02*
X29310000Y25562500I0J-147500D01*
G01*
G37*
G36*
G01*
X30280000Y25562500D02*
X30280000Y25217500D01*
G75*
G02*
X30132500Y25070000I-147500J0D01*
G01*
X29837500Y25070000D01*
G75*
G02*
X29690000Y25217500I0J147500D01*
G01*
X29690000Y25562500D01*
G75*
G02*
X29837500Y25710000I147500J0D01*
G01*
X30132500Y25710000D01*
G75*
G02*
X30280000Y25562500I0J-147500D01*
G01*
G37*
G36*
G01*
X33827500Y20200000D02*
X34172500Y20200000D01*
G75*
G02*
X34320000Y20052500I0J-147500D01*
G01*
X34320000Y19757500D01*
G75*
G02*
X34172500Y19610000I-147500J0D01*
G01*
X33827500Y19610000D01*
G75*
G02*
X33680000Y19757500I0J147500D01*
G01*
X33680000Y20052500D01*
G75*
G02*
X33827500Y20200000I147500J0D01*
G01*
G37*
G36*
G01*
X33827500Y21170000D02*
X34172500Y21170000D01*
G75*
G02*
X34320000Y21022500I0J-147500D01*
G01*
X34320000Y20727500D01*
G75*
G02*
X34172500Y20580000I-147500J0D01*
G01*
X33827500Y20580000D01*
G75*
G02*
X33680000Y20727500I0J147500D01*
G01*
X33680000Y21022500D01*
G75*
G02*
X33827500Y21170000I147500J0D01*
G01*
G37*
G36*
G01*
X40672500Y22580000D02*
X40327500Y22580000D01*
G75*
G02*
X40180000Y22727500I0J147500D01*
G01*
X40180000Y23022500D01*
G75*
G02*
X40327500Y23170000I147500J0D01*
G01*
X40672500Y23170000D01*
G75*
G02*
X40820000Y23022500I0J-147500D01*
G01*
X40820000Y22727500D01*
G75*
G02*
X40672500Y22580000I-147500J0D01*
G01*
G37*
G36*
G01*
X40672500Y21610000D02*
X40327500Y21610000D01*
G75*
G02*
X40180000Y21757500I0J147500D01*
G01*
X40180000Y22052500D01*
G75*
G02*
X40327500Y22200000I147500J0D01*
G01*
X40672500Y22200000D01*
G75*
G02*
X40820000Y22052500I0J-147500D01*
G01*
X40820000Y21757500D01*
G75*
G02*
X40672500Y21610000I-147500J0D01*
G01*
G37*
G36*
G01*
X39290000Y17217500D02*
X39290000Y17562500D01*
G75*
G02*
X39437500Y17710000I147500J0D01*
G01*
X39732500Y17710000D01*
G75*
G02*
X39880000Y17562500I0J-147500D01*
G01*
X39880000Y17217500D01*
G75*
G02*
X39732500Y17070000I-147500J0D01*
G01*
X39437500Y17070000D01*
G75*
G02*
X39290000Y17217500I0J147500D01*
G01*
G37*
G36*
G01*
X38320000Y17217500D02*
X38320000Y17562500D01*
G75*
G02*
X38467500Y17710000I147500J0D01*
G01*
X38762500Y17710000D01*
G75*
G02*
X38910000Y17562500I0J-147500D01*
G01*
X38910000Y17217500D01*
G75*
G02*
X38762500Y17070000I-147500J0D01*
G01*
X38467500Y17070000D01*
G75*
G02*
X38320000Y17217500I0J147500D01*
G01*
G37*
G36*
G01*
X33172500Y26480000D02*
X32827500Y26480000D01*
G75*
G02*
X32680000Y26627500I0J147500D01*
G01*
X32680000Y26922500D01*
G75*
G02*
X32827500Y27070000I147500J0D01*
G01*
X33172500Y27070000D01*
G75*
G02*
X33320000Y26922500I0J-147500D01*
G01*
X33320000Y26627500D01*
G75*
G02*
X33172500Y26480000I-147500J0D01*
G01*
G37*
G36*
G01*
X33172500Y25510000D02*
X32827500Y25510000D01*
G75*
G02*
X32680000Y25657500I0J147500D01*
G01*
X32680000Y25952500D01*
G75*
G02*
X32827500Y26100000I147500J0D01*
G01*
X33172500Y26100000D01*
G75*
G02*
X33320000Y25952500I0J-147500D01*
G01*
X33320000Y25657500D01*
G75*
G02*
X33172500Y25510000I-147500J0D01*
G01*
G37*
G36*
G01*
X37510000Y20462500D02*
X37510000Y20117500D01*
G75*
G02*
X37362500Y19970000I-147500J0D01*
G01*
X37067500Y19970000D01*
G75*
G02*
X36920000Y20117500I0J147500D01*
G01*
X36920000Y20462500D01*
G75*
G02*
X37067500Y20610000I147500J0D01*
G01*
X37362500Y20610000D01*
G75*
G02*
X37510000Y20462500I0J-147500D01*
G01*
G37*
G36*
G01*
X38480000Y20462500D02*
X38480000Y20117500D01*
G75*
G02*
X38332500Y19970000I-147500J0D01*
G01*
X38037500Y19970000D01*
G75*
G02*
X37890000Y20117500I0J147500D01*
G01*
X37890000Y20462500D01*
G75*
G02*
X38037500Y20610000I147500J0D01*
G01*
X38332500Y20610000D01*
G75*
G02*
X38480000Y20462500I0J-147500D01*
G01*
G37*
G36*
G01*
X36227500Y21700000D02*
X36572500Y21700000D01*
G75*
G02*
X36720000Y21552500I0J-147500D01*
G01*
X36720000Y21257500D01*
G75*
G02*
X36572500Y21110000I-147500J0D01*
G01*
X36227500Y21110000D01*
G75*
G02*
X36080000Y21257500I0J147500D01*
G01*
X36080000Y21552500D01*
G75*
G02*
X36227500Y21700000I147500J0D01*
G01*
G37*
G36*
G01*
X36227500Y22670000D02*
X36572500Y22670000D01*
G75*
G02*
X36720000Y22522500I0J-147500D01*
G01*
X36720000Y22227500D01*
G75*
G02*
X36572500Y22080000I-147500J0D01*
G01*
X36227500Y22080000D01*
G75*
G02*
X36080000Y22227500I0J147500D01*
G01*
X36080000Y22522500D01*
G75*
G02*
X36227500Y22670000I147500J0D01*
G01*
G37*
G36*
G01*
X26310000Y29362500D02*
X26310000Y29017500D01*
G75*
G02*
X26162500Y28870000I-147500J0D01*
G01*
X25867500Y28870000D01*
G75*
G02*
X25720000Y29017500I0J147500D01*
G01*
X25720000Y29362500D01*
G75*
G02*
X25867500Y29510000I147500J0D01*
G01*
X26162500Y29510000D01*
G75*
G02*
X26310000Y29362500I0J-147500D01*
G01*
G37*
G36*
G01*
X27280000Y29362500D02*
X27280000Y29017500D01*
G75*
G02*
X27132500Y28870000I-147500J0D01*
G01*
X26837500Y28870000D01*
G75*
G02*
X26690000Y29017500I0J147500D01*
G01*
X26690000Y29362500D01*
G75*
G02*
X26837500Y29510000I147500J0D01*
G01*
X27132500Y29510000D01*
G75*
G02*
X27280000Y29362500I0J-147500D01*
G01*
G37*
G36*
G01*
X24610000Y30662500D02*
X24610000Y30317500D01*
G75*
G02*
X24462500Y30170000I-147500J0D01*
G01*
X24167500Y30170000D01*
G75*
G02*
X24020000Y30317500I0J147500D01*
G01*
X24020000Y30662500D01*
G75*
G02*
X24167500Y30810000I147500J0D01*
G01*
X24462500Y30810000D01*
G75*
G02*
X24610000Y30662500I0J-147500D01*
G01*
G37*
G36*
G01*
X25580000Y30662500D02*
X25580000Y30317500D01*
G75*
G02*
X25432500Y30170000I-147500J0D01*
G01*
X25137500Y30170000D01*
G75*
G02*
X24990000Y30317500I0J147500D01*
G01*
X24990000Y30662500D01*
G75*
G02*
X25137500Y30810000I147500J0D01*
G01*
X25432500Y30810000D01*
G75*
G02*
X25580000Y30662500I0J-147500D01*
G01*
G37*
G36*
G01*
X27810000Y26562500D02*
X27810000Y26217500D01*
G75*
G02*
X27662500Y26070000I-147500J0D01*
G01*
X27367500Y26070000D01*
G75*
G02*
X27220000Y26217500I0J147500D01*
G01*
X27220000Y26562500D01*
G75*
G02*
X27367500Y26710000I147500J0D01*
G01*
X27662500Y26710000D01*
G75*
G02*
X27810000Y26562500I0J-147500D01*
G01*
G37*
G36*
G01*
X28780000Y26562500D02*
X28780000Y26217500D01*
G75*
G02*
X28632500Y26070000I-147500J0D01*
G01*
X28337500Y26070000D01*
G75*
G02*
X28190000Y26217500I0J147500D01*
G01*
X28190000Y26562500D01*
G75*
G02*
X28337500Y26710000I147500J0D01*
G01*
X28632500Y26710000D01*
G75*
G02*
X28780000Y26562500I0J-147500D01*
G01*
G37*
G36*
G01*
X27490000Y31017500D02*
X27490000Y31362500D01*
G75*
G02*
X27637500Y31510000I147500J0D01*
G01*
X27932500Y31510000D01*
G75*
G02*
X28080000Y31362500I0J-147500D01*
G01*
X28080000Y31017500D01*
G75*
G02*
X27932500Y30870000I-147500J0D01*
G01*
X27637500Y30870000D01*
G75*
G02*
X27490000Y31017500I0J147500D01*
G01*
G37*
G36*
G01*
X26520000Y31017500D02*
X26520000Y31362500D01*
G75*
G02*
X26667500Y31510000I147500J0D01*
G01*
X26962500Y31510000D01*
G75*
G02*
X27110000Y31362500I0J-147500D01*
G01*
X27110000Y31017500D01*
G75*
G02*
X26962500Y30870000I-147500J0D01*
G01*
X26667500Y30870000D01*
G75*
G02*
X26520000Y31017500I0J147500D01*
G01*
G37*
G36*
G01*
X29810000Y24562500D02*
X29810000Y24217500D01*
G75*
G02*
X29662500Y24070000I-147500J0D01*
G01*
X29367500Y24070000D01*
G75*
G02*
X29220000Y24217500I0J147500D01*
G01*
X29220000Y24562500D01*
G75*
G02*
X29367500Y24710000I147500J0D01*
G01*
X29662500Y24710000D01*
G75*
G02*
X29810000Y24562500I0J-147500D01*
G01*
G37*
G36*
G01*
X30780000Y24562500D02*
X30780000Y24217500D01*
G75*
G02*
X30632500Y24070000I-147500J0D01*
G01*
X30337500Y24070000D01*
G75*
G02*
X30190000Y24217500I0J147500D01*
G01*
X30190000Y24562500D01*
G75*
G02*
X30337500Y24710000I147500J0D01*
G01*
X30632500Y24710000D01*
G75*
G02*
X30780000Y24562500I0J-147500D01*
G01*
G37*
G36*
G01*
X24610000Y31662500D02*
X24610000Y31317500D01*
G75*
G02*
X24462500Y31170000I-147500J0D01*
G01*
X24167500Y31170000D01*
G75*
G02*
X24020000Y31317500I0J147500D01*
G01*
X24020000Y31662500D01*
G75*
G02*
X24167500Y31810000I147500J0D01*
G01*
X24462500Y31810000D01*
G75*
G02*
X24610000Y31662500I0J-147500D01*
G01*
G37*
G36*
G01*
X25580000Y31662500D02*
X25580000Y31317500D01*
G75*
G02*
X25432500Y31170000I-147500J0D01*
G01*
X25137500Y31170000D01*
G75*
G02*
X24990000Y31317500I0J147500D01*
G01*
X24990000Y31662500D01*
G75*
G02*
X25137500Y31810000I147500J0D01*
G01*
X25432500Y31810000D01*
G75*
G02*
X25580000Y31662500I0J-147500D01*
G01*
G37*
G36*
G01*
X31690000Y25217500D02*
X31690000Y25562500D01*
G75*
G02*
X31837500Y25710000I147500J0D01*
G01*
X32132500Y25710000D01*
G75*
G02*
X32280000Y25562500I0J-147500D01*
G01*
X32280000Y25217500D01*
G75*
G02*
X32132500Y25070000I-147500J0D01*
G01*
X31837500Y25070000D01*
G75*
G02*
X31690000Y25217500I0J147500D01*
G01*
G37*
G36*
G01*
X30720000Y25217500D02*
X30720000Y25562500D01*
G75*
G02*
X30867500Y25710000I147500J0D01*
G01*
X31162500Y25710000D01*
G75*
G02*
X31310000Y25562500I0J-147500D01*
G01*
X31310000Y25217500D01*
G75*
G02*
X31162500Y25070000I-147500J0D01*
G01*
X30867500Y25070000D01*
G75*
G02*
X30720000Y25217500I0J147500D01*
G01*
G37*
G36*
G01*
X31390000Y21217500D02*
X31390000Y21562500D01*
G75*
G02*
X31537500Y21710000I147500J0D01*
G01*
X31832500Y21710000D01*
G75*
G02*
X31980000Y21562500I0J-147500D01*
G01*
X31980000Y21217500D01*
G75*
G02*
X31832500Y21070000I-147500J0D01*
G01*
X31537500Y21070000D01*
G75*
G02*
X31390000Y21217500I0J147500D01*
G01*
G37*
G36*
G01*
X30420000Y21217500D02*
X30420000Y21562500D01*
G75*
G02*
X30567500Y21710000I147500J0D01*
G01*
X30862500Y21710000D01*
G75*
G02*
X31010000Y21562500I0J-147500D01*
G01*
X31010000Y21217500D01*
G75*
G02*
X30862500Y21070000I-147500J0D01*
G01*
X30567500Y21070000D01*
G75*
G02*
X30420000Y21217500I0J147500D01*
G01*
G37*
G36*
G01*
X31390000Y23117500D02*
X31390000Y23462500D01*
G75*
G02*
X31537500Y23610000I147500J0D01*
G01*
X31832500Y23610000D01*
G75*
G02*
X31980000Y23462500I0J-147500D01*
G01*
X31980000Y23117500D01*
G75*
G02*
X31832500Y22970000I-147500J0D01*
G01*
X31537500Y22970000D01*
G75*
G02*
X31390000Y23117500I0J147500D01*
G01*
G37*
G36*
G01*
X30420000Y23117500D02*
X30420000Y23462500D01*
G75*
G02*
X30567500Y23610000I147500J0D01*
G01*
X30862500Y23610000D01*
G75*
G02*
X31010000Y23462500I0J-147500D01*
G01*
X31010000Y23117500D01*
G75*
G02*
X30862500Y22970000I-147500J0D01*
G01*
X30567500Y22970000D01*
G75*
G02*
X30420000Y23117500I0J147500D01*
G01*
G37*
G36*
G01*
X24610000Y26762500D02*
X24610000Y26417500D01*
G75*
G02*
X24462500Y26270000I-147500J0D01*
G01*
X24167500Y26270000D01*
G75*
G02*
X24020000Y26417500I0J147500D01*
G01*
X24020000Y26762500D01*
G75*
G02*
X24167500Y26910000I147500J0D01*
G01*
X24462500Y26910000D01*
G75*
G02*
X24610000Y26762500I0J-147500D01*
G01*
G37*
G36*
G01*
X25580000Y26762500D02*
X25580000Y26417500D01*
G75*
G02*
X25432500Y26270000I-147500J0D01*
G01*
X25137500Y26270000D01*
G75*
G02*
X24990000Y26417500I0J147500D01*
G01*
X24990000Y26762500D01*
G75*
G02*
X25137500Y26910000I147500J0D01*
G01*
X25432500Y26910000D01*
G75*
G02*
X25580000Y26762500I0J-147500D01*
G01*
G37*
G36*
G01*
X24610000Y25762500D02*
X24610000Y25417500D01*
G75*
G02*
X24462500Y25270000I-147500J0D01*
G01*
X24167500Y25270000D01*
G75*
G02*
X24020000Y25417500I0J147500D01*
G01*
X24020000Y25762500D01*
G75*
G02*
X24167500Y25910000I147500J0D01*
G01*
X24462500Y25910000D01*
G75*
G02*
X24610000Y25762500I0J-147500D01*
G01*
G37*
G36*
G01*
X25580000Y25762500D02*
X25580000Y25417500D01*
G75*
G02*
X25432500Y25270000I-147500J0D01*
G01*
X25137500Y25270000D01*
G75*
G02*
X24990000Y25417500I0J147500D01*
G01*
X24990000Y25762500D01*
G75*
G02*
X25137500Y25910000I147500J0D01*
G01*
X25432500Y25910000D01*
G75*
G02*
X25580000Y25762500I0J-147500D01*
G01*
G37*
D11*
X11800000Y37390000D03*
D12*
X10550000Y35390000D03*
X11050000Y35390000D03*
X11550000Y35390000D03*
X12050000Y35390000D03*
X12550000Y35390000D03*
X13050000Y35390000D03*
D13*
X13800000Y36140000D03*
X13800000Y36640000D03*
X13800000Y37140000D03*
X13800000Y37640000D03*
X13800000Y38140000D03*
X13800000Y38640000D03*
D12*
X13050000Y39390000D03*
X12550000Y39390000D03*
X12050000Y39390000D03*
X11550000Y39390000D03*
X11050000Y39390000D03*
X10550000Y39390000D03*
D13*
X9800000Y38640000D03*
X9800000Y38140000D03*
X9800000Y37640000D03*
X9800000Y37140000D03*
X9800000Y36640000D03*
X9800000Y36140000D03*
D14*
X46230000Y15990000D03*
G36*
G01*
X47306599Y16786000D02*
X47103399Y16786000D01*
G75*
G02*
X47001799Y16887600I0J101600D01*
G01*
X47001799Y17192400D01*
G75*
G02*
X47103399Y17294000I101600J0D01*
G01*
X47306599Y17294000D01*
G75*
G02*
X47408199Y17192400I0J-101600D01*
G01*
X47408199Y16887600D01*
G75*
G02*
X47306599Y16786000I-101600J0D01*
G01*
G37*
G36*
G01*
X46656601Y16786000D02*
X46453401Y16786000D01*
G75*
G02*
X46351801Y16887600I0J101600D01*
G01*
X46351801Y17192400D01*
G75*
G02*
X46453401Y17294000I101600J0D01*
G01*
X46656601Y17294000D01*
G75*
G02*
X46758201Y17192400I0J-101600D01*
G01*
X46758201Y16887600D01*
G75*
G02*
X46656601Y16786000I-101600J0D01*
G01*
G37*
G36*
G01*
X46006599Y16786000D02*
X45803399Y16786000D01*
G75*
G02*
X45701799Y16887600I0J101600D01*
G01*
X45701799Y17192400D01*
G75*
G02*
X45803399Y17294000I101600J0D01*
G01*
X46006599Y17294000D01*
G75*
G02*
X46108199Y17192400I0J-101600D01*
G01*
X46108199Y16887600D01*
G75*
G02*
X46006599Y16786000I-101600J0D01*
G01*
G37*
G36*
G01*
X45356601Y16786000D02*
X45153401Y16786000D01*
G75*
G02*
X45051801Y16887600I0J101600D01*
G01*
X45051801Y17192400D01*
G75*
G02*
X45153401Y17294000I101600J0D01*
G01*
X45356601Y17294000D01*
G75*
G02*
X45458201Y17192400I0J-101600D01*
G01*
X45458201Y16887600D01*
G75*
G02*
X45356601Y16786000I-101600J0D01*
G01*
G37*
G36*
G01*
X45356601Y14686000D02*
X45153401Y14686000D01*
G75*
G02*
X45051801Y14787600I0J101600D01*
G01*
X45051801Y15092400D01*
G75*
G02*
X45153401Y15194000I101600J0D01*
G01*
X45356601Y15194000D01*
G75*
G02*
X45458201Y15092400I0J-101600D01*
G01*
X45458201Y14787600D01*
G75*
G02*
X45356601Y14686000I-101600J0D01*
G01*
G37*
G36*
G01*
X46006599Y14686000D02*
X45803399Y14686000D01*
G75*
G02*
X45701799Y14787600I0J101600D01*
G01*
X45701799Y15092400D01*
G75*
G02*
X45803399Y15194000I101600J0D01*
G01*
X46006599Y15194000D01*
G75*
G02*
X46108199Y15092400I0J-101600D01*
G01*
X46108199Y14787600D01*
G75*
G02*
X46006599Y14686000I-101600J0D01*
G01*
G37*
G36*
G01*
X46656601Y14686000D02*
X46453401Y14686000D01*
G75*
G02*
X46351801Y14787600I0J101600D01*
G01*
X46351801Y15092400D01*
G75*
G02*
X46453401Y15194000I101600J0D01*
G01*
X46656601Y15194000D01*
G75*
G02*
X46758201Y15092400I0J-101600D01*
G01*
X46758201Y14787600D01*
G75*
G02*
X46656601Y14686000I-101600J0D01*
G01*
G37*
G36*
G01*
X47306599Y14686000D02*
X47103399Y14686000D01*
G75*
G02*
X47001799Y14787600I0J101600D01*
G01*
X47001799Y15092400D01*
G75*
G02*
X47103399Y15194000I101600J0D01*
G01*
X47306599Y15194000D01*
G75*
G02*
X47408199Y15092400I0J-101600D01*
G01*
X47408199Y14787600D01*
G75*
G02*
X47306599Y14686000I-101600J0D01*
G01*
G37*
X13750000Y15990000D03*
G36*
G01*
X12673401Y15194000D02*
X12876601Y15194000D01*
G75*
G02*
X12978201Y15092400I0J-101600D01*
G01*
X12978201Y14787600D01*
G75*
G02*
X12876601Y14686000I-101600J0D01*
G01*
X12673401Y14686000D01*
G75*
G02*
X12571801Y14787600I0J101600D01*
G01*
X12571801Y15092400D01*
G75*
G02*
X12673401Y15194000I101600J0D01*
G01*
G37*
G36*
G01*
X13323399Y15194000D02*
X13526599Y15194000D01*
G75*
G02*
X13628199Y15092400I0J-101600D01*
G01*
X13628199Y14787600D01*
G75*
G02*
X13526599Y14686000I-101600J0D01*
G01*
X13323399Y14686000D01*
G75*
G02*
X13221799Y14787600I0J101600D01*
G01*
X13221799Y15092400D01*
G75*
G02*
X13323399Y15194000I101600J0D01*
G01*
G37*
G36*
G01*
X13973401Y15194000D02*
X14176601Y15194000D01*
G75*
G02*
X14278201Y15092400I0J-101600D01*
G01*
X14278201Y14787600D01*
G75*
G02*
X14176601Y14686000I-101600J0D01*
G01*
X13973401Y14686000D01*
G75*
G02*
X13871801Y14787600I0J101600D01*
G01*
X13871801Y15092400D01*
G75*
G02*
X13973401Y15194000I101600J0D01*
G01*
G37*
G36*
G01*
X14623399Y15194000D02*
X14826599Y15194000D01*
G75*
G02*
X14928199Y15092400I0J-101600D01*
G01*
X14928199Y14787600D01*
G75*
G02*
X14826599Y14686000I-101600J0D01*
G01*
X14623399Y14686000D01*
G75*
G02*
X14521799Y14787600I0J101600D01*
G01*
X14521799Y15092400D01*
G75*
G02*
X14623399Y15194000I101600J0D01*
G01*
G37*
G36*
G01*
X14623399Y17294000D02*
X14826599Y17294000D01*
G75*
G02*
X14928199Y17192400I0J-101600D01*
G01*
X14928199Y16887600D01*
G75*
G02*
X14826599Y16786000I-101600J0D01*
G01*
X14623399Y16786000D01*
G75*
G02*
X14521799Y16887600I0J101600D01*
G01*
X14521799Y17192400D01*
G75*
G02*
X14623399Y17294000I101600J0D01*
G01*
G37*
G36*
G01*
X13973401Y17294000D02*
X14176601Y17294000D01*
G75*
G02*
X14278201Y17192400I0J-101600D01*
G01*
X14278201Y16887600D01*
G75*
G02*
X14176601Y16786000I-101600J0D01*
G01*
X13973401Y16786000D01*
G75*
G02*
X13871801Y16887600I0J101600D01*
G01*
X13871801Y17192400D01*
G75*
G02*
X13973401Y17294000I101600J0D01*
G01*
G37*
G36*
G01*
X13323399Y17294000D02*
X13526599Y17294000D01*
G75*
G02*
X13628199Y17192400I0J-101600D01*
G01*
X13628199Y16887600D01*
G75*
G02*
X13526599Y16786000I-101600J0D01*
G01*
X13323399Y16786000D01*
G75*
G02*
X13221799Y16887600I0J101600D01*
G01*
X13221799Y17192400D01*
G75*
G02*
X13323399Y17294000I101600J0D01*
G01*
G37*
G36*
G01*
X12673401Y17294000D02*
X12876601Y17294000D01*
G75*
G02*
X12978201Y17192400I0J-101600D01*
G01*
X12978201Y16887600D01*
G75*
G02*
X12876601Y16786000I-101600J0D01*
G01*
X12673401Y16786000D01*
G75*
G02*
X12571801Y16887600I0J101600D01*
G01*
X12571801Y17192400D01*
G75*
G02*
X12673401Y17294000I101600J0D01*
G01*
G37*
X46250000Y25390000D03*
G36*
G01*
X47326599Y26186000D02*
X47123399Y26186000D01*
G75*
G02*
X47021799Y26287600I0J101600D01*
G01*
X47021799Y26592400D01*
G75*
G02*
X47123399Y26694000I101600J0D01*
G01*
X47326599Y26694000D01*
G75*
G02*
X47428199Y26592400I0J-101600D01*
G01*
X47428199Y26287600D01*
G75*
G02*
X47326599Y26186000I-101600J0D01*
G01*
G37*
G36*
G01*
X46676601Y26186000D02*
X46473401Y26186000D01*
G75*
G02*
X46371801Y26287600I0J101600D01*
G01*
X46371801Y26592400D01*
G75*
G02*
X46473401Y26694000I101600J0D01*
G01*
X46676601Y26694000D01*
G75*
G02*
X46778201Y26592400I0J-101600D01*
G01*
X46778201Y26287600D01*
G75*
G02*
X46676601Y26186000I-101600J0D01*
G01*
G37*
G36*
G01*
X46026599Y26186000D02*
X45823399Y26186000D01*
G75*
G02*
X45721799Y26287600I0J101600D01*
G01*
X45721799Y26592400D01*
G75*
G02*
X45823399Y26694000I101600J0D01*
G01*
X46026599Y26694000D01*
G75*
G02*
X46128199Y26592400I0J-101600D01*
G01*
X46128199Y26287600D01*
G75*
G02*
X46026599Y26186000I-101600J0D01*
G01*
G37*
G36*
G01*
X45376601Y26186000D02*
X45173401Y26186000D01*
G75*
G02*
X45071801Y26287600I0J101600D01*
G01*
X45071801Y26592400D01*
G75*
G02*
X45173401Y26694000I101600J0D01*
G01*
X45376601Y26694000D01*
G75*
G02*
X45478201Y26592400I0J-101600D01*
G01*
X45478201Y26287600D01*
G75*
G02*
X45376601Y26186000I-101600J0D01*
G01*
G37*
G36*
G01*
X45376601Y24086000D02*
X45173401Y24086000D01*
G75*
G02*
X45071801Y24187600I0J101600D01*
G01*
X45071801Y24492400D01*
G75*
G02*
X45173401Y24594000I101600J0D01*
G01*
X45376601Y24594000D01*
G75*
G02*
X45478201Y24492400I0J-101600D01*
G01*
X45478201Y24187600D01*
G75*
G02*
X45376601Y24086000I-101600J0D01*
G01*
G37*
G36*
G01*
X46026599Y24086000D02*
X45823399Y24086000D01*
G75*
G02*
X45721799Y24187600I0J101600D01*
G01*
X45721799Y24492400D01*
G75*
G02*
X45823399Y24594000I101600J0D01*
G01*
X46026599Y24594000D01*
G75*
G02*
X46128199Y24492400I0J-101600D01*
G01*
X46128199Y24187600D01*
G75*
G02*
X46026599Y24086000I-101600J0D01*
G01*
G37*
G36*
G01*
X46676601Y24086000D02*
X46473401Y24086000D01*
G75*
G02*
X46371801Y24187600I0J101600D01*
G01*
X46371801Y24492400D01*
G75*
G02*
X46473401Y24594000I101600J0D01*
G01*
X46676601Y24594000D01*
G75*
G02*
X46778201Y24492400I0J-101600D01*
G01*
X46778201Y24187600D01*
G75*
G02*
X46676601Y24086000I-101600J0D01*
G01*
G37*
G36*
G01*
X47326599Y24086000D02*
X47123399Y24086000D01*
G75*
G02*
X47021799Y24187600I0J101600D01*
G01*
X47021799Y24492400D01*
G75*
G02*
X47123399Y24594000I101600J0D01*
G01*
X47326599Y24594000D01*
G75*
G02*
X47428199Y24492400I0J-101600D01*
G01*
X47428199Y24187600D01*
G75*
G02*
X47326599Y24086000I-101600J0D01*
G01*
G37*
X46230000Y34790000D03*
G36*
G01*
X47306599Y35586000D02*
X47103399Y35586000D01*
G75*
G02*
X47001799Y35687600I0J101600D01*
G01*
X47001799Y35992400D01*
G75*
G02*
X47103399Y36094000I101600J0D01*
G01*
X47306599Y36094000D01*
G75*
G02*
X47408199Y35992400I0J-101600D01*
G01*
X47408199Y35687600D01*
G75*
G02*
X47306599Y35586000I-101600J0D01*
G01*
G37*
G36*
G01*
X46656601Y35586000D02*
X46453401Y35586000D01*
G75*
G02*
X46351801Y35687600I0J101600D01*
G01*
X46351801Y35992400D01*
G75*
G02*
X46453401Y36094000I101600J0D01*
G01*
X46656601Y36094000D01*
G75*
G02*
X46758201Y35992400I0J-101600D01*
G01*
X46758201Y35687600D01*
G75*
G02*
X46656601Y35586000I-101600J0D01*
G01*
G37*
G36*
G01*
X46006599Y35586000D02*
X45803399Y35586000D01*
G75*
G02*
X45701799Y35687600I0J101600D01*
G01*
X45701799Y35992400D01*
G75*
G02*
X45803399Y36094000I101600J0D01*
G01*
X46006599Y36094000D01*
G75*
G02*
X46108199Y35992400I0J-101600D01*
G01*
X46108199Y35687600D01*
G75*
G02*
X46006599Y35586000I-101600J0D01*
G01*
G37*
G36*
G01*
X45356601Y35586000D02*
X45153401Y35586000D01*
G75*
G02*
X45051801Y35687600I0J101600D01*
G01*
X45051801Y35992400D01*
G75*
G02*
X45153401Y36094000I101600J0D01*
G01*
X45356601Y36094000D01*
G75*
G02*
X45458201Y35992400I0J-101600D01*
G01*
X45458201Y35687600D01*
G75*
G02*
X45356601Y35586000I-101600J0D01*
G01*
G37*
G36*
G01*
X45356601Y33486000D02*
X45153401Y33486000D01*
G75*
G02*
X45051801Y33587600I0J101600D01*
G01*
X45051801Y33892400D01*
G75*
G02*
X45153401Y33994000I101600J0D01*
G01*
X45356601Y33994000D01*
G75*
G02*
X45458201Y33892400I0J-101600D01*
G01*
X45458201Y33587600D01*
G75*
G02*
X45356601Y33486000I-101600J0D01*
G01*
G37*
G36*
G01*
X46006599Y33486000D02*
X45803399Y33486000D01*
G75*
G02*
X45701799Y33587600I0J101600D01*
G01*
X45701799Y33892400D01*
G75*
G02*
X45803399Y33994000I101600J0D01*
G01*
X46006599Y33994000D01*
G75*
G02*
X46108199Y33892400I0J-101600D01*
G01*
X46108199Y33587600D01*
G75*
G02*
X46006599Y33486000I-101600J0D01*
G01*
G37*
G36*
G01*
X46656601Y33486000D02*
X46453401Y33486000D01*
G75*
G02*
X46351801Y33587600I0J101600D01*
G01*
X46351801Y33892400D01*
G75*
G02*
X46453401Y33994000I101600J0D01*
G01*
X46656601Y33994000D01*
G75*
G02*
X46758201Y33892400I0J-101600D01*
G01*
X46758201Y33587600D01*
G75*
G02*
X46656601Y33486000I-101600J0D01*
G01*
G37*
G36*
G01*
X47306599Y33486000D02*
X47103399Y33486000D01*
G75*
G02*
X47001799Y33587600I0J101600D01*
G01*
X47001799Y33892400D01*
G75*
G02*
X47103399Y33994000I101600J0D01*
G01*
X47306599Y33994000D01*
G75*
G02*
X47408199Y33892400I0J-101600D01*
G01*
X47408199Y33587600D01*
G75*
G02*
X47306599Y33486000I-101600J0D01*
G01*
G37*
G36*
G01*
X48972500Y16180000D02*
X48627500Y16180000D01*
G75*
G02*
X48480000Y16327500I0J147500D01*
G01*
X48480000Y16622500D01*
G75*
G02*
X48627500Y16770000I147500J0D01*
G01*
X48972500Y16770000D01*
G75*
G02*
X49120000Y16622500I0J-147500D01*
G01*
X49120000Y16327500D01*
G75*
G02*
X48972500Y16180000I-147500J0D01*
G01*
G37*
G36*
G01*
X48972500Y15210000D02*
X48627500Y15210000D01*
G75*
G02*
X48480000Y15357500I0J147500D01*
G01*
X48480000Y15652500D01*
G75*
G02*
X48627500Y15800000I147500J0D01*
G01*
X48972500Y15800000D01*
G75*
G02*
X49120000Y15652500I0J-147500D01*
G01*
X49120000Y15357500D01*
G75*
G02*
X48972500Y15210000I-147500J0D01*
G01*
G37*
G36*
G01*
X47175000Y12365000D02*
X47175000Y13615000D01*
G75*
G02*
X47425000Y13865000I250000J0D01*
G01*
X48175000Y13865000D01*
G75*
G02*
X48425000Y13615000I0J-250000D01*
G01*
X48425000Y12365000D01*
G75*
G02*
X48175000Y12115000I-250000J0D01*
G01*
X47425000Y12115000D01*
G75*
G02*
X47175000Y12365000I0J250000D01*
G01*
G37*
G36*
G01*
X44375000Y12365000D02*
X44375000Y13615000D01*
G75*
G02*
X44625000Y13865000I250000J0D01*
G01*
X45375000Y13865000D01*
G75*
G02*
X45625000Y13615000I0J-250000D01*
G01*
X45625000Y12365000D01*
G75*
G02*
X45375000Y12115000I-250000J0D01*
G01*
X44625000Y12115000D01*
G75*
G02*
X44375000Y12365000I0J250000D01*
G01*
G37*
G36*
G01*
X11027500Y15800000D02*
X11372500Y15800000D01*
G75*
G02*
X11520000Y15652500I0J-147500D01*
G01*
X11520000Y15357500D01*
G75*
G02*
X11372500Y15210000I-147500J0D01*
G01*
X11027500Y15210000D01*
G75*
G02*
X10880000Y15357500I0J147500D01*
G01*
X10880000Y15652500D01*
G75*
G02*
X11027500Y15800000I147500J0D01*
G01*
G37*
G36*
G01*
X11027500Y16770000D02*
X11372500Y16770000D01*
G75*
G02*
X11520000Y16622500I0J-147500D01*
G01*
X11520000Y16327500D01*
G75*
G02*
X11372500Y16180000I-147500J0D01*
G01*
X11027500Y16180000D01*
G75*
G02*
X10880000Y16327500I0J147500D01*
G01*
X10880000Y16622500D01*
G75*
G02*
X11027500Y16770000I147500J0D01*
G01*
G37*
G36*
G01*
X48972500Y25580000D02*
X48627500Y25580000D01*
G75*
G02*
X48480000Y25727500I0J147500D01*
G01*
X48480000Y26022500D01*
G75*
G02*
X48627500Y26170000I147500J0D01*
G01*
X48972500Y26170000D01*
G75*
G02*
X49120000Y26022500I0J-147500D01*
G01*
X49120000Y25727500D01*
G75*
G02*
X48972500Y25580000I-147500J0D01*
G01*
G37*
G36*
G01*
X48972500Y24610000D02*
X48627500Y24610000D01*
G75*
G02*
X48480000Y24757500I0J147500D01*
G01*
X48480000Y25052500D01*
G75*
G02*
X48627500Y25200000I147500J0D01*
G01*
X48972500Y25200000D01*
G75*
G02*
X49120000Y25052500I0J-147500D01*
G01*
X49120000Y24757500D01*
G75*
G02*
X48972500Y24610000I-147500J0D01*
G01*
G37*
G36*
G01*
X12825000Y19615000D02*
X12825000Y18365000D01*
G75*
G02*
X12575000Y18115000I-250000J0D01*
G01*
X11825000Y18115000D01*
G75*
G02*
X11575000Y18365000I0J250000D01*
G01*
X11575000Y19615000D01*
G75*
G02*
X11825000Y19865000I250000J0D01*
G01*
X12575000Y19865000D01*
G75*
G02*
X12825000Y19615000I0J-250000D01*
G01*
G37*
G36*
G01*
X15625000Y19615000D02*
X15625000Y18365000D01*
G75*
G02*
X15375000Y18115000I-250000J0D01*
G01*
X14625000Y18115000D01*
G75*
G02*
X14375000Y18365000I0J250000D01*
G01*
X14375000Y19615000D01*
G75*
G02*
X14625000Y19865000I250000J0D01*
G01*
X15375000Y19865000D01*
G75*
G02*
X15625000Y19615000I0J-250000D01*
G01*
G37*
G36*
G01*
X47175000Y21765000D02*
X47175000Y23015000D01*
G75*
G02*
X47425000Y23265000I250000J0D01*
G01*
X48175000Y23265000D01*
G75*
G02*
X48425000Y23015000I0J-250000D01*
G01*
X48425000Y21765000D01*
G75*
G02*
X48175000Y21515000I-250000J0D01*
G01*
X47425000Y21515000D01*
G75*
G02*
X47175000Y21765000I0J250000D01*
G01*
G37*
G36*
G01*
X44375000Y21765000D02*
X44375000Y23015000D01*
G75*
G02*
X44625000Y23265000I250000J0D01*
G01*
X45375000Y23265000D01*
G75*
G02*
X45625000Y23015000I0J-250000D01*
G01*
X45625000Y21765000D01*
G75*
G02*
X45375000Y21515000I-250000J0D01*
G01*
X44625000Y21515000D01*
G75*
G02*
X44375000Y21765000I0J250000D01*
G01*
G37*
G36*
G01*
X48972500Y34980000D02*
X48627500Y34980000D01*
G75*
G02*
X48480000Y35127500I0J147500D01*
G01*
X48480000Y35422500D01*
G75*
G02*
X48627500Y35570000I147500J0D01*
G01*
X48972500Y35570000D01*
G75*
G02*
X49120000Y35422500I0J-147500D01*
G01*
X49120000Y35127500D01*
G75*
G02*
X48972500Y34980000I-147500J0D01*
G01*
G37*
G36*
G01*
X48972500Y34010000D02*
X48627500Y34010000D01*
G75*
G02*
X48480000Y34157500I0J147500D01*
G01*
X48480000Y34452500D01*
G75*
G02*
X48627500Y34600000I147500J0D01*
G01*
X48972500Y34600000D01*
G75*
G02*
X49120000Y34452500I0J-147500D01*
G01*
X49120000Y34157500D01*
G75*
G02*
X48972500Y34010000I-147500J0D01*
G01*
G37*
G36*
G01*
X47175000Y31165000D02*
X47175000Y32415000D01*
G75*
G02*
X47425000Y32665000I250000J0D01*
G01*
X48175000Y32665000D01*
G75*
G02*
X48425000Y32415000I0J-250000D01*
G01*
X48425000Y31165000D01*
G75*
G02*
X48175000Y30915000I-250000J0D01*
G01*
X47425000Y30915000D01*
G75*
G02*
X47175000Y31165000I0J250000D01*
G01*
G37*
G36*
G01*
X44375000Y31165000D02*
X44375000Y32415000D01*
G75*
G02*
X44625000Y32665000I250000J0D01*
G01*
X45375000Y32665000D01*
G75*
G02*
X45625000Y32415000I0J-250000D01*
G01*
X45625000Y31165000D01*
G75*
G02*
X45375000Y30915000I-250000J0D01*
G01*
X44625000Y30915000D01*
G75*
G02*
X44375000Y31165000I0J250000D01*
G01*
G37*
D15*
X7850000Y35890000D03*
X7850000Y38090000D03*
X6150000Y38090000D03*
X6150000Y35890000D03*
D14*
X13770000Y25390000D03*
G36*
G01*
X12693401Y24594000D02*
X12896601Y24594000D01*
G75*
G02*
X12998201Y24492400I0J-101600D01*
G01*
X12998201Y24187600D01*
G75*
G02*
X12896601Y24086000I-101600J0D01*
G01*
X12693401Y24086000D01*
G75*
G02*
X12591801Y24187600I0J101600D01*
G01*
X12591801Y24492400D01*
G75*
G02*
X12693401Y24594000I101600J0D01*
G01*
G37*
G36*
G01*
X13343399Y24594000D02*
X13546599Y24594000D01*
G75*
G02*
X13648199Y24492400I0J-101600D01*
G01*
X13648199Y24187600D01*
G75*
G02*
X13546599Y24086000I-101600J0D01*
G01*
X13343399Y24086000D01*
G75*
G02*
X13241799Y24187600I0J101600D01*
G01*
X13241799Y24492400D01*
G75*
G02*
X13343399Y24594000I101600J0D01*
G01*
G37*
G36*
G01*
X13993401Y24594000D02*
X14196601Y24594000D01*
G75*
G02*
X14298201Y24492400I0J-101600D01*
G01*
X14298201Y24187600D01*
G75*
G02*
X14196601Y24086000I-101600J0D01*
G01*
X13993401Y24086000D01*
G75*
G02*
X13891801Y24187600I0J101600D01*
G01*
X13891801Y24492400D01*
G75*
G02*
X13993401Y24594000I101600J0D01*
G01*
G37*
G36*
G01*
X14643399Y24594000D02*
X14846599Y24594000D01*
G75*
G02*
X14948199Y24492400I0J-101600D01*
G01*
X14948199Y24187600D01*
G75*
G02*
X14846599Y24086000I-101600J0D01*
G01*
X14643399Y24086000D01*
G75*
G02*
X14541799Y24187600I0J101600D01*
G01*
X14541799Y24492400D01*
G75*
G02*
X14643399Y24594000I101600J0D01*
G01*
G37*
G36*
G01*
X14643399Y26694000D02*
X14846599Y26694000D01*
G75*
G02*
X14948199Y26592400I0J-101600D01*
G01*
X14948199Y26287600D01*
G75*
G02*
X14846599Y26186000I-101600J0D01*
G01*
X14643399Y26186000D01*
G75*
G02*
X14541799Y26287600I0J101600D01*
G01*
X14541799Y26592400D01*
G75*
G02*
X14643399Y26694000I101600J0D01*
G01*
G37*
G36*
G01*
X13993401Y26694000D02*
X14196601Y26694000D01*
G75*
G02*
X14298201Y26592400I0J-101600D01*
G01*
X14298201Y26287600D01*
G75*
G02*
X14196601Y26186000I-101600J0D01*
G01*
X13993401Y26186000D01*
G75*
G02*
X13891801Y26287600I0J101600D01*
G01*
X13891801Y26592400D01*
G75*
G02*
X13993401Y26694000I101600J0D01*
G01*
G37*
G36*
G01*
X13343399Y26694000D02*
X13546599Y26694000D01*
G75*
G02*
X13648199Y26592400I0J-101600D01*
G01*
X13648199Y26287600D01*
G75*
G02*
X13546599Y26186000I-101600J0D01*
G01*
X13343399Y26186000D01*
G75*
G02*
X13241799Y26287600I0J101600D01*
G01*
X13241799Y26592400D01*
G75*
G02*
X13343399Y26694000I101600J0D01*
G01*
G37*
G36*
G01*
X12693401Y26694000D02*
X12896601Y26694000D01*
G75*
G02*
X12998201Y26592400I0J-101600D01*
G01*
X12998201Y26287600D01*
G75*
G02*
X12896601Y26186000I-101600J0D01*
G01*
X12693401Y26186000D01*
G75*
G02*
X12591801Y26287600I0J101600D01*
G01*
X12591801Y26592400D01*
G75*
G02*
X12693401Y26694000I101600J0D01*
G01*
G37*
G36*
G01*
X11027500Y25970000D02*
X11372500Y25970000D01*
G75*
G02*
X11520000Y25822500I0J-147500D01*
G01*
X11520000Y25527500D01*
G75*
G02*
X11372500Y25380000I-147500J0D01*
G01*
X11027500Y25380000D01*
G75*
G02*
X10880000Y25527500I0J147500D01*
G01*
X10880000Y25822500D01*
G75*
G02*
X11027500Y25970000I147500J0D01*
G01*
G37*
G36*
G01*
X11027500Y25000000D02*
X11372500Y25000000D01*
G75*
G02*
X11520000Y24852500I0J-147500D01*
G01*
X11520000Y24557500D01*
G75*
G02*
X11372500Y24410000I-147500J0D01*
G01*
X11027500Y24410000D01*
G75*
G02*
X10880000Y24557500I0J147500D01*
G01*
X10880000Y24852500D01*
G75*
G02*
X11027500Y25000000I147500J0D01*
G01*
G37*
G36*
G01*
X15625000Y29015000D02*
X15625000Y27765000D01*
G75*
G02*
X15375000Y27515000I-250000J0D01*
G01*
X14625000Y27515000D01*
G75*
G02*
X14375000Y27765000I0J250000D01*
G01*
X14375000Y29015000D01*
G75*
G02*
X14625000Y29265000I250000J0D01*
G01*
X15375000Y29265000D01*
G75*
G02*
X15625000Y29015000I0J-250000D01*
G01*
G37*
G36*
G01*
X12825000Y29015000D02*
X12825000Y27765000D01*
G75*
G02*
X12575000Y27515000I-250000J0D01*
G01*
X11825000Y27515000D01*
G75*
G02*
X11575000Y27765000I0J250000D01*
G01*
X11575000Y29015000D01*
G75*
G02*
X11825000Y29265000I250000J0D01*
G01*
X12575000Y29265000D01*
G75*
G02*
X12825000Y29015000I0J-250000D01*
G01*
G37*
D16*
X23000000Y11190000D03*
X27000000Y11190000D03*
X34200000Y11190000D03*
X30200000Y11190000D03*
D17*
X39400000Y1890000D03*
X32600000Y1890000D03*
D18*
X37000000Y7090000D03*
X35000000Y7090000D03*
D19*
X14900000Y31640000D03*
X14900000Y33540000D03*
X12700000Y33540000D03*
X12700000Y32590000D03*
X12700000Y31640000D03*
G36*
G01*
X23390000Y33217500D02*
X23390000Y33562500D01*
G75*
G02*
X23537500Y33710000I147500J0D01*
G01*
X23832500Y33710000D01*
G75*
G02*
X23980000Y33562500I0J-147500D01*
G01*
X23980000Y33217500D01*
G75*
G02*
X23832500Y33070000I-147500J0D01*
G01*
X23537500Y33070000D01*
G75*
G02*
X23390000Y33217500I0J147500D01*
G01*
G37*
G36*
G01*
X22420000Y33217500D02*
X22420000Y33562500D01*
G75*
G02*
X22567500Y33710000I147500J0D01*
G01*
X22862500Y33710000D01*
G75*
G02*
X23010000Y33562500I0J-147500D01*
G01*
X23010000Y33217500D01*
G75*
G02*
X22862500Y33070000I-147500J0D01*
G01*
X22567500Y33070000D01*
G75*
G02*
X22420000Y33217500I0J147500D01*
G01*
G37*
G36*
G01*
X24572500Y35580000D02*
X24227500Y35580000D01*
G75*
G02*
X24080000Y35727500I0J147500D01*
G01*
X24080000Y36022500D01*
G75*
G02*
X24227500Y36170000I147500J0D01*
G01*
X24572500Y36170000D01*
G75*
G02*
X24720000Y36022500I0J-147500D01*
G01*
X24720000Y35727500D01*
G75*
G02*
X24572500Y35580000I-147500J0D01*
G01*
G37*
G36*
G01*
X24572500Y34610000D02*
X24227500Y34610000D01*
G75*
G02*
X24080000Y34757500I0J147500D01*
G01*
X24080000Y35052500D01*
G75*
G02*
X24227500Y35200000I147500J0D01*
G01*
X24572500Y35200000D01*
G75*
G02*
X24720000Y35052500I0J-147500D01*
G01*
X24720000Y34757500D01*
G75*
G02*
X24572500Y34610000I-147500J0D01*
G01*
G37*
G36*
G01*
X28890000Y34217500D02*
X28890000Y34562500D01*
G75*
G02*
X29037500Y34710000I147500J0D01*
G01*
X29332500Y34710000D01*
G75*
G02*
X29480000Y34562500I0J-147500D01*
G01*
X29480000Y34217500D01*
G75*
G02*
X29332500Y34070000I-147500J0D01*
G01*
X29037500Y34070000D01*
G75*
G02*
X28890000Y34217500I0J147500D01*
G01*
G37*
G36*
G01*
X27920000Y34217500D02*
X27920000Y34562500D01*
G75*
G02*
X28067500Y34710000I147500J0D01*
G01*
X28362500Y34710000D01*
G75*
G02*
X28510000Y34562500I0J-147500D01*
G01*
X28510000Y34217500D01*
G75*
G02*
X28362500Y34070000I-147500J0D01*
G01*
X28067500Y34070000D01*
G75*
G02*
X27920000Y34217500I0J147500D01*
G01*
G37*
G36*
G01*
X29290000Y33017500D02*
X29290000Y33362500D01*
G75*
G02*
X29437500Y33510000I147500J0D01*
G01*
X29732500Y33510000D01*
G75*
G02*
X29880000Y33362500I0J-147500D01*
G01*
X29880000Y33017500D01*
G75*
G02*
X29732500Y32870000I-147500J0D01*
G01*
X29437500Y32870000D01*
G75*
G02*
X29290000Y33017500I0J147500D01*
G01*
G37*
G36*
G01*
X28320000Y33017500D02*
X28320000Y33362500D01*
G75*
G02*
X28467500Y33510000I147500J0D01*
G01*
X28762500Y33510000D01*
G75*
G02*
X28910000Y33362500I0J-147500D01*
G01*
X28910000Y33017500D01*
G75*
G02*
X28762500Y32870000I-147500J0D01*
G01*
X28467500Y32870000D01*
G75*
G02*
X28320000Y33017500I0J147500D01*
G01*
G37*
G36*
G01*
X25490000Y33017500D02*
X25490000Y33362500D01*
G75*
G02*
X25637500Y33510000I147500J0D01*
G01*
X25932500Y33510000D01*
G75*
G02*
X26080000Y33362500I0J-147500D01*
G01*
X26080000Y33017500D01*
G75*
G02*
X25932500Y32870000I-147500J0D01*
G01*
X25637500Y32870000D01*
G75*
G02*
X25490000Y33017500I0J147500D01*
G01*
G37*
G36*
G01*
X24520000Y33017500D02*
X24520000Y33362500D01*
G75*
G02*
X24667500Y33510000I147500J0D01*
G01*
X24962500Y33510000D01*
G75*
G02*
X25110000Y33362500I0J-147500D01*
G01*
X25110000Y33017500D01*
G75*
G02*
X24962500Y32870000I-147500J0D01*
G01*
X24667500Y32870000D01*
G75*
G02*
X24520000Y33017500I0J147500D01*
G01*
G37*
G36*
G01*
X27010000Y33362500D02*
X27010000Y33017500D01*
G75*
G02*
X26862500Y32870000I-147500J0D01*
G01*
X26567500Y32870000D01*
G75*
G02*
X26420000Y33017500I0J147500D01*
G01*
X26420000Y33362500D01*
G75*
G02*
X26567500Y33510000I147500J0D01*
G01*
X26862500Y33510000D01*
G75*
G02*
X27010000Y33362500I0J-147500D01*
G01*
G37*
G36*
G01*
X27980000Y33362500D02*
X27980000Y33017500D01*
G75*
G02*
X27832500Y32870000I-147500J0D01*
G01*
X27537500Y32870000D01*
G75*
G02*
X27390000Y33017500I0J147500D01*
G01*
X27390000Y33362500D01*
G75*
G02*
X27537500Y33510000I147500J0D01*
G01*
X27832500Y33510000D01*
G75*
G02*
X27980000Y33362500I0J-147500D01*
G01*
G37*
G36*
G01*
X16772500Y33180000D02*
X16427500Y33180000D01*
G75*
G02*
X16280000Y33327500I0J147500D01*
G01*
X16280000Y33622500D01*
G75*
G02*
X16427500Y33770000I147500J0D01*
G01*
X16772500Y33770000D01*
G75*
G02*
X16920000Y33622500I0J-147500D01*
G01*
X16920000Y33327500D01*
G75*
G02*
X16772500Y33180000I-147500J0D01*
G01*
G37*
G36*
G01*
X16772500Y32210000D02*
X16427500Y32210000D01*
G75*
G02*
X16280000Y32357500I0J147500D01*
G01*
X16280000Y32652500D01*
G75*
G02*
X16427500Y32800000I147500J0D01*
G01*
X16772500Y32800000D01*
G75*
G02*
X16920000Y32652500I0J-147500D01*
G01*
X16920000Y32357500D01*
G75*
G02*
X16772500Y32210000I-147500J0D01*
G01*
G37*
G36*
G01*
X11472500Y31880000D02*
X11127500Y31880000D01*
G75*
G02*
X10980000Y32027500I0J147500D01*
G01*
X10980000Y32322500D01*
G75*
G02*
X11127500Y32470000I147500J0D01*
G01*
X11472500Y32470000D01*
G75*
G02*
X11620000Y32322500I0J-147500D01*
G01*
X11620000Y32027500D01*
G75*
G02*
X11472500Y31880000I-147500J0D01*
G01*
G37*
G36*
G01*
X11472500Y30910000D02*
X11127500Y30910000D01*
G75*
G02*
X10980000Y31057500I0J147500D01*
G01*
X10980000Y31352500D01*
G75*
G02*
X11127500Y31500000I147500J0D01*
G01*
X11472500Y31500000D01*
G75*
G02*
X11620000Y31352500I0J-147500D01*
G01*
X11620000Y31057500D01*
G75*
G02*
X11472500Y30910000I-147500J0D01*
G01*
G37*
M02*
