G04 #@! TF.GenerationSoftware,KiCad,Pcbnew,5.1.6-c6e7f7d~87~ubuntu20.04.1*
G04 #@! TF.CreationDate,2020-09-18T07:25:33-07:00*
G04 #@! TF.ProjectId,artix7-pcie-v2,61727469-7837-42d7-9063-69652d76322e,rev?*
G04 #@! TF.SameCoordinates,PX69f4060PY6b00940*
G04 #@! TF.FileFunction,Soldermask,Bot*
G04 #@! TF.FilePolarity,Negative*
%FSLAX46Y46*%
G04 Gerber Fmt 4.6, Leading zero omitted, Abs format (unit mm)*
G04 Created by KiCad (PCBNEW 5.1.6-c6e7f7d~87~ubuntu20.04.1) date 2020-09-18 07:25:33*
%MOMM*%
%LPD*%
G01*
G04 APERTURE LIST*
%ADD10C,0.010000*%
%ADD11R,1.230000X0.610000*%
%ADD12R,0.610000X1.230000*%
%ADD13R,1.470000X0.610000*%
%ADD14R,1.920000X2.520000*%
%ADD15R,2.520000X1.920000*%
%ADD16C,1.448000*%
%ADD17C,1.520000*%
%ADD18C,3.020000*%
%ADD19C,1.220000*%
%ADD20C,4.720000*%
%ADD21C,0.570000*%
%ADD22O,1.520000X2.220000*%
%ADD23C,2.020000*%
%ADD24O,1.720000X1.720000*%
%ADD25R,1.720000X1.720000*%
%ADD26R,2.920000X2.920000*%
%ADD27R,0.320000X0.770000*%
%ADD28R,0.770000X0.320000*%
%ADD29R,1.220000X1.420000*%
%ADD30R,2.520000X1.820000*%
%ADD31R,1.701600X3.501600*%
%ADD32R,1.101600X4.701600*%
%ADD33O,1.747200X1.747200*%
%ADD34R,1.747200X1.747200*%
G04 APERTURE END LIST*
D10*
G36*
X45520000Y24375000D02*
G01*
X45520000Y23925000D01*
X45020000Y23925000D01*
X45020000Y23535000D01*
X45520000Y23535000D01*
X45520000Y23425000D01*
X45020000Y23425000D01*
X45020000Y23035000D01*
X45520000Y23035000D01*
X45520000Y22585000D01*
X48060000Y22585000D01*
X48060000Y23035000D01*
X48560000Y23035000D01*
X48560000Y23425000D01*
X48060000Y23425000D01*
X48060000Y23535000D01*
X48560000Y23535000D01*
X48560000Y23925000D01*
X48060000Y23925000D01*
X48060000Y24375000D01*
X45520000Y24375000D01*
G37*
X45520000Y24375000D02*
X45520000Y23925000D01*
X45020000Y23925000D01*
X45020000Y23535000D01*
X45520000Y23535000D01*
X45520000Y23425000D01*
X45020000Y23425000D01*
X45020000Y23035000D01*
X45520000Y23035000D01*
X45520000Y22585000D01*
X48060000Y22585000D01*
X48060000Y23035000D01*
X48560000Y23035000D01*
X48560000Y23425000D01*
X48060000Y23425000D01*
X48060000Y23535000D01*
X48560000Y23535000D01*
X48560000Y23925000D01*
X48060000Y23925000D01*
X48060000Y24375000D01*
X45520000Y24375000D01*
G36*
X45600000Y22450000D02*
G01*
X45600000Y21710000D01*
X45980000Y21710000D01*
X45980000Y22450000D01*
X45600000Y22450000D01*
G37*
X45600000Y22450000D02*
X45600000Y21710000D01*
X45980000Y21710000D01*
X45980000Y22450000D01*
X45600000Y22450000D01*
G36*
X46100000Y22450000D02*
G01*
X46100000Y21710000D01*
X46480000Y21710000D01*
X46480000Y22450000D01*
X46100000Y22450000D01*
G37*
X46100000Y22450000D02*
X46100000Y21710000D01*
X46480000Y21710000D01*
X46480000Y22450000D01*
X46100000Y22450000D01*
G36*
X46600000Y22450000D02*
G01*
X46600000Y21710000D01*
X46980000Y21710000D01*
X46980000Y22450000D01*
X46600000Y22450000D01*
G37*
X46600000Y22450000D02*
X46600000Y21710000D01*
X46980000Y21710000D01*
X46980000Y22450000D01*
X46600000Y22450000D01*
G36*
X47100000Y22450000D02*
G01*
X47100000Y21710000D01*
X47480000Y21710000D01*
X47480000Y22450000D01*
X47100000Y22450000D01*
G37*
X47100000Y22450000D02*
X47100000Y21710000D01*
X47480000Y21710000D01*
X47480000Y22450000D01*
X47100000Y22450000D01*
G36*
X47600000Y22450000D02*
G01*
X47600000Y21710000D01*
X47980000Y21710000D01*
X47980000Y22450000D01*
X47600000Y22450000D01*
G37*
X47600000Y22450000D02*
X47600000Y21710000D01*
X47980000Y21710000D01*
X47980000Y22450000D01*
X47600000Y22450000D01*
G36*
X47600000Y25250000D02*
G01*
X47600000Y24510000D01*
X47980000Y24510000D01*
X47980000Y25250000D01*
X47600000Y25250000D01*
G37*
X47600000Y25250000D02*
X47600000Y24510000D01*
X47980000Y24510000D01*
X47980000Y25250000D01*
X47600000Y25250000D01*
G36*
X47100000Y25250000D02*
G01*
X47100000Y24510000D01*
X47480000Y24510000D01*
X47480000Y25250000D01*
X47100000Y25250000D01*
G37*
X47100000Y25250000D02*
X47100000Y24510000D01*
X47480000Y24510000D01*
X47480000Y25250000D01*
X47100000Y25250000D01*
G36*
X46600000Y25250000D02*
G01*
X46600000Y24510000D01*
X46980000Y24510000D01*
X46980000Y25250000D01*
X46600000Y25250000D01*
G37*
X46600000Y25250000D02*
X46600000Y24510000D01*
X46980000Y24510000D01*
X46980000Y25250000D01*
X46600000Y25250000D01*
G36*
X46100000Y25250000D02*
G01*
X46100000Y24510000D01*
X46480000Y24510000D01*
X46480000Y25250000D01*
X46100000Y25250000D01*
G37*
X46100000Y25250000D02*
X46100000Y24510000D01*
X46480000Y24510000D01*
X46480000Y25250000D01*
X46100000Y25250000D01*
G36*
X45600000Y25250000D02*
G01*
X45600000Y24510000D01*
X45980000Y24510000D01*
X45980000Y25250000D01*
X45600000Y25250000D01*
G37*
X45600000Y25250000D02*
X45600000Y24510000D01*
X45980000Y24510000D01*
X45980000Y25250000D01*
X45600000Y25250000D01*
G36*
X9785000Y30050000D02*
G01*
X10235000Y30050000D01*
X10235000Y29550000D01*
X10625000Y29550000D01*
X10625000Y30050000D01*
X10735000Y30050000D01*
X10735000Y29550000D01*
X11125000Y29550000D01*
X11125000Y30050000D01*
X11575000Y30050000D01*
X11575000Y32590000D01*
X11125000Y32590000D01*
X11125000Y33090000D01*
X10735000Y33090000D01*
X10735000Y32590000D01*
X10625000Y32590000D01*
X10625000Y33090000D01*
X10235000Y33090000D01*
X10235000Y32590000D01*
X9785000Y32590000D01*
X9785000Y30050000D01*
G37*
X9785000Y30050000D02*
X10235000Y30050000D01*
X10235000Y29550000D01*
X10625000Y29550000D01*
X10625000Y30050000D01*
X10735000Y30050000D01*
X10735000Y29550000D01*
X11125000Y29550000D01*
X11125000Y30050000D01*
X11575000Y30050000D01*
X11575000Y32590000D01*
X11125000Y32590000D01*
X11125000Y33090000D01*
X10735000Y33090000D01*
X10735000Y32590000D01*
X10625000Y32590000D01*
X10625000Y33090000D01*
X10235000Y33090000D01*
X10235000Y32590000D01*
X9785000Y32590000D01*
X9785000Y30050000D01*
G36*
X11710000Y30130000D02*
G01*
X12450000Y30130000D01*
X12450000Y30510000D01*
X11710000Y30510000D01*
X11710000Y30130000D01*
G37*
X11710000Y30130000D02*
X12450000Y30130000D01*
X12450000Y30510000D01*
X11710000Y30510000D01*
X11710000Y30130000D01*
G36*
X11710000Y30630000D02*
G01*
X12450000Y30630000D01*
X12450000Y31010000D01*
X11710000Y31010000D01*
X11710000Y30630000D01*
G37*
X11710000Y30630000D02*
X12450000Y30630000D01*
X12450000Y31010000D01*
X11710000Y31010000D01*
X11710000Y30630000D01*
G36*
X11710000Y31130000D02*
G01*
X12450000Y31130000D01*
X12450000Y31510000D01*
X11710000Y31510000D01*
X11710000Y31130000D01*
G37*
X11710000Y31130000D02*
X12450000Y31130000D01*
X12450000Y31510000D01*
X11710000Y31510000D01*
X11710000Y31130000D01*
G36*
X11710000Y31630000D02*
G01*
X12450000Y31630000D01*
X12450000Y32010000D01*
X11710000Y32010000D01*
X11710000Y31630000D01*
G37*
X11710000Y31630000D02*
X12450000Y31630000D01*
X12450000Y32010000D01*
X11710000Y32010000D01*
X11710000Y31630000D01*
G36*
X11710000Y32130000D02*
G01*
X12450000Y32130000D01*
X12450000Y32510000D01*
X11710000Y32510000D01*
X11710000Y32130000D01*
G37*
X11710000Y32130000D02*
X12450000Y32130000D01*
X12450000Y32510000D01*
X11710000Y32510000D01*
X11710000Y32130000D01*
G36*
X8910000Y32130000D02*
G01*
X9650000Y32130000D01*
X9650000Y32510000D01*
X8910000Y32510000D01*
X8910000Y32130000D01*
G37*
X8910000Y32130000D02*
X9650000Y32130000D01*
X9650000Y32510000D01*
X8910000Y32510000D01*
X8910000Y32130000D01*
G36*
X8910000Y31630000D02*
G01*
X9650000Y31630000D01*
X9650000Y32010000D01*
X8910000Y32010000D01*
X8910000Y31630000D01*
G37*
X8910000Y31630000D02*
X9650000Y31630000D01*
X9650000Y32010000D01*
X8910000Y32010000D01*
X8910000Y31630000D01*
G36*
X8910000Y31130000D02*
G01*
X9650000Y31130000D01*
X9650000Y31510000D01*
X8910000Y31510000D01*
X8910000Y31130000D01*
G37*
X8910000Y31130000D02*
X9650000Y31130000D01*
X9650000Y31510000D01*
X8910000Y31510000D01*
X8910000Y31130000D01*
G36*
X8910000Y30630000D02*
G01*
X9650000Y30630000D01*
X9650000Y31010000D01*
X8910000Y31010000D01*
X8910000Y30630000D01*
G37*
X8910000Y30630000D02*
X9650000Y30630000D01*
X9650000Y31010000D01*
X8910000Y31010000D01*
X8910000Y30630000D01*
G36*
X8910000Y30130000D02*
G01*
X9650000Y30130000D01*
X9650000Y30510000D01*
X8910000Y30510000D01*
X8910000Y30130000D01*
G37*
X8910000Y30130000D02*
X9650000Y30130000D01*
X9650000Y30510000D01*
X8910000Y30510000D01*
X8910000Y30130000D01*
D11*
X8265000Y13250000D03*
X8265000Y11350000D03*
X10775000Y11350000D03*
X10775000Y12300000D03*
X10775000Y13250000D03*
X49025000Y35800000D03*
X49025000Y37700000D03*
X46515000Y37700000D03*
X46515000Y36750000D03*
X46515000Y35800000D03*
X7857000Y21090000D03*
X7857000Y19190000D03*
X10367000Y19190000D03*
X10367000Y20140000D03*
X10367000Y21090000D03*
D12*
X47718000Y18263000D03*
X45818000Y18263000D03*
X45818000Y15753000D03*
X46768000Y15753000D03*
X47718000Y15753000D03*
D13*
X8365000Y26550000D03*
X8365000Y25600000D03*
X8365000Y24650000D03*
X10675000Y24650000D03*
X10675000Y25600000D03*
X10675000Y26550000D03*
G36*
G01*
X8263000Y7948773D02*
X8263000Y9811227D01*
G75*
G02*
X8516773Y10065000I253773J0D01*
G01*
X9354227Y10065000D01*
G75*
G02*
X9608000Y9811227I0J-253773D01*
G01*
X9608000Y7948773D01*
G75*
G02*
X9354227Y7695000I-253773J0D01*
G01*
X8516773Y7695000D01*
G75*
G02*
X8263000Y7948773I0J253773D01*
G01*
G37*
G36*
G01*
X5188000Y7948773D02*
X5188000Y9811227D01*
G75*
G02*
X5441773Y10065000I253773J0D01*
G01*
X6279227Y10065000D01*
G75*
G02*
X6533000Y9811227I0J-253773D01*
G01*
X6533000Y7948773D01*
G75*
G02*
X6279227Y7695000I-253773J0D01*
G01*
X5441773Y7695000D01*
G75*
G02*
X5188000Y7948773I0J253773D01*
G01*
G37*
G36*
G01*
X20503000Y31528227D02*
X20503000Y29665773D01*
G75*
G02*
X20249227Y29412000I-253773J0D01*
G01*
X19411773Y29412000D01*
G75*
G02*
X19158000Y29665773I0J253773D01*
G01*
X19158000Y31528227D01*
G75*
G02*
X19411773Y31782000I253773J0D01*
G01*
X20249227Y31782000D01*
G75*
G02*
X20503000Y31528227I0J-253773D01*
G01*
G37*
G36*
G01*
X23578000Y31528227D02*
X23578000Y29665773D01*
G75*
G02*
X23324227Y29412000I-253773J0D01*
G01*
X22486773Y29412000D01*
G75*
G02*
X22233000Y29665773I0J253773D01*
G01*
X22233000Y31528227D01*
G75*
G02*
X22486773Y31782000I253773J0D01*
G01*
X23324227Y31782000D01*
G75*
G02*
X23578000Y31528227I0J-253773D01*
G01*
G37*
G36*
G01*
X21283227Y24236500D02*
X19420773Y24236500D01*
G75*
G02*
X19167000Y24490273I0J253773D01*
G01*
X19167000Y25327727D01*
G75*
G02*
X19420773Y25581500I253773J0D01*
G01*
X21283227Y25581500D01*
G75*
G02*
X21537000Y25327727I0J-253773D01*
G01*
X21537000Y24490273D01*
G75*
G02*
X21283227Y24236500I-253773J0D01*
G01*
G37*
G36*
G01*
X21283227Y21161500D02*
X19420773Y21161500D01*
G75*
G02*
X19167000Y21415273I0J253773D01*
G01*
X19167000Y22252727D01*
G75*
G02*
X19420773Y22506500I253773J0D01*
G01*
X21283227Y22506500D01*
G75*
G02*
X21537000Y22252727I0J-253773D01*
G01*
X21537000Y21415273D01*
G75*
G02*
X21283227Y21161500I-253773J0D01*
G01*
G37*
G36*
G01*
X37092000Y36650773D02*
X37092000Y38513227D01*
G75*
G02*
X37345773Y38767000I253773J0D01*
G01*
X38183227Y38767000D01*
G75*
G02*
X38437000Y38513227I0J-253773D01*
G01*
X38437000Y36650773D01*
G75*
G02*
X38183227Y36397000I-253773J0D01*
G01*
X37345773Y36397000D01*
G75*
G02*
X37092000Y36650773I0J253773D01*
G01*
G37*
G36*
G01*
X34017000Y36650773D02*
X34017000Y38513227D01*
G75*
G02*
X34270773Y38767000I253773J0D01*
G01*
X35108227Y38767000D01*
G75*
G02*
X35362000Y38513227I0J-253773D01*
G01*
X35362000Y36650773D01*
G75*
G02*
X35108227Y36397000I-253773J0D01*
G01*
X34270773Y36397000D01*
G75*
G02*
X34017000Y36650773I0J253773D01*
G01*
G37*
G36*
G01*
X53795227Y43019000D02*
X51932773Y43019000D01*
G75*
G02*
X51679000Y43272773I0J253773D01*
G01*
X51679000Y44110227D01*
G75*
G02*
X51932773Y44364000I253773J0D01*
G01*
X53795227Y44364000D01*
G75*
G02*
X54049000Y44110227I0J-253773D01*
G01*
X54049000Y43272773D01*
G75*
G02*
X53795227Y43019000I-253773J0D01*
G01*
G37*
G36*
G01*
X53795227Y39944000D02*
X51932773Y39944000D01*
G75*
G02*
X51679000Y40197773I0J253773D01*
G01*
X51679000Y41035227D01*
G75*
G02*
X51932773Y41289000I253773J0D01*
G01*
X53795227Y41289000D01*
G75*
G02*
X54049000Y41035227I0J-253773D01*
G01*
X54049000Y40197773D01*
G75*
G02*
X53795227Y39944000I-253773J0D01*
G01*
G37*
G36*
G01*
X54049227Y9655000D02*
X52186773Y9655000D01*
G75*
G02*
X51933000Y9908773I0J253773D01*
G01*
X51933000Y10746227D01*
G75*
G02*
X52186773Y11000000I253773J0D01*
G01*
X54049227Y11000000D01*
G75*
G02*
X54303000Y10746227I0J-253773D01*
G01*
X54303000Y9908773D01*
G75*
G02*
X54049227Y9655000I-253773J0D01*
G01*
G37*
G36*
G01*
X54049227Y6580000D02*
X52186773Y6580000D01*
G75*
G02*
X51933000Y6833773I0J253773D01*
G01*
X51933000Y7671227D01*
G75*
G02*
X52186773Y7925000I253773J0D01*
G01*
X54049227Y7925000D01*
G75*
G02*
X54303000Y7671227I0J-253773D01*
G01*
X54303000Y6833773D01*
G75*
G02*
X54049227Y6580000I-253773J0D01*
G01*
G37*
G36*
G01*
X36838000Y25458773D02*
X36838000Y27321227D01*
G75*
G02*
X37091773Y27575000I253773J0D01*
G01*
X37929227Y27575000D01*
G75*
G02*
X38183000Y27321227I0J-253773D01*
G01*
X38183000Y25458773D01*
G75*
G02*
X37929227Y25205000I-253773J0D01*
G01*
X37091773Y25205000D01*
G75*
G02*
X36838000Y25458773I0J253773D01*
G01*
G37*
G36*
G01*
X33763000Y25458773D02*
X33763000Y27321227D01*
G75*
G02*
X34016773Y27575000I253773J0D01*
G01*
X34854227Y27575000D01*
G75*
G02*
X35108000Y27321227I0J-253773D01*
G01*
X35108000Y25458773D01*
G75*
G02*
X34854227Y25205000I-253773J0D01*
G01*
X34016773Y25205000D01*
G75*
G02*
X33763000Y25458773I0J253773D01*
G01*
G37*
G36*
G01*
X24068773Y19025000D02*
X25931227Y19025000D01*
G75*
G02*
X26185000Y18771227I0J-253773D01*
G01*
X26185000Y17933773D01*
G75*
G02*
X25931227Y17680000I-253773J0D01*
G01*
X24068773Y17680000D01*
G75*
G02*
X23815000Y17933773I0J253773D01*
G01*
X23815000Y18771227D01*
G75*
G02*
X24068773Y19025000I253773J0D01*
G01*
G37*
G36*
G01*
X24068773Y22100000D02*
X25931227Y22100000D01*
G75*
G02*
X26185000Y21846227I0J-253773D01*
G01*
X26185000Y21008773D01*
G75*
G02*
X25931227Y20755000I-253773J0D01*
G01*
X24068773Y20755000D01*
G75*
G02*
X23815000Y21008773I0J253773D01*
G01*
X23815000Y21846227D01*
G75*
G02*
X24068773Y22100000I253773J0D01*
G01*
G37*
G36*
G01*
X35822000Y29258773D02*
X35822000Y31121227D01*
G75*
G02*
X36075773Y31375000I253773J0D01*
G01*
X36913227Y31375000D01*
G75*
G02*
X37167000Y31121227I0J-253773D01*
G01*
X37167000Y29258773D01*
G75*
G02*
X36913227Y29005000I-253773J0D01*
G01*
X36075773Y29005000D01*
G75*
G02*
X35822000Y29258773I0J253773D01*
G01*
G37*
G36*
G01*
X32747000Y29258773D02*
X32747000Y31121227D01*
G75*
G02*
X33000773Y31375000I253773J0D01*
G01*
X33838227Y31375000D01*
G75*
G02*
X34092000Y31121227I0J-253773D01*
G01*
X34092000Y29258773D01*
G75*
G02*
X33838227Y29005000I-253773J0D01*
G01*
X33000773Y29005000D01*
G75*
G02*
X32747000Y29258773I0J253773D01*
G01*
G37*
G36*
G01*
X8263000Y41476773D02*
X8263000Y43339227D01*
G75*
G02*
X8516773Y43593000I253773J0D01*
G01*
X9354227Y43593000D01*
G75*
G02*
X9608000Y43339227I0J-253773D01*
G01*
X9608000Y41476773D01*
G75*
G02*
X9354227Y41223000I-253773J0D01*
G01*
X8516773Y41223000D01*
G75*
G02*
X8263000Y41476773I0J253773D01*
G01*
G37*
G36*
G01*
X5188000Y41476773D02*
X5188000Y43339227D01*
G75*
G02*
X5441773Y43593000I253773J0D01*
G01*
X6279227Y43593000D01*
G75*
G02*
X6533000Y43339227I0J-253773D01*
G01*
X6533000Y41476773D01*
G75*
G02*
X6279227Y41223000I-253773J0D01*
G01*
X5441773Y41223000D01*
G75*
G02*
X5188000Y41476773I0J253773D01*
G01*
G37*
D14*
X17210000Y13710000D03*
X12810000Y13710000D03*
X39790000Y36900000D03*
X44190000Y36900000D03*
X16682000Y19920000D03*
X12282000Y19920000D03*
X17480000Y26060000D03*
X13080000Y26060000D03*
D15*
X45820000Y8880000D03*
X45820000Y13280000D03*
G36*
G01*
X46070000Y19812500D02*
X46070000Y20167500D01*
G75*
G02*
X46222500Y20320000I152500J0D01*
G01*
X46527500Y20320000D01*
G75*
G02*
X46680000Y20167500I0J-152500D01*
G01*
X46680000Y19812500D01*
G75*
G02*
X46527500Y19660000I-152500J0D01*
G01*
X46222500Y19660000D01*
G75*
G02*
X46070000Y19812500I0J152500D01*
G01*
G37*
G36*
G01*
X45100000Y19812500D02*
X45100000Y20167500D01*
G75*
G02*
X45252500Y20320000I152500J0D01*
G01*
X45557500Y20320000D01*
G75*
G02*
X45710000Y20167500I0J-152500D01*
G01*
X45710000Y19812500D01*
G75*
G02*
X45557500Y19660000I-152500J0D01*
G01*
X45252500Y19660000D01*
G75*
G02*
X45100000Y19812500I0J152500D01*
G01*
G37*
G36*
G01*
X47990000Y20822500D02*
X47990000Y21177500D01*
G75*
G02*
X48142500Y21330000I152500J0D01*
G01*
X48447500Y21330000D01*
G75*
G02*
X48600000Y21177500I0J-152500D01*
G01*
X48600000Y20822500D01*
G75*
G02*
X48447500Y20670000I-152500J0D01*
G01*
X48142500Y20670000D01*
G75*
G02*
X47990000Y20822500I0J152500D01*
G01*
G37*
G36*
G01*
X47020000Y20822500D02*
X47020000Y21177500D01*
G75*
G02*
X47172500Y21330000I152500J0D01*
G01*
X47477500Y21330000D01*
G75*
G02*
X47630000Y21177500I0J-152500D01*
G01*
X47630000Y20822500D01*
G75*
G02*
X47477500Y20670000I-152500J0D01*
G01*
X47172500Y20670000D01*
G75*
G02*
X47020000Y20822500I0J152500D01*
G01*
G37*
G36*
G01*
X46070000Y20822500D02*
X46070000Y21177500D01*
G75*
G02*
X46222500Y21330000I152500J0D01*
G01*
X46527500Y21330000D01*
G75*
G02*
X46680000Y21177500I0J-152500D01*
G01*
X46680000Y20822500D01*
G75*
G02*
X46527500Y20670000I-152500J0D01*
G01*
X46222500Y20670000D01*
G75*
G02*
X46070000Y20822500I0J152500D01*
G01*
G37*
G36*
G01*
X45100000Y20822500D02*
X45100000Y21177500D01*
G75*
G02*
X45252500Y21330000I152500J0D01*
G01*
X45557500Y21330000D01*
G75*
G02*
X45710000Y21177500I0J-152500D01*
G01*
X45710000Y20822500D01*
G75*
G02*
X45557500Y20670000I-152500J0D01*
G01*
X45252500Y20670000D01*
G75*
G02*
X45100000Y20822500I0J152500D01*
G01*
G37*
G36*
G01*
X47320000Y27127500D02*
X47320000Y26772500D01*
G75*
G02*
X47167500Y26620000I-152500J0D01*
G01*
X46862500Y26620000D01*
G75*
G02*
X46710000Y26772500I0J152500D01*
G01*
X46710000Y27127500D01*
G75*
G02*
X46862500Y27280000I152500J0D01*
G01*
X47167500Y27280000D01*
G75*
G02*
X47320000Y27127500I0J-152500D01*
G01*
G37*
G36*
G01*
X48290000Y27127500D02*
X48290000Y26772500D01*
G75*
G02*
X48137500Y26620000I-152500J0D01*
G01*
X47832500Y26620000D01*
G75*
G02*
X47680000Y26772500I0J152500D01*
G01*
X47680000Y27127500D01*
G75*
G02*
X47832500Y27280000I152500J0D01*
G01*
X48137500Y27280000D01*
G75*
G02*
X48290000Y27127500I0J-152500D01*
G01*
G37*
G36*
G01*
X13337500Y32490000D02*
X12982500Y32490000D01*
G75*
G02*
X12830000Y32642500I0J152500D01*
G01*
X12830000Y32947500D01*
G75*
G02*
X12982500Y33100000I152500J0D01*
G01*
X13337500Y33100000D01*
G75*
G02*
X13490000Y32947500I0J-152500D01*
G01*
X13490000Y32642500D01*
G75*
G02*
X13337500Y32490000I-152500J0D01*
G01*
G37*
G36*
G01*
X13337500Y31520000D02*
X12982500Y31520000D01*
G75*
G02*
X12830000Y31672500I0J152500D01*
G01*
X12830000Y31977500D01*
G75*
G02*
X12982500Y32130000I152500J0D01*
G01*
X13337500Y32130000D01*
G75*
G02*
X13490000Y31977500I0J-152500D01*
G01*
X13490000Y31672500D01*
G75*
G02*
X13337500Y31520000I-152500J0D01*
G01*
G37*
G36*
G01*
X13337500Y30570000D02*
X12982500Y30570000D01*
G75*
G02*
X12830000Y30722500I0J152500D01*
G01*
X12830000Y31027500D01*
G75*
G02*
X12982500Y31180000I152500J0D01*
G01*
X13337500Y31180000D01*
G75*
G02*
X13490000Y31027500I0J-152500D01*
G01*
X13490000Y30722500D01*
G75*
G02*
X13337500Y30570000I-152500J0D01*
G01*
G37*
G36*
G01*
X13337500Y29600000D02*
X12982500Y29600000D01*
G75*
G02*
X12830000Y29752500I0J152500D01*
G01*
X12830000Y30057500D01*
G75*
G02*
X12982500Y30210000I152500J0D01*
G01*
X13337500Y30210000D01*
G75*
G02*
X13490000Y30057500I0J-152500D01*
G01*
X13490000Y29752500D01*
G75*
G02*
X13337500Y29600000I-152500J0D01*
G01*
G37*
G36*
G01*
X46770000Y34292500D02*
X46770000Y34647500D01*
G75*
G02*
X46922500Y34800000I152500J0D01*
G01*
X47227500Y34800000D01*
G75*
G02*
X47380000Y34647500I0J-152500D01*
G01*
X47380000Y34292500D01*
G75*
G02*
X47227500Y34140000I-152500J0D01*
G01*
X46922500Y34140000D01*
G75*
G02*
X46770000Y34292500I0J152500D01*
G01*
G37*
G36*
G01*
X45800000Y34292500D02*
X45800000Y34647500D01*
G75*
G02*
X45952500Y34800000I152500J0D01*
G01*
X46257500Y34800000D01*
G75*
G02*
X46410000Y34647500I0J-152500D01*
G01*
X46410000Y34292500D01*
G75*
G02*
X46257500Y34140000I-152500J0D01*
G01*
X45952500Y34140000D01*
G75*
G02*
X45800000Y34292500I0J152500D01*
G01*
G37*
G36*
G01*
X9990000Y15707500D02*
X9990000Y15352500D01*
G75*
G02*
X9837500Y15200000I-152500J0D01*
G01*
X9532500Y15200000D01*
G75*
G02*
X9380000Y15352500I0J152500D01*
G01*
X9380000Y15707500D01*
G75*
G02*
X9532500Y15860000I152500J0D01*
G01*
X9837500Y15860000D01*
G75*
G02*
X9990000Y15707500I0J-152500D01*
G01*
G37*
G36*
G01*
X10960000Y15707500D02*
X10960000Y15352500D01*
G75*
G02*
X10807500Y15200000I-152500J0D01*
G01*
X10502500Y15200000D01*
G75*
G02*
X10350000Y15352500I0J152500D01*
G01*
X10350000Y15707500D01*
G75*
G02*
X10502500Y15860000I152500J0D01*
G01*
X10807500Y15860000D01*
G75*
G02*
X10960000Y15707500I0J-152500D01*
G01*
G37*
G36*
G01*
X9990000Y14707500D02*
X9990000Y14352500D01*
G75*
G02*
X9837500Y14200000I-152500J0D01*
G01*
X9532500Y14200000D01*
G75*
G02*
X9380000Y14352500I0J152500D01*
G01*
X9380000Y14707500D01*
G75*
G02*
X9532500Y14860000I152500J0D01*
G01*
X9837500Y14860000D01*
G75*
G02*
X9990000Y14707500I0J-152500D01*
G01*
G37*
G36*
G01*
X10960000Y14707500D02*
X10960000Y14352500D01*
G75*
G02*
X10807500Y14200000I-152500J0D01*
G01*
X10502500Y14200000D01*
G75*
G02*
X10350000Y14352500I0J152500D01*
G01*
X10350000Y14707500D01*
G75*
G02*
X10502500Y14860000I152500J0D01*
G01*
X10807500Y14860000D01*
G75*
G02*
X10960000Y14707500I0J-152500D01*
G01*
G37*
G36*
G01*
X48720000Y34292500D02*
X48720000Y34647500D01*
G75*
G02*
X48872500Y34800000I152500J0D01*
G01*
X49177500Y34800000D01*
G75*
G02*
X49330000Y34647500I0J-152500D01*
G01*
X49330000Y34292500D01*
G75*
G02*
X49177500Y34140000I-152500J0D01*
G01*
X48872500Y34140000D01*
G75*
G02*
X48720000Y34292500I0J152500D01*
G01*
G37*
G36*
G01*
X47750000Y34292500D02*
X47750000Y34647500D01*
G75*
G02*
X47902500Y34800000I152500J0D01*
G01*
X48207500Y34800000D01*
G75*
G02*
X48360000Y34647500I0J-152500D01*
G01*
X48360000Y34292500D01*
G75*
G02*
X48207500Y34140000I-152500J0D01*
G01*
X47902500Y34140000D01*
G75*
G02*
X47750000Y34292500I0J152500D01*
G01*
G37*
G36*
G01*
X7940000Y15207500D02*
X7940000Y14852500D01*
G75*
G02*
X7787500Y14700000I-152500J0D01*
G01*
X7482500Y14700000D01*
G75*
G02*
X7330000Y14852500I0J152500D01*
G01*
X7330000Y15207500D01*
G75*
G02*
X7482500Y15360000I152500J0D01*
G01*
X7787500Y15360000D01*
G75*
G02*
X7940000Y15207500I0J-152500D01*
G01*
G37*
G36*
G01*
X8910000Y15207500D02*
X8910000Y14852500D01*
G75*
G02*
X8757500Y14700000I-152500J0D01*
G01*
X8452500Y14700000D01*
G75*
G02*
X8300000Y14852500I0J152500D01*
G01*
X8300000Y15207500D01*
G75*
G02*
X8452500Y15360000I152500J0D01*
G01*
X8757500Y15360000D01*
G75*
G02*
X8910000Y15207500I0J-152500D01*
G01*
G37*
G36*
G01*
X50657500Y36470000D02*
X50302500Y36470000D01*
G75*
G02*
X50150000Y36622500I0J152500D01*
G01*
X50150000Y36927500D01*
G75*
G02*
X50302500Y37080000I152500J0D01*
G01*
X50657500Y37080000D01*
G75*
G02*
X50810000Y36927500I0J-152500D01*
G01*
X50810000Y36622500D01*
G75*
G02*
X50657500Y36470000I-152500J0D01*
G01*
G37*
G36*
G01*
X50657500Y35500000D02*
X50302500Y35500000D01*
G75*
G02*
X50150000Y35652500I0J152500D01*
G01*
X50150000Y35957500D01*
G75*
G02*
X50302500Y36110000I152500J0D01*
G01*
X50657500Y36110000D01*
G75*
G02*
X50810000Y35957500I0J-152500D01*
G01*
X50810000Y35652500D01*
G75*
G02*
X50657500Y35500000I-152500J0D01*
G01*
G37*
G36*
G01*
X8542000Y23537500D02*
X8542000Y23182500D01*
G75*
G02*
X8389500Y23030000I-152500J0D01*
G01*
X8084500Y23030000D01*
G75*
G02*
X7932000Y23182500I0J152500D01*
G01*
X7932000Y23537500D01*
G75*
G02*
X8084500Y23690000I152500J0D01*
G01*
X8389500Y23690000D01*
G75*
G02*
X8542000Y23537500I0J-152500D01*
G01*
G37*
G36*
G01*
X9512000Y23537500D02*
X9512000Y23182500D01*
G75*
G02*
X9359500Y23030000I-152500J0D01*
G01*
X9054500Y23030000D01*
G75*
G02*
X8902000Y23182500I0J152500D01*
G01*
X8902000Y23537500D01*
G75*
G02*
X9054500Y23690000I152500J0D01*
G01*
X9359500Y23690000D01*
G75*
G02*
X9512000Y23537500I0J-152500D01*
G01*
G37*
G36*
G01*
X8902000Y22192500D02*
X8902000Y22547500D01*
G75*
G02*
X9054500Y22700000I152500J0D01*
G01*
X9359500Y22700000D01*
G75*
G02*
X9512000Y22547500I0J-152500D01*
G01*
X9512000Y22192500D01*
G75*
G02*
X9359500Y22040000I-152500J0D01*
G01*
X9054500Y22040000D01*
G75*
G02*
X8902000Y22192500I0J152500D01*
G01*
G37*
G36*
G01*
X7932000Y22192500D02*
X7932000Y22547500D01*
G75*
G02*
X8084500Y22700000I152500J0D01*
G01*
X8389500Y22700000D01*
G75*
G02*
X8542000Y22547500I0J-152500D01*
G01*
X8542000Y22192500D01*
G75*
G02*
X8389500Y22040000I-152500J0D01*
G01*
X8084500Y22040000D01*
G75*
G02*
X7932000Y22192500I0J152500D01*
G01*
G37*
G36*
G01*
X9370000Y28007500D02*
X9370000Y27652500D01*
G75*
G02*
X9217500Y27500000I-152500J0D01*
G01*
X8912500Y27500000D01*
G75*
G02*
X8760000Y27652500I0J152500D01*
G01*
X8760000Y28007500D01*
G75*
G02*
X8912500Y28160000I152500J0D01*
G01*
X9217500Y28160000D01*
G75*
G02*
X9370000Y28007500I0J-152500D01*
G01*
G37*
G36*
G01*
X10340000Y28007500D02*
X10340000Y27652500D01*
G75*
G02*
X10187500Y27500000I-152500J0D01*
G01*
X9882500Y27500000D01*
G75*
G02*
X9730000Y27652500I0J152500D01*
G01*
X9730000Y28007500D01*
G75*
G02*
X9882500Y28160000I152500J0D01*
G01*
X10187500Y28160000D01*
G75*
G02*
X10340000Y28007500I0J-152500D01*
G01*
G37*
G36*
G01*
X9360000Y29017500D02*
X9360000Y28662500D01*
G75*
G02*
X9207500Y28510000I-152500J0D01*
G01*
X8902500Y28510000D01*
G75*
G02*
X8750000Y28662500I0J152500D01*
G01*
X8750000Y29017500D01*
G75*
G02*
X8902500Y29170000I152500J0D01*
G01*
X9207500Y29170000D01*
G75*
G02*
X9360000Y29017500I0J-152500D01*
G01*
G37*
G36*
G01*
X10330000Y29017500D02*
X10330000Y28662500D01*
G75*
G02*
X10177500Y28510000I-152500J0D01*
G01*
X9872500Y28510000D01*
G75*
G02*
X9720000Y28662500I0J152500D01*
G01*
X9720000Y29017500D01*
G75*
G02*
X9872500Y29170000I152500J0D01*
G01*
X10177500Y29170000D01*
G75*
G02*
X10330000Y29017500I0J-152500D01*
G01*
G37*
G36*
G01*
X49267500Y15460000D02*
X48912500Y15460000D01*
G75*
G02*
X48760000Y15612500I0J152500D01*
G01*
X48760000Y15917500D01*
G75*
G02*
X48912500Y16070000I152500J0D01*
G01*
X49267500Y16070000D01*
G75*
G02*
X49420000Y15917500I0J-152500D01*
G01*
X49420000Y15612500D01*
G75*
G02*
X49267500Y15460000I-152500J0D01*
G01*
G37*
G36*
G01*
X49267500Y14490000D02*
X48912500Y14490000D01*
G75*
G02*
X48760000Y14642500I0J152500D01*
G01*
X48760000Y14947500D01*
G75*
G02*
X48912500Y15100000I152500J0D01*
G01*
X49267500Y15100000D01*
G75*
G02*
X49420000Y14947500I0J-152500D01*
G01*
X49420000Y14642500D01*
G75*
G02*
X49267500Y14490000I-152500J0D01*
G01*
G37*
G36*
G01*
X6210000Y26707500D02*
X6210000Y26352500D01*
G75*
G02*
X6057500Y26200000I-152500J0D01*
G01*
X5752500Y26200000D01*
G75*
G02*
X5600000Y26352500I0J152500D01*
G01*
X5600000Y26707500D01*
G75*
G02*
X5752500Y26860000I152500J0D01*
G01*
X6057500Y26860000D01*
G75*
G02*
X6210000Y26707500I0J-152500D01*
G01*
G37*
G36*
G01*
X7180000Y26707500D02*
X7180000Y26352500D01*
G75*
G02*
X7027500Y26200000I-152500J0D01*
G01*
X6722500Y26200000D01*
G75*
G02*
X6570000Y26352500I0J152500D01*
G01*
X6570000Y26707500D01*
G75*
G02*
X6722500Y26860000I152500J0D01*
G01*
X7027500Y26860000D01*
G75*
G02*
X7180000Y26707500I0J-152500D01*
G01*
G37*
G36*
G01*
X49267500Y17410000D02*
X48912500Y17410000D01*
G75*
G02*
X48760000Y17562500I0J152500D01*
G01*
X48760000Y17867500D01*
G75*
G02*
X48912500Y18020000I152500J0D01*
G01*
X49267500Y18020000D01*
G75*
G02*
X49420000Y17867500I0J-152500D01*
G01*
X49420000Y17562500D01*
G75*
G02*
X49267500Y17410000I-152500J0D01*
G01*
G37*
G36*
G01*
X49267500Y16440000D02*
X48912500Y16440000D01*
G75*
G02*
X48760000Y16592500I0J152500D01*
G01*
X48760000Y16897500D01*
G75*
G02*
X48912500Y17050000I152500J0D01*
G01*
X49267500Y17050000D01*
G75*
G02*
X49420000Y16897500I0J-152500D01*
G01*
X49420000Y16592500D01*
G75*
G02*
X49267500Y16440000I-152500J0D01*
G01*
G37*
G36*
G01*
X49267500Y19350000D02*
X48912500Y19350000D01*
G75*
G02*
X48760000Y19502500I0J152500D01*
G01*
X48760000Y19807500D01*
G75*
G02*
X48912500Y19960000I152500J0D01*
G01*
X49267500Y19960000D01*
G75*
G02*
X49420000Y19807500I0J-152500D01*
G01*
X49420000Y19502500D01*
G75*
G02*
X49267500Y19350000I-152500J0D01*
G01*
G37*
G36*
G01*
X49267500Y18380000D02*
X48912500Y18380000D01*
G75*
G02*
X48760000Y18532500I0J152500D01*
G01*
X48760000Y18837500D01*
G75*
G02*
X48912500Y18990000I152500J0D01*
G01*
X49267500Y18990000D01*
G75*
G02*
X49420000Y18837500I0J-152500D01*
G01*
X49420000Y18532500D01*
G75*
G02*
X49267500Y18380000I-152500J0D01*
G01*
G37*
G36*
G01*
X6210000Y28057500D02*
X6210000Y27702500D01*
G75*
G02*
X6057500Y27550000I-152500J0D01*
G01*
X5752500Y27550000D01*
G75*
G02*
X5600000Y27702500I0J152500D01*
G01*
X5600000Y28057500D01*
G75*
G02*
X5752500Y28210000I152500J0D01*
G01*
X6057500Y28210000D01*
G75*
G02*
X6210000Y28057500I0J-152500D01*
G01*
G37*
G36*
G01*
X7180000Y28057500D02*
X7180000Y27702500D01*
G75*
G02*
X7027500Y27550000I-152500J0D01*
G01*
X6722500Y27550000D01*
G75*
G02*
X6570000Y27702500I0J152500D01*
G01*
X6570000Y28057500D01*
G75*
G02*
X6722500Y28210000I152500J0D01*
G01*
X7027500Y28210000D01*
G75*
G02*
X7180000Y28057500I0J-152500D01*
G01*
G37*
G36*
G01*
X44467500Y21760000D02*
X44112500Y21760000D01*
G75*
G02*
X43960000Y21912500I0J152500D01*
G01*
X43960000Y22217500D01*
G75*
G02*
X44112500Y22370000I152500J0D01*
G01*
X44467500Y22370000D01*
G75*
G02*
X44620000Y22217500I0J-152500D01*
G01*
X44620000Y21912500D01*
G75*
G02*
X44467500Y21760000I-152500J0D01*
G01*
G37*
G36*
G01*
X44467500Y20790000D02*
X44112500Y20790000D01*
G75*
G02*
X43960000Y20942500I0J152500D01*
G01*
X43960000Y21247500D01*
G75*
G02*
X44112500Y21400000I152500J0D01*
G01*
X44467500Y21400000D01*
G75*
G02*
X44620000Y21247500I0J-152500D01*
G01*
X44620000Y20942500D01*
G75*
G02*
X44467500Y20790000I-152500J0D01*
G01*
G37*
G36*
G01*
X13982500Y30210000D02*
X14337500Y30210000D01*
G75*
G02*
X14490000Y30057500I0J-152500D01*
G01*
X14490000Y29752500D01*
G75*
G02*
X14337500Y29600000I-152500J0D01*
G01*
X13982500Y29600000D01*
G75*
G02*
X13830000Y29752500I0J152500D01*
G01*
X13830000Y30057500D01*
G75*
G02*
X13982500Y30210000I152500J0D01*
G01*
G37*
G36*
G01*
X13982500Y31180000D02*
X14337500Y31180000D01*
G75*
G02*
X14490000Y31027500I0J-152500D01*
G01*
X14490000Y30722500D01*
G75*
G02*
X14337500Y30570000I-152500J0D01*
G01*
X13982500Y30570000D01*
G75*
G02*
X13830000Y30722500I0J152500D01*
G01*
X13830000Y31027500D01*
G75*
G02*
X13982500Y31180000I152500J0D01*
G01*
G37*
G36*
G01*
X45710000Y25802500D02*
X45710000Y26157500D01*
G75*
G02*
X45862500Y26310000I152500J0D01*
G01*
X46167500Y26310000D01*
G75*
G02*
X46320000Y26157500I0J-152500D01*
G01*
X46320000Y25802500D01*
G75*
G02*
X46167500Y25650000I-152500J0D01*
G01*
X45862500Y25650000D01*
G75*
G02*
X45710000Y25802500I0J152500D01*
G01*
G37*
G36*
G01*
X44740000Y25802500D02*
X44740000Y26157500D01*
G75*
G02*
X44892500Y26310000I152500J0D01*
G01*
X45197500Y26310000D01*
G75*
G02*
X45350000Y26157500I0J-152500D01*
G01*
X45350000Y25802500D01*
G75*
G02*
X45197500Y25650000I-152500J0D01*
G01*
X44892500Y25650000D01*
G75*
G02*
X44740000Y25802500I0J152500D01*
G01*
G37*
G36*
G01*
X8032500Y30620000D02*
X8387500Y30620000D01*
G75*
G02*
X8540000Y30467500I0J-152500D01*
G01*
X8540000Y30162500D01*
G75*
G02*
X8387500Y30010000I-152500J0D01*
G01*
X8032500Y30010000D01*
G75*
G02*
X7880000Y30162500I0J152500D01*
G01*
X7880000Y30467500D01*
G75*
G02*
X8032500Y30620000I152500J0D01*
G01*
G37*
G36*
G01*
X8032500Y31590000D02*
X8387500Y31590000D01*
G75*
G02*
X8540000Y31437500I0J-152500D01*
G01*
X8540000Y31132500D01*
G75*
G02*
X8387500Y30980000I-152500J0D01*
G01*
X8032500Y30980000D01*
G75*
G02*
X7880000Y31132500I0J152500D01*
G01*
X7880000Y31437500D01*
G75*
G02*
X8032500Y31590000I152500J0D01*
G01*
G37*
G36*
G01*
X12935000Y8759000D02*
X12935000Y10021000D01*
G75*
G02*
X13189000Y10275000I254000J0D01*
G01*
X13951000Y10275000D01*
G75*
G02*
X14205000Y10021000I0J-254000D01*
G01*
X14205000Y8759000D01*
G75*
G02*
X13951000Y8505000I-254000J0D01*
G01*
X13189000Y8505000D01*
G75*
G02*
X12935000Y8759000I0J254000D01*
G01*
G37*
G36*
G01*
X10135000Y8759000D02*
X10135000Y10021000D01*
G75*
G02*
X10389000Y10275000I254000J0D01*
G01*
X11151000Y10275000D01*
G75*
G02*
X11405000Y10021000I0J-254000D01*
G01*
X11405000Y8759000D01*
G75*
G02*
X11151000Y8505000I-254000J0D01*
G01*
X10389000Y8505000D01*
G75*
G02*
X10135000Y8759000I0J254000D01*
G01*
G37*
G36*
G01*
X43415000Y33271000D02*
X43415000Y32009000D01*
G75*
G02*
X43161000Y31755000I-254000J0D01*
G01*
X42399000Y31755000D01*
G75*
G02*
X42145000Y32009000I0J254000D01*
G01*
X42145000Y33271000D01*
G75*
G02*
X42399000Y33525000I254000J0D01*
G01*
X43161000Y33525000D01*
G75*
G02*
X43415000Y33271000I0J-254000D01*
G01*
G37*
G36*
G01*
X46215000Y33271000D02*
X46215000Y32009000D01*
G75*
G02*
X45961000Y31755000I-254000J0D01*
G01*
X45199000Y31755000D01*
G75*
G02*
X44945000Y32009000I0J254000D01*
G01*
X44945000Y33271000D01*
G75*
G02*
X45199000Y33525000I254000J0D01*
G01*
X45961000Y33525000D01*
G75*
G02*
X46215000Y33271000I0J-254000D01*
G01*
G37*
G36*
G01*
X9657000Y16639000D02*
X9657000Y17901000D01*
G75*
G02*
X9911000Y18155000I254000J0D01*
G01*
X10673000Y18155000D01*
G75*
G02*
X10927000Y17901000I0J-254000D01*
G01*
X10927000Y16639000D01*
G75*
G02*
X10673000Y16385000I-254000J0D01*
G01*
X9911000Y16385000D01*
G75*
G02*
X9657000Y16639000I0J254000D01*
G01*
G37*
G36*
G01*
X6857000Y16639000D02*
X6857000Y17901000D01*
G75*
G02*
X7111000Y18155000I254000J0D01*
G01*
X7873000Y18155000D01*
G75*
G02*
X8127000Y17901000I0J-254000D01*
G01*
X8127000Y16639000D01*
G75*
G02*
X7873000Y16385000I-254000J0D01*
G01*
X7111000Y16385000D01*
G75*
G02*
X6857000Y16639000I0J254000D01*
G01*
G37*
G36*
G01*
X6585500Y11748000D02*
X6940500Y11748000D01*
G75*
G02*
X7093000Y11595500I0J-152500D01*
G01*
X7093000Y11290500D01*
G75*
G02*
X6940500Y11138000I-152500J0D01*
G01*
X6585500Y11138000D01*
G75*
G02*
X6433000Y11290500I0J152500D01*
G01*
X6433000Y11595500D01*
G75*
G02*
X6585500Y11748000I152500J0D01*
G01*
G37*
G36*
G01*
X6585500Y12718000D02*
X6940500Y12718000D01*
G75*
G02*
X7093000Y12565500I0J-152500D01*
G01*
X7093000Y12260500D01*
G75*
G02*
X6940500Y12108000I-152500J0D01*
G01*
X6585500Y12108000D01*
G75*
G02*
X6433000Y12260500I0J152500D01*
G01*
X6433000Y12565500D01*
G75*
G02*
X6585500Y12718000I152500J0D01*
G01*
G37*
G36*
G01*
X48730000Y38832500D02*
X48730000Y39187500D01*
G75*
G02*
X48882500Y39340000I152500J0D01*
G01*
X49187500Y39340000D01*
G75*
G02*
X49340000Y39187500I0J-152500D01*
G01*
X49340000Y38832500D01*
G75*
G02*
X49187500Y38680000I-152500J0D01*
G01*
X48882500Y38680000D01*
G75*
G02*
X48730000Y38832500I0J152500D01*
G01*
G37*
G36*
G01*
X47760000Y38832500D02*
X47760000Y39187500D01*
G75*
G02*
X47912500Y39340000I152500J0D01*
G01*
X48217500Y39340000D01*
G75*
G02*
X48370000Y39187500I0J-152500D01*
G01*
X48370000Y38832500D01*
G75*
G02*
X48217500Y38680000I-152500J0D01*
G01*
X47912500Y38680000D01*
G75*
G02*
X47760000Y38832500I0J152500D01*
G01*
G37*
G36*
G01*
X15319000Y30775000D02*
X16581000Y30775000D01*
G75*
G02*
X16835000Y30521000I0J-254000D01*
G01*
X16835000Y29759000D01*
G75*
G02*
X16581000Y29505000I-254000J0D01*
G01*
X15319000Y29505000D01*
G75*
G02*
X15065000Y29759000I0J254000D01*
G01*
X15065000Y30521000D01*
G75*
G02*
X15319000Y30775000I254000J0D01*
G01*
G37*
G36*
G01*
X15319000Y33575000D02*
X16581000Y33575000D01*
G75*
G02*
X16835000Y33321000I0J-254000D01*
G01*
X16835000Y32559000D01*
G75*
G02*
X16581000Y32305000I-254000J0D01*
G01*
X15319000Y32305000D01*
G75*
G02*
X15065000Y32559000I0J254000D01*
G01*
X15065000Y33321000D01*
G75*
G02*
X15319000Y33575000I254000J0D01*
G01*
G37*
G36*
G01*
X6274500Y19480000D02*
X6629500Y19480000D01*
G75*
G02*
X6782000Y19327500I0J-152500D01*
G01*
X6782000Y19022500D01*
G75*
G02*
X6629500Y18870000I-152500J0D01*
G01*
X6274500Y18870000D01*
G75*
G02*
X6122000Y19022500I0J152500D01*
G01*
X6122000Y19327500D01*
G75*
G02*
X6274500Y19480000I152500J0D01*
G01*
G37*
G36*
G01*
X6274500Y20450000D02*
X6629500Y20450000D01*
G75*
G02*
X6782000Y20297500I0J-152500D01*
G01*
X6782000Y19992500D01*
G75*
G02*
X6629500Y19840000I-152500J0D01*
G01*
X6274500Y19840000D01*
G75*
G02*
X6122000Y19992500I0J152500D01*
G01*
X6122000Y20297500D01*
G75*
G02*
X6274500Y20450000I152500J0D01*
G01*
G37*
G36*
G01*
X49629000Y10135000D02*
X50891000Y10135000D01*
G75*
G02*
X51145000Y9881000I0J-254000D01*
G01*
X51145000Y9119000D01*
G75*
G02*
X50891000Y8865000I-254000J0D01*
G01*
X49629000Y8865000D01*
G75*
G02*
X49375000Y9119000I0J254000D01*
G01*
X49375000Y9881000D01*
G75*
G02*
X49629000Y10135000I254000J0D01*
G01*
G37*
G36*
G01*
X49629000Y12935000D02*
X50891000Y12935000D01*
G75*
G02*
X51145000Y12681000I0J-254000D01*
G01*
X51145000Y11919000D01*
G75*
G02*
X50891000Y11665000I-254000J0D01*
G01*
X49629000Y11665000D01*
G75*
G02*
X49375000Y11919000I0J254000D01*
G01*
X49375000Y12681000D01*
G75*
G02*
X49629000Y12935000I254000J0D01*
G01*
G37*
G36*
G01*
X6867500Y24340000D02*
X6512500Y24340000D01*
G75*
G02*
X6360000Y24492500I0J152500D01*
G01*
X6360000Y24797500D01*
G75*
G02*
X6512500Y24950000I152500J0D01*
G01*
X6867500Y24950000D01*
G75*
G02*
X7020000Y24797500I0J-152500D01*
G01*
X7020000Y24492500D01*
G75*
G02*
X6867500Y24340000I-152500J0D01*
G01*
G37*
G36*
G01*
X6867500Y23370000D02*
X6512500Y23370000D01*
G75*
G02*
X6360000Y23522500I0J152500D01*
G01*
X6360000Y23827500D01*
G75*
G02*
X6512500Y23980000I152500J0D01*
G01*
X6867500Y23980000D01*
G75*
G02*
X7020000Y23827500I0J-152500D01*
G01*
X7020000Y23522500D01*
G75*
G02*
X6867500Y23370000I-152500J0D01*
G01*
G37*
G36*
G01*
X44647500Y17500000D02*
X44292500Y17500000D01*
G75*
G02*
X44140000Y17652500I0J152500D01*
G01*
X44140000Y17957500D01*
G75*
G02*
X44292500Y18110000I152500J0D01*
G01*
X44647500Y18110000D01*
G75*
G02*
X44800000Y17957500I0J-152500D01*
G01*
X44800000Y17652500D01*
G75*
G02*
X44647500Y17500000I-152500J0D01*
G01*
G37*
G36*
G01*
X44647500Y16530000D02*
X44292500Y16530000D01*
G75*
G02*
X44140000Y16682500I0J152500D01*
G01*
X44140000Y16987500D01*
G75*
G02*
X44292500Y17140000I152500J0D01*
G01*
X44647500Y17140000D01*
G75*
G02*
X44800000Y16987500I0J-152500D01*
G01*
X44800000Y16682500D01*
G75*
G02*
X44647500Y16530000I-152500J0D01*
G01*
G37*
D16*
X47900000Y1200000D03*
X19130000Y49160000D03*
X11900000Y1200000D03*
G36*
G01*
X47722500Y43710000D02*
X48077500Y43710000D01*
G75*
G02*
X48230000Y43557500I0J-152500D01*
G01*
X48230000Y43252500D01*
G75*
G02*
X48077500Y43100000I-152500J0D01*
G01*
X47722500Y43100000D01*
G75*
G02*
X47570000Y43252500I0J152500D01*
G01*
X47570000Y43557500D01*
G75*
G02*
X47722500Y43710000I152500J0D01*
G01*
G37*
G36*
G01*
X47722500Y44680000D02*
X48077500Y44680000D01*
G75*
G02*
X48230000Y44527500I0J-152500D01*
G01*
X48230000Y44222500D01*
G75*
G02*
X48077500Y44070000I-152500J0D01*
G01*
X47722500Y44070000D01*
G75*
G02*
X47570000Y44222500I0J152500D01*
G01*
X47570000Y44527500D01*
G75*
G02*
X47722500Y44680000I152500J0D01*
G01*
G37*
G36*
G01*
X14522500Y43810000D02*
X14877500Y43810000D01*
G75*
G02*
X15030000Y43657500I0J-152500D01*
G01*
X15030000Y43352500D01*
G75*
G02*
X14877500Y43200000I-152500J0D01*
G01*
X14522500Y43200000D01*
G75*
G02*
X14370000Y43352500I0J152500D01*
G01*
X14370000Y43657500D01*
G75*
G02*
X14522500Y43810000I152500J0D01*
G01*
G37*
G36*
G01*
X14522500Y44780000D02*
X14877500Y44780000D01*
G75*
G02*
X15030000Y44627500I0J-152500D01*
G01*
X15030000Y44322500D01*
G75*
G02*
X14877500Y44170000I-152500J0D01*
G01*
X14522500Y44170000D01*
G75*
G02*
X14370000Y44322500I0J152500D01*
G01*
X14370000Y44627500D01*
G75*
G02*
X14522500Y44780000I152500J0D01*
G01*
G37*
D17*
X51850000Y29340000D03*
X40420000Y29800000D03*
X51650000Y24290000D03*
X52990000Y26740000D03*
X6390000Y30900000D03*
D18*
X31920000Y48000000D03*
X45060000Y48000000D03*
D19*
X42490000Y44500000D03*
X40490000Y44500000D03*
X38490000Y44500000D03*
X36490000Y44500000D03*
X34490000Y44500000D03*
X34990000Y46000000D03*
X37490000Y46000000D03*
X39490000Y46000000D03*
X41990000Y46000000D03*
D17*
X11500000Y43890000D03*
X12500000Y48890000D03*
G36*
G01*
X37500000Y15412500D02*
X37500000Y15767500D01*
G75*
G02*
X37652500Y15920000I152500J0D01*
G01*
X37957500Y15920000D01*
G75*
G02*
X38110000Y15767500I0J-152500D01*
G01*
X38110000Y15412500D01*
G75*
G02*
X37957500Y15260000I-152500J0D01*
G01*
X37652500Y15260000D01*
G75*
G02*
X37500000Y15412500I0J152500D01*
G01*
G37*
G36*
G01*
X36530000Y15412500D02*
X36530000Y15767500D01*
G75*
G02*
X36682500Y15920000I152500J0D01*
G01*
X36987500Y15920000D01*
G75*
G02*
X37140000Y15767500I0J-152500D01*
G01*
X37140000Y15412500D01*
G75*
G02*
X36987500Y15260000I-152500J0D01*
G01*
X36682500Y15260000D01*
G75*
G02*
X36530000Y15412500I0J152500D01*
G01*
G37*
D20*
X50490000Y3890000D03*
X50490000Y46890000D03*
X9490000Y3890000D03*
X9490000Y46890000D03*
G36*
G01*
X48980000Y7212500D02*
X48980000Y7567500D01*
G75*
G02*
X49132500Y7720000I152500J0D01*
G01*
X49437500Y7720000D01*
G75*
G02*
X49590000Y7567500I0J-152500D01*
G01*
X49590000Y7212500D01*
G75*
G02*
X49437500Y7060000I-152500J0D01*
G01*
X49132500Y7060000D01*
G75*
G02*
X48980000Y7212500I0J152500D01*
G01*
G37*
G36*
G01*
X48010000Y7212500D02*
X48010000Y7567500D01*
G75*
G02*
X48162500Y7720000I152500J0D01*
G01*
X48467500Y7720000D01*
G75*
G02*
X48620000Y7567500I0J-152500D01*
G01*
X48620000Y7212500D01*
G75*
G02*
X48467500Y7060000I-152500J0D01*
G01*
X48162500Y7060000D01*
G75*
G02*
X48010000Y7212500I0J152500D01*
G01*
G37*
G36*
G01*
X36377500Y20170000D02*
X36022500Y20170000D01*
G75*
G02*
X35870000Y20322500I0J152500D01*
G01*
X35870000Y20627500D01*
G75*
G02*
X36022500Y20780000I152500J0D01*
G01*
X36377500Y20780000D01*
G75*
G02*
X36530000Y20627500I0J-152500D01*
G01*
X36530000Y20322500D01*
G75*
G02*
X36377500Y20170000I-152500J0D01*
G01*
G37*
G36*
G01*
X36377500Y19200000D02*
X36022500Y19200000D01*
G75*
G02*
X35870000Y19352500I0J152500D01*
G01*
X35870000Y19657500D01*
G75*
G02*
X36022500Y19810000I152500J0D01*
G01*
X36377500Y19810000D01*
G75*
G02*
X36530000Y19657500I0J-152500D01*
G01*
X36530000Y19352500D01*
G75*
G02*
X36377500Y19200000I-152500J0D01*
G01*
G37*
G36*
G01*
X28310000Y15007500D02*
X28310000Y14652500D01*
G75*
G02*
X28157500Y14500000I-152500J0D01*
G01*
X27852500Y14500000D01*
G75*
G02*
X27700000Y14652500I0J152500D01*
G01*
X27700000Y15007500D01*
G75*
G02*
X27852500Y15160000I152500J0D01*
G01*
X28157500Y15160000D01*
G75*
G02*
X28310000Y15007500I0J-152500D01*
G01*
G37*
G36*
G01*
X29280000Y15007500D02*
X29280000Y14652500D01*
G75*
G02*
X29127500Y14500000I-152500J0D01*
G01*
X28822500Y14500000D01*
G75*
G02*
X28670000Y14652500I0J152500D01*
G01*
X28670000Y15007500D01*
G75*
G02*
X28822500Y15160000I152500J0D01*
G01*
X29127500Y15160000D01*
G75*
G02*
X29280000Y15007500I0J-152500D01*
G01*
G37*
G36*
G01*
X28770000Y13997500D02*
X28770000Y13642500D01*
G75*
G02*
X28617500Y13490000I-152500J0D01*
G01*
X28312500Y13490000D01*
G75*
G02*
X28160000Y13642500I0J152500D01*
G01*
X28160000Y13997500D01*
G75*
G02*
X28312500Y14150000I152500J0D01*
G01*
X28617500Y14150000D01*
G75*
G02*
X28770000Y13997500I0J-152500D01*
G01*
G37*
G36*
G01*
X29740000Y13997500D02*
X29740000Y13642500D01*
G75*
G02*
X29587500Y13490000I-152500J0D01*
G01*
X29282500Y13490000D01*
G75*
G02*
X29130000Y13642500I0J152500D01*
G01*
X29130000Y13997500D01*
G75*
G02*
X29282500Y14150000I152500J0D01*
G01*
X29587500Y14150000D01*
G75*
G02*
X29740000Y13997500I0J-152500D01*
G01*
G37*
G36*
G01*
X31000000Y13927500D02*
X31000000Y13572500D01*
G75*
G02*
X30847500Y13420000I-152500J0D01*
G01*
X30542500Y13420000D01*
G75*
G02*
X30390000Y13572500I0J152500D01*
G01*
X30390000Y13927500D01*
G75*
G02*
X30542500Y14080000I152500J0D01*
G01*
X30847500Y14080000D01*
G75*
G02*
X31000000Y13927500I0J-152500D01*
G01*
G37*
G36*
G01*
X31970000Y13927500D02*
X31970000Y13572500D01*
G75*
G02*
X31817500Y13420000I-152500J0D01*
G01*
X31512500Y13420000D01*
G75*
G02*
X31360000Y13572500I0J152500D01*
G01*
X31360000Y13927500D01*
G75*
G02*
X31512500Y14080000I152500J0D01*
G01*
X31817500Y14080000D01*
G75*
G02*
X31970000Y13927500I0J-152500D01*
G01*
G37*
G36*
G01*
X38180000Y23312500D02*
X38180000Y23667500D01*
G75*
G02*
X38332500Y23820000I152500J0D01*
G01*
X38637500Y23820000D01*
G75*
G02*
X38790000Y23667500I0J-152500D01*
G01*
X38790000Y23312500D01*
G75*
G02*
X38637500Y23160000I-152500J0D01*
G01*
X38332500Y23160000D01*
G75*
G02*
X38180000Y23312500I0J152500D01*
G01*
G37*
G36*
G01*
X37210000Y23312500D02*
X37210000Y23667500D01*
G75*
G02*
X37362500Y23820000I152500J0D01*
G01*
X37667500Y23820000D01*
G75*
G02*
X37820000Y23667500I0J-152500D01*
G01*
X37820000Y23312500D01*
G75*
G02*
X37667500Y23160000I-152500J0D01*
G01*
X37362500Y23160000D01*
G75*
G02*
X37210000Y23312500I0J152500D01*
G01*
G37*
G36*
G01*
X18330000Y35162500D02*
X18330000Y35517500D01*
G75*
G02*
X18482500Y35670000I152500J0D01*
G01*
X18787500Y35670000D01*
G75*
G02*
X18940000Y35517500I0J-152500D01*
G01*
X18940000Y35162500D01*
G75*
G02*
X18787500Y35010000I-152500J0D01*
G01*
X18482500Y35010000D01*
G75*
G02*
X18330000Y35162500I0J152500D01*
G01*
G37*
G36*
G01*
X17360000Y35162500D02*
X17360000Y35517500D01*
G75*
G02*
X17512500Y35670000I152500J0D01*
G01*
X17817500Y35670000D01*
G75*
G02*
X17970000Y35517500I0J-152500D01*
G01*
X17970000Y35162500D01*
G75*
G02*
X17817500Y35010000I-152500J0D01*
G01*
X17512500Y35010000D01*
G75*
G02*
X17360000Y35162500I0J152500D01*
G01*
G37*
G36*
G01*
X46522500Y43710000D02*
X46877500Y43710000D01*
G75*
G02*
X47030000Y43557500I0J-152500D01*
G01*
X47030000Y43252500D01*
G75*
G02*
X46877500Y43100000I-152500J0D01*
G01*
X46522500Y43100000D01*
G75*
G02*
X46370000Y43252500I0J152500D01*
G01*
X46370000Y43557500D01*
G75*
G02*
X46522500Y43710000I152500J0D01*
G01*
G37*
G36*
G01*
X46522500Y44680000D02*
X46877500Y44680000D01*
G75*
G02*
X47030000Y44527500I0J-152500D01*
G01*
X47030000Y44222500D01*
G75*
G02*
X46877500Y44070000I-152500J0D01*
G01*
X46522500Y44070000D01*
G75*
G02*
X46370000Y44222500I0J152500D01*
G01*
X46370000Y44527500D01*
G75*
G02*
X46522500Y44680000I152500J0D01*
G01*
G37*
G36*
G01*
X13222500Y43810000D02*
X13577500Y43810000D01*
G75*
G02*
X13730000Y43657500I0J-152500D01*
G01*
X13730000Y43352500D01*
G75*
G02*
X13577500Y43200000I-152500J0D01*
G01*
X13222500Y43200000D01*
G75*
G02*
X13070000Y43352500I0J152500D01*
G01*
X13070000Y43657500D01*
G75*
G02*
X13222500Y43810000I152500J0D01*
G01*
G37*
G36*
G01*
X13222500Y44780000D02*
X13577500Y44780000D01*
G75*
G02*
X13730000Y44627500I0J-152500D01*
G01*
X13730000Y44322500D01*
G75*
G02*
X13577500Y44170000I-152500J0D01*
G01*
X13222500Y44170000D01*
G75*
G02*
X13070000Y44322500I0J152500D01*
G01*
X13070000Y44627500D01*
G75*
G02*
X13222500Y44780000I152500J0D01*
G01*
G37*
G36*
G01*
X11622500Y41410000D02*
X11977500Y41410000D01*
G75*
G02*
X12130000Y41257500I0J-152500D01*
G01*
X12130000Y40952500D01*
G75*
G02*
X11977500Y40800000I-152500J0D01*
G01*
X11622500Y40800000D01*
G75*
G02*
X11470000Y40952500I0J152500D01*
G01*
X11470000Y41257500D01*
G75*
G02*
X11622500Y41410000I152500J0D01*
G01*
G37*
G36*
G01*
X11622500Y42380000D02*
X11977500Y42380000D01*
G75*
G02*
X12130000Y42227500I0J-152500D01*
G01*
X12130000Y41922500D01*
G75*
G02*
X11977500Y41770000I-152500J0D01*
G01*
X11622500Y41770000D01*
G75*
G02*
X11470000Y41922500I0J152500D01*
G01*
X11470000Y42227500D01*
G75*
G02*
X11622500Y42380000I152500J0D01*
G01*
G37*
G36*
G01*
X10622500Y41410000D02*
X10977500Y41410000D01*
G75*
G02*
X11130000Y41257500I0J-152500D01*
G01*
X11130000Y40952500D01*
G75*
G02*
X10977500Y40800000I-152500J0D01*
G01*
X10622500Y40800000D01*
G75*
G02*
X10470000Y40952500I0J152500D01*
G01*
X10470000Y41257500D01*
G75*
G02*
X10622500Y41410000I152500J0D01*
G01*
G37*
G36*
G01*
X10622500Y42380000D02*
X10977500Y42380000D01*
G75*
G02*
X11130000Y42227500I0J-152500D01*
G01*
X11130000Y41922500D01*
G75*
G02*
X10977500Y41770000I-152500J0D01*
G01*
X10622500Y41770000D01*
G75*
G02*
X10470000Y41922500I0J152500D01*
G01*
X10470000Y42227500D01*
G75*
G02*
X10622500Y42380000I152500J0D01*
G01*
G37*
G36*
G01*
X42220000Y20067500D02*
X42220000Y19712500D01*
G75*
G02*
X42067500Y19560000I-152500J0D01*
G01*
X41762500Y19560000D01*
G75*
G02*
X41610000Y19712500I0J152500D01*
G01*
X41610000Y20067500D01*
G75*
G02*
X41762500Y20220000I152500J0D01*
G01*
X42067500Y20220000D01*
G75*
G02*
X42220000Y20067500I0J-152500D01*
G01*
G37*
G36*
G01*
X43190000Y20067500D02*
X43190000Y19712500D01*
G75*
G02*
X43037500Y19560000I-152500J0D01*
G01*
X42732500Y19560000D01*
G75*
G02*
X42580000Y19712500I0J152500D01*
G01*
X42580000Y20067500D01*
G75*
G02*
X42732500Y20220000I152500J0D01*
G01*
X43037500Y20220000D01*
G75*
G02*
X43190000Y20067500I0J-152500D01*
G01*
G37*
G36*
G01*
X43202500Y29100000D02*
X43557500Y29100000D01*
G75*
G02*
X43710000Y28947500I0J-152500D01*
G01*
X43710000Y28642500D01*
G75*
G02*
X43557500Y28490000I-152500J0D01*
G01*
X43202500Y28490000D01*
G75*
G02*
X43050000Y28642500I0J152500D01*
G01*
X43050000Y28947500D01*
G75*
G02*
X43202500Y29100000I152500J0D01*
G01*
G37*
G36*
G01*
X43202500Y30070000D02*
X43557500Y30070000D01*
G75*
G02*
X43710000Y29917500I0J-152500D01*
G01*
X43710000Y29612500D01*
G75*
G02*
X43557500Y29460000I-152500J0D01*
G01*
X43202500Y29460000D01*
G75*
G02*
X43050000Y29612500I0J152500D01*
G01*
X43050000Y29917500D01*
G75*
G02*
X43202500Y30070000I152500J0D01*
G01*
G37*
G36*
G01*
X48832500Y29100000D02*
X49187500Y29100000D01*
G75*
G02*
X49340000Y28947500I0J-152500D01*
G01*
X49340000Y28642500D01*
G75*
G02*
X49187500Y28490000I-152500J0D01*
G01*
X48832500Y28490000D01*
G75*
G02*
X48680000Y28642500I0J152500D01*
G01*
X48680000Y28947500D01*
G75*
G02*
X48832500Y29100000I152500J0D01*
G01*
G37*
G36*
G01*
X48832500Y30070000D02*
X49187500Y30070000D01*
G75*
G02*
X49340000Y29917500I0J-152500D01*
G01*
X49340000Y29612500D01*
G75*
G02*
X49187500Y29460000I-152500J0D01*
G01*
X48832500Y29460000D01*
G75*
G02*
X48680000Y29612500I0J152500D01*
G01*
X48680000Y29917500D01*
G75*
G02*
X48832500Y30070000I152500J0D01*
G01*
G37*
G36*
G01*
X44362500Y29100000D02*
X44717500Y29100000D01*
G75*
G02*
X44870000Y28947500I0J-152500D01*
G01*
X44870000Y28642500D01*
G75*
G02*
X44717500Y28490000I-152500J0D01*
G01*
X44362500Y28490000D01*
G75*
G02*
X44210000Y28642500I0J152500D01*
G01*
X44210000Y28947500D01*
G75*
G02*
X44362500Y29100000I152500J0D01*
G01*
G37*
G36*
G01*
X44362500Y30070000D02*
X44717500Y30070000D01*
G75*
G02*
X44870000Y29917500I0J-152500D01*
G01*
X44870000Y29612500D01*
G75*
G02*
X44717500Y29460000I-152500J0D01*
G01*
X44362500Y29460000D01*
G75*
G02*
X44210000Y29612500I0J152500D01*
G01*
X44210000Y29917500D01*
G75*
G02*
X44362500Y30070000I152500J0D01*
G01*
G37*
G36*
G01*
X37892500Y11470000D02*
X38247500Y11470000D01*
G75*
G02*
X38400000Y11317500I0J-152500D01*
G01*
X38400000Y11012500D01*
G75*
G02*
X38247500Y10860000I-152500J0D01*
G01*
X37892500Y10860000D01*
G75*
G02*
X37740000Y11012500I0J152500D01*
G01*
X37740000Y11317500D01*
G75*
G02*
X37892500Y11470000I152500J0D01*
G01*
G37*
G36*
G01*
X37892500Y12440000D02*
X38247500Y12440000D01*
G75*
G02*
X38400000Y12287500I0J-152500D01*
G01*
X38400000Y11982500D01*
G75*
G02*
X38247500Y11830000I-152500J0D01*
G01*
X37892500Y11830000D01*
G75*
G02*
X37740000Y11982500I0J152500D01*
G01*
X37740000Y12287500D01*
G75*
G02*
X37892500Y12440000I152500J0D01*
G01*
G37*
G36*
G01*
X30622500Y19710000D02*
X30977500Y19710000D01*
G75*
G02*
X31130000Y19557500I0J-152500D01*
G01*
X31130000Y19252500D01*
G75*
G02*
X30977500Y19100000I-152500J0D01*
G01*
X30622500Y19100000D01*
G75*
G02*
X30470000Y19252500I0J152500D01*
G01*
X30470000Y19557500D01*
G75*
G02*
X30622500Y19710000I152500J0D01*
G01*
G37*
G36*
G01*
X30622500Y20680000D02*
X30977500Y20680000D01*
G75*
G02*
X31130000Y20527500I0J-152500D01*
G01*
X31130000Y20222500D01*
G75*
G02*
X30977500Y20070000I-152500J0D01*
G01*
X30622500Y20070000D01*
G75*
G02*
X30470000Y20222500I0J152500D01*
G01*
X30470000Y20527500D01*
G75*
G02*
X30622500Y20680000I152500J0D01*
G01*
G37*
G36*
G01*
X32167500Y6150000D02*
X31812500Y6150000D01*
G75*
G02*
X31660000Y6302500I0J152500D01*
G01*
X31660000Y6607500D01*
G75*
G02*
X31812500Y6760000I152500J0D01*
G01*
X32167500Y6760000D01*
G75*
G02*
X32320000Y6607500I0J-152500D01*
G01*
X32320000Y6302500D01*
G75*
G02*
X32167500Y6150000I-152500J0D01*
G01*
G37*
G36*
G01*
X32167500Y5180000D02*
X31812500Y5180000D01*
G75*
G02*
X31660000Y5332500I0J152500D01*
G01*
X31660000Y5637500D01*
G75*
G02*
X31812500Y5790000I152500J0D01*
G01*
X32167500Y5790000D01*
G75*
G02*
X32320000Y5637500I0J-152500D01*
G01*
X32320000Y5332500D01*
G75*
G02*
X32167500Y5180000I-152500J0D01*
G01*
G37*
G36*
G01*
X22490000Y19462500D02*
X22490000Y19817500D01*
G75*
G02*
X22642500Y19970000I152500J0D01*
G01*
X22947500Y19970000D01*
G75*
G02*
X23100000Y19817500I0J-152500D01*
G01*
X23100000Y19462500D01*
G75*
G02*
X22947500Y19310000I-152500J0D01*
G01*
X22642500Y19310000D01*
G75*
G02*
X22490000Y19462500I0J152500D01*
G01*
G37*
G36*
G01*
X21520000Y19462500D02*
X21520000Y19817500D01*
G75*
G02*
X21672500Y19970000I152500J0D01*
G01*
X21977500Y19970000D01*
G75*
G02*
X22130000Y19817500I0J-152500D01*
G01*
X22130000Y19462500D01*
G75*
G02*
X21977500Y19310000I-152500J0D01*
G01*
X21672500Y19310000D01*
G75*
G02*
X21520000Y19462500I0J152500D01*
G01*
G37*
D21*
X22000000Y4440000D03*
X26000000Y4440000D03*
D22*
X20400000Y2290000D03*
X27600000Y2290000D03*
X27600000Y5760000D03*
X20400000Y5760000D03*
G36*
G01*
X32552791Y40691768D02*
X32301768Y40942791D01*
G75*
G02*
X32301768Y41158459I107834J107834D01*
G01*
X32517435Y41374126D01*
G75*
G02*
X32733103Y41374126I107834J-107834D01*
G01*
X32984126Y41123103D01*
G75*
G02*
X32984126Y40907435I-107834J-107834D01*
G01*
X32768459Y40691768D01*
G75*
G02*
X32552791Y40691768I-107834J107834D01*
G01*
G37*
G36*
G01*
X31866897Y40005874D02*
X31615874Y40256897D01*
G75*
G02*
X31615874Y40472565I107834J107834D01*
G01*
X31831541Y40688232D01*
G75*
G02*
X32047209Y40688232I107834J-107834D01*
G01*
X32298232Y40437209D01*
G75*
G02*
X32298232Y40221541I-107834J-107834D01*
G01*
X32082565Y40005874D01*
G75*
G02*
X31866897Y40005874I-107834J107834D01*
G01*
G37*
G36*
G01*
X33252791Y39991768D02*
X33001768Y40242791D01*
G75*
G02*
X33001768Y40458459I107834J107834D01*
G01*
X33217435Y40674126D01*
G75*
G02*
X33433103Y40674126I107834J-107834D01*
G01*
X33684126Y40423103D01*
G75*
G02*
X33684126Y40207435I-107834J-107834D01*
G01*
X33468459Y39991768D01*
G75*
G02*
X33252791Y39991768I-107834J107834D01*
G01*
G37*
G36*
G01*
X32566897Y39305874D02*
X32315874Y39556897D01*
G75*
G02*
X32315874Y39772565I107834J107834D01*
G01*
X32531541Y39988232D01*
G75*
G02*
X32747209Y39988232I107834J-107834D01*
G01*
X32998232Y39737209D01*
G75*
G02*
X32998232Y39521541I-107834J-107834D01*
G01*
X32782565Y39305874D01*
G75*
G02*
X32566897Y39305874I-107834J107834D01*
G01*
G37*
G36*
G01*
X30877500Y35070000D02*
X30522500Y35070000D01*
G75*
G02*
X30370000Y35222500I0J152500D01*
G01*
X30370000Y35527500D01*
G75*
G02*
X30522500Y35680000I152500J0D01*
G01*
X30877500Y35680000D01*
G75*
G02*
X31030000Y35527500I0J-152500D01*
G01*
X31030000Y35222500D01*
G75*
G02*
X30877500Y35070000I-152500J0D01*
G01*
G37*
G36*
G01*
X30877500Y34100000D02*
X30522500Y34100000D01*
G75*
G02*
X30370000Y34252500I0J152500D01*
G01*
X30370000Y34557500D01*
G75*
G02*
X30522500Y34710000I152500J0D01*
G01*
X30877500Y34710000D01*
G75*
G02*
X31030000Y34557500I0J-152500D01*
G01*
X31030000Y34252500D01*
G75*
G02*
X30877500Y34100000I-152500J0D01*
G01*
G37*
G36*
G01*
X31320000Y28767500D02*
X31320000Y28412500D01*
G75*
G02*
X31167500Y28260000I-152500J0D01*
G01*
X30862500Y28260000D01*
G75*
G02*
X30710000Y28412500I0J152500D01*
G01*
X30710000Y28767500D01*
G75*
G02*
X30862500Y28920000I152500J0D01*
G01*
X31167500Y28920000D01*
G75*
G02*
X31320000Y28767500I0J-152500D01*
G01*
G37*
G36*
G01*
X32290000Y28767500D02*
X32290000Y28412500D01*
G75*
G02*
X32137500Y28260000I-152500J0D01*
G01*
X31832500Y28260000D01*
G75*
G02*
X31680000Y28412500I0J152500D01*
G01*
X31680000Y28767500D01*
G75*
G02*
X31832500Y28920000I152500J0D01*
G01*
X32137500Y28920000D01*
G75*
G02*
X32290000Y28767500I0J-152500D01*
G01*
G37*
G36*
G01*
X7920000Y39767500D02*
X7920000Y39412500D01*
G75*
G02*
X7767500Y39260000I-152500J0D01*
G01*
X7462500Y39260000D01*
G75*
G02*
X7310000Y39412500I0J152500D01*
G01*
X7310000Y39767500D01*
G75*
G02*
X7462500Y39920000I152500J0D01*
G01*
X7767500Y39920000D01*
G75*
G02*
X7920000Y39767500I0J-152500D01*
G01*
G37*
G36*
G01*
X8890000Y39767500D02*
X8890000Y39412500D01*
G75*
G02*
X8737500Y39260000I-152500J0D01*
G01*
X8432500Y39260000D01*
G75*
G02*
X8280000Y39412500I0J152500D01*
G01*
X8280000Y39767500D01*
G75*
G02*
X8432500Y39920000I152500J0D01*
G01*
X8737500Y39920000D01*
G75*
G02*
X8890000Y39767500I0J-152500D01*
G01*
G37*
G36*
G01*
X13680000Y40512500D02*
X13680000Y40867500D01*
G75*
G02*
X13832500Y41020000I152500J0D01*
G01*
X14137500Y41020000D01*
G75*
G02*
X14290000Y40867500I0J-152500D01*
G01*
X14290000Y40512500D01*
G75*
G02*
X14137500Y40360000I-152500J0D01*
G01*
X13832500Y40360000D01*
G75*
G02*
X13680000Y40512500I0J152500D01*
G01*
G37*
G36*
G01*
X12710000Y40512500D02*
X12710000Y40867500D01*
G75*
G02*
X12862500Y41020000I152500J0D01*
G01*
X13167500Y41020000D01*
G75*
G02*
X13320000Y40867500I0J-152500D01*
G01*
X13320000Y40512500D01*
G75*
G02*
X13167500Y40360000I-152500J0D01*
G01*
X12862500Y40360000D01*
G75*
G02*
X12710000Y40512500I0J152500D01*
G01*
G37*
G36*
G01*
X9720000Y34367500D02*
X9720000Y34012500D01*
G75*
G02*
X9567500Y33860000I-152500J0D01*
G01*
X9262500Y33860000D01*
G75*
G02*
X9110000Y34012500I0J152500D01*
G01*
X9110000Y34367500D01*
G75*
G02*
X9262500Y34520000I152500J0D01*
G01*
X9567500Y34520000D01*
G75*
G02*
X9720000Y34367500I0J-152500D01*
G01*
G37*
G36*
G01*
X10690000Y34367500D02*
X10690000Y34012500D01*
G75*
G02*
X10537500Y33860000I-152500J0D01*
G01*
X10232500Y33860000D01*
G75*
G02*
X10080000Y34012500I0J152500D01*
G01*
X10080000Y34367500D01*
G75*
G02*
X10232500Y34520000I152500J0D01*
G01*
X10537500Y34520000D01*
G75*
G02*
X10690000Y34367500I0J-152500D01*
G01*
G37*
G36*
G01*
X16080000Y34712500D02*
X16080000Y35067500D01*
G75*
G02*
X16232500Y35220000I152500J0D01*
G01*
X16537500Y35220000D01*
G75*
G02*
X16690000Y35067500I0J-152500D01*
G01*
X16690000Y34712500D01*
G75*
G02*
X16537500Y34560000I-152500J0D01*
G01*
X16232500Y34560000D01*
G75*
G02*
X16080000Y34712500I0J152500D01*
G01*
G37*
G36*
G01*
X15110000Y34712500D02*
X15110000Y35067500D01*
G75*
G02*
X15262500Y35220000I152500J0D01*
G01*
X15567500Y35220000D01*
G75*
G02*
X15720000Y35067500I0J-152500D01*
G01*
X15720000Y34712500D01*
G75*
G02*
X15567500Y34560000I-152500J0D01*
G01*
X15262500Y34560000D01*
G75*
G02*
X15110000Y34712500I0J152500D01*
G01*
G37*
G36*
G01*
X28750000Y23567500D02*
X28750000Y23212500D01*
G75*
G02*
X28597500Y23060000I-152500J0D01*
G01*
X28292500Y23060000D01*
G75*
G02*
X28140000Y23212500I0J152500D01*
G01*
X28140000Y23567500D01*
G75*
G02*
X28292500Y23720000I152500J0D01*
G01*
X28597500Y23720000D01*
G75*
G02*
X28750000Y23567500I0J-152500D01*
G01*
G37*
G36*
G01*
X29720000Y23567500D02*
X29720000Y23212500D01*
G75*
G02*
X29567500Y23060000I-152500J0D01*
G01*
X29262500Y23060000D01*
G75*
G02*
X29110000Y23212500I0J152500D01*
G01*
X29110000Y23567500D01*
G75*
G02*
X29262500Y23720000I152500J0D01*
G01*
X29567500Y23720000D01*
G75*
G02*
X29720000Y23567500I0J-152500D01*
G01*
G37*
G36*
G01*
X20480000Y7612500D02*
X20480000Y7967500D01*
G75*
G02*
X20632500Y8120000I152500J0D01*
G01*
X20937500Y8120000D01*
G75*
G02*
X21090000Y7967500I0J-152500D01*
G01*
X21090000Y7612500D01*
G75*
G02*
X20937500Y7460000I-152500J0D01*
G01*
X20632500Y7460000D01*
G75*
G02*
X20480000Y7612500I0J152500D01*
G01*
G37*
G36*
G01*
X19510000Y7612500D02*
X19510000Y7967500D01*
G75*
G02*
X19662500Y8120000I152500J0D01*
G01*
X19967500Y8120000D01*
G75*
G02*
X20120000Y7967500I0J-152500D01*
G01*
X20120000Y7612500D01*
G75*
G02*
X19967500Y7460000I-152500J0D01*
G01*
X19662500Y7460000D01*
G75*
G02*
X19510000Y7612500I0J152500D01*
G01*
G37*
D23*
X29990000Y2300000D03*
D24*
X43130000Y6330000D03*
X45670000Y6330000D03*
X43130000Y3790000D03*
X45670000Y3790000D03*
X43130000Y1250000D03*
D25*
X45670000Y1250000D03*
G36*
G01*
X31565000Y17159000D02*
X31565000Y18421000D01*
G75*
G02*
X31819000Y18675000I254000J0D01*
G01*
X32581000Y18675000D01*
G75*
G02*
X32835000Y18421000I0J-254000D01*
G01*
X32835000Y17159000D01*
G75*
G02*
X32581000Y16905000I-254000J0D01*
G01*
X31819000Y16905000D01*
G75*
G02*
X31565000Y17159000I0J254000D01*
G01*
G37*
G36*
G01*
X28765000Y17159000D02*
X28765000Y18421000D01*
G75*
G02*
X29019000Y18675000I254000J0D01*
G01*
X29781000Y18675000D01*
G75*
G02*
X30035000Y18421000I0J-254000D01*
G01*
X30035000Y17159000D01*
G75*
G02*
X29781000Y16905000I-254000J0D01*
G01*
X29019000Y16905000D01*
G75*
G02*
X28765000Y17159000I0J254000D01*
G01*
G37*
G36*
G01*
X21427500Y28070000D02*
X21072500Y28070000D01*
G75*
G02*
X20920000Y28222500I0J152500D01*
G01*
X20920000Y28527500D01*
G75*
G02*
X21072500Y28680000I152500J0D01*
G01*
X21427500Y28680000D01*
G75*
G02*
X21580000Y28527500I0J-152500D01*
G01*
X21580000Y28222500D01*
G75*
G02*
X21427500Y28070000I-152500J0D01*
G01*
G37*
G36*
G01*
X21427500Y27100000D02*
X21072500Y27100000D01*
G75*
G02*
X20920000Y27252500I0J152500D01*
G01*
X20920000Y27557500D01*
G75*
G02*
X21072500Y27710000I152500J0D01*
G01*
X21427500Y27710000D01*
G75*
G02*
X21580000Y27557500I0J-152500D01*
G01*
X21580000Y27252500D01*
G75*
G02*
X21427500Y27100000I-152500J0D01*
G01*
G37*
G36*
G01*
X24420000Y16567500D02*
X24420000Y16212500D01*
G75*
G02*
X24267500Y16060000I-152500J0D01*
G01*
X23962500Y16060000D01*
G75*
G02*
X23810000Y16212500I0J152500D01*
G01*
X23810000Y16567500D01*
G75*
G02*
X23962500Y16720000I152500J0D01*
G01*
X24267500Y16720000D01*
G75*
G02*
X24420000Y16567500I0J-152500D01*
G01*
G37*
G36*
G01*
X25390000Y16567500D02*
X25390000Y16212500D01*
G75*
G02*
X25237500Y16060000I-152500J0D01*
G01*
X24932500Y16060000D01*
G75*
G02*
X24780000Y16212500I0J152500D01*
G01*
X24780000Y16567500D01*
G75*
G02*
X24932500Y16720000I152500J0D01*
G01*
X25237500Y16720000D01*
G75*
G02*
X25390000Y16567500I0J-152500D01*
G01*
G37*
G36*
G01*
X22820000Y28567500D02*
X22820000Y28212500D01*
G75*
G02*
X22667500Y28060000I-152500J0D01*
G01*
X22362500Y28060000D01*
G75*
G02*
X22210000Y28212500I0J152500D01*
G01*
X22210000Y28567500D01*
G75*
G02*
X22362500Y28720000I152500J0D01*
G01*
X22667500Y28720000D01*
G75*
G02*
X22820000Y28567500I0J-152500D01*
G01*
G37*
G36*
G01*
X23790000Y28567500D02*
X23790000Y28212500D01*
G75*
G02*
X23637500Y28060000I-152500J0D01*
G01*
X23332500Y28060000D01*
G75*
G02*
X23180000Y28212500I0J152500D01*
G01*
X23180000Y28567500D01*
G75*
G02*
X23332500Y28720000I152500J0D01*
G01*
X23637500Y28720000D01*
G75*
G02*
X23790000Y28567500I0J-152500D01*
G01*
G37*
G36*
G01*
X22822500Y16230000D02*
X23177500Y16230000D01*
G75*
G02*
X23330000Y16077500I0J-152500D01*
G01*
X23330000Y15772500D01*
G75*
G02*
X23177500Y15620000I-152500J0D01*
G01*
X22822500Y15620000D01*
G75*
G02*
X22670000Y15772500I0J152500D01*
G01*
X22670000Y16077500D01*
G75*
G02*
X22822500Y16230000I152500J0D01*
G01*
G37*
G36*
G01*
X22822500Y17200000D02*
X23177500Y17200000D01*
G75*
G02*
X23330000Y17047500I0J-152500D01*
G01*
X23330000Y16742500D01*
G75*
G02*
X23177500Y16590000I-152500J0D01*
G01*
X22822500Y16590000D01*
G75*
G02*
X22670000Y16742500I0J152500D01*
G01*
X22670000Y17047500D01*
G75*
G02*
X22822500Y17200000I152500J0D01*
G01*
G37*
G36*
G01*
X18015500Y21146000D02*
X18370500Y21146000D01*
G75*
G02*
X18523000Y20993500I0J-152500D01*
G01*
X18523000Y20688500D01*
G75*
G02*
X18370500Y20536000I-152500J0D01*
G01*
X18015500Y20536000D01*
G75*
G02*
X17863000Y20688500I0J152500D01*
G01*
X17863000Y20993500D01*
G75*
G02*
X18015500Y21146000I152500J0D01*
G01*
G37*
G36*
G01*
X18015500Y22116000D02*
X18370500Y22116000D01*
G75*
G02*
X18523000Y21963500I0J-152500D01*
G01*
X18523000Y21658500D01*
G75*
G02*
X18370500Y21506000I-152500J0D01*
G01*
X18015500Y21506000D01*
G75*
G02*
X17863000Y21658500I0J152500D01*
G01*
X17863000Y21963500D01*
G75*
G02*
X18015500Y22116000I152500J0D01*
G01*
G37*
G36*
G01*
X20822500Y17510000D02*
X21177500Y17510000D01*
G75*
G02*
X21330000Y17357500I0J-152500D01*
G01*
X21330000Y17052500D01*
G75*
G02*
X21177500Y16900000I-152500J0D01*
G01*
X20822500Y16900000D01*
G75*
G02*
X20670000Y17052500I0J152500D01*
G01*
X20670000Y17357500D01*
G75*
G02*
X20822500Y17510000I152500J0D01*
G01*
G37*
G36*
G01*
X20822500Y18480000D02*
X21177500Y18480000D01*
G75*
G02*
X21330000Y18327500I0J-152500D01*
G01*
X21330000Y18022500D01*
G75*
G02*
X21177500Y17870000I-152500J0D01*
G01*
X20822500Y17870000D01*
G75*
G02*
X20670000Y18022500I0J152500D01*
G01*
X20670000Y18327500D01*
G75*
G02*
X20822500Y18480000I152500J0D01*
G01*
G37*
G36*
G01*
X21180000Y33212500D02*
X21180000Y33567500D01*
G75*
G02*
X21332500Y33720000I152500J0D01*
G01*
X21637500Y33720000D01*
G75*
G02*
X21790000Y33567500I0J-152500D01*
G01*
X21790000Y33212500D01*
G75*
G02*
X21637500Y33060000I-152500J0D01*
G01*
X21332500Y33060000D01*
G75*
G02*
X21180000Y33212500I0J152500D01*
G01*
G37*
G36*
G01*
X20210000Y33212500D02*
X20210000Y33567500D01*
G75*
G02*
X20362500Y33720000I152500J0D01*
G01*
X20667500Y33720000D01*
G75*
G02*
X20820000Y33567500I0J-152500D01*
G01*
X20820000Y33212500D01*
G75*
G02*
X20667500Y33060000I-152500J0D01*
G01*
X20362500Y33060000D01*
G75*
G02*
X20210000Y33212500I0J152500D01*
G01*
G37*
G36*
G01*
X23437500Y23530000D02*
X23082500Y23530000D01*
G75*
G02*
X22930000Y23682500I0J152500D01*
G01*
X22930000Y23987500D01*
G75*
G02*
X23082500Y24140000I152500J0D01*
G01*
X23437500Y24140000D01*
G75*
G02*
X23590000Y23987500I0J-152500D01*
G01*
X23590000Y23682500D01*
G75*
G02*
X23437500Y23530000I-152500J0D01*
G01*
G37*
G36*
G01*
X23437500Y22560000D02*
X23082500Y22560000D01*
G75*
G02*
X22930000Y22712500I0J152500D01*
G01*
X22930000Y23017500D01*
G75*
G02*
X23082500Y23170000I152500J0D01*
G01*
X23437500Y23170000D01*
G75*
G02*
X23590000Y23017500I0J-152500D01*
G01*
X23590000Y22712500D01*
G75*
G02*
X23437500Y22560000I-152500J0D01*
G01*
G37*
G36*
G01*
X18269500Y32449000D02*
X18624500Y32449000D01*
G75*
G02*
X18777000Y32296500I0J-152500D01*
G01*
X18777000Y31991500D01*
G75*
G02*
X18624500Y31839000I-152500J0D01*
G01*
X18269500Y31839000D01*
G75*
G02*
X18117000Y31991500I0J152500D01*
G01*
X18117000Y32296500D01*
G75*
G02*
X18269500Y32449000I152500J0D01*
G01*
G37*
G36*
G01*
X18269500Y33419000D02*
X18624500Y33419000D01*
G75*
G02*
X18777000Y33266500I0J-152500D01*
G01*
X18777000Y32961500D01*
G75*
G02*
X18624500Y32809000I-152500J0D01*
G01*
X18269500Y32809000D01*
G75*
G02*
X18117000Y32961500I0J152500D01*
G01*
X18117000Y33266500D01*
G75*
G02*
X18269500Y33419000I152500J0D01*
G01*
G37*
G36*
G01*
X22177500Y16770000D02*
X21822500Y16770000D01*
G75*
G02*
X21670000Y16922500I0J152500D01*
G01*
X21670000Y17227500D01*
G75*
G02*
X21822500Y17380000I152500J0D01*
G01*
X22177500Y17380000D01*
G75*
G02*
X22330000Y17227500I0J-152500D01*
G01*
X22330000Y16922500D01*
G75*
G02*
X22177500Y16770000I-152500J0D01*
G01*
G37*
G36*
G01*
X22177500Y15800000D02*
X21822500Y15800000D01*
G75*
G02*
X21670000Y15952500I0J152500D01*
G01*
X21670000Y16257500D01*
G75*
G02*
X21822500Y16410000I152500J0D01*
G01*
X22177500Y16410000D01*
G75*
G02*
X22330000Y16257500I0J-152500D01*
G01*
X22330000Y15952500D01*
G75*
G02*
X22177500Y15800000I-152500J0D01*
G01*
G37*
G36*
G01*
X23196500Y26840000D02*
X22841500Y26840000D01*
G75*
G02*
X22689000Y26992500I0J152500D01*
G01*
X22689000Y27297500D01*
G75*
G02*
X22841500Y27450000I152500J0D01*
G01*
X23196500Y27450000D01*
G75*
G02*
X23349000Y27297500I0J-152500D01*
G01*
X23349000Y26992500D01*
G75*
G02*
X23196500Y26840000I-152500J0D01*
G01*
G37*
G36*
G01*
X23196500Y25870000D02*
X22841500Y25870000D01*
G75*
G02*
X22689000Y26022500I0J152500D01*
G01*
X22689000Y26327500D01*
G75*
G02*
X22841500Y26480000I152500J0D01*
G01*
X23196500Y26480000D01*
G75*
G02*
X23349000Y26327500I0J-152500D01*
G01*
X23349000Y26022500D01*
G75*
G02*
X23196500Y25870000I-152500J0D01*
G01*
G37*
G36*
G01*
X35680000Y34512500D02*
X35680000Y34867500D01*
G75*
G02*
X35832500Y35020000I152500J0D01*
G01*
X36137500Y35020000D01*
G75*
G02*
X36290000Y34867500I0J-152500D01*
G01*
X36290000Y34512500D01*
G75*
G02*
X36137500Y34360000I-152500J0D01*
G01*
X35832500Y34360000D01*
G75*
G02*
X35680000Y34512500I0J152500D01*
G01*
G37*
G36*
G01*
X34710000Y34512500D02*
X34710000Y34867500D01*
G75*
G02*
X34862500Y35020000I152500J0D01*
G01*
X35167500Y35020000D01*
G75*
G02*
X35320000Y34867500I0J-152500D01*
G01*
X35320000Y34512500D01*
G75*
G02*
X35167500Y34360000I-152500J0D01*
G01*
X34862500Y34360000D01*
G75*
G02*
X34710000Y34512500I0J152500D01*
G01*
G37*
G36*
G01*
X40380000Y33012500D02*
X40380000Y33367500D01*
G75*
G02*
X40532500Y33520000I152500J0D01*
G01*
X40837500Y33520000D01*
G75*
G02*
X40990000Y33367500I0J-152500D01*
G01*
X40990000Y33012500D01*
G75*
G02*
X40837500Y32860000I-152500J0D01*
G01*
X40532500Y32860000D01*
G75*
G02*
X40380000Y33012500I0J152500D01*
G01*
G37*
G36*
G01*
X39410000Y33012500D02*
X39410000Y33367500D01*
G75*
G02*
X39562500Y33520000I152500J0D01*
G01*
X39867500Y33520000D01*
G75*
G02*
X40020000Y33367500I0J-152500D01*
G01*
X40020000Y33012500D01*
G75*
G02*
X39867500Y32860000I-152500J0D01*
G01*
X39562500Y32860000D01*
G75*
G02*
X39410000Y33012500I0J152500D01*
G01*
G37*
G36*
G01*
X33780000Y35012500D02*
X33780000Y35367500D01*
G75*
G02*
X33932500Y35520000I152500J0D01*
G01*
X34237500Y35520000D01*
G75*
G02*
X34390000Y35367500I0J-152500D01*
G01*
X34390000Y35012500D01*
G75*
G02*
X34237500Y34860000I-152500J0D01*
G01*
X33932500Y34860000D01*
G75*
G02*
X33780000Y35012500I0J152500D01*
G01*
G37*
G36*
G01*
X32810000Y35012500D02*
X32810000Y35367500D01*
G75*
G02*
X32962500Y35520000I152500J0D01*
G01*
X33267500Y35520000D01*
G75*
G02*
X33420000Y35367500I0J-152500D01*
G01*
X33420000Y35012500D01*
G75*
G02*
X33267500Y34860000I-152500J0D01*
G01*
X32962500Y34860000D01*
G75*
G02*
X32810000Y35012500I0J152500D01*
G01*
G37*
G36*
G01*
X38620000Y31567500D02*
X38620000Y31212500D01*
G75*
G02*
X38467500Y31060000I-152500J0D01*
G01*
X38162500Y31060000D01*
G75*
G02*
X38010000Y31212500I0J152500D01*
G01*
X38010000Y31567500D01*
G75*
G02*
X38162500Y31720000I152500J0D01*
G01*
X38467500Y31720000D01*
G75*
G02*
X38620000Y31567500I0J-152500D01*
G01*
G37*
G36*
G01*
X39590000Y31567500D02*
X39590000Y31212500D01*
G75*
G02*
X39437500Y31060000I-152500J0D01*
G01*
X39132500Y31060000D01*
G75*
G02*
X38980000Y31212500I0J152500D01*
G01*
X38980000Y31567500D01*
G75*
G02*
X39132500Y31720000I152500J0D01*
G01*
X39437500Y31720000D01*
G75*
G02*
X39590000Y31567500I0J-152500D01*
G01*
G37*
G36*
G01*
X37380000Y33012500D02*
X37380000Y33367500D01*
G75*
G02*
X37532500Y33520000I152500J0D01*
G01*
X37837500Y33520000D01*
G75*
G02*
X37990000Y33367500I0J-152500D01*
G01*
X37990000Y33012500D01*
G75*
G02*
X37837500Y32860000I-152500J0D01*
G01*
X37532500Y32860000D01*
G75*
G02*
X37380000Y33012500I0J152500D01*
G01*
G37*
G36*
G01*
X36410000Y33012500D02*
X36410000Y33367500D01*
G75*
G02*
X36562500Y33520000I152500J0D01*
G01*
X36867500Y33520000D01*
G75*
G02*
X37020000Y33367500I0J-152500D01*
G01*
X37020000Y33012500D01*
G75*
G02*
X36867500Y32860000I-152500J0D01*
G01*
X36562500Y32860000D01*
G75*
G02*
X36410000Y33012500I0J152500D01*
G01*
G37*
G36*
G01*
X35380000Y33012500D02*
X35380000Y33367500D01*
G75*
G02*
X35532500Y33520000I152500J0D01*
G01*
X35837500Y33520000D01*
G75*
G02*
X35990000Y33367500I0J-152500D01*
G01*
X35990000Y33012500D01*
G75*
G02*
X35837500Y32860000I-152500J0D01*
G01*
X35532500Y32860000D01*
G75*
G02*
X35380000Y33012500I0J152500D01*
G01*
G37*
G36*
G01*
X34410000Y33012500D02*
X34410000Y33367500D01*
G75*
G02*
X34562500Y33520000I152500J0D01*
G01*
X34867500Y33520000D01*
G75*
G02*
X35020000Y33367500I0J-152500D01*
G01*
X35020000Y33012500D01*
G75*
G02*
X34867500Y32860000I-152500J0D01*
G01*
X34562500Y32860000D01*
G75*
G02*
X34410000Y33012500I0J152500D01*
G01*
G37*
G36*
G01*
X27180000Y23212500D02*
X27180000Y23567500D01*
G75*
G02*
X27332500Y23720000I152500J0D01*
G01*
X27637500Y23720000D01*
G75*
G02*
X27790000Y23567500I0J-152500D01*
G01*
X27790000Y23212500D01*
G75*
G02*
X27637500Y23060000I-152500J0D01*
G01*
X27332500Y23060000D01*
G75*
G02*
X27180000Y23212500I0J152500D01*
G01*
G37*
G36*
G01*
X26210000Y23212500D02*
X26210000Y23567500D01*
G75*
G02*
X26362500Y23720000I152500J0D01*
G01*
X26667500Y23720000D01*
G75*
G02*
X26820000Y23567500I0J-152500D01*
G01*
X26820000Y23212500D01*
G75*
G02*
X26667500Y23060000I-152500J0D01*
G01*
X26362500Y23060000D01*
G75*
G02*
X26210000Y23212500I0J152500D01*
G01*
G37*
G36*
G01*
X28177500Y29570000D02*
X27822500Y29570000D01*
G75*
G02*
X27670000Y29722500I0J152500D01*
G01*
X27670000Y30027500D01*
G75*
G02*
X27822500Y30180000I152500J0D01*
G01*
X28177500Y30180000D01*
G75*
G02*
X28330000Y30027500I0J-152500D01*
G01*
X28330000Y29722500D01*
G75*
G02*
X28177500Y29570000I-152500J0D01*
G01*
G37*
G36*
G01*
X28177500Y28600000D02*
X27822500Y28600000D01*
G75*
G02*
X27670000Y28752500I0J152500D01*
G01*
X27670000Y29057500D01*
G75*
G02*
X27822500Y29210000I152500J0D01*
G01*
X28177500Y29210000D01*
G75*
G02*
X28330000Y29057500I0J-152500D01*
G01*
X28330000Y28752500D01*
G75*
G02*
X28177500Y28600000I-152500J0D01*
G01*
G37*
G36*
G01*
X27822500Y20010000D02*
X28177500Y20010000D01*
G75*
G02*
X28330000Y19857500I0J-152500D01*
G01*
X28330000Y19552500D01*
G75*
G02*
X28177500Y19400000I-152500J0D01*
G01*
X27822500Y19400000D01*
G75*
G02*
X27670000Y19552500I0J152500D01*
G01*
X27670000Y19857500D01*
G75*
G02*
X27822500Y20010000I152500J0D01*
G01*
G37*
G36*
G01*
X27822500Y20980000D02*
X28177500Y20980000D01*
G75*
G02*
X28330000Y20827500I0J-152500D01*
G01*
X28330000Y20522500D01*
G75*
G02*
X28177500Y20370000I-152500J0D01*
G01*
X27822500Y20370000D01*
G75*
G02*
X27670000Y20522500I0J152500D01*
G01*
X27670000Y20827500D01*
G75*
G02*
X27822500Y20980000I152500J0D01*
G01*
G37*
G36*
G01*
X30722500Y26710000D02*
X31077500Y26710000D01*
G75*
G02*
X31230000Y26557500I0J-152500D01*
G01*
X31230000Y26252500D01*
G75*
G02*
X31077500Y26100000I-152500J0D01*
G01*
X30722500Y26100000D01*
G75*
G02*
X30570000Y26252500I0J152500D01*
G01*
X30570000Y26557500D01*
G75*
G02*
X30722500Y26710000I152500J0D01*
G01*
G37*
G36*
G01*
X30722500Y27680000D02*
X31077500Y27680000D01*
G75*
G02*
X31230000Y27527500I0J-152500D01*
G01*
X31230000Y27222500D01*
G75*
G02*
X31077500Y27070000I-152500J0D01*
G01*
X30722500Y27070000D01*
G75*
G02*
X30570000Y27222500I0J152500D01*
G01*
X30570000Y27527500D01*
G75*
G02*
X30722500Y27680000I152500J0D01*
G01*
G37*
G36*
G01*
X24447500Y23520000D02*
X24092500Y23520000D01*
G75*
G02*
X23940000Y23672500I0J152500D01*
G01*
X23940000Y23977500D01*
G75*
G02*
X24092500Y24130000I152500J0D01*
G01*
X24447500Y24130000D01*
G75*
G02*
X24600000Y23977500I0J-152500D01*
G01*
X24600000Y23672500D01*
G75*
G02*
X24447500Y23520000I-152500J0D01*
G01*
G37*
G36*
G01*
X24447500Y22550000D02*
X24092500Y22550000D01*
G75*
G02*
X23940000Y22702500I0J152500D01*
G01*
X23940000Y23007500D01*
G75*
G02*
X24092500Y23160000I152500J0D01*
G01*
X24447500Y23160000D01*
G75*
G02*
X24600000Y23007500I0J-152500D01*
G01*
X24600000Y22702500D01*
G75*
G02*
X24447500Y22550000I-152500J0D01*
G01*
G37*
G36*
G01*
X29180000Y22212500D02*
X29180000Y22567500D01*
G75*
G02*
X29332500Y22720000I152500J0D01*
G01*
X29637500Y22720000D01*
G75*
G02*
X29790000Y22567500I0J-152500D01*
G01*
X29790000Y22212500D01*
G75*
G02*
X29637500Y22060000I-152500J0D01*
G01*
X29332500Y22060000D01*
G75*
G02*
X29180000Y22212500I0J152500D01*
G01*
G37*
G36*
G01*
X28210000Y22212500D02*
X28210000Y22567500D01*
G75*
G02*
X28362500Y22720000I152500J0D01*
G01*
X28667500Y22720000D01*
G75*
G02*
X28820000Y22567500I0J-152500D01*
G01*
X28820000Y22212500D01*
G75*
G02*
X28667500Y22060000I-152500J0D01*
G01*
X28362500Y22060000D01*
G75*
G02*
X28210000Y22212500I0J152500D01*
G01*
G37*
G36*
G01*
X27180000Y24912500D02*
X27180000Y25267500D01*
G75*
G02*
X27332500Y25420000I152500J0D01*
G01*
X27637500Y25420000D01*
G75*
G02*
X27790000Y25267500I0J-152500D01*
G01*
X27790000Y24912500D01*
G75*
G02*
X27637500Y24760000I-152500J0D01*
G01*
X27332500Y24760000D01*
G75*
G02*
X27180000Y24912500I0J152500D01*
G01*
G37*
G36*
G01*
X26210000Y24912500D02*
X26210000Y25267500D01*
G75*
G02*
X26362500Y25420000I152500J0D01*
G01*
X26667500Y25420000D01*
G75*
G02*
X26820000Y25267500I0J-152500D01*
G01*
X26820000Y24912500D01*
G75*
G02*
X26667500Y24760000I-152500J0D01*
G01*
X26362500Y24760000D01*
G75*
G02*
X26210000Y24912500I0J152500D01*
G01*
G37*
G36*
G01*
X31280000Y31112500D02*
X31280000Y31467500D01*
G75*
G02*
X31432500Y31620000I152500J0D01*
G01*
X31737500Y31620000D01*
G75*
G02*
X31890000Y31467500I0J-152500D01*
G01*
X31890000Y31112500D01*
G75*
G02*
X31737500Y30960000I-152500J0D01*
G01*
X31432500Y30960000D01*
G75*
G02*
X31280000Y31112500I0J152500D01*
G01*
G37*
G36*
G01*
X30310000Y31112500D02*
X30310000Y31467500D01*
G75*
G02*
X30462500Y31620000I152500J0D01*
G01*
X30767500Y31620000D01*
G75*
G02*
X30920000Y31467500I0J-152500D01*
G01*
X30920000Y31112500D01*
G75*
G02*
X30767500Y30960000I-152500J0D01*
G01*
X30462500Y30960000D01*
G75*
G02*
X30310000Y31112500I0J152500D01*
G01*
G37*
G36*
G01*
X29320000Y25567500D02*
X29320000Y25212500D01*
G75*
G02*
X29167500Y25060000I-152500J0D01*
G01*
X28862500Y25060000D01*
G75*
G02*
X28710000Y25212500I0J152500D01*
G01*
X28710000Y25567500D01*
G75*
G02*
X28862500Y25720000I152500J0D01*
G01*
X29167500Y25720000D01*
G75*
G02*
X29320000Y25567500I0J-152500D01*
G01*
G37*
G36*
G01*
X30290000Y25567500D02*
X30290000Y25212500D01*
G75*
G02*
X30137500Y25060000I-152500J0D01*
G01*
X29832500Y25060000D01*
G75*
G02*
X29680000Y25212500I0J152500D01*
G01*
X29680000Y25567500D01*
G75*
G02*
X29832500Y25720000I152500J0D01*
G01*
X30137500Y25720000D01*
G75*
G02*
X30290000Y25567500I0J-152500D01*
G01*
G37*
G36*
G01*
X33822500Y20210000D02*
X34177500Y20210000D01*
G75*
G02*
X34330000Y20057500I0J-152500D01*
G01*
X34330000Y19752500D01*
G75*
G02*
X34177500Y19600000I-152500J0D01*
G01*
X33822500Y19600000D01*
G75*
G02*
X33670000Y19752500I0J152500D01*
G01*
X33670000Y20057500D01*
G75*
G02*
X33822500Y20210000I152500J0D01*
G01*
G37*
G36*
G01*
X33822500Y21180000D02*
X34177500Y21180000D01*
G75*
G02*
X34330000Y21027500I0J-152500D01*
G01*
X34330000Y20722500D01*
G75*
G02*
X34177500Y20570000I-152500J0D01*
G01*
X33822500Y20570000D01*
G75*
G02*
X33670000Y20722500I0J152500D01*
G01*
X33670000Y21027500D01*
G75*
G02*
X33822500Y21180000I152500J0D01*
G01*
G37*
G36*
G01*
X40677500Y22570000D02*
X40322500Y22570000D01*
G75*
G02*
X40170000Y22722500I0J152500D01*
G01*
X40170000Y23027500D01*
G75*
G02*
X40322500Y23180000I152500J0D01*
G01*
X40677500Y23180000D01*
G75*
G02*
X40830000Y23027500I0J-152500D01*
G01*
X40830000Y22722500D01*
G75*
G02*
X40677500Y22570000I-152500J0D01*
G01*
G37*
G36*
G01*
X40677500Y21600000D02*
X40322500Y21600000D01*
G75*
G02*
X40170000Y21752500I0J152500D01*
G01*
X40170000Y22057500D01*
G75*
G02*
X40322500Y22210000I152500J0D01*
G01*
X40677500Y22210000D01*
G75*
G02*
X40830000Y22057500I0J-152500D01*
G01*
X40830000Y21752500D01*
G75*
G02*
X40677500Y21600000I-152500J0D01*
G01*
G37*
G36*
G01*
X39280000Y17212500D02*
X39280000Y17567500D01*
G75*
G02*
X39432500Y17720000I152500J0D01*
G01*
X39737500Y17720000D01*
G75*
G02*
X39890000Y17567500I0J-152500D01*
G01*
X39890000Y17212500D01*
G75*
G02*
X39737500Y17060000I-152500J0D01*
G01*
X39432500Y17060000D01*
G75*
G02*
X39280000Y17212500I0J152500D01*
G01*
G37*
G36*
G01*
X38310000Y17212500D02*
X38310000Y17567500D01*
G75*
G02*
X38462500Y17720000I152500J0D01*
G01*
X38767500Y17720000D01*
G75*
G02*
X38920000Y17567500I0J-152500D01*
G01*
X38920000Y17212500D01*
G75*
G02*
X38767500Y17060000I-152500J0D01*
G01*
X38462500Y17060000D01*
G75*
G02*
X38310000Y17212500I0J152500D01*
G01*
G37*
G36*
G01*
X33177500Y26470000D02*
X32822500Y26470000D01*
G75*
G02*
X32670000Y26622500I0J152500D01*
G01*
X32670000Y26927500D01*
G75*
G02*
X32822500Y27080000I152500J0D01*
G01*
X33177500Y27080000D01*
G75*
G02*
X33330000Y26927500I0J-152500D01*
G01*
X33330000Y26622500D01*
G75*
G02*
X33177500Y26470000I-152500J0D01*
G01*
G37*
G36*
G01*
X33177500Y25500000D02*
X32822500Y25500000D01*
G75*
G02*
X32670000Y25652500I0J152500D01*
G01*
X32670000Y25957500D01*
G75*
G02*
X32822500Y26110000I152500J0D01*
G01*
X33177500Y26110000D01*
G75*
G02*
X33330000Y25957500I0J-152500D01*
G01*
X33330000Y25652500D01*
G75*
G02*
X33177500Y25500000I-152500J0D01*
G01*
G37*
G36*
G01*
X37520000Y20467500D02*
X37520000Y20112500D01*
G75*
G02*
X37367500Y19960000I-152500J0D01*
G01*
X37062500Y19960000D01*
G75*
G02*
X36910000Y20112500I0J152500D01*
G01*
X36910000Y20467500D01*
G75*
G02*
X37062500Y20620000I152500J0D01*
G01*
X37367500Y20620000D01*
G75*
G02*
X37520000Y20467500I0J-152500D01*
G01*
G37*
G36*
G01*
X38490000Y20467500D02*
X38490000Y20112500D01*
G75*
G02*
X38337500Y19960000I-152500J0D01*
G01*
X38032500Y19960000D01*
G75*
G02*
X37880000Y20112500I0J152500D01*
G01*
X37880000Y20467500D01*
G75*
G02*
X38032500Y20620000I152500J0D01*
G01*
X38337500Y20620000D01*
G75*
G02*
X38490000Y20467500I0J-152500D01*
G01*
G37*
G36*
G01*
X36222500Y21710000D02*
X36577500Y21710000D01*
G75*
G02*
X36730000Y21557500I0J-152500D01*
G01*
X36730000Y21252500D01*
G75*
G02*
X36577500Y21100000I-152500J0D01*
G01*
X36222500Y21100000D01*
G75*
G02*
X36070000Y21252500I0J152500D01*
G01*
X36070000Y21557500D01*
G75*
G02*
X36222500Y21710000I152500J0D01*
G01*
G37*
G36*
G01*
X36222500Y22680000D02*
X36577500Y22680000D01*
G75*
G02*
X36730000Y22527500I0J-152500D01*
G01*
X36730000Y22222500D01*
G75*
G02*
X36577500Y22070000I-152500J0D01*
G01*
X36222500Y22070000D01*
G75*
G02*
X36070000Y22222500I0J152500D01*
G01*
X36070000Y22527500D01*
G75*
G02*
X36222500Y22680000I152500J0D01*
G01*
G37*
G36*
G01*
X26320000Y29367500D02*
X26320000Y29012500D01*
G75*
G02*
X26167500Y28860000I-152500J0D01*
G01*
X25862500Y28860000D01*
G75*
G02*
X25710000Y29012500I0J152500D01*
G01*
X25710000Y29367500D01*
G75*
G02*
X25862500Y29520000I152500J0D01*
G01*
X26167500Y29520000D01*
G75*
G02*
X26320000Y29367500I0J-152500D01*
G01*
G37*
G36*
G01*
X27290000Y29367500D02*
X27290000Y29012500D01*
G75*
G02*
X27137500Y28860000I-152500J0D01*
G01*
X26832500Y28860000D01*
G75*
G02*
X26680000Y29012500I0J152500D01*
G01*
X26680000Y29367500D01*
G75*
G02*
X26832500Y29520000I152500J0D01*
G01*
X27137500Y29520000D01*
G75*
G02*
X27290000Y29367500I0J-152500D01*
G01*
G37*
G36*
G01*
X24620000Y30667500D02*
X24620000Y30312500D01*
G75*
G02*
X24467500Y30160000I-152500J0D01*
G01*
X24162500Y30160000D01*
G75*
G02*
X24010000Y30312500I0J152500D01*
G01*
X24010000Y30667500D01*
G75*
G02*
X24162500Y30820000I152500J0D01*
G01*
X24467500Y30820000D01*
G75*
G02*
X24620000Y30667500I0J-152500D01*
G01*
G37*
G36*
G01*
X25590000Y30667500D02*
X25590000Y30312500D01*
G75*
G02*
X25437500Y30160000I-152500J0D01*
G01*
X25132500Y30160000D01*
G75*
G02*
X24980000Y30312500I0J152500D01*
G01*
X24980000Y30667500D01*
G75*
G02*
X25132500Y30820000I152500J0D01*
G01*
X25437500Y30820000D01*
G75*
G02*
X25590000Y30667500I0J-152500D01*
G01*
G37*
G36*
G01*
X27820000Y26567500D02*
X27820000Y26212500D01*
G75*
G02*
X27667500Y26060000I-152500J0D01*
G01*
X27362500Y26060000D01*
G75*
G02*
X27210000Y26212500I0J152500D01*
G01*
X27210000Y26567500D01*
G75*
G02*
X27362500Y26720000I152500J0D01*
G01*
X27667500Y26720000D01*
G75*
G02*
X27820000Y26567500I0J-152500D01*
G01*
G37*
G36*
G01*
X28790000Y26567500D02*
X28790000Y26212500D01*
G75*
G02*
X28637500Y26060000I-152500J0D01*
G01*
X28332500Y26060000D01*
G75*
G02*
X28180000Y26212500I0J152500D01*
G01*
X28180000Y26567500D01*
G75*
G02*
X28332500Y26720000I152500J0D01*
G01*
X28637500Y26720000D01*
G75*
G02*
X28790000Y26567500I0J-152500D01*
G01*
G37*
G36*
G01*
X27480000Y31012500D02*
X27480000Y31367500D01*
G75*
G02*
X27632500Y31520000I152500J0D01*
G01*
X27937500Y31520000D01*
G75*
G02*
X28090000Y31367500I0J-152500D01*
G01*
X28090000Y31012500D01*
G75*
G02*
X27937500Y30860000I-152500J0D01*
G01*
X27632500Y30860000D01*
G75*
G02*
X27480000Y31012500I0J152500D01*
G01*
G37*
G36*
G01*
X26510000Y31012500D02*
X26510000Y31367500D01*
G75*
G02*
X26662500Y31520000I152500J0D01*
G01*
X26967500Y31520000D01*
G75*
G02*
X27120000Y31367500I0J-152500D01*
G01*
X27120000Y31012500D01*
G75*
G02*
X26967500Y30860000I-152500J0D01*
G01*
X26662500Y30860000D01*
G75*
G02*
X26510000Y31012500I0J152500D01*
G01*
G37*
G36*
G01*
X29000000Y32357500D02*
X29000000Y32002500D01*
G75*
G02*
X28847500Y31850000I-152500J0D01*
G01*
X28542500Y31850000D01*
G75*
G02*
X28390000Y32002500I0J152500D01*
G01*
X28390000Y32357500D01*
G75*
G02*
X28542500Y32510000I152500J0D01*
G01*
X28847500Y32510000D01*
G75*
G02*
X29000000Y32357500I0J-152500D01*
G01*
G37*
G36*
G01*
X29970000Y32357500D02*
X29970000Y32002500D01*
G75*
G02*
X29817500Y31850000I-152500J0D01*
G01*
X29512500Y31850000D01*
G75*
G02*
X29360000Y32002500I0J152500D01*
G01*
X29360000Y32357500D01*
G75*
G02*
X29512500Y32510000I152500J0D01*
G01*
X29817500Y32510000D01*
G75*
G02*
X29970000Y32357500I0J-152500D01*
G01*
G37*
G36*
G01*
X24620000Y31667500D02*
X24620000Y31312500D01*
G75*
G02*
X24467500Y31160000I-152500J0D01*
G01*
X24162500Y31160000D01*
G75*
G02*
X24010000Y31312500I0J152500D01*
G01*
X24010000Y31667500D01*
G75*
G02*
X24162500Y31820000I152500J0D01*
G01*
X24467500Y31820000D01*
G75*
G02*
X24620000Y31667500I0J-152500D01*
G01*
G37*
G36*
G01*
X25590000Y31667500D02*
X25590000Y31312500D01*
G75*
G02*
X25437500Y31160000I-152500J0D01*
G01*
X25132500Y31160000D01*
G75*
G02*
X24980000Y31312500I0J152500D01*
G01*
X24980000Y31667500D01*
G75*
G02*
X25132500Y31820000I152500J0D01*
G01*
X25437500Y31820000D01*
G75*
G02*
X25590000Y31667500I0J-152500D01*
G01*
G37*
G36*
G01*
X31680000Y25212500D02*
X31680000Y25567500D01*
G75*
G02*
X31832500Y25720000I152500J0D01*
G01*
X32137500Y25720000D01*
G75*
G02*
X32290000Y25567500I0J-152500D01*
G01*
X32290000Y25212500D01*
G75*
G02*
X32137500Y25060000I-152500J0D01*
G01*
X31832500Y25060000D01*
G75*
G02*
X31680000Y25212500I0J152500D01*
G01*
G37*
G36*
G01*
X30710000Y25212500D02*
X30710000Y25567500D01*
G75*
G02*
X30862500Y25720000I152500J0D01*
G01*
X31167500Y25720000D01*
G75*
G02*
X31320000Y25567500I0J-152500D01*
G01*
X31320000Y25212500D01*
G75*
G02*
X31167500Y25060000I-152500J0D01*
G01*
X30862500Y25060000D01*
G75*
G02*
X30710000Y25212500I0J152500D01*
G01*
G37*
G36*
G01*
X31380000Y21212500D02*
X31380000Y21567500D01*
G75*
G02*
X31532500Y21720000I152500J0D01*
G01*
X31837500Y21720000D01*
G75*
G02*
X31990000Y21567500I0J-152500D01*
G01*
X31990000Y21212500D01*
G75*
G02*
X31837500Y21060000I-152500J0D01*
G01*
X31532500Y21060000D01*
G75*
G02*
X31380000Y21212500I0J152500D01*
G01*
G37*
G36*
G01*
X30410000Y21212500D02*
X30410000Y21567500D01*
G75*
G02*
X30562500Y21720000I152500J0D01*
G01*
X30867500Y21720000D01*
G75*
G02*
X31020000Y21567500I0J-152500D01*
G01*
X31020000Y21212500D01*
G75*
G02*
X30867500Y21060000I-152500J0D01*
G01*
X30562500Y21060000D01*
G75*
G02*
X30410000Y21212500I0J152500D01*
G01*
G37*
G36*
G01*
X31380000Y23112500D02*
X31380000Y23467500D01*
G75*
G02*
X31532500Y23620000I152500J0D01*
G01*
X31837500Y23620000D01*
G75*
G02*
X31990000Y23467500I0J-152500D01*
G01*
X31990000Y23112500D01*
G75*
G02*
X31837500Y22960000I-152500J0D01*
G01*
X31532500Y22960000D01*
G75*
G02*
X31380000Y23112500I0J152500D01*
G01*
G37*
G36*
G01*
X30410000Y23112500D02*
X30410000Y23467500D01*
G75*
G02*
X30562500Y23620000I152500J0D01*
G01*
X30867500Y23620000D01*
G75*
G02*
X31020000Y23467500I0J-152500D01*
G01*
X31020000Y23112500D01*
G75*
G02*
X30867500Y22960000I-152500J0D01*
G01*
X30562500Y22960000D01*
G75*
G02*
X30410000Y23112500I0J152500D01*
G01*
G37*
G36*
G01*
X29020000Y27847500D02*
X29020000Y27492500D01*
G75*
G02*
X28867500Y27340000I-152500J0D01*
G01*
X28562500Y27340000D01*
G75*
G02*
X28410000Y27492500I0J152500D01*
G01*
X28410000Y27847500D01*
G75*
G02*
X28562500Y28000000I152500J0D01*
G01*
X28867500Y28000000D01*
G75*
G02*
X29020000Y27847500I0J-152500D01*
G01*
G37*
G36*
G01*
X29990000Y27847500D02*
X29990000Y27492500D01*
G75*
G02*
X29837500Y27340000I-152500J0D01*
G01*
X29532500Y27340000D01*
G75*
G02*
X29380000Y27492500I0J152500D01*
G01*
X29380000Y27847500D01*
G75*
G02*
X29532500Y28000000I152500J0D01*
G01*
X29837500Y28000000D01*
G75*
G02*
X29990000Y27847500I0J-152500D01*
G01*
G37*
G36*
G01*
X24620000Y25767500D02*
X24620000Y25412500D01*
G75*
G02*
X24467500Y25260000I-152500J0D01*
G01*
X24162500Y25260000D01*
G75*
G02*
X24010000Y25412500I0J152500D01*
G01*
X24010000Y25767500D01*
G75*
G02*
X24162500Y25920000I152500J0D01*
G01*
X24467500Y25920000D01*
G75*
G02*
X24620000Y25767500I0J-152500D01*
G01*
G37*
G36*
G01*
X25590000Y25767500D02*
X25590000Y25412500D01*
G75*
G02*
X25437500Y25260000I-152500J0D01*
G01*
X25132500Y25260000D01*
G75*
G02*
X24980000Y25412500I0J152500D01*
G01*
X24980000Y25767500D01*
G75*
G02*
X25132500Y25920000I152500J0D01*
G01*
X25437500Y25920000D01*
G75*
G02*
X25590000Y25767500I0J-152500D01*
G01*
G37*
D26*
X11800000Y37390000D03*
D27*
X10550000Y35390000D03*
X11050000Y35390000D03*
X11550000Y35390000D03*
X12050000Y35390000D03*
X12550000Y35390000D03*
X13050000Y35390000D03*
D28*
X13800000Y36140000D03*
X13800000Y36640000D03*
X13800000Y37140000D03*
X13800000Y37640000D03*
X13800000Y38140000D03*
X13800000Y38640000D03*
D27*
X13050000Y39390000D03*
X12550000Y39390000D03*
X12050000Y39390000D03*
X11550000Y39390000D03*
X11050000Y39390000D03*
X10550000Y39390000D03*
D28*
X9800000Y38640000D03*
X9800000Y38140000D03*
X9800000Y37640000D03*
X9800000Y37140000D03*
X9800000Y36640000D03*
X9800000Y36140000D03*
D24*
X14460000Y6330000D03*
X17000000Y6330000D03*
X14460000Y3790000D03*
X17000000Y3790000D03*
X14460000Y1250000D03*
D25*
X17000000Y1250000D03*
D29*
X7850000Y35890000D03*
X7850000Y38090000D03*
X6150000Y38090000D03*
X6150000Y35890000D03*
D30*
X23000000Y11190000D03*
X27000000Y11190000D03*
X34200000Y11190000D03*
X30200000Y11190000D03*
D31*
X39400000Y1890000D03*
X32600000Y1890000D03*
D32*
X37000000Y7090000D03*
X35000000Y7090000D03*
D33*
X1270000Y1250000D03*
X3810000Y1250000D03*
D34*
X1270000Y3790000D03*
X3810000Y3790000D03*
D33*
X1270000Y6330000D03*
X3810000Y6330000D03*
X1270000Y8870000D03*
X3810000Y8870000D03*
X1270000Y11410000D03*
X3810000Y11410000D03*
X1270000Y13950000D03*
X3810000Y13950000D03*
X1270000Y16490000D03*
X3810000Y16490000D03*
X1270000Y19030000D03*
X3810000Y19030000D03*
X1270000Y21570000D03*
X3810000Y21570000D03*
D34*
X1270000Y24110000D03*
X3810000Y24110000D03*
D33*
X1270000Y26650000D03*
X3810000Y26650000D03*
X1270000Y29190000D03*
X3810000Y29190000D03*
X1270000Y31730000D03*
X3810000Y31730000D03*
X1270000Y34270000D03*
X3810000Y34270000D03*
X1270000Y36810000D03*
X3810000Y36810000D03*
X1270000Y39350000D03*
X3810000Y39350000D03*
X1270000Y41890000D03*
X3810000Y41890000D03*
X1270000Y44430000D03*
X3810000Y44430000D03*
D34*
X1270000Y46970000D03*
X3810000Y46970000D03*
D33*
X1270000Y49510000D03*
X3810000Y49510000D03*
D18*
X14920000Y48000000D03*
X28060000Y48000000D03*
D19*
X25490000Y44500000D03*
X23490000Y44500000D03*
X21490000Y44500000D03*
X19490000Y44500000D03*
X17490000Y44500000D03*
X17990000Y46000000D03*
X20490000Y46000000D03*
X22490000Y46000000D03*
X24990000Y46000000D03*
D33*
X58710000Y49510000D03*
X56170000Y49510000D03*
D34*
X58710000Y46970000D03*
X56170000Y46970000D03*
D33*
X58710000Y44430000D03*
X56170000Y44430000D03*
X58710000Y41890000D03*
X56170000Y41890000D03*
X58710000Y39350000D03*
X56170000Y39350000D03*
X58710000Y36810000D03*
X56170000Y36810000D03*
X58710000Y34270000D03*
X56170000Y34270000D03*
X58710000Y31730000D03*
X56170000Y31730000D03*
X58710000Y29190000D03*
X56170000Y29190000D03*
D34*
X58710000Y26650000D03*
X56170000Y26650000D03*
D33*
X58710000Y24110000D03*
X56170000Y24110000D03*
X58710000Y21570000D03*
X56170000Y21570000D03*
X58710000Y19030000D03*
X56170000Y19030000D03*
X58710000Y16490000D03*
X56170000Y16490000D03*
X58710000Y13950000D03*
X56170000Y13950000D03*
X58710000Y11410000D03*
X56170000Y11410000D03*
X58710000Y8870000D03*
X56170000Y8870000D03*
X58710000Y6330000D03*
X56170000Y6330000D03*
D34*
X58710000Y3790000D03*
X56170000Y3790000D03*
D33*
X58710000Y1250000D03*
X56170000Y1250000D03*
G36*
G01*
X23380000Y33212500D02*
X23380000Y33567500D01*
G75*
G02*
X23532500Y33720000I152500J0D01*
G01*
X23837500Y33720000D01*
G75*
G02*
X23990000Y33567500I0J-152500D01*
G01*
X23990000Y33212500D01*
G75*
G02*
X23837500Y33060000I-152500J0D01*
G01*
X23532500Y33060000D01*
G75*
G02*
X23380000Y33212500I0J152500D01*
G01*
G37*
G36*
G01*
X22410000Y33212500D02*
X22410000Y33567500D01*
G75*
G02*
X22562500Y33720000I152500J0D01*
G01*
X22867500Y33720000D01*
G75*
G02*
X23020000Y33567500I0J-152500D01*
G01*
X23020000Y33212500D01*
G75*
G02*
X22867500Y33060000I-152500J0D01*
G01*
X22562500Y33060000D01*
G75*
G02*
X22410000Y33212500I0J152500D01*
G01*
G37*
G36*
G01*
X24577500Y35570000D02*
X24222500Y35570000D01*
G75*
G02*
X24070000Y35722500I0J152500D01*
G01*
X24070000Y36027500D01*
G75*
G02*
X24222500Y36180000I152500J0D01*
G01*
X24577500Y36180000D01*
G75*
G02*
X24730000Y36027500I0J-152500D01*
G01*
X24730000Y35722500D01*
G75*
G02*
X24577500Y35570000I-152500J0D01*
G01*
G37*
G36*
G01*
X24577500Y34600000D02*
X24222500Y34600000D01*
G75*
G02*
X24070000Y34752500I0J152500D01*
G01*
X24070000Y35057500D01*
G75*
G02*
X24222500Y35210000I152500J0D01*
G01*
X24577500Y35210000D01*
G75*
G02*
X24730000Y35057500I0J-152500D01*
G01*
X24730000Y34752500D01*
G75*
G02*
X24577500Y34600000I-152500J0D01*
G01*
G37*
G36*
G01*
X28880000Y34212500D02*
X28880000Y34567500D01*
G75*
G02*
X29032500Y34720000I152500J0D01*
G01*
X29337500Y34720000D01*
G75*
G02*
X29490000Y34567500I0J-152500D01*
G01*
X29490000Y34212500D01*
G75*
G02*
X29337500Y34060000I-152500J0D01*
G01*
X29032500Y34060000D01*
G75*
G02*
X28880000Y34212500I0J152500D01*
G01*
G37*
G36*
G01*
X27910000Y34212500D02*
X27910000Y34567500D01*
G75*
G02*
X28062500Y34720000I152500J0D01*
G01*
X28367500Y34720000D01*
G75*
G02*
X28520000Y34567500I0J-152500D01*
G01*
X28520000Y34212500D01*
G75*
G02*
X28367500Y34060000I-152500J0D01*
G01*
X28062500Y34060000D01*
G75*
G02*
X27910000Y34212500I0J152500D01*
G01*
G37*
G36*
G01*
X29280000Y33012500D02*
X29280000Y33367500D01*
G75*
G02*
X29432500Y33520000I152500J0D01*
G01*
X29737500Y33520000D01*
G75*
G02*
X29890000Y33367500I0J-152500D01*
G01*
X29890000Y33012500D01*
G75*
G02*
X29737500Y32860000I-152500J0D01*
G01*
X29432500Y32860000D01*
G75*
G02*
X29280000Y33012500I0J152500D01*
G01*
G37*
G36*
G01*
X28310000Y33012500D02*
X28310000Y33367500D01*
G75*
G02*
X28462500Y33520000I152500J0D01*
G01*
X28767500Y33520000D01*
G75*
G02*
X28920000Y33367500I0J-152500D01*
G01*
X28920000Y33012500D01*
G75*
G02*
X28767500Y32860000I-152500J0D01*
G01*
X28462500Y32860000D01*
G75*
G02*
X28310000Y33012500I0J152500D01*
G01*
G37*
G36*
G01*
X25480000Y33012500D02*
X25480000Y33367500D01*
G75*
G02*
X25632500Y33520000I152500J0D01*
G01*
X25937500Y33520000D01*
G75*
G02*
X26090000Y33367500I0J-152500D01*
G01*
X26090000Y33012500D01*
G75*
G02*
X25937500Y32860000I-152500J0D01*
G01*
X25632500Y32860000D01*
G75*
G02*
X25480000Y33012500I0J152500D01*
G01*
G37*
G36*
G01*
X24510000Y33012500D02*
X24510000Y33367500D01*
G75*
G02*
X24662500Y33520000I152500J0D01*
G01*
X24967500Y33520000D01*
G75*
G02*
X25120000Y33367500I0J-152500D01*
G01*
X25120000Y33012500D01*
G75*
G02*
X24967500Y32860000I-152500J0D01*
G01*
X24662500Y32860000D01*
G75*
G02*
X24510000Y33012500I0J152500D01*
G01*
G37*
G36*
G01*
X27020000Y33367500D02*
X27020000Y33012500D01*
G75*
G02*
X26867500Y32860000I-152500J0D01*
G01*
X26562500Y32860000D01*
G75*
G02*
X26410000Y33012500I0J152500D01*
G01*
X26410000Y33367500D01*
G75*
G02*
X26562500Y33520000I152500J0D01*
G01*
X26867500Y33520000D01*
G75*
G02*
X27020000Y33367500I0J-152500D01*
G01*
G37*
G36*
G01*
X27990000Y33367500D02*
X27990000Y33012500D01*
G75*
G02*
X27837500Y32860000I-152500J0D01*
G01*
X27532500Y32860000D01*
G75*
G02*
X27380000Y33012500I0J152500D01*
G01*
X27380000Y33367500D01*
G75*
G02*
X27532500Y33520000I152500J0D01*
G01*
X27837500Y33520000D01*
G75*
G02*
X27990000Y33367500I0J-152500D01*
G01*
G37*
G36*
G01*
X50982500Y26600000D02*
X51337500Y26600000D01*
G75*
G02*
X51490000Y26447500I0J-152500D01*
G01*
X51490000Y26142500D01*
G75*
G02*
X51337500Y25990000I-152500J0D01*
G01*
X50982500Y25990000D01*
G75*
G02*
X50830000Y26142500I0J152500D01*
G01*
X50830000Y26447500D01*
G75*
G02*
X50982500Y26600000I152500J0D01*
G01*
G37*
G36*
G01*
X50982500Y27570000D02*
X51337500Y27570000D01*
G75*
G02*
X51490000Y27417500I0J-152500D01*
G01*
X51490000Y27112500D01*
G75*
G02*
X51337500Y26960000I-152500J0D01*
G01*
X50982500Y26960000D01*
G75*
G02*
X50830000Y27112500I0J152500D01*
G01*
X50830000Y27417500D01*
G75*
G02*
X50982500Y27570000I152500J0D01*
G01*
G37*
M02*
