G04 #@! TF.GenerationSoftware,KiCad,Pcbnew,5.1.6-c6e7f7d~87~ubuntu20.04.1*
G04 #@! TF.CreationDate,2020-08-09T17:29:32-07:00*
G04 #@! TF.ProjectId,artix7-pcie-v2,61727469-7837-42d7-9063-69652d76322e,rev?*
G04 #@! TF.SameCoordinates,PX69f4060PY6b00940*
G04 #@! TF.FileFunction,Copper,L4,Bot*
G04 #@! TF.FilePolarity,Positive*
%FSLAX46Y46*%
G04 Gerber Fmt 4.6, Leading zero omitted, Abs format (unit mm)*
G04 Created by KiCad (PCBNEW 5.1.6-c6e7f7d~87~ubuntu20.04.1) date 2020-08-09 17:29:32*
%MOMM*%
%LPD*%
G01*
G04 APERTURE LIST*
G04 #@! TA.AperFunction,EtchedComponent*
%ADD10C,0.152400*%
G04 #@! TD*
G04 #@! TA.AperFunction,SMDPad,CuDef*
%ADD11C,1.500000*%
G04 #@! TD*
G04 #@! TA.AperFunction,ComponentPad*
%ADD12C,3.000000*%
G04 #@! TD*
G04 #@! TA.AperFunction,ComponentPad*
%ADD13C,1.200000*%
G04 #@! TD*
G04 #@! TA.AperFunction,ComponentPad*
%ADD14C,4.700000*%
G04 #@! TD*
G04 #@! TA.AperFunction,ComponentPad*
%ADD15C,0.550000*%
G04 #@! TD*
G04 #@! TA.AperFunction,ComponentPad*
%ADD16O,1.500000X2.200000*%
G04 #@! TD*
G04 #@! TA.AperFunction,ComponentPad*
%ADD17C,2.000000*%
G04 #@! TD*
G04 #@! TA.AperFunction,ComponentPad*
%ADD18O,1.700000X1.700000*%
G04 #@! TD*
G04 #@! TA.AperFunction,ComponentPad*
%ADD19R,1.700000X1.700000*%
G04 #@! TD*
G04 #@! TA.AperFunction,SMDPad,CuDef*
%ADD20R,2.900000X2.900000*%
G04 #@! TD*
G04 #@! TA.AperFunction,SMDPad,CuDef*
%ADD21R,0.300000X0.750000*%
G04 #@! TD*
G04 #@! TA.AperFunction,SMDPad,CuDef*
%ADD22R,0.750000X0.300000*%
G04 #@! TD*
G04 #@! TA.AperFunction,SMDPad,CuDef*
%ADD23R,1.905000X1.092200*%
G04 #@! TD*
G04 #@! TA.AperFunction,SMDPad,CuDef*
%ADD24R,1.200000X1.400000*%
G04 #@! TD*
G04 #@! TA.AperFunction,SMDPad,CuDef*
%ADD25R,2.500000X1.800000*%
G04 #@! TD*
G04 #@! TA.AperFunction,SMDPad,CuDef*
%ADD26R,1.600000X3.400000*%
G04 #@! TD*
G04 #@! TA.AperFunction,SMDPad,CuDef*
%ADD27R,1.000000X4.600000*%
G04 #@! TD*
G04 #@! TA.AperFunction,ComponentPad*
%ADD28O,1.727200X1.727200*%
G04 #@! TD*
G04 #@! TA.AperFunction,ComponentPad*
%ADD29R,1.727200X1.727200*%
G04 #@! TD*
G04 #@! TA.AperFunction,SMDPad,CuDef*
%ADD30R,1.060000X0.650000*%
G04 #@! TD*
G04 #@! TA.AperFunction,ComponentPad*
%ADD31O,1.000000X1.000000*%
G04 #@! TD*
G04 #@! TA.AperFunction,ComponentPad*
%ADD32R,1.000000X1.000000*%
G04 #@! TD*
G04 #@! TA.AperFunction,ViaPad*
%ADD33C,0.550000*%
G04 #@! TD*
G04 #@! TA.AperFunction,Conductor*
%ADD34C,0.127000*%
G04 #@! TD*
G04 #@! TA.AperFunction,Conductor*
%ADD35C,0.762000*%
G04 #@! TD*
G04 #@! TA.AperFunction,Conductor*
%ADD36C,0.508000*%
G04 #@! TD*
G04 #@! TA.AperFunction,Conductor*
%ADD37C,0.300000*%
G04 #@! TD*
G04 #@! TA.AperFunction,Conductor*
%ADD38C,1.270000*%
G04 #@! TD*
G04 APERTURE END LIST*
D10*
X47182500Y15990000D02*
X47182500Y15990000D01*
X47182500Y15990000D02*
X47182500Y15990000D01*
X47182500Y15990000D02*
X47182500Y15990000D01*
X47182500Y15990000D02*
X47182500Y15990000D01*
X47182500Y15990000D02*
X47182500Y15990000D01*
X47182500Y15990000D02*
X47182500Y15990000D01*
X47182500Y15990000D02*
X47182500Y15990000D01*
X47182500Y15990000D02*
X47182500Y15990000D01*
X45277500Y15990000D02*
X45277500Y15990000D01*
X45277500Y15990000D02*
X45277500Y15990000D01*
X45277500Y15990000D02*
X45277500Y15990000D01*
X45277500Y15990000D02*
X45277500Y15990000D01*
X45277500Y15990000D02*
X45277500Y15990000D01*
X45277500Y15990000D02*
X45277500Y15990000D01*
X45277500Y15990000D02*
X45277500Y15990000D01*
X45277500Y15990000D02*
X45277500Y15990000D01*
X12797500Y15990000D02*
X12797500Y15990000D01*
X12797500Y15990000D02*
X12797500Y15990000D01*
X12797500Y15990000D02*
X12797500Y15990000D01*
X12797500Y15990000D02*
X12797500Y15990000D01*
X12797500Y15990000D02*
X12797500Y15990000D01*
X12797500Y15990000D02*
X12797500Y15990000D01*
X12797500Y15990000D02*
X12797500Y15990000D01*
X12797500Y15990000D02*
X12797500Y15990000D01*
X14702500Y15990000D02*
X14702500Y15990000D01*
X14702500Y15990000D02*
X14702500Y15990000D01*
X14702500Y15990000D02*
X14702500Y15990000D01*
X14702500Y15990000D02*
X14702500Y15990000D01*
X14702500Y15990000D02*
X14702500Y15990000D01*
X14702500Y15990000D02*
X14702500Y15990000D01*
X14702500Y15990000D02*
X14702500Y15990000D01*
X14702500Y15990000D02*
X14702500Y15990000D01*
X47202500Y25390000D02*
X47202500Y25390000D01*
X47202500Y25390000D02*
X47202500Y25390000D01*
X47202500Y25390000D02*
X47202500Y25390000D01*
X47202500Y25390000D02*
X47202500Y25390000D01*
X47202500Y25390000D02*
X47202500Y25390000D01*
X47202500Y25390000D02*
X47202500Y25390000D01*
X47202500Y25390000D02*
X47202500Y25390000D01*
X47202500Y25390000D02*
X47202500Y25390000D01*
X45297500Y25390000D02*
X45297500Y25390000D01*
X45297500Y25390000D02*
X45297500Y25390000D01*
X45297500Y25390000D02*
X45297500Y25390000D01*
X45297500Y25390000D02*
X45297500Y25390000D01*
X45297500Y25390000D02*
X45297500Y25390000D01*
X45297500Y25390000D02*
X45297500Y25390000D01*
X45297500Y25390000D02*
X45297500Y25390000D01*
X45297500Y25390000D02*
X45297500Y25390000D01*
X47182500Y34790000D02*
X47182500Y34790000D01*
X47182500Y34790000D02*
X47182500Y34790000D01*
X47182500Y34790000D02*
X47182500Y34790000D01*
X47182500Y34790000D02*
X47182500Y34790000D01*
X47182500Y34790000D02*
X47182500Y34790000D01*
X47182500Y34790000D02*
X47182500Y34790000D01*
X47182500Y34790000D02*
X47182500Y34790000D01*
X47182500Y34790000D02*
X47182500Y34790000D01*
X45277500Y34790000D02*
X45277500Y34790000D01*
X45277500Y34790000D02*
X45277500Y34790000D01*
X45277500Y34790000D02*
X45277500Y34790000D01*
X45277500Y34790000D02*
X45277500Y34790000D01*
X45277500Y34790000D02*
X45277500Y34790000D01*
X45277500Y34790000D02*
X45277500Y34790000D01*
X45277500Y34790000D02*
X45277500Y34790000D01*
X45277500Y34790000D02*
X45277500Y34790000D01*
X12817500Y25390000D02*
X12817500Y25390000D01*
X12817500Y25390000D02*
X12817500Y25390000D01*
X12817500Y25390000D02*
X12817500Y25390000D01*
X12817500Y25390000D02*
X12817500Y25390000D01*
X12817500Y25390000D02*
X12817500Y25390000D01*
X12817500Y25390000D02*
X12817500Y25390000D01*
X12817500Y25390000D02*
X12817500Y25390000D01*
X12817500Y25390000D02*
X12817500Y25390000D01*
X14722500Y25390000D02*
X14722500Y25390000D01*
X14722500Y25390000D02*
X14722500Y25390000D01*
X14722500Y25390000D02*
X14722500Y25390000D01*
X14722500Y25390000D02*
X14722500Y25390000D01*
X14722500Y25390000D02*
X14722500Y25390000D01*
X14722500Y25390000D02*
X14722500Y25390000D01*
X14722500Y25390000D02*
X14722500Y25390000D01*
X14722500Y25390000D02*
X14722500Y25390000D01*
G04 #@! TA.AperFunction,SMDPad,CuDef*
G36*
G01*
X43446250Y17400000D02*
X42533750Y17400000D01*
G75*
G02*
X42290000Y17643750I0J243750D01*
G01*
X42290000Y18131250D01*
G75*
G02*
X42533750Y18375000I243750J0D01*
G01*
X43446250Y18375000D01*
G75*
G02*
X43690000Y18131250I0J-243750D01*
G01*
X43690000Y17643750D01*
G75*
G02*
X43446250Y17400000I-243750J0D01*
G01*
G37*
G04 #@! TD.AperFunction*
G04 #@! TA.AperFunction,SMDPad,CuDef*
G36*
G01*
X43446250Y15525000D02*
X42533750Y15525000D01*
G75*
G02*
X42290000Y15768750I0J243750D01*
G01*
X42290000Y16256250D01*
G75*
G02*
X42533750Y16500000I243750J0D01*
G01*
X43446250Y16500000D01*
G75*
G02*
X43690000Y16256250I0J-243750D01*
G01*
X43690000Y15768750D01*
G75*
G02*
X43446250Y15525000I-243750J0D01*
G01*
G37*
G04 #@! TD.AperFunction*
G04 #@! TA.AperFunction,SMDPad,CuDef*
G36*
G01*
X16543750Y15140000D02*
X17456250Y15140000D01*
G75*
G02*
X17700000Y14896250I0J-243750D01*
G01*
X17700000Y14408750D01*
G75*
G02*
X17456250Y14165000I-243750J0D01*
G01*
X16543750Y14165000D01*
G75*
G02*
X16300000Y14408750I0J243750D01*
G01*
X16300000Y14896250D01*
G75*
G02*
X16543750Y15140000I243750J0D01*
G01*
G37*
G04 #@! TD.AperFunction*
G04 #@! TA.AperFunction,SMDPad,CuDef*
G36*
G01*
X16543750Y17015000D02*
X17456250Y17015000D01*
G75*
G02*
X17700000Y16771250I0J-243750D01*
G01*
X17700000Y16283750D01*
G75*
G02*
X17456250Y16040000I-243750J0D01*
G01*
X16543750Y16040000D01*
G75*
G02*
X16300000Y16283750I0J243750D01*
G01*
X16300000Y16771250D01*
G75*
G02*
X16543750Y17015000I243750J0D01*
G01*
G37*
G04 #@! TD.AperFunction*
G04 #@! TA.AperFunction,SMDPad,CuDef*
G36*
G01*
X43456250Y26240000D02*
X42543750Y26240000D01*
G75*
G02*
X42300000Y26483750I0J243750D01*
G01*
X42300000Y26971250D01*
G75*
G02*
X42543750Y27215000I243750J0D01*
G01*
X43456250Y27215000D01*
G75*
G02*
X43700000Y26971250I0J-243750D01*
G01*
X43700000Y26483750D01*
G75*
G02*
X43456250Y26240000I-243750J0D01*
G01*
G37*
G04 #@! TD.AperFunction*
G04 #@! TA.AperFunction,SMDPad,CuDef*
G36*
G01*
X43456250Y24365000D02*
X42543750Y24365000D01*
G75*
G02*
X42300000Y24608750I0J243750D01*
G01*
X42300000Y25096250D01*
G75*
G02*
X42543750Y25340000I243750J0D01*
G01*
X43456250Y25340000D01*
G75*
G02*
X43700000Y25096250I0J-243750D01*
G01*
X43700000Y24608750D01*
G75*
G02*
X43456250Y24365000I-243750J0D01*
G01*
G37*
G04 #@! TD.AperFunction*
G04 #@! TA.AperFunction,SMDPad,CuDef*
G36*
G01*
X43456250Y35640000D02*
X42543750Y35640000D01*
G75*
G02*
X42300000Y35883750I0J243750D01*
G01*
X42300000Y36371250D01*
G75*
G02*
X42543750Y36615000I243750J0D01*
G01*
X43456250Y36615000D01*
G75*
G02*
X43700000Y36371250I0J-243750D01*
G01*
X43700000Y35883750D01*
G75*
G02*
X43456250Y35640000I-243750J0D01*
G01*
G37*
G04 #@! TD.AperFunction*
G04 #@! TA.AperFunction,SMDPad,CuDef*
G36*
G01*
X43456250Y33765000D02*
X42543750Y33765000D01*
G75*
G02*
X42300000Y34008750I0J243750D01*
G01*
X42300000Y34496250D01*
G75*
G02*
X42543750Y34740000I243750J0D01*
G01*
X43456250Y34740000D01*
G75*
G02*
X43700000Y34496250I0J-243750D01*
G01*
X43700000Y34008750D01*
G75*
G02*
X43456250Y33765000I-243750J0D01*
G01*
G37*
G04 #@! TD.AperFunction*
G04 #@! TA.AperFunction,SMDPad,CuDef*
G36*
G01*
X16543750Y24202500D02*
X17456250Y24202500D01*
G75*
G02*
X17700000Y23958750I0J-243750D01*
G01*
X17700000Y23471250D01*
G75*
G02*
X17456250Y23227500I-243750J0D01*
G01*
X16543750Y23227500D01*
G75*
G02*
X16300000Y23471250I0J243750D01*
G01*
X16300000Y23958750D01*
G75*
G02*
X16543750Y24202500I243750J0D01*
G01*
G37*
G04 #@! TD.AperFunction*
G04 #@! TA.AperFunction,SMDPad,CuDef*
G36*
G01*
X16543750Y26077500D02*
X17456250Y26077500D01*
G75*
G02*
X17700000Y25833750I0J-243750D01*
G01*
X17700000Y25346250D01*
G75*
G02*
X17456250Y25102500I-243750J0D01*
G01*
X16543750Y25102500D01*
G75*
G02*
X16300000Y25346250I0J243750D01*
G01*
X16300000Y25833750D01*
G75*
G02*
X16543750Y26077500I243750J0D01*
G01*
G37*
G04 #@! TD.AperFunction*
G04 #@! TA.AperFunction,SMDPad,CuDef*
G36*
G01*
X47727500Y43700000D02*
X48072500Y43700000D01*
G75*
G02*
X48220000Y43552500I0J-147500D01*
G01*
X48220000Y43257500D01*
G75*
G02*
X48072500Y43110000I-147500J0D01*
G01*
X47727500Y43110000D01*
G75*
G02*
X47580000Y43257500I0J147500D01*
G01*
X47580000Y43552500D01*
G75*
G02*
X47727500Y43700000I147500J0D01*
G01*
G37*
G04 #@! TD.AperFunction*
G04 #@! TA.AperFunction,SMDPad,CuDef*
G36*
G01*
X47727500Y44670000D02*
X48072500Y44670000D01*
G75*
G02*
X48220000Y44522500I0J-147500D01*
G01*
X48220000Y44227500D01*
G75*
G02*
X48072500Y44080000I-147500J0D01*
G01*
X47727500Y44080000D01*
G75*
G02*
X47580000Y44227500I0J147500D01*
G01*
X47580000Y44522500D01*
G75*
G02*
X47727500Y44670000I147500J0D01*
G01*
G37*
G04 #@! TD.AperFunction*
G04 #@! TA.AperFunction,SMDPad,CuDef*
G36*
G01*
X14527500Y43800000D02*
X14872500Y43800000D01*
G75*
G02*
X15020000Y43652500I0J-147500D01*
G01*
X15020000Y43357500D01*
G75*
G02*
X14872500Y43210000I-147500J0D01*
G01*
X14527500Y43210000D01*
G75*
G02*
X14380000Y43357500I0J147500D01*
G01*
X14380000Y43652500D01*
G75*
G02*
X14527500Y43800000I147500J0D01*
G01*
G37*
G04 #@! TD.AperFunction*
G04 #@! TA.AperFunction,SMDPad,CuDef*
G36*
G01*
X14527500Y44770000D02*
X14872500Y44770000D01*
G75*
G02*
X15020000Y44622500I0J-147500D01*
G01*
X15020000Y44327500D01*
G75*
G02*
X14872500Y44180000I-147500J0D01*
G01*
X14527500Y44180000D01*
G75*
G02*
X14380000Y44327500I0J147500D01*
G01*
X14380000Y44622500D01*
G75*
G02*
X14527500Y44770000I147500J0D01*
G01*
G37*
G04 #@! TD.AperFunction*
G04 #@! TA.AperFunction,SMDPad,CuDef*
G36*
G01*
X20850000Y30515001D02*
X20850000Y29664999D01*
G75*
G02*
X20600001Y29415000I-249999J0D01*
G01*
X19699999Y29415000D01*
G75*
G02*
X19450000Y29664999I0J249999D01*
G01*
X19450000Y30515001D01*
G75*
G02*
X19699999Y30765000I249999J0D01*
G01*
X20600001Y30765000D01*
G75*
G02*
X20850000Y30515001I0J-249999D01*
G01*
G37*
G04 #@! TD.AperFunction*
G04 #@! TA.AperFunction,SMDPad,CuDef*
G36*
G01*
X23550000Y30515001D02*
X23550000Y29664999D01*
G75*
G02*
X23300001Y29415000I-249999J0D01*
G01*
X22399999Y29415000D01*
G75*
G02*
X22150000Y29664999I0J249999D01*
G01*
X22150000Y30515001D01*
G75*
G02*
X22399999Y30765000I249999J0D01*
G01*
X23300001Y30765000D01*
G75*
G02*
X23550000Y30515001I0J-249999D01*
G01*
G37*
G04 #@! TD.AperFunction*
G04 #@! TA.AperFunction,SMDPad,CuDef*
G36*
G01*
X21150000Y21064999D02*
X21150000Y21915001D01*
G75*
G02*
X21399999Y22165000I249999J0D01*
G01*
X22300001Y22165000D01*
G75*
G02*
X22550000Y21915001I0J-249999D01*
G01*
X22550000Y21064999D01*
G75*
G02*
X22300001Y20815000I-249999J0D01*
G01*
X21399999Y20815000D01*
G75*
G02*
X21150000Y21064999I0J249999D01*
G01*
G37*
G04 #@! TD.AperFunction*
G04 #@! TA.AperFunction,SMDPad,CuDef*
G36*
G01*
X18450000Y21064999D02*
X18450000Y21915001D01*
G75*
G02*
X18699999Y22165000I249999J0D01*
G01*
X19600001Y22165000D01*
G75*
G02*
X19850000Y21915001I0J-249999D01*
G01*
X19850000Y21064999D01*
G75*
G02*
X19600001Y20815000I-249999J0D01*
G01*
X18699999Y20815000D01*
G75*
G02*
X18450000Y21064999I0J249999D01*
G01*
G37*
G04 #@! TD.AperFunction*
G04 #@! TA.AperFunction,SMDPad,CuDef*
G36*
G01*
X37150000Y36364999D02*
X37150000Y37215001D01*
G75*
G02*
X37399999Y37465000I249999J0D01*
G01*
X38300001Y37465000D01*
G75*
G02*
X38550000Y37215001I0J-249999D01*
G01*
X38550000Y36364999D01*
G75*
G02*
X38300001Y36115000I-249999J0D01*
G01*
X37399999Y36115000D01*
G75*
G02*
X37150000Y36364999I0J249999D01*
G01*
G37*
G04 #@! TD.AperFunction*
G04 #@! TA.AperFunction,SMDPad,CuDef*
G36*
G01*
X34450000Y36364999D02*
X34450000Y37215001D01*
G75*
G02*
X34699999Y37465000I249999J0D01*
G01*
X35600001Y37465000D01*
G75*
G02*
X35850000Y37215001I0J-249999D01*
G01*
X35850000Y36364999D01*
G75*
G02*
X35600001Y36115000I-249999J0D01*
G01*
X34699999Y36115000D01*
G75*
G02*
X34450000Y36364999I0J249999D01*
G01*
G37*
G04 #@! TD.AperFunction*
G04 #@! TA.AperFunction,SMDPad,CuDef*
G36*
G01*
X54025001Y43040000D02*
X53174999Y43040000D01*
G75*
G02*
X52925000Y43289999I0J249999D01*
G01*
X52925000Y44190001D01*
G75*
G02*
X53174999Y44440000I249999J0D01*
G01*
X54025001Y44440000D01*
G75*
G02*
X54275000Y44190001I0J-249999D01*
G01*
X54275000Y43289999D01*
G75*
G02*
X54025001Y43040000I-249999J0D01*
G01*
G37*
G04 #@! TD.AperFunction*
G04 #@! TA.AperFunction,SMDPad,CuDef*
G36*
G01*
X54025001Y40340000D02*
X53174999Y40340000D01*
G75*
G02*
X52925000Y40589999I0J249999D01*
G01*
X52925000Y41490001D01*
G75*
G02*
X53174999Y41740000I249999J0D01*
G01*
X54025001Y41740000D01*
G75*
G02*
X54275000Y41490001I0J-249999D01*
G01*
X54275000Y40589999D01*
G75*
G02*
X54025001Y40340000I-249999J0D01*
G01*
G37*
G04 #@! TD.AperFunction*
G04 #@! TA.AperFunction,SMDPad,CuDef*
G36*
G01*
X53074999Y8140000D02*
X53925001Y8140000D01*
G75*
G02*
X54175000Y7890001I0J-249999D01*
G01*
X54175000Y6989999D01*
G75*
G02*
X53925001Y6740000I-249999J0D01*
G01*
X53074999Y6740000D01*
G75*
G02*
X52825000Y6989999I0J249999D01*
G01*
X52825000Y7890001D01*
G75*
G02*
X53074999Y8140000I249999J0D01*
G01*
G37*
G04 #@! TD.AperFunction*
G04 #@! TA.AperFunction,SMDPad,CuDef*
G36*
G01*
X53074999Y10840000D02*
X53925001Y10840000D01*
G75*
G02*
X54175000Y10590001I0J-249999D01*
G01*
X54175000Y9689999D01*
G75*
G02*
X53925001Y9440000I-249999J0D01*
G01*
X53074999Y9440000D01*
G75*
G02*
X52825000Y9689999I0J249999D01*
G01*
X52825000Y10590001D01*
G75*
G02*
X53074999Y10840000I249999J0D01*
G01*
G37*
G04 #@! TD.AperFunction*
G04 #@! TA.AperFunction,SMDPad,CuDef*
G36*
G01*
X36450000Y25964999D02*
X36450000Y26815001D01*
G75*
G02*
X36699999Y27065000I249999J0D01*
G01*
X37600001Y27065000D01*
G75*
G02*
X37850000Y26815001I0J-249999D01*
G01*
X37850000Y25964999D01*
G75*
G02*
X37600001Y25715000I-249999J0D01*
G01*
X36699999Y25715000D01*
G75*
G02*
X36450000Y25964999I0J249999D01*
G01*
G37*
G04 #@! TD.AperFunction*
G04 #@! TA.AperFunction,SMDPad,CuDef*
G36*
G01*
X33750000Y25964999D02*
X33750000Y26815001D01*
G75*
G02*
X33999999Y27065000I249999J0D01*
G01*
X34900001Y27065000D01*
G75*
G02*
X35150000Y26815001I0J-249999D01*
G01*
X35150000Y25964999D01*
G75*
G02*
X34900001Y25715000I-249999J0D01*
G01*
X33999999Y25715000D01*
G75*
G02*
X33750000Y25964999I0J249999D01*
G01*
G37*
G04 #@! TD.AperFunction*
G04 #@! TA.AperFunction,SMDPad,CuDef*
G36*
G01*
X24574999Y19240000D02*
X25425001Y19240000D01*
G75*
G02*
X25675000Y18990001I0J-249999D01*
G01*
X25675000Y18089999D01*
G75*
G02*
X25425001Y17840000I-249999J0D01*
G01*
X24574999Y17840000D01*
G75*
G02*
X24325000Y18089999I0J249999D01*
G01*
X24325000Y18990001D01*
G75*
G02*
X24574999Y19240000I249999J0D01*
G01*
G37*
G04 #@! TD.AperFunction*
G04 #@! TA.AperFunction,SMDPad,CuDef*
G36*
G01*
X24574999Y21940000D02*
X25425001Y21940000D01*
G75*
G02*
X25675000Y21690001I0J-249999D01*
G01*
X25675000Y20789999D01*
G75*
G02*
X25425001Y20540000I-249999J0D01*
G01*
X24574999Y20540000D01*
G75*
G02*
X24325000Y20789999I0J249999D01*
G01*
X24325000Y21690001D01*
G75*
G02*
X24574999Y21940000I249999J0D01*
G01*
G37*
G04 #@! TD.AperFunction*
G04 #@! TA.AperFunction,SMDPad,CuDef*
G36*
G01*
X35150000Y29764999D02*
X35150000Y30615001D01*
G75*
G02*
X35399999Y30865000I249999J0D01*
G01*
X36300001Y30865000D01*
G75*
G02*
X36550000Y30615001I0J-249999D01*
G01*
X36550000Y29764999D01*
G75*
G02*
X36300001Y29515000I-249999J0D01*
G01*
X35399999Y29515000D01*
G75*
G02*
X35150000Y29764999I0J249999D01*
G01*
G37*
G04 #@! TD.AperFunction*
G04 #@! TA.AperFunction,SMDPad,CuDef*
G36*
G01*
X32450000Y29764999D02*
X32450000Y30615001D01*
G75*
G02*
X32699999Y30865000I249999J0D01*
G01*
X33600001Y30865000D01*
G75*
G02*
X33850000Y30615001I0J-249999D01*
G01*
X33850000Y29764999D01*
G75*
G02*
X33600001Y29515000I-249999J0D01*
G01*
X32699999Y29515000D01*
G75*
G02*
X32450000Y29764999I0J249999D01*
G01*
G37*
G04 #@! TD.AperFunction*
G04 #@! TA.AperFunction,SMDPad,CuDef*
G36*
G01*
X5974999Y41940000D02*
X6825001Y41940000D01*
G75*
G02*
X7075000Y41690001I0J-249999D01*
G01*
X7075000Y40789999D01*
G75*
G02*
X6825001Y40540000I-249999J0D01*
G01*
X5974999Y40540000D01*
G75*
G02*
X5725000Y40789999I0J249999D01*
G01*
X5725000Y41690001D01*
G75*
G02*
X5974999Y41940000I249999J0D01*
G01*
G37*
G04 #@! TD.AperFunction*
G04 #@! TA.AperFunction,SMDPad,CuDef*
G36*
G01*
X5974999Y44640000D02*
X6825001Y44640000D01*
G75*
G02*
X7075000Y44390001I0J-249999D01*
G01*
X7075000Y43489999D01*
G75*
G02*
X6825001Y43240000I-249999J0D01*
G01*
X5974999Y43240000D01*
G75*
G02*
X5725000Y43489999I0J249999D01*
G01*
X5725000Y44390001D01*
G75*
G02*
X5974999Y44640000I249999J0D01*
G01*
G37*
G04 #@! TD.AperFunction*
G04 #@! TA.AperFunction,SMDPad,CuDef*
G36*
G01*
X7025001Y9040000D02*
X6174999Y9040000D01*
G75*
G02*
X5925000Y9289999I0J249999D01*
G01*
X5925000Y10190001D01*
G75*
G02*
X6174999Y10440000I249999J0D01*
G01*
X7025001Y10440000D01*
G75*
G02*
X7275000Y10190001I0J-249999D01*
G01*
X7275000Y9289999D01*
G75*
G02*
X7025001Y9040000I-249999J0D01*
G01*
G37*
G04 #@! TD.AperFunction*
G04 #@! TA.AperFunction,SMDPad,CuDef*
G36*
G01*
X7025001Y6340000D02*
X6174999Y6340000D01*
G75*
G02*
X5925000Y6589999I0J249999D01*
G01*
X5925000Y7490001D01*
G75*
G02*
X6174999Y7740000I249999J0D01*
G01*
X7025001Y7740000D01*
G75*
G02*
X7275000Y7490001I0J-249999D01*
G01*
X7275000Y6589999D01*
G75*
G02*
X7025001Y6340000I-249999J0D01*
G01*
G37*
G04 #@! TD.AperFunction*
D11*
X51850000Y29340000D03*
X43350000Y29440000D03*
X51650000Y24290000D03*
X52350000Y26740000D03*
X9150000Y27890000D03*
D12*
X31920000Y48000000D03*
X45060000Y48000000D03*
D13*
X42490000Y44500000D03*
X40490000Y44500000D03*
X38490000Y44500000D03*
X36490000Y44500000D03*
X34490000Y44500000D03*
X34990000Y46000000D03*
X37490000Y46000000D03*
X39490000Y46000000D03*
X41990000Y46000000D03*
D11*
X11500000Y43890000D03*
X12500000Y48890000D03*
G04 #@! TA.AperFunction,SMDPad,CuDef*
G36*
G01*
X37510000Y15417500D02*
X37510000Y15762500D01*
G75*
G02*
X37657500Y15910000I147500J0D01*
G01*
X37952500Y15910000D01*
G75*
G02*
X38100000Y15762500I0J-147500D01*
G01*
X38100000Y15417500D01*
G75*
G02*
X37952500Y15270000I-147500J0D01*
G01*
X37657500Y15270000D01*
G75*
G02*
X37510000Y15417500I0J147500D01*
G01*
G37*
G04 #@! TD.AperFunction*
G04 #@! TA.AperFunction,SMDPad,CuDef*
G36*
G01*
X36540000Y15417500D02*
X36540000Y15762500D01*
G75*
G02*
X36687500Y15910000I147500J0D01*
G01*
X36982500Y15910000D01*
G75*
G02*
X37130000Y15762500I0J-147500D01*
G01*
X37130000Y15417500D01*
G75*
G02*
X36982500Y15270000I-147500J0D01*
G01*
X36687500Y15270000D01*
G75*
G02*
X36540000Y15417500I0J147500D01*
G01*
G37*
G04 #@! TD.AperFunction*
D14*
X50490000Y3890000D03*
X50490000Y46890000D03*
X9490000Y3890000D03*
X9490000Y46890000D03*
G04 #@! TA.AperFunction,SMDPad,CuDef*
G36*
G01*
X48990000Y7217500D02*
X48990000Y7562500D01*
G75*
G02*
X49137500Y7710000I147500J0D01*
G01*
X49432500Y7710000D01*
G75*
G02*
X49580000Y7562500I0J-147500D01*
G01*
X49580000Y7217500D01*
G75*
G02*
X49432500Y7070000I-147500J0D01*
G01*
X49137500Y7070000D01*
G75*
G02*
X48990000Y7217500I0J147500D01*
G01*
G37*
G04 #@! TD.AperFunction*
G04 #@! TA.AperFunction,SMDPad,CuDef*
G36*
G01*
X48020000Y7217500D02*
X48020000Y7562500D01*
G75*
G02*
X48167500Y7710000I147500J0D01*
G01*
X48462500Y7710000D01*
G75*
G02*
X48610000Y7562500I0J-147500D01*
G01*
X48610000Y7217500D01*
G75*
G02*
X48462500Y7070000I-147500J0D01*
G01*
X48167500Y7070000D01*
G75*
G02*
X48020000Y7217500I0J147500D01*
G01*
G37*
G04 #@! TD.AperFunction*
G04 #@! TA.AperFunction,SMDPad,CuDef*
G36*
G01*
X45010000Y18562500D02*
X45010000Y18217500D01*
G75*
G02*
X44862500Y18070000I-147500J0D01*
G01*
X44567500Y18070000D01*
G75*
G02*
X44420000Y18217500I0J147500D01*
G01*
X44420000Y18562500D01*
G75*
G02*
X44567500Y18710000I147500J0D01*
G01*
X44862500Y18710000D01*
G75*
G02*
X45010000Y18562500I0J-147500D01*
G01*
G37*
G04 #@! TD.AperFunction*
G04 #@! TA.AperFunction,SMDPad,CuDef*
G36*
G01*
X45980000Y18562500D02*
X45980000Y18217500D01*
G75*
G02*
X45832500Y18070000I-147500J0D01*
G01*
X45537500Y18070000D01*
G75*
G02*
X45390000Y18217500I0J147500D01*
G01*
X45390000Y18562500D01*
G75*
G02*
X45537500Y18710000I147500J0D01*
G01*
X45832500Y18710000D01*
G75*
G02*
X45980000Y18562500I0J-147500D01*
G01*
G37*
G04 #@! TD.AperFunction*
G04 #@! TA.AperFunction,SMDPad,CuDef*
G36*
G01*
X47390000Y18217500D02*
X47390000Y18562500D01*
G75*
G02*
X47537500Y18710000I147500J0D01*
G01*
X47832500Y18710000D01*
G75*
G02*
X47980000Y18562500I0J-147500D01*
G01*
X47980000Y18217500D01*
G75*
G02*
X47832500Y18070000I-147500J0D01*
G01*
X47537500Y18070000D01*
G75*
G02*
X47390000Y18217500I0J147500D01*
G01*
G37*
G04 #@! TD.AperFunction*
G04 #@! TA.AperFunction,SMDPad,CuDef*
G36*
G01*
X46420000Y18217500D02*
X46420000Y18562500D01*
G75*
G02*
X46567500Y18710000I147500J0D01*
G01*
X46862500Y18710000D01*
G75*
G02*
X47010000Y18562500I0J-147500D01*
G01*
X47010000Y18217500D01*
G75*
G02*
X46862500Y18070000I-147500J0D01*
G01*
X46567500Y18070000D01*
G75*
G02*
X46420000Y18217500I0J147500D01*
G01*
G37*
G04 #@! TD.AperFunction*
G04 #@! TA.AperFunction,SMDPad,CuDef*
G36*
G01*
X36372500Y20180000D02*
X36027500Y20180000D01*
G75*
G02*
X35880000Y20327500I0J147500D01*
G01*
X35880000Y20622500D01*
G75*
G02*
X36027500Y20770000I147500J0D01*
G01*
X36372500Y20770000D01*
G75*
G02*
X36520000Y20622500I0J-147500D01*
G01*
X36520000Y20327500D01*
G75*
G02*
X36372500Y20180000I-147500J0D01*
G01*
G37*
G04 #@! TD.AperFunction*
G04 #@! TA.AperFunction,SMDPad,CuDef*
G36*
G01*
X36372500Y19210000D02*
X36027500Y19210000D01*
G75*
G02*
X35880000Y19357500I0J147500D01*
G01*
X35880000Y19652500D01*
G75*
G02*
X36027500Y19800000I147500J0D01*
G01*
X36372500Y19800000D01*
G75*
G02*
X36520000Y19652500I0J-147500D01*
G01*
X36520000Y19357500D01*
G75*
G02*
X36372500Y19210000I-147500J0D01*
G01*
G37*
G04 #@! TD.AperFunction*
G04 #@! TA.AperFunction,SMDPad,CuDef*
G36*
G01*
X49972500Y16180000D02*
X49627500Y16180000D01*
G75*
G02*
X49480000Y16327500I0J147500D01*
G01*
X49480000Y16622500D01*
G75*
G02*
X49627500Y16770000I147500J0D01*
G01*
X49972500Y16770000D01*
G75*
G02*
X50120000Y16622500I0J-147500D01*
G01*
X50120000Y16327500D01*
G75*
G02*
X49972500Y16180000I-147500J0D01*
G01*
G37*
G04 #@! TD.AperFunction*
G04 #@! TA.AperFunction,SMDPad,CuDef*
G36*
G01*
X49972500Y15210000D02*
X49627500Y15210000D01*
G75*
G02*
X49480000Y15357500I0J147500D01*
G01*
X49480000Y15652500D01*
G75*
G02*
X49627500Y15800000I147500J0D01*
G01*
X49972500Y15800000D01*
G75*
G02*
X50120000Y15652500I0J-147500D01*
G01*
X50120000Y15357500D01*
G75*
G02*
X49972500Y15210000I-147500J0D01*
G01*
G37*
G04 #@! TD.AperFunction*
G04 #@! TA.AperFunction,SMDPad,CuDef*
G36*
G01*
X14990000Y13417500D02*
X14990000Y13762500D01*
G75*
G02*
X15137500Y13910000I147500J0D01*
G01*
X15432500Y13910000D01*
G75*
G02*
X15580000Y13762500I0J-147500D01*
G01*
X15580000Y13417500D01*
G75*
G02*
X15432500Y13270000I-147500J0D01*
G01*
X15137500Y13270000D01*
G75*
G02*
X14990000Y13417500I0J147500D01*
G01*
G37*
G04 #@! TD.AperFunction*
G04 #@! TA.AperFunction,SMDPad,CuDef*
G36*
G01*
X14020000Y13417500D02*
X14020000Y13762500D01*
G75*
G02*
X14167500Y13910000I147500J0D01*
G01*
X14462500Y13910000D01*
G75*
G02*
X14610000Y13762500I0J-147500D01*
G01*
X14610000Y13417500D01*
G75*
G02*
X14462500Y13270000I-147500J0D01*
G01*
X14167500Y13270000D01*
G75*
G02*
X14020000Y13417500I0J147500D01*
G01*
G37*
G04 #@! TD.AperFunction*
G04 #@! TA.AperFunction,SMDPad,CuDef*
G36*
G01*
X45010000Y27962500D02*
X45010000Y27617500D01*
G75*
G02*
X44862500Y27470000I-147500J0D01*
G01*
X44567500Y27470000D01*
G75*
G02*
X44420000Y27617500I0J147500D01*
G01*
X44420000Y27962500D01*
G75*
G02*
X44567500Y28110000I147500J0D01*
G01*
X44862500Y28110000D01*
G75*
G02*
X45010000Y27962500I0J-147500D01*
G01*
G37*
G04 #@! TD.AperFunction*
G04 #@! TA.AperFunction,SMDPad,CuDef*
G36*
G01*
X45980000Y27962500D02*
X45980000Y27617500D01*
G75*
G02*
X45832500Y27470000I-147500J0D01*
G01*
X45537500Y27470000D01*
G75*
G02*
X45390000Y27617500I0J147500D01*
G01*
X45390000Y27962500D01*
G75*
G02*
X45537500Y28110000I147500J0D01*
G01*
X45832500Y28110000D01*
G75*
G02*
X45980000Y27962500I0J-147500D01*
G01*
G37*
G04 #@! TD.AperFunction*
G04 #@! TA.AperFunction,SMDPad,CuDef*
G36*
G01*
X38190000Y23317500D02*
X38190000Y23662500D01*
G75*
G02*
X38337500Y23810000I147500J0D01*
G01*
X38632500Y23810000D01*
G75*
G02*
X38780000Y23662500I0J-147500D01*
G01*
X38780000Y23317500D01*
G75*
G02*
X38632500Y23170000I-147500J0D01*
G01*
X38337500Y23170000D01*
G75*
G02*
X38190000Y23317500I0J147500D01*
G01*
G37*
G04 #@! TD.AperFunction*
G04 #@! TA.AperFunction,SMDPad,CuDef*
G36*
G01*
X37220000Y23317500D02*
X37220000Y23662500D01*
G75*
G02*
X37367500Y23810000I147500J0D01*
G01*
X37662500Y23810000D01*
G75*
G02*
X37810000Y23662500I0J-147500D01*
G01*
X37810000Y23317500D01*
G75*
G02*
X37662500Y23170000I-147500J0D01*
G01*
X37367500Y23170000D01*
G75*
G02*
X37220000Y23317500I0J147500D01*
G01*
G37*
G04 #@! TD.AperFunction*
G04 #@! TA.AperFunction,SMDPad,CuDef*
G36*
G01*
X18340000Y35167500D02*
X18340000Y35512500D01*
G75*
G02*
X18487500Y35660000I147500J0D01*
G01*
X18782500Y35660000D01*
G75*
G02*
X18930000Y35512500I0J-147500D01*
G01*
X18930000Y35167500D01*
G75*
G02*
X18782500Y35020000I-147500J0D01*
G01*
X18487500Y35020000D01*
G75*
G02*
X18340000Y35167500I0J147500D01*
G01*
G37*
G04 #@! TD.AperFunction*
G04 #@! TA.AperFunction,SMDPad,CuDef*
G36*
G01*
X17370000Y35167500D02*
X17370000Y35512500D01*
G75*
G02*
X17517500Y35660000I147500J0D01*
G01*
X17812500Y35660000D01*
G75*
G02*
X17960000Y35512500I0J-147500D01*
G01*
X17960000Y35167500D01*
G75*
G02*
X17812500Y35020000I-147500J0D01*
G01*
X17517500Y35020000D01*
G75*
G02*
X17370000Y35167500I0J147500D01*
G01*
G37*
G04 #@! TD.AperFunction*
G04 #@! TA.AperFunction,SMDPad,CuDef*
G36*
G01*
X46527500Y43700000D02*
X46872500Y43700000D01*
G75*
G02*
X47020000Y43552500I0J-147500D01*
G01*
X47020000Y43257500D01*
G75*
G02*
X46872500Y43110000I-147500J0D01*
G01*
X46527500Y43110000D01*
G75*
G02*
X46380000Y43257500I0J147500D01*
G01*
X46380000Y43552500D01*
G75*
G02*
X46527500Y43700000I147500J0D01*
G01*
G37*
G04 #@! TD.AperFunction*
G04 #@! TA.AperFunction,SMDPad,CuDef*
G36*
G01*
X46527500Y44670000D02*
X46872500Y44670000D01*
G75*
G02*
X47020000Y44522500I0J-147500D01*
G01*
X47020000Y44227500D01*
G75*
G02*
X46872500Y44080000I-147500J0D01*
G01*
X46527500Y44080000D01*
G75*
G02*
X46380000Y44227500I0J147500D01*
G01*
X46380000Y44522500D01*
G75*
G02*
X46527500Y44670000I147500J0D01*
G01*
G37*
G04 #@! TD.AperFunction*
G04 #@! TA.AperFunction,SMDPad,CuDef*
G36*
G01*
X13227500Y43800000D02*
X13572500Y43800000D01*
G75*
G02*
X13720000Y43652500I0J-147500D01*
G01*
X13720000Y43357500D01*
G75*
G02*
X13572500Y43210000I-147500J0D01*
G01*
X13227500Y43210000D01*
G75*
G02*
X13080000Y43357500I0J147500D01*
G01*
X13080000Y43652500D01*
G75*
G02*
X13227500Y43800000I147500J0D01*
G01*
G37*
G04 #@! TD.AperFunction*
G04 #@! TA.AperFunction,SMDPad,CuDef*
G36*
G01*
X13227500Y44770000D02*
X13572500Y44770000D01*
G75*
G02*
X13720000Y44622500I0J-147500D01*
G01*
X13720000Y44327500D01*
G75*
G02*
X13572500Y44180000I-147500J0D01*
G01*
X13227500Y44180000D01*
G75*
G02*
X13080000Y44327500I0J147500D01*
G01*
X13080000Y44622500D01*
G75*
G02*
X13227500Y44770000I147500J0D01*
G01*
G37*
G04 #@! TD.AperFunction*
G04 #@! TA.AperFunction,SMDPad,CuDef*
G36*
G01*
X12610000Y13762500D02*
X12610000Y13417500D01*
G75*
G02*
X12462500Y13270000I-147500J0D01*
G01*
X12167500Y13270000D01*
G75*
G02*
X12020000Y13417500I0J147500D01*
G01*
X12020000Y13762500D01*
G75*
G02*
X12167500Y13910000I147500J0D01*
G01*
X12462500Y13910000D01*
G75*
G02*
X12610000Y13762500I0J-147500D01*
G01*
G37*
G04 #@! TD.AperFunction*
G04 #@! TA.AperFunction,SMDPad,CuDef*
G36*
G01*
X13580000Y13762500D02*
X13580000Y13417500D01*
G75*
G02*
X13432500Y13270000I-147500J0D01*
G01*
X13137500Y13270000D01*
G75*
G02*
X12990000Y13417500I0J147500D01*
G01*
X12990000Y13762500D01*
G75*
G02*
X13137500Y13910000I147500J0D01*
G01*
X13432500Y13910000D01*
G75*
G02*
X13580000Y13762500I0J-147500D01*
G01*
G37*
G04 #@! TD.AperFunction*
G04 #@! TA.AperFunction,SMDPad,CuDef*
G36*
G01*
X10027500Y15800000D02*
X10372500Y15800000D01*
G75*
G02*
X10520000Y15652500I0J-147500D01*
G01*
X10520000Y15357500D01*
G75*
G02*
X10372500Y15210000I-147500J0D01*
G01*
X10027500Y15210000D01*
G75*
G02*
X9880000Y15357500I0J147500D01*
G01*
X9880000Y15652500D01*
G75*
G02*
X10027500Y15800000I147500J0D01*
G01*
G37*
G04 #@! TD.AperFunction*
G04 #@! TA.AperFunction,SMDPad,CuDef*
G36*
G01*
X10027500Y16770000D02*
X10372500Y16770000D01*
G75*
G02*
X10520000Y16622500I0J-147500D01*
G01*
X10520000Y16327500D01*
G75*
G02*
X10372500Y16180000I-147500J0D01*
G01*
X10027500Y16180000D01*
G75*
G02*
X9880000Y16327500I0J147500D01*
G01*
X9880000Y16622500D01*
G75*
G02*
X10027500Y16770000I147500J0D01*
G01*
G37*
G04 #@! TD.AperFunction*
G04 #@! TA.AperFunction,SMDPad,CuDef*
G36*
G01*
X47390000Y27617500D02*
X47390000Y27962500D01*
G75*
G02*
X47537500Y28110000I147500J0D01*
G01*
X47832500Y28110000D01*
G75*
G02*
X47980000Y27962500I0J-147500D01*
G01*
X47980000Y27617500D01*
G75*
G02*
X47832500Y27470000I-147500J0D01*
G01*
X47537500Y27470000D01*
G75*
G02*
X47390000Y27617500I0J147500D01*
G01*
G37*
G04 #@! TD.AperFunction*
G04 #@! TA.AperFunction,SMDPad,CuDef*
G36*
G01*
X46420000Y27617500D02*
X46420000Y27962500D01*
G75*
G02*
X46567500Y28110000I147500J0D01*
G01*
X46862500Y28110000D01*
G75*
G02*
X47010000Y27962500I0J-147500D01*
G01*
X47010000Y27617500D01*
G75*
G02*
X46862500Y27470000I-147500J0D01*
G01*
X46567500Y27470000D01*
G75*
G02*
X46420000Y27617500I0J147500D01*
G01*
G37*
G04 #@! TD.AperFunction*
G04 #@! TA.AperFunction,SMDPad,CuDef*
G36*
G01*
X49972500Y25580000D02*
X49627500Y25580000D01*
G75*
G02*
X49480000Y25727500I0J147500D01*
G01*
X49480000Y26022500D01*
G75*
G02*
X49627500Y26170000I147500J0D01*
G01*
X49972500Y26170000D01*
G75*
G02*
X50120000Y26022500I0J-147500D01*
G01*
X50120000Y25727500D01*
G75*
G02*
X49972500Y25580000I-147500J0D01*
G01*
G37*
G04 #@! TD.AperFunction*
G04 #@! TA.AperFunction,SMDPad,CuDef*
G36*
G01*
X49972500Y24610000D02*
X49627500Y24610000D01*
G75*
G02*
X49480000Y24757500I0J147500D01*
G01*
X49480000Y25052500D01*
G75*
G02*
X49627500Y25200000I147500J0D01*
G01*
X49972500Y25200000D01*
G75*
G02*
X50120000Y25052500I0J-147500D01*
G01*
X50120000Y24757500D01*
G75*
G02*
X49972500Y24610000I-147500J0D01*
G01*
G37*
G04 #@! TD.AperFunction*
G04 #@! TA.AperFunction,SMDPad,CuDef*
G36*
G01*
X45010000Y37362500D02*
X45010000Y37017500D01*
G75*
G02*
X44862500Y36870000I-147500J0D01*
G01*
X44567500Y36870000D01*
G75*
G02*
X44420000Y37017500I0J147500D01*
G01*
X44420000Y37362500D01*
G75*
G02*
X44567500Y37510000I147500J0D01*
G01*
X44862500Y37510000D01*
G75*
G02*
X45010000Y37362500I0J-147500D01*
G01*
G37*
G04 #@! TD.AperFunction*
G04 #@! TA.AperFunction,SMDPad,CuDef*
G36*
G01*
X45980000Y37362500D02*
X45980000Y37017500D01*
G75*
G02*
X45832500Y36870000I-147500J0D01*
G01*
X45537500Y36870000D01*
G75*
G02*
X45390000Y37017500I0J147500D01*
G01*
X45390000Y37362500D01*
G75*
G02*
X45537500Y37510000I147500J0D01*
G01*
X45832500Y37510000D01*
G75*
G02*
X45980000Y37362500I0J-147500D01*
G01*
G37*
G04 #@! TD.AperFunction*
G04 #@! TA.AperFunction,SMDPad,CuDef*
G36*
G01*
X47390000Y37017500D02*
X47390000Y37362500D01*
G75*
G02*
X47537500Y37510000I147500J0D01*
G01*
X47832500Y37510000D01*
G75*
G02*
X47980000Y37362500I0J-147500D01*
G01*
X47980000Y37017500D01*
G75*
G02*
X47832500Y36870000I-147500J0D01*
G01*
X47537500Y36870000D01*
G75*
G02*
X47390000Y37017500I0J147500D01*
G01*
G37*
G04 #@! TD.AperFunction*
G04 #@! TA.AperFunction,SMDPad,CuDef*
G36*
G01*
X46420000Y37017500D02*
X46420000Y37362500D01*
G75*
G02*
X46567500Y37510000I147500J0D01*
G01*
X46862500Y37510000D01*
G75*
G02*
X47010000Y37362500I0J-147500D01*
G01*
X47010000Y37017500D01*
G75*
G02*
X46862500Y36870000I-147500J0D01*
G01*
X46567500Y36870000D01*
G75*
G02*
X46420000Y37017500I0J147500D01*
G01*
G37*
G04 #@! TD.AperFunction*
G04 #@! TA.AperFunction,SMDPad,CuDef*
G36*
G01*
X49972500Y34980000D02*
X49627500Y34980000D01*
G75*
G02*
X49480000Y35127500I0J147500D01*
G01*
X49480000Y35422500D01*
G75*
G02*
X49627500Y35570000I147500J0D01*
G01*
X49972500Y35570000D01*
G75*
G02*
X50120000Y35422500I0J-147500D01*
G01*
X50120000Y35127500D01*
G75*
G02*
X49972500Y34980000I-147500J0D01*
G01*
G37*
G04 #@! TD.AperFunction*
G04 #@! TA.AperFunction,SMDPad,CuDef*
G36*
G01*
X49972500Y34010000D02*
X49627500Y34010000D01*
G75*
G02*
X49480000Y34157500I0J147500D01*
G01*
X49480000Y34452500D01*
G75*
G02*
X49627500Y34600000I147500J0D01*
G01*
X49972500Y34600000D01*
G75*
G02*
X50120000Y34452500I0J-147500D01*
G01*
X50120000Y34157500D01*
G75*
G02*
X49972500Y34010000I-147500J0D01*
G01*
G37*
G04 #@! TD.AperFunction*
G04 #@! TA.AperFunction,SMDPad,CuDef*
G36*
G01*
X14990000Y22817500D02*
X14990000Y23162500D01*
G75*
G02*
X15137500Y23310000I147500J0D01*
G01*
X15432500Y23310000D01*
G75*
G02*
X15580000Y23162500I0J-147500D01*
G01*
X15580000Y22817500D01*
G75*
G02*
X15432500Y22670000I-147500J0D01*
G01*
X15137500Y22670000D01*
G75*
G02*
X14990000Y22817500I0J147500D01*
G01*
G37*
G04 #@! TD.AperFunction*
G04 #@! TA.AperFunction,SMDPad,CuDef*
G36*
G01*
X14020000Y22817500D02*
X14020000Y23162500D01*
G75*
G02*
X14167500Y23310000I147500J0D01*
G01*
X14462500Y23310000D01*
G75*
G02*
X14610000Y23162500I0J-147500D01*
G01*
X14610000Y22817500D01*
G75*
G02*
X14462500Y22670000I-147500J0D01*
G01*
X14167500Y22670000D01*
G75*
G02*
X14020000Y22817500I0J147500D01*
G01*
G37*
G04 #@! TD.AperFunction*
G04 #@! TA.AperFunction,SMDPad,CuDef*
G36*
G01*
X12610000Y23162500D02*
X12610000Y22817500D01*
G75*
G02*
X12462500Y22670000I-147500J0D01*
G01*
X12167500Y22670000D01*
G75*
G02*
X12020000Y22817500I0J147500D01*
G01*
X12020000Y23162500D01*
G75*
G02*
X12167500Y23310000I147500J0D01*
G01*
X12462500Y23310000D01*
G75*
G02*
X12610000Y23162500I0J-147500D01*
G01*
G37*
G04 #@! TD.AperFunction*
G04 #@! TA.AperFunction,SMDPad,CuDef*
G36*
G01*
X13580000Y23162500D02*
X13580000Y22817500D01*
G75*
G02*
X13432500Y22670000I-147500J0D01*
G01*
X13137500Y22670000D01*
G75*
G02*
X12990000Y22817500I0J147500D01*
G01*
X12990000Y23162500D01*
G75*
G02*
X13137500Y23310000I147500J0D01*
G01*
X13432500Y23310000D01*
G75*
G02*
X13580000Y23162500I0J-147500D01*
G01*
G37*
G04 #@! TD.AperFunction*
G04 #@! TA.AperFunction,SMDPad,CuDef*
G36*
G01*
X9827500Y25000000D02*
X10172500Y25000000D01*
G75*
G02*
X10320000Y24852500I0J-147500D01*
G01*
X10320000Y24557500D01*
G75*
G02*
X10172500Y24410000I-147500J0D01*
G01*
X9827500Y24410000D01*
G75*
G02*
X9680000Y24557500I0J147500D01*
G01*
X9680000Y24852500D01*
G75*
G02*
X9827500Y25000000I147500J0D01*
G01*
G37*
G04 #@! TD.AperFunction*
G04 #@! TA.AperFunction,SMDPad,CuDef*
G36*
G01*
X9827500Y25970000D02*
X10172500Y25970000D01*
G75*
G02*
X10320000Y25822500I0J-147500D01*
G01*
X10320000Y25527500D01*
G75*
G02*
X10172500Y25380000I-147500J0D01*
G01*
X9827500Y25380000D01*
G75*
G02*
X9680000Y25527500I0J147500D01*
G01*
X9680000Y25822500D01*
G75*
G02*
X9827500Y25970000I147500J0D01*
G01*
G37*
G04 #@! TD.AperFunction*
G04 #@! TA.AperFunction,SMDPad,CuDef*
G36*
G01*
X11627500Y41400000D02*
X11972500Y41400000D01*
G75*
G02*
X12120000Y41252500I0J-147500D01*
G01*
X12120000Y40957500D01*
G75*
G02*
X11972500Y40810000I-147500J0D01*
G01*
X11627500Y40810000D01*
G75*
G02*
X11480000Y40957500I0J147500D01*
G01*
X11480000Y41252500D01*
G75*
G02*
X11627500Y41400000I147500J0D01*
G01*
G37*
G04 #@! TD.AperFunction*
G04 #@! TA.AperFunction,SMDPad,CuDef*
G36*
G01*
X11627500Y42370000D02*
X11972500Y42370000D01*
G75*
G02*
X12120000Y42222500I0J-147500D01*
G01*
X12120000Y41927500D01*
G75*
G02*
X11972500Y41780000I-147500J0D01*
G01*
X11627500Y41780000D01*
G75*
G02*
X11480000Y41927500I0J147500D01*
G01*
X11480000Y42222500D01*
G75*
G02*
X11627500Y42370000I147500J0D01*
G01*
G37*
G04 #@! TD.AperFunction*
G04 #@! TA.AperFunction,SMDPad,CuDef*
G36*
G01*
X10627500Y41400000D02*
X10972500Y41400000D01*
G75*
G02*
X11120000Y41252500I0J-147500D01*
G01*
X11120000Y40957500D01*
G75*
G02*
X10972500Y40810000I-147500J0D01*
G01*
X10627500Y40810000D01*
G75*
G02*
X10480000Y40957500I0J147500D01*
G01*
X10480000Y41252500D01*
G75*
G02*
X10627500Y41400000I147500J0D01*
G01*
G37*
G04 #@! TD.AperFunction*
G04 #@! TA.AperFunction,SMDPad,CuDef*
G36*
G01*
X10627500Y42370000D02*
X10972500Y42370000D01*
G75*
G02*
X11120000Y42222500I0J-147500D01*
G01*
X11120000Y41927500D01*
G75*
G02*
X10972500Y41780000I-147500J0D01*
G01*
X10627500Y41780000D01*
G75*
G02*
X10480000Y41927500I0J147500D01*
G01*
X10480000Y42222500D01*
G75*
G02*
X10627500Y42370000I147500J0D01*
G01*
G37*
G04 #@! TD.AperFunction*
G04 #@! TA.AperFunction,SMDPad,CuDef*
G36*
G01*
X42210000Y20062500D02*
X42210000Y19717500D01*
G75*
G02*
X42062500Y19570000I-147500J0D01*
G01*
X41767500Y19570000D01*
G75*
G02*
X41620000Y19717500I0J147500D01*
G01*
X41620000Y20062500D01*
G75*
G02*
X41767500Y20210000I147500J0D01*
G01*
X42062500Y20210000D01*
G75*
G02*
X42210000Y20062500I0J-147500D01*
G01*
G37*
G04 #@! TD.AperFunction*
G04 #@! TA.AperFunction,SMDPad,CuDef*
G36*
G01*
X43180000Y20062500D02*
X43180000Y19717500D01*
G75*
G02*
X43032500Y19570000I-147500J0D01*
G01*
X42737500Y19570000D01*
G75*
G02*
X42590000Y19717500I0J147500D01*
G01*
X42590000Y20062500D01*
G75*
G02*
X42737500Y20210000I147500J0D01*
G01*
X43032500Y20210000D01*
G75*
G02*
X43180000Y20062500I0J-147500D01*
G01*
G37*
G04 #@! TD.AperFunction*
G04 #@! TA.AperFunction,SMDPad,CuDef*
G36*
G01*
X30170000Y5277500D02*
X30170000Y5622500D01*
G75*
G02*
X30317500Y5770000I147500J0D01*
G01*
X30612500Y5770000D01*
G75*
G02*
X30760000Y5622500I0J-147500D01*
G01*
X30760000Y5277500D01*
G75*
G02*
X30612500Y5130000I-147500J0D01*
G01*
X30317500Y5130000D01*
G75*
G02*
X30170000Y5277500I0J147500D01*
G01*
G37*
G04 #@! TD.AperFunction*
G04 #@! TA.AperFunction,SMDPad,CuDef*
G36*
G01*
X29200000Y5277500D02*
X29200000Y5622500D01*
G75*
G02*
X29347500Y5770000I147500J0D01*
G01*
X29642500Y5770000D01*
G75*
G02*
X29790000Y5622500I0J-147500D01*
G01*
X29790000Y5277500D01*
G75*
G02*
X29642500Y5130000I-147500J0D01*
G01*
X29347500Y5130000D01*
G75*
G02*
X29200000Y5277500I0J147500D01*
G01*
G37*
G04 #@! TD.AperFunction*
G04 #@! TA.AperFunction,SMDPad,CuDef*
G36*
G01*
X37897500Y11460000D02*
X38242500Y11460000D01*
G75*
G02*
X38390000Y11312500I0J-147500D01*
G01*
X38390000Y11017500D01*
G75*
G02*
X38242500Y10870000I-147500J0D01*
G01*
X37897500Y10870000D01*
G75*
G02*
X37750000Y11017500I0J147500D01*
G01*
X37750000Y11312500D01*
G75*
G02*
X37897500Y11460000I147500J0D01*
G01*
G37*
G04 #@! TD.AperFunction*
G04 #@! TA.AperFunction,SMDPad,CuDef*
G36*
G01*
X37897500Y12430000D02*
X38242500Y12430000D01*
G75*
G02*
X38390000Y12282500I0J-147500D01*
G01*
X38390000Y11987500D01*
G75*
G02*
X38242500Y11840000I-147500J0D01*
G01*
X37897500Y11840000D01*
G75*
G02*
X37750000Y11987500I0J147500D01*
G01*
X37750000Y12282500D01*
G75*
G02*
X37897500Y12430000I147500J0D01*
G01*
G37*
G04 #@! TD.AperFunction*
G04 #@! TA.AperFunction,SMDPad,CuDef*
G36*
G01*
X30627500Y19700000D02*
X30972500Y19700000D01*
G75*
G02*
X31120000Y19552500I0J-147500D01*
G01*
X31120000Y19257500D01*
G75*
G02*
X30972500Y19110000I-147500J0D01*
G01*
X30627500Y19110000D01*
G75*
G02*
X30480000Y19257500I0J147500D01*
G01*
X30480000Y19552500D01*
G75*
G02*
X30627500Y19700000I147500J0D01*
G01*
G37*
G04 #@! TD.AperFunction*
G04 #@! TA.AperFunction,SMDPad,CuDef*
G36*
G01*
X30627500Y20670000D02*
X30972500Y20670000D01*
G75*
G02*
X31120000Y20522500I0J-147500D01*
G01*
X31120000Y20227500D01*
G75*
G02*
X30972500Y20080000I-147500J0D01*
G01*
X30627500Y20080000D01*
G75*
G02*
X30480000Y20227500I0J147500D01*
G01*
X30480000Y20522500D01*
G75*
G02*
X30627500Y20670000I147500J0D01*
G01*
G37*
G04 #@! TD.AperFunction*
G04 #@! TA.AperFunction,SMDPad,CuDef*
G36*
G01*
X26745000Y13557500D02*
X26745000Y13902500D01*
G75*
G02*
X26892500Y14050000I147500J0D01*
G01*
X27187500Y14050000D01*
G75*
G02*
X27335000Y13902500I0J-147500D01*
G01*
X27335000Y13557500D01*
G75*
G02*
X27187500Y13410000I-147500J0D01*
G01*
X26892500Y13410000D01*
G75*
G02*
X26745000Y13557500I0J147500D01*
G01*
G37*
G04 #@! TD.AperFunction*
G04 #@! TA.AperFunction,SMDPad,CuDef*
G36*
G01*
X25775000Y13557500D02*
X25775000Y13902500D01*
G75*
G02*
X25922500Y14050000I147500J0D01*
G01*
X26217500Y14050000D01*
G75*
G02*
X26365000Y13902500I0J-147500D01*
G01*
X26365000Y13557500D01*
G75*
G02*
X26217500Y13410000I-147500J0D01*
G01*
X25922500Y13410000D01*
G75*
G02*
X25775000Y13557500I0J147500D01*
G01*
G37*
G04 #@! TD.AperFunction*
G04 #@! TA.AperFunction,SMDPad,CuDef*
G36*
G01*
X20137500Y13733750D02*
X20137500Y14246250D01*
G75*
G02*
X20356250Y14465000I218750J0D01*
G01*
X20793750Y14465000D01*
G75*
G02*
X21012500Y14246250I0J-218750D01*
G01*
X21012500Y13733750D01*
G75*
G02*
X20793750Y13515000I-218750J0D01*
G01*
X20356250Y13515000D01*
G75*
G02*
X20137500Y13733750I0J218750D01*
G01*
G37*
G04 #@! TD.AperFunction*
G04 #@! TA.AperFunction,SMDPad,CuDef*
G36*
G01*
X18562500Y13733750D02*
X18562500Y14246250D01*
G75*
G02*
X18781250Y14465000I218750J0D01*
G01*
X19218750Y14465000D01*
G75*
G02*
X19437500Y14246250I0J-218750D01*
G01*
X19437500Y13733750D01*
G75*
G02*
X19218750Y13515000I-218750J0D01*
G01*
X18781250Y13515000D01*
G75*
G02*
X18562500Y13733750I0J218750D01*
G01*
G37*
G04 #@! TD.AperFunction*
G04 #@! TA.AperFunction,SMDPad,CuDef*
G36*
G01*
X17256250Y19740000D02*
X16743750Y19740000D01*
G75*
G02*
X16525000Y19958750I0J218750D01*
G01*
X16525000Y20396250D01*
G75*
G02*
X16743750Y20615000I218750J0D01*
G01*
X17256250Y20615000D01*
G75*
G02*
X17475000Y20396250I0J-218750D01*
G01*
X17475000Y19958750D01*
G75*
G02*
X17256250Y19740000I-218750J0D01*
G01*
G37*
G04 #@! TD.AperFunction*
G04 #@! TA.AperFunction,SMDPad,CuDef*
G36*
G01*
X17256250Y18165000D02*
X16743750Y18165000D01*
G75*
G02*
X16525000Y18383750I0J218750D01*
G01*
X16525000Y18821250D01*
G75*
G02*
X16743750Y19040000I218750J0D01*
G01*
X17256250Y19040000D01*
G75*
G02*
X17475000Y18821250I0J-218750D01*
G01*
X17475000Y18383750D01*
G75*
G02*
X17256250Y18165000I-218750J0D01*
G01*
G37*
G04 #@! TD.AperFunction*
G04 #@! TA.AperFunction,SMDPad,CuDef*
G36*
G01*
X22690000Y19467500D02*
X22690000Y19812500D01*
G75*
G02*
X22837500Y19960000I147500J0D01*
G01*
X23132500Y19960000D01*
G75*
G02*
X23280000Y19812500I0J-147500D01*
G01*
X23280000Y19467500D01*
G75*
G02*
X23132500Y19320000I-147500J0D01*
G01*
X22837500Y19320000D01*
G75*
G02*
X22690000Y19467500I0J147500D01*
G01*
G37*
G04 #@! TD.AperFunction*
G04 #@! TA.AperFunction,SMDPad,CuDef*
G36*
G01*
X21720000Y19467500D02*
X21720000Y19812500D01*
G75*
G02*
X21867500Y19960000I147500J0D01*
G01*
X22162500Y19960000D01*
G75*
G02*
X22310000Y19812500I0J-147500D01*
G01*
X22310000Y19467500D01*
G75*
G02*
X22162500Y19320000I-147500J0D01*
G01*
X21867500Y19320000D01*
G75*
G02*
X21720000Y19467500I0J147500D01*
G01*
G37*
G04 #@! TD.AperFunction*
D15*
X22000000Y4440000D03*
X26000000Y4440000D03*
D16*
X20400000Y2290000D03*
X27600000Y2290000D03*
X27600000Y5760000D03*
X20400000Y5760000D03*
G04 #@! TA.AperFunction,SMDPad,CuDef*
G36*
G01*
X32556326Y40702375D02*
X32312375Y40946327D01*
G75*
G02*
X32312375Y41154923I104298J104298D01*
G01*
X32520971Y41363519D01*
G75*
G02*
X32729567Y41363519I104298J-104298D01*
G01*
X32973519Y41119567D01*
G75*
G02*
X32973519Y40910971I-104298J-104298D01*
G01*
X32764923Y40702375D01*
G75*
G02*
X32556327Y40702375I-104298J104298D01*
G01*
G37*
G04 #@! TD.AperFunction*
G04 #@! TA.AperFunction,SMDPad,CuDef*
G36*
G01*
X31870432Y40016481D02*
X31626481Y40260433D01*
G75*
G02*
X31626481Y40469029I104298J104298D01*
G01*
X31835077Y40677625D01*
G75*
G02*
X32043673Y40677625I104298J-104298D01*
G01*
X32287625Y40433673D01*
G75*
G02*
X32287625Y40225077I-104298J-104298D01*
G01*
X32079029Y40016481D01*
G75*
G02*
X31870433Y40016481I-104298J104298D01*
G01*
G37*
G04 #@! TD.AperFunction*
G04 #@! TA.AperFunction,SMDPad,CuDef*
G36*
G01*
X33256326Y40002375D02*
X33012375Y40246327D01*
G75*
G02*
X33012375Y40454923I104298J104298D01*
G01*
X33220971Y40663519D01*
G75*
G02*
X33429567Y40663519I104298J-104298D01*
G01*
X33673519Y40419567D01*
G75*
G02*
X33673519Y40210971I-104298J-104298D01*
G01*
X33464923Y40002375D01*
G75*
G02*
X33256327Y40002375I-104298J104298D01*
G01*
G37*
G04 #@! TD.AperFunction*
G04 #@! TA.AperFunction,SMDPad,CuDef*
G36*
G01*
X32570432Y39316481D02*
X32326481Y39560433D01*
G75*
G02*
X32326481Y39769029I104298J104298D01*
G01*
X32535077Y39977625D01*
G75*
G02*
X32743673Y39977625I104298J-104298D01*
G01*
X32987625Y39733673D01*
G75*
G02*
X32987625Y39525077I-104298J-104298D01*
G01*
X32779029Y39316481D01*
G75*
G02*
X32570433Y39316481I-104298J104298D01*
G01*
G37*
G04 #@! TD.AperFunction*
G04 #@! TA.AperFunction,SMDPad,CuDef*
G36*
G01*
X30872500Y35080000D02*
X30527500Y35080000D01*
G75*
G02*
X30380000Y35227500I0J147500D01*
G01*
X30380000Y35522500D01*
G75*
G02*
X30527500Y35670000I147500J0D01*
G01*
X30872500Y35670000D01*
G75*
G02*
X31020000Y35522500I0J-147500D01*
G01*
X31020000Y35227500D01*
G75*
G02*
X30872500Y35080000I-147500J0D01*
G01*
G37*
G04 #@! TD.AperFunction*
G04 #@! TA.AperFunction,SMDPad,CuDef*
G36*
G01*
X30872500Y34110000D02*
X30527500Y34110000D01*
G75*
G02*
X30380000Y34257500I0J147500D01*
G01*
X30380000Y34552500D01*
G75*
G02*
X30527500Y34700000I147500J0D01*
G01*
X30872500Y34700000D01*
G75*
G02*
X31020000Y34552500I0J-147500D01*
G01*
X31020000Y34257500D01*
G75*
G02*
X30872500Y34110000I-147500J0D01*
G01*
G37*
G04 #@! TD.AperFunction*
G04 #@! TA.AperFunction,SMDPad,CuDef*
G36*
G01*
X31690000Y28417500D02*
X31690000Y28762500D01*
G75*
G02*
X31837500Y28910000I147500J0D01*
G01*
X32132500Y28910000D01*
G75*
G02*
X32280000Y28762500I0J-147500D01*
G01*
X32280000Y28417500D01*
G75*
G02*
X32132500Y28270000I-147500J0D01*
G01*
X31837500Y28270000D01*
G75*
G02*
X31690000Y28417500I0J147500D01*
G01*
G37*
G04 #@! TD.AperFunction*
G04 #@! TA.AperFunction,SMDPad,CuDef*
G36*
G01*
X30720000Y28417500D02*
X30720000Y28762500D01*
G75*
G02*
X30867500Y28910000I147500J0D01*
G01*
X31162500Y28910000D01*
G75*
G02*
X31310000Y28762500I0J-147500D01*
G01*
X31310000Y28417500D01*
G75*
G02*
X31162500Y28270000I-147500J0D01*
G01*
X30867500Y28270000D01*
G75*
G02*
X30720000Y28417500I0J147500D01*
G01*
G37*
G04 #@! TD.AperFunction*
G04 #@! TA.AperFunction,SMDPad,CuDef*
G36*
G01*
X7910000Y39762500D02*
X7910000Y39417500D01*
G75*
G02*
X7762500Y39270000I-147500J0D01*
G01*
X7467500Y39270000D01*
G75*
G02*
X7320000Y39417500I0J147500D01*
G01*
X7320000Y39762500D01*
G75*
G02*
X7467500Y39910000I147500J0D01*
G01*
X7762500Y39910000D01*
G75*
G02*
X7910000Y39762500I0J-147500D01*
G01*
G37*
G04 #@! TD.AperFunction*
G04 #@! TA.AperFunction,SMDPad,CuDef*
G36*
G01*
X8880000Y39762500D02*
X8880000Y39417500D01*
G75*
G02*
X8732500Y39270000I-147500J0D01*
G01*
X8437500Y39270000D01*
G75*
G02*
X8290000Y39417500I0J147500D01*
G01*
X8290000Y39762500D01*
G75*
G02*
X8437500Y39910000I147500J0D01*
G01*
X8732500Y39910000D01*
G75*
G02*
X8880000Y39762500I0J-147500D01*
G01*
G37*
G04 #@! TD.AperFunction*
G04 #@! TA.AperFunction,SMDPad,CuDef*
G36*
G01*
X13690000Y40517500D02*
X13690000Y40862500D01*
G75*
G02*
X13837500Y41010000I147500J0D01*
G01*
X14132500Y41010000D01*
G75*
G02*
X14280000Y40862500I0J-147500D01*
G01*
X14280000Y40517500D01*
G75*
G02*
X14132500Y40370000I-147500J0D01*
G01*
X13837500Y40370000D01*
G75*
G02*
X13690000Y40517500I0J147500D01*
G01*
G37*
G04 #@! TD.AperFunction*
G04 #@! TA.AperFunction,SMDPad,CuDef*
G36*
G01*
X12720000Y40517500D02*
X12720000Y40862500D01*
G75*
G02*
X12867500Y41010000I147500J0D01*
G01*
X13162500Y41010000D01*
G75*
G02*
X13310000Y40862500I0J-147500D01*
G01*
X13310000Y40517500D01*
G75*
G02*
X13162500Y40370000I-147500J0D01*
G01*
X12867500Y40370000D01*
G75*
G02*
X12720000Y40517500I0J147500D01*
G01*
G37*
G04 #@! TD.AperFunction*
G04 #@! TA.AperFunction,SMDPad,CuDef*
G36*
G01*
X9710000Y34362500D02*
X9710000Y34017500D01*
G75*
G02*
X9562500Y33870000I-147500J0D01*
G01*
X9267500Y33870000D01*
G75*
G02*
X9120000Y34017500I0J147500D01*
G01*
X9120000Y34362500D01*
G75*
G02*
X9267500Y34510000I147500J0D01*
G01*
X9562500Y34510000D01*
G75*
G02*
X9710000Y34362500I0J-147500D01*
G01*
G37*
G04 #@! TD.AperFunction*
G04 #@! TA.AperFunction,SMDPad,CuDef*
G36*
G01*
X10680000Y34362500D02*
X10680000Y34017500D01*
G75*
G02*
X10532500Y33870000I-147500J0D01*
G01*
X10237500Y33870000D01*
G75*
G02*
X10090000Y34017500I0J147500D01*
G01*
X10090000Y34362500D01*
G75*
G02*
X10237500Y34510000I147500J0D01*
G01*
X10532500Y34510000D01*
G75*
G02*
X10680000Y34362500I0J-147500D01*
G01*
G37*
G04 #@! TD.AperFunction*
G04 #@! TA.AperFunction,SMDPad,CuDef*
G36*
G01*
X16090000Y34717500D02*
X16090000Y35062500D01*
G75*
G02*
X16237500Y35210000I147500J0D01*
G01*
X16532500Y35210000D01*
G75*
G02*
X16680000Y35062500I0J-147500D01*
G01*
X16680000Y34717500D01*
G75*
G02*
X16532500Y34570000I-147500J0D01*
G01*
X16237500Y34570000D01*
G75*
G02*
X16090000Y34717500I0J147500D01*
G01*
G37*
G04 #@! TD.AperFunction*
G04 #@! TA.AperFunction,SMDPad,CuDef*
G36*
G01*
X15120000Y34717500D02*
X15120000Y35062500D01*
G75*
G02*
X15267500Y35210000I147500J0D01*
G01*
X15562500Y35210000D01*
G75*
G02*
X15710000Y35062500I0J-147500D01*
G01*
X15710000Y34717500D01*
G75*
G02*
X15562500Y34570000I-147500J0D01*
G01*
X15267500Y34570000D01*
G75*
G02*
X15120000Y34717500I0J147500D01*
G01*
G37*
G04 #@! TD.AperFunction*
G04 #@! TA.AperFunction,SMDPad,CuDef*
G36*
G01*
X26527500Y19000000D02*
X26872500Y19000000D01*
G75*
G02*
X27020000Y18852500I0J-147500D01*
G01*
X27020000Y18557500D01*
G75*
G02*
X26872500Y18410000I-147500J0D01*
G01*
X26527500Y18410000D01*
G75*
G02*
X26380000Y18557500I0J147500D01*
G01*
X26380000Y18852500D01*
G75*
G02*
X26527500Y19000000I147500J0D01*
G01*
G37*
G04 #@! TD.AperFunction*
G04 #@! TA.AperFunction,SMDPad,CuDef*
G36*
G01*
X26527500Y19970000D02*
X26872500Y19970000D01*
G75*
G02*
X27020000Y19822500I0J-147500D01*
G01*
X27020000Y19527500D01*
G75*
G02*
X26872500Y19380000I-147500J0D01*
G01*
X26527500Y19380000D01*
G75*
G02*
X26380000Y19527500I0J147500D01*
G01*
X26380000Y19822500D01*
G75*
G02*
X26527500Y19970000I147500J0D01*
G01*
G37*
G04 #@! TD.AperFunction*
G04 #@! TA.AperFunction,SMDPad,CuDef*
G36*
G01*
X20490000Y7617500D02*
X20490000Y7962500D01*
G75*
G02*
X20637500Y8110000I147500J0D01*
G01*
X20932500Y8110000D01*
G75*
G02*
X21080000Y7962500I0J-147500D01*
G01*
X21080000Y7617500D01*
G75*
G02*
X20932500Y7470000I-147500J0D01*
G01*
X20637500Y7470000D01*
G75*
G02*
X20490000Y7617500I0J147500D01*
G01*
G37*
G04 #@! TD.AperFunction*
G04 #@! TA.AperFunction,SMDPad,CuDef*
G36*
G01*
X19520000Y7617500D02*
X19520000Y7962500D01*
G75*
G02*
X19667500Y8110000I147500J0D01*
G01*
X19962500Y8110000D01*
G75*
G02*
X20110000Y7962500I0J-147500D01*
G01*
X20110000Y7617500D01*
G75*
G02*
X19962500Y7470000I-147500J0D01*
G01*
X19667500Y7470000D01*
G75*
G02*
X19520000Y7617500I0J147500D01*
G01*
G37*
G04 #@! TD.AperFunction*
D17*
X10800000Y8190000D03*
D18*
X43130000Y6330000D03*
X45670000Y6330000D03*
X43130000Y3790000D03*
X45670000Y3790000D03*
X43130000Y1250000D03*
D19*
X45670000Y1250000D03*
G04 #@! TA.AperFunction,SMDPad,CuDef*
G36*
G01*
X31575000Y17165000D02*
X31575000Y18415000D01*
G75*
G02*
X31825000Y18665000I250000J0D01*
G01*
X32575000Y18665000D01*
G75*
G02*
X32825000Y18415000I0J-250000D01*
G01*
X32825000Y17165000D01*
G75*
G02*
X32575000Y16915000I-250000J0D01*
G01*
X31825000Y16915000D01*
G75*
G02*
X31575000Y17165000I0J250000D01*
G01*
G37*
G04 #@! TD.AperFunction*
G04 #@! TA.AperFunction,SMDPad,CuDef*
G36*
G01*
X28775000Y17165000D02*
X28775000Y18415000D01*
G75*
G02*
X29025000Y18665000I250000J0D01*
G01*
X29775000Y18665000D01*
G75*
G02*
X30025000Y18415000I0J-250000D01*
G01*
X30025000Y17165000D01*
G75*
G02*
X29775000Y16915000I-250000J0D01*
G01*
X29025000Y16915000D01*
G75*
G02*
X28775000Y17165000I0J250000D01*
G01*
G37*
G04 #@! TD.AperFunction*
G04 #@! TA.AperFunction,SMDPad,CuDef*
G36*
G01*
X21422500Y28080000D02*
X21077500Y28080000D01*
G75*
G02*
X20930000Y28227500I0J147500D01*
G01*
X20930000Y28522500D01*
G75*
G02*
X21077500Y28670000I147500J0D01*
G01*
X21422500Y28670000D01*
G75*
G02*
X21570000Y28522500I0J-147500D01*
G01*
X21570000Y28227500D01*
G75*
G02*
X21422500Y28080000I-147500J0D01*
G01*
G37*
G04 #@! TD.AperFunction*
G04 #@! TA.AperFunction,SMDPad,CuDef*
G36*
G01*
X21422500Y27110000D02*
X21077500Y27110000D01*
G75*
G02*
X20930000Y27257500I0J147500D01*
G01*
X20930000Y27552500D01*
G75*
G02*
X21077500Y27700000I147500J0D01*
G01*
X21422500Y27700000D01*
G75*
G02*
X21570000Y27552500I0J-147500D01*
G01*
X21570000Y27257500D01*
G75*
G02*
X21422500Y27110000I-147500J0D01*
G01*
G37*
G04 #@! TD.AperFunction*
G04 #@! TA.AperFunction,SMDPad,CuDef*
G36*
G01*
X24410000Y16562500D02*
X24410000Y16217500D01*
G75*
G02*
X24262500Y16070000I-147500J0D01*
G01*
X23967500Y16070000D01*
G75*
G02*
X23820000Y16217500I0J147500D01*
G01*
X23820000Y16562500D01*
G75*
G02*
X23967500Y16710000I147500J0D01*
G01*
X24262500Y16710000D01*
G75*
G02*
X24410000Y16562500I0J-147500D01*
G01*
G37*
G04 #@! TD.AperFunction*
G04 #@! TA.AperFunction,SMDPad,CuDef*
G36*
G01*
X25380000Y16562500D02*
X25380000Y16217500D01*
G75*
G02*
X25232500Y16070000I-147500J0D01*
G01*
X24937500Y16070000D01*
G75*
G02*
X24790000Y16217500I0J147500D01*
G01*
X24790000Y16562500D01*
G75*
G02*
X24937500Y16710000I147500J0D01*
G01*
X25232500Y16710000D01*
G75*
G02*
X25380000Y16562500I0J-147500D01*
G01*
G37*
G04 #@! TD.AperFunction*
G04 #@! TA.AperFunction,SMDPad,CuDef*
G36*
G01*
X22810000Y28562500D02*
X22810000Y28217500D01*
G75*
G02*
X22662500Y28070000I-147500J0D01*
G01*
X22367500Y28070000D01*
G75*
G02*
X22220000Y28217500I0J147500D01*
G01*
X22220000Y28562500D01*
G75*
G02*
X22367500Y28710000I147500J0D01*
G01*
X22662500Y28710000D01*
G75*
G02*
X22810000Y28562500I0J-147500D01*
G01*
G37*
G04 #@! TD.AperFunction*
G04 #@! TA.AperFunction,SMDPad,CuDef*
G36*
G01*
X23780000Y28562500D02*
X23780000Y28217500D01*
G75*
G02*
X23632500Y28070000I-147500J0D01*
G01*
X23337500Y28070000D01*
G75*
G02*
X23190000Y28217500I0J147500D01*
G01*
X23190000Y28562500D01*
G75*
G02*
X23337500Y28710000I147500J0D01*
G01*
X23632500Y28710000D01*
G75*
G02*
X23780000Y28562500I0J-147500D01*
G01*
G37*
G04 #@! TD.AperFunction*
G04 #@! TA.AperFunction,SMDPad,CuDef*
G36*
G01*
X22827500Y16950000D02*
X23172500Y16950000D01*
G75*
G02*
X23320000Y16802500I0J-147500D01*
G01*
X23320000Y16507500D01*
G75*
G02*
X23172500Y16360000I-147500J0D01*
G01*
X22827500Y16360000D01*
G75*
G02*
X22680000Y16507500I0J147500D01*
G01*
X22680000Y16802500D01*
G75*
G02*
X22827500Y16950000I147500J0D01*
G01*
G37*
G04 #@! TD.AperFunction*
G04 #@! TA.AperFunction,SMDPad,CuDef*
G36*
G01*
X22827500Y17920000D02*
X23172500Y17920000D01*
G75*
G02*
X23320000Y17772500I0J-147500D01*
G01*
X23320000Y17477500D01*
G75*
G02*
X23172500Y17330000I-147500J0D01*
G01*
X22827500Y17330000D01*
G75*
G02*
X22680000Y17477500I0J147500D01*
G01*
X22680000Y17772500D01*
G75*
G02*
X22827500Y17920000I147500J0D01*
G01*
G37*
G04 #@! TD.AperFunction*
G04 #@! TA.AperFunction,SMDPad,CuDef*
G36*
G01*
X21190000Y23217500D02*
X21190000Y23562500D01*
G75*
G02*
X21337500Y23710000I147500J0D01*
G01*
X21632500Y23710000D01*
G75*
G02*
X21780000Y23562500I0J-147500D01*
G01*
X21780000Y23217500D01*
G75*
G02*
X21632500Y23070000I-147500J0D01*
G01*
X21337500Y23070000D01*
G75*
G02*
X21190000Y23217500I0J147500D01*
G01*
G37*
G04 #@! TD.AperFunction*
G04 #@! TA.AperFunction,SMDPad,CuDef*
G36*
G01*
X20220000Y23217500D02*
X20220000Y23562500D01*
G75*
G02*
X20367500Y23710000I147500J0D01*
G01*
X20662500Y23710000D01*
G75*
G02*
X20810000Y23562500I0J-147500D01*
G01*
X20810000Y23217500D01*
G75*
G02*
X20662500Y23070000I-147500J0D01*
G01*
X20367500Y23070000D01*
G75*
G02*
X20220000Y23217500I0J147500D01*
G01*
G37*
G04 #@! TD.AperFunction*
G04 #@! TA.AperFunction,SMDPad,CuDef*
G36*
G01*
X20827500Y17500000D02*
X21172500Y17500000D01*
G75*
G02*
X21320000Y17352500I0J-147500D01*
G01*
X21320000Y17057500D01*
G75*
G02*
X21172500Y16910000I-147500J0D01*
G01*
X20827500Y16910000D01*
G75*
G02*
X20680000Y17057500I0J147500D01*
G01*
X20680000Y17352500D01*
G75*
G02*
X20827500Y17500000I147500J0D01*
G01*
G37*
G04 #@! TD.AperFunction*
G04 #@! TA.AperFunction,SMDPad,CuDef*
G36*
G01*
X20827500Y18470000D02*
X21172500Y18470000D01*
G75*
G02*
X21320000Y18322500I0J-147500D01*
G01*
X21320000Y18027500D01*
G75*
G02*
X21172500Y17880000I-147500J0D01*
G01*
X20827500Y17880000D01*
G75*
G02*
X20680000Y18027500I0J147500D01*
G01*
X20680000Y18322500D01*
G75*
G02*
X20827500Y18470000I147500J0D01*
G01*
G37*
G04 #@! TD.AperFunction*
G04 #@! TA.AperFunction,SMDPad,CuDef*
G36*
G01*
X21190000Y33217500D02*
X21190000Y33562500D01*
G75*
G02*
X21337500Y33710000I147500J0D01*
G01*
X21632500Y33710000D01*
G75*
G02*
X21780000Y33562500I0J-147500D01*
G01*
X21780000Y33217500D01*
G75*
G02*
X21632500Y33070000I-147500J0D01*
G01*
X21337500Y33070000D01*
G75*
G02*
X21190000Y33217500I0J147500D01*
G01*
G37*
G04 #@! TD.AperFunction*
G04 #@! TA.AperFunction,SMDPad,CuDef*
G36*
G01*
X20220000Y33217500D02*
X20220000Y33562500D01*
G75*
G02*
X20367500Y33710000I147500J0D01*
G01*
X20662500Y33710000D01*
G75*
G02*
X20810000Y33562500I0J-147500D01*
G01*
X20810000Y33217500D01*
G75*
G02*
X20662500Y33070000I-147500J0D01*
G01*
X20367500Y33070000D01*
G75*
G02*
X20220000Y33217500I0J147500D01*
G01*
G37*
G04 #@! TD.AperFunction*
G04 #@! TA.AperFunction,SMDPad,CuDef*
G36*
G01*
X23472500Y22880000D02*
X23127500Y22880000D01*
G75*
G02*
X22980000Y23027500I0J147500D01*
G01*
X22980000Y23322500D01*
G75*
G02*
X23127500Y23470000I147500J0D01*
G01*
X23472500Y23470000D01*
G75*
G02*
X23620000Y23322500I0J-147500D01*
G01*
X23620000Y23027500D01*
G75*
G02*
X23472500Y22880000I-147500J0D01*
G01*
G37*
G04 #@! TD.AperFunction*
G04 #@! TA.AperFunction,SMDPad,CuDef*
G36*
G01*
X23472500Y21910000D02*
X23127500Y21910000D01*
G75*
G02*
X22980000Y22057500I0J147500D01*
G01*
X22980000Y22352500D01*
G75*
G02*
X23127500Y22500000I147500J0D01*
G01*
X23472500Y22500000D01*
G75*
G02*
X23620000Y22352500I0J-147500D01*
G01*
X23620000Y22057500D01*
G75*
G02*
X23472500Y21910000I-147500J0D01*
G01*
G37*
G04 #@! TD.AperFunction*
G04 #@! TA.AperFunction,SMDPad,CuDef*
G36*
G01*
X21190000Y32217500D02*
X21190000Y32562500D01*
G75*
G02*
X21337500Y32710000I147500J0D01*
G01*
X21632500Y32710000D01*
G75*
G02*
X21780000Y32562500I0J-147500D01*
G01*
X21780000Y32217500D01*
G75*
G02*
X21632500Y32070000I-147500J0D01*
G01*
X21337500Y32070000D01*
G75*
G02*
X21190000Y32217500I0J147500D01*
G01*
G37*
G04 #@! TD.AperFunction*
G04 #@! TA.AperFunction,SMDPad,CuDef*
G36*
G01*
X20220000Y32217500D02*
X20220000Y32562500D01*
G75*
G02*
X20367500Y32710000I147500J0D01*
G01*
X20662500Y32710000D01*
G75*
G02*
X20810000Y32562500I0J-147500D01*
G01*
X20810000Y32217500D01*
G75*
G02*
X20662500Y32070000I-147500J0D01*
G01*
X20367500Y32070000D01*
G75*
G02*
X20220000Y32217500I0J147500D01*
G01*
G37*
G04 #@! TD.AperFunction*
G04 #@! TA.AperFunction,SMDPad,CuDef*
G36*
G01*
X22172500Y16780000D02*
X21827500Y16780000D01*
G75*
G02*
X21680000Y16927500I0J147500D01*
G01*
X21680000Y17222500D01*
G75*
G02*
X21827500Y17370000I147500J0D01*
G01*
X22172500Y17370000D01*
G75*
G02*
X22320000Y17222500I0J-147500D01*
G01*
X22320000Y16927500D01*
G75*
G02*
X22172500Y16780000I-147500J0D01*
G01*
G37*
G04 #@! TD.AperFunction*
G04 #@! TA.AperFunction,SMDPad,CuDef*
G36*
G01*
X22172500Y15810000D02*
X21827500Y15810000D01*
G75*
G02*
X21680000Y15957500I0J147500D01*
G01*
X21680000Y16252500D01*
G75*
G02*
X21827500Y16400000I147500J0D01*
G01*
X22172500Y16400000D01*
G75*
G02*
X22320000Y16252500I0J-147500D01*
G01*
X22320000Y15957500D01*
G75*
G02*
X22172500Y15810000I-147500J0D01*
G01*
G37*
G04 #@! TD.AperFunction*
G04 #@! TA.AperFunction,SMDPad,CuDef*
G36*
G01*
X21810000Y25562500D02*
X21810000Y25217500D01*
G75*
G02*
X21662500Y25070000I-147500J0D01*
G01*
X21367500Y25070000D01*
G75*
G02*
X21220000Y25217500I0J147500D01*
G01*
X21220000Y25562500D01*
G75*
G02*
X21367500Y25710000I147500J0D01*
G01*
X21662500Y25710000D01*
G75*
G02*
X21810000Y25562500I0J-147500D01*
G01*
G37*
G04 #@! TD.AperFunction*
G04 #@! TA.AperFunction,SMDPad,CuDef*
G36*
G01*
X22780000Y25562500D02*
X22780000Y25217500D01*
G75*
G02*
X22632500Y25070000I-147500J0D01*
G01*
X22337500Y25070000D01*
G75*
G02*
X22190000Y25217500I0J147500D01*
G01*
X22190000Y25562500D01*
G75*
G02*
X22337500Y25710000I147500J0D01*
G01*
X22632500Y25710000D01*
G75*
G02*
X22780000Y25562500I0J-147500D01*
G01*
G37*
G04 #@! TD.AperFunction*
G04 #@! TA.AperFunction,SMDPad,CuDef*
G36*
G01*
X35690000Y34517500D02*
X35690000Y34862500D01*
G75*
G02*
X35837500Y35010000I147500J0D01*
G01*
X36132500Y35010000D01*
G75*
G02*
X36280000Y34862500I0J-147500D01*
G01*
X36280000Y34517500D01*
G75*
G02*
X36132500Y34370000I-147500J0D01*
G01*
X35837500Y34370000D01*
G75*
G02*
X35690000Y34517500I0J147500D01*
G01*
G37*
G04 #@! TD.AperFunction*
G04 #@! TA.AperFunction,SMDPad,CuDef*
G36*
G01*
X34720000Y34517500D02*
X34720000Y34862500D01*
G75*
G02*
X34867500Y35010000I147500J0D01*
G01*
X35162500Y35010000D01*
G75*
G02*
X35310000Y34862500I0J-147500D01*
G01*
X35310000Y34517500D01*
G75*
G02*
X35162500Y34370000I-147500J0D01*
G01*
X34867500Y34370000D01*
G75*
G02*
X34720000Y34517500I0J147500D01*
G01*
G37*
G04 #@! TD.AperFunction*
G04 #@! TA.AperFunction,SMDPad,CuDef*
G36*
G01*
X40390000Y33017500D02*
X40390000Y33362500D01*
G75*
G02*
X40537500Y33510000I147500J0D01*
G01*
X40832500Y33510000D01*
G75*
G02*
X40980000Y33362500I0J-147500D01*
G01*
X40980000Y33017500D01*
G75*
G02*
X40832500Y32870000I-147500J0D01*
G01*
X40537500Y32870000D01*
G75*
G02*
X40390000Y33017500I0J147500D01*
G01*
G37*
G04 #@! TD.AperFunction*
G04 #@! TA.AperFunction,SMDPad,CuDef*
G36*
G01*
X39420000Y33017500D02*
X39420000Y33362500D01*
G75*
G02*
X39567500Y33510000I147500J0D01*
G01*
X39862500Y33510000D01*
G75*
G02*
X40010000Y33362500I0J-147500D01*
G01*
X40010000Y33017500D01*
G75*
G02*
X39862500Y32870000I-147500J0D01*
G01*
X39567500Y32870000D01*
G75*
G02*
X39420000Y33017500I0J147500D01*
G01*
G37*
G04 #@! TD.AperFunction*
G04 #@! TA.AperFunction,SMDPad,CuDef*
G36*
G01*
X33790000Y35017500D02*
X33790000Y35362500D01*
G75*
G02*
X33937500Y35510000I147500J0D01*
G01*
X34232500Y35510000D01*
G75*
G02*
X34380000Y35362500I0J-147500D01*
G01*
X34380000Y35017500D01*
G75*
G02*
X34232500Y34870000I-147500J0D01*
G01*
X33937500Y34870000D01*
G75*
G02*
X33790000Y35017500I0J147500D01*
G01*
G37*
G04 #@! TD.AperFunction*
G04 #@! TA.AperFunction,SMDPad,CuDef*
G36*
G01*
X32820000Y35017500D02*
X32820000Y35362500D01*
G75*
G02*
X32967500Y35510000I147500J0D01*
G01*
X33262500Y35510000D01*
G75*
G02*
X33410000Y35362500I0J-147500D01*
G01*
X33410000Y35017500D01*
G75*
G02*
X33262500Y34870000I-147500J0D01*
G01*
X32967500Y34870000D01*
G75*
G02*
X32820000Y35017500I0J147500D01*
G01*
G37*
G04 #@! TD.AperFunction*
G04 #@! TA.AperFunction,SMDPad,CuDef*
G36*
G01*
X38610000Y31562500D02*
X38610000Y31217500D01*
G75*
G02*
X38462500Y31070000I-147500J0D01*
G01*
X38167500Y31070000D01*
G75*
G02*
X38020000Y31217500I0J147500D01*
G01*
X38020000Y31562500D01*
G75*
G02*
X38167500Y31710000I147500J0D01*
G01*
X38462500Y31710000D01*
G75*
G02*
X38610000Y31562500I0J-147500D01*
G01*
G37*
G04 #@! TD.AperFunction*
G04 #@! TA.AperFunction,SMDPad,CuDef*
G36*
G01*
X39580000Y31562500D02*
X39580000Y31217500D01*
G75*
G02*
X39432500Y31070000I-147500J0D01*
G01*
X39137500Y31070000D01*
G75*
G02*
X38990000Y31217500I0J147500D01*
G01*
X38990000Y31562500D01*
G75*
G02*
X39137500Y31710000I147500J0D01*
G01*
X39432500Y31710000D01*
G75*
G02*
X39580000Y31562500I0J-147500D01*
G01*
G37*
G04 #@! TD.AperFunction*
G04 #@! TA.AperFunction,SMDPad,CuDef*
G36*
G01*
X37390000Y33017500D02*
X37390000Y33362500D01*
G75*
G02*
X37537500Y33510000I147500J0D01*
G01*
X37832500Y33510000D01*
G75*
G02*
X37980000Y33362500I0J-147500D01*
G01*
X37980000Y33017500D01*
G75*
G02*
X37832500Y32870000I-147500J0D01*
G01*
X37537500Y32870000D01*
G75*
G02*
X37390000Y33017500I0J147500D01*
G01*
G37*
G04 #@! TD.AperFunction*
G04 #@! TA.AperFunction,SMDPad,CuDef*
G36*
G01*
X36420000Y33017500D02*
X36420000Y33362500D01*
G75*
G02*
X36567500Y33510000I147500J0D01*
G01*
X36862500Y33510000D01*
G75*
G02*
X37010000Y33362500I0J-147500D01*
G01*
X37010000Y33017500D01*
G75*
G02*
X36862500Y32870000I-147500J0D01*
G01*
X36567500Y32870000D01*
G75*
G02*
X36420000Y33017500I0J147500D01*
G01*
G37*
G04 #@! TD.AperFunction*
G04 #@! TA.AperFunction,SMDPad,CuDef*
G36*
G01*
X35390000Y33017500D02*
X35390000Y33362500D01*
G75*
G02*
X35537500Y33510000I147500J0D01*
G01*
X35832500Y33510000D01*
G75*
G02*
X35980000Y33362500I0J-147500D01*
G01*
X35980000Y33017500D01*
G75*
G02*
X35832500Y32870000I-147500J0D01*
G01*
X35537500Y32870000D01*
G75*
G02*
X35390000Y33017500I0J147500D01*
G01*
G37*
G04 #@! TD.AperFunction*
G04 #@! TA.AperFunction,SMDPad,CuDef*
G36*
G01*
X34420000Y33017500D02*
X34420000Y33362500D01*
G75*
G02*
X34567500Y33510000I147500J0D01*
G01*
X34862500Y33510000D01*
G75*
G02*
X35010000Y33362500I0J-147500D01*
G01*
X35010000Y33017500D01*
G75*
G02*
X34862500Y32870000I-147500J0D01*
G01*
X34567500Y32870000D01*
G75*
G02*
X34420000Y33017500I0J147500D01*
G01*
G37*
G04 #@! TD.AperFunction*
G04 #@! TA.AperFunction,SMDPad,CuDef*
G36*
G01*
X27190000Y23217500D02*
X27190000Y23562500D01*
G75*
G02*
X27337500Y23710000I147500J0D01*
G01*
X27632500Y23710000D01*
G75*
G02*
X27780000Y23562500I0J-147500D01*
G01*
X27780000Y23217500D01*
G75*
G02*
X27632500Y23070000I-147500J0D01*
G01*
X27337500Y23070000D01*
G75*
G02*
X27190000Y23217500I0J147500D01*
G01*
G37*
G04 #@! TD.AperFunction*
G04 #@! TA.AperFunction,SMDPad,CuDef*
G36*
G01*
X26220000Y23217500D02*
X26220000Y23562500D01*
G75*
G02*
X26367500Y23710000I147500J0D01*
G01*
X26662500Y23710000D01*
G75*
G02*
X26810000Y23562500I0J-147500D01*
G01*
X26810000Y23217500D01*
G75*
G02*
X26662500Y23070000I-147500J0D01*
G01*
X26367500Y23070000D01*
G75*
G02*
X26220000Y23217500I0J147500D01*
G01*
G37*
G04 #@! TD.AperFunction*
G04 #@! TA.AperFunction,SMDPad,CuDef*
G36*
G01*
X28172500Y29580000D02*
X27827500Y29580000D01*
G75*
G02*
X27680000Y29727500I0J147500D01*
G01*
X27680000Y30022500D01*
G75*
G02*
X27827500Y30170000I147500J0D01*
G01*
X28172500Y30170000D01*
G75*
G02*
X28320000Y30022500I0J-147500D01*
G01*
X28320000Y29727500D01*
G75*
G02*
X28172500Y29580000I-147500J0D01*
G01*
G37*
G04 #@! TD.AperFunction*
G04 #@! TA.AperFunction,SMDPad,CuDef*
G36*
G01*
X28172500Y28610000D02*
X27827500Y28610000D01*
G75*
G02*
X27680000Y28757500I0J147500D01*
G01*
X27680000Y29052500D01*
G75*
G02*
X27827500Y29200000I147500J0D01*
G01*
X28172500Y29200000D01*
G75*
G02*
X28320000Y29052500I0J-147500D01*
G01*
X28320000Y28757500D01*
G75*
G02*
X28172500Y28610000I-147500J0D01*
G01*
G37*
G04 #@! TD.AperFunction*
G04 #@! TA.AperFunction,SMDPad,CuDef*
G36*
G01*
X27827500Y20000000D02*
X28172500Y20000000D01*
G75*
G02*
X28320000Y19852500I0J-147500D01*
G01*
X28320000Y19557500D01*
G75*
G02*
X28172500Y19410000I-147500J0D01*
G01*
X27827500Y19410000D01*
G75*
G02*
X27680000Y19557500I0J147500D01*
G01*
X27680000Y19852500D01*
G75*
G02*
X27827500Y20000000I147500J0D01*
G01*
G37*
G04 #@! TD.AperFunction*
G04 #@! TA.AperFunction,SMDPad,CuDef*
G36*
G01*
X27827500Y20970000D02*
X28172500Y20970000D01*
G75*
G02*
X28320000Y20822500I0J-147500D01*
G01*
X28320000Y20527500D01*
G75*
G02*
X28172500Y20380000I-147500J0D01*
G01*
X27827500Y20380000D01*
G75*
G02*
X27680000Y20527500I0J147500D01*
G01*
X27680000Y20822500D01*
G75*
G02*
X27827500Y20970000I147500J0D01*
G01*
G37*
G04 #@! TD.AperFunction*
G04 #@! TA.AperFunction,SMDPad,CuDef*
G36*
G01*
X30727500Y26700000D02*
X31072500Y26700000D01*
G75*
G02*
X31220000Y26552500I0J-147500D01*
G01*
X31220000Y26257500D01*
G75*
G02*
X31072500Y26110000I-147500J0D01*
G01*
X30727500Y26110000D01*
G75*
G02*
X30580000Y26257500I0J147500D01*
G01*
X30580000Y26552500D01*
G75*
G02*
X30727500Y26700000I147500J0D01*
G01*
G37*
G04 #@! TD.AperFunction*
G04 #@! TA.AperFunction,SMDPad,CuDef*
G36*
G01*
X30727500Y27670000D02*
X31072500Y27670000D01*
G75*
G02*
X31220000Y27522500I0J-147500D01*
G01*
X31220000Y27227500D01*
G75*
G02*
X31072500Y27080000I-147500J0D01*
G01*
X30727500Y27080000D01*
G75*
G02*
X30580000Y27227500I0J147500D01*
G01*
X30580000Y27522500D01*
G75*
G02*
X30727500Y27670000I147500J0D01*
G01*
G37*
G04 #@! TD.AperFunction*
G04 #@! TA.AperFunction,SMDPad,CuDef*
G36*
G01*
X24710000Y22862500D02*
X24710000Y22517500D01*
G75*
G02*
X24562500Y22370000I-147500J0D01*
G01*
X24267500Y22370000D01*
G75*
G02*
X24120000Y22517500I0J147500D01*
G01*
X24120000Y22862500D01*
G75*
G02*
X24267500Y23010000I147500J0D01*
G01*
X24562500Y23010000D01*
G75*
G02*
X24710000Y22862500I0J-147500D01*
G01*
G37*
G04 #@! TD.AperFunction*
G04 #@! TA.AperFunction,SMDPad,CuDef*
G36*
G01*
X25680000Y22862500D02*
X25680000Y22517500D01*
G75*
G02*
X25532500Y22370000I-147500J0D01*
G01*
X25237500Y22370000D01*
G75*
G02*
X25090000Y22517500I0J147500D01*
G01*
X25090000Y22862500D01*
G75*
G02*
X25237500Y23010000I147500J0D01*
G01*
X25532500Y23010000D01*
G75*
G02*
X25680000Y22862500I0J-147500D01*
G01*
G37*
G04 #@! TD.AperFunction*
G04 #@! TA.AperFunction,SMDPad,CuDef*
G36*
G01*
X29190000Y22217500D02*
X29190000Y22562500D01*
G75*
G02*
X29337500Y22710000I147500J0D01*
G01*
X29632500Y22710000D01*
G75*
G02*
X29780000Y22562500I0J-147500D01*
G01*
X29780000Y22217500D01*
G75*
G02*
X29632500Y22070000I-147500J0D01*
G01*
X29337500Y22070000D01*
G75*
G02*
X29190000Y22217500I0J147500D01*
G01*
G37*
G04 #@! TD.AperFunction*
G04 #@! TA.AperFunction,SMDPad,CuDef*
G36*
G01*
X28220000Y22217500D02*
X28220000Y22562500D01*
G75*
G02*
X28367500Y22710000I147500J0D01*
G01*
X28662500Y22710000D01*
G75*
G02*
X28810000Y22562500I0J-147500D01*
G01*
X28810000Y22217500D01*
G75*
G02*
X28662500Y22070000I-147500J0D01*
G01*
X28367500Y22070000D01*
G75*
G02*
X28220000Y22217500I0J147500D01*
G01*
G37*
G04 #@! TD.AperFunction*
G04 #@! TA.AperFunction,SMDPad,CuDef*
G36*
G01*
X27190000Y24917500D02*
X27190000Y25262500D01*
G75*
G02*
X27337500Y25410000I147500J0D01*
G01*
X27632500Y25410000D01*
G75*
G02*
X27780000Y25262500I0J-147500D01*
G01*
X27780000Y24917500D01*
G75*
G02*
X27632500Y24770000I-147500J0D01*
G01*
X27337500Y24770000D01*
G75*
G02*
X27190000Y24917500I0J147500D01*
G01*
G37*
G04 #@! TD.AperFunction*
G04 #@! TA.AperFunction,SMDPad,CuDef*
G36*
G01*
X26220000Y24917500D02*
X26220000Y25262500D01*
G75*
G02*
X26367500Y25410000I147500J0D01*
G01*
X26662500Y25410000D01*
G75*
G02*
X26810000Y25262500I0J-147500D01*
G01*
X26810000Y24917500D01*
G75*
G02*
X26662500Y24770000I-147500J0D01*
G01*
X26367500Y24770000D01*
G75*
G02*
X26220000Y24917500I0J147500D01*
G01*
G37*
G04 #@! TD.AperFunction*
G04 #@! TA.AperFunction,SMDPad,CuDef*
G36*
G01*
X31290000Y31117500D02*
X31290000Y31462500D01*
G75*
G02*
X31437500Y31610000I147500J0D01*
G01*
X31732500Y31610000D01*
G75*
G02*
X31880000Y31462500I0J-147500D01*
G01*
X31880000Y31117500D01*
G75*
G02*
X31732500Y30970000I-147500J0D01*
G01*
X31437500Y30970000D01*
G75*
G02*
X31290000Y31117500I0J147500D01*
G01*
G37*
G04 #@! TD.AperFunction*
G04 #@! TA.AperFunction,SMDPad,CuDef*
G36*
G01*
X30320000Y31117500D02*
X30320000Y31462500D01*
G75*
G02*
X30467500Y31610000I147500J0D01*
G01*
X30762500Y31610000D01*
G75*
G02*
X30910000Y31462500I0J-147500D01*
G01*
X30910000Y31117500D01*
G75*
G02*
X30762500Y30970000I-147500J0D01*
G01*
X30467500Y30970000D01*
G75*
G02*
X30320000Y31117500I0J147500D01*
G01*
G37*
G04 #@! TD.AperFunction*
G04 #@! TA.AperFunction,SMDPad,CuDef*
G36*
G01*
X29310000Y25562500D02*
X29310000Y25217500D01*
G75*
G02*
X29162500Y25070000I-147500J0D01*
G01*
X28867500Y25070000D01*
G75*
G02*
X28720000Y25217500I0J147500D01*
G01*
X28720000Y25562500D01*
G75*
G02*
X28867500Y25710000I147500J0D01*
G01*
X29162500Y25710000D01*
G75*
G02*
X29310000Y25562500I0J-147500D01*
G01*
G37*
G04 #@! TD.AperFunction*
G04 #@! TA.AperFunction,SMDPad,CuDef*
G36*
G01*
X30280000Y25562500D02*
X30280000Y25217500D01*
G75*
G02*
X30132500Y25070000I-147500J0D01*
G01*
X29837500Y25070000D01*
G75*
G02*
X29690000Y25217500I0J147500D01*
G01*
X29690000Y25562500D01*
G75*
G02*
X29837500Y25710000I147500J0D01*
G01*
X30132500Y25710000D01*
G75*
G02*
X30280000Y25562500I0J-147500D01*
G01*
G37*
G04 #@! TD.AperFunction*
G04 #@! TA.AperFunction,SMDPad,CuDef*
G36*
G01*
X33827500Y20200000D02*
X34172500Y20200000D01*
G75*
G02*
X34320000Y20052500I0J-147500D01*
G01*
X34320000Y19757500D01*
G75*
G02*
X34172500Y19610000I-147500J0D01*
G01*
X33827500Y19610000D01*
G75*
G02*
X33680000Y19757500I0J147500D01*
G01*
X33680000Y20052500D01*
G75*
G02*
X33827500Y20200000I147500J0D01*
G01*
G37*
G04 #@! TD.AperFunction*
G04 #@! TA.AperFunction,SMDPad,CuDef*
G36*
G01*
X33827500Y21170000D02*
X34172500Y21170000D01*
G75*
G02*
X34320000Y21022500I0J-147500D01*
G01*
X34320000Y20727500D01*
G75*
G02*
X34172500Y20580000I-147500J0D01*
G01*
X33827500Y20580000D01*
G75*
G02*
X33680000Y20727500I0J147500D01*
G01*
X33680000Y21022500D01*
G75*
G02*
X33827500Y21170000I147500J0D01*
G01*
G37*
G04 #@! TD.AperFunction*
G04 #@! TA.AperFunction,SMDPad,CuDef*
G36*
G01*
X40672500Y22580000D02*
X40327500Y22580000D01*
G75*
G02*
X40180000Y22727500I0J147500D01*
G01*
X40180000Y23022500D01*
G75*
G02*
X40327500Y23170000I147500J0D01*
G01*
X40672500Y23170000D01*
G75*
G02*
X40820000Y23022500I0J-147500D01*
G01*
X40820000Y22727500D01*
G75*
G02*
X40672500Y22580000I-147500J0D01*
G01*
G37*
G04 #@! TD.AperFunction*
G04 #@! TA.AperFunction,SMDPad,CuDef*
G36*
G01*
X40672500Y21610000D02*
X40327500Y21610000D01*
G75*
G02*
X40180000Y21757500I0J147500D01*
G01*
X40180000Y22052500D01*
G75*
G02*
X40327500Y22200000I147500J0D01*
G01*
X40672500Y22200000D01*
G75*
G02*
X40820000Y22052500I0J-147500D01*
G01*
X40820000Y21757500D01*
G75*
G02*
X40672500Y21610000I-147500J0D01*
G01*
G37*
G04 #@! TD.AperFunction*
G04 #@! TA.AperFunction,SMDPad,CuDef*
G36*
G01*
X39290000Y17217500D02*
X39290000Y17562500D01*
G75*
G02*
X39437500Y17710000I147500J0D01*
G01*
X39732500Y17710000D01*
G75*
G02*
X39880000Y17562500I0J-147500D01*
G01*
X39880000Y17217500D01*
G75*
G02*
X39732500Y17070000I-147500J0D01*
G01*
X39437500Y17070000D01*
G75*
G02*
X39290000Y17217500I0J147500D01*
G01*
G37*
G04 #@! TD.AperFunction*
G04 #@! TA.AperFunction,SMDPad,CuDef*
G36*
G01*
X38320000Y17217500D02*
X38320000Y17562500D01*
G75*
G02*
X38467500Y17710000I147500J0D01*
G01*
X38762500Y17710000D01*
G75*
G02*
X38910000Y17562500I0J-147500D01*
G01*
X38910000Y17217500D01*
G75*
G02*
X38762500Y17070000I-147500J0D01*
G01*
X38467500Y17070000D01*
G75*
G02*
X38320000Y17217500I0J147500D01*
G01*
G37*
G04 #@! TD.AperFunction*
G04 #@! TA.AperFunction,SMDPad,CuDef*
G36*
G01*
X33172500Y26480000D02*
X32827500Y26480000D01*
G75*
G02*
X32680000Y26627500I0J147500D01*
G01*
X32680000Y26922500D01*
G75*
G02*
X32827500Y27070000I147500J0D01*
G01*
X33172500Y27070000D01*
G75*
G02*
X33320000Y26922500I0J-147500D01*
G01*
X33320000Y26627500D01*
G75*
G02*
X33172500Y26480000I-147500J0D01*
G01*
G37*
G04 #@! TD.AperFunction*
G04 #@! TA.AperFunction,SMDPad,CuDef*
G36*
G01*
X33172500Y25510000D02*
X32827500Y25510000D01*
G75*
G02*
X32680000Y25657500I0J147500D01*
G01*
X32680000Y25952500D01*
G75*
G02*
X32827500Y26100000I147500J0D01*
G01*
X33172500Y26100000D01*
G75*
G02*
X33320000Y25952500I0J-147500D01*
G01*
X33320000Y25657500D01*
G75*
G02*
X33172500Y25510000I-147500J0D01*
G01*
G37*
G04 #@! TD.AperFunction*
G04 #@! TA.AperFunction,SMDPad,CuDef*
G36*
G01*
X37510000Y20462500D02*
X37510000Y20117500D01*
G75*
G02*
X37362500Y19970000I-147500J0D01*
G01*
X37067500Y19970000D01*
G75*
G02*
X36920000Y20117500I0J147500D01*
G01*
X36920000Y20462500D01*
G75*
G02*
X37067500Y20610000I147500J0D01*
G01*
X37362500Y20610000D01*
G75*
G02*
X37510000Y20462500I0J-147500D01*
G01*
G37*
G04 #@! TD.AperFunction*
G04 #@! TA.AperFunction,SMDPad,CuDef*
G36*
G01*
X38480000Y20462500D02*
X38480000Y20117500D01*
G75*
G02*
X38332500Y19970000I-147500J0D01*
G01*
X38037500Y19970000D01*
G75*
G02*
X37890000Y20117500I0J147500D01*
G01*
X37890000Y20462500D01*
G75*
G02*
X38037500Y20610000I147500J0D01*
G01*
X38332500Y20610000D01*
G75*
G02*
X38480000Y20462500I0J-147500D01*
G01*
G37*
G04 #@! TD.AperFunction*
G04 #@! TA.AperFunction,SMDPad,CuDef*
G36*
G01*
X36227500Y21700000D02*
X36572500Y21700000D01*
G75*
G02*
X36720000Y21552500I0J-147500D01*
G01*
X36720000Y21257500D01*
G75*
G02*
X36572500Y21110000I-147500J0D01*
G01*
X36227500Y21110000D01*
G75*
G02*
X36080000Y21257500I0J147500D01*
G01*
X36080000Y21552500D01*
G75*
G02*
X36227500Y21700000I147500J0D01*
G01*
G37*
G04 #@! TD.AperFunction*
G04 #@! TA.AperFunction,SMDPad,CuDef*
G36*
G01*
X36227500Y22670000D02*
X36572500Y22670000D01*
G75*
G02*
X36720000Y22522500I0J-147500D01*
G01*
X36720000Y22227500D01*
G75*
G02*
X36572500Y22080000I-147500J0D01*
G01*
X36227500Y22080000D01*
G75*
G02*
X36080000Y22227500I0J147500D01*
G01*
X36080000Y22522500D01*
G75*
G02*
X36227500Y22670000I147500J0D01*
G01*
G37*
G04 #@! TD.AperFunction*
G04 #@! TA.AperFunction,SMDPad,CuDef*
G36*
G01*
X26310000Y29362500D02*
X26310000Y29017500D01*
G75*
G02*
X26162500Y28870000I-147500J0D01*
G01*
X25867500Y28870000D01*
G75*
G02*
X25720000Y29017500I0J147500D01*
G01*
X25720000Y29362500D01*
G75*
G02*
X25867500Y29510000I147500J0D01*
G01*
X26162500Y29510000D01*
G75*
G02*
X26310000Y29362500I0J-147500D01*
G01*
G37*
G04 #@! TD.AperFunction*
G04 #@! TA.AperFunction,SMDPad,CuDef*
G36*
G01*
X27280000Y29362500D02*
X27280000Y29017500D01*
G75*
G02*
X27132500Y28870000I-147500J0D01*
G01*
X26837500Y28870000D01*
G75*
G02*
X26690000Y29017500I0J147500D01*
G01*
X26690000Y29362500D01*
G75*
G02*
X26837500Y29510000I147500J0D01*
G01*
X27132500Y29510000D01*
G75*
G02*
X27280000Y29362500I0J-147500D01*
G01*
G37*
G04 #@! TD.AperFunction*
G04 #@! TA.AperFunction,SMDPad,CuDef*
G36*
G01*
X24610000Y30662500D02*
X24610000Y30317500D01*
G75*
G02*
X24462500Y30170000I-147500J0D01*
G01*
X24167500Y30170000D01*
G75*
G02*
X24020000Y30317500I0J147500D01*
G01*
X24020000Y30662500D01*
G75*
G02*
X24167500Y30810000I147500J0D01*
G01*
X24462500Y30810000D01*
G75*
G02*
X24610000Y30662500I0J-147500D01*
G01*
G37*
G04 #@! TD.AperFunction*
G04 #@! TA.AperFunction,SMDPad,CuDef*
G36*
G01*
X25580000Y30662500D02*
X25580000Y30317500D01*
G75*
G02*
X25432500Y30170000I-147500J0D01*
G01*
X25137500Y30170000D01*
G75*
G02*
X24990000Y30317500I0J147500D01*
G01*
X24990000Y30662500D01*
G75*
G02*
X25137500Y30810000I147500J0D01*
G01*
X25432500Y30810000D01*
G75*
G02*
X25580000Y30662500I0J-147500D01*
G01*
G37*
G04 #@! TD.AperFunction*
G04 #@! TA.AperFunction,SMDPad,CuDef*
G36*
G01*
X27810000Y26562500D02*
X27810000Y26217500D01*
G75*
G02*
X27662500Y26070000I-147500J0D01*
G01*
X27367500Y26070000D01*
G75*
G02*
X27220000Y26217500I0J147500D01*
G01*
X27220000Y26562500D01*
G75*
G02*
X27367500Y26710000I147500J0D01*
G01*
X27662500Y26710000D01*
G75*
G02*
X27810000Y26562500I0J-147500D01*
G01*
G37*
G04 #@! TD.AperFunction*
G04 #@! TA.AperFunction,SMDPad,CuDef*
G36*
G01*
X28780000Y26562500D02*
X28780000Y26217500D01*
G75*
G02*
X28632500Y26070000I-147500J0D01*
G01*
X28337500Y26070000D01*
G75*
G02*
X28190000Y26217500I0J147500D01*
G01*
X28190000Y26562500D01*
G75*
G02*
X28337500Y26710000I147500J0D01*
G01*
X28632500Y26710000D01*
G75*
G02*
X28780000Y26562500I0J-147500D01*
G01*
G37*
G04 #@! TD.AperFunction*
G04 #@! TA.AperFunction,SMDPad,CuDef*
G36*
G01*
X27490000Y31017500D02*
X27490000Y31362500D01*
G75*
G02*
X27637500Y31510000I147500J0D01*
G01*
X27932500Y31510000D01*
G75*
G02*
X28080000Y31362500I0J-147500D01*
G01*
X28080000Y31017500D01*
G75*
G02*
X27932500Y30870000I-147500J0D01*
G01*
X27637500Y30870000D01*
G75*
G02*
X27490000Y31017500I0J147500D01*
G01*
G37*
G04 #@! TD.AperFunction*
G04 #@! TA.AperFunction,SMDPad,CuDef*
G36*
G01*
X26520000Y31017500D02*
X26520000Y31362500D01*
G75*
G02*
X26667500Y31510000I147500J0D01*
G01*
X26962500Y31510000D01*
G75*
G02*
X27110000Y31362500I0J-147500D01*
G01*
X27110000Y31017500D01*
G75*
G02*
X26962500Y30870000I-147500J0D01*
G01*
X26667500Y30870000D01*
G75*
G02*
X26520000Y31017500I0J147500D01*
G01*
G37*
G04 #@! TD.AperFunction*
G04 #@! TA.AperFunction,SMDPad,CuDef*
G36*
G01*
X29810000Y24562500D02*
X29810000Y24217500D01*
G75*
G02*
X29662500Y24070000I-147500J0D01*
G01*
X29367500Y24070000D01*
G75*
G02*
X29220000Y24217500I0J147500D01*
G01*
X29220000Y24562500D01*
G75*
G02*
X29367500Y24710000I147500J0D01*
G01*
X29662500Y24710000D01*
G75*
G02*
X29810000Y24562500I0J-147500D01*
G01*
G37*
G04 #@! TD.AperFunction*
G04 #@! TA.AperFunction,SMDPad,CuDef*
G36*
G01*
X30780000Y24562500D02*
X30780000Y24217500D01*
G75*
G02*
X30632500Y24070000I-147500J0D01*
G01*
X30337500Y24070000D01*
G75*
G02*
X30190000Y24217500I0J147500D01*
G01*
X30190000Y24562500D01*
G75*
G02*
X30337500Y24710000I147500J0D01*
G01*
X30632500Y24710000D01*
G75*
G02*
X30780000Y24562500I0J-147500D01*
G01*
G37*
G04 #@! TD.AperFunction*
G04 #@! TA.AperFunction,SMDPad,CuDef*
G36*
G01*
X24610000Y31662500D02*
X24610000Y31317500D01*
G75*
G02*
X24462500Y31170000I-147500J0D01*
G01*
X24167500Y31170000D01*
G75*
G02*
X24020000Y31317500I0J147500D01*
G01*
X24020000Y31662500D01*
G75*
G02*
X24167500Y31810000I147500J0D01*
G01*
X24462500Y31810000D01*
G75*
G02*
X24610000Y31662500I0J-147500D01*
G01*
G37*
G04 #@! TD.AperFunction*
G04 #@! TA.AperFunction,SMDPad,CuDef*
G36*
G01*
X25580000Y31662500D02*
X25580000Y31317500D01*
G75*
G02*
X25432500Y31170000I-147500J0D01*
G01*
X25137500Y31170000D01*
G75*
G02*
X24990000Y31317500I0J147500D01*
G01*
X24990000Y31662500D01*
G75*
G02*
X25137500Y31810000I147500J0D01*
G01*
X25432500Y31810000D01*
G75*
G02*
X25580000Y31662500I0J-147500D01*
G01*
G37*
G04 #@! TD.AperFunction*
G04 #@! TA.AperFunction,SMDPad,CuDef*
G36*
G01*
X31690000Y25217500D02*
X31690000Y25562500D01*
G75*
G02*
X31837500Y25710000I147500J0D01*
G01*
X32132500Y25710000D01*
G75*
G02*
X32280000Y25562500I0J-147500D01*
G01*
X32280000Y25217500D01*
G75*
G02*
X32132500Y25070000I-147500J0D01*
G01*
X31837500Y25070000D01*
G75*
G02*
X31690000Y25217500I0J147500D01*
G01*
G37*
G04 #@! TD.AperFunction*
G04 #@! TA.AperFunction,SMDPad,CuDef*
G36*
G01*
X30720000Y25217500D02*
X30720000Y25562500D01*
G75*
G02*
X30867500Y25710000I147500J0D01*
G01*
X31162500Y25710000D01*
G75*
G02*
X31310000Y25562500I0J-147500D01*
G01*
X31310000Y25217500D01*
G75*
G02*
X31162500Y25070000I-147500J0D01*
G01*
X30867500Y25070000D01*
G75*
G02*
X30720000Y25217500I0J147500D01*
G01*
G37*
G04 #@! TD.AperFunction*
G04 #@! TA.AperFunction,SMDPad,CuDef*
G36*
G01*
X31390000Y21217500D02*
X31390000Y21562500D01*
G75*
G02*
X31537500Y21710000I147500J0D01*
G01*
X31832500Y21710000D01*
G75*
G02*
X31980000Y21562500I0J-147500D01*
G01*
X31980000Y21217500D01*
G75*
G02*
X31832500Y21070000I-147500J0D01*
G01*
X31537500Y21070000D01*
G75*
G02*
X31390000Y21217500I0J147500D01*
G01*
G37*
G04 #@! TD.AperFunction*
G04 #@! TA.AperFunction,SMDPad,CuDef*
G36*
G01*
X30420000Y21217500D02*
X30420000Y21562500D01*
G75*
G02*
X30567500Y21710000I147500J0D01*
G01*
X30862500Y21710000D01*
G75*
G02*
X31010000Y21562500I0J-147500D01*
G01*
X31010000Y21217500D01*
G75*
G02*
X30862500Y21070000I-147500J0D01*
G01*
X30567500Y21070000D01*
G75*
G02*
X30420000Y21217500I0J147500D01*
G01*
G37*
G04 #@! TD.AperFunction*
G04 #@! TA.AperFunction,SMDPad,CuDef*
G36*
G01*
X31390000Y23117500D02*
X31390000Y23462500D01*
G75*
G02*
X31537500Y23610000I147500J0D01*
G01*
X31832500Y23610000D01*
G75*
G02*
X31980000Y23462500I0J-147500D01*
G01*
X31980000Y23117500D01*
G75*
G02*
X31832500Y22970000I-147500J0D01*
G01*
X31537500Y22970000D01*
G75*
G02*
X31390000Y23117500I0J147500D01*
G01*
G37*
G04 #@! TD.AperFunction*
G04 #@! TA.AperFunction,SMDPad,CuDef*
G36*
G01*
X30420000Y23117500D02*
X30420000Y23462500D01*
G75*
G02*
X30567500Y23610000I147500J0D01*
G01*
X30862500Y23610000D01*
G75*
G02*
X31010000Y23462500I0J-147500D01*
G01*
X31010000Y23117500D01*
G75*
G02*
X30862500Y22970000I-147500J0D01*
G01*
X30567500Y22970000D01*
G75*
G02*
X30420000Y23117500I0J147500D01*
G01*
G37*
G04 #@! TD.AperFunction*
G04 #@! TA.AperFunction,SMDPad,CuDef*
G36*
G01*
X24610000Y26762500D02*
X24610000Y26417500D01*
G75*
G02*
X24462500Y26270000I-147500J0D01*
G01*
X24167500Y26270000D01*
G75*
G02*
X24020000Y26417500I0J147500D01*
G01*
X24020000Y26762500D01*
G75*
G02*
X24167500Y26910000I147500J0D01*
G01*
X24462500Y26910000D01*
G75*
G02*
X24610000Y26762500I0J-147500D01*
G01*
G37*
G04 #@! TD.AperFunction*
G04 #@! TA.AperFunction,SMDPad,CuDef*
G36*
G01*
X25580000Y26762500D02*
X25580000Y26417500D01*
G75*
G02*
X25432500Y26270000I-147500J0D01*
G01*
X25137500Y26270000D01*
G75*
G02*
X24990000Y26417500I0J147500D01*
G01*
X24990000Y26762500D01*
G75*
G02*
X25137500Y26910000I147500J0D01*
G01*
X25432500Y26910000D01*
G75*
G02*
X25580000Y26762500I0J-147500D01*
G01*
G37*
G04 #@! TD.AperFunction*
G04 #@! TA.AperFunction,SMDPad,CuDef*
G36*
G01*
X24610000Y25762500D02*
X24610000Y25417500D01*
G75*
G02*
X24462500Y25270000I-147500J0D01*
G01*
X24167500Y25270000D01*
G75*
G02*
X24020000Y25417500I0J147500D01*
G01*
X24020000Y25762500D01*
G75*
G02*
X24167500Y25910000I147500J0D01*
G01*
X24462500Y25910000D01*
G75*
G02*
X24610000Y25762500I0J-147500D01*
G01*
G37*
G04 #@! TD.AperFunction*
G04 #@! TA.AperFunction,SMDPad,CuDef*
G36*
G01*
X25580000Y25762500D02*
X25580000Y25417500D01*
G75*
G02*
X25432500Y25270000I-147500J0D01*
G01*
X25137500Y25270000D01*
G75*
G02*
X24990000Y25417500I0J147500D01*
G01*
X24990000Y25762500D01*
G75*
G02*
X25137500Y25910000I147500J0D01*
G01*
X25432500Y25910000D01*
G75*
G02*
X25580000Y25762500I0J-147500D01*
G01*
G37*
G04 #@! TD.AperFunction*
D20*
X11800000Y37390000D03*
D21*
X10550000Y35390000D03*
X11050000Y35390000D03*
X11550000Y35390000D03*
X12050000Y35390000D03*
X12550000Y35390000D03*
X13050000Y35390000D03*
D22*
X13800000Y36140000D03*
X13800000Y36640000D03*
X13800000Y37140000D03*
X13800000Y37640000D03*
X13800000Y38140000D03*
X13800000Y38640000D03*
D21*
X13050000Y39390000D03*
X12550000Y39390000D03*
X12050000Y39390000D03*
X11550000Y39390000D03*
X11050000Y39390000D03*
X10550000Y39390000D03*
D22*
X9800000Y38640000D03*
X9800000Y38140000D03*
X9800000Y37640000D03*
X9800000Y37140000D03*
X9800000Y36640000D03*
X9800000Y36140000D03*
D18*
X14460000Y6330000D03*
X17000000Y6330000D03*
X14460000Y3790000D03*
X17000000Y3790000D03*
X14460000Y1250000D03*
D19*
X17000000Y1250000D03*
D23*
X46230000Y15990000D03*
G04 #@! TA.AperFunction,SMDPad,CuDef*
G36*
G01*
X47306599Y16786000D02*
X47103399Y16786000D01*
G75*
G02*
X47001799Y16887600I0J101600D01*
G01*
X47001799Y17192400D01*
G75*
G02*
X47103399Y17294000I101600J0D01*
G01*
X47306599Y17294000D01*
G75*
G02*
X47408199Y17192400I0J-101600D01*
G01*
X47408199Y16887600D01*
G75*
G02*
X47306599Y16786000I-101600J0D01*
G01*
G37*
G04 #@! TD.AperFunction*
G04 #@! TA.AperFunction,SMDPad,CuDef*
G36*
G01*
X46656601Y16786000D02*
X46453401Y16786000D01*
G75*
G02*
X46351801Y16887600I0J101600D01*
G01*
X46351801Y17192400D01*
G75*
G02*
X46453401Y17294000I101600J0D01*
G01*
X46656601Y17294000D01*
G75*
G02*
X46758201Y17192400I0J-101600D01*
G01*
X46758201Y16887600D01*
G75*
G02*
X46656601Y16786000I-101600J0D01*
G01*
G37*
G04 #@! TD.AperFunction*
G04 #@! TA.AperFunction,SMDPad,CuDef*
G36*
G01*
X46006599Y16786000D02*
X45803399Y16786000D01*
G75*
G02*
X45701799Y16887600I0J101600D01*
G01*
X45701799Y17192400D01*
G75*
G02*
X45803399Y17294000I101600J0D01*
G01*
X46006599Y17294000D01*
G75*
G02*
X46108199Y17192400I0J-101600D01*
G01*
X46108199Y16887600D01*
G75*
G02*
X46006599Y16786000I-101600J0D01*
G01*
G37*
G04 #@! TD.AperFunction*
G04 #@! TA.AperFunction,SMDPad,CuDef*
G36*
G01*
X45356601Y16786000D02*
X45153401Y16786000D01*
G75*
G02*
X45051801Y16887600I0J101600D01*
G01*
X45051801Y17192400D01*
G75*
G02*
X45153401Y17294000I101600J0D01*
G01*
X45356601Y17294000D01*
G75*
G02*
X45458201Y17192400I0J-101600D01*
G01*
X45458201Y16887600D01*
G75*
G02*
X45356601Y16786000I-101600J0D01*
G01*
G37*
G04 #@! TD.AperFunction*
G04 #@! TA.AperFunction,SMDPad,CuDef*
G36*
G01*
X45356601Y14686000D02*
X45153401Y14686000D01*
G75*
G02*
X45051801Y14787600I0J101600D01*
G01*
X45051801Y15092400D01*
G75*
G02*
X45153401Y15194000I101600J0D01*
G01*
X45356601Y15194000D01*
G75*
G02*
X45458201Y15092400I0J-101600D01*
G01*
X45458201Y14787600D01*
G75*
G02*
X45356601Y14686000I-101600J0D01*
G01*
G37*
G04 #@! TD.AperFunction*
G04 #@! TA.AperFunction,SMDPad,CuDef*
G36*
G01*
X46006599Y14686000D02*
X45803399Y14686000D01*
G75*
G02*
X45701799Y14787600I0J101600D01*
G01*
X45701799Y15092400D01*
G75*
G02*
X45803399Y15194000I101600J0D01*
G01*
X46006599Y15194000D01*
G75*
G02*
X46108199Y15092400I0J-101600D01*
G01*
X46108199Y14787600D01*
G75*
G02*
X46006599Y14686000I-101600J0D01*
G01*
G37*
G04 #@! TD.AperFunction*
G04 #@! TA.AperFunction,SMDPad,CuDef*
G36*
G01*
X46656601Y14686000D02*
X46453401Y14686000D01*
G75*
G02*
X46351801Y14787600I0J101600D01*
G01*
X46351801Y15092400D01*
G75*
G02*
X46453401Y15194000I101600J0D01*
G01*
X46656601Y15194000D01*
G75*
G02*
X46758201Y15092400I0J-101600D01*
G01*
X46758201Y14787600D01*
G75*
G02*
X46656601Y14686000I-101600J0D01*
G01*
G37*
G04 #@! TD.AperFunction*
G04 #@! TA.AperFunction,SMDPad,CuDef*
G36*
G01*
X47306599Y14686000D02*
X47103399Y14686000D01*
G75*
G02*
X47001799Y14787600I0J101600D01*
G01*
X47001799Y15092400D01*
G75*
G02*
X47103399Y15194000I101600J0D01*
G01*
X47306599Y15194000D01*
G75*
G02*
X47408199Y15092400I0J-101600D01*
G01*
X47408199Y14787600D01*
G75*
G02*
X47306599Y14686000I-101600J0D01*
G01*
G37*
G04 #@! TD.AperFunction*
X13750000Y15990000D03*
G04 #@! TA.AperFunction,SMDPad,CuDef*
G36*
G01*
X12673401Y15194000D02*
X12876601Y15194000D01*
G75*
G02*
X12978201Y15092400I0J-101600D01*
G01*
X12978201Y14787600D01*
G75*
G02*
X12876601Y14686000I-101600J0D01*
G01*
X12673401Y14686000D01*
G75*
G02*
X12571801Y14787600I0J101600D01*
G01*
X12571801Y15092400D01*
G75*
G02*
X12673401Y15194000I101600J0D01*
G01*
G37*
G04 #@! TD.AperFunction*
G04 #@! TA.AperFunction,SMDPad,CuDef*
G36*
G01*
X13323399Y15194000D02*
X13526599Y15194000D01*
G75*
G02*
X13628199Y15092400I0J-101600D01*
G01*
X13628199Y14787600D01*
G75*
G02*
X13526599Y14686000I-101600J0D01*
G01*
X13323399Y14686000D01*
G75*
G02*
X13221799Y14787600I0J101600D01*
G01*
X13221799Y15092400D01*
G75*
G02*
X13323399Y15194000I101600J0D01*
G01*
G37*
G04 #@! TD.AperFunction*
G04 #@! TA.AperFunction,SMDPad,CuDef*
G36*
G01*
X13973401Y15194000D02*
X14176601Y15194000D01*
G75*
G02*
X14278201Y15092400I0J-101600D01*
G01*
X14278201Y14787600D01*
G75*
G02*
X14176601Y14686000I-101600J0D01*
G01*
X13973401Y14686000D01*
G75*
G02*
X13871801Y14787600I0J101600D01*
G01*
X13871801Y15092400D01*
G75*
G02*
X13973401Y15194000I101600J0D01*
G01*
G37*
G04 #@! TD.AperFunction*
G04 #@! TA.AperFunction,SMDPad,CuDef*
G36*
G01*
X14623399Y15194000D02*
X14826599Y15194000D01*
G75*
G02*
X14928199Y15092400I0J-101600D01*
G01*
X14928199Y14787600D01*
G75*
G02*
X14826599Y14686000I-101600J0D01*
G01*
X14623399Y14686000D01*
G75*
G02*
X14521799Y14787600I0J101600D01*
G01*
X14521799Y15092400D01*
G75*
G02*
X14623399Y15194000I101600J0D01*
G01*
G37*
G04 #@! TD.AperFunction*
G04 #@! TA.AperFunction,SMDPad,CuDef*
G36*
G01*
X14623399Y17294000D02*
X14826599Y17294000D01*
G75*
G02*
X14928199Y17192400I0J-101600D01*
G01*
X14928199Y16887600D01*
G75*
G02*
X14826599Y16786000I-101600J0D01*
G01*
X14623399Y16786000D01*
G75*
G02*
X14521799Y16887600I0J101600D01*
G01*
X14521799Y17192400D01*
G75*
G02*
X14623399Y17294000I101600J0D01*
G01*
G37*
G04 #@! TD.AperFunction*
G04 #@! TA.AperFunction,SMDPad,CuDef*
G36*
G01*
X13973401Y17294000D02*
X14176601Y17294000D01*
G75*
G02*
X14278201Y17192400I0J-101600D01*
G01*
X14278201Y16887600D01*
G75*
G02*
X14176601Y16786000I-101600J0D01*
G01*
X13973401Y16786000D01*
G75*
G02*
X13871801Y16887600I0J101600D01*
G01*
X13871801Y17192400D01*
G75*
G02*
X13973401Y17294000I101600J0D01*
G01*
G37*
G04 #@! TD.AperFunction*
G04 #@! TA.AperFunction,SMDPad,CuDef*
G36*
G01*
X13323399Y17294000D02*
X13526599Y17294000D01*
G75*
G02*
X13628199Y17192400I0J-101600D01*
G01*
X13628199Y16887600D01*
G75*
G02*
X13526599Y16786000I-101600J0D01*
G01*
X13323399Y16786000D01*
G75*
G02*
X13221799Y16887600I0J101600D01*
G01*
X13221799Y17192400D01*
G75*
G02*
X13323399Y17294000I101600J0D01*
G01*
G37*
G04 #@! TD.AperFunction*
G04 #@! TA.AperFunction,SMDPad,CuDef*
G36*
G01*
X12673401Y17294000D02*
X12876601Y17294000D01*
G75*
G02*
X12978201Y17192400I0J-101600D01*
G01*
X12978201Y16887600D01*
G75*
G02*
X12876601Y16786000I-101600J0D01*
G01*
X12673401Y16786000D01*
G75*
G02*
X12571801Y16887600I0J101600D01*
G01*
X12571801Y17192400D01*
G75*
G02*
X12673401Y17294000I101600J0D01*
G01*
G37*
G04 #@! TD.AperFunction*
X46250000Y25390000D03*
G04 #@! TA.AperFunction,SMDPad,CuDef*
G36*
G01*
X47326599Y26186000D02*
X47123399Y26186000D01*
G75*
G02*
X47021799Y26287600I0J101600D01*
G01*
X47021799Y26592400D01*
G75*
G02*
X47123399Y26694000I101600J0D01*
G01*
X47326599Y26694000D01*
G75*
G02*
X47428199Y26592400I0J-101600D01*
G01*
X47428199Y26287600D01*
G75*
G02*
X47326599Y26186000I-101600J0D01*
G01*
G37*
G04 #@! TD.AperFunction*
G04 #@! TA.AperFunction,SMDPad,CuDef*
G36*
G01*
X46676601Y26186000D02*
X46473401Y26186000D01*
G75*
G02*
X46371801Y26287600I0J101600D01*
G01*
X46371801Y26592400D01*
G75*
G02*
X46473401Y26694000I101600J0D01*
G01*
X46676601Y26694000D01*
G75*
G02*
X46778201Y26592400I0J-101600D01*
G01*
X46778201Y26287600D01*
G75*
G02*
X46676601Y26186000I-101600J0D01*
G01*
G37*
G04 #@! TD.AperFunction*
G04 #@! TA.AperFunction,SMDPad,CuDef*
G36*
G01*
X46026599Y26186000D02*
X45823399Y26186000D01*
G75*
G02*
X45721799Y26287600I0J101600D01*
G01*
X45721799Y26592400D01*
G75*
G02*
X45823399Y26694000I101600J0D01*
G01*
X46026599Y26694000D01*
G75*
G02*
X46128199Y26592400I0J-101600D01*
G01*
X46128199Y26287600D01*
G75*
G02*
X46026599Y26186000I-101600J0D01*
G01*
G37*
G04 #@! TD.AperFunction*
G04 #@! TA.AperFunction,SMDPad,CuDef*
G36*
G01*
X45376601Y26186000D02*
X45173401Y26186000D01*
G75*
G02*
X45071801Y26287600I0J101600D01*
G01*
X45071801Y26592400D01*
G75*
G02*
X45173401Y26694000I101600J0D01*
G01*
X45376601Y26694000D01*
G75*
G02*
X45478201Y26592400I0J-101600D01*
G01*
X45478201Y26287600D01*
G75*
G02*
X45376601Y26186000I-101600J0D01*
G01*
G37*
G04 #@! TD.AperFunction*
G04 #@! TA.AperFunction,SMDPad,CuDef*
G36*
G01*
X45376601Y24086000D02*
X45173401Y24086000D01*
G75*
G02*
X45071801Y24187600I0J101600D01*
G01*
X45071801Y24492400D01*
G75*
G02*
X45173401Y24594000I101600J0D01*
G01*
X45376601Y24594000D01*
G75*
G02*
X45478201Y24492400I0J-101600D01*
G01*
X45478201Y24187600D01*
G75*
G02*
X45376601Y24086000I-101600J0D01*
G01*
G37*
G04 #@! TD.AperFunction*
G04 #@! TA.AperFunction,SMDPad,CuDef*
G36*
G01*
X46026599Y24086000D02*
X45823399Y24086000D01*
G75*
G02*
X45721799Y24187600I0J101600D01*
G01*
X45721799Y24492400D01*
G75*
G02*
X45823399Y24594000I101600J0D01*
G01*
X46026599Y24594000D01*
G75*
G02*
X46128199Y24492400I0J-101600D01*
G01*
X46128199Y24187600D01*
G75*
G02*
X46026599Y24086000I-101600J0D01*
G01*
G37*
G04 #@! TD.AperFunction*
G04 #@! TA.AperFunction,SMDPad,CuDef*
G36*
G01*
X46676601Y24086000D02*
X46473401Y24086000D01*
G75*
G02*
X46371801Y24187600I0J101600D01*
G01*
X46371801Y24492400D01*
G75*
G02*
X46473401Y24594000I101600J0D01*
G01*
X46676601Y24594000D01*
G75*
G02*
X46778201Y24492400I0J-101600D01*
G01*
X46778201Y24187600D01*
G75*
G02*
X46676601Y24086000I-101600J0D01*
G01*
G37*
G04 #@! TD.AperFunction*
G04 #@! TA.AperFunction,SMDPad,CuDef*
G36*
G01*
X47326599Y24086000D02*
X47123399Y24086000D01*
G75*
G02*
X47021799Y24187600I0J101600D01*
G01*
X47021799Y24492400D01*
G75*
G02*
X47123399Y24594000I101600J0D01*
G01*
X47326599Y24594000D01*
G75*
G02*
X47428199Y24492400I0J-101600D01*
G01*
X47428199Y24187600D01*
G75*
G02*
X47326599Y24086000I-101600J0D01*
G01*
G37*
G04 #@! TD.AperFunction*
X46230000Y34790000D03*
G04 #@! TA.AperFunction,SMDPad,CuDef*
G36*
G01*
X47306599Y35586000D02*
X47103399Y35586000D01*
G75*
G02*
X47001799Y35687600I0J101600D01*
G01*
X47001799Y35992400D01*
G75*
G02*
X47103399Y36094000I101600J0D01*
G01*
X47306599Y36094000D01*
G75*
G02*
X47408199Y35992400I0J-101600D01*
G01*
X47408199Y35687600D01*
G75*
G02*
X47306599Y35586000I-101600J0D01*
G01*
G37*
G04 #@! TD.AperFunction*
G04 #@! TA.AperFunction,SMDPad,CuDef*
G36*
G01*
X46656601Y35586000D02*
X46453401Y35586000D01*
G75*
G02*
X46351801Y35687600I0J101600D01*
G01*
X46351801Y35992400D01*
G75*
G02*
X46453401Y36094000I101600J0D01*
G01*
X46656601Y36094000D01*
G75*
G02*
X46758201Y35992400I0J-101600D01*
G01*
X46758201Y35687600D01*
G75*
G02*
X46656601Y35586000I-101600J0D01*
G01*
G37*
G04 #@! TD.AperFunction*
G04 #@! TA.AperFunction,SMDPad,CuDef*
G36*
G01*
X46006599Y35586000D02*
X45803399Y35586000D01*
G75*
G02*
X45701799Y35687600I0J101600D01*
G01*
X45701799Y35992400D01*
G75*
G02*
X45803399Y36094000I101600J0D01*
G01*
X46006599Y36094000D01*
G75*
G02*
X46108199Y35992400I0J-101600D01*
G01*
X46108199Y35687600D01*
G75*
G02*
X46006599Y35586000I-101600J0D01*
G01*
G37*
G04 #@! TD.AperFunction*
G04 #@! TA.AperFunction,SMDPad,CuDef*
G36*
G01*
X45356601Y35586000D02*
X45153401Y35586000D01*
G75*
G02*
X45051801Y35687600I0J101600D01*
G01*
X45051801Y35992400D01*
G75*
G02*
X45153401Y36094000I101600J0D01*
G01*
X45356601Y36094000D01*
G75*
G02*
X45458201Y35992400I0J-101600D01*
G01*
X45458201Y35687600D01*
G75*
G02*
X45356601Y35586000I-101600J0D01*
G01*
G37*
G04 #@! TD.AperFunction*
G04 #@! TA.AperFunction,SMDPad,CuDef*
G36*
G01*
X45356601Y33486000D02*
X45153401Y33486000D01*
G75*
G02*
X45051801Y33587600I0J101600D01*
G01*
X45051801Y33892400D01*
G75*
G02*
X45153401Y33994000I101600J0D01*
G01*
X45356601Y33994000D01*
G75*
G02*
X45458201Y33892400I0J-101600D01*
G01*
X45458201Y33587600D01*
G75*
G02*
X45356601Y33486000I-101600J0D01*
G01*
G37*
G04 #@! TD.AperFunction*
G04 #@! TA.AperFunction,SMDPad,CuDef*
G36*
G01*
X46006599Y33486000D02*
X45803399Y33486000D01*
G75*
G02*
X45701799Y33587600I0J101600D01*
G01*
X45701799Y33892400D01*
G75*
G02*
X45803399Y33994000I101600J0D01*
G01*
X46006599Y33994000D01*
G75*
G02*
X46108199Y33892400I0J-101600D01*
G01*
X46108199Y33587600D01*
G75*
G02*
X46006599Y33486000I-101600J0D01*
G01*
G37*
G04 #@! TD.AperFunction*
G04 #@! TA.AperFunction,SMDPad,CuDef*
G36*
G01*
X46656601Y33486000D02*
X46453401Y33486000D01*
G75*
G02*
X46351801Y33587600I0J101600D01*
G01*
X46351801Y33892400D01*
G75*
G02*
X46453401Y33994000I101600J0D01*
G01*
X46656601Y33994000D01*
G75*
G02*
X46758201Y33892400I0J-101600D01*
G01*
X46758201Y33587600D01*
G75*
G02*
X46656601Y33486000I-101600J0D01*
G01*
G37*
G04 #@! TD.AperFunction*
G04 #@! TA.AperFunction,SMDPad,CuDef*
G36*
G01*
X47306599Y33486000D02*
X47103399Y33486000D01*
G75*
G02*
X47001799Y33587600I0J101600D01*
G01*
X47001799Y33892400D01*
G75*
G02*
X47103399Y33994000I101600J0D01*
G01*
X47306599Y33994000D01*
G75*
G02*
X47408199Y33892400I0J-101600D01*
G01*
X47408199Y33587600D01*
G75*
G02*
X47306599Y33486000I-101600J0D01*
G01*
G37*
G04 #@! TD.AperFunction*
G04 #@! TA.AperFunction,SMDPad,CuDef*
G36*
G01*
X48972500Y16180000D02*
X48627500Y16180000D01*
G75*
G02*
X48480000Y16327500I0J147500D01*
G01*
X48480000Y16622500D01*
G75*
G02*
X48627500Y16770000I147500J0D01*
G01*
X48972500Y16770000D01*
G75*
G02*
X49120000Y16622500I0J-147500D01*
G01*
X49120000Y16327500D01*
G75*
G02*
X48972500Y16180000I-147500J0D01*
G01*
G37*
G04 #@! TD.AperFunction*
G04 #@! TA.AperFunction,SMDPad,CuDef*
G36*
G01*
X48972500Y15210000D02*
X48627500Y15210000D01*
G75*
G02*
X48480000Y15357500I0J147500D01*
G01*
X48480000Y15652500D01*
G75*
G02*
X48627500Y15800000I147500J0D01*
G01*
X48972500Y15800000D01*
G75*
G02*
X49120000Y15652500I0J-147500D01*
G01*
X49120000Y15357500D01*
G75*
G02*
X48972500Y15210000I-147500J0D01*
G01*
G37*
G04 #@! TD.AperFunction*
G04 #@! TA.AperFunction,SMDPad,CuDef*
G36*
G01*
X47175000Y12365000D02*
X47175000Y13615000D01*
G75*
G02*
X47425000Y13865000I250000J0D01*
G01*
X48175000Y13865000D01*
G75*
G02*
X48425000Y13615000I0J-250000D01*
G01*
X48425000Y12365000D01*
G75*
G02*
X48175000Y12115000I-250000J0D01*
G01*
X47425000Y12115000D01*
G75*
G02*
X47175000Y12365000I0J250000D01*
G01*
G37*
G04 #@! TD.AperFunction*
G04 #@! TA.AperFunction,SMDPad,CuDef*
G36*
G01*
X44375000Y12365000D02*
X44375000Y13615000D01*
G75*
G02*
X44625000Y13865000I250000J0D01*
G01*
X45375000Y13865000D01*
G75*
G02*
X45625000Y13615000I0J-250000D01*
G01*
X45625000Y12365000D01*
G75*
G02*
X45375000Y12115000I-250000J0D01*
G01*
X44625000Y12115000D01*
G75*
G02*
X44375000Y12365000I0J250000D01*
G01*
G37*
G04 #@! TD.AperFunction*
G04 #@! TA.AperFunction,SMDPad,CuDef*
G36*
G01*
X11027500Y15800000D02*
X11372500Y15800000D01*
G75*
G02*
X11520000Y15652500I0J-147500D01*
G01*
X11520000Y15357500D01*
G75*
G02*
X11372500Y15210000I-147500J0D01*
G01*
X11027500Y15210000D01*
G75*
G02*
X10880000Y15357500I0J147500D01*
G01*
X10880000Y15652500D01*
G75*
G02*
X11027500Y15800000I147500J0D01*
G01*
G37*
G04 #@! TD.AperFunction*
G04 #@! TA.AperFunction,SMDPad,CuDef*
G36*
G01*
X11027500Y16770000D02*
X11372500Y16770000D01*
G75*
G02*
X11520000Y16622500I0J-147500D01*
G01*
X11520000Y16327500D01*
G75*
G02*
X11372500Y16180000I-147500J0D01*
G01*
X11027500Y16180000D01*
G75*
G02*
X10880000Y16327500I0J147500D01*
G01*
X10880000Y16622500D01*
G75*
G02*
X11027500Y16770000I147500J0D01*
G01*
G37*
G04 #@! TD.AperFunction*
G04 #@! TA.AperFunction,SMDPad,CuDef*
G36*
G01*
X48972500Y25580000D02*
X48627500Y25580000D01*
G75*
G02*
X48480000Y25727500I0J147500D01*
G01*
X48480000Y26022500D01*
G75*
G02*
X48627500Y26170000I147500J0D01*
G01*
X48972500Y26170000D01*
G75*
G02*
X49120000Y26022500I0J-147500D01*
G01*
X49120000Y25727500D01*
G75*
G02*
X48972500Y25580000I-147500J0D01*
G01*
G37*
G04 #@! TD.AperFunction*
G04 #@! TA.AperFunction,SMDPad,CuDef*
G36*
G01*
X48972500Y24610000D02*
X48627500Y24610000D01*
G75*
G02*
X48480000Y24757500I0J147500D01*
G01*
X48480000Y25052500D01*
G75*
G02*
X48627500Y25200000I147500J0D01*
G01*
X48972500Y25200000D01*
G75*
G02*
X49120000Y25052500I0J-147500D01*
G01*
X49120000Y24757500D01*
G75*
G02*
X48972500Y24610000I-147500J0D01*
G01*
G37*
G04 #@! TD.AperFunction*
G04 #@! TA.AperFunction,SMDPad,CuDef*
G36*
G01*
X12825000Y19615000D02*
X12825000Y18365000D01*
G75*
G02*
X12575000Y18115000I-250000J0D01*
G01*
X11825000Y18115000D01*
G75*
G02*
X11575000Y18365000I0J250000D01*
G01*
X11575000Y19615000D01*
G75*
G02*
X11825000Y19865000I250000J0D01*
G01*
X12575000Y19865000D01*
G75*
G02*
X12825000Y19615000I0J-250000D01*
G01*
G37*
G04 #@! TD.AperFunction*
G04 #@! TA.AperFunction,SMDPad,CuDef*
G36*
G01*
X15625000Y19615000D02*
X15625000Y18365000D01*
G75*
G02*
X15375000Y18115000I-250000J0D01*
G01*
X14625000Y18115000D01*
G75*
G02*
X14375000Y18365000I0J250000D01*
G01*
X14375000Y19615000D01*
G75*
G02*
X14625000Y19865000I250000J0D01*
G01*
X15375000Y19865000D01*
G75*
G02*
X15625000Y19615000I0J-250000D01*
G01*
G37*
G04 #@! TD.AperFunction*
G04 #@! TA.AperFunction,SMDPad,CuDef*
G36*
G01*
X47175000Y21765000D02*
X47175000Y23015000D01*
G75*
G02*
X47425000Y23265000I250000J0D01*
G01*
X48175000Y23265000D01*
G75*
G02*
X48425000Y23015000I0J-250000D01*
G01*
X48425000Y21765000D01*
G75*
G02*
X48175000Y21515000I-250000J0D01*
G01*
X47425000Y21515000D01*
G75*
G02*
X47175000Y21765000I0J250000D01*
G01*
G37*
G04 #@! TD.AperFunction*
G04 #@! TA.AperFunction,SMDPad,CuDef*
G36*
G01*
X44375000Y21765000D02*
X44375000Y23015000D01*
G75*
G02*
X44625000Y23265000I250000J0D01*
G01*
X45375000Y23265000D01*
G75*
G02*
X45625000Y23015000I0J-250000D01*
G01*
X45625000Y21765000D01*
G75*
G02*
X45375000Y21515000I-250000J0D01*
G01*
X44625000Y21515000D01*
G75*
G02*
X44375000Y21765000I0J250000D01*
G01*
G37*
G04 #@! TD.AperFunction*
G04 #@! TA.AperFunction,SMDPad,CuDef*
G36*
G01*
X48972500Y34980000D02*
X48627500Y34980000D01*
G75*
G02*
X48480000Y35127500I0J147500D01*
G01*
X48480000Y35422500D01*
G75*
G02*
X48627500Y35570000I147500J0D01*
G01*
X48972500Y35570000D01*
G75*
G02*
X49120000Y35422500I0J-147500D01*
G01*
X49120000Y35127500D01*
G75*
G02*
X48972500Y34980000I-147500J0D01*
G01*
G37*
G04 #@! TD.AperFunction*
G04 #@! TA.AperFunction,SMDPad,CuDef*
G36*
G01*
X48972500Y34010000D02*
X48627500Y34010000D01*
G75*
G02*
X48480000Y34157500I0J147500D01*
G01*
X48480000Y34452500D01*
G75*
G02*
X48627500Y34600000I147500J0D01*
G01*
X48972500Y34600000D01*
G75*
G02*
X49120000Y34452500I0J-147500D01*
G01*
X49120000Y34157500D01*
G75*
G02*
X48972500Y34010000I-147500J0D01*
G01*
G37*
G04 #@! TD.AperFunction*
G04 #@! TA.AperFunction,SMDPad,CuDef*
G36*
G01*
X47175000Y31165000D02*
X47175000Y32415000D01*
G75*
G02*
X47425000Y32665000I250000J0D01*
G01*
X48175000Y32665000D01*
G75*
G02*
X48425000Y32415000I0J-250000D01*
G01*
X48425000Y31165000D01*
G75*
G02*
X48175000Y30915000I-250000J0D01*
G01*
X47425000Y30915000D01*
G75*
G02*
X47175000Y31165000I0J250000D01*
G01*
G37*
G04 #@! TD.AperFunction*
G04 #@! TA.AperFunction,SMDPad,CuDef*
G36*
G01*
X44375000Y31165000D02*
X44375000Y32415000D01*
G75*
G02*
X44625000Y32665000I250000J0D01*
G01*
X45375000Y32665000D01*
G75*
G02*
X45625000Y32415000I0J-250000D01*
G01*
X45625000Y31165000D01*
G75*
G02*
X45375000Y30915000I-250000J0D01*
G01*
X44625000Y30915000D01*
G75*
G02*
X44375000Y31165000I0J250000D01*
G01*
G37*
G04 #@! TD.AperFunction*
D24*
X7850000Y35890000D03*
X7850000Y38090000D03*
X6150000Y38090000D03*
X6150000Y35890000D03*
D23*
X13770000Y25390000D03*
G04 #@! TA.AperFunction,SMDPad,CuDef*
G36*
G01*
X12693401Y24594000D02*
X12896601Y24594000D01*
G75*
G02*
X12998201Y24492400I0J-101600D01*
G01*
X12998201Y24187600D01*
G75*
G02*
X12896601Y24086000I-101600J0D01*
G01*
X12693401Y24086000D01*
G75*
G02*
X12591801Y24187600I0J101600D01*
G01*
X12591801Y24492400D01*
G75*
G02*
X12693401Y24594000I101600J0D01*
G01*
G37*
G04 #@! TD.AperFunction*
G04 #@! TA.AperFunction,SMDPad,CuDef*
G36*
G01*
X13343399Y24594000D02*
X13546599Y24594000D01*
G75*
G02*
X13648199Y24492400I0J-101600D01*
G01*
X13648199Y24187600D01*
G75*
G02*
X13546599Y24086000I-101600J0D01*
G01*
X13343399Y24086000D01*
G75*
G02*
X13241799Y24187600I0J101600D01*
G01*
X13241799Y24492400D01*
G75*
G02*
X13343399Y24594000I101600J0D01*
G01*
G37*
G04 #@! TD.AperFunction*
G04 #@! TA.AperFunction,SMDPad,CuDef*
G36*
G01*
X13993401Y24594000D02*
X14196601Y24594000D01*
G75*
G02*
X14298201Y24492400I0J-101600D01*
G01*
X14298201Y24187600D01*
G75*
G02*
X14196601Y24086000I-101600J0D01*
G01*
X13993401Y24086000D01*
G75*
G02*
X13891801Y24187600I0J101600D01*
G01*
X13891801Y24492400D01*
G75*
G02*
X13993401Y24594000I101600J0D01*
G01*
G37*
G04 #@! TD.AperFunction*
G04 #@! TA.AperFunction,SMDPad,CuDef*
G36*
G01*
X14643399Y24594000D02*
X14846599Y24594000D01*
G75*
G02*
X14948199Y24492400I0J-101600D01*
G01*
X14948199Y24187600D01*
G75*
G02*
X14846599Y24086000I-101600J0D01*
G01*
X14643399Y24086000D01*
G75*
G02*
X14541799Y24187600I0J101600D01*
G01*
X14541799Y24492400D01*
G75*
G02*
X14643399Y24594000I101600J0D01*
G01*
G37*
G04 #@! TD.AperFunction*
G04 #@! TA.AperFunction,SMDPad,CuDef*
G36*
G01*
X14643399Y26694000D02*
X14846599Y26694000D01*
G75*
G02*
X14948199Y26592400I0J-101600D01*
G01*
X14948199Y26287600D01*
G75*
G02*
X14846599Y26186000I-101600J0D01*
G01*
X14643399Y26186000D01*
G75*
G02*
X14541799Y26287600I0J101600D01*
G01*
X14541799Y26592400D01*
G75*
G02*
X14643399Y26694000I101600J0D01*
G01*
G37*
G04 #@! TD.AperFunction*
G04 #@! TA.AperFunction,SMDPad,CuDef*
G36*
G01*
X13993401Y26694000D02*
X14196601Y26694000D01*
G75*
G02*
X14298201Y26592400I0J-101600D01*
G01*
X14298201Y26287600D01*
G75*
G02*
X14196601Y26186000I-101600J0D01*
G01*
X13993401Y26186000D01*
G75*
G02*
X13891801Y26287600I0J101600D01*
G01*
X13891801Y26592400D01*
G75*
G02*
X13993401Y26694000I101600J0D01*
G01*
G37*
G04 #@! TD.AperFunction*
G04 #@! TA.AperFunction,SMDPad,CuDef*
G36*
G01*
X13343399Y26694000D02*
X13546599Y26694000D01*
G75*
G02*
X13648199Y26592400I0J-101600D01*
G01*
X13648199Y26287600D01*
G75*
G02*
X13546599Y26186000I-101600J0D01*
G01*
X13343399Y26186000D01*
G75*
G02*
X13241799Y26287600I0J101600D01*
G01*
X13241799Y26592400D01*
G75*
G02*
X13343399Y26694000I101600J0D01*
G01*
G37*
G04 #@! TD.AperFunction*
G04 #@! TA.AperFunction,SMDPad,CuDef*
G36*
G01*
X12693401Y26694000D02*
X12896601Y26694000D01*
G75*
G02*
X12998201Y26592400I0J-101600D01*
G01*
X12998201Y26287600D01*
G75*
G02*
X12896601Y26186000I-101600J0D01*
G01*
X12693401Y26186000D01*
G75*
G02*
X12591801Y26287600I0J101600D01*
G01*
X12591801Y26592400D01*
G75*
G02*
X12693401Y26694000I101600J0D01*
G01*
G37*
G04 #@! TD.AperFunction*
G04 #@! TA.AperFunction,SMDPad,CuDef*
G36*
G01*
X11027500Y25970000D02*
X11372500Y25970000D01*
G75*
G02*
X11520000Y25822500I0J-147500D01*
G01*
X11520000Y25527500D01*
G75*
G02*
X11372500Y25380000I-147500J0D01*
G01*
X11027500Y25380000D01*
G75*
G02*
X10880000Y25527500I0J147500D01*
G01*
X10880000Y25822500D01*
G75*
G02*
X11027500Y25970000I147500J0D01*
G01*
G37*
G04 #@! TD.AperFunction*
G04 #@! TA.AperFunction,SMDPad,CuDef*
G36*
G01*
X11027500Y25000000D02*
X11372500Y25000000D01*
G75*
G02*
X11520000Y24852500I0J-147500D01*
G01*
X11520000Y24557500D01*
G75*
G02*
X11372500Y24410000I-147500J0D01*
G01*
X11027500Y24410000D01*
G75*
G02*
X10880000Y24557500I0J147500D01*
G01*
X10880000Y24852500D01*
G75*
G02*
X11027500Y25000000I147500J0D01*
G01*
G37*
G04 #@! TD.AperFunction*
G04 #@! TA.AperFunction,SMDPad,CuDef*
G36*
G01*
X15625000Y29015000D02*
X15625000Y27765000D01*
G75*
G02*
X15375000Y27515000I-250000J0D01*
G01*
X14625000Y27515000D01*
G75*
G02*
X14375000Y27765000I0J250000D01*
G01*
X14375000Y29015000D01*
G75*
G02*
X14625000Y29265000I250000J0D01*
G01*
X15375000Y29265000D01*
G75*
G02*
X15625000Y29015000I0J-250000D01*
G01*
G37*
G04 #@! TD.AperFunction*
G04 #@! TA.AperFunction,SMDPad,CuDef*
G36*
G01*
X12825000Y29015000D02*
X12825000Y27765000D01*
G75*
G02*
X12575000Y27515000I-250000J0D01*
G01*
X11825000Y27515000D01*
G75*
G02*
X11575000Y27765000I0J250000D01*
G01*
X11575000Y29015000D01*
G75*
G02*
X11825000Y29265000I250000J0D01*
G01*
X12575000Y29265000D01*
G75*
G02*
X12825000Y29015000I0J-250000D01*
G01*
G37*
G04 #@! TD.AperFunction*
D25*
X23000000Y11190000D03*
X27000000Y11190000D03*
X34200000Y11190000D03*
X30200000Y11190000D03*
D26*
X39400000Y1890000D03*
X32600000Y1890000D03*
D27*
X37000000Y7090000D03*
X35000000Y7090000D03*
D28*
X1270000Y1250000D03*
X3810000Y1250000D03*
D29*
X1270000Y3790000D03*
X3810000Y3790000D03*
D28*
X1270000Y6330000D03*
X3810000Y6330000D03*
X1270000Y8870000D03*
X3810000Y8870000D03*
X1270000Y11410000D03*
X3810000Y11410000D03*
X1270000Y13950000D03*
X3810000Y13950000D03*
X1270000Y16490000D03*
X3810000Y16490000D03*
X1270000Y19030000D03*
X3810000Y19030000D03*
X1270000Y21570000D03*
X3810000Y21570000D03*
D29*
X1270000Y24110000D03*
X3810000Y24110000D03*
D28*
X1270000Y26650000D03*
X3810000Y26650000D03*
X1270000Y29190000D03*
X3810000Y29190000D03*
X1270000Y31730000D03*
X3810000Y31730000D03*
X1270000Y34270000D03*
X3810000Y34270000D03*
X1270000Y36810000D03*
X3810000Y36810000D03*
X1270000Y39350000D03*
X3810000Y39350000D03*
X1270000Y41890000D03*
X3810000Y41890000D03*
X1270000Y44430000D03*
X3810000Y44430000D03*
D29*
X1270000Y46970000D03*
X3810000Y46970000D03*
D28*
X1270000Y49510000D03*
X3810000Y49510000D03*
D30*
X14900000Y31640000D03*
X14900000Y33540000D03*
X12700000Y33540000D03*
X12700000Y32590000D03*
X12700000Y31640000D03*
D12*
X14920000Y48000000D03*
X28060000Y48000000D03*
D13*
X25490000Y44500000D03*
X23490000Y44500000D03*
X21490000Y44500000D03*
X19490000Y44500000D03*
X17490000Y44500000D03*
X17990000Y46000000D03*
X20490000Y46000000D03*
X22490000Y46000000D03*
X24990000Y46000000D03*
D28*
X58710000Y49510000D03*
X56170000Y49510000D03*
D29*
X58710000Y46970000D03*
X56170000Y46970000D03*
D28*
X58710000Y44430000D03*
X56170000Y44430000D03*
X58710000Y41890000D03*
X56170000Y41890000D03*
X58710000Y39350000D03*
X56170000Y39350000D03*
X58710000Y36810000D03*
X56170000Y36810000D03*
X58710000Y34270000D03*
X56170000Y34270000D03*
X58710000Y31730000D03*
X56170000Y31730000D03*
X58710000Y29190000D03*
X56170000Y29190000D03*
D29*
X58710000Y26650000D03*
X56170000Y26650000D03*
D28*
X58710000Y24110000D03*
X56170000Y24110000D03*
X58710000Y21570000D03*
X56170000Y21570000D03*
X58710000Y19030000D03*
X56170000Y19030000D03*
X58710000Y16490000D03*
X56170000Y16490000D03*
X58710000Y13950000D03*
X56170000Y13950000D03*
X58710000Y11410000D03*
X56170000Y11410000D03*
X58710000Y8870000D03*
X56170000Y8870000D03*
X58710000Y6330000D03*
X56170000Y6330000D03*
D29*
X58710000Y3790000D03*
X56170000Y3790000D03*
D28*
X58710000Y1250000D03*
X56170000Y1250000D03*
D31*
X30000000Y2460000D03*
D32*
X30000000Y1190000D03*
G04 #@! TA.AperFunction,SMDPad,CuDef*
G36*
G01*
X23390000Y33217500D02*
X23390000Y33562500D01*
G75*
G02*
X23537500Y33710000I147500J0D01*
G01*
X23832500Y33710000D01*
G75*
G02*
X23980000Y33562500I0J-147500D01*
G01*
X23980000Y33217500D01*
G75*
G02*
X23832500Y33070000I-147500J0D01*
G01*
X23537500Y33070000D01*
G75*
G02*
X23390000Y33217500I0J147500D01*
G01*
G37*
G04 #@! TD.AperFunction*
G04 #@! TA.AperFunction,SMDPad,CuDef*
G36*
G01*
X22420000Y33217500D02*
X22420000Y33562500D01*
G75*
G02*
X22567500Y33710000I147500J0D01*
G01*
X22862500Y33710000D01*
G75*
G02*
X23010000Y33562500I0J-147500D01*
G01*
X23010000Y33217500D01*
G75*
G02*
X22862500Y33070000I-147500J0D01*
G01*
X22567500Y33070000D01*
G75*
G02*
X22420000Y33217500I0J147500D01*
G01*
G37*
G04 #@! TD.AperFunction*
G04 #@! TA.AperFunction,SMDPad,CuDef*
G36*
G01*
X24572500Y35580000D02*
X24227500Y35580000D01*
G75*
G02*
X24080000Y35727500I0J147500D01*
G01*
X24080000Y36022500D01*
G75*
G02*
X24227500Y36170000I147500J0D01*
G01*
X24572500Y36170000D01*
G75*
G02*
X24720000Y36022500I0J-147500D01*
G01*
X24720000Y35727500D01*
G75*
G02*
X24572500Y35580000I-147500J0D01*
G01*
G37*
G04 #@! TD.AperFunction*
G04 #@! TA.AperFunction,SMDPad,CuDef*
G36*
G01*
X24572500Y34610000D02*
X24227500Y34610000D01*
G75*
G02*
X24080000Y34757500I0J147500D01*
G01*
X24080000Y35052500D01*
G75*
G02*
X24227500Y35200000I147500J0D01*
G01*
X24572500Y35200000D01*
G75*
G02*
X24720000Y35052500I0J-147500D01*
G01*
X24720000Y34757500D01*
G75*
G02*
X24572500Y34610000I-147500J0D01*
G01*
G37*
G04 #@! TD.AperFunction*
G04 #@! TA.AperFunction,SMDPad,CuDef*
G36*
G01*
X28890000Y34217500D02*
X28890000Y34562500D01*
G75*
G02*
X29037500Y34710000I147500J0D01*
G01*
X29332500Y34710000D01*
G75*
G02*
X29480000Y34562500I0J-147500D01*
G01*
X29480000Y34217500D01*
G75*
G02*
X29332500Y34070000I-147500J0D01*
G01*
X29037500Y34070000D01*
G75*
G02*
X28890000Y34217500I0J147500D01*
G01*
G37*
G04 #@! TD.AperFunction*
G04 #@! TA.AperFunction,SMDPad,CuDef*
G36*
G01*
X27920000Y34217500D02*
X27920000Y34562500D01*
G75*
G02*
X28067500Y34710000I147500J0D01*
G01*
X28362500Y34710000D01*
G75*
G02*
X28510000Y34562500I0J-147500D01*
G01*
X28510000Y34217500D01*
G75*
G02*
X28362500Y34070000I-147500J0D01*
G01*
X28067500Y34070000D01*
G75*
G02*
X27920000Y34217500I0J147500D01*
G01*
G37*
G04 #@! TD.AperFunction*
G04 #@! TA.AperFunction,SMDPad,CuDef*
G36*
G01*
X29290000Y33017500D02*
X29290000Y33362500D01*
G75*
G02*
X29437500Y33510000I147500J0D01*
G01*
X29732500Y33510000D01*
G75*
G02*
X29880000Y33362500I0J-147500D01*
G01*
X29880000Y33017500D01*
G75*
G02*
X29732500Y32870000I-147500J0D01*
G01*
X29437500Y32870000D01*
G75*
G02*
X29290000Y33017500I0J147500D01*
G01*
G37*
G04 #@! TD.AperFunction*
G04 #@! TA.AperFunction,SMDPad,CuDef*
G36*
G01*
X28320000Y33017500D02*
X28320000Y33362500D01*
G75*
G02*
X28467500Y33510000I147500J0D01*
G01*
X28762500Y33510000D01*
G75*
G02*
X28910000Y33362500I0J-147500D01*
G01*
X28910000Y33017500D01*
G75*
G02*
X28762500Y32870000I-147500J0D01*
G01*
X28467500Y32870000D01*
G75*
G02*
X28320000Y33017500I0J147500D01*
G01*
G37*
G04 #@! TD.AperFunction*
G04 #@! TA.AperFunction,SMDPad,CuDef*
G36*
G01*
X25490000Y33017500D02*
X25490000Y33362500D01*
G75*
G02*
X25637500Y33510000I147500J0D01*
G01*
X25932500Y33510000D01*
G75*
G02*
X26080000Y33362500I0J-147500D01*
G01*
X26080000Y33017500D01*
G75*
G02*
X25932500Y32870000I-147500J0D01*
G01*
X25637500Y32870000D01*
G75*
G02*
X25490000Y33017500I0J147500D01*
G01*
G37*
G04 #@! TD.AperFunction*
G04 #@! TA.AperFunction,SMDPad,CuDef*
G36*
G01*
X24520000Y33017500D02*
X24520000Y33362500D01*
G75*
G02*
X24667500Y33510000I147500J0D01*
G01*
X24962500Y33510000D01*
G75*
G02*
X25110000Y33362500I0J-147500D01*
G01*
X25110000Y33017500D01*
G75*
G02*
X24962500Y32870000I-147500J0D01*
G01*
X24667500Y32870000D01*
G75*
G02*
X24520000Y33017500I0J147500D01*
G01*
G37*
G04 #@! TD.AperFunction*
G04 #@! TA.AperFunction,SMDPad,CuDef*
G36*
G01*
X27010000Y33362500D02*
X27010000Y33017500D01*
G75*
G02*
X26862500Y32870000I-147500J0D01*
G01*
X26567500Y32870000D01*
G75*
G02*
X26420000Y33017500I0J147500D01*
G01*
X26420000Y33362500D01*
G75*
G02*
X26567500Y33510000I147500J0D01*
G01*
X26862500Y33510000D01*
G75*
G02*
X27010000Y33362500I0J-147500D01*
G01*
G37*
G04 #@! TD.AperFunction*
G04 #@! TA.AperFunction,SMDPad,CuDef*
G36*
G01*
X27980000Y33362500D02*
X27980000Y33017500D01*
G75*
G02*
X27832500Y32870000I-147500J0D01*
G01*
X27537500Y32870000D01*
G75*
G02*
X27390000Y33017500I0J147500D01*
G01*
X27390000Y33362500D01*
G75*
G02*
X27537500Y33510000I147500J0D01*
G01*
X27832500Y33510000D01*
G75*
G02*
X27980000Y33362500I0J-147500D01*
G01*
G37*
G04 #@! TD.AperFunction*
G04 #@! TA.AperFunction,SMDPad,CuDef*
G36*
G01*
X16772500Y33180000D02*
X16427500Y33180000D01*
G75*
G02*
X16280000Y33327500I0J147500D01*
G01*
X16280000Y33622500D01*
G75*
G02*
X16427500Y33770000I147500J0D01*
G01*
X16772500Y33770000D01*
G75*
G02*
X16920000Y33622500I0J-147500D01*
G01*
X16920000Y33327500D01*
G75*
G02*
X16772500Y33180000I-147500J0D01*
G01*
G37*
G04 #@! TD.AperFunction*
G04 #@! TA.AperFunction,SMDPad,CuDef*
G36*
G01*
X16772500Y32210000D02*
X16427500Y32210000D01*
G75*
G02*
X16280000Y32357500I0J147500D01*
G01*
X16280000Y32652500D01*
G75*
G02*
X16427500Y32800000I147500J0D01*
G01*
X16772500Y32800000D01*
G75*
G02*
X16920000Y32652500I0J-147500D01*
G01*
X16920000Y32357500D01*
G75*
G02*
X16772500Y32210000I-147500J0D01*
G01*
G37*
G04 #@! TD.AperFunction*
G04 #@! TA.AperFunction,SMDPad,CuDef*
G36*
G01*
X11472500Y31880000D02*
X11127500Y31880000D01*
G75*
G02*
X10980000Y32027500I0J147500D01*
G01*
X10980000Y32322500D01*
G75*
G02*
X11127500Y32470000I147500J0D01*
G01*
X11472500Y32470000D01*
G75*
G02*
X11620000Y32322500I0J-147500D01*
G01*
X11620000Y32027500D01*
G75*
G02*
X11472500Y31880000I-147500J0D01*
G01*
G37*
G04 #@! TD.AperFunction*
G04 #@! TA.AperFunction,SMDPad,CuDef*
G36*
G01*
X11472500Y30910000D02*
X11127500Y30910000D01*
G75*
G02*
X10980000Y31057500I0J147500D01*
G01*
X10980000Y31352500D01*
G75*
G02*
X11127500Y31500000I147500J0D01*
G01*
X11472500Y31500000D01*
G75*
G02*
X11620000Y31352500I0J-147500D01*
G01*
X11620000Y31057500D01*
G75*
G02*
X11472500Y30910000I-147500J0D01*
G01*
G37*
G04 #@! TD.AperFunction*
D33*
X27250000Y38790000D03*
X10700000Y38490000D03*
X27000000Y26390000D03*
X28000000Y25390000D03*
X27000000Y24390000D03*
X28000000Y23390000D03*
X29000000Y21390000D03*
X30000000Y22390000D03*
X31000000Y22390000D03*
X28000000Y24390000D03*
X29000000Y24390000D03*
X25000000Y24390000D03*
X25000000Y23390000D03*
X26000000Y28390000D03*
X28000000Y27390000D03*
X26000000Y32390000D03*
X27000000Y32390000D03*
X30000000Y28390000D03*
X30000000Y29390000D03*
X30000000Y30390000D03*
X29000000Y30390000D03*
X31000000Y33390000D03*
X29000000Y20390000D03*
X27000000Y21390000D03*
X34000000Y24390000D03*
X23000000Y20390000D03*
X24000000Y17390000D03*
X26000000Y18390000D03*
X33000000Y16390000D03*
X38000000Y22390000D03*
X34000000Y33390000D03*
X32000000Y29390000D03*
X22000000Y33390000D03*
X27500000Y36590000D03*
X24000000Y33390000D03*
X21000000Y16390000D03*
X28986217Y27401998D03*
X32000000Y20390000D03*
X25000000Y19390000D03*
X23990000Y24471544D03*
X37000000Y34390000D03*
X33989999Y19308457D03*
X21908456Y28390000D03*
X38000000Y32390000D03*
X41200000Y33190000D03*
X29000000Y19446010D03*
X36986130Y21376130D03*
X36000000Y3490000D03*
X23950000Y1140000D03*
X37000000Y11490000D03*
X37000000Y10890000D03*
X37000000Y10290000D03*
X28000000Y16355511D03*
X7700000Y41190000D03*
X28000000Y30390000D03*
X6100000Y39390000D03*
X21554447Y7835553D03*
X30024084Y15373010D03*
X13545800Y32943145D03*
X32990000Y27424490D03*
X40825989Y35856129D03*
X48200000Y36990000D03*
X48800000Y33690000D03*
X48800000Y24490000D03*
X45900000Y22390000D03*
X48300000Y27690000D03*
X46200000Y13290000D03*
X49700000Y17590000D03*
X25900000Y5690000D03*
X11000000Y13590000D03*
X12100000Y24990000D03*
X13300000Y28490000D03*
X29500000Y36590000D03*
X30500000Y36590000D03*
X31000000Y32390000D03*
X29602585Y34231701D03*
X45815510Y43391901D03*
X40709522Y25796011D03*
X37233613Y25290512D03*
X36050000Y28290000D03*
X39028920Y29419412D03*
X35049663Y31224490D03*
X25550000Y36590000D03*
X35819521Y21288013D03*
X23561772Y36579948D03*
X24782645Y29492918D03*
X23000000Y31826890D03*
X47733682Y15772090D03*
X7849130Y9862990D03*
X37420834Y14060834D03*
X32360022Y10180927D03*
X15962990Y22521237D03*
X20964095Y25431742D03*
X22001512Y23383952D03*
X25037010Y27390000D03*
X16068010Y12972603D03*
X18898832Y19614973D03*
X21500000Y36640000D03*
X20500000Y36640000D03*
X37898711Y34615235D03*
X48000000Y6640000D03*
X25250000Y38790000D03*
X27250000Y42140000D03*
X14000000Y42424490D03*
X45904999Y32694999D03*
X44500000Y19890000D03*
X41235756Y15763314D03*
X18923781Y28706436D03*
X45000000Y20390000D03*
X46250000Y12640000D03*
X46250000Y11890000D03*
X44000000Y31640000D03*
X13500000Y29390000D03*
X12250000Y16390000D03*
X13300000Y19257910D03*
X15973186Y19257910D03*
X11632117Y22992341D03*
X8866256Y35897604D03*
X39530024Y19126649D03*
X36770000Y17750000D03*
X30460000Y4550000D03*
X33530000Y7850000D03*
X43513920Y28210012D03*
X42090000Y23770000D03*
X41710000Y35770000D03*
X27000000Y20390000D03*
X30000000Y20390000D03*
X34000000Y21390000D03*
X31000000Y30390000D03*
X11100000Y33790000D03*
X19400000Y8890000D03*
X14500000Y39890000D03*
X33000000Y25402555D03*
X14600000Y34890000D03*
X14600000Y37590000D03*
X6400000Y31290000D03*
X37888079Y19436411D03*
X31429166Y8860834D03*
X40200000Y21190000D03*
X50400000Y27290000D03*
X53500000Y28490000D03*
X53800000Y23590000D03*
X36985646Y22323740D03*
X9459983Y39192002D03*
X41904481Y8590008D03*
X50687762Y7764068D03*
X41439692Y14029692D03*
X40969521Y8872935D03*
X38073778Y17180383D03*
X41500000Y14640000D03*
X38855988Y7855988D03*
X23960000Y8920000D03*
X28000000Y28390000D03*
X27000000Y28390000D03*
X29000000Y28390000D03*
X27000000Y27390000D03*
X26000000Y26390000D03*
X26000000Y27390000D03*
X26000000Y31390000D03*
X28000000Y32390000D03*
X25000000Y32390000D03*
X30000000Y26390000D03*
X26000000Y25390000D03*
X26000000Y24390000D03*
X26000000Y23390000D03*
X26000000Y22390000D03*
X26000000Y21390000D03*
X27000000Y22390000D03*
X28000000Y22390000D03*
X29000000Y23390000D03*
X28000000Y21390000D03*
X17750000Y29640000D03*
X18000000Y29140000D03*
X25989999Y20308456D03*
X27187238Y30497541D03*
X18250000Y30140000D03*
X18750000Y29640000D03*
X30000000Y21390000D03*
X30000000Y27390000D03*
X30000000Y31390000D03*
X31000000Y24390000D03*
X28936130Y26453870D03*
X31000000Y29390000D03*
X30100000Y23190000D03*
X41800000Y21424490D03*
X41400000Y22390000D03*
X41800000Y20890000D03*
X41250000Y21140000D03*
X26100000Y12790000D03*
X27000000Y12790000D03*
X27900000Y12790000D03*
X29400000Y12790000D03*
X30200000Y12790000D03*
X31000000Y12790000D03*
X8000000Y27290000D03*
X8000000Y27890000D03*
X9200000Y20740000D03*
X51000000Y14690000D03*
X51400000Y15090000D03*
X51800000Y15490000D03*
X54300000Y22390000D03*
X53700000Y22390000D03*
X53100000Y22390000D03*
X52500000Y22390000D03*
X9850000Y20507910D03*
X10600000Y20590000D03*
X51100000Y32440000D03*
X51650000Y32440000D03*
X31988882Y22308447D03*
X30956691Y16345308D03*
X32000000Y19390000D03*
X33000000Y20390000D03*
X29045000Y4565000D03*
X33815635Y13781511D03*
X29000000Y29390000D03*
X29967473Y19446010D03*
X32000000Y24390000D03*
X34492167Y13806990D03*
X32411316Y13806990D03*
X35516468Y13677010D03*
X39030000Y9260000D03*
X38918082Y21385287D03*
X50500000Y28390000D03*
X41662611Y28133921D03*
X43700000Y21790000D03*
X41800000Y24820000D03*
X49826969Y23465850D03*
X47850000Y25190000D03*
X18216780Y16147317D03*
X20150000Y17640000D03*
X18731414Y15632683D03*
X20140000Y16960000D03*
X20000000Y19390000D03*
X18242683Y18647317D03*
X20075446Y18603017D03*
X18757317Y18132683D03*
X20250000Y27140000D03*
X17992683Y27632683D03*
X20250000Y27817013D03*
X18507317Y28147317D03*
X36018668Y35439497D03*
X39750000Y39503900D03*
X36750000Y35140000D03*
X39750000Y38776100D03*
X52250000Y12776100D03*
X38540000Y15550000D03*
X52250000Y13503900D03*
X39240000Y15530000D03*
X34000000Y28455510D03*
X41021445Y26396884D03*
X38748111Y26732250D03*
X35781905Y25634671D03*
X37650000Y29590000D03*
X39000000Y18390000D03*
X42000000Y19140000D03*
X30918980Y18390000D03*
X28987675Y16402325D03*
X33021607Y15436232D03*
X35526468Y16180039D03*
X37739146Y18287478D03*
X40997378Y16396971D03*
X37135365Y22983989D03*
X38000000Y21390000D03*
X38929337Y22377405D03*
X32989999Y22308456D03*
X28600000Y13827010D03*
X33989999Y22308456D03*
X29500000Y13827010D03*
X31670212Y13806990D03*
X33000000Y24390000D03*
X33000000Y36640000D03*
X47276000Y47234000D03*
X40750000Y38390000D03*
X49119697Y43307910D03*
X24076776Y7607870D03*
X36020442Y20437635D03*
X36098875Y18637846D03*
X37000000Y18390000D03*
X23400000Y7590000D03*
X37009806Y19377742D03*
X22499623Y7852990D03*
X9900000Y43090000D03*
X8791848Y40720802D03*
X21250000Y38036100D03*
X22000000Y31390000D03*
X21250000Y38763900D03*
X23908456Y32390001D03*
X23000000Y21390000D03*
X23000000Y18390000D03*
X22000000Y15390000D03*
X22000000Y18390000D03*
X21000000Y20390000D03*
X22000000Y14290000D03*
X25979690Y16405696D03*
X15300000Y21190000D03*
X5686561Y18079579D03*
X5796093Y16186093D03*
X5800000Y4690000D03*
X21607910Y13901243D03*
X33000000Y34390000D03*
X39000000Y33390000D03*
X35000000Y35390000D03*
X40000000Y31390000D03*
X41700000Y31490000D03*
X41700000Y30790000D03*
X42100000Y31090000D03*
X54100000Y47190000D03*
X33979470Y32454916D03*
X54100000Y46390000D03*
X50500000Y43640000D03*
X51200000Y43640000D03*
X36050000Y32490000D03*
X39007558Y24451416D03*
X39990001Y26471543D03*
X10700000Y42890000D03*
X38956073Y27434059D03*
X12900000Y42490000D03*
X11550000Y40257910D03*
X22000000Y34390000D03*
X24989999Y34308456D03*
X29506294Y35238201D03*
X27000000Y34390000D03*
X47700000Y33690000D03*
X48381010Y26971010D03*
X2402177Y18009611D03*
X54486474Y15370066D03*
X37000000Y16390000D03*
X16513900Y37740000D03*
X38000000Y16390000D03*
X15786100Y37740000D03*
X35000000Y24390000D03*
X36034838Y27423167D03*
X41700000Y30007910D03*
X41122316Y27109353D03*
X48885617Y28772090D03*
X38700000Y48390000D03*
X41087379Y28490927D03*
X40752812Y19915009D03*
X48381010Y17571010D03*
X51300000Y17590000D03*
X21517618Y49973988D03*
X18200000Y49699007D03*
X17500000Y34640000D03*
X22000000Y26390000D03*
X16500000Y24640000D03*
X23000000Y25390000D03*
X22000000Y27390000D03*
X20000000Y33390000D03*
X17000000Y21590000D03*
X17000000Y22140000D03*
X19990001Y32308457D03*
X5877999Y45284239D03*
X16644083Y30645917D03*
X24170719Y28893841D03*
X17500000Y22390000D03*
X16284498Y28839145D03*
X19104115Y23835783D03*
X49797638Y7187638D03*
X24700000Y3590000D03*
X38906892Y19391319D03*
X31000000Y38190000D03*
X30500000Y38790000D03*
X25550000Y40294727D03*
X26826860Y40294727D03*
X25550000Y39566927D03*
X26826860Y39566927D03*
D34*
X24000000Y33390000D02*
X23685000Y33390000D01*
X34085000Y33475000D02*
X34000000Y33390000D01*
X34085000Y35190000D02*
X34085000Y33475000D01*
X36565000Y34390000D02*
X37000000Y34390000D01*
X29515000Y24390000D02*
X29000000Y24390000D01*
X29015000Y24405000D02*
X29000000Y24390000D01*
X29015000Y25390000D02*
X29015000Y24405000D01*
X27515000Y26390000D02*
X27000000Y26390000D01*
X29485000Y22390000D02*
X30000000Y22390000D01*
X32825000Y17790000D02*
X32200000Y17790000D01*
X33000000Y17615000D02*
X32825000Y17790000D01*
X33000000Y16390000D02*
X33000000Y17615000D01*
X27485000Y23390000D02*
X28000000Y23390000D01*
X27700000Y25090000D02*
X28000000Y25390000D01*
X27485000Y25090000D02*
X27700000Y25090000D01*
X38315000Y31980406D02*
X38315000Y31390000D01*
X38000000Y32390000D02*
X38315000Y31980406D01*
X38000000Y32875000D02*
X37685000Y33190000D01*
X38000000Y32390000D02*
X38000000Y32875000D01*
X40685000Y33190000D02*
X41200000Y33190000D01*
X31413020Y31290000D02*
X31585000Y31290000D01*
D35*
X37000000Y7090000D02*
X37000000Y11490000D01*
D36*
X6400000Y41190000D02*
X7700000Y41190000D01*
D34*
X31290000Y26405000D02*
X31220000Y26405000D01*
X31985000Y25390000D02*
X31985000Y25710000D01*
D36*
X13985000Y40690000D02*
X13985000Y42475000D01*
D37*
X11715000Y32590000D02*
X12700000Y32590000D01*
X11300000Y32175000D02*
X11715000Y32590000D01*
X6150000Y38090000D02*
X6150000Y39340000D01*
X6150000Y39340000D02*
X6100000Y39390000D01*
X7850000Y35890000D02*
X7850000Y36390000D01*
X6300000Y39590000D02*
X6100000Y39390000D01*
X7615000Y39590000D02*
X6300000Y39590000D01*
D36*
X56170000Y46360000D02*
X53600000Y43790000D01*
X56170000Y46970000D02*
X56170000Y46360000D01*
D35*
X53500000Y6460000D02*
X56170000Y3790000D01*
X53500000Y7390000D02*
X53500000Y6460000D01*
D37*
X12700000Y32590000D02*
X13530000Y32590000D01*
X13545800Y32605800D02*
X13545800Y32943145D01*
X13530000Y32590000D02*
X13545800Y32605800D01*
D36*
X45904999Y13894999D02*
X45000000Y12990000D01*
X45904999Y14940000D02*
X45904999Y13894999D01*
X14095001Y27485001D02*
X14095001Y26440000D01*
X15000000Y28390000D02*
X14095001Y27485001D01*
X14075001Y18065001D02*
X14075001Y17040000D01*
X15000000Y18990000D02*
X14075001Y18065001D01*
X45924999Y23314999D02*
X45924999Y24340000D01*
X45000000Y22390000D02*
X45924999Y23314999D01*
X45904999Y33740000D02*
X45904999Y32694999D01*
D37*
X36986130Y20518870D02*
X37215000Y20290000D01*
X36986130Y21376130D02*
X36986130Y20518870D01*
D34*
X30685000Y35390000D02*
X30700000Y35375000D01*
X31985000Y26419490D02*
X31970510Y26405000D01*
D36*
X47685000Y37190000D02*
X48000000Y37190000D01*
X48000000Y37190000D02*
X48200000Y36990000D01*
X45904999Y34464999D02*
X45904999Y33740000D01*
X46230000Y34790000D02*
X45904999Y34464999D01*
X48800000Y34305000D02*
X48800000Y33690000D01*
X45924999Y25064999D02*
X45924999Y24340000D01*
X46250000Y25390000D02*
X45924999Y25064999D01*
X48800000Y24905000D02*
X48800000Y24490000D01*
X45000000Y22390000D02*
X45900000Y22390000D01*
X45924999Y22414999D02*
X45900000Y22390000D01*
X45924999Y24340000D02*
X45924999Y22414999D01*
D37*
X48200000Y27790000D02*
X48300000Y27690000D01*
X47685000Y27790000D02*
X48200000Y27790000D01*
D36*
X45904999Y15664999D02*
X45904999Y14940000D01*
X46230000Y15990000D02*
X45904999Y15664999D01*
X45000000Y12990000D02*
X45900000Y12990000D01*
X45900000Y12990000D02*
X46200000Y13290000D01*
X45904999Y13585001D02*
X46200000Y13290000D01*
X45904999Y13894999D02*
X45904999Y13585001D01*
X45625000Y12990000D02*
X45700000Y13065000D01*
X45000000Y12990000D02*
X45625000Y12990000D01*
X45700000Y13380002D02*
X45904999Y13585001D01*
X45700000Y13065000D02*
X45700000Y13380002D01*
D37*
X48900000Y18390000D02*
X49700000Y17590000D01*
X47685000Y18390000D02*
X48900000Y18390000D01*
D36*
X14075001Y16315001D02*
X13750000Y15990000D01*
X14075001Y17040000D02*
X14075001Y16315001D01*
X12315000Y13590000D02*
X11000000Y13590000D01*
X14095001Y25715001D02*
X13770000Y25390000D01*
X14095001Y26440000D02*
X14095001Y25715001D01*
X11200000Y25675000D02*
X11415000Y25675000D01*
X11415000Y25675000D02*
X12100000Y24990000D01*
X13400000Y28390000D02*
X13300000Y28490000D01*
X16385000Y33690000D02*
X16600000Y33475000D01*
X16385000Y34890000D02*
X16385000Y33690000D01*
X16280000Y33475000D02*
X16600000Y33475000D01*
X15473146Y32668146D02*
X16280000Y33475000D01*
X13820799Y32668146D02*
X15473146Y32668146D01*
X13545800Y32943145D02*
X13820799Y32668146D01*
D37*
X29185000Y34390000D02*
X29185000Y34575000D01*
X30500000Y35575000D02*
X30700000Y35375000D01*
X30500000Y36590000D02*
X30500000Y35575000D01*
X31000000Y31875000D02*
X31585000Y31290000D01*
X31000000Y32390000D02*
X31000000Y31875000D01*
X30200000Y33190000D02*
X31000000Y32390000D01*
X29585000Y33190000D02*
X30200000Y33190000D01*
X28954293Y34940707D02*
X28954293Y36044293D01*
X28954293Y36044293D02*
X29500000Y36590000D01*
X29185000Y34390000D02*
X29185000Y34710000D01*
D36*
X46700000Y43405000D02*
X45828609Y43405000D01*
D34*
X45828609Y43405000D02*
X45815510Y43391901D01*
X37200000Y26390000D02*
X37200000Y25324125D01*
X37200000Y25324125D02*
X37233613Y25290512D01*
X35900000Y30190000D02*
X35900000Y31065000D01*
X35740510Y31224490D02*
X35049663Y31224490D01*
X35900000Y31065000D02*
X35740510Y31224490D01*
D36*
X25000000Y19390000D02*
X25000000Y18490000D01*
D37*
X29185000Y34710000D02*
X28954293Y34940707D01*
X26015000Y28405000D02*
X26000000Y28390000D01*
X26015000Y29190000D02*
X26015000Y28405000D01*
X27785000Y31605000D02*
X27000000Y32390000D01*
X27785000Y31190000D02*
X27785000Y31605000D01*
X26715000Y33105000D02*
X26000000Y32390000D01*
X26715000Y33190000D02*
X26715000Y33105000D01*
X25785000Y32605000D02*
X26000000Y32390000D01*
X25785000Y33190000D02*
X25785000Y32605000D01*
X32000000Y28605000D02*
X31985000Y28590000D01*
X32000000Y29390000D02*
X32000000Y28605000D01*
X28000000Y30390000D02*
X28000000Y29875000D01*
X24315000Y24796544D02*
X23990000Y24471544D01*
X24315000Y25590000D02*
X24315000Y24796544D01*
X24785000Y23175000D02*
X25000000Y23390000D01*
X23300000Y23175000D02*
X24785000Y23175000D01*
X25000000Y23275000D02*
X24415000Y22690000D01*
X25000000Y23390000D02*
X25000000Y23275000D01*
X26315000Y18705000D02*
X26000000Y18390000D01*
X26700000Y18705000D02*
X26315000Y18705000D01*
X31685000Y20705000D02*
X32000000Y20390000D01*
X31685000Y21390000D02*
X31685000Y20705000D01*
X31685000Y23075000D02*
X31000000Y22390000D01*
X31685000Y23290000D02*
X31685000Y23075000D01*
X28685000Y20390000D02*
X28000000Y19705000D01*
X29000000Y20390000D02*
X28685000Y20390000D01*
X21000000Y17205000D02*
X21000000Y16390000D01*
X21685000Y17075000D02*
X21000000Y16390000D01*
X22000000Y17075000D02*
X21685000Y17075000D01*
X24000000Y16505000D02*
X24115000Y16390000D01*
X24000000Y17390000D02*
X24000000Y16505000D01*
X31220000Y26405000D02*
X31235000Y26390000D01*
X31235000Y26390000D02*
X31950000Y26390000D01*
X30900000Y26405000D02*
X31220000Y26405000D01*
D34*
X31970510Y26405000D02*
X31950000Y26390000D01*
X31950000Y26390000D02*
X30900000Y26405000D01*
D37*
X31985000Y25390000D02*
X31985000Y26419490D01*
X31985000Y26419490D02*
X31985000Y26975000D01*
X32434490Y27424490D02*
X32990000Y27424490D01*
X31985000Y26975000D02*
X32434490Y27424490D01*
X32990000Y26785000D02*
X33000000Y26775000D01*
X32990000Y27424490D02*
X32990000Y26785000D01*
X36986130Y21376130D02*
X36428870Y21376130D01*
X36283013Y21288013D02*
X36400000Y21405000D01*
X33989999Y19894999D02*
X34000000Y19905000D01*
X33989999Y19308457D02*
X33989999Y19894999D01*
X23561772Y36393228D02*
X23561772Y36579948D01*
X24400000Y35875000D02*
X24080000Y35875000D01*
X24080000Y35875000D02*
X23561772Y36393228D01*
X21485000Y33390000D02*
X22000000Y33390000D01*
X21485000Y32390000D02*
X21780000Y32390000D01*
X21908456Y28390000D02*
X22515000Y28390000D01*
X24315000Y29960563D02*
X24782645Y29492918D01*
X24315000Y30490000D02*
X24315000Y29960563D01*
X21780000Y32390000D02*
X22000000Y32610000D01*
X22000000Y32610000D02*
X22000000Y33390000D01*
X23978110Y31826890D02*
X24315000Y31490000D01*
X23000000Y31826890D02*
X23978110Y31826890D01*
X48000772Y15505000D02*
X47733682Y15772090D01*
X48800000Y15505000D02*
X48000772Y15505000D01*
D36*
X6600000Y9790000D02*
X7776140Y9790000D01*
X7776140Y9790000D02*
X7849130Y9862990D01*
D37*
X21900000Y21490000D02*
X21900000Y23282440D01*
X21900000Y23282440D02*
X22001512Y23383952D01*
D34*
X21485000Y23390000D02*
X21995464Y23390000D01*
X21995464Y23390000D02*
X22001512Y23383952D01*
D37*
X24648102Y27390000D02*
X25037010Y27390000D01*
X24315000Y27056898D02*
X24648102Y27390000D01*
X24315000Y26590000D02*
X24315000Y27056898D01*
X21893456Y28375000D02*
X21908456Y28390000D01*
X21250000Y28375000D02*
X21893456Y28375000D01*
X21473258Y25431742D02*
X21515000Y25390000D01*
X20964095Y25431742D02*
X21473258Y25431742D01*
D36*
X17000000Y13565000D02*
X16407603Y12972603D01*
X16407603Y12972603D02*
X16068010Y12972603D01*
D37*
X23265000Y16655000D02*
X24000000Y17390000D01*
X23000000Y16655000D02*
X23265000Y16655000D01*
X22985000Y20375000D02*
X23000000Y20390000D01*
X22985000Y19640000D02*
X22985000Y20375000D01*
D36*
X37900000Y34616524D02*
X37898711Y34615235D01*
X37900000Y36790000D02*
X37900000Y34616524D01*
D37*
X36285000Y34390000D02*
X35985000Y34690000D01*
X37000000Y34390000D02*
X36285000Y34390000D01*
X36885000Y34390000D02*
X35685000Y33190000D01*
X37000000Y34390000D02*
X36885000Y34390000D01*
D36*
X13400000Y43505000D02*
X13400000Y43024490D01*
D34*
X13985000Y42475000D02*
X14000000Y42460000D01*
X14000000Y42460000D02*
X14000000Y42424490D01*
D36*
X45904999Y32694999D02*
X45000000Y31790000D01*
X42885000Y19890000D02*
X44500000Y19890000D01*
X20100000Y29215000D02*
X19591436Y28706436D01*
X19591436Y28706436D02*
X18923781Y28706436D01*
X20100000Y30090000D02*
X20100000Y29215000D01*
X45000000Y20390000D02*
X44500000Y19890000D01*
X45000000Y22390000D02*
X45000000Y20390000D01*
X46200000Y13290000D02*
X46200000Y12690000D01*
X46200000Y12690000D02*
X46250000Y12640000D01*
X45350000Y12640000D02*
X45000000Y12990000D01*
X46250000Y12640000D02*
X45350000Y12640000D01*
X46250000Y12640000D02*
X46250000Y11890000D01*
X45000000Y31790000D02*
X44150000Y31790000D01*
X44150000Y31790000D02*
X44000000Y31640000D01*
X14095001Y27694999D02*
X14095001Y27485001D01*
X13300000Y28490000D02*
X14095001Y27694999D01*
X13300000Y29190000D02*
X13500000Y29390000D01*
X13300000Y28490000D02*
X13300000Y29190000D01*
X14250000Y28640000D02*
X13500000Y29390000D01*
X14250000Y28390000D02*
X14250000Y28640000D01*
X15000000Y28390000D02*
X14250000Y28390000D01*
X14250000Y28390000D02*
X13400000Y28390000D01*
X13500000Y29390000D02*
X13500000Y28890000D01*
X13500000Y28890000D02*
X13750000Y28640000D01*
X11200000Y16475000D02*
X12165000Y16475000D01*
X12165000Y16475000D02*
X12250000Y16390000D01*
X15000000Y18990000D02*
X15705276Y18990000D01*
X15000000Y18990000D02*
X13567910Y18990000D01*
X15705276Y18990000D02*
X15973186Y19257910D01*
X14075001Y18482909D02*
X13300000Y19257910D01*
X14075001Y18065001D02*
X14075001Y18482909D01*
X13567910Y18990000D02*
X13300000Y19257910D01*
X11634458Y22990000D02*
X11632117Y22992341D01*
X12315000Y22990000D02*
X11634458Y22990000D01*
D37*
X9415000Y34190000D02*
X9415000Y35348860D01*
X9415000Y35348860D02*
X8866256Y35897604D01*
X7850000Y35890000D02*
X8858652Y35890000D01*
X8858652Y35890000D02*
X8866256Y35897604D01*
D36*
X13400000Y43024490D02*
X14000000Y42424490D01*
X14700000Y43124490D02*
X14000000Y42424490D01*
X14700000Y43505000D02*
X14700000Y43124490D01*
X47900000Y43405000D02*
X46700000Y43405000D01*
D37*
X39585000Y17975000D02*
X39585000Y17390000D01*
X39750000Y18140000D02*
X39585000Y17975000D01*
X39750000Y18517765D02*
X39750000Y18140000D01*
X39530024Y18737741D02*
X39750000Y18517765D01*
X39530024Y19126649D02*
X39530024Y18737741D01*
D34*
X30465000Y4555000D02*
X30460000Y4550000D01*
X30465000Y5450000D02*
X30465000Y4555000D01*
D37*
X21508894Y7790000D02*
X21554447Y7835553D01*
X20785000Y7790000D02*
X21508894Y7790000D01*
X43000000Y27696092D02*
X43513920Y28210012D01*
X43000000Y26727500D02*
X43000000Y27696092D01*
X41395000Y23770000D02*
X40500000Y22875000D01*
X42090000Y23770000D02*
X41395000Y23770000D01*
D36*
X17000000Y13565000D02*
X17000000Y14652500D01*
X42067500Y36127500D02*
X41710000Y35770000D01*
X43000000Y36127500D02*
X42067500Y36127500D01*
X17000000Y23558247D02*
X15962990Y22521237D01*
X17000000Y23715000D02*
X17000000Y23558247D01*
X42885000Y19590000D02*
X42885000Y17905000D01*
D34*
X30015000Y20375000D02*
X30000000Y20390000D01*
X30800000Y20375000D02*
X30015000Y20375000D01*
X29400000Y18665000D02*
X29500000Y18765000D01*
X29400000Y17790000D02*
X29400000Y18665000D01*
X29500000Y19890000D02*
X30000000Y20390000D01*
X29500000Y18765000D02*
X29500000Y19890000D01*
D37*
X11050000Y33840000D02*
X11100000Y33790000D01*
X12050000Y35390000D02*
X12050000Y34740000D01*
X13421601Y34737999D02*
X12052001Y34737999D01*
X10800000Y42075000D02*
X11800000Y42075000D01*
X12050000Y39913602D02*
X12050000Y39390000D01*
X14111092Y39890000D02*
X13959091Y40042001D01*
X12178399Y40042001D02*
X12050000Y39913602D01*
X14500000Y39890000D02*
X14111092Y39890000D01*
X12552001Y41642999D02*
X12120000Y42075000D01*
X12120000Y42075000D02*
X11800000Y42075000D01*
X13959091Y40042001D02*
X12552001Y40042001D01*
X12552001Y40042001D02*
X12178399Y40042001D01*
D34*
X34287555Y25402555D02*
X33000000Y25402555D01*
X33000000Y25805000D02*
X33000000Y25402555D01*
X34400000Y25515000D02*
X34287555Y25402555D01*
X34400000Y26390000D02*
X34400000Y25515000D01*
X12552001Y40742001D02*
X12604002Y40690000D01*
D37*
X12552001Y40042001D02*
X12552001Y40742001D01*
D34*
X12604002Y40690000D02*
X13015000Y40690000D01*
D37*
X12552001Y40742001D02*
X12552001Y41642999D01*
X13421601Y34737999D02*
X13573602Y34890000D01*
X13800000Y34890000D02*
X13800000Y36140000D01*
X13573602Y34890000D02*
X13800000Y34890000D01*
X13800000Y34890000D02*
X15415000Y34890000D01*
D34*
X14350000Y37640000D02*
X13800000Y37640000D01*
X14600000Y37590000D02*
X14350000Y37640000D01*
D37*
X11000000Y34190000D02*
X10385000Y34190000D01*
X11050000Y34240000D02*
X11000000Y34190000D01*
X11050000Y35390000D02*
X11050000Y34240000D01*
X11050000Y34240000D02*
X11050000Y33840000D01*
X11550000Y35390000D02*
X11550000Y34740000D01*
X11550000Y34740000D02*
X11550000Y34240000D01*
X12050000Y34740000D02*
X12052001Y34737999D01*
X11550000Y34740000D02*
X12050000Y34740000D01*
X11500000Y33790000D02*
X11100000Y33790000D01*
X11550000Y33840000D02*
X11500000Y33790000D01*
X11550000Y34740000D02*
X11550000Y33840000D01*
X9147999Y39322001D02*
X8880000Y39590000D01*
X9147999Y38268399D02*
X9147999Y39322001D01*
X9276398Y38140000D02*
X9147999Y38268399D01*
X9800000Y38140000D02*
X9276398Y38140000D01*
X8585000Y39590000D02*
X8880000Y39590000D01*
D34*
X38000000Y20005000D02*
X38000000Y19548332D01*
X38000000Y19548332D02*
X37888079Y19436411D01*
X40200000Y21190000D02*
X40200000Y21075000D01*
D37*
X53500000Y28490000D02*
X53500000Y23890000D01*
X53500000Y23890000D02*
X53800000Y23590000D01*
X9277998Y39192002D02*
X9147999Y39322001D01*
X9459983Y39192002D02*
X9277998Y39192002D01*
X36451260Y22323740D02*
X36400000Y22375000D01*
X36985646Y22323740D02*
X36451260Y22323740D01*
X34000000Y21390000D02*
X34000000Y20875000D01*
X41724992Y8590008D02*
X41904481Y8590008D01*
D35*
X53500000Y10190000D02*
X53500000Y9565000D01*
D37*
X48315000Y7390000D02*
X48315000Y7710000D01*
X48315000Y7710000D02*
X48644067Y8039067D01*
X48644067Y8039067D02*
X50412763Y8039067D01*
D35*
X53500000Y9565000D02*
X51699068Y7764068D01*
X51699068Y7764068D02*
X50687762Y7764068D01*
D37*
X50412763Y8039067D02*
X50687762Y7764068D01*
D36*
X41412500Y14002500D02*
X41439692Y14029692D01*
X41412500Y13190000D02*
X41412500Y14002500D01*
X41412500Y14056884D02*
X41439692Y14029692D01*
D37*
X40999086Y8902500D02*
X40969521Y8872935D01*
D35*
X41412500Y9315914D02*
X40969521Y8872935D01*
X41412500Y13190000D02*
X41412500Y9315914D01*
X41412500Y9081989D02*
X41412500Y9315914D01*
X41904481Y8590008D02*
X41412500Y9081989D01*
D37*
X40500000Y21490000D02*
X40200000Y21190000D01*
X40500000Y21905000D02*
X40500000Y21490000D01*
D34*
X38000000Y17342761D02*
X38073778Y17268983D01*
X38073778Y17268983D02*
X38073778Y17180383D01*
D37*
X38615000Y17390000D02*
X38283395Y17390000D01*
X38283395Y17390000D02*
X38073778Y17180383D01*
X37890000Y20290000D02*
X37888079Y20288079D01*
X37888079Y20288079D02*
X37888079Y19436411D01*
X38185000Y20290000D02*
X37890000Y20290000D01*
X12265000Y31205000D02*
X12700000Y31640000D01*
X11300000Y31205000D02*
X12265000Y31205000D01*
D35*
X44715000Y16888002D02*
X44715000Y18390000D01*
X44300000Y14990000D02*
X44300000Y16473002D01*
X44300000Y16473002D02*
X44715000Y16888002D01*
X43000000Y14990000D02*
X44300000Y14990000D01*
D36*
X44866998Y17040000D02*
X44715000Y16888002D01*
X45255001Y17040000D02*
X44866998Y17040000D01*
X44350000Y14940000D02*
X44300000Y14990000D01*
X45255001Y14940000D02*
X44350000Y14940000D01*
X50501010Y17859874D02*
X49269874Y19091010D01*
X50501010Y15886010D02*
X50501010Y17859874D01*
X49800000Y15505000D02*
X50120000Y15505000D01*
X49269874Y19091010D02*
X45096010Y19091010D01*
X50120000Y15505000D02*
X50501010Y15886010D01*
X44715000Y18710000D02*
X44715000Y18390000D01*
X45096010Y19091010D02*
X44715000Y18710000D01*
D37*
X6500000Y31190000D02*
X6400000Y31290000D01*
X11285000Y31190000D02*
X6500000Y31190000D01*
X11300000Y31205000D02*
X11285000Y31190000D01*
D35*
X41850000Y14990000D02*
X41500000Y14640000D01*
X41412500Y14552500D02*
X41500000Y14640000D01*
X41412500Y13190000D02*
X41412500Y14552500D01*
D34*
X39500000Y10705000D02*
X39500000Y8500000D01*
X39500000Y8500000D02*
X38855988Y7855988D01*
X38070000Y12135000D02*
X39500000Y10705000D01*
X26070000Y13730000D02*
X24890000Y12550000D01*
X24890000Y9850000D02*
X23960000Y8920000D01*
X24890000Y12550000D02*
X24890000Y9850000D01*
D37*
X19400000Y8205000D02*
X19815000Y7790000D01*
X19400000Y8890000D02*
X19400000Y8205000D01*
D36*
X42990000Y16012500D02*
X42990000Y15000000D01*
D35*
X42980000Y14990000D02*
X41850000Y14990000D01*
D36*
X42990000Y15000000D02*
X42980000Y14990000D01*
D35*
X43000000Y14990000D02*
X42980000Y14990000D01*
D34*
X30000000Y25405000D02*
X29985000Y25390000D01*
X30000000Y26390000D02*
X30000000Y25405000D01*
X26300000Y25090000D02*
X26000000Y25390000D01*
X26515000Y25090000D02*
X26300000Y25090000D01*
X26515000Y23390000D02*
X26000000Y23390000D01*
X25900000Y21290000D02*
X26000000Y21390000D01*
X25000000Y21290000D02*
X25900000Y21290000D01*
X25685000Y22390000D02*
X25385000Y22690000D01*
X26000000Y22390000D02*
X25685000Y22390000D01*
X28000000Y22390000D02*
X28515000Y22390000D01*
D37*
X26985000Y28405000D02*
X27000000Y28390000D01*
X26985000Y29190000D02*
X26985000Y28405000D01*
X24815000Y32575000D02*
X25000000Y32390000D01*
X24815000Y33190000D02*
X24815000Y32575000D01*
X27685000Y32705000D02*
X28000000Y32390000D01*
X27685000Y33190000D02*
X27685000Y32705000D01*
X28615000Y33005000D02*
X28000000Y32390000D01*
X28615000Y33190000D02*
X28615000Y33005000D01*
X25385000Y31390000D02*
X25285000Y31490000D01*
X26000000Y31390000D02*
X25385000Y31390000D01*
X25416218Y30358782D02*
X25285000Y30490000D01*
X28000000Y28905000D02*
X28000000Y28390000D01*
X25800000Y26590000D02*
X26000000Y26390000D01*
X25285000Y26590000D02*
X25800000Y26590000D01*
X25800000Y25590000D02*
X26000000Y25390000D01*
X25285000Y25590000D02*
X25800000Y25590000D01*
X28000000Y21390000D02*
X28000000Y20675000D01*
X26623455Y19675000D02*
X25989999Y20308456D01*
X26700000Y19675000D02*
X26623455Y19675000D01*
X25285000Y30490000D02*
X25750000Y30490000D01*
X26000000Y30740000D02*
X26000000Y31390000D01*
X25750000Y30490000D02*
X26000000Y30740000D01*
X26815000Y30869779D02*
X27187238Y30497541D01*
X26815000Y31190000D02*
X26815000Y30869779D01*
D35*
X17687500Y29577500D02*
X17750000Y29640000D01*
X17750000Y29640000D02*
X18250000Y30140000D01*
X18750000Y29640000D02*
X18250000Y30140000D01*
X15285000Y23310000D02*
X15285000Y22990000D01*
X15500000Y23525000D02*
X15285000Y23310000D01*
X17000000Y26390000D02*
X15500000Y26390000D01*
D36*
X15450000Y26440000D02*
X15500000Y26390000D01*
X14744999Y26440000D02*
X15450000Y26440000D01*
X15450000Y24340000D02*
X14744999Y24340000D01*
X15500000Y24390000D02*
X15450000Y24340000D01*
D35*
X15500000Y26390000D02*
X15500000Y24390000D01*
X15500000Y24390000D02*
X15500000Y23525000D01*
X17000000Y28002500D02*
X17000000Y26390000D01*
D37*
X15285000Y22670000D02*
X15285000Y22990000D01*
X15007990Y22392990D02*
X15285000Y22670000D01*
X10000000Y25675000D02*
X9680000Y25675000D01*
X9680000Y25675000D02*
X9402990Y25397990D01*
X9402990Y25397990D02*
X9402990Y24381662D01*
X9402990Y24381662D02*
X11391662Y22392990D01*
X11391662Y22392990D02*
X15007990Y22392990D01*
D35*
X17750000Y28752500D02*
X17750000Y29640000D01*
X17000000Y28002500D02*
X17750000Y28752500D01*
X18250000Y29140000D02*
X18750000Y29640000D01*
X18000000Y29140000D02*
X18250000Y29140000D01*
D36*
X17000000Y25590000D02*
X17000000Y26390000D01*
D35*
X41887500Y21102500D02*
X41800000Y21190000D01*
D34*
X30100000Y31290000D02*
X30000000Y31390000D01*
X30615000Y31290000D02*
X30100000Y31290000D01*
X30015000Y27375000D02*
X30000000Y27390000D01*
X30900000Y27375000D02*
X30015000Y27375000D01*
X28548870Y26453870D02*
X28485000Y26390000D01*
X28936130Y26453870D02*
X28548870Y26453870D01*
X31000000Y24390000D02*
X30485000Y24390000D01*
X31015000Y24405000D02*
X31000000Y24390000D01*
X31015000Y25390000D02*
X31015000Y24405000D01*
D37*
X31800000Y30190000D02*
X31000000Y29390000D01*
X33100000Y30190000D02*
X31800000Y30190000D01*
X31000000Y28605000D02*
X31015000Y28590000D01*
X31000000Y29390000D02*
X31000000Y28605000D01*
X30715000Y21390000D02*
X30000000Y21390000D01*
X30200000Y23290000D02*
X30100000Y23190000D01*
X30715000Y23290000D02*
X30200000Y23290000D01*
D35*
X41800000Y21390000D02*
X41800000Y20890000D01*
X41400000Y21832320D02*
X41400000Y22390000D01*
X41800000Y21416660D02*
X41807830Y21424490D01*
X41800000Y20890000D02*
X41800000Y21416660D01*
X41807830Y21424490D02*
X41400000Y21832320D01*
X41400000Y21290000D02*
X41250000Y21140000D01*
X41400000Y22390000D02*
X41400000Y21290000D01*
X41550000Y21140000D02*
X41800000Y20890000D01*
X41250000Y21140000D02*
X41550000Y21140000D01*
X44400000Y27770000D02*
X44420000Y27790000D01*
X44420000Y27790000D02*
X44715000Y27790000D01*
X43000000Y24390000D02*
X44400000Y24390000D01*
D36*
X44400000Y26590000D02*
X44550000Y26440000D01*
D35*
X44400000Y24390000D02*
X44400000Y26590000D01*
D36*
X44550000Y26440000D02*
X45275001Y26440000D01*
D35*
X44400000Y26590000D02*
X44400000Y27770000D01*
D36*
X44450000Y24340000D02*
X45275001Y24340000D01*
X44400000Y24390000D02*
X44450000Y24340000D01*
D35*
X43000000Y22890000D02*
X41250000Y21140000D01*
X43000000Y24390000D02*
X43000000Y22890000D01*
X42500000Y22390000D02*
X43000000Y22890000D01*
X41400000Y22390000D02*
X42500000Y22390000D01*
X41800000Y21690000D02*
X41800000Y20890000D01*
X43000000Y22890000D02*
X41800000Y21690000D01*
D37*
X45017010Y28387010D02*
X44400000Y27770000D01*
X49800000Y24905000D02*
X50397010Y25502010D01*
X48419954Y28387010D02*
X45017010Y28387010D01*
X50397010Y25502010D02*
X50397010Y26409954D01*
X50397010Y26409954D02*
X48419954Y28387010D01*
D35*
X30200000Y11190000D02*
X30200000Y12790000D01*
X26100000Y12790000D02*
X27900000Y12790000D01*
X27000000Y12790000D02*
X27000000Y11190000D01*
X29400000Y12790000D02*
X31000000Y12790000D01*
D36*
X8000000Y27890000D02*
X8000000Y27290000D01*
X50987500Y14677500D02*
X51000000Y14690000D01*
X51000000Y14690000D02*
X51800000Y15490000D01*
X53700000Y22390000D02*
X54300000Y22390000D01*
X53100000Y22390000D02*
X53700000Y22390000D01*
X52500000Y22390000D02*
X53100000Y22390000D01*
D35*
X9617910Y20740000D02*
X9850000Y20507910D01*
X9200000Y20740000D02*
X9617910Y20740000D01*
X9932090Y20590000D02*
X9850000Y20507910D01*
X10600000Y20590000D02*
X9932090Y20590000D01*
D36*
X13444999Y26440000D02*
X12795001Y26440000D01*
X12591801Y26440000D02*
X12200000Y26831801D01*
X12795001Y26440000D02*
X12591801Y26440000D01*
X12200000Y26831801D02*
X12200000Y28390000D01*
X46555001Y33034999D02*
X47800000Y31790000D01*
X46555001Y33740000D02*
X46555001Y33034999D01*
X46575001Y23614999D02*
X47800000Y22390000D01*
X46575001Y24340000D02*
X46575001Y23614999D01*
D37*
X13424999Y17765001D02*
X13424999Y17040000D01*
X12200000Y18990000D02*
X13424999Y17765001D01*
D36*
X46555001Y14234999D02*
X47800000Y12990000D01*
X46555001Y14940000D02*
X46555001Y14234999D01*
X10587500Y28390000D02*
X12200000Y28390000D01*
X8000000Y28190000D02*
X8200000Y28390000D01*
X8200000Y28390000D02*
X10587500Y28390000D01*
X8000000Y27890000D02*
X8000000Y28190000D01*
X9850000Y20507910D02*
X11367910Y18990000D01*
X11367910Y18990000D02*
X12200000Y18990000D01*
X49300000Y12990000D02*
X51000000Y14690000D01*
X47800000Y12990000D02*
X49300000Y12990000D01*
X49425000Y22390000D02*
X47800000Y22390000D01*
X52500000Y22390000D02*
X49425000Y22390000D01*
X49412500Y31790000D02*
X47800000Y31790000D01*
X49412500Y31790000D02*
X50450000Y31790000D01*
X50450000Y31790000D02*
X51100000Y32440000D01*
X9150000Y27890000D02*
X8000000Y27890000D01*
D34*
X29793530Y21900510D02*
X31580945Y21900510D01*
X18988250Y13298022D02*
X23530348Y13298022D01*
X29772510Y21879490D02*
X29793530Y21900510D01*
X14460000Y8769772D02*
X18988250Y13298022D01*
X31580945Y21900510D02*
X31988882Y22308447D01*
X27489490Y17257164D02*
X27489490Y21558470D01*
X23530348Y13298022D02*
X27489490Y17257164D01*
X14460000Y6330000D02*
X14460000Y8769772D01*
X27489490Y21558470D02*
X27810510Y21879490D01*
X27810510Y21879490D02*
X29772510Y21879490D01*
X30956691Y16345308D02*
X30307440Y16345308D01*
X26691978Y15381979D02*
X23800000Y12490000D01*
X23800000Y12490000D02*
X19257902Y12490000D01*
X29344111Y15381979D02*
X26691978Y15381979D01*
X15660000Y2590000D02*
X14460000Y3790000D01*
X19257902Y12490000D02*
X18040501Y11272600D01*
X18040501Y2830501D02*
X17800000Y2590000D01*
X30307440Y16345308D02*
X29344111Y15381979D01*
X18040501Y11272600D02*
X18040501Y2830501D01*
X17800000Y2590000D02*
X15660000Y2590000D01*
X31384490Y17781583D02*
X31384490Y18597468D01*
X23694786Y12744011D02*
X26586765Y15635990D01*
X19152688Y12744011D02*
X23694786Y12744011D01*
X29238897Y15635990D02*
X31384490Y17781583D01*
X17000000Y6330000D02*
X17000000Y10591323D01*
X31725001Y19115001D02*
X32000000Y19390000D01*
X31725001Y18937979D02*
X31725001Y19115001D01*
X26586765Y15635990D02*
X29238897Y15635990D01*
X31384490Y18597468D02*
X31725001Y18937979D01*
X17000000Y10591323D02*
X19152688Y12744011D01*
X15959499Y9910047D02*
X19093463Y13044011D01*
X31600000Y19890000D02*
X32500000Y19890000D01*
X23635562Y13044011D02*
X26481551Y15890001D01*
X30300000Y18590000D02*
X30600000Y18890000D01*
X29133683Y15890001D02*
X30300000Y17056318D01*
X30300000Y17056318D02*
X30300000Y18590000D01*
X30600000Y18890000D02*
X31200000Y18890000D01*
X26481551Y15890001D02*
X29133683Y15890001D01*
X32500000Y19890000D02*
X33000000Y20390000D01*
X15959499Y4830501D02*
X15959499Y9910047D01*
X17000000Y3790000D02*
X15959499Y4830501D01*
X19093463Y13044011D02*
X23635562Y13044011D01*
X31310510Y19600510D02*
X31600000Y19890000D01*
X31310510Y19000510D02*
X31310510Y19600510D01*
X31200000Y18890000D02*
X31310510Y19000510D01*
X29495000Y5015000D02*
X29045000Y4565000D01*
X29495000Y5450000D02*
X29495000Y5015000D01*
X29500000Y28890000D02*
X29500000Y28090000D01*
X35303027Y22386973D02*
X35303027Y16645540D01*
X29700000Y27890000D02*
X34447978Y27890000D01*
X35340510Y26997468D02*
X35340510Y25782532D01*
X35340510Y25782532D02*
X34500000Y24942022D01*
X35060967Y15319581D02*
X33815635Y14074249D01*
X34447978Y27890000D02*
X35340510Y26997468D01*
X35060967Y16403480D02*
X35060967Y15319581D01*
X34500000Y24942022D02*
X34500000Y23190000D01*
X34500000Y23190000D02*
X35303027Y22386973D01*
X29500000Y28090000D02*
X29700000Y27890000D01*
X29000000Y29390000D02*
X29500000Y28890000D01*
X33815635Y14074249D02*
X33815635Y13781511D01*
X35303027Y16645540D02*
X35060967Y16403480D01*
X27408490Y13361510D02*
X27040000Y13730000D01*
X31236727Y13361510D02*
X27408490Y13361510D01*
X31598237Y13000000D02*
X31236727Y13361510D01*
X33034124Y13000000D02*
X31598237Y13000000D01*
X33815635Y13781511D02*
X33034124Y13000000D01*
X30008483Y19405000D02*
X29967473Y19446010D01*
X30800000Y19405000D02*
X30008483Y19405000D01*
X34492167Y13806990D02*
X35386488Y13806990D01*
X35386488Y13806990D02*
X35516468Y13677010D01*
X32812455Y13806990D02*
X32411316Y13806990D01*
X34552945Y15547480D02*
X32812455Y13806990D01*
X32000000Y24390000D02*
X33410428Y22979572D01*
X34552945Y16613908D02*
X34552945Y15547480D01*
X33991978Y22979572D02*
X34764521Y22207029D01*
X34764521Y16825483D02*
X34552945Y16613908D01*
X33410428Y22979572D02*
X33991978Y22979572D01*
X34764521Y22207029D02*
X34764521Y16825483D01*
X38070000Y10220000D02*
X39030000Y9260000D01*
X38070000Y11165000D02*
X38070000Y10220000D01*
X50900000Y28390000D02*
X51850000Y29340000D01*
X50500000Y28390000D02*
X50900000Y28390000D01*
X39989490Y23793745D02*
X41662611Y25466866D01*
X39989490Y22067787D02*
X39989490Y23793745D01*
X38918082Y21385287D02*
X39306990Y21385287D01*
X41662611Y25466866D02*
X41662611Y28133921D01*
X39306990Y21385287D02*
X39989490Y22067787D01*
X43350000Y29162978D02*
X43350000Y29440000D01*
X41934490Y27747468D02*
X43350000Y29162978D01*
X41934490Y24954490D02*
X41934490Y27747468D01*
X41800000Y24820000D02*
X41934490Y24954490D01*
X50525850Y23465850D02*
X49826969Y23465850D01*
X50825850Y23465850D02*
X50525850Y23465850D01*
X51650000Y24290000D02*
X50825850Y23465850D01*
X47850000Y25190000D02*
X47850000Y24640000D01*
X47850000Y24640000D02*
X48650000Y23840000D01*
X48650000Y23840000D02*
X49533020Y23840000D01*
X52350000Y26656980D02*
X52350000Y26740000D01*
X49533020Y23840000D02*
X52350000Y26656980D01*
X34241693Y28455510D02*
X35780827Y26916376D01*
X34000000Y28455510D02*
X34241693Y28455510D01*
X35780827Y25635749D02*
X35781905Y25634671D01*
X35780827Y26916376D02*
X35780827Y25635749D01*
D36*
X34200000Y11190000D02*
X35000000Y10390000D01*
X35000000Y10390000D02*
X35000000Y7090000D01*
D34*
X40344521Y16734520D02*
X40089513Y16479512D01*
X37739146Y18287478D02*
X38400000Y18948332D01*
X38400000Y18948332D02*
X38400000Y19590000D01*
X39600000Y20190000D02*
X40344521Y19445479D01*
X40344521Y19445479D02*
X40344521Y16734520D01*
X39000000Y20190000D02*
X39600000Y20190000D01*
X40089513Y16479512D02*
X40089513Y8288656D01*
X42048169Y6330000D02*
X43130000Y6330000D01*
X38400000Y19590000D02*
X39000000Y20190000D01*
X40089513Y8288656D02*
X42048169Y6330000D01*
X40343524Y15743117D02*
X40997378Y16396971D01*
X40343524Y8690695D02*
X40343524Y15743117D01*
X41398227Y7635991D02*
X40343524Y8690695D01*
X44364009Y7635991D02*
X41398227Y7635991D01*
X45670000Y6330000D02*
X44364009Y7635991D01*
X37135365Y23405365D02*
X37135365Y22983989D01*
X37220000Y23490000D02*
X37135365Y23405365D01*
X37515000Y23490000D02*
X37220000Y23490000D01*
X38150000Y24040000D02*
X37750000Y24040000D01*
X38150000Y24540000D02*
X38350000Y24340000D01*
X37650000Y24540000D02*
X38150000Y24540000D01*
X37500000Y24840000D02*
X37500000Y24690000D01*
X37674203Y25014203D02*
X37500000Y24840000D01*
X38350000Y25490000D02*
X38350000Y25290000D01*
X37750000Y24040000D02*
X37515000Y23810000D01*
X38100000Y25740000D02*
X38350000Y25490000D01*
X20490000Y46000000D02*
X20490000Y43700000D01*
X38074203Y25014203D02*
X37674203Y25014203D01*
X20490000Y43700000D02*
X22200000Y41990000D01*
X37500000Y24690000D02*
X37650000Y24540000D01*
X26100000Y41990000D02*
X31500000Y36590000D01*
X31500000Y36590000D02*
X31500000Y33412978D01*
X37515000Y23810000D02*
X37515000Y23490000D01*
X31500000Y33412978D02*
X34100000Y30812978D01*
X22200000Y41990000D02*
X26100000Y41990000D01*
X38606043Y28166558D02*
X38100000Y27640000D01*
X38350000Y24340000D02*
X38350000Y24240000D01*
X34100000Y30812978D02*
X34100000Y29190000D01*
X34100000Y29190000D02*
X34500000Y28790000D01*
X34500000Y28790000D02*
X38200000Y28790000D01*
X38350000Y24240000D02*
X38150000Y24040000D01*
X38350000Y25290000D02*
X38074203Y25014203D01*
X38200000Y28790000D02*
X38606043Y28383957D01*
X38606043Y28383957D02*
X38606043Y28166558D01*
X38100000Y27640000D02*
X38100000Y25740000D01*
X40244012Y24407490D02*
X39500000Y23663478D01*
X34400000Y29290000D02*
X34600000Y29090000D01*
X31800000Y33490000D02*
X34400000Y30890000D01*
X39500000Y22274008D02*
X39137896Y21911904D01*
X34400000Y30890000D02*
X34400000Y29290000D01*
X34600000Y29090000D02*
X38400000Y29090000D01*
X38400000Y29090000D02*
X40455503Y27034497D01*
X38521904Y21911904D02*
X38000000Y21390000D01*
X31800000Y36690000D02*
X31800000Y33490000D01*
X39500000Y23663478D02*
X39500000Y22274008D01*
X40244012Y26036610D02*
X40244012Y24407490D01*
X40455503Y27034497D02*
X40455503Y26248101D01*
X22900000Y42390000D02*
X26100000Y42390000D01*
X22490000Y42800000D02*
X22900000Y42390000D01*
X22490000Y46000000D02*
X22490000Y42800000D01*
X26100000Y42390000D02*
X31800000Y36690000D01*
X40455503Y26248101D02*
X40244012Y26036610D01*
X39137896Y21911904D02*
X38521904Y21911904D01*
X38485000Y23490000D02*
X38485000Y22821742D01*
X38485000Y22821742D02*
X38929337Y22377405D01*
X29382503Y14609513D02*
X28600000Y13827010D01*
X33489490Y15202475D02*
X32896528Y14609513D01*
X32896528Y14609513D02*
X29382503Y14609513D01*
X32989999Y22308456D02*
X33489490Y21808965D01*
X33489490Y21808965D02*
X33489490Y15202475D01*
X34510510Y16930697D02*
X34298934Y16719122D01*
X30028492Y14355502D02*
X29500000Y13827010D01*
X34298934Y16719122D02*
X34298934Y15652693D01*
X33001743Y14355502D02*
X30028492Y14355502D01*
X34298934Y15652693D02*
X33001743Y14355502D01*
X34510510Y21787945D02*
X34510510Y16930697D01*
X33989999Y22308456D02*
X34510510Y21787945D01*
X33274999Y24115001D02*
X33274999Y24055777D01*
X32135713Y13341489D02*
X31670212Y13806990D01*
X34806956Y16508694D02*
X34806956Y15442266D01*
X35027288Y16729025D02*
X34806956Y16508694D01*
X33000000Y24390000D02*
X33274999Y24115001D01*
X32706179Y13341489D02*
X32135713Y13341489D01*
X33274999Y24055777D02*
X35027289Y22303487D01*
X34806956Y15442266D02*
X32706179Y13341489D01*
X35027289Y22303487D02*
X35027288Y16729025D01*
X36200000Y20475000D02*
X36057807Y20475000D01*
X36057807Y20475000D02*
X36020442Y20437635D01*
X35823876Y18362847D02*
X36098875Y18637846D01*
X29110772Y7607870D02*
X31640501Y10137599D01*
X35991978Y13372035D02*
X35991978Y17214567D01*
X35991978Y17214567D02*
X35823876Y17382669D01*
X24076776Y7607870D02*
X29110772Y7607870D01*
X35823876Y17382669D02*
X35823876Y18362847D01*
X31640501Y10137599D02*
X31640501Y11520501D01*
X31640501Y11520501D02*
X32690000Y12570000D01*
X35189943Y12570000D02*
X35991978Y13372035D01*
X32690000Y12570000D02*
X35189943Y12570000D01*
X36350771Y18246377D02*
X36245991Y18141597D01*
X36245991Y18141597D02*
X36245991Y13266823D01*
X36245991Y13266823D02*
X35295157Y12315989D01*
X35295157Y12315989D02*
X32833087Y12315989D01*
X31894512Y11377414D02*
X31894512Y9984512D01*
X37000000Y18390000D02*
X36856377Y18246377D01*
X36856377Y18246377D02*
X36350771Y18246377D01*
X23900000Y7090000D02*
X23400000Y7590000D01*
X32833087Y12315989D02*
X31894512Y11377414D01*
X31894512Y9984512D02*
X29000000Y7090000D01*
X29000000Y7090000D02*
X23900000Y7090000D01*
X36200000Y19505000D02*
X36882548Y19505000D01*
X36882548Y19505000D02*
X37009806Y19377742D01*
D36*
X23000000Y8353367D02*
X22499623Y7852990D01*
X23000000Y11190000D02*
X23000000Y8353367D01*
X9900000Y43090000D02*
X8791848Y41981848D01*
X8791848Y41981848D02*
X8791848Y40720802D01*
D34*
X13907600Y38247600D02*
X13800000Y38140000D01*
X21038500Y38247600D02*
X13907600Y38247600D01*
X21250000Y38036100D02*
X21038500Y38247600D01*
X15183992Y38903964D02*
X15221402Y38927470D01*
X15152750Y38872722D02*
X15183992Y38903964D01*
X15529244Y38664097D02*
X15552750Y38626687D01*
X15707010Y38552400D02*
X21038500Y38552400D01*
X15114651Y38793609D02*
X15129244Y38835312D01*
X15263105Y38942063D02*
X15307010Y38947010D01*
X21038500Y38552400D02*
X21250000Y38763900D01*
X15035417Y38595445D02*
X15066659Y38626687D01*
X15583992Y38595445D02*
X15621402Y38571939D01*
X15129244Y38835312D02*
X15152750Y38872722D01*
X15090165Y38664097D02*
X15104758Y38705800D01*
X15398007Y38927470D02*
X15435417Y38903964D01*
X15552750Y38626687D02*
X15583992Y38595445D01*
X14998007Y38571939D02*
X15035417Y38595445D01*
X15490165Y38835312D02*
X15504758Y38793609D01*
X14912400Y38552400D02*
X14956304Y38557346D01*
X15621402Y38571939D02*
X15663105Y38557346D01*
X13800000Y38640000D02*
X13887600Y38552400D01*
X15066659Y38626687D02*
X15090165Y38664097D01*
X14956304Y38557346D02*
X14998007Y38571939D01*
X15221402Y38927470D02*
X15263105Y38942063D01*
X15307010Y38947010D02*
X15312400Y38947010D01*
X15466659Y38872722D02*
X15490165Y38835312D01*
X15312400Y38947010D02*
X15356304Y38942063D01*
X15356304Y38942063D02*
X15398007Y38927470D01*
X15504758Y38793609D02*
X15514651Y38705800D01*
X15435417Y38903964D02*
X15466659Y38872722D01*
X15104758Y38705800D02*
X15114651Y38793609D01*
X15514651Y38705800D02*
X15529244Y38664097D01*
X13887600Y38552400D02*
X14912400Y38552400D01*
X15663105Y38557346D02*
X15707010Y38552400D01*
D37*
X11565000Y24340000D02*
X11200000Y24705000D01*
X12795001Y24340000D02*
X11565000Y24340000D01*
D34*
X22885000Y21275000D02*
X23000000Y21390000D01*
X23300000Y21690000D02*
X23000000Y21390000D01*
X23300000Y22205000D02*
X23300000Y21690000D01*
D36*
X6600000Y6990000D02*
X6600000Y6590000D01*
D37*
X21785000Y18175000D02*
X22000000Y18390000D01*
X21000000Y18175000D02*
X21785000Y18175000D01*
X25963994Y16390000D02*
X25979690Y16405696D01*
X25085000Y16390000D02*
X25963994Y16390000D01*
X19900000Y21490000D02*
X21000000Y20390000D01*
X19100000Y21490000D02*
X19900000Y21490000D01*
X22000000Y16105000D02*
X22000000Y15390000D01*
D35*
X20825000Y20390000D02*
X20928010Y20390000D01*
X19100000Y21490000D02*
X19725000Y21490000D01*
X19725000Y21490000D02*
X20825000Y20390000D01*
D37*
X23000000Y18390000D02*
X23000000Y17625000D01*
X21750000Y19640000D02*
X21000000Y20390000D01*
X22015000Y19640000D02*
X21750000Y19640000D01*
D35*
X22000000Y14290000D02*
X22000000Y15390000D01*
D38*
X5796093Y20986093D02*
X5796093Y16186093D01*
D36*
X6600000Y6365000D02*
X5750000Y5515000D01*
X6600000Y6990000D02*
X6600000Y6365000D01*
X5750000Y5515000D02*
X5750000Y4740000D01*
X5750000Y4740000D02*
X5800000Y4690000D01*
D38*
X15300000Y21190000D02*
X11800000Y21190000D01*
D35*
X11800000Y21190000D02*
X11400000Y21190000D01*
X11400000Y21190000D02*
X10800000Y21790000D01*
X10800000Y21790000D02*
X10400000Y21790000D01*
D38*
X10400000Y21790000D02*
X10200000Y21790000D01*
X10200000Y21790000D02*
X10000000Y21990000D01*
X10000000Y21990000D02*
X6800000Y21990000D01*
X6800000Y21990000D02*
X5796093Y20986093D01*
D35*
X20575000Y13990000D02*
X21519153Y13990000D01*
X21519153Y13990000D02*
X21607910Y13901243D01*
X21611243Y13901243D02*
X21607910Y13901243D01*
X22000000Y14290000D02*
X21611243Y13901243D01*
D34*
X33115000Y34505000D02*
X33000000Y34390000D01*
X33115000Y35190000D02*
X33115000Y34505000D01*
X35000000Y34705000D02*
X35015000Y34690000D01*
X35000000Y35390000D02*
X35000000Y34705000D01*
X39285000Y31390000D02*
X40000000Y31390000D01*
X39200000Y33190000D02*
X39000000Y33390000D01*
X39715000Y33190000D02*
X39200000Y33190000D01*
X35100000Y35490000D02*
X35000000Y35390000D01*
X35100000Y36790000D02*
X35100000Y35490000D01*
D38*
X54544399Y24514287D02*
X54544399Y38345601D01*
X56170000Y24110000D02*
X54948686Y24110000D01*
X54948686Y24110000D02*
X54544399Y24514287D01*
X53600000Y39290000D02*
X53600000Y40990000D01*
X54544399Y38345601D02*
X53600000Y39290000D01*
D34*
X34715000Y32870000D02*
X34299916Y32454916D01*
X34715000Y33190000D02*
X34715000Y32870000D01*
X34299916Y32454916D02*
X33979470Y32454916D01*
D38*
X53600000Y39290000D02*
X52350000Y39290000D01*
X52350000Y39290000D02*
X50500000Y41140000D01*
X50500000Y41140000D02*
X50500000Y43640000D01*
X50500000Y43640000D02*
X50550000Y43640000D01*
X51200000Y43640000D02*
X50500000Y43640000D01*
D35*
X44420000Y37190000D02*
X44715000Y37190000D01*
X44400000Y37170000D02*
X44420000Y37190000D01*
X43000000Y33790000D02*
X44400000Y33790000D01*
D36*
X44450000Y35840000D02*
X45255001Y35840000D01*
X44400000Y35890000D02*
X44450000Y35840000D01*
D35*
X44400000Y33790000D02*
X44400000Y35890000D01*
X44400000Y35890000D02*
X44400000Y37170000D01*
D36*
X44450000Y33740000D02*
X45255001Y33740000D01*
X44400000Y33790000D02*
X44450000Y33740000D01*
D37*
X50397010Y35598338D02*
X48208338Y37787010D01*
X50359489Y34931044D02*
X50397010Y34968565D01*
X50359489Y34864489D02*
X50359489Y34931044D01*
X50397010Y34968565D02*
X50397010Y35598338D01*
X44992010Y37787010D02*
X44715000Y37510000D01*
X49800000Y34305000D02*
X50359489Y34864489D01*
X44715000Y37510000D02*
X44715000Y37190000D01*
X48208338Y37787010D02*
X44992010Y37787010D01*
D36*
X43000000Y31990000D02*
X42100000Y31090000D01*
X43000000Y33790000D02*
X43000000Y31990000D01*
X42100000Y31090000D02*
X41700000Y31490000D01*
X41700000Y31490000D02*
X41700000Y30790000D01*
X41800000Y30790000D02*
X42100000Y31090000D01*
X41700000Y30790000D02*
X41800000Y30790000D01*
D34*
X36715000Y32870000D02*
X36715000Y33190000D01*
X36404521Y32559521D02*
X36715000Y32870000D01*
X36050000Y32490000D02*
X36404521Y32559521D01*
X11050000Y40340000D02*
X11050000Y39390000D01*
X39990001Y25433859D02*
X39990001Y26471543D01*
X39007558Y24451416D02*
X39990001Y25433859D01*
X10800000Y40590000D02*
X11050000Y40340000D01*
X10800000Y41105000D02*
X10800000Y40590000D01*
X10289490Y41295510D02*
X10480000Y41105000D01*
X10289490Y42479490D02*
X10289490Y41295510D01*
X10480000Y41105000D02*
X10800000Y41105000D01*
X10700000Y42890000D02*
X10289490Y42479490D01*
X10700000Y43090000D02*
X10700000Y42890000D01*
X11500000Y43890000D02*
X10700000Y43090000D01*
X11550000Y40560000D02*
X11550000Y39390000D01*
X11800000Y40810000D02*
X11550000Y40560000D01*
X11800000Y41105000D02*
X11800000Y40810000D01*
X12500000Y48890000D02*
X12500000Y42890000D01*
X12500000Y42890000D02*
X12900000Y42490000D01*
D37*
X13167989Y23808990D02*
X13444999Y24086000D01*
X10801010Y23808990D02*
X13167989Y23808990D01*
X13444999Y24086000D02*
X13444999Y24340000D01*
X10000000Y24705000D02*
X10000000Y24610000D01*
X10000000Y24610000D02*
X10801010Y23808990D01*
D34*
X22520501Y49910501D02*
X53279499Y49910501D01*
X20181522Y49508478D02*
X22118478Y49508478D01*
X10510510Y25215510D02*
X10510510Y25962510D01*
X4250070Y48390000D02*
X6024582Y50164512D01*
X19525488Y50164512D02*
X20181522Y49508478D01*
X6024582Y50164512D02*
X19525488Y50164512D01*
X53279499Y49910501D02*
X54988112Y48201888D01*
X4315969Y25595899D02*
X2994101Y25595899D01*
X4880580Y26160510D02*
X4315969Y25595899D01*
X54988112Y48201888D02*
X57088112Y48201888D01*
X57088112Y48201888D02*
X57224101Y48065899D01*
X57224101Y23390000D02*
X56834449Y23000348D01*
X57224101Y48065899D02*
X57224101Y23390000D01*
X49089652Y23000348D02*
X47750000Y24340000D01*
X56834449Y23000348D02*
X49089652Y23000348D01*
X2400000Y26190000D02*
X2400000Y48090000D01*
X47750000Y24340000D02*
X47224999Y24340000D01*
X22118478Y49508478D02*
X22520501Y49910501D01*
X2700000Y48390000D02*
X4250070Y48390000D01*
X2400000Y48090000D02*
X2700000Y48390000D01*
X2994101Y25595899D02*
X2400000Y26190000D01*
X10510510Y25962510D02*
X10312510Y26160510D01*
X10312510Y26160510D02*
X4880580Y26160510D01*
X10000000Y24705000D02*
X10510510Y25215510D01*
D37*
X13285000Y22990000D02*
X14315000Y22990000D01*
X14095001Y23209999D02*
X14315000Y22990000D01*
X14095001Y24340000D02*
X14095001Y23209999D01*
X47769999Y35275000D02*
X47204999Y35840000D01*
X48800000Y35275000D02*
X47769999Y35275000D01*
D34*
X28000000Y34605000D02*
X28215000Y34390000D01*
D35*
X18800000Y34390000D02*
X22000000Y34390000D01*
D37*
X30339495Y34405000D02*
X30700000Y34405000D01*
X29506294Y35238201D02*
X30339495Y34405000D01*
X28215000Y34390000D02*
X27000000Y34390000D01*
X24989999Y34315001D02*
X24400000Y34905000D01*
X24989999Y34308456D02*
X24989999Y34315001D01*
X22715000Y33675000D02*
X22715000Y33390000D01*
X22000000Y34390000D02*
X22715000Y33675000D01*
D34*
X18800000Y34855000D02*
X18800000Y34390000D01*
X18635000Y35020000D02*
X18800000Y34855000D01*
X18635000Y35340000D02*
X18635000Y35020000D01*
D35*
X18391156Y34390000D02*
X18800000Y34390000D01*
X17485000Y33483844D02*
X18391156Y34390000D01*
X16877032Y32505000D02*
X16600000Y32505000D01*
X17485000Y33112968D02*
X16877032Y32505000D01*
X17485000Y33483844D02*
X17485000Y33112968D01*
X15735000Y31640000D02*
X14900000Y31640000D01*
X16600000Y32505000D02*
X15735000Y31640000D01*
D37*
X47789999Y25875000D02*
X47224999Y26440000D01*
X48800000Y25875000D02*
X47789999Y25875000D01*
X12775001Y14940000D02*
X12735000Y14940000D01*
X11765000Y14940000D02*
X11200000Y15505000D01*
X12775001Y14940000D02*
X11765000Y14940000D01*
X47769999Y16475000D02*
X47204999Y17040000D01*
X48800000Y16475000D02*
X47769999Y16475000D01*
X46715000Y37190000D02*
X45685000Y37190000D01*
X45904999Y36970001D02*
X45904999Y35840000D01*
X45685000Y37190000D02*
X45904999Y36970001D01*
X48998990Y26971010D02*
X48381010Y26971010D01*
X46575001Y26694000D02*
X46575001Y26440000D01*
X46852011Y26971010D02*
X46575001Y26694000D01*
X49800000Y26170000D02*
X48998990Y26971010D01*
X49800000Y25875000D02*
X49800000Y26170000D01*
D34*
X47254999Y33690000D02*
X47204999Y33740000D01*
X47700000Y33690000D02*
X47254999Y33690000D01*
D37*
X48381010Y26971010D02*
X46852011Y26971010D01*
D34*
X53766540Y16090000D02*
X54486474Y15370066D01*
X50450000Y14940000D02*
X51600000Y16090000D01*
X51600000Y16090000D02*
X53766540Y16090000D01*
X47204999Y14940000D02*
X50450000Y14940000D01*
X12571801Y17040000D02*
X12775001Y17040000D01*
X12221801Y17390000D02*
X12571801Y17040000D01*
X2402177Y15987823D02*
X3250000Y15140000D01*
X2402177Y18009611D02*
X2402177Y15987823D01*
X9750000Y17390000D02*
X12221801Y17390000D01*
X3250000Y15140000D02*
X7500000Y15140000D01*
X7500000Y15140000D02*
X9750000Y17390000D01*
D37*
X46715000Y27790000D02*
X45685000Y27790000D01*
X45924999Y27550001D02*
X45924999Y26440000D01*
X45685000Y27790000D02*
X45924999Y27550001D01*
X11001010Y14408990D02*
X10200000Y15210000D01*
X13147989Y14408990D02*
X11001010Y14408990D01*
X13424999Y14686000D02*
X13147989Y14408990D01*
X10200000Y15210000D02*
X10200000Y15505000D01*
X13424999Y14940000D02*
X13424999Y14686000D01*
X14075001Y13829999D02*
X14315000Y13590000D01*
X14075001Y14940000D02*
X14075001Y13829999D01*
X14315000Y13590000D02*
X13285000Y13590000D01*
X46715000Y18390000D02*
X45685000Y18390000D01*
X45904999Y18170001D02*
X45904999Y17040000D01*
X45685000Y18390000D02*
X45904999Y18170001D01*
X8300000Y37640000D02*
X7850000Y38090000D01*
X9800000Y37640000D02*
X8300000Y37640000D01*
X6150000Y35990000D02*
X6150000Y35890000D01*
X8875000Y36890000D02*
X7050000Y36890000D01*
X7050000Y36890000D02*
X6150000Y35990000D01*
X9125000Y37140000D02*
X8875000Y36890000D01*
X9800000Y37140000D02*
X9125000Y37140000D01*
D34*
X37000000Y15755000D02*
X36835000Y15590000D01*
X37000000Y16390000D02*
X37000000Y15755000D01*
X13897600Y36737600D02*
X13800000Y36640000D01*
X15511500Y36737600D02*
X13897600Y36737600D01*
X16513900Y37740000D02*
X15511500Y36737600D01*
X38000000Y15785000D02*
X37805000Y15590000D01*
X38000000Y16390000D02*
X38000000Y15785000D01*
X13897600Y37042400D02*
X13800000Y37140000D01*
X15385247Y37042400D02*
X13897600Y37042400D01*
X15786100Y37443253D02*
X15385247Y37042400D01*
X15786100Y37740000D02*
X15786100Y37443253D01*
X52115502Y34574498D02*
X43850000Y42840000D01*
X43850000Y42840000D02*
X43850000Y44988528D01*
X42838528Y46000000D02*
X41990000Y46000000D01*
X43850000Y44988528D02*
X42838528Y46000000D01*
X52115502Y32216558D02*
X52115502Y34574498D01*
X50279445Y30380501D02*
X52115502Y32216558D01*
X42072591Y30380501D02*
X50279445Y30380501D01*
X41700000Y30007910D02*
X42072591Y30380501D01*
X36034838Y26040069D02*
X36300000Y25774907D01*
X36034838Y27423167D02*
X36034838Y26040069D01*
X36300000Y25774907D02*
X36300000Y24690000D01*
X36000000Y24390000D02*
X35000000Y24390000D01*
X36300000Y24690000D02*
X36000000Y24390000D01*
X49274525Y28772090D02*
X48885617Y28772090D01*
X45350000Y42840000D02*
X52369513Y35820487D01*
X41350000Y48390000D02*
X45350000Y44390000D01*
X38700000Y48390000D02*
X41350000Y48390000D01*
X45350000Y44390000D02*
X45350000Y42840000D01*
X52369513Y35820487D02*
X52369513Y31867078D01*
X52369513Y31867078D02*
X49274525Y28772090D01*
X41122316Y27109353D02*
X41122316Y28455990D01*
X41122316Y28455990D02*
X41087379Y28490927D01*
D37*
X49800000Y35570000D02*
X49800000Y35275000D01*
X46832011Y36371010D02*
X48998990Y36371010D01*
X48998990Y36371010D02*
X49800000Y35570000D01*
X46555001Y36094000D02*
X46832011Y36371010D01*
X46555001Y35840000D02*
X46555001Y36094000D01*
D34*
X40777821Y19890000D02*
X40752812Y19915009D01*
X41915000Y19890000D02*
X40777821Y19890000D01*
D37*
X46832011Y17571010D02*
X46555001Y17294000D01*
X46555001Y17294000D02*
X46555001Y17040000D01*
X48381010Y17571010D02*
X46832011Y17571010D01*
D34*
X57478111Y18418817D02*
X56649294Y17590000D01*
X21792617Y50248987D02*
X53870943Y50248987D01*
X53870943Y50248987D02*
X55664031Y48455899D01*
X57478112Y48311888D02*
X57478111Y18418817D01*
X55664031Y48455899D02*
X57334101Y48455899D01*
X56649294Y17590000D02*
X51300000Y17590000D01*
X21517618Y49973988D02*
X21792617Y50248987D01*
X57334101Y48455899D02*
X57478112Y48311888D01*
D37*
X49800000Y16475000D02*
X49800000Y16540928D01*
X49800000Y16540928D02*
X48769918Y17571010D01*
X48769918Y17571010D02*
X48381010Y17571010D01*
D34*
X3431930Y33088000D02*
X2755899Y33764031D01*
X2793999Y48024101D02*
X5834101Y48024101D01*
X5834101Y48024101D02*
X7720501Y49910501D01*
X17599598Y49910501D02*
X17811092Y49699007D01*
X7720501Y49910501D02*
X17599598Y49910501D01*
X12043000Y33540000D02*
X11591000Y33088000D01*
X12700000Y33540000D02*
X12043000Y33540000D01*
X2755899Y47986001D02*
X2793999Y48024101D01*
X2755899Y33764031D02*
X2755899Y47986001D01*
X17811092Y49699007D02*
X18200000Y49699007D01*
X11591000Y33088000D02*
X3431930Y33088000D01*
X17500000Y35175000D02*
X17665000Y35340000D01*
X17500000Y34640000D02*
X17500000Y35175000D01*
X16500000Y24640000D02*
X19500000Y24640000D01*
X22000000Y26390000D02*
X21250000Y26390000D01*
X21250000Y26390000D02*
X19500000Y24640000D01*
D35*
X17000000Y18602500D02*
X17000000Y16990000D01*
X15285000Y13910000D02*
X15285000Y13590000D01*
X15500000Y14125000D02*
X15285000Y13910000D01*
X17000000Y16990000D02*
X15500000Y16990000D01*
D36*
X15450000Y17040000D02*
X15500000Y16990000D01*
X14724999Y17040000D02*
X15450000Y17040000D01*
X15500000Y14990000D02*
X15450000Y14940000D01*
D35*
X15500000Y16990000D02*
X15500000Y14990000D01*
D36*
X15450000Y14940000D02*
X14724999Y14940000D01*
D35*
X15500000Y14990000D02*
X15500000Y14125000D01*
D37*
X10200000Y16475000D02*
X9880000Y16475000D01*
X10780046Y12992990D02*
X15007990Y12992990D01*
X9602990Y14170046D02*
X10780046Y12992990D01*
X15285000Y13270000D02*
X15285000Y13590000D01*
X15007990Y12992990D02*
X15285000Y13270000D01*
X9602990Y16197990D02*
X9602990Y14170046D01*
X9880000Y16475000D02*
X9602990Y16197990D01*
D35*
X15750000Y11890000D02*
X15285000Y12355000D01*
X15285000Y12355000D02*
X15285000Y13590000D01*
X16771990Y11890000D02*
X15750000Y11890000D01*
X19000000Y13990000D02*
X18871990Y13990000D01*
X18871990Y13990000D02*
X16771990Y11890000D01*
D34*
X20515000Y33390000D02*
X20000000Y33390000D01*
X22485000Y25390000D02*
X23000000Y25390000D01*
D35*
X17000000Y20177500D02*
X17000000Y21590000D01*
X17000000Y21590000D02*
X17000000Y22090000D01*
D34*
X20071544Y32390000D02*
X19990001Y32308457D01*
X20515000Y32390000D02*
X20071544Y32390000D01*
D36*
X6400000Y43990000D02*
X6400000Y44762238D01*
X6400000Y44762238D02*
X5877999Y45284239D01*
X16025176Y30027010D02*
X16644083Y30645917D01*
X14937010Y30027010D02*
X16025176Y30027010D01*
D37*
X21485000Y27390000D02*
X22000000Y27390000D01*
D36*
X23107251Y28893841D02*
X24170719Y28893841D01*
X22900000Y30090000D02*
X22900000Y29101092D01*
D34*
X24170719Y28780719D02*
X24170719Y28893841D01*
D36*
X22900000Y29101092D02*
X23107251Y28893841D01*
D34*
X23485000Y28390000D02*
X23780000Y28390000D01*
X23780000Y28390000D02*
X24170719Y28780719D01*
D35*
X17250000Y22140000D02*
X17500000Y22390000D01*
X17000000Y22140000D02*
X17250000Y22140000D01*
X17500000Y22090000D02*
X17000000Y21590000D01*
X17500000Y22390000D02*
X17500000Y22090000D01*
D36*
X16025176Y30027010D02*
X16025176Y29098467D01*
X16025176Y29098467D02*
X16284498Y28839145D01*
D38*
X13002238Y30427002D02*
X15350008Y30427002D01*
X7187010Y30027010D02*
X12602246Y30027010D01*
X15350008Y30427002D02*
X15750000Y30027010D01*
X12602246Y30027010D02*
X13002238Y30427002D01*
X3810000Y26650000D02*
X7187010Y30027010D01*
D37*
X20515000Y23390000D02*
X19549898Y23390000D01*
X19549898Y23390000D02*
X19104115Y23835783D01*
X49285000Y7390000D02*
X49595276Y7390000D01*
X49595276Y7390000D02*
X49797638Y7187638D01*
D34*
X25084499Y3974499D02*
X24700000Y3590000D01*
X37084499Y3974499D02*
X25084499Y3974499D01*
X39939514Y6829514D02*
X37084499Y3974499D01*
X39835502Y8183442D02*
X39939514Y8079430D01*
X40090510Y19340265D02*
X40090510Y16839734D01*
X38906892Y19391319D02*
X39181891Y19666318D01*
X39181891Y19666318D02*
X39764458Y19666318D01*
X39835502Y16584726D02*
X39835502Y8183442D01*
X40090510Y16839734D02*
X39835502Y16584726D01*
X39764458Y19666318D02*
X40090510Y19340265D01*
X39939514Y8079430D02*
X39939514Y6829514D01*
X32457053Y39647053D02*
X32657053Y39647053D01*
X31000000Y38190000D02*
X32457053Y39647053D01*
X31957053Y40247053D02*
X31957053Y40347053D01*
X30500000Y38790000D02*
X31957053Y40247053D01*
X25761500Y40083227D02*
X25550000Y40294727D01*
X26826860Y40294727D02*
X26615360Y40083227D01*
X26615360Y40083227D02*
X25761500Y40083227D01*
X26615360Y39778427D02*
X25761500Y39778427D01*
X26826860Y39566927D02*
X26615360Y39778427D01*
X25761500Y39778427D02*
X25550000Y39566927D01*
X33342947Y40332947D02*
X33342947Y40817420D01*
X38337600Y46847600D02*
X37490000Y46000000D01*
X38068872Y47335600D02*
X38337600Y47066872D01*
X38337600Y47066872D02*
X38337600Y46847600D01*
X34639128Y47335600D02*
X38068872Y47335600D01*
X33458400Y46154872D02*
X34639128Y47335600D01*
X33458400Y40932873D02*
X33458400Y46154872D01*
X33342947Y40817420D02*
X33458400Y40932873D01*
X33127420Y41032947D02*
X33153600Y41059127D01*
X38642400Y47193128D02*
X38642400Y46847600D01*
X38195128Y47640400D02*
X38642400Y47193128D01*
X38642400Y46847600D02*
X39490000Y46000000D01*
X34512872Y47640400D02*
X38195128Y47640400D01*
X33153600Y46281128D02*
X34512872Y47640400D01*
X33153600Y41059127D02*
X33153600Y46281128D01*
X32642947Y41032947D02*
X33127420Y41032947D01*
D35*
X14920000Y48000000D02*
X28060000Y48000000D01*
D36*
X13400000Y44475000D02*
X14700000Y44475000D01*
X14920000Y44695000D02*
X14700000Y44475000D01*
X14920000Y48000000D02*
X14920000Y44695000D01*
X33350000Y49440000D02*
X43620000Y49440000D01*
X31920000Y48000000D02*
X31920000Y48010000D01*
X43620000Y49440000D02*
X45060000Y48000000D01*
X31920000Y48010000D02*
X33350000Y49440000D01*
X45060000Y48000000D02*
X46700000Y46360000D01*
X46700000Y46360000D02*
X46700000Y44375000D01*
X47900000Y44375000D02*
X46700000Y44375000D01*
M02*
