G04 #@! TF.GenerationSoftware,KiCad,Pcbnew,5.1.7-a382d34a8~88~ubuntu20.04.1*
G04 #@! TF.CreationDate,2020-12-11T06:35:14-08:00*
G04 #@! TF.ProjectId,artix7-pcie-v2,61727469-7837-42d7-9063-69652d76322e,rev?*
G04 #@! TF.SameCoordinates,PX69f4060PY6b00940*
G04 #@! TF.FileFunction,Soldermask,Top*
G04 #@! TF.FilePolarity,Negative*
%FSLAX46Y46*%
G04 Gerber Fmt 4.6, Leading zero omitted, Abs format (unit mm)*
G04 Created by KiCad (PCBNEW 5.1.7-a382d34a8~88~ubuntu20.04.1) date 2020-12-11 06:35:14*
%MOMM*%
%LPD*%
G01*
G04 APERTURE LIST*
%ADD10C,1.448000*%
%ADD11R,1.050000X0.650000*%
%ADD12C,3.000000*%
%ADD13C,1.200000*%
%ADD14C,4.700000*%
%ADD15R,1.100000X1.100000*%
%ADD16R,0.400000X2.650000*%
%ADD17C,0.550000*%
%ADD18O,1.500000X2.200000*%
%ADD19C,0.600000*%
%ADD20C,2.000000*%
%ADD21O,1.700000X1.700000*%
%ADD22R,1.700000X1.700000*%
%ADD23R,0.750000X0.850000*%
%ADD24C,1.500000*%
%ADD25O,1.727200X1.727200*%
%ADD26R,1.727200X1.727200*%
G04 APERTURE END LIST*
D10*
X47900000Y1200000D03*
X17189700Y49139000D03*
X11900000Y1200000D03*
G36*
G01*
X48609000Y7691500D02*
X48609000Y8036500D01*
G75*
G02*
X48756500Y8184000I147500J0D01*
G01*
X49051500Y8184000D01*
G75*
G02*
X49199000Y8036500I0J-147500D01*
G01*
X49199000Y7691500D01*
G75*
G02*
X49051500Y7544000I-147500J0D01*
G01*
X48756500Y7544000D01*
G75*
G02*
X48609000Y7691500I0J147500D01*
G01*
G37*
G36*
G01*
X47639000Y7691500D02*
X47639000Y8036500D01*
G75*
G02*
X47786500Y8184000I147500J0D01*
G01*
X48081500Y8184000D01*
G75*
G02*
X48229000Y8036500I0J-147500D01*
G01*
X48229000Y7691500D01*
G75*
G02*
X48081500Y7544000I-147500J0D01*
G01*
X47786500Y7544000D01*
G75*
G02*
X47639000Y7691500I0J147500D01*
G01*
G37*
G36*
G01*
X48609000Y6675500D02*
X48609000Y7020500D01*
G75*
G02*
X48756500Y7168000I147500J0D01*
G01*
X49051500Y7168000D01*
G75*
G02*
X49199000Y7020500I0J-147500D01*
G01*
X49199000Y6675500D01*
G75*
G02*
X49051500Y6528000I-147500J0D01*
G01*
X48756500Y6528000D01*
G75*
G02*
X48609000Y6675500I0J147500D01*
G01*
G37*
G36*
G01*
X47639000Y6675500D02*
X47639000Y7020500D01*
G75*
G02*
X47786500Y7168000I147500J0D01*
G01*
X48081500Y7168000D01*
G75*
G02*
X48229000Y7020500I0J-147500D01*
G01*
X48229000Y6675500D01*
G75*
G02*
X48081500Y6528000I-147500J0D01*
G01*
X47786500Y6528000D01*
G75*
G02*
X47639000Y6675500I0J147500D01*
G01*
G37*
D11*
X38040000Y2875000D03*
X38065000Y5025000D03*
X33915000Y2875000D03*
X33915000Y5025000D03*
X38050000Y7125000D03*
X38075000Y9275000D03*
X33925000Y7125000D03*
X33925000Y9275000D03*
D12*
X31920000Y48000000D03*
X45060000Y48000000D03*
D13*
X42490000Y44500000D03*
X40490000Y44500000D03*
X38490000Y44500000D03*
X36490000Y44500000D03*
X34490000Y44500000D03*
X34990000Y46000000D03*
X37490000Y46000000D03*
X39490000Y46000000D03*
X41990000Y46000000D03*
D14*
X50490000Y3890000D03*
X50490000Y46890000D03*
X9490000Y3890000D03*
X9490000Y46890000D03*
D15*
X22500000Y1140000D03*
X25500000Y1140000D03*
D16*
X24000000Y5700000D03*
D17*
X22000000Y4440000D03*
X26000000Y4440000D03*
D16*
X23350000Y5700000D03*
X22700000Y5700000D03*
X24650000Y5700000D03*
X25300000Y5700000D03*
D18*
X20400000Y2290000D03*
X27600000Y2290000D03*
X27600000Y5760000D03*
X20400000Y5760000D03*
G36*
G01*
X28006327Y41202375D02*
X27762375Y41446327D01*
G75*
G02*
X27762375Y41654923I104298J104298D01*
G01*
X27970971Y41863519D01*
G75*
G02*
X28179567Y41863519I104298J-104298D01*
G01*
X28423519Y41619567D01*
G75*
G02*
X28423519Y41410971I-104298J-104298D01*
G01*
X28214923Y41202375D01*
G75*
G02*
X28006327Y41202375I-104298J104298D01*
G01*
G37*
G36*
G01*
X27320433Y40516481D02*
X27076481Y40760433D01*
G75*
G02*
X27076481Y40969029I104298J104298D01*
G01*
X27285077Y41177625D01*
G75*
G02*
X27493673Y41177625I104298J-104298D01*
G01*
X27737625Y40933673D01*
G75*
G02*
X27737625Y40725077I-104298J-104298D01*
G01*
X27529029Y40516481D01*
G75*
G02*
X27320433Y40516481I-104298J104298D01*
G01*
G37*
G36*
G01*
X28756327Y40502375D02*
X28512375Y40746327D01*
G75*
G02*
X28512375Y40954923I104298J104298D01*
G01*
X28720971Y41163519D01*
G75*
G02*
X28929567Y41163519I104298J-104298D01*
G01*
X29173519Y40919567D01*
G75*
G02*
X29173519Y40710971I-104298J-104298D01*
G01*
X28964923Y40502375D01*
G75*
G02*
X28756327Y40502375I-104298J104298D01*
G01*
G37*
G36*
G01*
X28070433Y39816481D02*
X27826481Y40060433D01*
G75*
G02*
X27826481Y40269029I104298J104298D01*
G01*
X28035077Y40477625D01*
G75*
G02*
X28243673Y40477625I104298J-104298D01*
G01*
X28487625Y40233673D01*
G75*
G02*
X28487625Y40025077I-104298J-104298D01*
G01*
X28279029Y39816481D01*
G75*
G02*
X28070433Y39816481I-104298J104298D01*
G01*
G37*
D19*
X40490000Y14890000D03*
X39490000Y14890000D03*
X38490000Y14890000D03*
X37490000Y14890000D03*
X36490000Y14890000D03*
X35490000Y14890000D03*
X34490000Y14890000D03*
X33490000Y14890000D03*
X32490000Y14890000D03*
X31490000Y14890000D03*
X30490000Y14890000D03*
X29490000Y14890000D03*
X28490000Y14890000D03*
X27490000Y14890000D03*
X26490000Y14890000D03*
X25490000Y14890000D03*
X24490000Y14890000D03*
X23490000Y14890000D03*
X22490000Y14890000D03*
X21490000Y14890000D03*
X20490000Y14890000D03*
X19490000Y14890000D03*
X40490000Y15890000D03*
X39490000Y15890000D03*
X38490000Y15890000D03*
X37490000Y15890000D03*
X36490000Y15890000D03*
X35490000Y15890000D03*
X34490000Y15890000D03*
X33490000Y15890000D03*
X32490000Y15890000D03*
X31490000Y15890000D03*
X30490000Y15890000D03*
X29490000Y15890000D03*
X28490000Y15890000D03*
X27490000Y15890000D03*
X26490000Y15890000D03*
X25490000Y15890000D03*
X24490000Y15890000D03*
X23490000Y15890000D03*
X22490000Y15890000D03*
X21490000Y15890000D03*
X20490000Y15890000D03*
X19490000Y15890000D03*
X40490000Y16890000D03*
X39490000Y16890000D03*
X38490000Y16890000D03*
X37490000Y16890000D03*
X36490000Y16890000D03*
X35490000Y16890000D03*
X34490000Y16890000D03*
X33490000Y16890000D03*
X32490000Y16890000D03*
X31490000Y16890000D03*
X30490000Y16890000D03*
X29490000Y16890000D03*
X28490000Y16890000D03*
X27490000Y16890000D03*
X26490000Y16890000D03*
X25490000Y16890000D03*
X24490000Y16890000D03*
X23490000Y16890000D03*
X22490000Y16890000D03*
X21490000Y16890000D03*
X20490000Y16890000D03*
X19490000Y16890000D03*
X40490000Y17890000D03*
X39490000Y17890000D03*
X38490000Y17890000D03*
X37490000Y17890000D03*
X36490000Y17890000D03*
X35490000Y17890000D03*
X34490000Y17890000D03*
X33490000Y17890000D03*
X32490000Y17890000D03*
X31490000Y17890000D03*
X30490000Y17890000D03*
X29490000Y17890000D03*
X28490000Y17890000D03*
X27490000Y17890000D03*
X26490000Y17890000D03*
X25490000Y17890000D03*
X24490000Y17890000D03*
X23490000Y17890000D03*
X22490000Y17890000D03*
X21490000Y17890000D03*
X20490000Y17890000D03*
X19490000Y17890000D03*
X40490000Y18890000D03*
X39490000Y18890000D03*
X38490000Y18890000D03*
X37490000Y18890000D03*
X36490000Y18890000D03*
X35490000Y18890000D03*
X34490000Y18890000D03*
X33490000Y18890000D03*
X32490000Y18890000D03*
X31490000Y18890000D03*
X30490000Y18890000D03*
X29490000Y18890000D03*
X28490000Y18890000D03*
X27490000Y18890000D03*
X26490000Y18890000D03*
X25490000Y18890000D03*
X24490000Y18890000D03*
X23490000Y18890000D03*
X22490000Y18890000D03*
X21490000Y18890000D03*
X20490000Y18890000D03*
X19490000Y18890000D03*
X40490000Y19890000D03*
X39490000Y19890000D03*
X38490000Y19890000D03*
X37490000Y19890000D03*
X36490000Y19890000D03*
X35490000Y19890000D03*
X34490000Y19890000D03*
X33490000Y19890000D03*
X32490000Y19890000D03*
X31490000Y19890000D03*
X30490000Y19890000D03*
X29490000Y19890000D03*
X28490000Y19890000D03*
X27490000Y19890000D03*
X26490000Y19890000D03*
X25490000Y19890000D03*
X24490000Y19890000D03*
X23490000Y19890000D03*
X22490000Y19890000D03*
X21490000Y19890000D03*
X20490000Y19890000D03*
X19490000Y19890000D03*
X40490000Y20890000D03*
X39490000Y20890000D03*
X38490000Y20890000D03*
X37490000Y20890000D03*
X36490000Y20890000D03*
X35490000Y20890000D03*
X34490000Y20890000D03*
X33490000Y20890000D03*
X32490000Y20890000D03*
X31490000Y20890000D03*
X30490000Y20890000D03*
X29490000Y20890000D03*
X28490000Y20890000D03*
X27490000Y20890000D03*
X26490000Y20890000D03*
X25490000Y20890000D03*
X24490000Y20890000D03*
X23490000Y20890000D03*
X22490000Y20890000D03*
X21490000Y20890000D03*
X20490000Y20890000D03*
X19490000Y20890000D03*
X40490000Y21890000D03*
X39490000Y21890000D03*
X38490000Y21890000D03*
X37490000Y21890000D03*
X36490000Y21890000D03*
X35490000Y21890000D03*
X34490000Y21890000D03*
X33490000Y21890000D03*
X32490000Y21890000D03*
X31490000Y21890000D03*
X30490000Y21890000D03*
X29490000Y21890000D03*
X28490000Y21890000D03*
X27490000Y21890000D03*
X26490000Y21890000D03*
X25490000Y21890000D03*
X24490000Y21890000D03*
X23490000Y21890000D03*
X22490000Y21890000D03*
X21490000Y21890000D03*
X20490000Y21890000D03*
X19490000Y21890000D03*
X40490000Y22890000D03*
X39490000Y22890000D03*
X38490000Y22890000D03*
X37490000Y22890000D03*
X36490000Y22890000D03*
X35490000Y22890000D03*
X34490000Y22890000D03*
X33490000Y22890000D03*
X32490000Y22890000D03*
X31490000Y22890000D03*
X30490000Y22890000D03*
X29490000Y22890000D03*
X28490000Y22890000D03*
X27490000Y22890000D03*
X26490000Y22890000D03*
X25490000Y22890000D03*
X24490000Y22890000D03*
X23490000Y22890000D03*
X22490000Y22890000D03*
X21490000Y22890000D03*
X20490000Y22890000D03*
X19490000Y22890000D03*
X40490000Y23890000D03*
X39490000Y23890000D03*
X38490000Y23890000D03*
X37490000Y23890000D03*
X36490000Y23890000D03*
X35490000Y23890000D03*
X34490000Y23890000D03*
X33490000Y23890000D03*
X32490000Y23890000D03*
X31490000Y23890000D03*
X30490000Y23890000D03*
X29490000Y23890000D03*
X28490000Y23890000D03*
X27490000Y23890000D03*
X26490000Y23890000D03*
X25490000Y23890000D03*
X24490000Y23890000D03*
X23490000Y23890000D03*
X22490000Y23890000D03*
X21490000Y23890000D03*
X20490000Y23890000D03*
X19490000Y23890000D03*
X40490000Y24890000D03*
X39490000Y24890000D03*
X38490000Y24890000D03*
X37490000Y24890000D03*
X36490000Y24890000D03*
X35490000Y24890000D03*
X34490000Y24890000D03*
X33490000Y24890000D03*
X32490000Y24890000D03*
X31490000Y24890000D03*
X30490000Y24890000D03*
X29490000Y24890000D03*
X28490000Y24890000D03*
X27490000Y24890000D03*
X26490000Y24890000D03*
X25490000Y24890000D03*
X24490000Y24890000D03*
X23490000Y24890000D03*
X22490000Y24890000D03*
X21490000Y24890000D03*
X20490000Y24890000D03*
X19490000Y24890000D03*
X40490000Y25890000D03*
X39490000Y25890000D03*
X38490000Y25890000D03*
X37490000Y25890000D03*
X36490000Y25890000D03*
X35490000Y25890000D03*
X34490000Y25890000D03*
X33490000Y25890000D03*
X32490000Y25890000D03*
X31490000Y25890000D03*
X30490000Y25890000D03*
X29490000Y25890000D03*
X28490000Y25890000D03*
X27490000Y25890000D03*
X26490000Y25890000D03*
X25490000Y25890000D03*
X24490000Y25890000D03*
X23490000Y25890000D03*
X22490000Y25890000D03*
X21490000Y25890000D03*
X20490000Y25890000D03*
X19490000Y25890000D03*
X40490000Y26890000D03*
X39490000Y26890000D03*
X38490000Y26890000D03*
X37490000Y26890000D03*
X36490000Y26890000D03*
X35490000Y26890000D03*
X34490000Y26890000D03*
X33490000Y26890000D03*
X32490000Y26890000D03*
X31490000Y26890000D03*
X30490000Y26890000D03*
X29490000Y26890000D03*
X28490000Y26890000D03*
X27490000Y26890000D03*
X26490000Y26890000D03*
X25490000Y26890000D03*
X24490000Y26890000D03*
X23490000Y26890000D03*
X22490000Y26890000D03*
X21490000Y26890000D03*
X20490000Y26890000D03*
X19490000Y26890000D03*
X40490000Y27890000D03*
X39490000Y27890000D03*
X38490000Y27890000D03*
X37490000Y27890000D03*
X36490000Y27890000D03*
X35490000Y27890000D03*
X34490000Y27890000D03*
X33490000Y27890000D03*
X32490000Y27890000D03*
X31490000Y27890000D03*
X30490000Y27890000D03*
X29490000Y27890000D03*
X28490000Y27890000D03*
X27490000Y27890000D03*
X26490000Y27890000D03*
X25490000Y27890000D03*
X24490000Y27890000D03*
X23490000Y27890000D03*
X22490000Y27890000D03*
X21490000Y27890000D03*
X20490000Y27890000D03*
X19490000Y27890000D03*
X40490000Y28890000D03*
X39490000Y28890000D03*
X38490000Y28890000D03*
X37490000Y28890000D03*
X36490000Y28890000D03*
X35490000Y28890000D03*
X34490000Y28890000D03*
X33490000Y28890000D03*
X32490000Y28890000D03*
X31490000Y28890000D03*
X30490000Y28890000D03*
X29490000Y28890000D03*
X28490000Y28890000D03*
X27490000Y28890000D03*
X26490000Y28890000D03*
X25490000Y28890000D03*
X24490000Y28890000D03*
X23490000Y28890000D03*
X22490000Y28890000D03*
X21490000Y28890000D03*
X20490000Y28890000D03*
X19490000Y28890000D03*
X40490000Y29890000D03*
X39490000Y29890000D03*
X38490000Y29890000D03*
X37490000Y29890000D03*
X36490000Y29890000D03*
X35490000Y29890000D03*
X34490000Y29890000D03*
X33490000Y29890000D03*
X32490000Y29890000D03*
X31490000Y29890000D03*
X30490000Y29890000D03*
X29490000Y29890000D03*
X28490000Y29890000D03*
X27490000Y29890000D03*
X26490000Y29890000D03*
X25490000Y29890000D03*
X24490000Y29890000D03*
X23490000Y29890000D03*
X22490000Y29890000D03*
X21490000Y29890000D03*
X20490000Y29890000D03*
X19490000Y29890000D03*
X40490000Y30890000D03*
X39490000Y30890000D03*
X38490000Y30890000D03*
X37490000Y30890000D03*
X36490000Y30890000D03*
X35490000Y30890000D03*
X34490000Y30890000D03*
X33490000Y30890000D03*
X32490000Y30890000D03*
X31490000Y30890000D03*
X30490000Y30890000D03*
X29490000Y30890000D03*
X28490000Y30890000D03*
X27490000Y30890000D03*
X26490000Y30890000D03*
X25490000Y30890000D03*
X24490000Y30890000D03*
X23490000Y30890000D03*
X22490000Y30890000D03*
X21490000Y30890000D03*
X20490000Y30890000D03*
X19490000Y30890000D03*
X40490000Y31890000D03*
X39490000Y31890000D03*
X38490000Y31890000D03*
X37490000Y31890000D03*
X36490000Y31890000D03*
X35490000Y31890000D03*
X34490000Y31890000D03*
X33490000Y31890000D03*
X32490000Y31890000D03*
X31490000Y31890000D03*
X30490000Y31890000D03*
X29490000Y31890000D03*
X28490000Y31890000D03*
X27490000Y31890000D03*
X26490000Y31890000D03*
X25490000Y31890000D03*
X24490000Y31890000D03*
X23490000Y31890000D03*
X22490000Y31890000D03*
X21490000Y31890000D03*
X20490000Y31890000D03*
X19490000Y31890000D03*
X40490000Y32890000D03*
X39490000Y32890000D03*
X38490000Y32890000D03*
X37490000Y32890000D03*
X36490000Y32890000D03*
X35490000Y32890000D03*
X34490000Y32890000D03*
X33490000Y32890000D03*
X32490000Y32890000D03*
X31490000Y32890000D03*
X30490000Y32890000D03*
X29490000Y32890000D03*
X28490000Y32890000D03*
X27490000Y32890000D03*
X26490000Y32890000D03*
X25490000Y32890000D03*
X24490000Y32890000D03*
X23490000Y32890000D03*
X22490000Y32890000D03*
X21490000Y32890000D03*
X20490000Y32890000D03*
X19490000Y32890000D03*
X40490000Y33890000D03*
X39490000Y33890000D03*
X38490000Y33890000D03*
X37490000Y33890000D03*
X36490000Y33890000D03*
X35490000Y33890000D03*
X34490000Y33890000D03*
X33490000Y33890000D03*
X32490000Y33890000D03*
X31490000Y33890000D03*
X30490000Y33890000D03*
X29490000Y33890000D03*
X28490000Y33890000D03*
X27490000Y33890000D03*
X26490000Y33890000D03*
X25490000Y33890000D03*
X24490000Y33890000D03*
X23490000Y33890000D03*
X22490000Y33890000D03*
X21490000Y33890000D03*
X20490000Y33890000D03*
X19490000Y33890000D03*
X40490000Y34890000D03*
X39490000Y34890000D03*
X38490000Y34890000D03*
X37490000Y34890000D03*
X36490000Y34890000D03*
X35490000Y34890000D03*
X34490000Y34890000D03*
X33490000Y34890000D03*
X32490000Y34890000D03*
X31490000Y34890000D03*
X30490000Y34890000D03*
X29490000Y34890000D03*
X28490000Y34890000D03*
X27490000Y34890000D03*
X26490000Y34890000D03*
X25490000Y34890000D03*
X24490000Y34890000D03*
X23490000Y34890000D03*
X22490000Y34890000D03*
X21490000Y34890000D03*
X20490000Y34890000D03*
X19490000Y34890000D03*
X40490000Y35890000D03*
X39490000Y35890000D03*
X38490000Y35890000D03*
X37490000Y35890000D03*
X36490000Y35890000D03*
X35490000Y35890000D03*
X34490000Y35890000D03*
X33490000Y35890000D03*
X32490000Y35890000D03*
X31490000Y35890000D03*
X30490000Y35890000D03*
X29490000Y35890000D03*
X28490000Y35890000D03*
X27490000Y35890000D03*
X26490000Y35890000D03*
X25490000Y35890000D03*
X24490000Y35890000D03*
X23490000Y35890000D03*
X22490000Y35890000D03*
X21490000Y35890000D03*
X20490000Y35890000D03*
X19490000Y35890000D03*
G36*
G01*
X50812500Y27170000D02*
X50812500Y27420000D01*
G75*
G02*
X50937500Y27545000I125000J0D01*
G01*
X51587500Y27545000D01*
G75*
G02*
X51712500Y27420000I0J-125000D01*
G01*
X51712500Y27170000D01*
G75*
G02*
X51587500Y27045000I-125000J0D01*
G01*
X50937500Y27045000D01*
G75*
G02*
X50812500Y27170000I0J125000D01*
G01*
G37*
G36*
G01*
X50812500Y25900000D02*
X50812500Y26150000D01*
G75*
G02*
X50937500Y26275000I125000J0D01*
G01*
X51587500Y26275000D01*
G75*
G02*
X51712500Y26150000I0J-125000D01*
G01*
X51712500Y25900000D01*
G75*
G02*
X51587500Y25775000I-125000J0D01*
G01*
X50937500Y25775000D01*
G75*
G02*
X50812500Y25900000I0J125000D01*
G01*
G37*
G36*
G01*
X50812500Y24630000D02*
X50812500Y24880000D01*
G75*
G02*
X50937500Y25005000I125000J0D01*
G01*
X51587500Y25005000D01*
G75*
G02*
X51712500Y24880000I0J-125000D01*
G01*
X51712500Y24630000D01*
G75*
G02*
X51587500Y24505000I-125000J0D01*
G01*
X50937500Y24505000D01*
G75*
G02*
X50812500Y24630000I0J125000D01*
G01*
G37*
G36*
G01*
X50812500Y23360000D02*
X50812500Y23610000D01*
G75*
G02*
X50937500Y23735000I125000J0D01*
G01*
X51587500Y23735000D01*
G75*
G02*
X51712500Y23610000I0J-125000D01*
G01*
X51712500Y23360000D01*
G75*
G02*
X51587500Y23235000I-125000J0D01*
G01*
X50937500Y23235000D01*
G75*
G02*
X50812500Y23360000I0J125000D01*
G01*
G37*
G36*
G01*
X43087500Y23360000D02*
X43087500Y23610000D01*
G75*
G02*
X43212500Y23735000I125000J0D01*
G01*
X43862500Y23735000D01*
G75*
G02*
X43987500Y23610000I0J-125000D01*
G01*
X43987500Y23360000D01*
G75*
G02*
X43862500Y23235000I-125000J0D01*
G01*
X43212500Y23235000D01*
G75*
G02*
X43087500Y23360000I0J125000D01*
G01*
G37*
G36*
G01*
X43087500Y24630000D02*
X43087500Y24880000D01*
G75*
G02*
X43212500Y25005000I125000J0D01*
G01*
X43862500Y25005000D01*
G75*
G02*
X43987500Y24880000I0J-125000D01*
G01*
X43987500Y24630000D01*
G75*
G02*
X43862500Y24505000I-125000J0D01*
G01*
X43212500Y24505000D01*
G75*
G02*
X43087500Y24630000I0J125000D01*
G01*
G37*
G36*
G01*
X43087500Y25900000D02*
X43087500Y26150000D01*
G75*
G02*
X43212500Y26275000I125000J0D01*
G01*
X43862500Y26275000D01*
G75*
G02*
X43987500Y26150000I0J-125000D01*
G01*
X43987500Y25900000D01*
G75*
G02*
X43862500Y25775000I-125000J0D01*
G01*
X43212500Y25775000D01*
G75*
G02*
X43087500Y25900000I0J125000D01*
G01*
G37*
G36*
G01*
X43087500Y27170000D02*
X43087500Y27420000D01*
G75*
G02*
X43212500Y27545000I125000J0D01*
G01*
X43862500Y27545000D01*
G75*
G02*
X43987500Y27420000I0J-125000D01*
G01*
X43987500Y27170000D01*
G75*
G02*
X43862500Y27045000I-125000J0D01*
G01*
X43212500Y27045000D01*
G75*
G02*
X43087500Y27170000I0J125000D01*
G01*
G37*
D20*
X29990000Y2300000D03*
D21*
X43130000Y6330000D03*
X45670000Y6330000D03*
X43130000Y3790000D03*
X45670000Y3790000D03*
X43130000Y1250000D03*
D22*
X45670000Y1250000D03*
D21*
X14460000Y6330000D03*
X17000000Y6330000D03*
X14460000Y3790000D03*
X17000000Y3790000D03*
X14460000Y1250000D03*
D22*
X17000000Y1250000D03*
D23*
X30515000Y6525000D03*
X29465000Y6525000D03*
X29465000Y8975000D03*
X30515000Y8975000D03*
D24*
X47530000Y43932000D03*
X47530000Y49520000D03*
X47875000Y19625000D03*
X50415000Y19625000D03*
X25375000Y10875000D03*
X22835000Y10875000D03*
X17465000Y40375000D03*
X20000000Y40375000D03*
D25*
X1270000Y1250000D03*
X3810000Y1250000D03*
D26*
X1270000Y3790000D03*
X3810000Y3790000D03*
D25*
X1270000Y6330000D03*
X3810000Y6330000D03*
X1270000Y8870000D03*
X3810000Y8870000D03*
X1270000Y11410000D03*
X3810000Y11410000D03*
X1270000Y13950000D03*
X3810000Y13950000D03*
X1270000Y16490000D03*
X3810000Y16490000D03*
X1270000Y19030000D03*
X3810000Y19030000D03*
X1270000Y21570000D03*
X3810000Y21570000D03*
D26*
X1270000Y24110000D03*
X3810000Y24110000D03*
D25*
X1270000Y26650000D03*
X3810000Y26650000D03*
X1270000Y29190000D03*
X3810000Y29190000D03*
X1270000Y31730000D03*
X3810000Y31730000D03*
X1270000Y34270000D03*
X3810000Y34270000D03*
X1270000Y36810000D03*
X3810000Y36810000D03*
X1270000Y39350000D03*
X3810000Y39350000D03*
X1270000Y41890000D03*
X3810000Y41890000D03*
X1270000Y44430000D03*
X3810000Y44430000D03*
D26*
X1270000Y46970000D03*
X3810000Y46970000D03*
D25*
X1270000Y49510000D03*
X3810000Y49510000D03*
D12*
X14920000Y48000000D03*
X28060000Y48000000D03*
D13*
X25490000Y44500000D03*
X23490000Y44500000D03*
X21490000Y44500000D03*
X19490000Y44500000D03*
X17490000Y44500000D03*
X17990000Y46000000D03*
X20490000Y46000000D03*
X22490000Y46000000D03*
X24990000Y46000000D03*
D25*
X58710000Y49510000D03*
X56170000Y49510000D03*
D26*
X58710000Y46970000D03*
X56170000Y46970000D03*
D25*
X58710000Y44430000D03*
X56170000Y44430000D03*
X58710000Y41890000D03*
X56170000Y41890000D03*
X58710000Y39350000D03*
X56170000Y39350000D03*
X58710000Y36810000D03*
X56170000Y36810000D03*
X58710000Y34270000D03*
X56170000Y34270000D03*
X58710000Y31730000D03*
X56170000Y31730000D03*
X58710000Y29190000D03*
X56170000Y29190000D03*
D26*
X58710000Y26650000D03*
X56170000Y26650000D03*
D25*
X58710000Y24110000D03*
X56170000Y24110000D03*
X58710000Y21570000D03*
X56170000Y21570000D03*
X58710000Y19030000D03*
X56170000Y19030000D03*
X58710000Y16490000D03*
X56170000Y16490000D03*
X58710000Y13950000D03*
X56170000Y13950000D03*
X58710000Y11410000D03*
X56170000Y11410000D03*
X58710000Y8870000D03*
X56170000Y8870000D03*
X58710000Y6330000D03*
X56170000Y6330000D03*
D26*
X58710000Y3790000D03*
X56170000Y3790000D03*
D25*
X58710000Y1250000D03*
X56170000Y1250000D03*
G36*
G01*
X24172500Y42080000D02*
X23827500Y42080000D01*
G75*
G02*
X23680000Y42227500I0J147500D01*
G01*
X23680000Y42522500D01*
G75*
G02*
X23827500Y42670000I147500J0D01*
G01*
X24172500Y42670000D01*
G75*
G02*
X24320000Y42522500I0J-147500D01*
G01*
X24320000Y42227500D01*
G75*
G02*
X24172500Y42080000I-147500J0D01*
G01*
G37*
G36*
G01*
X24172500Y41110000D02*
X23827500Y41110000D01*
G75*
G02*
X23680000Y41257500I0J147500D01*
G01*
X23680000Y41552500D01*
G75*
G02*
X23827500Y41700000I147500J0D01*
G01*
X24172500Y41700000D01*
G75*
G02*
X24320000Y41552500I0J-147500D01*
G01*
X24320000Y41257500D01*
G75*
G02*
X24172500Y41110000I-147500J0D01*
G01*
G37*
G36*
G01*
X25172500Y42080000D02*
X24827500Y42080000D01*
G75*
G02*
X24680000Y42227500I0J147500D01*
G01*
X24680000Y42522500D01*
G75*
G02*
X24827500Y42670000I147500J0D01*
G01*
X25172500Y42670000D01*
G75*
G02*
X25320000Y42522500I0J-147500D01*
G01*
X25320000Y42227500D01*
G75*
G02*
X25172500Y42080000I-147500J0D01*
G01*
G37*
G36*
G01*
X25172500Y41110000D02*
X24827500Y41110000D01*
G75*
G02*
X24680000Y41257500I0J147500D01*
G01*
X24680000Y41552500D01*
G75*
G02*
X24827500Y41700000I147500J0D01*
G01*
X25172500Y41700000D01*
G75*
G02*
X25320000Y41552500I0J-147500D01*
G01*
X25320000Y41257500D01*
G75*
G02*
X25172500Y41110000I-147500J0D01*
G01*
G37*
M02*
