G04 #@! TF.GenerationSoftware,KiCad,Pcbnew,5.1.5-52549c5~86~ubuntu19.10.1*
G04 #@! TF.CreationDate,2020-04-19T19:12:06-07:00*
G04 #@! TF.ProjectId,artix7-pcie-v2,61727469-7837-42d7-9063-69652d76322e,rev?*
G04 #@! TF.SameCoordinates,PX69f4060PY6b00940*
G04 #@! TF.FileFunction,Legend,Bot*
G04 #@! TF.FilePolarity,Positive*
%FSLAX46Y46*%
G04 Gerber Fmt 4.6, Leading zero omitted, Abs format (unit mm)*
G04 Created by KiCad (PCBNEW 5.1.5-52549c5~86~ubuntu19.10.1) date 2020-04-19 19:12:06*
%MOMM*%
%LPD*%
G04 APERTURE LIST*
%ADD10C,0.120000*%
%ADD11C,0.250000*%
%ADD12C,0.152400*%
%ADD13C,0.203200*%
%ADD14C,0.150000*%
G04 APERTURE END LIST*
D10*
X12450000Y43890000D02*
G75*
G03X12450000Y43890000I-950000J0D01*
G01*
X13450000Y48890000D02*
G75*
G03X13450000Y48890000I-950000J0D01*
G01*
X42490000Y31227221D02*
X42490000Y31552779D01*
X43510000Y31227221D02*
X43510000Y31552779D01*
X42037221Y13700000D02*
X42362779Y13700000D01*
X42037221Y12680000D02*
X42362779Y12680000D01*
X42490000Y21727221D02*
X42490000Y22052779D01*
X43510000Y21727221D02*
X43510000Y22052779D01*
X17510000Y28952779D02*
X17510000Y28627221D01*
X16490000Y28952779D02*
X16490000Y28627221D01*
X19624721Y14500000D02*
X19950279Y14500000D01*
X19624721Y13480000D02*
X19950279Y13480000D01*
X16490000Y19227221D02*
X16490000Y19552779D01*
X17510000Y19227221D02*
X17510000Y19552779D01*
X50362779Y12480000D02*
X50037221Y12480000D01*
X50362779Y13500000D02*
X50037221Y13500000D01*
X9637221Y19500000D02*
X9962779Y19500000D01*
X9637221Y18480000D02*
X9962779Y18480000D01*
X50375279Y21880000D02*
X50049721Y21880000D01*
X50375279Y22900000D02*
X50049721Y22900000D01*
X50362779Y31280000D02*
X50037221Y31280000D01*
X50362779Y32300000D02*
X50037221Y32300000D01*
X9637221Y28900000D02*
X9962779Y28900000D01*
X9637221Y27880000D02*
X9962779Y27880000D01*
X7310000Y43192064D02*
X7310000Y41987936D01*
X5490000Y43192064D02*
X5490000Y41987936D01*
X5690000Y7787936D02*
X5690000Y8992064D01*
X7510000Y7787936D02*
X7510000Y8992064D01*
X42090000Y15787936D02*
X42090000Y16992064D01*
X43910000Y15787936D02*
X43910000Y16992064D01*
X17910000Y16192064D02*
X17910000Y14987936D01*
X16090000Y16192064D02*
X16090000Y14987936D01*
X42090000Y25187936D02*
X42090000Y26392064D01*
X43910000Y25187936D02*
X43910000Y26392064D01*
X42090000Y34587936D02*
X42090000Y35792064D01*
X43910000Y34587936D02*
X43910000Y35792064D01*
X16090000Y25592064D02*
X16090000Y24387936D01*
X17910000Y25592064D02*
X17910000Y24387936D01*
X30197936Y18700000D02*
X31402064Y18700000D01*
X30197936Y16880000D02*
X31402064Y16880000D01*
X22102064Y29180000D02*
X20897936Y29180000D01*
X22102064Y31000000D02*
X20897936Y31000000D01*
X19897936Y22400000D02*
X21102064Y22400000D01*
X19897936Y20580000D02*
X21102064Y20580000D01*
X35897936Y37700000D02*
X37102064Y37700000D01*
X35897936Y35880000D02*
X37102064Y35880000D01*
X52690000Y41787936D02*
X52690000Y42992064D01*
X54510000Y41787936D02*
X54510000Y42992064D01*
X54410000Y9392064D02*
X54410000Y8187936D01*
X52590000Y9392064D02*
X52590000Y8187936D01*
X35197936Y27300000D02*
X36402064Y27300000D01*
X35197936Y25480000D02*
X36402064Y25480000D01*
X25910000Y20492064D02*
X25910000Y19287936D01*
X24090000Y20492064D02*
X24090000Y19287936D01*
X33897936Y31100000D02*
X35102064Y31100000D01*
X33897936Y29280000D02*
X35102064Y29280000D01*
D11*
X9550000Y35390000D02*
G75*
G03X9550000Y35390000I-125000J0D01*
G01*
D12*
X47281200Y14259400D02*
G75*
G03X47281200Y14259400I-76200J0D01*
G01*
X48109600Y14212000D02*
X44350400Y14212000D01*
X48109600Y17768000D02*
X48109600Y14212000D01*
X44350400Y17768000D02*
X48109600Y17768000D01*
X44350400Y14212000D02*
X44350400Y17768000D01*
X12851200Y17720600D02*
G75*
G03X12851200Y17720600I-76200J0D01*
G01*
X11870400Y17768000D02*
X15629600Y17768000D01*
X11870400Y14212000D02*
X11870400Y17768000D01*
X15629600Y14212000D02*
X11870400Y14212000D01*
X15629600Y17768000D02*
X15629600Y14212000D01*
X47301200Y23659400D02*
G75*
G03X47301200Y23659400I-76200J0D01*
G01*
X48129600Y23612000D02*
X44370400Y23612000D01*
X48129600Y27168000D02*
X48129600Y23612000D01*
X44370400Y27168000D02*
X48129600Y27168000D01*
X44370400Y23612000D02*
X44370400Y27168000D01*
X47281200Y33059400D02*
G75*
G03X47281200Y33059400I-76200J0D01*
G01*
X48109600Y33012000D02*
X44350400Y33012000D01*
X48109600Y36568000D02*
X48109600Y33012000D01*
X44350400Y36568000D02*
X48109600Y36568000D01*
X44350400Y33012000D02*
X44350400Y36568000D01*
D10*
X45797936Y13900000D02*
X47002064Y13900000D01*
X45797936Y12080000D02*
X47002064Y12080000D01*
X14202064Y18080000D02*
X12997936Y18080000D01*
X14202064Y19900000D02*
X12997936Y19900000D01*
X45797936Y23300000D02*
X47002064Y23300000D01*
X45797936Y21480000D02*
X47002064Y21480000D01*
X45797936Y32700000D02*
X47002064Y32700000D01*
X45797936Y30880000D02*
X47002064Y30880000D01*
X5350000Y34990000D02*
X5350000Y38990000D01*
X8650000Y34990000D02*
X5350000Y34990000D01*
D12*
X12871200Y27120600D02*
G75*
G03X12871200Y27120600I-76200J0D01*
G01*
X11890400Y27168000D02*
X15649600Y27168000D01*
X11890400Y23612000D02*
X11890400Y27168000D01*
X15649600Y23612000D02*
X11890400Y23612000D01*
X15649600Y27168000D02*
X15649600Y23612000D01*
D10*
X14202064Y29300000D02*
X12997936Y29300000D01*
X14202064Y27480000D02*
X12997936Y27480000D01*
X21600000Y9540000D02*
X27000000Y9540000D01*
X21600000Y12840000D02*
X27000000Y12840000D01*
X21600000Y9540000D02*
X21600000Y12840000D01*
X35600000Y12840000D02*
X30200000Y12840000D01*
X35600000Y9540000D02*
X30200000Y9540000D01*
X35600000Y12840000D02*
X35600000Y9540000D01*
D13*
X38000000Y390000D02*
X34000000Y390000D01*
X40000000Y7890000D02*
X40000000Y4390000D01*
X39200000Y7890000D02*
X40000000Y7890000D01*
X39200000Y5390000D02*
X39200000Y7890000D01*
X38000000Y5390000D02*
X39200000Y5390000D01*
X32800000Y5390000D02*
X34000000Y5390000D01*
X32800000Y7890000D02*
X32800000Y5390000D01*
X32000000Y7890000D02*
X32800000Y7890000D01*
X32000000Y4390000D02*
X32000000Y7890000D01*
D10*
X14700000Y30980000D02*
X12250000Y30980000D01*
X12900000Y34200000D02*
X14700000Y34200000D01*
D14*
X37642857Y13937620D02*
X37976190Y14413810D01*
X38214285Y13937620D02*
X38214285Y14937620D01*
X37833333Y14937620D01*
X37738095Y14890000D01*
X37690476Y14842381D01*
X37642857Y14747143D01*
X37642857Y14604286D01*
X37690476Y14509048D01*
X37738095Y14461429D01*
X37833333Y14413810D01*
X38214285Y14413810D01*
X36738095Y14937620D02*
X37214285Y14937620D01*
X37261904Y14461429D01*
X37214285Y14509048D01*
X37119047Y14556667D01*
X36880952Y14556667D01*
X36785714Y14509048D01*
X36738095Y14461429D01*
X36690476Y14366191D01*
X36690476Y14128096D01*
X36738095Y14032858D01*
X36785714Y13985239D01*
X36880952Y13937620D01*
X37119047Y13937620D01*
X37214285Y13985239D01*
X37261904Y14032858D01*
X36309523Y14842381D02*
X36261904Y14890000D01*
X36166666Y14937620D01*
X35928571Y14937620D01*
X35833333Y14890000D01*
X35785714Y14842381D01*
X35738095Y14747143D01*
X35738095Y14651905D01*
X35785714Y14509048D01*
X36357142Y13937620D01*
X35738095Y13937620D01*
X49142857Y8437620D02*
X49476190Y8913810D01*
X49714285Y8437620D02*
X49714285Y9437620D01*
X49333333Y9437620D01*
X49238095Y9390000D01*
X49190476Y9342381D01*
X49142857Y9247143D01*
X49142857Y9104286D01*
X49190476Y9009048D01*
X49238095Y8961429D01*
X49333333Y8913810D01*
X49714285Y8913810D01*
X48238095Y9437620D02*
X48714285Y9437620D01*
X48761904Y8961429D01*
X48714285Y9009048D01*
X48619047Y9056667D01*
X48380952Y9056667D01*
X48285714Y9009048D01*
X48238095Y8961429D01*
X48190476Y8866191D01*
X48190476Y8628096D01*
X48238095Y8532858D01*
X48285714Y8485239D01*
X48380952Y8437620D01*
X48619047Y8437620D01*
X48714285Y8485239D01*
X48761904Y8532858D01*
X47238095Y8437620D02*
X47809523Y8437620D01*
X47523809Y8437620D02*
X47523809Y9437620D01*
X47619047Y9294762D01*
X47714285Y9199524D01*
X47809523Y9151905D01*
X43242857Y39937620D02*
X43576190Y40413810D01*
X43814285Y39937620D02*
X43814285Y40937620D01*
X43433333Y40937620D01*
X43338095Y40890000D01*
X43290476Y40842381D01*
X43242857Y40747143D01*
X43242857Y40604286D01*
X43290476Y40509048D01*
X43338095Y40461429D01*
X43433333Y40413810D01*
X43814285Y40413810D01*
X42385714Y40604286D02*
X42385714Y39937620D01*
X42623809Y40985239D02*
X42861904Y40270953D01*
X42242857Y40270953D01*
X41385714Y40937620D02*
X41861904Y40937620D01*
X41909523Y40461429D01*
X41861904Y40509048D01*
X41766666Y40556667D01*
X41528571Y40556667D01*
X41433333Y40509048D01*
X41385714Y40461429D01*
X41338095Y40366191D01*
X41338095Y40128096D01*
X41385714Y40032858D01*
X41433333Y39985239D01*
X41528571Y39937620D01*
X41766666Y39937620D01*
X41861904Y39985239D01*
X41909523Y40032858D01*
X51442857Y38537620D02*
X51776190Y39013810D01*
X52014285Y38537620D02*
X52014285Y39537620D01*
X51633333Y39537620D01*
X51538095Y39490000D01*
X51490476Y39442381D01*
X51442857Y39347143D01*
X51442857Y39204286D01*
X51490476Y39109048D01*
X51538095Y39061429D01*
X51633333Y39013810D01*
X52014285Y39013810D01*
X50585714Y39204286D02*
X50585714Y38537620D01*
X50823809Y39585239D02*
X51061904Y38870953D01*
X50442857Y38870953D01*
X50157142Y39537620D02*
X49538095Y39537620D01*
X49871428Y39156667D01*
X49728571Y39156667D01*
X49633333Y39109048D01*
X49585714Y39061429D01*
X49538095Y38966191D01*
X49538095Y38728096D01*
X49585714Y38632858D01*
X49633333Y38585239D01*
X49728571Y38537620D01*
X50014285Y38537620D01*
X50109523Y38585239D01*
X50157142Y38632858D01*
X46642857Y18937620D02*
X46976190Y19413810D01*
X47214285Y18937620D02*
X47214285Y19937620D01*
X46833333Y19937620D01*
X46738095Y19890000D01*
X46690476Y19842381D01*
X46642857Y19747143D01*
X46642857Y19604286D01*
X46690476Y19509048D01*
X46738095Y19461429D01*
X46833333Y19413810D01*
X47214285Y19413810D01*
X46309523Y19937620D02*
X45690476Y19937620D01*
X46023809Y19556667D01*
X45880952Y19556667D01*
X45785714Y19509048D01*
X45738095Y19461429D01*
X45690476Y19366191D01*
X45690476Y19128096D01*
X45738095Y19032858D01*
X45785714Y18985239D01*
X45880952Y18937620D01*
X46166666Y18937620D01*
X46261904Y18985239D01*
X46309523Y19032858D01*
X45214285Y18937620D02*
X45023809Y18937620D01*
X44928571Y18985239D01*
X44880952Y19032858D01*
X44785714Y19175715D01*
X44738095Y19366191D01*
X44738095Y19747143D01*
X44785714Y19842381D01*
X44833333Y19890000D01*
X44928571Y19937620D01*
X45119047Y19937620D01*
X45214285Y19890000D01*
X45261904Y19842381D01*
X45309523Y19747143D01*
X45309523Y19509048D01*
X45261904Y19413810D01*
X45214285Y19366191D01*
X45119047Y19318572D01*
X44928571Y19318572D01*
X44833333Y19366191D01*
X44785714Y19413810D01*
X44738095Y19509048D01*
X49392857Y18937620D02*
X49726190Y19413810D01*
X49964285Y18937620D02*
X49964285Y19937620D01*
X49583333Y19937620D01*
X49488095Y19890000D01*
X49440476Y19842381D01*
X49392857Y19747143D01*
X49392857Y19604286D01*
X49440476Y19509048D01*
X49488095Y19461429D01*
X49583333Y19413810D01*
X49964285Y19413810D01*
X49059523Y19937620D02*
X48440476Y19937620D01*
X48773809Y19556667D01*
X48630952Y19556667D01*
X48535714Y19509048D01*
X48488095Y19461429D01*
X48440476Y19366191D01*
X48440476Y19128096D01*
X48488095Y19032858D01*
X48535714Y18985239D01*
X48630952Y18937620D01*
X48916666Y18937620D01*
X49011904Y18985239D01*
X49059523Y19032858D01*
X47869047Y19509048D02*
X47964285Y19556667D01*
X48011904Y19604286D01*
X48059523Y19699524D01*
X48059523Y19747143D01*
X48011904Y19842381D01*
X47964285Y19890000D01*
X47869047Y19937620D01*
X47678571Y19937620D01*
X47583333Y19890000D01*
X47535714Y19842381D01*
X47488095Y19747143D01*
X47488095Y19699524D01*
X47535714Y19604286D01*
X47583333Y19556667D01*
X47678571Y19509048D01*
X47869047Y19509048D01*
X47964285Y19461429D01*
X48011904Y19413810D01*
X48059523Y19318572D01*
X48059523Y19128096D01*
X48011904Y19032858D01*
X47964285Y18985239D01*
X47869047Y18937620D01*
X47678571Y18937620D01*
X47583333Y18985239D01*
X47535714Y19032858D01*
X47488095Y19128096D01*
X47488095Y19318572D01*
X47535714Y19413810D01*
X47583333Y19461429D01*
X47678571Y19509048D01*
X37822380Y20632858D02*
X37346190Y20966191D01*
X37822380Y21204286D02*
X36822380Y21204286D01*
X36822380Y20823334D01*
X36870000Y20728096D01*
X36917619Y20680477D01*
X37012857Y20632858D01*
X37155714Y20632858D01*
X37250952Y20680477D01*
X37298571Y20728096D01*
X37346190Y20823334D01*
X37346190Y21204286D01*
X36822380Y20299524D02*
X36822380Y19680477D01*
X37203333Y20013810D01*
X37203333Y19870953D01*
X37250952Y19775715D01*
X37298571Y19728096D01*
X37393809Y19680477D01*
X37631904Y19680477D01*
X37727142Y19728096D01*
X37774761Y19775715D01*
X37822380Y19870953D01*
X37822380Y20156667D01*
X37774761Y20251905D01*
X37727142Y20299524D01*
X36822380Y19347143D02*
X36822380Y18680477D01*
X37822380Y19109048D01*
X51422380Y16632858D02*
X50946190Y16966191D01*
X51422380Y17204286D02*
X50422380Y17204286D01*
X50422380Y16823334D01*
X50470000Y16728096D01*
X50517619Y16680477D01*
X50612857Y16632858D01*
X50755714Y16632858D01*
X50850952Y16680477D01*
X50898571Y16728096D01*
X50946190Y16823334D01*
X50946190Y17204286D01*
X50422380Y16299524D02*
X50422380Y15680477D01*
X50803333Y16013810D01*
X50803333Y15870953D01*
X50850952Y15775715D01*
X50898571Y15728096D01*
X50993809Y15680477D01*
X51231904Y15680477D01*
X51327142Y15728096D01*
X51374761Y15775715D01*
X51422380Y15870953D01*
X51422380Y16156667D01*
X51374761Y16251905D01*
X51327142Y16299524D01*
X50422380Y14823334D02*
X50422380Y15013810D01*
X50470000Y15109048D01*
X50517619Y15156667D01*
X50660476Y15251905D01*
X50850952Y15299524D01*
X51231904Y15299524D01*
X51327142Y15251905D01*
X51374761Y15204286D01*
X51422380Y15109048D01*
X51422380Y14918572D01*
X51374761Y14823334D01*
X51327142Y14775715D01*
X51231904Y14728096D01*
X50993809Y14728096D01*
X50898571Y14775715D01*
X50850952Y14823334D01*
X50803333Y14918572D01*
X50803333Y15109048D01*
X50850952Y15204286D01*
X50898571Y15251905D01*
X50993809Y15299524D01*
X15252380Y12532858D02*
X14776190Y12866191D01*
X15252380Y13104286D02*
X14252380Y13104286D01*
X14252380Y12723334D01*
X14300000Y12628096D01*
X14347619Y12580477D01*
X14442857Y12532858D01*
X14585714Y12532858D01*
X14680952Y12580477D01*
X14728571Y12628096D01*
X14776190Y12723334D01*
X14776190Y13104286D01*
X14252380Y12199524D02*
X14252380Y11580477D01*
X14633333Y11913810D01*
X14633333Y11770953D01*
X14680952Y11675715D01*
X14728571Y11628096D01*
X14823809Y11580477D01*
X15061904Y11580477D01*
X15157142Y11628096D01*
X15204761Y11675715D01*
X15252380Y11770953D01*
X15252380Y12056667D01*
X15204761Y12151905D01*
X15157142Y12199524D01*
X14347619Y11199524D02*
X14300000Y11151905D01*
X14252380Y11056667D01*
X14252380Y10818572D01*
X14300000Y10723334D01*
X14347619Y10675715D01*
X14442857Y10628096D01*
X14538095Y10628096D01*
X14680952Y10675715D01*
X15252380Y11247143D01*
X15252380Y10628096D01*
X45642857Y29187620D02*
X45976190Y29663810D01*
X46214285Y29187620D02*
X46214285Y30187620D01*
X45833333Y30187620D01*
X45738095Y30140000D01*
X45690476Y30092381D01*
X45642857Y29997143D01*
X45642857Y29854286D01*
X45690476Y29759048D01*
X45738095Y29711429D01*
X45833333Y29663810D01*
X46214285Y29663810D01*
X45309523Y30187620D02*
X44690476Y30187620D01*
X45023809Y29806667D01*
X44880952Y29806667D01*
X44785714Y29759048D01*
X44738095Y29711429D01*
X44690476Y29616191D01*
X44690476Y29378096D01*
X44738095Y29282858D01*
X44785714Y29235239D01*
X44880952Y29187620D01*
X45166666Y29187620D01*
X45261904Y29235239D01*
X45309523Y29282858D01*
X43738095Y29187620D02*
X44309523Y29187620D01*
X44023809Y29187620D02*
X44023809Y30187620D01*
X44119047Y30044762D01*
X44214285Y29949524D01*
X44309523Y29901905D01*
X38642857Y21867620D02*
X38976190Y22343810D01*
X39214285Y21867620D02*
X39214285Y22867620D01*
X38833333Y22867620D01*
X38738095Y22820000D01*
X38690476Y22772381D01*
X38642857Y22677143D01*
X38642857Y22534286D01*
X38690476Y22439048D01*
X38738095Y22391429D01*
X38833333Y22343810D01*
X39214285Y22343810D01*
X38261904Y22772381D02*
X38214285Y22820000D01*
X38119047Y22867620D01*
X37880952Y22867620D01*
X37785714Y22820000D01*
X37738095Y22772381D01*
X37690476Y22677143D01*
X37690476Y22581905D01*
X37738095Y22439048D01*
X38309523Y21867620D01*
X37690476Y21867620D01*
X37214285Y21867620D02*
X37023809Y21867620D01*
X36928571Y21915239D01*
X36880952Y21962858D01*
X36785714Y22105715D01*
X36738095Y22296191D01*
X36738095Y22677143D01*
X36785714Y22772381D01*
X36833333Y22820000D01*
X36928571Y22867620D01*
X37119047Y22867620D01*
X37214285Y22820000D01*
X37261904Y22772381D01*
X37309523Y22677143D01*
X37309523Y22439048D01*
X37261904Y22343810D01*
X37214285Y22296191D01*
X37119047Y22248572D01*
X36928571Y22248572D01*
X36833333Y22296191D01*
X36785714Y22343810D01*
X36738095Y22439048D01*
X18792857Y33717620D02*
X19126190Y34193810D01*
X19364285Y33717620D02*
X19364285Y34717620D01*
X18983333Y34717620D01*
X18888095Y34670000D01*
X18840476Y34622381D01*
X18792857Y34527143D01*
X18792857Y34384286D01*
X18840476Y34289048D01*
X18888095Y34241429D01*
X18983333Y34193810D01*
X19364285Y34193810D01*
X18411904Y34622381D02*
X18364285Y34670000D01*
X18269047Y34717620D01*
X18030952Y34717620D01*
X17935714Y34670000D01*
X17888095Y34622381D01*
X17840476Y34527143D01*
X17840476Y34431905D01*
X17888095Y34289048D01*
X18459523Y33717620D01*
X17840476Y33717620D01*
X17269047Y34289048D02*
X17364285Y34336667D01*
X17411904Y34384286D01*
X17459523Y34479524D01*
X17459523Y34527143D01*
X17411904Y34622381D01*
X17364285Y34670000D01*
X17269047Y34717620D01*
X17078571Y34717620D01*
X16983333Y34670000D01*
X16935714Y34622381D01*
X16888095Y34527143D01*
X16888095Y34479524D01*
X16935714Y34384286D01*
X16983333Y34336667D01*
X17078571Y34289048D01*
X17269047Y34289048D01*
X17364285Y34241429D01*
X17411904Y34193810D01*
X17459523Y34098572D01*
X17459523Y33908096D01*
X17411904Y33812858D01*
X17364285Y33765239D01*
X17269047Y33717620D01*
X17078571Y33717620D01*
X16983333Y33765239D01*
X16935714Y33812858D01*
X16888095Y33908096D01*
X16888095Y34098572D01*
X16935714Y34193810D01*
X16983333Y34241429D01*
X17078571Y34289048D01*
X45982380Y44532858D02*
X45506190Y44866191D01*
X45982380Y45104286D02*
X44982380Y45104286D01*
X44982380Y44723334D01*
X45030000Y44628096D01*
X45077619Y44580477D01*
X45172857Y44532858D01*
X45315714Y44532858D01*
X45410952Y44580477D01*
X45458571Y44628096D01*
X45506190Y44723334D01*
X45506190Y45104286D01*
X45077619Y44151905D02*
X45030000Y44104286D01*
X44982380Y44009048D01*
X44982380Y43770953D01*
X45030000Y43675715D01*
X45077619Y43628096D01*
X45172857Y43580477D01*
X45268095Y43580477D01*
X45410952Y43628096D01*
X45982380Y44199524D01*
X45982380Y43580477D01*
X44982380Y43247143D02*
X44982380Y42580477D01*
X45982380Y43009048D01*
X14952380Y45032858D02*
X14476190Y45366191D01*
X14952380Y45604286D02*
X13952380Y45604286D01*
X13952380Y45223334D01*
X14000000Y45128096D01*
X14047619Y45080477D01*
X14142857Y45032858D01*
X14285714Y45032858D01*
X14380952Y45080477D01*
X14428571Y45128096D01*
X14476190Y45223334D01*
X14476190Y45604286D01*
X14047619Y44651905D02*
X14000000Y44604286D01*
X13952380Y44509048D01*
X13952380Y44270953D01*
X14000000Y44175715D01*
X14047619Y44128096D01*
X14142857Y44080477D01*
X14238095Y44080477D01*
X14380952Y44128096D01*
X14952380Y44699524D01*
X14952380Y44080477D01*
X13952380Y43223334D02*
X13952380Y43413810D01*
X14000000Y43509048D01*
X14047619Y43556667D01*
X14190476Y43651905D01*
X14380952Y43699524D01*
X14761904Y43699524D01*
X14857142Y43651905D01*
X14904761Y43604286D01*
X14952380Y43509048D01*
X14952380Y43318572D01*
X14904761Y43223334D01*
X14857142Y43175715D01*
X14761904Y43128096D01*
X14523809Y43128096D01*
X14428571Y43175715D01*
X14380952Y43223334D01*
X14333333Y43318572D01*
X14333333Y43509048D01*
X14380952Y43604286D01*
X14428571Y43651905D01*
X14523809Y43699524D01*
X13202380Y12532858D02*
X12726190Y12866191D01*
X13202380Y13104286D02*
X12202380Y13104286D01*
X12202380Y12723334D01*
X12250000Y12628096D01*
X12297619Y12580477D01*
X12392857Y12532858D01*
X12535714Y12532858D01*
X12630952Y12580477D01*
X12678571Y12628096D01*
X12726190Y12723334D01*
X12726190Y13104286D01*
X12297619Y12151905D02*
X12250000Y12104286D01*
X12202380Y12009048D01*
X12202380Y11770953D01*
X12250000Y11675715D01*
X12297619Y11628096D01*
X12392857Y11580477D01*
X12488095Y11580477D01*
X12630952Y11628096D01*
X13202380Y12199524D01*
X13202380Y11580477D01*
X12202380Y10675715D02*
X12202380Y11151905D01*
X12678571Y11199524D01*
X12630952Y11151905D01*
X12583333Y11056667D01*
X12583333Y10818572D01*
X12630952Y10723334D01*
X12678571Y10675715D01*
X12773809Y10628096D01*
X13011904Y10628096D01*
X13107142Y10675715D01*
X13154761Y10723334D01*
X13202380Y10818572D01*
X13202380Y11056667D01*
X13154761Y11151905D01*
X13107142Y11199524D01*
X9042857Y15437620D02*
X9376190Y15913810D01*
X9614285Y15437620D02*
X9614285Y16437620D01*
X9233333Y16437620D01*
X9138095Y16390000D01*
X9090476Y16342381D01*
X9042857Y16247143D01*
X9042857Y16104286D01*
X9090476Y16009048D01*
X9138095Y15961429D01*
X9233333Y15913810D01*
X9614285Y15913810D01*
X8661904Y16342381D02*
X8614285Y16390000D01*
X8519047Y16437620D01*
X8280952Y16437620D01*
X8185714Y16390000D01*
X8138095Y16342381D01*
X8090476Y16247143D01*
X8090476Y16151905D01*
X8138095Y16009048D01*
X8709523Y15437620D01*
X8090476Y15437620D01*
X7233333Y16104286D02*
X7233333Y15437620D01*
X7471428Y16485239D02*
X7709523Y15770953D01*
X7090476Y15770953D01*
X48642857Y29187620D02*
X48976190Y29663810D01*
X49214285Y29187620D02*
X49214285Y30187620D01*
X48833333Y30187620D01*
X48738095Y30140000D01*
X48690476Y30092381D01*
X48642857Y29997143D01*
X48642857Y29854286D01*
X48690476Y29759048D01*
X48738095Y29711429D01*
X48833333Y29663810D01*
X49214285Y29663810D01*
X48261904Y30092381D02*
X48214285Y30140000D01*
X48119047Y30187620D01*
X47880952Y30187620D01*
X47785714Y30140000D01*
X47738095Y30092381D01*
X47690476Y29997143D01*
X47690476Y29901905D01*
X47738095Y29759048D01*
X48309523Y29187620D01*
X47690476Y29187620D01*
X47357142Y30187620D02*
X46738095Y30187620D01*
X47071428Y29806667D01*
X46928571Y29806667D01*
X46833333Y29759048D01*
X46785714Y29711429D01*
X46738095Y29616191D01*
X46738095Y29378096D01*
X46785714Y29282858D01*
X46833333Y29235239D01*
X46928571Y29187620D01*
X47214285Y29187620D01*
X47309523Y29235239D01*
X47357142Y29282858D01*
X52142857Y24937620D02*
X52476190Y25413810D01*
X52714285Y24937620D02*
X52714285Y25937620D01*
X52333333Y25937620D01*
X52238095Y25890000D01*
X52190476Y25842381D01*
X52142857Y25747143D01*
X52142857Y25604286D01*
X52190476Y25509048D01*
X52238095Y25461429D01*
X52333333Y25413810D01*
X52714285Y25413810D01*
X51761904Y25842381D02*
X51714285Y25890000D01*
X51619047Y25937620D01*
X51380952Y25937620D01*
X51285714Y25890000D01*
X51238095Y25842381D01*
X51190476Y25747143D01*
X51190476Y25651905D01*
X51238095Y25509048D01*
X51809523Y24937620D01*
X51190476Y24937620D01*
X50809523Y25842381D02*
X50761904Y25890000D01*
X50666666Y25937620D01*
X50428571Y25937620D01*
X50333333Y25890000D01*
X50285714Y25842381D01*
X50238095Y25747143D01*
X50238095Y25651905D01*
X50285714Y25509048D01*
X50857142Y24937620D01*
X50238095Y24937620D01*
X45642857Y37737620D02*
X45976190Y38213810D01*
X46214285Y37737620D02*
X46214285Y38737620D01*
X45833333Y38737620D01*
X45738095Y38690000D01*
X45690476Y38642381D01*
X45642857Y38547143D01*
X45642857Y38404286D01*
X45690476Y38309048D01*
X45738095Y38261429D01*
X45833333Y38213810D01*
X46214285Y38213810D01*
X44690476Y37737620D02*
X45261904Y37737620D01*
X44976190Y37737620D02*
X44976190Y38737620D01*
X45071428Y38594762D01*
X45166666Y38499524D01*
X45261904Y38451905D01*
X44119047Y38309048D02*
X44214285Y38356667D01*
X44261904Y38404286D01*
X44309523Y38499524D01*
X44309523Y38547143D01*
X44261904Y38642381D01*
X44214285Y38690000D01*
X44119047Y38737620D01*
X43928571Y38737620D01*
X43833333Y38690000D01*
X43785714Y38642381D01*
X43738095Y38547143D01*
X43738095Y38499524D01*
X43785714Y38404286D01*
X43833333Y38356667D01*
X43928571Y38309048D01*
X44119047Y38309048D01*
X44214285Y38261429D01*
X44261904Y38213810D01*
X44309523Y38118572D01*
X44309523Y37928096D01*
X44261904Y37832858D01*
X44214285Y37785239D01*
X44119047Y37737620D01*
X43928571Y37737620D01*
X43833333Y37785239D01*
X43785714Y37832858D01*
X43738095Y37928096D01*
X43738095Y38118572D01*
X43785714Y38213810D01*
X43833333Y38261429D01*
X43928571Y38309048D01*
X48442857Y37737620D02*
X48776190Y38213810D01*
X49014285Y37737620D02*
X49014285Y38737620D01*
X48633333Y38737620D01*
X48538095Y38690000D01*
X48490476Y38642381D01*
X48442857Y38547143D01*
X48442857Y38404286D01*
X48490476Y38309048D01*
X48538095Y38261429D01*
X48633333Y38213810D01*
X49014285Y38213810D01*
X47490476Y37737620D02*
X48061904Y37737620D01*
X47776190Y37737620D02*
X47776190Y38737620D01*
X47871428Y38594762D01*
X47966666Y38499524D01*
X48061904Y38451905D01*
X47157142Y38737620D02*
X46490476Y38737620D01*
X46919047Y37737620D01*
X52242857Y34337620D02*
X52576190Y34813810D01*
X52814285Y34337620D02*
X52814285Y35337620D01*
X52433333Y35337620D01*
X52338095Y35290000D01*
X52290476Y35242381D01*
X52242857Y35147143D01*
X52242857Y35004286D01*
X52290476Y34909048D01*
X52338095Y34861429D01*
X52433333Y34813810D01*
X52814285Y34813810D01*
X51290476Y34337620D02*
X51861904Y34337620D01*
X51576190Y34337620D02*
X51576190Y35337620D01*
X51671428Y35194762D01*
X51766666Y35099524D01*
X51861904Y35051905D01*
X50433333Y35337620D02*
X50623809Y35337620D01*
X50719047Y35290000D01*
X50766666Y35242381D01*
X50861904Y35099524D01*
X50909523Y34909048D01*
X50909523Y34528096D01*
X50861904Y34432858D01*
X50814285Y34385239D01*
X50719047Y34337620D01*
X50528571Y34337620D01*
X50433333Y34385239D01*
X50385714Y34432858D01*
X50338095Y34528096D01*
X50338095Y34766191D01*
X50385714Y34861429D01*
X50433333Y34909048D01*
X50528571Y34956667D01*
X50719047Y34956667D01*
X50814285Y34909048D01*
X50861904Y34861429D01*
X50909523Y34766191D01*
X15442857Y21537620D02*
X15776190Y22013810D01*
X16014285Y21537620D02*
X16014285Y22537620D01*
X15633333Y22537620D01*
X15538095Y22490000D01*
X15490476Y22442381D01*
X15442857Y22347143D01*
X15442857Y22204286D01*
X15490476Y22109048D01*
X15538095Y22061429D01*
X15633333Y22013810D01*
X16014285Y22013810D01*
X14490476Y21537620D02*
X15061904Y21537620D01*
X14776190Y21537620D02*
X14776190Y22537620D01*
X14871428Y22394762D01*
X14966666Y22299524D01*
X15061904Y22251905D01*
X13633333Y22204286D02*
X13633333Y21537620D01*
X13871428Y22585239D02*
X14109523Y21870953D01*
X13490476Y21870953D01*
X12242857Y21337620D02*
X12576190Y21813810D01*
X12814285Y21337620D02*
X12814285Y22337620D01*
X12433333Y22337620D01*
X12338095Y22290000D01*
X12290476Y22242381D01*
X12242857Y22147143D01*
X12242857Y22004286D01*
X12290476Y21909048D01*
X12338095Y21861429D01*
X12433333Y21813810D01*
X12814285Y21813810D01*
X11290476Y21337620D02*
X11861904Y21337620D01*
X11576190Y21337620D02*
X11576190Y22337620D01*
X11671428Y22194762D01*
X11766666Y22099524D01*
X11861904Y22051905D01*
X10957142Y22337620D02*
X10338095Y22337620D01*
X10671428Y21956667D01*
X10528571Y21956667D01*
X10433333Y21909048D01*
X10385714Y21861429D01*
X10338095Y21766191D01*
X10338095Y21528096D01*
X10385714Y21432858D01*
X10433333Y21385239D01*
X10528571Y21337620D01*
X10814285Y21337620D01*
X10909523Y21385239D01*
X10957142Y21432858D01*
X9282380Y25832858D02*
X8806190Y26166191D01*
X9282380Y26404286D02*
X8282380Y26404286D01*
X8282380Y26023334D01*
X8330000Y25928096D01*
X8377619Y25880477D01*
X8472857Y25832858D01*
X8615714Y25832858D01*
X8710952Y25880477D01*
X8758571Y25928096D01*
X8806190Y26023334D01*
X8806190Y26404286D01*
X9282380Y24880477D02*
X9282380Y25451905D01*
X9282380Y25166191D02*
X8282380Y25166191D01*
X8425238Y25261429D01*
X8520476Y25356667D01*
X8568095Y25451905D01*
X8377619Y24499524D02*
X8330000Y24451905D01*
X8282380Y24356667D01*
X8282380Y24118572D01*
X8330000Y24023334D01*
X8377619Y23975715D01*
X8472857Y23928096D01*
X8568095Y23928096D01*
X8710952Y23975715D01*
X9282380Y24547143D01*
X9282380Y23928096D01*
X14142857Y41437620D02*
X14476190Y41913810D01*
X14714285Y41437620D02*
X14714285Y42437620D01*
X14333333Y42437620D01*
X14238095Y42390000D01*
X14190476Y42342381D01*
X14142857Y42247143D01*
X14142857Y42104286D01*
X14190476Y42009048D01*
X14238095Y41961429D01*
X14333333Y41913810D01*
X14714285Y41913810D01*
X13190476Y41437620D02*
X13761904Y41437620D01*
X13476190Y41437620D02*
X13476190Y42437620D01*
X13571428Y42294762D01*
X13666666Y42199524D01*
X13761904Y42151905D01*
X12571428Y42437620D02*
X12476190Y42437620D01*
X12380952Y42390000D01*
X12333333Y42342381D01*
X12285714Y42247143D01*
X12238095Y42056667D01*
X12238095Y41818572D01*
X12285714Y41628096D01*
X12333333Y41532858D01*
X12380952Y41485239D01*
X12476190Y41437620D01*
X12571428Y41437620D01*
X12666666Y41485239D01*
X12714285Y41532858D01*
X12761904Y41628096D01*
X12809523Y41818572D01*
X12809523Y42056667D01*
X12761904Y42247143D01*
X12714285Y42342381D01*
X12666666Y42390000D01*
X12571428Y42437620D01*
X9952380Y42056667D02*
X9476190Y42390000D01*
X9952380Y42628096D02*
X8952380Y42628096D01*
X8952380Y42247143D01*
X9000000Y42151905D01*
X9047619Y42104286D01*
X9142857Y42056667D01*
X9285714Y42056667D01*
X9380952Y42104286D01*
X9428571Y42151905D01*
X9476190Y42247143D01*
X9476190Y42628096D01*
X9952380Y41580477D02*
X9952380Y41390000D01*
X9904761Y41294762D01*
X9857142Y41247143D01*
X9714285Y41151905D01*
X9523809Y41104286D01*
X9142857Y41104286D01*
X9047619Y41151905D01*
X9000000Y41199524D01*
X8952380Y41294762D01*
X8952380Y41485239D01*
X9000000Y41580477D01*
X9047619Y41628096D01*
X9142857Y41675715D01*
X9380952Y41675715D01*
X9476190Y41628096D01*
X9523809Y41580477D01*
X9571428Y41485239D01*
X9571428Y41294762D01*
X9523809Y41199524D01*
X9476190Y41151905D01*
X9380952Y41104286D01*
X42566666Y20607620D02*
X42900000Y21083810D01*
X43138095Y20607620D02*
X43138095Y21607620D01*
X42757142Y21607620D01*
X42661904Y21560000D01*
X42614285Y21512381D01*
X42566666Y21417143D01*
X42566666Y21274286D01*
X42614285Y21179048D01*
X42661904Y21131429D01*
X42757142Y21083810D01*
X43138095Y21083810D01*
X41995238Y21179048D02*
X42090476Y21226667D01*
X42138095Y21274286D01*
X42185714Y21369524D01*
X42185714Y21417143D01*
X42138095Y21512381D01*
X42090476Y21560000D01*
X41995238Y21607620D01*
X41804761Y21607620D01*
X41709523Y21560000D01*
X41661904Y21512381D01*
X41614285Y21417143D01*
X41614285Y21369524D01*
X41661904Y21274286D01*
X41709523Y21226667D01*
X41804761Y21179048D01*
X41995238Y21179048D01*
X42090476Y21131429D01*
X42138095Y21083810D01*
X42185714Y20988572D01*
X42185714Y20798096D01*
X42138095Y20702858D01*
X42090476Y20655239D01*
X41995238Y20607620D01*
X41804761Y20607620D01*
X41709523Y20655239D01*
X41661904Y20702858D01*
X41614285Y20798096D01*
X41614285Y20988572D01*
X41661904Y21083810D01*
X41709523Y21131429D01*
X41804761Y21179048D01*
X30082380Y20056667D02*
X29606190Y20390000D01*
X30082380Y20628096D02*
X29082380Y20628096D01*
X29082380Y20247143D01*
X29130000Y20151905D01*
X29177619Y20104286D01*
X29272857Y20056667D01*
X29415714Y20056667D01*
X29510952Y20104286D01*
X29558571Y20151905D01*
X29606190Y20247143D01*
X29606190Y20628096D01*
X29177619Y19675715D02*
X29130000Y19628096D01*
X29082380Y19532858D01*
X29082380Y19294762D01*
X29130000Y19199524D01*
X29177619Y19151905D01*
X29272857Y19104286D01*
X29368095Y19104286D01*
X29510952Y19151905D01*
X30082380Y19723334D01*
X30082380Y19104286D01*
X19252380Y32432858D02*
X18776190Y32766191D01*
X19252380Y33004286D02*
X18252380Y33004286D01*
X18252380Y32623334D01*
X18300000Y32528096D01*
X18347619Y32480477D01*
X18442857Y32432858D01*
X18585714Y32432858D01*
X18680952Y32480477D01*
X18728571Y32528096D01*
X18776190Y32623334D01*
X18776190Y33004286D01*
X18252380Y31528096D02*
X18252380Y32004286D01*
X18728571Y32051905D01*
X18680952Y32004286D01*
X18633333Y31909048D01*
X18633333Y31670953D01*
X18680952Y31575715D01*
X18728571Y31528096D01*
X18823809Y31480477D01*
X19061904Y31480477D01*
X19157142Y31528096D01*
X19204761Y31575715D01*
X19252380Y31670953D01*
X19252380Y31909048D01*
X19204761Y32004286D01*
X19157142Y32051905D01*
X18252380Y30861429D02*
X18252380Y30766191D01*
X18300000Y30670953D01*
X18347619Y30623334D01*
X18442857Y30575715D01*
X18633333Y30528096D01*
X18871428Y30528096D01*
X19061904Y30575715D01*
X19157142Y30623334D01*
X19204761Y30670953D01*
X19252380Y30766191D01*
X19252380Y30861429D01*
X19204761Y30956667D01*
X19157142Y31004286D01*
X19061904Y31051905D01*
X18871428Y31099524D01*
X18633333Y31099524D01*
X18442857Y31051905D01*
X18347619Y31004286D01*
X18300000Y30956667D01*
X18252380Y30861429D01*
X42892857Y28687620D02*
X43226190Y29163810D01*
X43464285Y28687620D02*
X43464285Y29687620D01*
X43083333Y29687620D01*
X42988095Y29640000D01*
X42940476Y29592381D01*
X42892857Y29497143D01*
X42892857Y29354286D01*
X42940476Y29259048D01*
X42988095Y29211429D01*
X43083333Y29163810D01*
X43464285Y29163810D01*
X42035714Y29354286D02*
X42035714Y28687620D01*
X42273809Y29735239D02*
X42511904Y29020953D01*
X41892857Y29020953D01*
X41464285Y28687620D02*
X41273809Y28687620D01*
X41178571Y28735239D01*
X41130952Y28782858D01*
X41035714Y28925715D01*
X40988095Y29116191D01*
X40988095Y29497143D01*
X41035714Y29592381D01*
X41083333Y29640000D01*
X41178571Y29687620D01*
X41369047Y29687620D01*
X41464285Y29640000D01*
X41511904Y29592381D01*
X41559523Y29497143D01*
X41559523Y29259048D01*
X41511904Y29163810D01*
X41464285Y29116191D01*
X41369047Y29068572D01*
X41178571Y29068572D01*
X41083333Y29116191D01*
X41035714Y29163810D01*
X40988095Y29259048D01*
X42842857Y11307620D02*
X43176190Y11783810D01*
X43414285Y11307620D02*
X43414285Y12307620D01*
X43033333Y12307620D01*
X42938095Y12260000D01*
X42890476Y12212381D01*
X42842857Y12117143D01*
X42842857Y11974286D01*
X42890476Y11879048D01*
X42938095Y11831429D01*
X43033333Y11783810D01*
X43414285Y11783810D01*
X41985714Y11974286D02*
X41985714Y11307620D01*
X42223809Y12355239D02*
X42461904Y11640953D01*
X41842857Y11640953D01*
X41319047Y11879048D02*
X41414285Y11926667D01*
X41461904Y11974286D01*
X41509523Y12069524D01*
X41509523Y12117143D01*
X41461904Y12212381D01*
X41414285Y12260000D01*
X41319047Y12307620D01*
X41128571Y12307620D01*
X41033333Y12260000D01*
X40985714Y12212381D01*
X40938095Y12117143D01*
X40938095Y12069524D01*
X40985714Y11974286D01*
X41033333Y11926667D01*
X41128571Y11879048D01*
X41319047Y11879048D01*
X41414285Y11831429D01*
X41461904Y11783810D01*
X41509523Y11688572D01*
X41509523Y11498096D01*
X41461904Y11402858D01*
X41414285Y11355239D01*
X41319047Y11307620D01*
X41128571Y11307620D01*
X41033333Y11355239D01*
X40985714Y11402858D01*
X40938095Y11498096D01*
X40938095Y11688572D01*
X40985714Y11783810D01*
X41033333Y11831429D01*
X41128571Y11879048D01*
X44882380Y22532858D02*
X44406190Y22866191D01*
X44882380Y23104286D02*
X43882380Y23104286D01*
X43882380Y22723334D01*
X43930000Y22628096D01*
X43977619Y22580477D01*
X44072857Y22532858D01*
X44215714Y22532858D01*
X44310952Y22580477D01*
X44358571Y22628096D01*
X44406190Y22723334D01*
X44406190Y23104286D01*
X44215714Y21675715D02*
X44882380Y21675715D01*
X43834761Y21913810D02*
X44549047Y22151905D01*
X44549047Y21532858D01*
X43882380Y21247143D02*
X43882380Y20580477D01*
X44882380Y21009048D01*
X16022380Y29432858D02*
X15546190Y29766191D01*
X16022380Y30004286D02*
X15022380Y30004286D01*
X15022380Y29623334D01*
X15070000Y29528096D01*
X15117619Y29480477D01*
X15212857Y29432858D01*
X15355714Y29432858D01*
X15450952Y29480477D01*
X15498571Y29528096D01*
X15546190Y29623334D01*
X15546190Y30004286D01*
X15355714Y28575715D02*
X16022380Y28575715D01*
X14974761Y28813810D02*
X15689047Y29051905D01*
X15689047Y28432858D01*
X15022380Y27623334D02*
X15022380Y27813810D01*
X15070000Y27909048D01*
X15117619Y27956667D01*
X15260476Y28051905D01*
X15450952Y28099524D01*
X15831904Y28099524D01*
X15927142Y28051905D01*
X15974761Y28004286D01*
X16022380Y27909048D01*
X16022380Y27718572D01*
X15974761Y27623334D01*
X15927142Y27575715D01*
X15831904Y27528096D01*
X15593809Y27528096D01*
X15498571Y27575715D01*
X15450952Y27623334D01*
X15403333Y27718572D01*
X15403333Y27909048D01*
X15450952Y28004286D01*
X15498571Y28051905D01*
X15593809Y28099524D01*
X43242857Y38737620D02*
X43576190Y39213810D01*
X43814285Y38737620D02*
X43814285Y39737620D01*
X43433333Y39737620D01*
X43338095Y39690000D01*
X43290476Y39642381D01*
X43242857Y39547143D01*
X43242857Y39404286D01*
X43290476Y39309048D01*
X43338095Y39261429D01*
X43433333Y39213810D01*
X43814285Y39213810D01*
X42385714Y39404286D02*
X42385714Y38737620D01*
X42623809Y39785239D02*
X42861904Y39070953D01*
X42242857Y39070953D01*
X41433333Y39404286D02*
X41433333Y38737620D01*
X41671428Y39785239D02*
X41909523Y39070953D01*
X41290476Y39070953D01*
X51442857Y39937620D02*
X51776190Y40413810D01*
X52014285Y39937620D02*
X52014285Y40937620D01*
X51633333Y40937620D01*
X51538095Y40890000D01*
X51490476Y40842381D01*
X51442857Y40747143D01*
X51442857Y40604286D01*
X51490476Y40509048D01*
X51538095Y40461429D01*
X51633333Y40413810D01*
X52014285Y40413810D01*
X50585714Y40604286D02*
X50585714Y39937620D01*
X50823809Y40985239D02*
X51061904Y40270953D01*
X50442857Y40270953D01*
X50109523Y40842381D02*
X50061904Y40890000D01*
X49966666Y40937620D01*
X49728571Y40937620D01*
X49633333Y40890000D01*
X49585714Y40842381D01*
X49538095Y40747143D01*
X49538095Y40651905D01*
X49585714Y40509048D01*
X50157142Y39937620D01*
X49538095Y39937620D01*
X20430357Y12107620D02*
X20763690Y12583810D01*
X21001785Y12107620D02*
X21001785Y13107620D01*
X20620833Y13107620D01*
X20525595Y13060000D01*
X20477976Y13012381D01*
X20430357Y12917143D01*
X20430357Y12774286D01*
X20477976Y12679048D01*
X20525595Y12631429D01*
X20620833Y12583810D01*
X21001785Y12583810D01*
X19573214Y12774286D02*
X19573214Y12107620D01*
X19811309Y13155239D02*
X20049404Y12440953D01*
X19430357Y12440953D01*
X18525595Y12107620D02*
X19097023Y12107620D01*
X18811309Y12107620D02*
X18811309Y13107620D01*
X18906547Y12964762D01*
X19001785Y12869524D01*
X19097023Y12821905D01*
X18882380Y20032858D02*
X18406190Y20366191D01*
X18882380Y20604286D02*
X17882380Y20604286D01*
X17882380Y20223334D01*
X17930000Y20128096D01*
X17977619Y20080477D01*
X18072857Y20032858D01*
X18215714Y20032858D01*
X18310952Y20080477D01*
X18358571Y20128096D01*
X18406190Y20223334D01*
X18406190Y20604286D01*
X18215714Y19175715D02*
X18882380Y19175715D01*
X17834761Y19413810D02*
X18549047Y19651905D01*
X18549047Y19032858D01*
X17882380Y18461429D02*
X17882380Y18366191D01*
X17930000Y18270953D01*
X17977619Y18223334D01*
X18072857Y18175715D01*
X18263333Y18128096D01*
X18501428Y18128096D01*
X18691904Y18175715D01*
X18787142Y18223334D01*
X18834761Y18270953D01*
X18882380Y18366191D01*
X18882380Y18461429D01*
X18834761Y18556667D01*
X18787142Y18604286D01*
X18691904Y18651905D01*
X18501428Y18699524D01*
X18263333Y18699524D01*
X18072857Y18651905D01*
X17977619Y18604286D01*
X17930000Y18556667D01*
X17882380Y18461429D01*
X50842857Y11187620D02*
X51176190Y11663810D01*
X51414285Y11187620D02*
X51414285Y12187620D01*
X51033333Y12187620D01*
X50938095Y12140000D01*
X50890476Y12092381D01*
X50842857Y11997143D01*
X50842857Y11854286D01*
X50890476Y11759048D01*
X50938095Y11711429D01*
X51033333Y11663810D01*
X51414285Y11663810D01*
X50509523Y12187620D02*
X49890476Y12187620D01*
X50223809Y11806667D01*
X50080952Y11806667D01*
X49985714Y11759048D01*
X49938095Y11711429D01*
X49890476Y11616191D01*
X49890476Y11378096D01*
X49938095Y11282858D01*
X49985714Y11235239D01*
X50080952Y11187620D01*
X50366666Y11187620D01*
X50461904Y11235239D01*
X50509523Y11282858D01*
X49557142Y12187620D02*
X48938095Y12187620D01*
X49271428Y11806667D01*
X49128571Y11806667D01*
X49033333Y11759048D01*
X48985714Y11711429D01*
X48938095Y11616191D01*
X48938095Y11378096D01*
X48985714Y11282858D01*
X49033333Y11235239D01*
X49128571Y11187620D01*
X49414285Y11187620D01*
X49509523Y11235239D01*
X49557142Y11282858D01*
X10442857Y17107620D02*
X10776190Y17583810D01*
X11014285Y17107620D02*
X11014285Y18107620D01*
X10633333Y18107620D01*
X10538095Y18060000D01*
X10490476Y18012381D01*
X10442857Y17917143D01*
X10442857Y17774286D01*
X10490476Y17679048D01*
X10538095Y17631429D01*
X10633333Y17583810D01*
X11014285Y17583810D01*
X10061904Y18012381D02*
X10014285Y18060000D01*
X9919047Y18107620D01*
X9680952Y18107620D01*
X9585714Y18060000D01*
X9538095Y18012381D01*
X9490476Y17917143D01*
X9490476Y17821905D01*
X9538095Y17679048D01*
X10109523Y17107620D01*
X9490476Y17107620D01*
X8538095Y17107620D02*
X9109523Y17107620D01*
X8823809Y17107620D02*
X8823809Y18107620D01*
X8919047Y17964762D01*
X9014285Y17869524D01*
X9109523Y17821905D01*
X10442857Y29567620D02*
X10776190Y30043810D01*
X11014285Y29567620D02*
X11014285Y30567620D01*
X10633333Y30567620D01*
X10538095Y30520000D01*
X10490476Y30472381D01*
X10442857Y30377143D01*
X10442857Y30234286D01*
X10490476Y30139048D01*
X10538095Y30091429D01*
X10633333Y30043810D01*
X11014285Y30043810D01*
X10061904Y30472381D02*
X10014285Y30520000D01*
X9919047Y30567620D01*
X9680952Y30567620D01*
X9585714Y30520000D01*
X9538095Y30472381D01*
X9490476Y30377143D01*
X9490476Y30281905D01*
X9538095Y30139048D01*
X10109523Y29567620D01*
X9490476Y29567620D01*
X8871428Y30567620D02*
X8776190Y30567620D01*
X8680952Y30520000D01*
X8633333Y30472381D01*
X8585714Y30377143D01*
X8538095Y30186667D01*
X8538095Y29948572D01*
X8585714Y29758096D01*
X8633333Y29662858D01*
X8680952Y29615239D01*
X8776190Y29567620D01*
X8871428Y29567620D01*
X8966666Y29615239D01*
X9014285Y29662858D01*
X9061904Y29758096D01*
X9109523Y29948572D01*
X9109523Y30186667D01*
X9061904Y30377143D01*
X9014285Y30472381D01*
X8966666Y30520000D01*
X8871428Y30567620D01*
X50855357Y23367620D02*
X51188690Y23843810D01*
X51426785Y23367620D02*
X51426785Y24367620D01*
X51045833Y24367620D01*
X50950595Y24320000D01*
X50902976Y24272381D01*
X50855357Y24177143D01*
X50855357Y24034286D01*
X50902976Y23939048D01*
X50950595Y23891429D01*
X51045833Y23843810D01*
X51426785Y23843810D01*
X49902976Y23367620D02*
X50474404Y23367620D01*
X50188690Y23367620D02*
X50188690Y24367620D01*
X50283928Y24224762D01*
X50379166Y24129524D01*
X50474404Y24081905D01*
X49426785Y23367620D02*
X49236309Y23367620D01*
X49141071Y23415239D01*
X49093452Y23462858D01*
X48998214Y23605715D01*
X48950595Y23796191D01*
X48950595Y24177143D01*
X48998214Y24272381D01*
X49045833Y24320000D01*
X49141071Y24367620D01*
X49331547Y24367620D01*
X49426785Y24320000D01*
X49474404Y24272381D01*
X49522023Y24177143D01*
X49522023Y23939048D01*
X49474404Y23843810D01*
X49426785Y23796191D01*
X49331547Y23748572D01*
X49141071Y23748572D01*
X49045833Y23796191D01*
X48998214Y23843810D01*
X48950595Y23939048D01*
X50842857Y32767620D02*
X51176190Y33243810D01*
X51414285Y32767620D02*
X51414285Y33767620D01*
X51033333Y33767620D01*
X50938095Y33720000D01*
X50890476Y33672381D01*
X50842857Y33577143D01*
X50842857Y33434286D01*
X50890476Y33339048D01*
X50938095Y33291429D01*
X51033333Y33243810D01*
X51414285Y33243810D01*
X49890476Y32767620D02*
X50461904Y32767620D01*
X50176190Y32767620D02*
X50176190Y33767620D01*
X50271428Y33624762D01*
X50366666Y33529524D01*
X50461904Y33481905D01*
X48985714Y33767620D02*
X49461904Y33767620D01*
X49509523Y33291429D01*
X49461904Y33339048D01*
X49366666Y33386667D01*
X49128571Y33386667D01*
X49033333Y33339048D01*
X48985714Y33291429D01*
X48938095Y33196191D01*
X48938095Y32958096D01*
X48985714Y32862858D01*
X49033333Y32815239D01*
X49128571Y32767620D01*
X49366666Y32767620D01*
X49461904Y32815239D01*
X49509523Y32862858D01*
X7842857Y28337620D02*
X8176190Y28813810D01*
X8414285Y28337620D02*
X8414285Y29337620D01*
X8033333Y29337620D01*
X7938095Y29290000D01*
X7890476Y29242381D01*
X7842857Y29147143D01*
X7842857Y29004286D01*
X7890476Y28909048D01*
X7938095Y28861429D01*
X8033333Y28813810D01*
X8414285Y28813810D01*
X6890476Y28337620D02*
X7461904Y28337620D01*
X7176190Y28337620D02*
X7176190Y29337620D01*
X7271428Y29194762D01*
X7366666Y29099524D01*
X7461904Y29051905D01*
X5938095Y28337620D02*
X6509523Y28337620D01*
X6223809Y28337620D02*
X6223809Y29337620D01*
X6319047Y29194762D01*
X6414285Y29099524D01*
X6509523Y29051905D01*
X21042857Y18832858D02*
X21090476Y18785239D01*
X21233333Y18737620D01*
X21328571Y18737620D01*
X21471428Y18785239D01*
X21566666Y18880477D01*
X21614285Y18975715D01*
X21661904Y19166191D01*
X21661904Y19309048D01*
X21614285Y19499524D01*
X21566666Y19594762D01*
X21471428Y19690000D01*
X21328571Y19737620D01*
X21233333Y19737620D01*
X21090476Y19690000D01*
X21042857Y19642381D01*
X20471428Y19309048D02*
X20566666Y19356667D01*
X20614285Y19404286D01*
X20661904Y19499524D01*
X20661904Y19547143D01*
X20614285Y19642381D01*
X20566666Y19690000D01*
X20471428Y19737620D01*
X20280952Y19737620D01*
X20185714Y19690000D01*
X20138095Y19642381D01*
X20090476Y19547143D01*
X20090476Y19499524D01*
X20138095Y19404286D01*
X20185714Y19356667D01*
X20280952Y19309048D01*
X20471428Y19309048D01*
X20566666Y19261429D01*
X20614285Y19213810D01*
X20661904Y19118572D01*
X20661904Y18928096D01*
X20614285Y18832858D01*
X20566666Y18785239D01*
X20471428Y18737620D01*
X20280952Y18737620D01*
X20185714Y18785239D01*
X20138095Y18832858D01*
X20090476Y18928096D01*
X20090476Y19118572D01*
X20138095Y19213810D01*
X20185714Y19261429D01*
X20280952Y19309048D01*
X19757142Y19737620D02*
X19090476Y19737620D01*
X19519047Y18737620D01*
X32307106Y41592031D02*
X32374450Y41592031D01*
X32509137Y41659375D01*
X32576480Y41726718D01*
X32643824Y41861405D01*
X32643824Y41996092D01*
X32610152Y42097107D01*
X32509137Y42265466D01*
X32408122Y42366481D01*
X32239763Y42467497D01*
X32138748Y42501168D01*
X32004061Y42501168D01*
X31869374Y42433825D01*
X31802030Y42366481D01*
X31734687Y42231794D01*
X31734687Y42164451D01*
X31296954Y41390000D02*
X31768358Y40918596D01*
X31195938Y41827733D02*
X31869374Y41491016D01*
X31431641Y41053283D01*
X30892893Y40851252D02*
X30926564Y40952268D01*
X30926564Y41019611D01*
X30892893Y41120626D01*
X30859221Y41154298D01*
X30758206Y41187970D01*
X30690862Y41187970D01*
X30589847Y41154298D01*
X30455160Y41019611D01*
X30421488Y40918596D01*
X30421488Y40851252D01*
X30455160Y40750237D01*
X30488832Y40716565D01*
X30589847Y40682894D01*
X30657190Y40682894D01*
X30758206Y40716565D01*
X30892893Y40851252D01*
X30993908Y40884924D01*
X31061251Y40884924D01*
X31162267Y40851252D01*
X31296954Y40716565D01*
X31330625Y40615550D01*
X31330625Y40548207D01*
X31296954Y40447191D01*
X31162267Y40312504D01*
X31061251Y40278833D01*
X30993908Y40278833D01*
X30892893Y40312504D01*
X30758206Y40447191D01*
X30724534Y40548207D01*
X30724534Y40615550D01*
X30758206Y40716565D01*
X34534421Y39364716D02*
X34601765Y39364716D01*
X34736452Y39432060D01*
X34803795Y39499403D01*
X34871139Y39634090D01*
X34871139Y39768777D01*
X34837467Y39869792D01*
X34736452Y40038151D01*
X34635437Y40139166D01*
X34467078Y40240182D01*
X34366063Y40273853D01*
X34231376Y40273853D01*
X34096689Y40206510D01*
X34029345Y40139166D01*
X33962002Y40004479D01*
X33962002Y39937136D01*
X33524269Y39162685D02*
X33995673Y38691281D01*
X33423253Y39600418D02*
X34096689Y39263701D01*
X33658956Y38825968D01*
X32985521Y39095342D02*
X32514116Y38623937D01*
X33524269Y38219876D01*
X32227142Y35532858D02*
X32274761Y35580477D01*
X32322380Y35723334D01*
X32322380Y35818572D01*
X32274761Y35961429D01*
X32179523Y36056667D01*
X32084285Y36104286D01*
X31893809Y36151905D01*
X31750952Y36151905D01*
X31560476Y36104286D01*
X31465238Y36056667D01*
X31370000Y35961429D01*
X31322380Y35818572D01*
X31322380Y35723334D01*
X31370000Y35580477D01*
X31417619Y35532858D01*
X31322380Y35199524D02*
X31322380Y34580477D01*
X31703333Y34913810D01*
X31703333Y34770953D01*
X31750952Y34675715D01*
X31798571Y34628096D01*
X31893809Y34580477D01*
X32131904Y34580477D01*
X32227142Y34628096D01*
X32274761Y34675715D01*
X32322380Y34770953D01*
X32322380Y35056667D01*
X32274761Y35151905D01*
X32227142Y35199524D01*
X31322380Y34247143D02*
X31322380Y33628096D01*
X31703333Y33961429D01*
X31703333Y33818572D01*
X31750952Y33723334D01*
X31798571Y33675715D01*
X31893809Y33628096D01*
X32131904Y33628096D01*
X32227142Y33675715D01*
X32274761Y33723334D01*
X32322380Y33818572D01*
X32322380Y34104286D01*
X32274761Y34199524D01*
X32227142Y34247143D01*
X34242857Y28232858D02*
X34290476Y28185239D01*
X34433333Y28137620D01*
X34528571Y28137620D01*
X34671428Y28185239D01*
X34766666Y28280477D01*
X34814285Y28375715D01*
X34861904Y28566191D01*
X34861904Y28709048D01*
X34814285Y28899524D01*
X34766666Y28994762D01*
X34671428Y29090000D01*
X34528571Y29137620D01*
X34433333Y29137620D01*
X34290476Y29090000D01*
X34242857Y29042381D01*
X33385714Y28804286D02*
X33385714Y28137620D01*
X33623809Y29185239D02*
X33861904Y28470953D01*
X33242857Y28470953D01*
X32385714Y29137620D02*
X32861904Y29137620D01*
X32909523Y28661429D01*
X32861904Y28709048D01*
X32766666Y28756667D01*
X32528571Y28756667D01*
X32433333Y28709048D01*
X32385714Y28661429D01*
X32338095Y28566191D01*
X32338095Y28328096D01*
X32385714Y28232858D01*
X32433333Y28185239D01*
X32528571Y28137620D01*
X32766666Y28137620D01*
X32861904Y28185239D01*
X32909523Y28232858D01*
X6442857Y39232858D02*
X6490476Y39185239D01*
X6633333Y39137620D01*
X6728571Y39137620D01*
X6871428Y39185239D01*
X6966666Y39280477D01*
X7014285Y39375715D01*
X7061904Y39566191D01*
X7061904Y39709048D01*
X7014285Y39899524D01*
X6966666Y39994762D01*
X6871428Y40090000D01*
X6728571Y40137620D01*
X6633333Y40137620D01*
X6490476Y40090000D01*
X6442857Y40042381D01*
X6109523Y40137620D02*
X5490476Y40137620D01*
X5823809Y39756667D01*
X5680952Y39756667D01*
X5585714Y39709048D01*
X5538095Y39661429D01*
X5490476Y39566191D01*
X5490476Y39328096D01*
X5538095Y39232858D01*
X5585714Y39185239D01*
X5680952Y39137620D01*
X5966666Y39137620D01*
X6061904Y39185239D01*
X6109523Y39232858D01*
X4538095Y39137620D02*
X5109523Y39137620D01*
X4823809Y39137620D02*
X4823809Y40137620D01*
X4919047Y39994762D01*
X5014285Y39899524D01*
X5109523Y39851905D01*
X15857142Y41532858D02*
X15904761Y41580477D01*
X15952380Y41723334D01*
X15952380Y41818572D01*
X15904761Y41961429D01*
X15809523Y42056667D01*
X15714285Y42104286D01*
X15523809Y42151905D01*
X15380952Y42151905D01*
X15190476Y42104286D01*
X15095238Y42056667D01*
X15000000Y41961429D01*
X14952380Y41818572D01*
X14952380Y41723334D01*
X15000000Y41580477D01*
X15047619Y41532858D01*
X15047619Y41151905D02*
X15000000Y41104286D01*
X14952380Y41009048D01*
X14952380Y40770953D01*
X15000000Y40675715D01*
X15047619Y40628096D01*
X15142857Y40580477D01*
X15238095Y40580477D01*
X15380952Y40628096D01*
X15952380Y41199524D01*
X15952380Y40580477D01*
X15952380Y40104286D02*
X15952380Y39913810D01*
X15904761Y39818572D01*
X15857142Y39770953D01*
X15714285Y39675715D01*
X15523809Y39628096D01*
X15142857Y39628096D01*
X15047619Y39675715D01*
X15000000Y39723334D01*
X14952380Y39818572D01*
X14952380Y40009048D01*
X15000000Y40104286D01*
X15047619Y40151905D01*
X15142857Y40199524D01*
X15380952Y40199524D01*
X15476190Y40151905D01*
X15523809Y40104286D01*
X15571428Y40009048D01*
X15571428Y39818572D01*
X15523809Y39723334D01*
X15476190Y39675715D01*
X15380952Y39628096D01*
X10242857Y32832858D02*
X10290476Y32785239D01*
X10433333Y32737620D01*
X10528571Y32737620D01*
X10671428Y32785239D01*
X10766666Y32880477D01*
X10814285Y32975715D01*
X10861904Y33166191D01*
X10861904Y33309048D01*
X10814285Y33499524D01*
X10766666Y33594762D01*
X10671428Y33690000D01*
X10528571Y33737620D01*
X10433333Y33737620D01*
X10290476Y33690000D01*
X10242857Y33642381D01*
X9861904Y33642381D02*
X9814285Y33690000D01*
X9719047Y33737620D01*
X9480952Y33737620D01*
X9385714Y33690000D01*
X9338095Y33642381D01*
X9290476Y33547143D01*
X9290476Y33451905D01*
X9338095Y33309048D01*
X9909523Y32737620D01*
X9290476Y32737620D01*
X8957142Y33737620D02*
X8290476Y33737620D01*
X8719047Y32737620D01*
X21442857Y35032858D02*
X21490476Y34985239D01*
X21633333Y34937620D01*
X21728571Y34937620D01*
X21871428Y34985239D01*
X21966666Y35080477D01*
X22014285Y35175715D01*
X22061904Y35366191D01*
X22061904Y35509048D01*
X22014285Y35699524D01*
X21966666Y35794762D01*
X21871428Y35890000D01*
X21728571Y35937620D01*
X21633333Y35937620D01*
X21490476Y35890000D01*
X21442857Y35842381D01*
X21061904Y35842381D02*
X21014285Y35890000D01*
X20919047Y35937620D01*
X20680952Y35937620D01*
X20585714Y35890000D01*
X20538095Y35842381D01*
X20490476Y35747143D01*
X20490476Y35651905D01*
X20538095Y35509048D01*
X21109523Y34937620D01*
X20490476Y34937620D01*
X19585714Y35937620D02*
X20061904Y35937620D01*
X20109523Y35461429D01*
X20061904Y35509048D01*
X19966666Y35556667D01*
X19728571Y35556667D01*
X19633333Y35509048D01*
X19585714Y35461429D01*
X19538095Y35366191D01*
X19538095Y35128096D01*
X19585714Y35032858D01*
X19633333Y34985239D01*
X19728571Y34937620D01*
X19966666Y34937620D01*
X20061904Y34985239D01*
X20109523Y35032858D01*
X7042857Y42232858D02*
X7090476Y42185239D01*
X7233333Y42137620D01*
X7328571Y42137620D01*
X7471428Y42185239D01*
X7566666Y42280477D01*
X7614285Y42375715D01*
X7661904Y42566191D01*
X7661904Y42709048D01*
X7614285Y42899524D01*
X7566666Y42994762D01*
X7471428Y43090000D01*
X7328571Y43137620D01*
X7233333Y43137620D01*
X7090476Y43090000D01*
X7042857Y43042381D01*
X6661904Y43042381D02*
X6614285Y43090000D01*
X6519047Y43137620D01*
X6280952Y43137620D01*
X6185714Y43090000D01*
X6138095Y43042381D01*
X6090476Y42947143D01*
X6090476Y42851905D01*
X6138095Y42709048D01*
X6709523Y42137620D01*
X6090476Y42137620D01*
X5757142Y43137620D02*
X5138095Y43137620D01*
X5471428Y42756667D01*
X5328571Y42756667D01*
X5233333Y42709048D01*
X5185714Y42661429D01*
X5138095Y42566191D01*
X5138095Y42328096D01*
X5185714Y42232858D01*
X5233333Y42185239D01*
X5328571Y42137620D01*
X5614285Y42137620D01*
X5709523Y42185239D01*
X5757142Y42232858D01*
X8777142Y9032858D02*
X8824761Y9080477D01*
X8872380Y9223334D01*
X8872380Y9318572D01*
X8824761Y9461429D01*
X8729523Y9556667D01*
X8634285Y9604286D01*
X8443809Y9651905D01*
X8300952Y9651905D01*
X8110476Y9604286D01*
X8015238Y9556667D01*
X7920000Y9461429D01*
X7872380Y9318572D01*
X7872380Y9223334D01*
X7920000Y9080477D01*
X7967619Y9032858D01*
X8872380Y8080477D02*
X8872380Y8651905D01*
X8872380Y8366191D02*
X7872380Y8366191D01*
X8015238Y8461429D01*
X8110476Y8556667D01*
X8158095Y8651905D01*
X8300952Y7509048D02*
X8253333Y7604286D01*
X8205714Y7651905D01*
X8110476Y7699524D01*
X8062857Y7699524D01*
X7967619Y7651905D01*
X7920000Y7604286D01*
X7872380Y7509048D01*
X7872380Y7318572D01*
X7920000Y7223334D01*
X7967619Y7175715D01*
X8062857Y7128096D01*
X8110476Y7128096D01*
X8205714Y7175715D01*
X8253333Y7223334D01*
X8300952Y7318572D01*
X8300952Y7509048D01*
X8348571Y7604286D01*
X8396190Y7651905D01*
X8491428Y7699524D01*
X8681904Y7699524D01*
X8777142Y7651905D01*
X8824761Y7604286D01*
X8872380Y7509048D01*
X8872380Y7318572D01*
X8824761Y7223334D01*
X8777142Y7175715D01*
X8681904Y7128096D01*
X8491428Y7128096D01*
X8396190Y7175715D01*
X8348571Y7223334D01*
X8300952Y7318572D01*
X27157142Y17632858D02*
X27204761Y17680477D01*
X27252380Y17823334D01*
X27252380Y17918572D01*
X27204761Y18061429D01*
X27109523Y18156667D01*
X27014285Y18204286D01*
X26823809Y18251905D01*
X26680952Y18251905D01*
X26490476Y18204286D01*
X26395238Y18156667D01*
X26300000Y18061429D01*
X26252380Y17918572D01*
X26252380Y17823334D01*
X26300000Y17680477D01*
X26347619Y17632858D01*
X26585714Y16775715D02*
X27252380Y16775715D01*
X26204761Y17013810D02*
X26919047Y17251905D01*
X26919047Y16632858D01*
X26252380Y16347143D02*
X26252380Y15728096D01*
X26633333Y16061429D01*
X26633333Y15918572D01*
X26680952Y15823334D01*
X26728571Y15775715D01*
X26823809Y15728096D01*
X27061904Y15728096D01*
X27157142Y15775715D01*
X27204761Y15823334D01*
X27252380Y15918572D01*
X27252380Y16204286D01*
X27204761Y16299524D01*
X27157142Y16347143D01*
X43642857Y15832858D02*
X43690476Y15785239D01*
X43833333Y15737620D01*
X43928571Y15737620D01*
X44071428Y15785239D01*
X44166666Y15880477D01*
X44214285Y15975715D01*
X44261904Y16166191D01*
X44261904Y16309048D01*
X44214285Y16499524D01*
X44166666Y16594762D01*
X44071428Y16690000D01*
X43928571Y16737620D01*
X43833333Y16737620D01*
X43690476Y16690000D01*
X43642857Y16642381D01*
X43309523Y16737620D02*
X42690476Y16737620D01*
X43023809Y16356667D01*
X42880952Y16356667D01*
X42785714Y16309048D01*
X42738095Y16261429D01*
X42690476Y16166191D01*
X42690476Y15928096D01*
X42738095Y15832858D01*
X42785714Y15785239D01*
X42880952Y15737620D01*
X43166666Y15737620D01*
X43261904Y15785239D01*
X43309523Y15832858D01*
X42214285Y15737620D02*
X42023809Y15737620D01*
X41928571Y15785239D01*
X41880952Y15832858D01*
X41785714Y15975715D01*
X41738095Y16166191D01*
X41738095Y16547143D01*
X41785714Y16642381D01*
X41833333Y16690000D01*
X41928571Y16737620D01*
X42119047Y16737620D01*
X42214285Y16690000D01*
X42261904Y16642381D01*
X42309523Y16547143D01*
X42309523Y16309048D01*
X42261904Y16213810D01*
X42214285Y16166191D01*
X42119047Y16118572D01*
X41928571Y16118572D01*
X41833333Y16166191D01*
X41785714Y16213810D01*
X41738095Y16309048D01*
X17642857Y15232858D02*
X17690476Y15185239D01*
X17833333Y15137620D01*
X17928571Y15137620D01*
X18071428Y15185239D01*
X18166666Y15280477D01*
X18214285Y15375715D01*
X18261904Y15566191D01*
X18261904Y15709048D01*
X18214285Y15899524D01*
X18166666Y15994762D01*
X18071428Y16090000D01*
X17928571Y16137620D01*
X17833333Y16137620D01*
X17690476Y16090000D01*
X17642857Y16042381D01*
X17309523Y16137620D02*
X16690476Y16137620D01*
X17023809Y15756667D01*
X16880952Y15756667D01*
X16785714Y15709048D01*
X16738095Y15661429D01*
X16690476Y15566191D01*
X16690476Y15328096D01*
X16738095Y15232858D01*
X16785714Y15185239D01*
X16880952Y15137620D01*
X17166666Y15137620D01*
X17261904Y15185239D01*
X17309523Y15232858D01*
X15833333Y16137620D02*
X16023809Y16137620D01*
X16119047Y16090000D01*
X16166666Y16042381D01*
X16261904Y15899524D01*
X16309523Y15709048D01*
X16309523Y15328096D01*
X16261904Y15232858D01*
X16214285Y15185239D01*
X16119047Y15137620D01*
X15928571Y15137620D01*
X15833333Y15185239D01*
X15785714Y15232858D01*
X15738095Y15328096D01*
X15738095Y15566191D01*
X15785714Y15661429D01*
X15833333Y15709048D01*
X15928571Y15756667D01*
X16119047Y15756667D01*
X16214285Y15709048D01*
X16261904Y15661429D01*
X16309523Y15566191D01*
X42842857Y25232858D02*
X42890476Y25185239D01*
X43033333Y25137620D01*
X43128571Y25137620D01*
X43271428Y25185239D01*
X43366666Y25280477D01*
X43414285Y25375715D01*
X43461904Y25566191D01*
X43461904Y25709048D01*
X43414285Y25899524D01*
X43366666Y25994762D01*
X43271428Y26090000D01*
X43128571Y26137620D01*
X43033333Y26137620D01*
X42890476Y26090000D01*
X42842857Y26042381D01*
X42509523Y26137620D02*
X41890476Y26137620D01*
X42223809Y25756667D01*
X42080952Y25756667D01*
X41985714Y25709048D01*
X41938095Y25661429D01*
X41890476Y25566191D01*
X41890476Y25328096D01*
X41938095Y25232858D01*
X41985714Y25185239D01*
X42080952Y25137620D01*
X42366666Y25137620D01*
X42461904Y25185239D01*
X42509523Y25232858D01*
X40985714Y26137620D02*
X41461904Y26137620D01*
X41509523Y25661429D01*
X41461904Y25709048D01*
X41366666Y25756667D01*
X41128571Y25756667D01*
X41033333Y25709048D01*
X40985714Y25661429D01*
X40938095Y25566191D01*
X40938095Y25328096D01*
X40985714Y25232858D01*
X41033333Y25185239D01*
X41128571Y25137620D01*
X41366666Y25137620D01*
X41461904Y25185239D01*
X41509523Y25232858D01*
X43242857Y34632858D02*
X43290476Y34585239D01*
X43433333Y34537620D01*
X43528571Y34537620D01*
X43671428Y34585239D01*
X43766666Y34680477D01*
X43814285Y34775715D01*
X43861904Y34966191D01*
X43861904Y35109048D01*
X43814285Y35299524D01*
X43766666Y35394762D01*
X43671428Y35490000D01*
X43528571Y35537620D01*
X43433333Y35537620D01*
X43290476Y35490000D01*
X43242857Y35442381D01*
X42290476Y34537620D02*
X42861904Y34537620D01*
X42576190Y34537620D02*
X42576190Y35537620D01*
X42671428Y35394762D01*
X42766666Y35299524D01*
X42861904Y35251905D01*
X41671428Y35537620D02*
X41576190Y35537620D01*
X41480952Y35490000D01*
X41433333Y35442381D01*
X41385714Y35347143D01*
X41338095Y35156667D01*
X41338095Y34918572D01*
X41385714Y34728096D01*
X41433333Y34632858D01*
X41480952Y34585239D01*
X41576190Y34537620D01*
X41671428Y34537620D01*
X41766666Y34585239D01*
X41814285Y34632858D01*
X41861904Y34728096D01*
X41909523Y34918572D01*
X41909523Y35156667D01*
X41861904Y35347143D01*
X41814285Y35442381D01*
X41766666Y35490000D01*
X41671428Y35537620D01*
X17166666Y24632858D02*
X17214285Y24585239D01*
X17357142Y24537620D01*
X17452380Y24537620D01*
X17595238Y24585239D01*
X17690476Y24680477D01*
X17738095Y24775715D01*
X17785714Y24966191D01*
X17785714Y25109048D01*
X17738095Y25299524D01*
X17690476Y25394762D01*
X17595238Y25490000D01*
X17452380Y25537620D01*
X17357142Y25537620D01*
X17214285Y25490000D01*
X17166666Y25442381D01*
X16833333Y25537620D02*
X16166666Y25537620D01*
X16595238Y24537620D01*
X30966666Y15612858D02*
X31014285Y15565239D01*
X31157142Y15517620D01*
X31252380Y15517620D01*
X31395238Y15565239D01*
X31490476Y15660477D01*
X31538095Y15755715D01*
X31585714Y15946191D01*
X31585714Y16089048D01*
X31538095Y16279524D01*
X31490476Y16374762D01*
X31395238Y16470000D01*
X31252380Y16517620D01*
X31157142Y16517620D01*
X31014285Y16470000D01*
X30966666Y16422381D01*
X30014285Y15517620D02*
X30585714Y15517620D01*
X30300000Y15517620D02*
X30300000Y16517620D01*
X30395238Y16374762D01*
X30490476Y16279524D01*
X30585714Y16231905D01*
X20042857Y27532858D02*
X20090476Y27485239D01*
X20233333Y27437620D01*
X20328571Y27437620D01*
X20471428Y27485239D01*
X20566666Y27580477D01*
X20614285Y27675715D01*
X20661904Y27866191D01*
X20661904Y28009048D01*
X20614285Y28199524D01*
X20566666Y28294762D01*
X20471428Y28390000D01*
X20328571Y28437620D01*
X20233333Y28437620D01*
X20090476Y28390000D01*
X20042857Y28342381D01*
X19566666Y27437620D02*
X19376190Y27437620D01*
X19280952Y27485239D01*
X19233333Y27532858D01*
X19138095Y27675715D01*
X19090476Y27866191D01*
X19090476Y28247143D01*
X19138095Y28342381D01*
X19185714Y28390000D01*
X19280952Y28437620D01*
X19471428Y28437620D01*
X19566666Y28390000D01*
X19614285Y28342381D01*
X19661904Y28247143D01*
X19661904Y28009048D01*
X19614285Y27913810D01*
X19566666Y27866191D01*
X19471428Y27818572D01*
X19280952Y27818572D01*
X19185714Y27866191D01*
X19138095Y27913810D01*
X19090476Y28009048D01*
X18519047Y28009048D02*
X18614285Y28056667D01*
X18661904Y28104286D01*
X18709523Y28199524D01*
X18709523Y28247143D01*
X18661904Y28342381D01*
X18614285Y28390000D01*
X18519047Y28437620D01*
X18328571Y28437620D01*
X18233333Y28390000D01*
X18185714Y28342381D01*
X18138095Y28247143D01*
X18138095Y28199524D01*
X18185714Y28104286D01*
X18233333Y28056667D01*
X18328571Y28009048D01*
X18519047Y28009048D01*
X18614285Y27961429D01*
X18661904Y27913810D01*
X18709523Y27818572D01*
X18709523Y27628096D01*
X18661904Y27532858D01*
X18614285Y27485239D01*
X18519047Y27437620D01*
X18328571Y27437620D01*
X18233333Y27485239D01*
X18185714Y27532858D01*
X18138095Y27628096D01*
X18138095Y27818572D01*
X18185714Y27913810D01*
X18233333Y27961429D01*
X18328571Y28009048D01*
X25642857Y14832858D02*
X25690476Y14785239D01*
X25833333Y14737620D01*
X25928571Y14737620D01*
X26071428Y14785239D01*
X26166666Y14880477D01*
X26214285Y14975715D01*
X26261904Y15166191D01*
X26261904Y15309048D01*
X26214285Y15499524D01*
X26166666Y15594762D01*
X26071428Y15690000D01*
X25928571Y15737620D01*
X25833333Y15737620D01*
X25690476Y15690000D01*
X25642857Y15642381D01*
X25166666Y14737620D02*
X24976190Y14737620D01*
X24880952Y14785239D01*
X24833333Y14832858D01*
X24738095Y14975715D01*
X24690476Y15166191D01*
X24690476Y15547143D01*
X24738095Y15642381D01*
X24785714Y15690000D01*
X24880952Y15737620D01*
X25071428Y15737620D01*
X25166666Y15690000D01*
X25214285Y15642381D01*
X25261904Y15547143D01*
X25261904Y15309048D01*
X25214285Y15213810D01*
X25166666Y15166191D01*
X25071428Y15118572D01*
X24880952Y15118572D01*
X24785714Y15166191D01*
X24738095Y15213810D01*
X24690476Y15309048D01*
X24357142Y15737620D02*
X23690476Y15737620D01*
X24119047Y14737620D01*
X23642857Y29202858D02*
X23690476Y29155239D01*
X23833333Y29107620D01*
X23928571Y29107620D01*
X24071428Y29155239D01*
X24166666Y29250477D01*
X24214285Y29345715D01*
X24261904Y29536191D01*
X24261904Y29679048D01*
X24214285Y29869524D01*
X24166666Y29964762D01*
X24071428Y30060000D01*
X23928571Y30107620D01*
X23833333Y30107620D01*
X23690476Y30060000D01*
X23642857Y30012381D01*
X23166666Y29107620D02*
X22976190Y29107620D01*
X22880952Y29155239D01*
X22833333Y29202858D01*
X22738095Y29345715D01*
X22690476Y29536191D01*
X22690476Y29917143D01*
X22738095Y30012381D01*
X22785714Y30060000D01*
X22880952Y30107620D01*
X23071428Y30107620D01*
X23166666Y30060000D01*
X23214285Y30012381D01*
X23261904Y29917143D01*
X23261904Y29679048D01*
X23214285Y29583810D01*
X23166666Y29536191D01*
X23071428Y29488572D01*
X22880952Y29488572D01*
X22785714Y29536191D01*
X22738095Y29583810D01*
X22690476Y29679048D01*
X21833333Y30107620D02*
X22023809Y30107620D01*
X22119047Y30060000D01*
X22166666Y30012381D01*
X22261904Y29869524D01*
X22309523Y29679048D01*
X22309523Y29298096D01*
X22261904Y29202858D01*
X22214285Y29155239D01*
X22119047Y29107620D01*
X21928571Y29107620D01*
X21833333Y29155239D01*
X21785714Y29202858D01*
X21738095Y29298096D01*
X21738095Y29536191D01*
X21785714Y29631429D01*
X21833333Y29679048D01*
X21928571Y29726667D01*
X22119047Y29726667D01*
X22214285Y29679048D01*
X22261904Y29631429D01*
X22309523Y29536191D01*
X23357142Y15432858D02*
X23404761Y15480477D01*
X23452380Y15623334D01*
X23452380Y15718572D01*
X23404761Y15861429D01*
X23309523Y15956667D01*
X23214285Y16004286D01*
X23023809Y16051905D01*
X22880952Y16051905D01*
X22690476Y16004286D01*
X22595238Y15956667D01*
X22500000Y15861429D01*
X22452380Y15718572D01*
X22452380Y15623334D01*
X22500000Y15480477D01*
X22547619Y15432858D01*
X23452380Y14956667D02*
X23452380Y14766191D01*
X23404761Y14670953D01*
X23357142Y14623334D01*
X23214285Y14528096D01*
X23023809Y14480477D01*
X22642857Y14480477D01*
X22547619Y14528096D01*
X22500000Y14575715D01*
X22452380Y14670953D01*
X22452380Y14861429D01*
X22500000Y14956667D01*
X22547619Y15004286D01*
X22642857Y15051905D01*
X22880952Y15051905D01*
X22976190Y15004286D01*
X23023809Y14956667D01*
X23071428Y14861429D01*
X23071428Y14670953D01*
X23023809Y14575715D01*
X22976190Y14528096D01*
X22880952Y14480477D01*
X22452380Y13575715D02*
X22452380Y14051905D01*
X22928571Y14099524D01*
X22880952Y14051905D01*
X22833333Y13956667D01*
X22833333Y13718572D01*
X22880952Y13623334D01*
X22928571Y13575715D01*
X23023809Y13528096D01*
X23261904Y13528096D01*
X23357142Y13575715D01*
X23404761Y13623334D01*
X23452380Y13718572D01*
X23452380Y13956667D01*
X23404761Y14051905D01*
X23357142Y14099524D01*
X19957142Y24632858D02*
X20004761Y24680477D01*
X20052380Y24823334D01*
X20052380Y24918572D01*
X20004761Y25061429D01*
X19909523Y25156667D01*
X19814285Y25204286D01*
X19623809Y25251905D01*
X19480952Y25251905D01*
X19290476Y25204286D01*
X19195238Y25156667D01*
X19100000Y25061429D01*
X19052380Y24918572D01*
X19052380Y24823334D01*
X19100000Y24680477D01*
X19147619Y24632858D01*
X20052380Y24156667D02*
X20052380Y23966191D01*
X20004761Y23870953D01*
X19957142Y23823334D01*
X19814285Y23728096D01*
X19623809Y23680477D01*
X19242857Y23680477D01*
X19147619Y23728096D01*
X19100000Y23775715D01*
X19052380Y23870953D01*
X19052380Y24061429D01*
X19100000Y24156667D01*
X19147619Y24204286D01*
X19242857Y24251905D01*
X19480952Y24251905D01*
X19576190Y24204286D01*
X19623809Y24156667D01*
X19671428Y24061429D01*
X19671428Y23870953D01*
X19623809Y23775715D01*
X19576190Y23728096D01*
X19480952Y23680477D01*
X19385714Y22823334D02*
X20052380Y22823334D01*
X19004761Y23061429D02*
X19719047Y23299524D01*
X19719047Y22680477D01*
X19957142Y17832858D02*
X20004761Y17880477D01*
X20052380Y18023334D01*
X20052380Y18118572D01*
X20004761Y18261429D01*
X19909523Y18356667D01*
X19814285Y18404286D01*
X19623809Y18451905D01*
X19480952Y18451905D01*
X19290476Y18404286D01*
X19195238Y18356667D01*
X19100000Y18261429D01*
X19052380Y18118572D01*
X19052380Y18023334D01*
X19100000Y17880477D01*
X19147619Y17832858D01*
X20052380Y17356667D02*
X20052380Y17166191D01*
X20004761Y17070953D01*
X19957142Y17023334D01*
X19814285Y16928096D01*
X19623809Y16880477D01*
X19242857Y16880477D01*
X19147619Y16928096D01*
X19100000Y16975715D01*
X19052380Y17070953D01*
X19052380Y17261429D01*
X19100000Y17356667D01*
X19147619Y17404286D01*
X19242857Y17451905D01*
X19480952Y17451905D01*
X19576190Y17404286D01*
X19623809Y17356667D01*
X19671428Y17261429D01*
X19671428Y17070953D01*
X19623809Y16975715D01*
X19576190Y16928096D01*
X19480952Y16880477D01*
X19052380Y16547143D02*
X19052380Y15928096D01*
X19433333Y16261429D01*
X19433333Y16118572D01*
X19480952Y16023334D01*
X19528571Y15975715D01*
X19623809Y15928096D01*
X19861904Y15928096D01*
X19957142Y15975715D01*
X20004761Y16023334D01*
X20052380Y16118572D01*
X20052380Y16404286D01*
X20004761Y16499524D01*
X19957142Y16547143D01*
X21442857Y33832858D02*
X21490476Y33785239D01*
X21633333Y33737620D01*
X21728571Y33737620D01*
X21871428Y33785239D01*
X21966666Y33880477D01*
X22014285Y33975715D01*
X22061904Y34166191D01*
X22061904Y34309048D01*
X22014285Y34499524D01*
X21966666Y34594762D01*
X21871428Y34690000D01*
X21728571Y34737620D01*
X21633333Y34737620D01*
X21490476Y34690000D01*
X21442857Y34642381D01*
X20966666Y33737620D02*
X20776190Y33737620D01*
X20680952Y33785239D01*
X20633333Y33832858D01*
X20538095Y33975715D01*
X20490476Y34166191D01*
X20490476Y34547143D01*
X20538095Y34642381D01*
X20585714Y34690000D01*
X20680952Y34737620D01*
X20871428Y34737620D01*
X20966666Y34690000D01*
X21014285Y34642381D01*
X21061904Y34547143D01*
X21061904Y34309048D01*
X21014285Y34213810D01*
X20966666Y34166191D01*
X20871428Y34118572D01*
X20680952Y34118572D01*
X20585714Y34166191D01*
X20538095Y34213810D01*
X20490476Y34309048D01*
X20109523Y34642381D02*
X20061904Y34690000D01*
X19966666Y34737620D01*
X19728571Y34737620D01*
X19633333Y34690000D01*
X19585714Y34642381D01*
X19538095Y34547143D01*
X19538095Y34451905D01*
X19585714Y34309048D01*
X20157142Y33737620D01*
X19538095Y33737620D01*
X22842857Y24032858D02*
X22890476Y23985239D01*
X23033333Y23937620D01*
X23128571Y23937620D01*
X23271428Y23985239D01*
X23366666Y24080477D01*
X23414285Y24175715D01*
X23461904Y24366191D01*
X23461904Y24509048D01*
X23414285Y24699524D01*
X23366666Y24794762D01*
X23271428Y24890000D01*
X23128571Y24937620D01*
X23033333Y24937620D01*
X22890476Y24890000D01*
X22842857Y24842381D01*
X22366666Y23937620D02*
X22176190Y23937620D01*
X22080952Y23985239D01*
X22033333Y24032858D01*
X21938095Y24175715D01*
X21890476Y24366191D01*
X21890476Y24747143D01*
X21938095Y24842381D01*
X21985714Y24890000D01*
X22080952Y24937620D01*
X22271428Y24937620D01*
X22366666Y24890000D01*
X22414285Y24842381D01*
X22461904Y24747143D01*
X22461904Y24509048D01*
X22414285Y24413810D01*
X22366666Y24366191D01*
X22271428Y24318572D01*
X22080952Y24318572D01*
X21985714Y24366191D01*
X21938095Y24413810D01*
X21890476Y24509048D01*
X20938095Y23937620D02*
X21509523Y23937620D01*
X21223809Y23937620D02*
X21223809Y24937620D01*
X21319047Y24794762D01*
X21414285Y24699524D01*
X21509523Y24651905D01*
X21642857Y30862858D02*
X21690476Y30815239D01*
X21833333Y30767620D01*
X21928571Y30767620D01*
X22071428Y30815239D01*
X22166666Y30910477D01*
X22214285Y31005715D01*
X22261904Y31196191D01*
X22261904Y31339048D01*
X22214285Y31529524D01*
X22166666Y31624762D01*
X22071428Y31720000D01*
X21928571Y31767620D01*
X21833333Y31767620D01*
X21690476Y31720000D01*
X21642857Y31672381D01*
X21166666Y30767620D02*
X20976190Y30767620D01*
X20880952Y30815239D01*
X20833333Y30862858D01*
X20738095Y31005715D01*
X20690476Y31196191D01*
X20690476Y31577143D01*
X20738095Y31672381D01*
X20785714Y31720000D01*
X20880952Y31767620D01*
X21071428Y31767620D01*
X21166666Y31720000D01*
X21214285Y31672381D01*
X21261904Y31577143D01*
X21261904Y31339048D01*
X21214285Y31243810D01*
X21166666Y31196191D01*
X21071428Y31148572D01*
X20880952Y31148572D01*
X20785714Y31196191D01*
X20738095Y31243810D01*
X20690476Y31339048D01*
X20071428Y31767620D02*
X19976190Y31767620D01*
X19880952Y31720000D01*
X19833333Y31672381D01*
X19785714Y31577143D01*
X19738095Y31386667D01*
X19738095Y31148572D01*
X19785714Y30958096D01*
X19833333Y30862858D01*
X19880952Y30815239D01*
X19976190Y30767620D01*
X20071428Y30767620D01*
X20166666Y30815239D01*
X20214285Y30862858D01*
X20261904Y30958096D01*
X20309523Y31148572D01*
X20309523Y31386667D01*
X20261904Y31577143D01*
X20214285Y31672381D01*
X20166666Y31720000D01*
X20071428Y31767620D01*
X21842857Y15032858D02*
X21890476Y14985239D01*
X22033333Y14937620D01*
X22128571Y14937620D01*
X22271428Y14985239D01*
X22366666Y15080477D01*
X22414285Y15175715D01*
X22461904Y15366191D01*
X22461904Y15509048D01*
X22414285Y15699524D01*
X22366666Y15794762D01*
X22271428Y15890000D01*
X22128571Y15937620D01*
X22033333Y15937620D01*
X21890476Y15890000D01*
X21842857Y15842381D01*
X21271428Y15509048D02*
X21366666Y15556667D01*
X21414285Y15604286D01*
X21461904Y15699524D01*
X21461904Y15747143D01*
X21414285Y15842381D01*
X21366666Y15890000D01*
X21271428Y15937620D01*
X21080952Y15937620D01*
X20985714Y15890000D01*
X20938095Y15842381D01*
X20890476Y15747143D01*
X20890476Y15699524D01*
X20938095Y15604286D01*
X20985714Y15556667D01*
X21080952Y15509048D01*
X21271428Y15509048D01*
X21366666Y15461429D01*
X21414285Y15413810D01*
X21461904Y15318572D01*
X21461904Y15128096D01*
X21414285Y15032858D01*
X21366666Y14985239D01*
X21271428Y14937620D01*
X21080952Y14937620D01*
X20985714Y14985239D01*
X20938095Y15032858D01*
X20890476Y15128096D01*
X20890476Y15318572D01*
X20938095Y15413810D01*
X20985714Y15461429D01*
X21080952Y15509048D01*
X20414285Y14937620D02*
X20223809Y14937620D01*
X20128571Y14985239D01*
X20080952Y15032858D01*
X19985714Y15175715D01*
X19938095Y15366191D01*
X19938095Y15747143D01*
X19985714Y15842381D01*
X20033333Y15890000D01*
X20128571Y15937620D01*
X20319047Y15937620D01*
X20414285Y15890000D01*
X20461904Y15842381D01*
X20509523Y15747143D01*
X20509523Y15509048D01*
X20461904Y15413810D01*
X20414285Y15366191D01*
X20319047Y15318572D01*
X20128571Y15318572D01*
X20033333Y15366191D01*
X19985714Y15413810D01*
X19938095Y15509048D01*
X20442857Y25832858D02*
X20490476Y25785239D01*
X20633333Y25737620D01*
X20728571Y25737620D01*
X20871428Y25785239D01*
X20966666Y25880477D01*
X21014285Y25975715D01*
X21061904Y26166191D01*
X21061904Y26309048D01*
X21014285Y26499524D01*
X20966666Y26594762D01*
X20871428Y26690000D01*
X20728571Y26737620D01*
X20633333Y26737620D01*
X20490476Y26690000D01*
X20442857Y26642381D01*
X19871428Y26309048D02*
X19966666Y26356667D01*
X20014285Y26404286D01*
X20061904Y26499524D01*
X20061904Y26547143D01*
X20014285Y26642381D01*
X19966666Y26690000D01*
X19871428Y26737620D01*
X19680952Y26737620D01*
X19585714Y26690000D01*
X19538095Y26642381D01*
X19490476Y26547143D01*
X19490476Y26499524D01*
X19538095Y26404286D01*
X19585714Y26356667D01*
X19680952Y26309048D01*
X19871428Y26309048D01*
X19966666Y26261429D01*
X20014285Y26213810D01*
X20061904Y26118572D01*
X20061904Y25928096D01*
X20014285Y25832858D01*
X19966666Y25785239D01*
X19871428Y25737620D01*
X19680952Y25737620D01*
X19585714Y25785239D01*
X19538095Y25832858D01*
X19490476Y25928096D01*
X19490476Y26118572D01*
X19538095Y26213810D01*
X19585714Y26261429D01*
X19680952Y26309048D01*
X18919047Y26309048D02*
X19014285Y26356667D01*
X19061904Y26404286D01*
X19109523Y26499524D01*
X19109523Y26547143D01*
X19061904Y26642381D01*
X19014285Y26690000D01*
X18919047Y26737620D01*
X18728571Y26737620D01*
X18633333Y26690000D01*
X18585714Y26642381D01*
X18538095Y26547143D01*
X18538095Y26499524D01*
X18585714Y26404286D01*
X18633333Y26356667D01*
X18728571Y26309048D01*
X18919047Y26309048D01*
X19014285Y26261429D01*
X19061904Y26213810D01*
X19109523Y26118572D01*
X19109523Y25928096D01*
X19061904Y25832858D01*
X19014285Y25785239D01*
X18919047Y25737620D01*
X18728571Y25737620D01*
X18633333Y25785239D01*
X18585714Y25832858D01*
X18538095Y25928096D01*
X18538095Y26118572D01*
X18585714Y26213810D01*
X18633333Y26261429D01*
X18728571Y26309048D01*
X21757142Y30832858D02*
X21804761Y30880477D01*
X21852380Y31023334D01*
X21852380Y31118572D01*
X21804761Y31261429D01*
X21709523Y31356667D01*
X21614285Y31404286D01*
X21423809Y31451905D01*
X21280952Y31451905D01*
X21090476Y31404286D01*
X20995238Y31356667D01*
X20900000Y31261429D01*
X20852380Y31118572D01*
X20852380Y31023334D01*
X20900000Y30880477D01*
X20947619Y30832858D01*
X21280952Y30261429D02*
X21233333Y30356667D01*
X21185714Y30404286D01*
X21090476Y30451905D01*
X21042857Y30451905D01*
X20947619Y30404286D01*
X20900000Y30356667D01*
X20852380Y30261429D01*
X20852380Y30070953D01*
X20900000Y29975715D01*
X20947619Y29928096D01*
X21042857Y29880477D01*
X21090476Y29880477D01*
X21185714Y29928096D01*
X21233333Y29975715D01*
X21280952Y30070953D01*
X21280952Y30261429D01*
X21328571Y30356667D01*
X21376190Y30404286D01*
X21471428Y30451905D01*
X21661904Y30451905D01*
X21757142Y30404286D01*
X21804761Y30356667D01*
X21852380Y30261429D01*
X21852380Y30070953D01*
X21804761Y29975715D01*
X21757142Y29928096D01*
X21661904Y29880477D01*
X21471428Y29880477D01*
X21376190Y29928096D01*
X21328571Y29975715D01*
X21280952Y30070953D01*
X20852380Y29023334D02*
X20852380Y29213810D01*
X20900000Y29309048D01*
X20947619Y29356667D01*
X21090476Y29451905D01*
X21280952Y29499524D01*
X21661904Y29499524D01*
X21757142Y29451905D01*
X21804761Y29404286D01*
X21852380Y29309048D01*
X21852380Y29118572D01*
X21804761Y29023334D01*
X21757142Y28975715D01*
X21661904Y28928096D01*
X21423809Y28928096D01*
X21328571Y28975715D01*
X21280952Y29023334D01*
X21233333Y29118572D01*
X21233333Y29309048D01*
X21280952Y29404286D01*
X21328571Y29451905D01*
X21423809Y29499524D01*
X20757142Y21832858D02*
X20804761Y21880477D01*
X20852380Y22023334D01*
X20852380Y22118572D01*
X20804761Y22261429D01*
X20709523Y22356667D01*
X20614285Y22404286D01*
X20423809Y22451905D01*
X20280952Y22451905D01*
X20090476Y22404286D01*
X19995238Y22356667D01*
X19900000Y22261429D01*
X19852380Y22118572D01*
X19852380Y22023334D01*
X19900000Y21880477D01*
X19947619Y21832858D01*
X20280952Y21261429D02*
X20233333Y21356667D01*
X20185714Y21404286D01*
X20090476Y21451905D01*
X20042857Y21451905D01*
X19947619Y21404286D01*
X19900000Y21356667D01*
X19852380Y21261429D01*
X19852380Y21070953D01*
X19900000Y20975715D01*
X19947619Y20928096D01*
X20042857Y20880477D01*
X20090476Y20880477D01*
X20185714Y20928096D01*
X20233333Y20975715D01*
X20280952Y21070953D01*
X20280952Y21261429D01*
X20328571Y21356667D01*
X20376190Y21404286D01*
X20471428Y21451905D01*
X20661904Y21451905D01*
X20757142Y21404286D01*
X20804761Y21356667D01*
X20852380Y21261429D01*
X20852380Y21070953D01*
X20804761Y20975715D01*
X20757142Y20928096D01*
X20661904Y20880477D01*
X20471428Y20880477D01*
X20376190Y20928096D01*
X20328571Y20975715D01*
X20280952Y21070953D01*
X19852380Y19975715D02*
X19852380Y20451905D01*
X20328571Y20499524D01*
X20280952Y20451905D01*
X20233333Y20356667D01*
X20233333Y20118572D01*
X20280952Y20023334D01*
X20328571Y19975715D01*
X20423809Y19928096D01*
X20661904Y19928096D01*
X20757142Y19975715D01*
X20804761Y20023334D01*
X20852380Y20118572D01*
X20852380Y20356667D01*
X20804761Y20451905D01*
X20757142Y20499524D01*
X39042857Y34232858D02*
X39090476Y34185239D01*
X39233333Y34137620D01*
X39328571Y34137620D01*
X39471428Y34185239D01*
X39566666Y34280477D01*
X39614285Y34375715D01*
X39661904Y34566191D01*
X39661904Y34709048D01*
X39614285Y34899524D01*
X39566666Y34994762D01*
X39471428Y35090000D01*
X39328571Y35137620D01*
X39233333Y35137620D01*
X39090476Y35090000D01*
X39042857Y35042381D01*
X38471428Y34709048D02*
X38566666Y34756667D01*
X38614285Y34804286D01*
X38661904Y34899524D01*
X38661904Y34947143D01*
X38614285Y35042381D01*
X38566666Y35090000D01*
X38471428Y35137620D01*
X38280952Y35137620D01*
X38185714Y35090000D01*
X38138095Y35042381D01*
X38090476Y34947143D01*
X38090476Y34899524D01*
X38138095Y34804286D01*
X38185714Y34756667D01*
X38280952Y34709048D01*
X38471428Y34709048D01*
X38566666Y34661429D01*
X38614285Y34613810D01*
X38661904Y34518572D01*
X38661904Y34328096D01*
X38614285Y34232858D01*
X38566666Y34185239D01*
X38471428Y34137620D01*
X38280952Y34137620D01*
X38185714Y34185239D01*
X38138095Y34232858D01*
X38090476Y34328096D01*
X38090476Y34518572D01*
X38138095Y34613810D01*
X38185714Y34661429D01*
X38280952Y34709048D01*
X37233333Y34804286D02*
X37233333Y34137620D01*
X37471428Y35185239D02*
X37709523Y34470953D01*
X37090476Y34470953D01*
X41157142Y32032858D02*
X41204761Y32080477D01*
X41252380Y32223334D01*
X41252380Y32318572D01*
X41204761Y32461429D01*
X41109523Y32556667D01*
X41014285Y32604286D01*
X40823809Y32651905D01*
X40680952Y32651905D01*
X40490476Y32604286D01*
X40395238Y32556667D01*
X40300000Y32461429D01*
X40252380Y32318572D01*
X40252380Y32223334D01*
X40300000Y32080477D01*
X40347619Y32032858D01*
X40680952Y31461429D02*
X40633333Y31556667D01*
X40585714Y31604286D01*
X40490476Y31651905D01*
X40442857Y31651905D01*
X40347619Y31604286D01*
X40300000Y31556667D01*
X40252380Y31461429D01*
X40252380Y31270953D01*
X40300000Y31175715D01*
X40347619Y31128096D01*
X40442857Y31080477D01*
X40490476Y31080477D01*
X40585714Y31128096D01*
X40633333Y31175715D01*
X40680952Y31270953D01*
X40680952Y31461429D01*
X40728571Y31556667D01*
X40776190Y31604286D01*
X40871428Y31651905D01*
X41061904Y31651905D01*
X41157142Y31604286D01*
X41204761Y31556667D01*
X41252380Y31461429D01*
X41252380Y31270953D01*
X41204761Y31175715D01*
X41157142Y31128096D01*
X41061904Y31080477D01*
X40871428Y31080477D01*
X40776190Y31128096D01*
X40728571Y31175715D01*
X40680952Y31270953D01*
X40252380Y30747143D02*
X40252380Y30128096D01*
X40633333Y30461429D01*
X40633333Y30318572D01*
X40680952Y30223334D01*
X40728571Y30175715D01*
X40823809Y30128096D01*
X41061904Y30128096D01*
X41157142Y30175715D01*
X41204761Y30223334D01*
X41252380Y30318572D01*
X41252380Y30604286D01*
X41204761Y30699524D01*
X41157142Y30747143D01*
X34157142Y37632858D02*
X34204761Y37680477D01*
X34252380Y37823334D01*
X34252380Y37918572D01*
X34204761Y38061429D01*
X34109523Y38156667D01*
X34014285Y38204286D01*
X33823809Y38251905D01*
X33680952Y38251905D01*
X33490476Y38204286D01*
X33395238Y38156667D01*
X33300000Y38061429D01*
X33252380Y37918572D01*
X33252380Y37823334D01*
X33300000Y37680477D01*
X33347619Y37632858D01*
X33680952Y37061429D02*
X33633333Y37156667D01*
X33585714Y37204286D01*
X33490476Y37251905D01*
X33442857Y37251905D01*
X33347619Y37204286D01*
X33300000Y37156667D01*
X33252380Y37061429D01*
X33252380Y36870953D01*
X33300000Y36775715D01*
X33347619Y36728096D01*
X33442857Y36680477D01*
X33490476Y36680477D01*
X33585714Y36728096D01*
X33633333Y36775715D01*
X33680952Y36870953D01*
X33680952Y37061429D01*
X33728571Y37156667D01*
X33776190Y37204286D01*
X33871428Y37251905D01*
X34061904Y37251905D01*
X34157142Y37204286D01*
X34204761Y37156667D01*
X34252380Y37061429D01*
X34252380Y36870953D01*
X34204761Y36775715D01*
X34157142Y36728096D01*
X34061904Y36680477D01*
X33871428Y36680477D01*
X33776190Y36728096D01*
X33728571Y36775715D01*
X33680952Y36870953D01*
X33347619Y36299524D02*
X33300000Y36251905D01*
X33252380Y36156667D01*
X33252380Y35918572D01*
X33300000Y35823334D01*
X33347619Y35775715D01*
X33442857Y35728096D01*
X33538095Y35728096D01*
X33680952Y35775715D01*
X34252380Y36347143D01*
X34252380Y35728096D01*
X39242857Y29832858D02*
X39290476Y29785239D01*
X39433333Y29737620D01*
X39528571Y29737620D01*
X39671428Y29785239D01*
X39766666Y29880477D01*
X39814285Y29975715D01*
X39861904Y30166191D01*
X39861904Y30309048D01*
X39814285Y30499524D01*
X39766666Y30594762D01*
X39671428Y30690000D01*
X39528571Y30737620D01*
X39433333Y30737620D01*
X39290476Y30690000D01*
X39242857Y30642381D01*
X38671428Y30309048D02*
X38766666Y30356667D01*
X38814285Y30404286D01*
X38861904Y30499524D01*
X38861904Y30547143D01*
X38814285Y30642381D01*
X38766666Y30690000D01*
X38671428Y30737620D01*
X38480952Y30737620D01*
X38385714Y30690000D01*
X38338095Y30642381D01*
X38290476Y30547143D01*
X38290476Y30499524D01*
X38338095Y30404286D01*
X38385714Y30356667D01*
X38480952Y30309048D01*
X38671428Y30309048D01*
X38766666Y30261429D01*
X38814285Y30213810D01*
X38861904Y30118572D01*
X38861904Y29928096D01*
X38814285Y29832858D01*
X38766666Y29785239D01*
X38671428Y29737620D01*
X38480952Y29737620D01*
X38385714Y29785239D01*
X38338095Y29832858D01*
X38290476Y29928096D01*
X38290476Y30118572D01*
X38338095Y30213810D01*
X38385714Y30261429D01*
X38480952Y30309048D01*
X37338095Y29737620D02*
X37909523Y29737620D01*
X37623809Y29737620D02*
X37623809Y30737620D01*
X37719047Y30594762D01*
X37814285Y30499524D01*
X37909523Y30451905D01*
X37042857Y31432858D02*
X37090476Y31385239D01*
X37233333Y31337620D01*
X37328571Y31337620D01*
X37471428Y31385239D01*
X37566666Y31480477D01*
X37614285Y31575715D01*
X37661904Y31766191D01*
X37661904Y31909048D01*
X37614285Y32099524D01*
X37566666Y32194762D01*
X37471428Y32290000D01*
X37328571Y32337620D01*
X37233333Y32337620D01*
X37090476Y32290000D01*
X37042857Y32242381D01*
X36471428Y31909048D02*
X36566666Y31956667D01*
X36614285Y32004286D01*
X36661904Y32099524D01*
X36661904Y32147143D01*
X36614285Y32242381D01*
X36566666Y32290000D01*
X36471428Y32337620D01*
X36280952Y32337620D01*
X36185714Y32290000D01*
X36138095Y32242381D01*
X36090476Y32147143D01*
X36090476Y32099524D01*
X36138095Y32004286D01*
X36185714Y31956667D01*
X36280952Y31909048D01*
X36471428Y31909048D01*
X36566666Y31861429D01*
X36614285Y31813810D01*
X36661904Y31718572D01*
X36661904Y31528096D01*
X36614285Y31432858D01*
X36566666Y31385239D01*
X36471428Y31337620D01*
X36280952Y31337620D01*
X36185714Y31385239D01*
X36138095Y31432858D01*
X36090476Y31528096D01*
X36090476Y31718572D01*
X36138095Y31813810D01*
X36185714Y31861429D01*
X36280952Y31909048D01*
X35471428Y32337620D02*
X35376190Y32337620D01*
X35280952Y32290000D01*
X35233333Y32242381D01*
X35185714Y32147143D01*
X35138095Y31956667D01*
X35138095Y31718572D01*
X35185714Y31528096D01*
X35233333Y31432858D01*
X35280952Y31385239D01*
X35376190Y31337620D01*
X35471428Y31337620D01*
X35566666Y31385239D01*
X35614285Y31432858D01*
X35661904Y31528096D01*
X35709523Y31718572D01*
X35709523Y31956667D01*
X35661904Y32147143D01*
X35614285Y32242381D01*
X35566666Y32290000D01*
X35471428Y32337620D01*
X33842857Y32032858D02*
X33890476Y31985239D01*
X34033333Y31937620D01*
X34128571Y31937620D01*
X34271428Y31985239D01*
X34366666Y32080477D01*
X34414285Y32175715D01*
X34461904Y32366191D01*
X34461904Y32509048D01*
X34414285Y32699524D01*
X34366666Y32794762D01*
X34271428Y32890000D01*
X34128571Y32937620D01*
X34033333Y32937620D01*
X33890476Y32890000D01*
X33842857Y32842381D01*
X33509523Y32937620D02*
X32842857Y32937620D01*
X33271428Y31937620D01*
X32414285Y31937620D02*
X32223809Y31937620D01*
X32128571Y31985239D01*
X32080952Y32032858D01*
X31985714Y32175715D01*
X31938095Y32366191D01*
X31938095Y32747143D01*
X31985714Y32842381D01*
X32033333Y32890000D01*
X32128571Y32937620D01*
X32319047Y32937620D01*
X32414285Y32890000D01*
X32461904Y32842381D01*
X32509523Y32747143D01*
X32509523Y32509048D01*
X32461904Y32413810D01*
X32414285Y32366191D01*
X32319047Y32318572D01*
X32128571Y32318572D01*
X32033333Y32366191D01*
X31985714Y32413810D01*
X31938095Y32509048D01*
X36957142Y38032858D02*
X37004761Y38080477D01*
X37052380Y38223334D01*
X37052380Y38318572D01*
X37004761Y38461429D01*
X36909523Y38556667D01*
X36814285Y38604286D01*
X36623809Y38651905D01*
X36480952Y38651905D01*
X36290476Y38604286D01*
X36195238Y38556667D01*
X36100000Y38461429D01*
X36052380Y38318572D01*
X36052380Y38223334D01*
X36100000Y38080477D01*
X36147619Y38032858D01*
X36052380Y37699524D02*
X36052380Y37032858D01*
X37052380Y37461429D01*
X36480952Y36509048D02*
X36433333Y36604286D01*
X36385714Y36651905D01*
X36290476Y36699524D01*
X36242857Y36699524D01*
X36147619Y36651905D01*
X36100000Y36604286D01*
X36052380Y36509048D01*
X36052380Y36318572D01*
X36100000Y36223334D01*
X36147619Y36175715D01*
X36242857Y36128096D01*
X36290476Y36128096D01*
X36385714Y36175715D01*
X36433333Y36223334D01*
X36480952Y36318572D01*
X36480952Y36509048D01*
X36528571Y36604286D01*
X36576190Y36651905D01*
X36671428Y36699524D01*
X36861904Y36699524D01*
X36957142Y36651905D01*
X37004761Y36604286D01*
X37052380Y36509048D01*
X37052380Y36318572D01*
X37004761Y36223334D01*
X36957142Y36175715D01*
X36861904Y36128096D01*
X36671428Y36128096D01*
X36576190Y36175715D01*
X36528571Y36223334D01*
X36480952Y36318572D01*
X27642857Y21862858D02*
X27690476Y21815239D01*
X27833333Y21767620D01*
X27928571Y21767620D01*
X28071428Y21815239D01*
X28166666Y21910477D01*
X28214285Y22005715D01*
X28261904Y22196191D01*
X28261904Y22339048D01*
X28214285Y22529524D01*
X28166666Y22624762D01*
X28071428Y22720000D01*
X27928571Y22767620D01*
X27833333Y22767620D01*
X27690476Y22720000D01*
X27642857Y22672381D01*
X27309523Y22767620D02*
X26642857Y22767620D01*
X27071428Y21767620D01*
X26357142Y22767620D02*
X25690476Y22767620D01*
X26119047Y21767620D01*
X29527142Y30032858D02*
X29574761Y30080477D01*
X29622380Y30223334D01*
X29622380Y30318572D01*
X29574761Y30461429D01*
X29479523Y30556667D01*
X29384285Y30604286D01*
X29193809Y30651905D01*
X29050952Y30651905D01*
X28860476Y30604286D01*
X28765238Y30556667D01*
X28670000Y30461429D01*
X28622380Y30318572D01*
X28622380Y30223334D01*
X28670000Y30080477D01*
X28717619Y30032858D01*
X28622380Y29699524D02*
X28622380Y29032858D01*
X29622380Y29461429D01*
X28622380Y28223334D02*
X28622380Y28413810D01*
X28670000Y28509048D01*
X28717619Y28556667D01*
X28860476Y28651905D01*
X29050952Y28699524D01*
X29431904Y28699524D01*
X29527142Y28651905D01*
X29574761Y28604286D01*
X29622380Y28509048D01*
X29622380Y28318572D01*
X29574761Y28223334D01*
X29527142Y28175715D01*
X29431904Y28128096D01*
X29193809Y28128096D01*
X29098571Y28175715D01*
X29050952Y28223334D01*
X29003333Y28318572D01*
X29003333Y28509048D01*
X29050952Y28604286D01*
X29098571Y28651905D01*
X29193809Y28699524D01*
X28357142Y18632858D02*
X28404761Y18680477D01*
X28452380Y18823334D01*
X28452380Y18918572D01*
X28404761Y19061429D01*
X28309523Y19156667D01*
X28214285Y19204286D01*
X28023809Y19251905D01*
X27880952Y19251905D01*
X27690476Y19204286D01*
X27595238Y19156667D01*
X27500000Y19061429D01*
X27452380Y18918572D01*
X27452380Y18823334D01*
X27500000Y18680477D01*
X27547619Y18632858D01*
X27452380Y18299524D02*
X27452380Y17632858D01*
X28452380Y18061429D01*
X27452380Y16775715D02*
X27452380Y17251905D01*
X27928571Y17299524D01*
X27880952Y17251905D01*
X27833333Y17156667D01*
X27833333Y16918572D01*
X27880952Y16823334D01*
X27928571Y16775715D01*
X28023809Y16728096D01*
X28261904Y16728096D01*
X28357142Y16775715D01*
X28404761Y16823334D01*
X28452380Y16918572D01*
X28452380Y17156667D01*
X28404761Y17251905D01*
X28357142Y17299524D01*
X32357142Y27632858D02*
X32404761Y27680477D01*
X32452380Y27823334D01*
X32452380Y27918572D01*
X32404761Y28061429D01*
X32309523Y28156667D01*
X32214285Y28204286D01*
X32023809Y28251905D01*
X31880952Y28251905D01*
X31690476Y28204286D01*
X31595238Y28156667D01*
X31500000Y28061429D01*
X31452380Y27918572D01*
X31452380Y27823334D01*
X31500000Y27680477D01*
X31547619Y27632858D01*
X31452380Y27299524D02*
X31452380Y26632858D01*
X32452380Y27061429D01*
X31785714Y25823334D02*
X32452380Y25823334D01*
X31404761Y26061429D02*
X32119047Y26299524D01*
X32119047Y25680477D01*
X25542857Y23502858D02*
X25590476Y23455239D01*
X25733333Y23407620D01*
X25828571Y23407620D01*
X25971428Y23455239D01*
X26066666Y23550477D01*
X26114285Y23645715D01*
X26161904Y23836191D01*
X26161904Y23979048D01*
X26114285Y24169524D01*
X26066666Y24264762D01*
X25971428Y24360000D01*
X25828571Y24407620D01*
X25733333Y24407620D01*
X25590476Y24360000D01*
X25542857Y24312381D01*
X25209523Y24407620D02*
X24542857Y24407620D01*
X24971428Y23407620D01*
X24257142Y24407620D02*
X23638095Y24407620D01*
X23971428Y24026667D01*
X23828571Y24026667D01*
X23733333Y23979048D01*
X23685714Y23931429D01*
X23638095Y23836191D01*
X23638095Y23598096D01*
X23685714Y23502858D01*
X23733333Y23455239D01*
X23828571Y23407620D01*
X24114285Y23407620D01*
X24209523Y23455239D01*
X24257142Y23502858D01*
X29642857Y20862858D02*
X29690476Y20815239D01*
X29833333Y20767620D01*
X29928571Y20767620D01*
X30071428Y20815239D01*
X30166666Y20910477D01*
X30214285Y21005715D01*
X30261904Y21196191D01*
X30261904Y21339048D01*
X30214285Y21529524D01*
X30166666Y21624762D01*
X30071428Y21720000D01*
X29928571Y21767620D01*
X29833333Y21767620D01*
X29690476Y21720000D01*
X29642857Y21672381D01*
X29309523Y21767620D02*
X28642857Y21767620D01*
X29071428Y20767620D01*
X28309523Y21672381D02*
X28261904Y21720000D01*
X28166666Y21767620D01*
X27928571Y21767620D01*
X27833333Y21720000D01*
X27785714Y21672381D01*
X27738095Y21577143D01*
X27738095Y21481905D01*
X27785714Y21339048D01*
X28357142Y20767620D01*
X27738095Y20767620D01*
X28242857Y23832858D02*
X28290476Y23785239D01*
X28433333Y23737620D01*
X28528571Y23737620D01*
X28671428Y23785239D01*
X28766666Y23880477D01*
X28814285Y23975715D01*
X28861904Y24166191D01*
X28861904Y24309048D01*
X28814285Y24499524D01*
X28766666Y24594762D01*
X28671428Y24690000D01*
X28528571Y24737620D01*
X28433333Y24737620D01*
X28290476Y24690000D01*
X28242857Y24642381D01*
X27909523Y24737620D02*
X27242857Y24737620D01*
X27671428Y23737620D01*
X26338095Y23737620D02*
X26909523Y23737620D01*
X26623809Y23737620D02*
X26623809Y24737620D01*
X26719047Y24594762D01*
X26814285Y24499524D01*
X26909523Y24451905D01*
X31742857Y29762858D02*
X31790476Y29715239D01*
X31933333Y29667620D01*
X32028571Y29667620D01*
X32171428Y29715239D01*
X32266666Y29810477D01*
X32314285Y29905715D01*
X32361904Y30096191D01*
X32361904Y30239048D01*
X32314285Y30429524D01*
X32266666Y30524762D01*
X32171428Y30620000D01*
X32028571Y30667620D01*
X31933333Y30667620D01*
X31790476Y30620000D01*
X31742857Y30572381D01*
X31409523Y30667620D02*
X30742857Y30667620D01*
X31171428Y29667620D01*
X30171428Y30667620D02*
X30076190Y30667620D01*
X29980952Y30620000D01*
X29933333Y30572381D01*
X29885714Y30477143D01*
X29838095Y30286667D01*
X29838095Y30048572D01*
X29885714Y29858096D01*
X29933333Y29762858D01*
X29980952Y29715239D01*
X30076190Y29667620D01*
X30171428Y29667620D01*
X30266666Y29715239D01*
X30314285Y29762858D01*
X30361904Y29858096D01*
X30409523Y30048572D01*
X30409523Y30286667D01*
X30361904Y30477143D01*
X30314285Y30572381D01*
X30266666Y30620000D01*
X30171428Y30667620D01*
X30142857Y26202858D02*
X30190476Y26155239D01*
X30333333Y26107620D01*
X30428571Y26107620D01*
X30571428Y26155239D01*
X30666666Y26250477D01*
X30714285Y26345715D01*
X30761904Y26536191D01*
X30761904Y26679048D01*
X30714285Y26869524D01*
X30666666Y26964762D01*
X30571428Y27060000D01*
X30428571Y27107620D01*
X30333333Y27107620D01*
X30190476Y27060000D01*
X30142857Y27012381D01*
X29285714Y27107620D02*
X29476190Y27107620D01*
X29571428Y27060000D01*
X29619047Y27012381D01*
X29714285Y26869524D01*
X29761904Y26679048D01*
X29761904Y26298096D01*
X29714285Y26202858D01*
X29666666Y26155239D01*
X29571428Y26107620D01*
X29380952Y26107620D01*
X29285714Y26155239D01*
X29238095Y26202858D01*
X29190476Y26298096D01*
X29190476Y26536191D01*
X29238095Y26631429D01*
X29285714Y26679048D01*
X29380952Y26726667D01*
X29571428Y26726667D01*
X29666666Y26679048D01*
X29714285Y26631429D01*
X29761904Y26536191D01*
X28714285Y26107620D02*
X28523809Y26107620D01*
X28428571Y26155239D01*
X28380952Y26202858D01*
X28285714Y26345715D01*
X28238095Y26536191D01*
X28238095Y26917143D01*
X28285714Y27012381D01*
X28333333Y27060000D01*
X28428571Y27107620D01*
X28619047Y27107620D01*
X28714285Y27060000D01*
X28761904Y27012381D01*
X28809523Y26917143D01*
X28809523Y26679048D01*
X28761904Y26583810D01*
X28714285Y26536191D01*
X28619047Y26488572D01*
X28428571Y26488572D01*
X28333333Y26536191D01*
X28285714Y26583810D01*
X28238095Y26679048D01*
X53757142Y47032858D02*
X53804761Y47080477D01*
X53852380Y47223334D01*
X53852380Y47318572D01*
X53804761Y47461429D01*
X53709523Y47556667D01*
X53614285Y47604286D01*
X53423809Y47651905D01*
X53280952Y47651905D01*
X53090476Y47604286D01*
X52995238Y47556667D01*
X52900000Y47461429D01*
X52852380Y47318572D01*
X52852380Y47223334D01*
X52900000Y47080477D01*
X52947619Y47032858D01*
X52852380Y46175715D02*
X52852380Y46366191D01*
X52900000Y46461429D01*
X52947619Y46509048D01*
X53090476Y46604286D01*
X53280952Y46651905D01*
X53661904Y46651905D01*
X53757142Y46604286D01*
X53804761Y46556667D01*
X53852380Y46461429D01*
X53852380Y46270953D01*
X53804761Y46175715D01*
X53757142Y46128096D01*
X53661904Y46080477D01*
X53423809Y46080477D01*
X53328571Y46128096D01*
X53280952Y46175715D01*
X53233333Y46270953D01*
X53233333Y46461429D01*
X53280952Y46556667D01*
X53328571Y46604286D01*
X53423809Y46651905D01*
X53280952Y45509048D02*
X53233333Y45604286D01*
X53185714Y45651905D01*
X53090476Y45699524D01*
X53042857Y45699524D01*
X52947619Y45651905D01*
X52900000Y45604286D01*
X52852380Y45509048D01*
X52852380Y45318572D01*
X52900000Y45223334D01*
X52947619Y45175715D01*
X53042857Y45128096D01*
X53090476Y45128096D01*
X53185714Y45175715D01*
X53233333Y45223334D01*
X53280952Y45318572D01*
X53280952Y45509048D01*
X53328571Y45604286D01*
X53376190Y45651905D01*
X53471428Y45699524D01*
X53661904Y45699524D01*
X53757142Y45651905D01*
X53804761Y45604286D01*
X53852380Y45509048D01*
X53852380Y45318572D01*
X53804761Y45223334D01*
X53757142Y45175715D01*
X53661904Y45128096D01*
X53471428Y45128096D01*
X53376190Y45175715D01*
X53328571Y45223334D01*
X53280952Y45318572D01*
X52037142Y9432858D02*
X52084761Y9480477D01*
X52132380Y9623334D01*
X52132380Y9718572D01*
X52084761Y9861429D01*
X51989523Y9956667D01*
X51894285Y10004286D01*
X51703809Y10051905D01*
X51560952Y10051905D01*
X51370476Y10004286D01*
X51275238Y9956667D01*
X51180000Y9861429D01*
X51132380Y9718572D01*
X51132380Y9623334D01*
X51180000Y9480477D01*
X51227619Y9432858D01*
X51132380Y8575715D02*
X51132380Y8766191D01*
X51180000Y8861429D01*
X51227619Y8909048D01*
X51370476Y9004286D01*
X51560952Y9051905D01*
X51941904Y9051905D01*
X52037142Y9004286D01*
X52084761Y8956667D01*
X52132380Y8861429D01*
X52132380Y8670953D01*
X52084761Y8575715D01*
X52037142Y8528096D01*
X51941904Y8480477D01*
X51703809Y8480477D01*
X51608571Y8528096D01*
X51560952Y8575715D01*
X51513333Y8670953D01*
X51513333Y8861429D01*
X51560952Y8956667D01*
X51608571Y9004286D01*
X51703809Y9051905D01*
X51132380Y8147143D02*
X51132380Y7480477D01*
X52132380Y7909048D01*
X33187142Y21032858D02*
X33234761Y21080477D01*
X33282380Y21223334D01*
X33282380Y21318572D01*
X33234761Y21461429D01*
X33139523Y21556667D01*
X33044285Y21604286D01*
X32853809Y21651905D01*
X32710952Y21651905D01*
X32520476Y21604286D01*
X32425238Y21556667D01*
X32330000Y21461429D01*
X32282380Y21318572D01*
X32282380Y21223334D01*
X32330000Y21080477D01*
X32377619Y21032858D01*
X32282380Y20175715D02*
X32282380Y20366191D01*
X32330000Y20461429D01*
X32377619Y20509048D01*
X32520476Y20604286D01*
X32710952Y20651905D01*
X33091904Y20651905D01*
X33187142Y20604286D01*
X33234761Y20556667D01*
X33282380Y20461429D01*
X33282380Y20270953D01*
X33234761Y20175715D01*
X33187142Y20128096D01*
X33091904Y20080477D01*
X32853809Y20080477D01*
X32758571Y20128096D01*
X32710952Y20175715D01*
X32663333Y20270953D01*
X32663333Y20461429D01*
X32710952Y20556667D01*
X32758571Y20604286D01*
X32853809Y20651905D01*
X32282380Y19223334D02*
X32282380Y19413810D01*
X32330000Y19509048D01*
X32377619Y19556667D01*
X32520476Y19651905D01*
X32710952Y19699524D01*
X33091904Y19699524D01*
X33187142Y19651905D01*
X33234761Y19604286D01*
X33282380Y19509048D01*
X33282380Y19318572D01*
X33234761Y19223334D01*
X33187142Y19175715D01*
X33091904Y19128096D01*
X32853809Y19128096D01*
X32758571Y19175715D01*
X32710952Y19223334D01*
X32663333Y19318572D01*
X32663333Y19509048D01*
X32710952Y19604286D01*
X32758571Y19651905D01*
X32853809Y19699524D01*
X40857142Y20832858D02*
X40904761Y20880477D01*
X40952380Y21023334D01*
X40952380Y21118572D01*
X40904761Y21261429D01*
X40809523Y21356667D01*
X40714285Y21404286D01*
X40523809Y21451905D01*
X40380952Y21451905D01*
X40190476Y21404286D01*
X40095238Y21356667D01*
X40000000Y21261429D01*
X39952380Y21118572D01*
X39952380Y21023334D01*
X40000000Y20880477D01*
X40047619Y20832858D01*
X39952380Y19975715D02*
X39952380Y20166191D01*
X40000000Y20261429D01*
X40047619Y20309048D01*
X40190476Y20404286D01*
X40380952Y20451905D01*
X40761904Y20451905D01*
X40857142Y20404286D01*
X40904761Y20356667D01*
X40952380Y20261429D01*
X40952380Y20070953D01*
X40904761Y19975715D01*
X40857142Y19928096D01*
X40761904Y19880477D01*
X40523809Y19880477D01*
X40428571Y19928096D01*
X40380952Y19975715D01*
X40333333Y20070953D01*
X40333333Y20261429D01*
X40380952Y20356667D01*
X40428571Y20404286D01*
X40523809Y20451905D01*
X39952380Y18975715D02*
X39952380Y19451905D01*
X40428571Y19499524D01*
X40380952Y19451905D01*
X40333333Y19356667D01*
X40333333Y19118572D01*
X40380952Y19023334D01*
X40428571Y18975715D01*
X40523809Y18928096D01*
X40761904Y18928096D01*
X40857142Y18975715D01*
X40904761Y19023334D01*
X40952380Y19118572D01*
X40952380Y19356667D01*
X40904761Y19451905D01*
X40857142Y19499524D01*
X39742857Y15862858D02*
X39790476Y15815239D01*
X39933333Y15767620D01*
X40028571Y15767620D01*
X40171428Y15815239D01*
X40266666Y15910477D01*
X40314285Y16005715D01*
X40361904Y16196191D01*
X40361904Y16339048D01*
X40314285Y16529524D01*
X40266666Y16624762D01*
X40171428Y16720000D01*
X40028571Y16767620D01*
X39933333Y16767620D01*
X39790476Y16720000D01*
X39742857Y16672381D01*
X38885714Y16767620D02*
X39076190Y16767620D01*
X39171428Y16720000D01*
X39219047Y16672381D01*
X39314285Y16529524D01*
X39361904Y16339048D01*
X39361904Y15958096D01*
X39314285Y15862858D01*
X39266666Y15815239D01*
X39171428Y15767620D01*
X38980952Y15767620D01*
X38885714Y15815239D01*
X38838095Y15862858D01*
X38790476Y15958096D01*
X38790476Y16196191D01*
X38838095Y16291429D01*
X38885714Y16339048D01*
X38980952Y16386667D01*
X39171428Y16386667D01*
X39266666Y16339048D01*
X39314285Y16291429D01*
X39361904Y16196191D01*
X37933333Y16434286D02*
X37933333Y15767620D01*
X38171428Y16815239D02*
X38409523Y16100953D01*
X37790476Y16100953D01*
X34657142Y24632858D02*
X34704761Y24680477D01*
X34752380Y24823334D01*
X34752380Y24918572D01*
X34704761Y25061429D01*
X34609523Y25156667D01*
X34514285Y25204286D01*
X34323809Y25251905D01*
X34180952Y25251905D01*
X33990476Y25204286D01*
X33895238Y25156667D01*
X33800000Y25061429D01*
X33752380Y24918572D01*
X33752380Y24823334D01*
X33800000Y24680477D01*
X33847619Y24632858D01*
X33752380Y23775715D02*
X33752380Y23966191D01*
X33800000Y24061429D01*
X33847619Y24109048D01*
X33990476Y24204286D01*
X34180952Y24251905D01*
X34561904Y24251905D01*
X34657142Y24204286D01*
X34704761Y24156667D01*
X34752380Y24061429D01*
X34752380Y23870953D01*
X34704761Y23775715D01*
X34657142Y23728096D01*
X34561904Y23680477D01*
X34323809Y23680477D01*
X34228571Y23728096D01*
X34180952Y23775715D01*
X34133333Y23870953D01*
X34133333Y24061429D01*
X34180952Y24156667D01*
X34228571Y24204286D01*
X34323809Y24251905D01*
X33752380Y23347143D02*
X33752380Y22728096D01*
X34133333Y23061429D01*
X34133333Y22918572D01*
X34180952Y22823334D01*
X34228571Y22775715D01*
X34323809Y22728096D01*
X34561904Y22728096D01*
X34657142Y22775715D01*
X34704761Y22823334D01*
X34752380Y22918572D01*
X34752380Y23204286D01*
X34704761Y23299524D01*
X34657142Y23347143D01*
X39457142Y20932858D02*
X39504761Y20980477D01*
X39552380Y21123334D01*
X39552380Y21218572D01*
X39504761Y21361429D01*
X39409523Y21456667D01*
X39314285Y21504286D01*
X39123809Y21551905D01*
X38980952Y21551905D01*
X38790476Y21504286D01*
X38695238Y21456667D01*
X38600000Y21361429D01*
X38552380Y21218572D01*
X38552380Y21123334D01*
X38600000Y20980477D01*
X38647619Y20932858D01*
X38552380Y20075715D02*
X38552380Y20266191D01*
X38600000Y20361429D01*
X38647619Y20409048D01*
X38790476Y20504286D01*
X38980952Y20551905D01*
X39361904Y20551905D01*
X39457142Y20504286D01*
X39504761Y20456667D01*
X39552380Y20361429D01*
X39552380Y20170953D01*
X39504761Y20075715D01*
X39457142Y20028096D01*
X39361904Y19980477D01*
X39123809Y19980477D01*
X39028571Y20028096D01*
X38980952Y20075715D01*
X38933333Y20170953D01*
X38933333Y20361429D01*
X38980952Y20456667D01*
X39028571Y20504286D01*
X39123809Y20551905D01*
X38647619Y19599524D02*
X38600000Y19551905D01*
X38552380Y19456667D01*
X38552380Y19218572D01*
X38600000Y19123334D01*
X38647619Y19075715D01*
X38742857Y19028096D01*
X38838095Y19028096D01*
X38980952Y19075715D01*
X39552380Y19647143D01*
X39552380Y19028096D01*
X35587142Y22532858D02*
X35634761Y22580477D01*
X35682380Y22723334D01*
X35682380Y22818572D01*
X35634761Y22961429D01*
X35539523Y23056667D01*
X35444285Y23104286D01*
X35253809Y23151905D01*
X35110952Y23151905D01*
X34920476Y23104286D01*
X34825238Y23056667D01*
X34730000Y22961429D01*
X34682380Y22818572D01*
X34682380Y22723334D01*
X34730000Y22580477D01*
X34777619Y22532858D01*
X34682380Y21675715D02*
X34682380Y21866191D01*
X34730000Y21961429D01*
X34777619Y22009048D01*
X34920476Y22104286D01*
X35110952Y22151905D01*
X35491904Y22151905D01*
X35587142Y22104286D01*
X35634761Y22056667D01*
X35682380Y21961429D01*
X35682380Y21770953D01*
X35634761Y21675715D01*
X35587142Y21628096D01*
X35491904Y21580477D01*
X35253809Y21580477D01*
X35158571Y21628096D01*
X35110952Y21675715D01*
X35063333Y21770953D01*
X35063333Y21961429D01*
X35110952Y22056667D01*
X35158571Y22104286D01*
X35253809Y22151905D01*
X35682380Y20628096D02*
X35682380Y21199524D01*
X35682380Y20913810D02*
X34682380Y20913810D01*
X34825238Y21009048D01*
X34920476Y21104286D01*
X34968095Y21199524D01*
X36257142Y27132858D02*
X36304761Y27180477D01*
X36352380Y27323334D01*
X36352380Y27418572D01*
X36304761Y27561429D01*
X36209523Y27656667D01*
X36114285Y27704286D01*
X35923809Y27751905D01*
X35780952Y27751905D01*
X35590476Y27704286D01*
X35495238Y27656667D01*
X35400000Y27561429D01*
X35352380Y27418572D01*
X35352380Y27323334D01*
X35400000Y27180477D01*
X35447619Y27132858D01*
X35352380Y26275715D02*
X35352380Y26466191D01*
X35400000Y26561429D01*
X35447619Y26609048D01*
X35590476Y26704286D01*
X35780952Y26751905D01*
X36161904Y26751905D01*
X36257142Y26704286D01*
X36304761Y26656667D01*
X36352380Y26561429D01*
X36352380Y26370953D01*
X36304761Y26275715D01*
X36257142Y26228096D01*
X36161904Y26180477D01*
X35923809Y26180477D01*
X35828571Y26228096D01*
X35780952Y26275715D01*
X35733333Y26370953D01*
X35733333Y26561429D01*
X35780952Y26656667D01*
X35828571Y26704286D01*
X35923809Y26751905D01*
X35352380Y25561429D02*
X35352380Y25466191D01*
X35400000Y25370953D01*
X35447619Y25323334D01*
X35542857Y25275715D01*
X35733333Y25228096D01*
X35971428Y25228096D01*
X36161904Y25275715D01*
X36257142Y25323334D01*
X36304761Y25370953D01*
X36352380Y25466191D01*
X36352380Y25561429D01*
X36304761Y25656667D01*
X36257142Y25704286D01*
X36161904Y25751905D01*
X35971428Y25799524D01*
X35733333Y25799524D01*
X35542857Y25751905D01*
X35447619Y25704286D01*
X35400000Y25656667D01*
X35352380Y25561429D01*
X27042857Y29632858D02*
X27090476Y29585239D01*
X27233333Y29537620D01*
X27328571Y29537620D01*
X27471428Y29585239D01*
X27566666Y29680477D01*
X27614285Y29775715D01*
X27661904Y29966191D01*
X27661904Y30109048D01*
X27614285Y30299524D01*
X27566666Y30394762D01*
X27471428Y30490000D01*
X27328571Y30537620D01*
X27233333Y30537620D01*
X27090476Y30490000D01*
X27042857Y30442381D01*
X26138095Y30537620D02*
X26614285Y30537620D01*
X26661904Y30061429D01*
X26614285Y30109048D01*
X26519047Y30156667D01*
X26280952Y30156667D01*
X26185714Y30109048D01*
X26138095Y30061429D01*
X26090476Y29966191D01*
X26090476Y29728096D01*
X26138095Y29632858D01*
X26185714Y29585239D01*
X26280952Y29537620D01*
X26519047Y29537620D01*
X26614285Y29585239D01*
X26661904Y29632858D01*
X25614285Y29537620D02*
X25423809Y29537620D01*
X25328571Y29585239D01*
X25280952Y29632858D01*
X25185714Y29775715D01*
X25138095Y29966191D01*
X25138095Y30347143D01*
X25185714Y30442381D01*
X25233333Y30490000D01*
X25328571Y30537620D01*
X25519047Y30537620D01*
X25614285Y30490000D01*
X25661904Y30442381D01*
X25709523Y30347143D01*
X25709523Y30109048D01*
X25661904Y30013810D01*
X25614285Y29966191D01*
X25519047Y29918572D01*
X25328571Y29918572D01*
X25233333Y29966191D01*
X25185714Y30013810D01*
X25138095Y30109048D01*
X25357142Y29432858D02*
X25404761Y29480477D01*
X25452380Y29623334D01*
X25452380Y29718572D01*
X25404761Y29861429D01*
X25309523Y29956667D01*
X25214285Y30004286D01*
X25023809Y30051905D01*
X24880952Y30051905D01*
X24690476Y30004286D01*
X24595238Y29956667D01*
X24500000Y29861429D01*
X24452380Y29718572D01*
X24452380Y29623334D01*
X24500000Y29480477D01*
X24547619Y29432858D01*
X24452380Y28528096D02*
X24452380Y29004286D01*
X24928571Y29051905D01*
X24880952Y29004286D01*
X24833333Y28909048D01*
X24833333Y28670953D01*
X24880952Y28575715D01*
X24928571Y28528096D01*
X25023809Y28480477D01*
X25261904Y28480477D01*
X25357142Y28528096D01*
X25404761Y28575715D01*
X25452380Y28670953D01*
X25452380Y28909048D01*
X25404761Y29004286D01*
X25357142Y29051905D01*
X24880952Y27909048D02*
X24833333Y28004286D01*
X24785714Y28051905D01*
X24690476Y28099524D01*
X24642857Y28099524D01*
X24547619Y28051905D01*
X24500000Y28004286D01*
X24452380Y27909048D01*
X24452380Y27718572D01*
X24500000Y27623334D01*
X24547619Y27575715D01*
X24642857Y27528096D01*
X24690476Y27528096D01*
X24785714Y27575715D01*
X24833333Y27623334D01*
X24880952Y27718572D01*
X24880952Y27909048D01*
X24928571Y28004286D01*
X24976190Y28051905D01*
X25071428Y28099524D01*
X25261904Y28099524D01*
X25357142Y28051905D01*
X25404761Y28004286D01*
X25452380Y27909048D01*
X25452380Y27718572D01*
X25404761Y27623334D01*
X25357142Y27575715D01*
X25261904Y27528096D01*
X25071428Y27528096D01*
X24976190Y27575715D01*
X24928571Y27623334D01*
X24880952Y27718572D01*
X28642857Y27202858D02*
X28690476Y27155239D01*
X28833333Y27107620D01*
X28928571Y27107620D01*
X29071428Y27155239D01*
X29166666Y27250477D01*
X29214285Y27345715D01*
X29261904Y27536191D01*
X29261904Y27679048D01*
X29214285Y27869524D01*
X29166666Y27964762D01*
X29071428Y28060000D01*
X28928571Y28107620D01*
X28833333Y28107620D01*
X28690476Y28060000D01*
X28642857Y28012381D01*
X27738095Y28107620D02*
X28214285Y28107620D01*
X28261904Y27631429D01*
X28214285Y27679048D01*
X28119047Y27726667D01*
X27880952Y27726667D01*
X27785714Y27679048D01*
X27738095Y27631429D01*
X27690476Y27536191D01*
X27690476Y27298096D01*
X27738095Y27202858D01*
X27785714Y27155239D01*
X27880952Y27107620D01*
X28119047Y27107620D01*
X28214285Y27155239D01*
X28261904Y27202858D01*
X26833333Y28107620D02*
X27023809Y28107620D01*
X27119047Y28060000D01*
X27166666Y28012381D01*
X27261904Y27869524D01*
X27309523Y27679048D01*
X27309523Y27298096D01*
X27261904Y27202858D01*
X27214285Y27155239D01*
X27119047Y27107620D01*
X26928571Y27107620D01*
X26833333Y27155239D01*
X26785714Y27202858D01*
X26738095Y27298096D01*
X26738095Y27536191D01*
X26785714Y27631429D01*
X26833333Y27679048D01*
X26928571Y27726667D01*
X27119047Y27726667D01*
X27214285Y27679048D01*
X27261904Y27631429D01*
X27309523Y27536191D01*
X27942857Y31632858D02*
X27990476Y31585239D01*
X28133333Y31537620D01*
X28228571Y31537620D01*
X28371428Y31585239D01*
X28466666Y31680477D01*
X28514285Y31775715D01*
X28561904Y31966191D01*
X28561904Y32109048D01*
X28514285Y32299524D01*
X28466666Y32394762D01*
X28371428Y32490000D01*
X28228571Y32537620D01*
X28133333Y32537620D01*
X27990476Y32490000D01*
X27942857Y32442381D01*
X27038095Y32537620D02*
X27514285Y32537620D01*
X27561904Y32061429D01*
X27514285Y32109048D01*
X27419047Y32156667D01*
X27180952Y32156667D01*
X27085714Y32109048D01*
X27038095Y32061429D01*
X26990476Y31966191D01*
X26990476Y31728096D01*
X27038095Y31632858D01*
X27085714Y31585239D01*
X27180952Y31537620D01*
X27419047Y31537620D01*
X27514285Y31585239D01*
X27561904Y31632858D01*
X26085714Y32537620D02*
X26561904Y32537620D01*
X26609523Y32061429D01*
X26561904Y32109048D01*
X26466666Y32156667D01*
X26228571Y32156667D01*
X26133333Y32109048D01*
X26085714Y32061429D01*
X26038095Y31966191D01*
X26038095Y31728096D01*
X26085714Y31632858D01*
X26133333Y31585239D01*
X26228571Y31537620D01*
X26466666Y31537620D01*
X26561904Y31585239D01*
X26609523Y31632858D01*
X30242857Y22832858D02*
X30290476Y22785239D01*
X30433333Y22737620D01*
X30528571Y22737620D01*
X30671428Y22785239D01*
X30766666Y22880477D01*
X30814285Y22975715D01*
X30861904Y23166191D01*
X30861904Y23309048D01*
X30814285Y23499524D01*
X30766666Y23594762D01*
X30671428Y23690000D01*
X30528571Y23737620D01*
X30433333Y23737620D01*
X30290476Y23690000D01*
X30242857Y23642381D01*
X29338095Y23737620D02*
X29814285Y23737620D01*
X29861904Y23261429D01*
X29814285Y23309048D01*
X29719047Y23356667D01*
X29480952Y23356667D01*
X29385714Y23309048D01*
X29338095Y23261429D01*
X29290476Y23166191D01*
X29290476Y22928096D01*
X29338095Y22832858D01*
X29385714Y22785239D01*
X29480952Y22737620D01*
X29719047Y22737620D01*
X29814285Y22785239D01*
X29861904Y22832858D01*
X28433333Y23404286D02*
X28433333Y22737620D01*
X28671428Y23785239D02*
X28909523Y23070953D01*
X28290476Y23070953D01*
X24242857Y32232858D02*
X24290476Y32185239D01*
X24433333Y32137620D01*
X24528571Y32137620D01*
X24671428Y32185239D01*
X24766666Y32280477D01*
X24814285Y32375715D01*
X24861904Y32566191D01*
X24861904Y32709048D01*
X24814285Y32899524D01*
X24766666Y32994762D01*
X24671428Y33090000D01*
X24528571Y33137620D01*
X24433333Y33137620D01*
X24290476Y33090000D01*
X24242857Y33042381D01*
X23338095Y33137620D02*
X23814285Y33137620D01*
X23861904Y32661429D01*
X23814285Y32709048D01*
X23719047Y32756667D01*
X23480952Y32756667D01*
X23385714Y32709048D01*
X23338095Y32661429D01*
X23290476Y32566191D01*
X23290476Y32328096D01*
X23338095Y32232858D01*
X23385714Y32185239D01*
X23480952Y32137620D01*
X23719047Y32137620D01*
X23814285Y32185239D01*
X23861904Y32232858D01*
X22957142Y33137620D02*
X22338095Y33137620D01*
X22671428Y32756667D01*
X22528571Y32756667D01*
X22433333Y32709048D01*
X22385714Y32661429D01*
X22338095Y32566191D01*
X22338095Y32328096D01*
X22385714Y32232858D01*
X22433333Y32185239D01*
X22528571Y32137620D01*
X22814285Y32137620D01*
X22909523Y32185239D01*
X22957142Y32232858D01*
X33042857Y24032858D02*
X33090476Y23985239D01*
X33233333Y23937620D01*
X33328571Y23937620D01*
X33471428Y23985239D01*
X33566666Y24080477D01*
X33614285Y24175715D01*
X33661904Y24366191D01*
X33661904Y24509048D01*
X33614285Y24699524D01*
X33566666Y24794762D01*
X33471428Y24890000D01*
X33328571Y24937620D01*
X33233333Y24937620D01*
X33090476Y24890000D01*
X33042857Y24842381D01*
X32138095Y24937620D02*
X32614285Y24937620D01*
X32661904Y24461429D01*
X32614285Y24509048D01*
X32519047Y24556667D01*
X32280952Y24556667D01*
X32185714Y24509048D01*
X32138095Y24461429D01*
X32090476Y24366191D01*
X32090476Y24128096D01*
X32138095Y24032858D01*
X32185714Y23985239D01*
X32280952Y23937620D01*
X32519047Y23937620D01*
X32614285Y23985239D01*
X32661904Y24032858D01*
X31709523Y24842381D02*
X31661904Y24890000D01*
X31566666Y24937620D01*
X31328571Y24937620D01*
X31233333Y24890000D01*
X31185714Y24842381D01*
X31138095Y24747143D01*
X31138095Y24651905D01*
X31185714Y24509048D01*
X31757142Y23937620D01*
X31138095Y23937620D01*
X31842857Y19862858D02*
X31890476Y19815239D01*
X32033333Y19767620D01*
X32128571Y19767620D01*
X32271428Y19815239D01*
X32366666Y19910477D01*
X32414285Y20005715D01*
X32461904Y20196191D01*
X32461904Y20339048D01*
X32414285Y20529524D01*
X32366666Y20624762D01*
X32271428Y20720000D01*
X32128571Y20767620D01*
X32033333Y20767620D01*
X31890476Y20720000D01*
X31842857Y20672381D01*
X30938095Y20767620D02*
X31414285Y20767620D01*
X31461904Y20291429D01*
X31414285Y20339048D01*
X31319047Y20386667D01*
X31080952Y20386667D01*
X30985714Y20339048D01*
X30938095Y20291429D01*
X30890476Y20196191D01*
X30890476Y19958096D01*
X30938095Y19862858D01*
X30985714Y19815239D01*
X31080952Y19767620D01*
X31319047Y19767620D01*
X31414285Y19815239D01*
X31461904Y19862858D01*
X29938095Y19767620D02*
X30509523Y19767620D01*
X30223809Y19767620D02*
X30223809Y20767620D01*
X30319047Y20624762D01*
X30414285Y20529524D01*
X30509523Y20481905D01*
X31842857Y21762858D02*
X31890476Y21715239D01*
X32033333Y21667620D01*
X32128571Y21667620D01*
X32271428Y21715239D01*
X32366666Y21810477D01*
X32414285Y21905715D01*
X32461904Y22096191D01*
X32461904Y22239048D01*
X32414285Y22429524D01*
X32366666Y22524762D01*
X32271428Y22620000D01*
X32128571Y22667620D01*
X32033333Y22667620D01*
X31890476Y22620000D01*
X31842857Y22572381D01*
X30938095Y22667620D02*
X31414285Y22667620D01*
X31461904Y22191429D01*
X31414285Y22239048D01*
X31319047Y22286667D01*
X31080952Y22286667D01*
X30985714Y22239048D01*
X30938095Y22191429D01*
X30890476Y22096191D01*
X30890476Y21858096D01*
X30938095Y21762858D01*
X30985714Y21715239D01*
X31080952Y21667620D01*
X31319047Y21667620D01*
X31414285Y21715239D01*
X31461904Y21762858D01*
X30271428Y22667620D02*
X30176190Y22667620D01*
X30080952Y22620000D01*
X30033333Y22572381D01*
X29985714Y22477143D01*
X29938095Y22286667D01*
X29938095Y22048572D01*
X29985714Y21858096D01*
X30033333Y21762858D01*
X30080952Y21715239D01*
X30176190Y21667620D01*
X30271428Y21667620D01*
X30366666Y21715239D01*
X30414285Y21762858D01*
X30461904Y21858096D01*
X30509523Y22048572D01*
X30509523Y22286667D01*
X30461904Y22477143D01*
X30414285Y22572381D01*
X30366666Y22620000D01*
X30271428Y22667620D01*
X26557142Y27432858D02*
X26604761Y27480477D01*
X26652380Y27623334D01*
X26652380Y27718572D01*
X26604761Y27861429D01*
X26509523Y27956667D01*
X26414285Y28004286D01*
X26223809Y28051905D01*
X26080952Y28051905D01*
X25890476Y28004286D01*
X25795238Y27956667D01*
X25700000Y27861429D01*
X25652380Y27718572D01*
X25652380Y27623334D01*
X25700000Y27480477D01*
X25747619Y27432858D01*
X25985714Y26575715D02*
X26652380Y26575715D01*
X25604761Y26813810D02*
X26319047Y27051905D01*
X26319047Y26432858D01*
X26652380Y26004286D02*
X26652380Y25813810D01*
X26604761Y25718572D01*
X26557142Y25670953D01*
X26414285Y25575715D01*
X26223809Y25528096D01*
X25842857Y25528096D01*
X25747619Y25575715D01*
X25700000Y25623334D01*
X25652380Y25718572D01*
X25652380Y25909048D01*
X25700000Y26004286D01*
X25747619Y26051905D01*
X25842857Y26099524D01*
X26080952Y26099524D01*
X26176190Y26051905D01*
X26223809Y26004286D01*
X26271428Y25909048D01*
X26271428Y25718572D01*
X26223809Y25623334D01*
X26176190Y25575715D01*
X26080952Y25528096D01*
X23757142Y27032858D02*
X23804761Y27080477D01*
X23852380Y27223334D01*
X23852380Y27318572D01*
X23804761Y27461429D01*
X23709523Y27556667D01*
X23614285Y27604286D01*
X23423809Y27651905D01*
X23280952Y27651905D01*
X23090476Y27604286D01*
X22995238Y27556667D01*
X22900000Y27461429D01*
X22852380Y27318572D01*
X22852380Y27223334D01*
X22900000Y27080477D01*
X22947619Y27032858D01*
X23185714Y26175715D02*
X23852380Y26175715D01*
X22804761Y26413810D02*
X23519047Y26651905D01*
X23519047Y26032858D01*
X22852380Y25223334D02*
X22852380Y25413810D01*
X22900000Y25509048D01*
X22947619Y25556667D01*
X23090476Y25651905D01*
X23280952Y25699524D01*
X23661904Y25699524D01*
X23757142Y25651905D01*
X23804761Y25604286D01*
X23852380Y25509048D01*
X23852380Y25318572D01*
X23804761Y25223334D01*
X23757142Y25175715D01*
X23661904Y25128096D01*
X23423809Y25128096D01*
X23328571Y25175715D01*
X23280952Y25223334D01*
X23233333Y25318572D01*
X23233333Y25509048D01*
X23280952Y25604286D01*
X23328571Y25651905D01*
X23423809Y25699524D01*
X25642857Y19632858D02*
X25690476Y19585239D01*
X25833333Y19537620D01*
X25928571Y19537620D01*
X26071428Y19585239D01*
X26166666Y19680477D01*
X26214285Y19775715D01*
X26261904Y19966191D01*
X26261904Y20109048D01*
X26214285Y20299524D01*
X26166666Y20394762D01*
X26071428Y20490000D01*
X25928571Y20537620D01*
X25833333Y20537620D01*
X25690476Y20490000D01*
X25642857Y20442381D01*
X24785714Y20204286D02*
X24785714Y19537620D01*
X25023809Y20585239D02*
X25261904Y19870953D01*
X24642857Y19870953D01*
X23833333Y20204286D02*
X23833333Y19537620D01*
X24071428Y20585239D02*
X24309523Y19870953D01*
X23690476Y19870953D01*
X34857142Y31332858D02*
X34904761Y31380477D01*
X34952380Y31523334D01*
X34952380Y31618572D01*
X34904761Y31761429D01*
X34809523Y31856667D01*
X34714285Y31904286D01*
X34523809Y31951905D01*
X34380952Y31951905D01*
X34190476Y31904286D01*
X34095238Y31856667D01*
X34000000Y31761429D01*
X33952380Y31618572D01*
X33952380Y31523334D01*
X34000000Y31380477D01*
X34047619Y31332858D01*
X34285714Y30475715D02*
X34952380Y30475715D01*
X33904761Y30713810D02*
X34619047Y30951905D01*
X34619047Y30332858D01*
X34047619Y29999524D02*
X34000000Y29951905D01*
X33952380Y29856667D01*
X33952380Y29618572D01*
X34000000Y29523334D01*
X34047619Y29475715D01*
X34142857Y29428096D01*
X34238095Y29428096D01*
X34380952Y29475715D01*
X34952380Y30047143D01*
X34952380Y29428096D01*
X8952380Y40651905D02*
X9761904Y40651905D01*
X9857142Y40604286D01*
X9904761Y40556667D01*
X9952380Y40461429D01*
X9952380Y40270953D01*
X9904761Y40175715D01*
X9857142Y40128096D01*
X9761904Y40080477D01*
X8952380Y40080477D01*
X9285714Y39175715D02*
X9952380Y39175715D01*
X8904761Y39413810D02*
X9619047Y39651905D01*
X9619047Y39032858D01*
X21442857Y37432858D02*
X21490476Y37385239D01*
X21633333Y37337620D01*
X21728571Y37337620D01*
X21871428Y37385239D01*
X21966666Y37480477D01*
X22014285Y37575715D01*
X22061904Y37766191D01*
X22061904Y37909048D01*
X22014285Y38099524D01*
X21966666Y38194762D01*
X21871428Y38290000D01*
X21728571Y38337620D01*
X21633333Y38337620D01*
X21490476Y38290000D01*
X21442857Y38242381D01*
X20585714Y38004286D02*
X20585714Y37337620D01*
X20823809Y38385239D02*
X21061904Y37670953D01*
X20442857Y37670953D01*
X19538095Y37337620D02*
X20109523Y37337620D01*
X19823809Y37337620D02*
X19823809Y38337620D01*
X19919047Y38194762D01*
X20014285Y38099524D01*
X20109523Y38051905D01*
X21442857Y36232858D02*
X21490476Y36185239D01*
X21633333Y36137620D01*
X21728571Y36137620D01*
X21871428Y36185239D01*
X21966666Y36280477D01*
X22014285Y36375715D01*
X22061904Y36566191D01*
X22061904Y36709048D01*
X22014285Y36899524D01*
X21966666Y36994762D01*
X21871428Y37090000D01*
X21728571Y37137620D01*
X21633333Y37137620D01*
X21490476Y37090000D01*
X21442857Y37042381D01*
X20585714Y36804286D02*
X20585714Y36137620D01*
X20823809Y37185239D02*
X21061904Y36470953D01*
X20442857Y36470953D01*
X19871428Y37137620D02*
X19776190Y37137620D01*
X19680952Y37090000D01*
X19633333Y37042381D01*
X19585714Y36947143D01*
X19538095Y36756667D01*
X19538095Y36518572D01*
X19585714Y36328096D01*
X19633333Y36232858D01*
X19680952Y36185239D01*
X19776190Y36137620D01*
X19871428Y36137620D01*
X19966666Y36185239D01*
X20014285Y36232858D01*
X20061904Y36328096D01*
X20109523Y36518572D01*
X20109523Y36756667D01*
X20061904Y36947143D01*
X20014285Y37042381D01*
X19966666Y37090000D01*
X19871428Y37137620D01*
X52011904Y19937620D02*
X52011904Y19128096D01*
X51964285Y19032858D01*
X51916666Y18985239D01*
X51821428Y18937620D01*
X51630952Y18937620D01*
X51535714Y18985239D01*
X51488095Y19032858D01*
X51440476Y19128096D01*
X51440476Y19937620D01*
X50916666Y18937620D02*
X50726190Y18937620D01*
X50630952Y18985239D01*
X50583333Y19032858D01*
X50488095Y19175715D01*
X50440476Y19366191D01*
X50440476Y19747143D01*
X50488095Y19842381D01*
X50535714Y19890000D01*
X50630952Y19937620D01*
X50821428Y19937620D01*
X50916666Y19890000D01*
X50964285Y19842381D01*
X51011904Y19747143D01*
X51011904Y19509048D01*
X50964285Y19413810D01*
X50916666Y19366191D01*
X50821428Y19318572D01*
X50630952Y19318572D01*
X50535714Y19366191D01*
X50488095Y19413810D01*
X50440476Y19509048D01*
X9052380Y14151905D02*
X9861904Y14151905D01*
X9957142Y14104286D01*
X10004761Y14056667D01*
X10052380Y13961429D01*
X10052380Y13770953D01*
X10004761Y13675715D01*
X9957142Y13628096D01*
X9861904Y13580477D01*
X9052380Y13580477D01*
X9480952Y12961429D02*
X9433333Y13056667D01*
X9385714Y13104286D01*
X9290476Y13151905D01*
X9242857Y13151905D01*
X9147619Y13104286D01*
X9100000Y13056667D01*
X9052380Y12961429D01*
X9052380Y12770953D01*
X9100000Y12675715D01*
X9147619Y12628096D01*
X9242857Y12580477D01*
X9290476Y12580477D01*
X9385714Y12628096D01*
X9433333Y12675715D01*
X9480952Y12770953D01*
X9480952Y12961429D01*
X9528571Y13056667D01*
X9576190Y13104286D01*
X9671428Y13151905D01*
X9861904Y13151905D01*
X9957142Y13104286D01*
X10004761Y13056667D01*
X10052380Y12961429D01*
X10052380Y12770953D01*
X10004761Y12675715D01*
X9957142Y12628096D01*
X9861904Y12580477D01*
X9671428Y12580477D01*
X9576190Y12628096D01*
X9528571Y12675715D01*
X9480952Y12770953D01*
X51561904Y28737620D02*
X51561904Y27928096D01*
X51514285Y27832858D01*
X51466666Y27785239D01*
X51371428Y27737620D01*
X51180952Y27737620D01*
X51085714Y27785239D01*
X51038095Y27832858D01*
X50990476Y27928096D01*
X50990476Y28737620D01*
X50609523Y28737620D02*
X49942857Y28737620D01*
X50371428Y27737620D01*
X51561904Y37537620D02*
X51561904Y36728096D01*
X51514285Y36632858D01*
X51466666Y36585239D01*
X51371428Y36537620D01*
X51180952Y36537620D01*
X51085714Y36585239D01*
X51038095Y36632858D01*
X50990476Y36728096D01*
X50990476Y37537620D01*
X50085714Y37537620D02*
X50276190Y37537620D01*
X50371428Y37490000D01*
X50419047Y37442381D01*
X50514285Y37299524D01*
X50561904Y37109048D01*
X50561904Y36728096D01*
X50514285Y36632858D01*
X50466666Y36585239D01*
X50371428Y36537620D01*
X50180952Y36537620D01*
X50085714Y36585239D01*
X50038095Y36632858D01*
X49990476Y36728096D01*
X49990476Y36966191D01*
X50038095Y37061429D01*
X50085714Y37109048D01*
X50180952Y37156667D01*
X50371428Y37156667D01*
X50466666Y37109048D01*
X50514285Y37061429D01*
X50561904Y36966191D01*
X50242857Y17232858D02*
X50290476Y17185239D01*
X50433333Y17137620D01*
X50528571Y17137620D01*
X50671428Y17185239D01*
X50766666Y17280477D01*
X50814285Y17375715D01*
X50861904Y17566191D01*
X50861904Y17709048D01*
X50814285Y17899524D01*
X50766666Y17994762D01*
X50671428Y18090000D01*
X50528571Y18137620D01*
X50433333Y18137620D01*
X50290476Y18090000D01*
X50242857Y18042381D01*
X49909523Y18137620D02*
X49290476Y18137620D01*
X49623809Y17756667D01*
X49480952Y17756667D01*
X49385714Y17709048D01*
X49338095Y17661429D01*
X49290476Y17566191D01*
X49290476Y17328096D01*
X49338095Y17232858D01*
X49385714Y17185239D01*
X49480952Y17137620D01*
X49766666Y17137620D01*
X49861904Y17185239D01*
X49909523Y17232858D01*
X48719047Y17709048D02*
X48814285Y17756667D01*
X48861904Y17804286D01*
X48909523Y17899524D01*
X48909523Y17947143D01*
X48861904Y18042381D01*
X48814285Y18090000D01*
X48719047Y18137620D01*
X48528571Y18137620D01*
X48433333Y18090000D01*
X48385714Y18042381D01*
X48338095Y17947143D01*
X48338095Y17899524D01*
X48385714Y17804286D01*
X48433333Y17756667D01*
X48528571Y17709048D01*
X48719047Y17709048D01*
X48814285Y17661429D01*
X48861904Y17613810D01*
X48909523Y17518572D01*
X48909523Y17328096D01*
X48861904Y17232858D01*
X48814285Y17185239D01*
X48719047Y17137620D01*
X48528571Y17137620D01*
X48433333Y17185239D01*
X48385714Y17232858D01*
X48338095Y17328096D01*
X48338095Y17518572D01*
X48385714Y17613810D01*
X48433333Y17661429D01*
X48528571Y17709048D01*
X47042857Y10812858D02*
X47090476Y10765239D01*
X47233333Y10717620D01*
X47328571Y10717620D01*
X47471428Y10765239D01*
X47566666Y10860477D01*
X47614285Y10955715D01*
X47661904Y11146191D01*
X47661904Y11289048D01*
X47614285Y11479524D01*
X47566666Y11574762D01*
X47471428Y11670000D01*
X47328571Y11717620D01*
X47233333Y11717620D01*
X47090476Y11670000D01*
X47042857Y11622381D01*
X46709523Y11717620D02*
X46090476Y11717620D01*
X46423809Y11336667D01*
X46280952Y11336667D01*
X46185714Y11289048D01*
X46138095Y11241429D01*
X46090476Y11146191D01*
X46090476Y10908096D01*
X46138095Y10812858D01*
X46185714Y10765239D01*
X46280952Y10717620D01*
X46566666Y10717620D01*
X46661904Y10765239D01*
X46709523Y10812858D01*
X45757142Y11717620D02*
X45090476Y11717620D01*
X45519047Y10717620D01*
X11557142Y14432858D02*
X11604761Y14480477D01*
X11652380Y14623334D01*
X11652380Y14718572D01*
X11604761Y14861429D01*
X11509523Y14956667D01*
X11414285Y15004286D01*
X11223809Y15051905D01*
X11080952Y15051905D01*
X10890476Y15004286D01*
X10795238Y14956667D01*
X10700000Y14861429D01*
X10652380Y14718572D01*
X10652380Y14623334D01*
X10700000Y14480477D01*
X10747619Y14432858D01*
X11652380Y13480477D02*
X11652380Y14051905D01*
X11652380Y13766191D02*
X10652380Y13766191D01*
X10795238Y13861429D01*
X10890476Y13956667D01*
X10938095Y14051905D01*
X10652380Y12623334D02*
X10652380Y12813810D01*
X10700000Y12909048D01*
X10747619Y12956667D01*
X10890476Y13051905D01*
X11080952Y13099524D01*
X11461904Y13099524D01*
X11557142Y13051905D01*
X11604761Y13004286D01*
X11652380Y12909048D01*
X11652380Y12718572D01*
X11604761Y12623334D01*
X11557142Y12575715D01*
X11461904Y12528096D01*
X11223809Y12528096D01*
X11128571Y12575715D01*
X11080952Y12623334D01*
X11033333Y12718572D01*
X11033333Y12909048D01*
X11080952Y13004286D01*
X11128571Y13051905D01*
X11223809Y13099524D01*
X49557142Y28432858D02*
X49604761Y28480477D01*
X49652380Y28623334D01*
X49652380Y28718572D01*
X49604761Y28861429D01*
X49509523Y28956667D01*
X49414285Y29004286D01*
X49223809Y29051905D01*
X49080952Y29051905D01*
X48890476Y29004286D01*
X48795238Y28956667D01*
X48700000Y28861429D01*
X48652380Y28718572D01*
X48652380Y28623334D01*
X48700000Y28480477D01*
X48747619Y28432858D01*
X49652380Y27480477D02*
X49652380Y28051905D01*
X49652380Y27766191D02*
X48652380Y27766191D01*
X48795238Y27861429D01*
X48890476Y27956667D01*
X48938095Y28051905D01*
X48652380Y26575715D02*
X48652380Y27051905D01*
X49128571Y27099524D01*
X49080952Y27051905D01*
X49033333Y26956667D01*
X49033333Y26718572D01*
X49080952Y26623334D01*
X49128571Y26575715D01*
X49223809Y26528096D01*
X49461904Y26528096D01*
X49557142Y26575715D01*
X49604761Y26623334D01*
X49652380Y26718572D01*
X49652380Y26956667D01*
X49604761Y27051905D01*
X49557142Y27099524D01*
X14242857Y20232858D02*
X14290476Y20185239D01*
X14433333Y20137620D01*
X14528571Y20137620D01*
X14671428Y20185239D01*
X14766666Y20280477D01*
X14814285Y20375715D01*
X14861904Y20566191D01*
X14861904Y20709048D01*
X14814285Y20899524D01*
X14766666Y20994762D01*
X14671428Y21090000D01*
X14528571Y21137620D01*
X14433333Y21137620D01*
X14290476Y21090000D01*
X14242857Y21042381D01*
X13290476Y20137620D02*
X13861904Y20137620D01*
X13576190Y20137620D02*
X13576190Y21137620D01*
X13671428Y20994762D01*
X13766666Y20899524D01*
X13861904Y20851905D01*
X12957142Y21137620D02*
X12338095Y21137620D01*
X12671428Y20756667D01*
X12528571Y20756667D01*
X12433333Y20709048D01*
X12385714Y20661429D01*
X12338095Y20566191D01*
X12338095Y20328096D01*
X12385714Y20232858D01*
X12433333Y20185239D01*
X12528571Y20137620D01*
X12814285Y20137620D01*
X12909523Y20185239D01*
X12957142Y20232858D01*
X47042857Y20212858D02*
X47090476Y20165239D01*
X47233333Y20117620D01*
X47328571Y20117620D01*
X47471428Y20165239D01*
X47566666Y20260477D01*
X47614285Y20355715D01*
X47661904Y20546191D01*
X47661904Y20689048D01*
X47614285Y20879524D01*
X47566666Y20974762D01*
X47471428Y21070000D01*
X47328571Y21117620D01*
X47233333Y21117620D01*
X47090476Y21070000D01*
X47042857Y21022381D01*
X46090476Y20117620D02*
X46661904Y20117620D01*
X46376190Y20117620D02*
X46376190Y21117620D01*
X46471428Y20974762D01*
X46566666Y20879524D01*
X46661904Y20831905D01*
X45138095Y20117620D02*
X45709523Y20117620D01*
X45423809Y20117620D02*
X45423809Y21117620D01*
X45519047Y20974762D01*
X45614285Y20879524D01*
X45709523Y20831905D01*
X49557142Y36956667D02*
X49604761Y37004286D01*
X49652380Y37147143D01*
X49652380Y37242381D01*
X49604761Y37385239D01*
X49509523Y37480477D01*
X49414285Y37528096D01*
X49223809Y37575715D01*
X49080952Y37575715D01*
X48890476Y37528096D01*
X48795238Y37480477D01*
X48700000Y37385239D01*
X48652380Y37242381D01*
X48652380Y37147143D01*
X48700000Y37004286D01*
X48747619Y36956667D01*
X49652380Y36480477D02*
X49652380Y36290000D01*
X49604761Y36194762D01*
X49557142Y36147143D01*
X49414285Y36051905D01*
X49223809Y36004286D01*
X48842857Y36004286D01*
X48747619Y36051905D01*
X48700000Y36099524D01*
X48652380Y36194762D01*
X48652380Y36385239D01*
X48700000Y36480477D01*
X48747619Y36528096D01*
X48842857Y36575715D01*
X49080952Y36575715D01*
X49176190Y36528096D01*
X49223809Y36480477D01*
X49271428Y36385239D01*
X49271428Y36194762D01*
X49223809Y36099524D01*
X49176190Y36051905D01*
X49080952Y36004286D01*
X46957142Y31956667D02*
X47004761Y32004286D01*
X47052380Y32147143D01*
X47052380Y32242381D01*
X47004761Y32385239D01*
X46909523Y32480477D01*
X46814285Y32528096D01*
X46623809Y32575715D01*
X46480952Y32575715D01*
X46290476Y32528096D01*
X46195238Y32480477D01*
X46100000Y32385239D01*
X46052380Y32242381D01*
X46052380Y32147143D01*
X46100000Y32004286D01*
X46147619Y31956667D01*
X46480952Y31385239D02*
X46433333Y31480477D01*
X46385714Y31528096D01*
X46290476Y31575715D01*
X46242857Y31575715D01*
X46147619Y31528096D01*
X46100000Y31480477D01*
X46052380Y31385239D01*
X46052380Y31194762D01*
X46100000Y31099524D01*
X46147619Y31051905D01*
X46242857Y31004286D01*
X46290476Y31004286D01*
X46385714Y31051905D01*
X46433333Y31099524D01*
X46480952Y31194762D01*
X46480952Y31385239D01*
X46528571Y31480477D01*
X46576190Y31528096D01*
X46671428Y31575715D01*
X46861904Y31575715D01*
X46957142Y31528096D01*
X47004761Y31480477D01*
X47052380Y31385239D01*
X47052380Y31194762D01*
X47004761Y31099524D01*
X46957142Y31051905D01*
X46861904Y31004286D01*
X46671428Y31004286D01*
X46576190Y31051905D01*
X46528571Y31099524D01*
X46480952Y31194762D01*
X6809523Y34737620D02*
X6142857Y33737620D01*
X6142857Y34737620D02*
X6809523Y33737620D01*
X5238095Y33737620D02*
X5809523Y33737620D01*
X5523809Y33737620D02*
X5523809Y34737620D01*
X5619047Y34594762D01*
X5714285Y34499524D01*
X5809523Y34451905D01*
X9052380Y23351905D02*
X9861904Y23351905D01*
X9957142Y23304286D01*
X10004761Y23256667D01*
X10052380Y23161429D01*
X10052380Y22970953D01*
X10004761Y22875715D01*
X9957142Y22828096D01*
X9861904Y22780477D01*
X9052380Y22780477D01*
X9052380Y21828096D02*
X9052380Y22304286D01*
X9528571Y22351905D01*
X9480952Y22304286D01*
X9433333Y22209048D01*
X9433333Y21970953D01*
X9480952Y21875715D01*
X9528571Y21828096D01*
X9623809Y21780477D01*
X9861904Y21780477D01*
X9957142Y21828096D01*
X10004761Y21875715D01*
X10052380Y21970953D01*
X10052380Y22209048D01*
X10004761Y22304286D01*
X9957142Y22351905D01*
X11357142Y23556667D02*
X11404761Y23604286D01*
X11452380Y23747143D01*
X11452380Y23842381D01*
X11404761Y23985239D01*
X11309523Y24080477D01*
X11214285Y24128096D01*
X11023809Y24175715D01*
X10880952Y24175715D01*
X10690476Y24128096D01*
X10595238Y24080477D01*
X10500000Y23985239D01*
X10452380Y23842381D01*
X10452380Y23747143D01*
X10500000Y23604286D01*
X10547619Y23556667D01*
X10452380Y22699524D02*
X10452380Y22890000D01*
X10500000Y22985239D01*
X10547619Y23032858D01*
X10690476Y23128096D01*
X10880952Y23175715D01*
X11261904Y23175715D01*
X11357142Y23128096D01*
X11404761Y23080477D01*
X11452380Y22985239D01*
X11452380Y22794762D01*
X11404761Y22699524D01*
X11357142Y22651905D01*
X11261904Y22604286D01*
X11023809Y22604286D01*
X10928571Y22651905D01*
X10880952Y22699524D01*
X10833333Y22794762D01*
X10833333Y22985239D01*
X10880952Y23080477D01*
X10928571Y23128096D01*
X11023809Y23175715D01*
X13957142Y28556667D02*
X14004761Y28604286D01*
X14052380Y28747143D01*
X14052380Y28842381D01*
X14004761Y28985239D01*
X13909523Y29080477D01*
X13814285Y29128096D01*
X13623809Y29175715D01*
X13480952Y29175715D01*
X13290476Y29128096D01*
X13195238Y29080477D01*
X13100000Y28985239D01*
X13052380Y28842381D01*
X13052380Y28747143D01*
X13100000Y28604286D01*
X13147619Y28556667D01*
X13052380Y27651905D02*
X13052380Y28128096D01*
X13528571Y28175715D01*
X13480952Y28128096D01*
X13433333Y28032858D01*
X13433333Y27794762D01*
X13480952Y27699524D01*
X13528571Y27651905D01*
X13623809Y27604286D01*
X13861904Y27604286D01*
X13957142Y27651905D01*
X14004761Y27699524D01*
X14052380Y27794762D01*
X14052380Y28032858D01*
X14004761Y28128096D01*
X13957142Y28175715D01*
X21366666Y39832858D02*
X21414285Y39785239D01*
X21557142Y39737620D01*
X21652380Y39737620D01*
X21795238Y39785239D01*
X21890476Y39880477D01*
X21938095Y39975715D01*
X21985714Y40166191D01*
X21985714Y40309048D01*
X21938095Y40499524D01*
X21890476Y40594762D01*
X21795238Y40690000D01*
X21652380Y40737620D01*
X21557142Y40737620D01*
X21414285Y40690000D01*
X21366666Y40642381D01*
X20509523Y40404286D02*
X20509523Y39737620D01*
X20747619Y40785239D02*
X20985714Y40070953D01*
X20366666Y40070953D01*
X21366666Y38632858D02*
X21414285Y38585239D01*
X21557142Y38537620D01*
X21652380Y38537620D01*
X21795238Y38585239D01*
X21890476Y38680477D01*
X21938095Y38775715D01*
X21985714Y38966191D01*
X21985714Y39109048D01*
X21938095Y39299524D01*
X21890476Y39394762D01*
X21795238Y39490000D01*
X21652380Y39537620D01*
X21557142Y39537620D01*
X21414285Y39490000D01*
X21366666Y39442381D01*
X21033333Y39537620D02*
X20414285Y39537620D01*
X20747619Y39156667D01*
X20604761Y39156667D01*
X20509523Y39109048D01*
X20461904Y39061429D01*
X20414285Y38966191D01*
X20414285Y38728096D01*
X20461904Y38632858D01*
X20509523Y38585239D01*
X20604761Y38537620D01*
X20890476Y38537620D01*
X20985714Y38585239D01*
X21033333Y38632858D01*
X25738095Y8237620D02*
X25738095Y9237620D01*
X25500000Y9237620D01*
X25357142Y9190000D01*
X25261904Y9094762D01*
X25214285Y8999524D01*
X25166666Y8809048D01*
X25166666Y8666191D01*
X25214285Y8475715D01*
X25261904Y8380477D01*
X25357142Y8285239D01*
X25500000Y8237620D01*
X25738095Y8237620D01*
X24309523Y8904286D02*
X24309523Y8237620D01*
X24547619Y9285239D02*
X24785714Y8570953D01*
X24166666Y8570953D01*
X33138095Y8337620D02*
X33138095Y9337620D01*
X32900000Y9337620D01*
X32757142Y9290000D01*
X32661904Y9194762D01*
X32614285Y9099524D01*
X32566666Y8909048D01*
X32566666Y8766191D01*
X32614285Y8575715D01*
X32661904Y8480477D01*
X32757142Y8385239D01*
X32900000Y8337620D01*
X33138095Y8337620D01*
X32233333Y9337620D02*
X31614285Y9337620D01*
X31947619Y8956667D01*
X31804761Y8956667D01*
X31709523Y8909048D01*
X31661904Y8861429D01*
X31614285Y8766191D01*
X31614285Y8528096D01*
X31661904Y8432858D01*
X31709523Y8385239D01*
X31804761Y8337620D01*
X32090476Y8337620D01*
X32185714Y8385239D01*
X32233333Y8432858D01*
X36487976Y2237620D02*
X36487976Y1523334D01*
X36535595Y1380477D01*
X36630833Y1285239D01*
X36773690Y1237620D01*
X36868928Y1237620D01*
X36107023Y2237620D02*
X35440357Y2237620D01*
X35868928Y1237620D01*
X8161904Y33137620D02*
X8161904Y32328096D01*
X8114285Y32232858D01*
X8066666Y32185239D01*
X7971428Y32137620D01*
X7780952Y32137620D01*
X7685714Y32185239D01*
X7638095Y32232858D01*
X7590476Y32328096D01*
X7590476Y33137620D01*
X7209523Y33137620D02*
X6590476Y33137620D01*
X6923809Y32756667D01*
X6780952Y32756667D01*
X6685714Y32709048D01*
X6638095Y32661429D01*
X6590476Y32566191D01*
X6590476Y32328096D01*
X6638095Y32232858D01*
X6685714Y32185239D01*
X6780952Y32137620D01*
X7066666Y32137620D01*
X7161904Y32185239D01*
X7209523Y32232858D01*
X23557142Y35832858D02*
X23604761Y35880477D01*
X23652380Y36023334D01*
X23652380Y36118572D01*
X23604761Y36261429D01*
X23509523Y36356667D01*
X23414285Y36404286D01*
X23223809Y36451905D01*
X23080952Y36451905D01*
X22890476Y36404286D01*
X22795238Y36356667D01*
X22700000Y36261429D01*
X22652380Y36118572D01*
X22652380Y36023334D01*
X22700000Y35880477D01*
X22747619Y35832858D01*
X22652380Y35499524D02*
X22652380Y34880477D01*
X23033333Y35213810D01*
X23033333Y35070953D01*
X23080952Y34975715D01*
X23128571Y34928096D01*
X23223809Y34880477D01*
X23461904Y34880477D01*
X23557142Y34928096D01*
X23604761Y34975715D01*
X23652380Y35070953D01*
X23652380Y35356667D01*
X23604761Y35451905D01*
X23557142Y35499524D01*
X22985714Y34023334D02*
X23652380Y34023334D01*
X22604761Y34261429D02*
X23319047Y34499524D01*
X23319047Y33880477D01*
X24757142Y38632858D02*
X24804761Y38680477D01*
X24852380Y38823334D01*
X24852380Y38918572D01*
X24804761Y39061429D01*
X24709523Y39156667D01*
X24614285Y39204286D01*
X24423809Y39251905D01*
X24280952Y39251905D01*
X24090476Y39204286D01*
X23995238Y39156667D01*
X23900000Y39061429D01*
X23852380Y38918572D01*
X23852380Y38823334D01*
X23900000Y38680477D01*
X23947619Y38632858D01*
X23852380Y38299524D02*
X23852380Y37680477D01*
X24233333Y38013810D01*
X24233333Y37870953D01*
X24280952Y37775715D01*
X24328571Y37728096D01*
X24423809Y37680477D01*
X24661904Y37680477D01*
X24757142Y37728096D01*
X24804761Y37775715D01*
X24852380Y37870953D01*
X24852380Y38156667D01*
X24804761Y38251905D01*
X24757142Y38299524D01*
X23947619Y37299524D02*
X23900000Y37251905D01*
X23852380Y37156667D01*
X23852380Y36918572D01*
X23900000Y36823334D01*
X23947619Y36775715D01*
X24042857Y36728096D01*
X24138095Y36728096D01*
X24280952Y36775715D01*
X24852380Y37347143D01*
X24852380Y36728096D01*
X28957142Y37032858D02*
X29004761Y37080477D01*
X29052380Y37223334D01*
X29052380Y37318572D01*
X29004761Y37461429D01*
X28909523Y37556667D01*
X28814285Y37604286D01*
X28623809Y37651905D01*
X28480952Y37651905D01*
X28290476Y37604286D01*
X28195238Y37556667D01*
X28100000Y37461429D01*
X28052380Y37318572D01*
X28052380Y37223334D01*
X28100000Y37080477D01*
X28147619Y37032858D01*
X28052380Y36699524D02*
X28052380Y36080477D01*
X28433333Y36413810D01*
X28433333Y36270953D01*
X28480952Y36175715D01*
X28528571Y36128096D01*
X28623809Y36080477D01*
X28861904Y36080477D01*
X28957142Y36128096D01*
X29004761Y36175715D01*
X29052380Y36270953D01*
X29052380Y36556667D01*
X29004761Y36651905D01*
X28957142Y36699524D01*
X28052380Y35461429D02*
X28052380Y35366191D01*
X28100000Y35270953D01*
X28147619Y35223334D01*
X28242857Y35175715D01*
X28433333Y35128096D01*
X28671428Y35128096D01*
X28861904Y35175715D01*
X28957142Y35223334D01*
X29004761Y35270953D01*
X29052380Y35366191D01*
X29052380Y35461429D01*
X29004761Y35556667D01*
X28957142Y35604286D01*
X28861904Y35651905D01*
X28671428Y35699524D01*
X28433333Y35699524D01*
X28242857Y35651905D01*
X28147619Y35604286D01*
X28100000Y35556667D01*
X28052380Y35461429D01*
X30642857Y31832858D02*
X30690476Y31785239D01*
X30833333Y31737620D01*
X30928571Y31737620D01*
X31071428Y31785239D01*
X31166666Y31880477D01*
X31214285Y31975715D01*
X31261904Y32166191D01*
X31261904Y32309048D01*
X31214285Y32499524D01*
X31166666Y32594762D01*
X31071428Y32690000D01*
X30928571Y32737620D01*
X30833333Y32737620D01*
X30690476Y32690000D01*
X30642857Y32642381D01*
X30261904Y32642381D02*
X30214285Y32690000D01*
X30119047Y32737620D01*
X29880952Y32737620D01*
X29785714Y32690000D01*
X29738095Y32642381D01*
X29690476Y32547143D01*
X29690476Y32451905D01*
X29738095Y32309048D01*
X30309523Y31737620D01*
X29690476Y31737620D01*
X28738095Y31737620D02*
X29309523Y31737620D01*
X29023809Y31737620D02*
X29023809Y32737620D01*
X29119047Y32594762D01*
X29214285Y32499524D01*
X29309523Y32451905D01*
X26157142Y35632858D02*
X26204761Y35680477D01*
X26252380Y35823334D01*
X26252380Y35918572D01*
X26204761Y36061429D01*
X26109523Y36156667D01*
X26014285Y36204286D01*
X25823809Y36251905D01*
X25680952Y36251905D01*
X25490476Y36204286D01*
X25395238Y36156667D01*
X25300000Y36061429D01*
X25252380Y35918572D01*
X25252380Y35823334D01*
X25300000Y35680477D01*
X25347619Y35632858D01*
X25347619Y35251905D02*
X25300000Y35204286D01*
X25252380Y35109048D01*
X25252380Y34870953D01*
X25300000Y34775715D01*
X25347619Y34728096D01*
X25442857Y34680477D01*
X25538095Y34680477D01*
X25680952Y34728096D01*
X26252380Y35299524D01*
X26252380Y34680477D01*
X25252380Y34061429D02*
X25252380Y33966191D01*
X25300000Y33870953D01*
X25347619Y33823334D01*
X25442857Y33775715D01*
X25633333Y33728096D01*
X25871428Y33728096D01*
X26061904Y33775715D01*
X26157142Y33823334D01*
X26204761Y33870953D01*
X26252380Y33966191D01*
X26252380Y34061429D01*
X26204761Y34156667D01*
X26157142Y34204286D01*
X26061904Y34251905D01*
X25871428Y34299524D01*
X25633333Y34299524D01*
X25442857Y34251905D01*
X25347619Y34204286D01*
X25300000Y34156667D01*
X25252380Y34061429D01*
X27557142Y35632858D02*
X27604761Y35680477D01*
X27652380Y35823334D01*
X27652380Y35918572D01*
X27604761Y36061429D01*
X27509523Y36156667D01*
X27414285Y36204286D01*
X27223809Y36251905D01*
X27080952Y36251905D01*
X26890476Y36204286D01*
X26795238Y36156667D01*
X26700000Y36061429D01*
X26652380Y35918572D01*
X26652380Y35823334D01*
X26700000Y35680477D01*
X26747619Y35632858D01*
X27652380Y34680477D02*
X27652380Y35251905D01*
X27652380Y34966191D02*
X26652380Y34966191D01*
X26795238Y35061429D01*
X26890476Y35156667D01*
X26938095Y35251905D01*
X27652380Y34204286D02*
X27652380Y34013810D01*
X27604761Y33918572D01*
X27557142Y33870953D01*
X27414285Y33775715D01*
X27223809Y33728096D01*
X26842857Y33728096D01*
X26747619Y33775715D01*
X26700000Y33823334D01*
X26652380Y33918572D01*
X26652380Y34109048D01*
X26700000Y34204286D01*
X26747619Y34251905D01*
X26842857Y34299524D01*
X27080952Y34299524D01*
X27176190Y34251905D01*
X27223809Y34204286D01*
X27271428Y34109048D01*
X27271428Y33918572D01*
X27223809Y33823334D01*
X27176190Y33775715D01*
X27080952Y33728096D01*
X17957142Y33832858D02*
X18004761Y33880477D01*
X18052380Y34023334D01*
X18052380Y34118572D01*
X18004761Y34261429D01*
X17909523Y34356667D01*
X17814285Y34404286D01*
X17623809Y34451905D01*
X17480952Y34451905D01*
X17290476Y34404286D01*
X17195238Y34356667D01*
X17100000Y34261429D01*
X17052380Y34118572D01*
X17052380Y34023334D01*
X17100000Y33880477D01*
X17147619Y33832858D01*
X18052380Y32880477D02*
X18052380Y33451905D01*
X18052380Y33166191D02*
X17052380Y33166191D01*
X17195238Y33261429D01*
X17290476Y33356667D01*
X17338095Y33451905D01*
X17385714Y32023334D02*
X18052380Y32023334D01*
X17004761Y32261429D02*
X17719047Y32499524D01*
X17719047Y31880477D01*
X13642857Y30032858D02*
X13690476Y29985239D01*
X13833333Y29937620D01*
X13928571Y29937620D01*
X14071428Y29985239D01*
X14166666Y30080477D01*
X14214285Y30175715D01*
X14261904Y30366191D01*
X14261904Y30509048D01*
X14214285Y30699524D01*
X14166666Y30794762D01*
X14071428Y30890000D01*
X13928571Y30937620D01*
X13833333Y30937620D01*
X13690476Y30890000D01*
X13642857Y30842381D01*
X12690476Y29937620D02*
X13261904Y29937620D01*
X12976190Y29937620D02*
X12976190Y30937620D01*
X13071428Y30794762D01*
X13166666Y30699524D01*
X13261904Y30651905D01*
X12309523Y30842381D02*
X12261904Y30890000D01*
X12166666Y30937620D01*
X11928571Y30937620D01*
X11833333Y30890000D01*
X11785714Y30842381D01*
X11738095Y30747143D01*
X11738095Y30651905D01*
X11785714Y30509048D01*
X12357142Y29937620D01*
X11738095Y29937620D01*
M02*
