G04 #@! TF.GenerationSoftware,KiCad,Pcbnew,5.1.6-c6e7f7d~87~ubuntu20.04.1*
G04 #@! TF.CreationDate,2020-09-05T21:21:54-07:00*
G04 #@! TF.ProjectId,artix7-pcie-v2,61727469-7837-42d7-9063-69652d76322e,rev?*
G04 #@! TF.SameCoordinates,PX69f4060PY6b00940*
G04 #@! TF.FileFunction,Legend,Bot*
G04 #@! TF.FilePolarity,Positive*
%FSLAX46Y46*%
G04 Gerber Fmt 4.6, Leading zero omitted, Abs format (unit mm)*
G04 Created by KiCad (PCBNEW 5.1.6-c6e7f7d~87~ubuntu20.04.1) date 2020-09-05 21:21:54*
%MOMM*%
%LPD*%
G01*
G04 APERTURE LIST*
%ADD10C,0.200000*%
%ADD11C,0.120000*%
%ADD12C,0.127000*%
%ADD13C,0.250000*%
%ADD14C,0.203200*%
%ADD15C,0.015000*%
%ADD16C,0.150000*%
G04 APERTURE END LIST*
D10*
X40642857Y46811429D02*
X40642857Y48311429D01*
X40071428Y48311429D01*
X39928571Y48240000D01*
X39857142Y48168572D01*
X39785714Y48025715D01*
X39785714Y47811429D01*
X39857142Y47668572D01*
X39928571Y47597143D01*
X40071428Y47525715D01*
X40642857Y47525715D01*
X38285714Y46954286D02*
X38357142Y46882858D01*
X38571428Y46811429D01*
X38714285Y46811429D01*
X38928571Y46882858D01*
X39071428Y47025715D01*
X39142857Y47168572D01*
X39214285Y47454286D01*
X39214285Y47668572D01*
X39142857Y47954286D01*
X39071428Y48097143D01*
X38928571Y48240000D01*
X38714285Y48311429D01*
X38571428Y48311429D01*
X38357142Y48240000D01*
X38285714Y48168572D01*
X37642857Y46811429D02*
X37642857Y48311429D01*
X36357142Y46882858D02*
X36500000Y46811429D01*
X36785714Y46811429D01*
X36928571Y46882858D01*
X37000000Y47025715D01*
X37000000Y47597143D01*
X36928571Y47740000D01*
X36785714Y47811429D01*
X36500000Y47811429D01*
X36357142Y47740000D01*
X36285714Y47597143D01*
X36285714Y47454286D01*
X37000000Y47311429D01*
X25750000Y48311429D02*
X25750000Y47097143D01*
X25678571Y46954286D01*
X25607142Y46882858D01*
X25464285Y46811429D01*
X25178571Y46811429D01*
X25035714Y46882858D01*
X24964285Y46954286D01*
X24892857Y47097143D01*
X24892857Y48311429D01*
X24250000Y46882858D02*
X24035714Y46811429D01*
X23678571Y46811429D01*
X23535714Y46882858D01*
X23464285Y46954286D01*
X23392857Y47097143D01*
X23392857Y47240000D01*
X23464285Y47382858D01*
X23535714Y47454286D01*
X23678571Y47525715D01*
X23964285Y47597143D01*
X24107142Y47668572D01*
X24178571Y47740000D01*
X24250000Y47882858D01*
X24250000Y48025715D01*
X24178571Y48168572D01*
X24107142Y48240000D01*
X23964285Y48311429D01*
X23607142Y48311429D01*
X23392857Y48240000D01*
X22250000Y47597143D02*
X22035714Y47525715D01*
X21964285Y47454286D01*
X21892857Y47311429D01*
X21892857Y47097143D01*
X21964285Y46954286D01*
X22035714Y46882858D01*
X22178571Y46811429D01*
X22750000Y46811429D01*
X22750000Y48311429D01*
X22250000Y48311429D01*
X22107142Y48240000D01*
X22035714Y48168572D01*
X21964285Y48025715D01*
X21964285Y47882858D01*
X22035714Y47740000D01*
X22107142Y47668572D01*
X22250000Y47597143D01*
X22750000Y47597143D01*
X20250000Y48311429D02*
X19321428Y48311429D01*
X19821428Y47740000D01*
X19607142Y47740000D01*
X19464285Y47668572D01*
X19392857Y47597143D01*
X19321428Y47454286D01*
X19321428Y47097143D01*
X19392857Y46954286D01*
X19464285Y46882858D01*
X19607142Y46811429D01*
X20035714Y46811429D01*
X20178571Y46882858D01*
X20250000Y46954286D01*
X18678571Y46954286D02*
X18607142Y46882858D01*
X18678571Y46811429D01*
X18750000Y46882858D01*
X18678571Y46954286D01*
X18678571Y46811429D01*
X17678571Y48311429D02*
X17535714Y48311429D01*
X17392857Y48240000D01*
X17321428Y48168572D01*
X17250000Y48025715D01*
X17178571Y47740000D01*
X17178571Y47382858D01*
X17250000Y47097143D01*
X17321428Y46954286D01*
X17392857Y46882858D01*
X17535714Y46811429D01*
X17678571Y46811429D01*
X17821428Y46882858D01*
X17892857Y46954286D01*
X17964285Y47097143D01*
X18035714Y47382858D01*
X18035714Y47740000D01*
X17964285Y48025715D01*
X17892857Y48168572D01*
X17821428Y48240000D01*
X17678571Y48311429D01*
D11*
X12310000Y16310000D02*
X12310000Y11110000D01*
X17710000Y16310000D02*
X12310000Y16310000D01*
X17710000Y11110000D02*
X17710000Y16310000D01*
X12310000Y11110000D02*
X17710000Y11110000D01*
X44690000Y34300000D02*
X44690000Y39500000D01*
X39290000Y34300000D02*
X44690000Y34300000D01*
X39290000Y39500000D02*
X39290000Y34300000D01*
X44690000Y39500000D02*
X39290000Y39500000D01*
X12290000Y22520000D02*
X12290000Y17320000D01*
X17690000Y22520000D02*
X12290000Y22520000D01*
X17690000Y17320000D02*
X17690000Y22520000D01*
X12290000Y17320000D02*
X17690000Y17320000D01*
X12580000Y28660000D02*
X12580000Y23460000D01*
X17980000Y28660000D02*
X12580000Y28660000D01*
X17980000Y23460000D02*
X17980000Y28660000D01*
X12580000Y23460000D02*
X17980000Y23460000D01*
X48420000Y13780000D02*
X43220000Y13780000D01*
X48420000Y8380000D02*
X48420000Y13780000D01*
X43220000Y8380000D02*
X48420000Y8380000D01*
X43220000Y13780000D02*
X43220000Y8380000D01*
D12*
X48290000Y22785000D02*
X48290000Y21980000D01*
X45290000Y22785000D02*
X45290000Y21980000D01*
X48290000Y24980000D02*
X48290000Y24175000D01*
X45290000Y24980000D02*
X45290000Y24175000D01*
D10*
X45690000Y25875000D02*
G75*
G03*
X45690000Y25875000I-100000J0D01*
G01*
D12*
X11375000Y32820000D02*
X12180000Y32820000D01*
X11375000Y29820000D02*
X12180000Y29820000D01*
X9180000Y32820000D02*
X9985000Y32820000D01*
X9180000Y29820000D02*
X9985000Y29820000D01*
D10*
X8385000Y30120000D02*
G75*
G03*
X8385000Y30120000I-100000J0D01*
G01*
D12*
X9190000Y10850000D02*
X9850000Y10850000D01*
X8720000Y12635000D02*
X8720000Y11965000D01*
X9850000Y13750000D02*
X9190000Y13750000D01*
D10*
X12030000Y13350000D02*
G75*
G03*
X12030000Y13350000I-100000J0D01*
G01*
D12*
X48100000Y38200000D02*
X47440000Y38200000D01*
X48570000Y36415000D02*
X48570000Y37085000D01*
X47440000Y35300000D02*
X48100000Y35300000D01*
D10*
X45460000Y35700000D02*
G75*
G03*
X45460000Y35700000I-100000J0D01*
G01*
D12*
X9290000Y18690000D02*
X9950000Y18690000D01*
X8820000Y20475000D02*
X8820000Y19805000D01*
X9950000Y21590000D02*
X9290000Y21590000D01*
D10*
X12130000Y21190000D02*
G75*
G03*
X12130000Y21190000I-100000J0D01*
G01*
X12020000Y26800000D02*
G75*
G03*
X12020000Y26800000I-100000J0D01*
G01*
D12*
X10320000Y24035000D02*
X8720000Y24035000D01*
X10320000Y27165000D02*
X8720000Y27165000D01*
X45320000Y16890000D02*
X45320000Y16230000D01*
X47105000Y17360000D02*
X46435000Y17360000D01*
X48220000Y16230000D02*
X48220000Y16890000D01*
D10*
X47920000Y14150000D02*
G75*
G03*
X47920000Y14150000I-100000J0D01*
G01*
D11*
X11567936Y8480000D02*
X12772064Y8480000D01*
X11567936Y10300000D02*
X12772064Y10300000D01*
X44782064Y33550000D02*
X43577936Y33550000D01*
X44782064Y31730000D02*
X43577936Y31730000D01*
X8797936Y16360000D02*
X10002064Y16360000D01*
X8797936Y18180000D02*
X10002064Y18180000D01*
X15040000Y32142064D02*
X15040000Y30937936D01*
X16860000Y32142064D02*
X16860000Y30937936D01*
X49350000Y11502064D02*
X49350000Y10297936D01*
X51170000Y11502064D02*
X51170000Y10297936D01*
X23810000Y29155000D02*
X19900000Y29155000D01*
X23810000Y31025000D02*
X23810000Y29155000D01*
X19900000Y31025000D02*
X23810000Y31025000D01*
X18190000Y22425000D02*
X22100000Y22425000D01*
X18190000Y20555000D02*
X18190000Y22425000D01*
X22100000Y20555000D02*
X18190000Y20555000D01*
X34190000Y37725000D02*
X38100000Y37725000D01*
X34190000Y35855000D02*
X34190000Y37725000D01*
X38100000Y35855000D02*
X34190000Y35855000D01*
X52665000Y40080000D02*
X52665000Y43990000D01*
X54535000Y40080000D02*
X52665000Y40080000D01*
X54535000Y43990000D02*
X54535000Y40080000D01*
X54435000Y11100000D02*
X54435000Y7190000D01*
X52565000Y11100000D02*
X54435000Y11100000D01*
X52565000Y7190000D02*
X52565000Y11100000D01*
X33490000Y27325000D02*
X37400000Y27325000D01*
X33490000Y25455000D02*
X33490000Y27325000D01*
X37400000Y25455000D02*
X33490000Y25455000D01*
X25935000Y22200000D02*
X25935000Y18290000D01*
X24065000Y22200000D02*
X25935000Y22200000D01*
X24065000Y18290000D02*
X24065000Y22200000D01*
X32190000Y31125000D02*
X36100000Y31125000D01*
X32190000Y29255000D02*
X32190000Y31125000D01*
X36100000Y29255000D02*
X32190000Y29255000D01*
X7335000Y44900000D02*
X7335000Y40990000D01*
X5465000Y44900000D02*
X7335000Y44900000D01*
X5465000Y40990000D02*
X5465000Y44900000D01*
X5655000Y5790000D02*
X5655000Y9700000D01*
X7525000Y5790000D02*
X5655000Y5790000D01*
X7525000Y9700000D02*
X7525000Y5790000D01*
X52800000Y29340000D02*
G75*
G03*
X52800000Y29340000I-950000J0D01*
G01*
X41370000Y29800000D02*
G75*
G03*
X41370000Y29800000I-950000J0D01*
G01*
X52600000Y24290000D02*
G75*
G03*
X52600000Y24290000I-950000J0D01*
G01*
X53940000Y26740000D02*
G75*
G03*
X53940000Y26740000I-950000J0D01*
G01*
X7340000Y30900000D02*
G75*
G03*
X7340000Y30900000I-950000J0D01*
G01*
X12450000Y43890000D02*
G75*
G03*
X12450000Y43890000I-950000J0D01*
G01*
X13450000Y48890000D02*
G75*
G03*
X13450000Y48890000I-950000J0D01*
G01*
X30197936Y16880000D02*
X31402064Y16880000D01*
X30197936Y18700000D02*
X31402064Y18700000D01*
D13*
X9550000Y35390000D02*
G75*
G03*
X9550000Y35390000I-125000J0D01*
G01*
D11*
X8650000Y34990000D02*
X5350000Y34990000D01*
X5350000Y34990000D02*
X5350000Y38990000D01*
X28400000Y12840000D02*
X28400000Y9540000D01*
X28400000Y9540000D02*
X23000000Y9540000D01*
X28400000Y12840000D02*
X23000000Y12840000D01*
X28800000Y9540000D02*
X28800000Y12840000D01*
X28800000Y12840000D02*
X34200000Y12840000D01*
X28800000Y9540000D02*
X34200000Y9540000D01*
D14*
X32000000Y4390000D02*
X32000000Y7890000D01*
X32000000Y7890000D02*
X32800000Y7890000D01*
X32800000Y7890000D02*
X32800000Y5390000D01*
X32800000Y5390000D02*
X34000000Y5390000D01*
X38000000Y5390000D02*
X39200000Y5390000D01*
X39200000Y5390000D02*
X39200000Y7890000D01*
X39200000Y7890000D02*
X40000000Y7890000D01*
X40000000Y7890000D02*
X40000000Y4390000D01*
X38000000Y390000D02*
X34000000Y390000D01*
D10*
X14331428Y13460000D02*
X14331428Y12745715D01*
X15831428Y12745715D01*
X15831428Y14674286D02*
X15831428Y13960000D01*
X15117142Y13888572D01*
X15188571Y13960000D01*
X15260000Y14102858D01*
X15260000Y14460000D01*
X15188571Y14602858D01*
X15117142Y14674286D01*
X14974285Y14745715D01*
X14617142Y14745715D01*
X14474285Y14674286D01*
X14402857Y14602858D01*
X14331428Y14460000D01*
X14331428Y14102858D01*
X14402857Y13960000D01*
X14474285Y13888572D01*
X42668571Y37150000D02*
X42668571Y37864286D01*
X41168571Y37864286D01*
X41668571Y36007143D02*
X42668571Y36007143D01*
X41097142Y36364286D02*
X42168571Y36721429D01*
X42168571Y35792858D01*
X14311428Y19670000D02*
X14311428Y18955715D01*
X15811428Y18955715D01*
X15811428Y20027143D02*
X15811428Y20955715D01*
X15240000Y20455715D01*
X15240000Y20670000D01*
X15168571Y20812858D01*
X15097142Y20884286D01*
X14954285Y20955715D01*
X14597142Y20955715D01*
X14454285Y20884286D01*
X14382857Y20812858D01*
X14311428Y20670000D01*
X14311428Y20241429D01*
X14382857Y20098572D01*
X14454285Y20027143D01*
X14601428Y25810000D02*
X14601428Y25095715D01*
X16101428Y25095715D01*
X15958571Y26238572D02*
X16030000Y26310000D01*
X16101428Y26452858D01*
X16101428Y26810000D01*
X16030000Y26952858D01*
X15958571Y27024286D01*
X15815714Y27095715D01*
X15672857Y27095715D01*
X15458571Y27024286D01*
X14601428Y26167143D01*
X14601428Y27095715D01*
X46070000Y10401429D02*
X46784285Y10401429D01*
X46784285Y11901429D01*
X44784285Y10401429D02*
X45641428Y10401429D01*
X45212857Y10401429D02*
X45212857Y11901429D01*
X45355714Y11687143D01*
X45498571Y11544286D01*
X45641428Y11472858D01*
D15*
X44006123Y24350381D02*
X44524219Y24350381D01*
X44585171Y24319905D01*
X44615647Y24289429D01*
X44646123Y24228477D01*
X44646123Y24106572D01*
X44615647Y24045620D01*
X44585171Y24015143D01*
X44524219Y23984667D01*
X44006123Y23984667D01*
X44646123Y23344667D02*
X44646123Y23710381D01*
X44646123Y23527524D02*
X44006123Y23527524D01*
X44097552Y23588477D01*
X44158504Y23649429D01*
X44188980Y23710381D01*
X44006123Y22948477D02*
X44006123Y22887524D01*
X44036600Y22826572D01*
X44067076Y22796096D01*
X44128028Y22765620D01*
X44249933Y22735143D01*
X44402314Y22735143D01*
X44524219Y22765620D01*
X44585171Y22796096D01*
X44615647Y22826572D01*
X44646123Y22887524D01*
X44646123Y22948477D01*
X44615647Y23009429D01*
X44585171Y23039905D01*
X44524219Y23070381D01*
X44402314Y23100858D01*
X44249933Y23100858D01*
X44128028Y23070381D01*
X44067076Y23039905D01*
X44036600Y23009429D01*
X44006123Y22948477D01*
X11089619Y29237077D02*
X11089619Y28718981D01*
X11059142Y28658029D01*
X11028666Y28627553D01*
X10967714Y28597077D01*
X10845809Y28597077D01*
X10784857Y28627553D01*
X10754380Y28658029D01*
X10723904Y28718981D01*
X10723904Y29237077D01*
X10388666Y28597077D02*
X10266761Y28597077D01*
X10205809Y28627553D01*
X10175333Y28658029D01*
X10114380Y28749458D01*
X10083904Y28871362D01*
X10083904Y29115172D01*
X10114380Y29176124D01*
X10144857Y29206600D01*
X10205809Y29237077D01*
X10327714Y29237077D01*
X10388666Y29206600D01*
X10419142Y29176124D01*
X10449619Y29115172D01*
X10449619Y28962791D01*
X10419142Y28901839D01*
X10388666Y28871362D01*
X10327714Y28840886D01*
X10205809Y28840886D01*
X10144857Y28871362D01*
X10114380Y28901839D01*
X10083904Y28962791D01*
X10189523Y15246096D02*
X10189523Y14598477D01*
X10151428Y14522286D01*
X10113333Y14484191D01*
X10037142Y14446096D01*
X9884761Y14446096D01*
X9808571Y14484191D01*
X9770476Y14522286D01*
X9732380Y14598477D01*
X9732380Y15246096D01*
X9237142Y14903239D02*
X9313333Y14941334D01*
X9351428Y14979429D01*
X9389523Y15055620D01*
X9389523Y15093715D01*
X9351428Y15169905D01*
X9313333Y15208000D01*
X9237142Y15246096D01*
X9084761Y15246096D01*
X9008571Y15208000D01*
X8970476Y15169905D01*
X8932380Y15093715D01*
X8932380Y15055620D01*
X8970476Y14979429D01*
X9008571Y14941334D01*
X9084761Y14903239D01*
X9237142Y14903239D01*
X9313333Y14865143D01*
X9351428Y14827048D01*
X9389523Y14750858D01*
X9389523Y14598477D01*
X9351428Y14522286D01*
X9313333Y14484191D01*
X9237142Y14446096D01*
X9084761Y14446096D01*
X9008571Y14484191D01*
X8970476Y14522286D01*
X8932380Y14598477D01*
X8932380Y14750858D01*
X8970476Y14827048D01*
X9008571Y14865143D01*
X9084761Y14903239D01*
X48319523Y34680096D02*
X48319523Y34032477D01*
X48281428Y33956286D01*
X48243333Y33918191D01*
X48167142Y33880096D01*
X48014761Y33880096D01*
X47938571Y33918191D01*
X47900476Y33956286D01*
X47862380Y34032477D01*
X47862380Y34680096D01*
X47557619Y34680096D02*
X47024285Y34680096D01*
X47367142Y33880096D01*
X10289523Y23086096D02*
X10289523Y22438477D01*
X10251428Y22362286D01*
X10213333Y22324191D01*
X10137142Y22286096D01*
X9984761Y22286096D01*
X9908571Y22324191D01*
X9870476Y22362286D01*
X9832380Y22438477D01*
X9832380Y23086096D01*
X9108571Y23086096D02*
X9260952Y23086096D01*
X9337142Y23048000D01*
X9375238Y23009905D01*
X9451428Y22895620D01*
X9489523Y22743239D01*
X9489523Y22438477D01*
X9451428Y22362286D01*
X9413333Y22324191D01*
X9337142Y22286096D01*
X9184761Y22286096D01*
X9108571Y22324191D01*
X9070476Y22362286D01*
X9032380Y22438477D01*
X9032380Y22628953D01*
X9070476Y22705143D01*
X9108571Y22743239D01*
X9184761Y22781334D01*
X9337142Y22781334D01*
X9413333Y22743239D01*
X9451428Y22705143D01*
X9489523Y22628953D01*
X10075619Y28156877D02*
X10075619Y27638781D01*
X10045142Y27577829D01*
X10014666Y27547353D01*
X9953714Y27516877D01*
X9831809Y27516877D01*
X9770857Y27547353D01*
X9740380Y27577829D01*
X9709904Y27638781D01*
X9709904Y28156877D01*
X9100380Y28156877D02*
X9405142Y28156877D01*
X9435619Y27852115D01*
X9405142Y27882591D01*
X9344190Y27913067D01*
X9191809Y27913067D01*
X9130857Y27882591D01*
X9100380Y27852115D01*
X9069904Y27791162D01*
X9069904Y27638781D01*
X9100380Y27577829D01*
X9130857Y27547353D01*
X9191809Y27516877D01*
X9344190Y27516877D01*
X9405142Y27547353D01*
X9435619Y27577829D01*
X48839904Y17109524D02*
X49487523Y17109524D01*
X49563714Y17071429D01*
X49601809Y17033334D01*
X49639904Y16957143D01*
X49639904Y16804762D01*
X49601809Y16728572D01*
X49563714Y16690477D01*
X49487523Y16652381D01*
X48839904Y16652381D01*
X48839904Y16347620D02*
X48839904Y15852381D01*
X49144666Y16119048D01*
X49144666Y16004762D01*
X49182761Y15928572D01*
X49220857Y15890477D01*
X49297047Y15852381D01*
X49487523Y15852381D01*
X49563714Y15890477D01*
X49601809Y15928572D01*
X49639904Y16004762D01*
X49639904Y16233334D01*
X49601809Y16309524D01*
X49563714Y16347620D01*
D16*
X46532857Y18367620D02*
X46866190Y18843810D01*
X47104285Y18367620D02*
X47104285Y19367620D01*
X46723333Y19367620D01*
X46628095Y19320000D01*
X46580476Y19272381D01*
X46532857Y19177143D01*
X46532857Y19034286D01*
X46580476Y18939048D01*
X46628095Y18891429D01*
X46723333Y18843810D01*
X47104285Y18843810D01*
X46199523Y19367620D02*
X45580476Y19367620D01*
X45913809Y18986667D01*
X45770952Y18986667D01*
X45675714Y18939048D01*
X45628095Y18891429D01*
X45580476Y18796191D01*
X45580476Y18558096D01*
X45628095Y18462858D01*
X45675714Y18415239D01*
X45770952Y18367620D01*
X46056666Y18367620D01*
X46151904Y18415239D01*
X46199523Y18462858D01*
X45104285Y18367620D02*
X44913809Y18367620D01*
X44818571Y18415239D01*
X44770952Y18462858D01*
X44675714Y18605715D01*
X44628095Y18796191D01*
X44628095Y19177143D01*
X44675714Y19272381D01*
X44723333Y19320000D01*
X44818571Y19367620D01*
X45009047Y19367620D01*
X45104285Y19320000D01*
X45151904Y19272381D01*
X45199523Y19177143D01*
X45199523Y18939048D01*
X45151904Y18843810D01*
X45104285Y18796191D01*
X45009047Y18748572D01*
X44818571Y18748572D01*
X44723333Y18796191D01*
X44675714Y18843810D01*
X44628095Y18939048D01*
X48452857Y19377620D02*
X48786190Y19853810D01*
X49024285Y19377620D02*
X49024285Y20377620D01*
X48643333Y20377620D01*
X48548095Y20330000D01*
X48500476Y20282381D01*
X48452857Y20187143D01*
X48452857Y20044286D01*
X48500476Y19949048D01*
X48548095Y19901429D01*
X48643333Y19853810D01*
X49024285Y19853810D01*
X48119523Y20377620D02*
X47500476Y20377620D01*
X47833809Y19996667D01*
X47690952Y19996667D01*
X47595714Y19949048D01*
X47548095Y19901429D01*
X47500476Y19806191D01*
X47500476Y19568096D01*
X47548095Y19472858D01*
X47595714Y19425239D01*
X47690952Y19377620D01*
X47976666Y19377620D01*
X48071904Y19425239D01*
X48119523Y19472858D01*
X46929047Y19949048D02*
X47024285Y19996667D01*
X47071904Y20044286D01*
X47119523Y20139524D01*
X47119523Y20187143D01*
X47071904Y20282381D01*
X47024285Y20330000D01*
X46929047Y20377620D01*
X46738571Y20377620D01*
X46643333Y20330000D01*
X46595714Y20282381D01*
X46548095Y20187143D01*
X46548095Y20139524D01*
X46595714Y20044286D01*
X46643333Y19996667D01*
X46738571Y19949048D01*
X46929047Y19949048D01*
X47024285Y19901429D01*
X47071904Y19853810D01*
X47119523Y19758572D01*
X47119523Y19568096D01*
X47071904Y19472858D01*
X47024285Y19425239D01*
X46929047Y19377620D01*
X46738571Y19377620D01*
X46643333Y19425239D01*
X46595714Y19472858D01*
X46548095Y19568096D01*
X46548095Y19758572D01*
X46595714Y19853810D01*
X46643333Y19901429D01*
X46738571Y19949048D01*
X46532857Y19377620D02*
X46866190Y19853810D01*
X47104285Y19377620D02*
X47104285Y20377620D01*
X46723333Y20377620D01*
X46628095Y20330000D01*
X46580476Y20282381D01*
X46532857Y20187143D01*
X46532857Y20044286D01*
X46580476Y19949048D01*
X46628095Y19901429D01*
X46723333Y19853810D01*
X47104285Y19853810D01*
X46199523Y20377620D02*
X45580476Y20377620D01*
X45913809Y19996667D01*
X45770952Y19996667D01*
X45675714Y19949048D01*
X45628095Y19901429D01*
X45580476Y19806191D01*
X45580476Y19568096D01*
X45628095Y19472858D01*
X45675714Y19425239D01*
X45770952Y19377620D01*
X46056666Y19377620D01*
X46151904Y19425239D01*
X46199523Y19472858D01*
X44723333Y20377620D02*
X44913809Y20377620D01*
X45009047Y20330000D01*
X45056666Y20282381D01*
X45151904Y20139524D01*
X45199523Y19949048D01*
X45199523Y19568096D01*
X45151904Y19472858D01*
X45104285Y19425239D01*
X45009047Y19377620D01*
X44818571Y19377620D01*
X44723333Y19425239D01*
X44675714Y19472858D01*
X44628095Y19568096D01*
X44628095Y19806191D01*
X44675714Y19901429D01*
X44723333Y19949048D01*
X44818571Y19996667D01*
X45009047Y19996667D01*
X45104285Y19949048D01*
X45151904Y19901429D01*
X45199523Y19806191D01*
X48142857Y27667620D02*
X48476190Y28143810D01*
X48714285Y27667620D02*
X48714285Y28667620D01*
X48333333Y28667620D01*
X48238095Y28620000D01*
X48190476Y28572381D01*
X48142857Y28477143D01*
X48142857Y28334286D01*
X48190476Y28239048D01*
X48238095Y28191429D01*
X48333333Y28143810D01*
X48714285Y28143810D01*
X47809523Y28667620D02*
X47190476Y28667620D01*
X47523809Y28286667D01*
X47380952Y28286667D01*
X47285714Y28239048D01*
X47238095Y28191429D01*
X47190476Y28096191D01*
X47190476Y27858096D01*
X47238095Y27762858D01*
X47285714Y27715239D01*
X47380952Y27667620D01*
X47666666Y27667620D01*
X47761904Y27715239D01*
X47809523Y27762858D01*
X46857142Y28667620D02*
X46238095Y28667620D01*
X46571428Y28286667D01*
X46428571Y28286667D01*
X46333333Y28239048D01*
X46285714Y28191429D01*
X46238095Y28096191D01*
X46238095Y27858096D01*
X46285714Y27762858D01*
X46333333Y27715239D01*
X46428571Y27667620D01*
X46714285Y27667620D01*
X46809523Y27715239D01*
X46857142Y27762858D01*
X14782380Y32952858D02*
X14306190Y33286191D01*
X14782380Y33524286D02*
X13782380Y33524286D01*
X13782380Y33143334D01*
X13830000Y33048096D01*
X13877619Y33000477D01*
X13972857Y32952858D01*
X14115714Y32952858D01*
X14210952Y33000477D01*
X14258571Y33048096D01*
X14306190Y33143334D01*
X14306190Y33524286D01*
X13782380Y32619524D02*
X13782380Y32000477D01*
X14163333Y32333810D01*
X14163333Y32190953D01*
X14210952Y32095715D01*
X14258571Y32048096D01*
X14353809Y32000477D01*
X14591904Y32000477D01*
X14687142Y32048096D01*
X14734761Y32095715D01*
X14782380Y32190953D01*
X14782380Y32476667D01*
X14734761Y32571905D01*
X14687142Y32619524D01*
X13877619Y31619524D02*
X13830000Y31571905D01*
X13782380Y31476667D01*
X13782380Y31238572D01*
X13830000Y31143334D01*
X13877619Y31095715D01*
X13972857Y31048096D01*
X14068095Y31048096D01*
X14210952Y31095715D01*
X14782380Y31667143D01*
X14782380Y31048096D01*
X14782380Y31032858D02*
X14306190Y31366191D01*
X14782380Y31604286D02*
X13782380Y31604286D01*
X13782380Y31223334D01*
X13830000Y31128096D01*
X13877619Y31080477D01*
X13972857Y31032858D01*
X14115714Y31032858D01*
X14210952Y31080477D01*
X14258571Y31128096D01*
X14306190Y31223334D01*
X14306190Y31604286D01*
X13782380Y30699524D02*
X13782380Y30080477D01*
X14163333Y30413810D01*
X14163333Y30270953D01*
X14210952Y30175715D01*
X14258571Y30128096D01*
X14353809Y30080477D01*
X14591904Y30080477D01*
X14687142Y30128096D01*
X14734761Y30175715D01*
X14782380Y30270953D01*
X14782380Y30556667D01*
X14734761Y30651905D01*
X14687142Y30699524D01*
X14782380Y29128096D02*
X14782380Y29699524D01*
X14782380Y29413810D02*
X13782380Y29413810D01*
X13925238Y29509048D01*
X14020476Y29604286D01*
X14068095Y29699524D01*
X47232857Y32847620D02*
X47566190Y33323810D01*
X47804285Y32847620D02*
X47804285Y33847620D01*
X47423333Y33847620D01*
X47328095Y33800000D01*
X47280476Y33752381D01*
X47232857Y33657143D01*
X47232857Y33514286D01*
X47280476Y33419048D01*
X47328095Y33371429D01*
X47423333Y33323810D01*
X47804285Y33323810D01*
X46851904Y33752381D02*
X46804285Y33800000D01*
X46709047Y33847620D01*
X46470952Y33847620D01*
X46375714Y33800000D01*
X46328095Y33752381D01*
X46280476Y33657143D01*
X46280476Y33561905D01*
X46328095Y33419048D01*
X46899523Y32847620D01*
X46280476Y32847620D01*
X45375714Y33847620D02*
X45851904Y33847620D01*
X45899523Y33371429D01*
X45851904Y33419048D01*
X45756666Y33466667D01*
X45518571Y33466667D01*
X45423333Y33419048D01*
X45375714Y33371429D01*
X45328095Y33276191D01*
X45328095Y33038096D01*
X45375714Y32942858D01*
X45423333Y32895239D01*
X45518571Y32847620D01*
X45756666Y32847620D01*
X45851904Y32895239D01*
X45899523Y32942858D01*
X10812857Y16247620D02*
X11146190Y16723810D01*
X11384285Y16247620D02*
X11384285Y17247620D01*
X11003333Y17247620D01*
X10908095Y17200000D01*
X10860476Y17152381D01*
X10812857Y17057143D01*
X10812857Y16914286D01*
X10860476Y16819048D01*
X10908095Y16771429D01*
X11003333Y16723810D01*
X11384285Y16723810D01*
X10431904Y17152381D02*
X10384285Y17200000D01*
X10289047Y17247620D01*
X10050952Y17247620D01*
X9955714Y17200000D01*
X9908095Y17152381D01*
X9860476Y17057143D01*
X9860476Y16961905D01*
X9908095Y16819048D01*
X10479523Y16247620D01*
X9860476Y16247620D01*
X9003333Y16914286D02*
X9003333Y16247620D01*
X9241428Y17295239D02*
X9479523Y16580953D01*
X8860476Y16580953D01*
X10812857Y15247620D02*
X11146190Y15723810D01*
X11384285Y15247620D02*
X11384285Y16247620D01*
X11003333Y16247620D01*
X10908095Y16200000D01*
X10860476Y16152381D01*
X10812857Y16057143D01*
X10812857Y15914286D01*
X10860476Y15819048D01*
X10908095Y15771429D01*
X11003333Y15723810D01*
X11384285Y15723810D01*
X10431904Y16152381D02*
X10384285Y16200000D01*
X10289047Y16247620D01*
X10050952Y16247620D01*
X9955714Y16200000D01*
X9908095Y16152381D01*
X9860476Y16057143D01*
X9860476Y15961905D01*
X9908095Y15819048D01*
X10479523Y15247620D01*
X9860476Y15247620D01*
X9527142Y16247620D02*
X8908095Y16247620D01*
X9241428Y15866667D01*
X9098571Y15866667D01*
X9003333Y15819048D01*
X8955714Y15771429D01*
X8908095Y15676191D01*
X8908095Y15438096D01*
X8955714Y15342858D01*
X9003333Y15295239D01*
X9098571Y15247620D01*
X9384285Y15247620D01*
X9479523Y15295239D01*
X9527142Y15342858D01*
X49182857Y32847620D02*
X49516190Y33323810D01*
X49754285Y32847620D02*
X49754285Y33847620D01*
X49373333Y33847620D01*
X49278095Y33800000D01*
X49230476Y33752381D01*
X49182857Y33657143D01*
X49182857Y33514286D01*
X49230476Y33419048D01*
X49278095Y33371429D01*
X49373333Y33323810D01*
X49754285Y33323810D01*
X48801904Y33752381D02*
X48754285Y33800000D01*
X48659047Y33847620D01*
X48420952Y33847620D01*
X48325714Y33800000D01*
X48278095Y33752381D01*
X48230476Y33657143D01*
X48230476Y33561905D01*
X48278095Y33419048D01*
X48849523Y32847620D01*
X48230476Y32847620D01*
X47849523Y33752381D02*
X47801904Y33800000D01*
X47706666Y33847620D01*
X47468571Y33847620D01*
X47373333Y33800000D01*
X47325714Y33752381D01*
X47278095Y33657143D01*
X47278095Y33561905D01*
X47325714Y33419048D01*
X47897142Y32847620D01*
X47278095Y32847620D01*
X8762857Y15747620D02*
X9096190Y16223810D01*
X9334285Y15747620D02*
X9334285Y16747620D01*
X8953333Y16747620D01*
X8858095Y16700000D01*
X8810476Y16652381D01*
X8762857Y16557143D01*
X8762857Y16414286D01*
X8810476Y16319048D01*
X8858095Y16271429D01*
X8953333Y16223810D01*
X9334285Y16223810D01*
X8381904Y16652381D02*
X8334285Y16700000D01*
X8239047Y16747620D01*
X8000952Y16747620D01*
X7905714Y16700000D01*
X7858095Y16652381D01*
X7810476Y16557143D01*
X7810476Y16461905D01*
X7858095Y16319048D01*
X8429523Y15747620D01*
X7810476Y15747620D01*
X6858095Y15747620D02*
X7429523Y15747620D01*
X7143809Y15747620D02*
X7143809Y16747620D01*
X7239047Y16604762D01*
X7334285Y16509524D01*
X7429523Y16461905D01*
X52102380Y36932858D02*
X51626190Y37266191D01*
X52102380Y37504286D02*
X51102380Y37504286D01*
X51102380Y37123334D01*
X51150000Y37028096D01*
X51197619Y36980477D01*
X51292857Y36932858D01*
X51435714Y36932858D01*
X51530952Y36980477D01*
X51578571Y37028096D01*
X51626190Y37123334D01*
X51626190Y37504286D01*
X51197619Y36551905D02*
X51150000Y36504286D01*
X51102380Y36409048D01*
X51102380Y36170953D01*
X51150000Y36075715D01*
X51197619Y36028096D01*
X51292857Y35980477D01*
X51388095Y35980477D01*
X51530952Y36028096D01*
X52102380Y36599524D01*
X52102380Y35980477D01*
X51102380Y35361429D02*
X51102380Y35266191D01*
X51150000Y35170953D01*
X51197619Y35123334D01*
X51292857Y35075715D01*
X51483333Y35028096D01*
X51721428Y35028096D01*
X51911904Y35075715D01*
X52007142Y35123334D01*
X52054761Y35170953D01*
X52102380Y35266191D01*
X52102380Y35361429D01*
X52054761Y35456667D01*
X52007142Y35504286D01*
X51911904Y35551905D01*
X51721428Y35599524D01*
X51483333Y35599524D01*
X51292857Y35551905D01*
X51197619Y35504286D01*
X51150000Y35456667D01*
X51102380Y35361429D01*
X9872857Y24077620D02*
X10206190Y24553810D01*
X10444285Y24077620D02*
X10444285Y25077620D01*
X10063333Y25077620D01*
X9968095Y25030000D01*
X9920476Y24982381D01*
X9872857Y24887143D01*
X9872857Y24744286D01*
X9920476Y24649048D01*
X9968095Y24601429D01*
X10063333Y24553810D01*
X10444285Y24553810D01*
X8920476Y24077620D02*
X9491904Y24077620D01*
X9206190Y24077620D02*
X9206190Y25077620D01*
X9301428Y24934762D01*
X9396666Y24839524D01*
X9491904Y24791905D01*
X8444285Y24077620D02*
X8253809Y24077620D01*
X8158571Y24125239D01*
X8110952Y24172858D01*
X8015714Y24315715D01*
X7968095Y24506191D01*
X7968095Y24887143D01*
X8015714Y24982381D01*
X8063333Y25030000D01*
X8158571Y25077620D01*
X8349047Y25077620D01*
X8444285Y25030000D01*
X8491904Y24982381D01*
X8539523Y24887143D01*
X8539523Y24649048D01*
X8491904Y24553810D01*
X8444285Y24506191D01*
X8349047Y24458572D01*
X8158571Y24458572D01*
X8063333Y24506191D01*
X8015714Y24553810D01*
X7968095Y24649048D01*
X9872857Y20747620D02*
X10206190Y21223810D01*
X10444285Y20747620D02*
X10444285Y21747620D01*
X10063333Y21747620D01*
X9968095Y21700000D01*
X9920476Y21652381D01*
X9872857Y21557143D01*
X9872857Y21414286D01*
X9920476Y21319048D01*
X9968095Y21271429D01*
X10063333Y21223810D01*
X10444285Y21223810D01*
X8920476Y20747620D02*
X9491904Y20747620D01*
X9206190Y20747620D02*
X9206190Y21747620D01*
X9301428Y21604762D01*
X9396666Y21509524D01*
X9491904Y21461905D01*
X8349047Y21319048D02*
X8444285Y21366667D01*
X8491904Y21414286D01*
X8539523Y21509524D01*
X8539523Y21557143D01*
X8491904Y21652381D01*
X8444285Y21700000D01*
X8349047Y21747620D01*
X8158571Y21747620D01*
X8063333Y21700000D01*
X8015714Y21652381D01*
X7968095Y21557143D01*
X7968095Y21509524D01*
X8015714Y21414286D01*
X8063333Y21366667D01*
X8158571Y21319048D01*
X8349047Y21319048D01*
X8444285Y21271429D01*
X8491904Y21223810D01*
X8539523Y21128572D01*
X8539523Y20938096D01*
X8491904Y20842858D01*
X8444285Y20795239D01*
X8349047Y20747620D01*
X8158571Y20747620D01*
X8063333Y20795239D01*
X8015714Y20842858D01*
X7968095Y20938096D01*
X7968095Y21128572D01*
X8015714Y21223810D01*
X8063333Y21271429D01*
X8158571Y21319048D01*
X10192857Y28547620D02*
X10526190Y29023810D01*
X10764285Y28547620D02*
X10764285Y29547620D01*
X10383333Y29547620D01*
X10288095Y29500000D01*
X10240476Y29452381D01*
X10192857Y29357143D01*
X10192857Y29214286D01*
X10240476Y29119048D01*
X10288095Y29071429D01*
X10383333Y29023810D01*
X10764285Y29023810D01*
X9240476Y28547620D02*
X9811904Y28547620D01*
X9526190Y28547620D02*
X9526190Y29547620D01*
X9621428Y29404762D01*
X9716666Y29309524D01*
X9811904Y29261905D01*
X8907142Y29547620D02*
X8240476Y29547620D01*
X8669047Y28547620D01*
X10182857Y29557620D02*
X10516190Y30033810D01*
X10754285Y29557620D02*
X10754285Y30557620D01*
X10373333Y30557620D01*
X10278095Y30510000D01*
X10230476Y30462381D01*
X10182857Y30367143D01*
X10182857Y30224286D01*
X10230476Y30129048D01*
X10278095Y30081429D01*
X10373333Y30033810D01*
X10754285Y30033810D01*
X9230476Y29557620D02*
X9801904Y29557620D01*
X9516190Y29557620D02*
X9516190Y30557620D01*
X9611428Y30414762D01*
X9706666Y30319524D01*
X9801904Y30271905D01*
X8373333Y30557620D02*
X8563809Y30557620D01*
X8659047Y30510000D01*
X8706666Y30462381D01*
X8801904Y30319524D01*
X8849523Y30129048D01*
X8849523Y29748096D01*
X8801904Y29652858D01*
X8754285Y29605239D01*
X8659047Y29557620D01*
X8468571Y29557620D01*
X8373333Y29605239D01*
X8325714Y29652858D01*
X8278095Y29748096D01*
X8278095Y29986191D01*
X8325714Y30081429D01*
X8373333Y30129048D01*
X8468571Y30176667D01*
X8659047Y30176667D01*
X8754285Y30129048D01*
X8801904Y30081429D01*
X8849523Y29986191D01*
X50712380Y15922858D02*
X50236190Y16256191D01*
X50712380Y16494286D02*
X49712380Y16494286D01*
X49712380Y16113334D01*
X49760000Y16018096D01*
X49807619Y15970477D01*
X49902857Y15922858D01*
X50045714Y15922858D01*
X50140952Y15970477D01*
X50188571Y16018096D01*
X50236190Y16113334D01*
X50236190Y16494286D01*
X50712380Y14970477D02*
X50712380Y15541905D01*
X50712380Y15256191D02*
X49712380Y15256191D01*
X49855238Y15351429D01*
X49950476Y15446667D01*
X49998095Y15541905D01*
X49712380Y14065715D02*
X49712380Y14541905D01*
X50188571Y14589524D01*
X50140952Y14541905D01*
X50093333Y14446667D01*
X50093333Y14208572D01*
X50140952Y14113334D01*
X50188571Y14065715D01*
X50283809Y14018096D01*
X50521904Y14018096D01*
X50617142Y14065715D01*
X50664761Y14113334D01*
X50712380Y14208572D01*
X50712380Y14446667D01*
X50664761Y14541905D01*
X50617142Y14589524D01*
X7032857Y27247620D02*
X7366190Y27723810D01*
X7604285Y27247620D02*
X7604285Y28247620D01*
X7223333Y28247620D01*
X7128095Y28200000D01*
X7080476Y28152381D01*
X7032857Y28057143D01*
X7032857Y27914286D01*
X7080476Y27819048D01*
X7128095Y27771429D01*
X7223333Y27723810D01*
X7604285Y27723810D01*
X6080476Y27247620D02*
X6651904Y27247620D01*
X6366190Y27247620D02*
X6366190Y28247620D01*
X6461428Y28104762D01*
X6556666Y28009524D01*
X6651904Y27961905D01*
X5223333Y27914286D02*
X5223333Y27247620D01*
X5461428Y28295239D02*
X5699523Y27580953D01*
X5080476Y27580953D01*
X50712380Y17872858D02*
X50236190Y18206191D01*
X50712380Y18444286D02*
X49712380Y18444286D01*
X49712380Y18063334D01*
X49760000Y17968096D01*
X49807619Y17920477D01*
X49902857Y17872858D01*
X50045714Y17872858D01*
X50140952Y17920477D01*
X50188571Y17968096D01*
X50236190Y18063334D01*
X50236190Y18444286D01*
X50712380Y16920477D02*
X50712380Y17491905D01*
X50712380Y17206191D02*
X49712380Y17206191D01*
X49855238Y17301429D01*
X49950476Y17396667D01*
X49998095Y17491905D01*
X49712380Y16587143D02*
X49712380Y15968096D01*
X50093333Y16301429D01*
X50093333Y16158572D01*
X50140952Y16063334D01*
X50188571Y16015715D01*
X50283809Y15968096D01*
X50521904Y15968096D01*
X50617142Y16015715D01*
X50664761Y16063334D01*
X50712380Y16158572D01*
X50712380Y16444286D01*
X50664761Y16539524D01*
X50617142Y16587143D01*
X50712380Y19812858D02*
X50236190Y20146191D01*
X50712380Y20384286D02*
X49712380Y20384286D01*
X49712380Y20003334D01*
X49760000Y19908096D01*
X49807619Y19860477D01*
X49902857Y19812858D01*
X50045714Y19812858D01*
X50140952Y19860477D01*
X50188571Y19908096D01*
X50236190Y20003334D01*
X50236190Y20384286D01*
X50712380Y18860477D02*
X50712380Y19431905D01*
X50712380Y19146191D02*
X49712380Y19146191D01*
X49855238Y19241429D01*
X49950476Y19336667D01*
X49998095Y19431905D01*
X49807619Y18479524D02*
X49760000Y18431905D01*
X49712380Y18336667D01*
X49712380Y18098572D01*
X49760000Y18003334D01*
X49807619Y17955715D01*
X49902857Y17908096D01*
X49998095Y17908096D01*
X50140952Y17955715D01*
X50712380Y18527143D01*
X50712380Y17908096D01*
X7032857Y28597620D02*
X7366190Y29073810D01*
X7604285Y28597620D02*
X7604285Y29597620D01*
X7223333Y29597620D01*
X7128095Y29550000D01*
X7080476Y29502381D01*
X7032857Y29407143D01*
X7032857Y29264286D01*
X7080476Y29169048D01*
X7128095Y29121429D01*
X7223333Y29073810D01*
X7604285Y29073810D01*
X6080476Y28597620D02*
X6651904Y28597620D01*
X6366190Y28597620D02*
X6366190Y29597620D01*
X6461428Y29454762D01*
X6556666Y29359524D01*
X6651904Y29311905D01*
X5128095Y28597620D02*
X5699523Y28597620D01*
X5413809Y28597620D02*
X5413809Y29597620D01*
X5509047Y29454762D01*
X5604285Y29359524D01*
X5699523Y29311905D01*
X45817142Y22222858D02*
X45864761Y22270477D01*
X45912380Y22413334D01*
X45912380Y22508572D01*
X45864761Y22651429D01*
X45769523Y22746667D01*
X45674285Y22794286D01*
X45483809Y22841905D01*
X45340952Y22841905D01*
X45150476Y22794286D01*
X45055238Y22746667D01*
X44960000Y22651429D01*
X44912380Y22508572D01*
X44912380Y22413334D01*
X44960000Y22270477D01*
X45007619Y22222858D01*
X44912380Y21889524D02*
X44912380Y21270477D01*
X45293333Y21603810D01*
X45293333Y21460953D01*
X45340952Y21365715D01*
X45388571Y21318096D01*
X45483809Y21270477D01*
X45721904Y21270477D01*
X45817142Y21318096D01*
X45864761Y21365715D01*
X45912380Y21460953D01*
X45912380Y21746667D01*
X45864761Y21841905D01*
X45817142Y21889524D01*
X44912380Y20413334D02*
X44912380Y20603810D01*
X44960000Y20699048D01*
X45007619Y20746667D01*
X45150476Y20841905D01*
X45340952Y20889524D01*
X45721904Y20889524D01*
X45817142Y20841905D01*
X45864761Y20794286D01*
X45912380Y20699048D01*
X45912380Y20508572D01*
X45864761Y20413334D01*
X45817142Y20365715D01*
X45721904Y20318096D01*
X45483809Y20318096D01*
X45388571Y20365715D01*
X45340952Y20413334D01*
X45293333Y20508572D01*
X45293333Y20699048D01*
X45340952Y20794286D01*
X45388571Y20841905D01*
X45483809Y20889524D01*
X13347142Y31032858D02*
X13394761Y31080477D01*
X13442380Y31223334D01*
X13442380Y31318572D01*
X13394761Y31461429D01*
X13299523Y31556667D01*
X13204285Y31604286D01*
X13013809Y31651905D01*
X12870952Y31651905D01*
X12680476Y31604286D01*
X12585238Y31556667D01*
X12490000Y31461429D01*
X12442380Y31318572D01*
X12442380Y31223334D01*
X12490000Y31080477D01*
X12537619Y31032858D01*
X12442380Y30699524D02*
X12442380Y30080477D01*
X12823333Y30413810D01*
X12823333Y30270953D01*
X12870952Y30175715D01*
X12918571Y30128096D01*
X13013809Y30080477D01*
X13251904Y30080477D01*
X13347142Y30128096D01*
X13394761Y30175715D01*
X13442380Y30270953D01*
X13442380Y30556667D01*
X13394761Y30651905D01*
X13347142Y30699524D01*
X12442380Y29175715D02*
X12442380Y29651905D01*
X12918571Y29699524D01*
X12870952Y29651905D01*
X12823333Y29556667D01*
X12823333Y29318572D01*
X12870952Y29223334D01*
X12918571Y29175715D01*
X13013809Y29128096D01*
X13251904Y29128096D01*
X13347142Y29175715D01*
X13394761Y29223334D01*
X13442380Y29318572D01*
X13442380Y29556667D01*
X13394761Y29651905D01*
X13347142Y29699524D01*
X46172857Y24452858D02*
X46220476Y24405239D01*
X46363333Y24357620D01*
X46458571Y24357620D01*
X46601428Y24405239D01*
X46696666Y24500477D01*
X46744285Y24595715D01*
X46791904Y24786191D01*
X46791904Y24929048D01*
X46744285Y25119524D01*
X46696666Y25214762D01*
X46601428Y25310000D01*
X46458571Y25357620D01*
X46363333Y25357620D01*
X46220476Y25310000D01*
X46172857Y25262381D01*
X45220476Y24357620D02*
X45791904Y24357620D01*
X45506190Y24357620D02*
X45506190Y25357620D01*
X45601428Y25214762D01*
X45696666Y25119524D01*
X45791904Y25071905D01*
X44363333Y25357620D02*
X44553809Y25357620D01*
X44649047Y25310000D01*
X44696666Y25262381D01*
X44791904Y25119524D01*
X44839523Y24929048D01*
X44839523Y24548096D01*
X44791904Y24452858D01*
X44744285Y24405239D01*
X44649047Y24357620D01*
X44458571Y24357620D01*
X44363333Y24405239D01*
X44315714Y24452858D01*
X44268095Y24548096D01*
X44268095Y24786191D01*
X44315714Y24881429D01*
X44363333Y24929048D01*
X44458571Y24976667D01*
X44649047Y24976667D01*
X44744285Y24929048D01*
X44791904Y24881429D01*
X44839523Y24786191D01*
X7397142Y31442858D02*
X7444761Y31490477D01*
X7492380Y31633334D01*
X7492380Y31728572D01*
X7444761Y31871429D01*
X7349523Y31966667D01*
X7254285Y32014286D01*
X7063809Y32061905D01*
X6920952Y32061905D01*
X6730476Y32014286D01*
X6635238Y31966667D01*
X6540000Y31871429D01*
X6492380Y31728572D01*
X6492380Y31633334D01*
X6540000Y31490477D01*
X6587619Y31442858D01*
X7492380Y30490477D02*
X7492380Y31061905D01*
X7492380Y30776191D02*
X6492380Y30776191D01*
X6635238Y30871429D01*
X6730476Y30966667D01*
X6778095Y31061905D01*
X6492380Y29585715D02*
X6492380Y30061905D01*
X6968571Y30109524D01*
X6920952Y30061905D01*
X6873333Y29966667D01*
X6873333Y29728572D01*
X6920952Y29633334D01*
X6968571Y29585715D01*
X7063809Y29538096D01*
X7301904Y29538096D01*
X7397142Y29585715D01*
X7444761Y29633334D01*
X7492380Y29728572D01*
X7492380Y29966667D01*
X7444761Y30061905D01*
X7397142Y30109524D01*
X12812857Y7212858D02*
X12860476Y7165239D01*
X13003333Y7117620D01*
X13098571Y7117620D01*
X13241428Y7165239D01*
X13336666Y7260477D01*
X13384285Y7355715D01*
X13431904Y7546191D01*
X13431904Y7689048D01*
X13384285Y7879524D01*
X13336666Y7974762D01*
X13241428Y8070000D01*
X13098571Y8117620D01*
X13003333Y8117620D01*
X12860476Y8070000D01*
X12812857Y8022381D01*
X11860476Y7117620D02*
X12431904Y7117620D01*
X12146190Y7117620D02*
X12146190Y8117620D01*
X12241428Y7974762D01*
X12336666Y7879524D01*
X12431904Y7831905D01*
X11003333Y7784286D02*
X11003333Y7117620D01*
X11241428Y8165239D02*
X11479523Y7450953D01*
X10860476Y7450953D01*
X44822857Y34102858D02*
X44870476Y34055239D01*
X45013333Y34007620D01*
X45108571Y34007620D01*
X45251428Y34055239D01*
X45346666Y34150477D01*
X45394285Y34245715D01*
X45441904Y34436191D01*
X45441904Y34579048D01*
X45394285Y34769524D01*
X45346666Y34864762D01*
X45251428Y34960000D01*
X45108571Y35007620D01*
X45013333Y35007620D01*
X44870476Y34960000D01*
X44822857Y34912381D01*
X43870476Y34007620D02*
X44441904Y34007620D01*
X44156190Y34007620D02*
X44156190Y35007620D01*
X44251428Y34864762D01*
X44346666Y34769524D01*
X44441904Y34721905D01*
X43537142Y35007620D02*
X42918095Y35007620D01*
X43251428Y34626667D01*
X43108571Y34626667D01*
X43013333Y34579048D01*
X42965714Y34531429D01*
X42918095Y34436191D01*
X42918095Y34198096D01*
X42965714Y34102858D01*
X43013333Y34055239D01*
X43108571Y34007620D01*
X43394285Y34007620D01*
X43489523Y34055239D01*
X43537142Y34102858D01*
X10042857Y15092858D02*
X10090476Y15045239D01*
X10233333Y14997620D01*
X10328571Y14997620D01*
X10471428Y15045239D01*
X10566666Y15140477D01*
X10614285Y15235715D01*
X10661904Y15426191D01*
X10661904Y15569048D01*
X10614285Y15759524D01*
X10566666Y15854762D01*
X10471428Y15950000D01*
X10328571Y15997620D01*
X10233333Y15997620D01*
X10090476Y15950000D01*
X10042857Y15902381D01*
X9090476Y14997620D02*
X9661904Y14997620D01*
X9376190Y14997620D02*
X9376190Y15997620D01*
X9471428Y15854762D01*
X9566666Y15759524D01*
X9661904Y15711905D01*
X8709523Y15902381D02*
X8661904Y15950000D01*
X8566666Y15997620D01*
X8328571Y15997620D01*
X8233333Y15950000D01*
X8185714Y15902381D01*
X8138095Y15807143D01*
X8138095Y15711905D01*
X8185714Y15569048D01*
X8757142Y14997620D01*
X8138095Y14997620D01*
X10547142Y10172858D02*
X10594761Y10220477D01*
X10642380Y10363334D01*
X10642380Y10458572D01*
X10594761Y10601429D01*
X10499523Y10696667D01*
X10404285Y10744286D01*
X10213809Y10791905D01*
X10070952Y10791905D01*
X9880476Y10744286D01*
X9785238Y10696667D01*
X9690000Y10601429D01*
X9642380Y10458572D01*
X9642380Y10363334D01*
X9690000Y10220477D01*
X9737619Y10172858D01*
X10642380Y9220477D02*
X10642380Y9791905D01*
X10642380Y9506191D02*
X9642380Y9506191D01*
X9785238Y9601429D01*
X9880476Y9696667D01*
X9928095Y9791905D01*
X10642380Y8268096D02*
X10642380Y8839524D01*
X10642380Y8553810D02*
X9642380Y8553810D01*
X9785238Y8649048D01*
X9880476Y8744286D01*
X9928095Y8839524D01*
X49192857Y37482858D02*
X49240476Y37435239D01*
X49383333Y37387620D01*
X49478571Y37387620D01*
X49621428Y37435239D01*
X49716666Y37530477D01*
X49764285Y37625715D01*
X49811904Y37816191D01*
X49811904Y37959048D01*
X49764285Y38149524D01*
X49716666Y38244762D01*
X49621428Y38340000D01*
X49478571Y38387620D01*
X49383333Y38387620D01*
X49240476Y38340000D01*
X49192857Y38292381D01*
X48240476Y37387620D02*
X48811904Y37387620D01*
X48526190Y37387620D02*
X48526190Y38387620D01*
X48621428Y38244762D01*
X48716666Y38149524D01*
X48811904Y38101905D01*
X47621428Y38387620D02*
X47526190Y38387620D01*
X47430952Y38340000D01*
X47383333Y38292381D01*
X47335714Y38197143D01*
X47288095Y38006667D01*
X47288095Y37768572D01*
X47335714Y37578096D01*
X47383333Y37482858D01*
X47430952Y37435239D01*
X47526190Y37387620D01*
X47621428Y37387620D01*
X47716666Y37435239D01*
X47764285Y37482858D01*
X47811904Y37578096D01*
X47859523Y37768572D01*
X47859523Y38006667D01*
X47811904Y38197143D01*
X47764285Y38292381D01*
X47716666Y38340000D01*
X47621428Y38387620D01*
X14487142Y31706667D02*
X14534761Y31754286D01*
X14582380Y31897143D01*
X14582380Y31992381D01*
X14534761Y32135239D01*
X14439523Y32230477D01*
X14344285Y32278096D01*
X14153809Y32325715D01*
X14010952Y32325715D01*
X13820476Y32278096D01*
X13725238Y32230477D01*
X13630000Y32135239D01*
X13582380Y31992381D01*
X13582380Y31897143D01*
X13630000Y31754286D01*
X13677619Y31706667D01*
X14582380Y31230477D02*
X14582380Y31040000D01*
X14534761Y30944762D01*
X14487142Y30897143D01*
X14344285Y30801905D01*
X14153809Y30754286D01*
X13772857Y30754286D01*
X13677619Y30801905D01*
X13630000Y30849524D01*
X13582380Y30944762D01*
X13582380Y31135239D01*
X13630000Y31230477D01*
X13677619Y31278096D01*
X13772857Y31325715D01*
X14010952Y31325715D01*
X14106190Y31278096D01*
X14153809Y31230477D01*
X14201428Y31135239D01*
X14201428Y30944762D01*
X14153809Y30849524D01*
X14106190Y30801905D01*
X14010952Y30754286D01*
X6147142Y19826667D02*
X6194761Y19874286D01*
X6242380Y20017143D01*
X6242380Y20112381D01*
X6194761Y20255239D01*
X6099523Y20350477D01*
X6004285Y20398096D01*
X5813809Y20445715D01*
X5670952Y20445715D01*
X5480476Y20398096D01*
X5385238Y20350477D01*
X5290000Y20255239D01*
X5242380Y20112381D01*
X5242380Y20017143D01*
X5290000Y19874286D01*
X5337619Y19826667D01*
X5670952Y19255239D02*
X5623333Y19350477D01*
X5575714Y19398096D01*
X5480476Y19445715D01*
X5432857Y19445715D01*
X5337619Y19398096D01*
X5290000Y19350477D01*
X5242380Y19255239D01*
X5242380Y19064762D01*
X5290000Y18969524D01*
X5337619Y18921905D01*
X5432857Y18874286D01*
X5480476Y18874286D01*
X5575714Y18921905D01*
X5623333Y18969524D01*
X5670952Y19064762D01*
X5670952Y19255239D01*
X5718571Y19350477D01*
X5766190Y19398096D01*
X5861428Y19445715D01*
X6051904Y19445715D01*
X6147142Y19398096D01*
X6194761Y19350477D01*
X6242380Y19255239D01*
X6242380Y19064762D01*
X6194761Y18969524D01*
X6147142Y18921905D01*
X6051904Y18874286D01*
X5861428Y18874286D01*
X5766190Y18921905D01*
X5718571Y18969524D01*
X5670952Y19064762D01*
X48797142Y11066667D02*
X48844761Y11114286D01*
X48892380Y11257143D01*
X48892380Y11352381D01*
X48844761Y11495239D01*
X48749523Y11590477D01*
X48654285Y11638096D01*
X48463809Y11685715D01*
X48320952Y11685715D01*
X48130476Y11638096D01*
X48035238Y11590477D01*
X47940000Y11495239D01*
X47892380Y11352381D01*
X47892380Y11257143D01*
X47940000Y11114286D01*
X47987619Y11066667D01*
X47892380Y10733334D02*
X47892380Y10066667D01*
X48892380Y10495239D01*
X8217142Y24326667D02*
X8264761Y24374286D01*
X8312380Y24517143D01*
X8312380Y24612381D01*
X8264761Y24755239D01*
X8169523Y24850477D01*
X8074285Y24898096D01*
X7883809Y24945715D01*
X7740952Y24945715D01*
X7550476Y24898096D01*
X7455238Y24850477D01*
X7360000Y24755239D01*
X7312380Y24612381D01*
X7312380Y24517143D01*
X7360000Y24374286D01*
X7407619Y24326667D01*
X7312380Y23469524D02*
X7312380Y23660000D01*
X7360000Y23755239D01*
X7407619Y23802858D01*
X7550476Y23898096D01*
X7740952Y23945715D01*
X8121904Y23945715D01*
X8217142Y23898096D01*
X8264761Y23850477D01*
X8312380Y23755239D01*
X8312380Y23564762D01*
X8264761Y23469524D01*
X8217142Y23421905D01*
X8121904Y23374286D01*
X7883809Y23374286D01*
X7788571Y23421905D01*
X7740952Y23469524D01*
X7693333Y23564762D01*
X7693333Y23755239D01*
X7740952Y23850477D01*
X7788571Y23898096D01*
X7883809Y23945715D01*
X45997142Y17486667D02*
X46044761Y17534286D01*
X46092380Y17677143D01*
X46092380Y17772381D01*
X46044761Y17915239D01*
X45949523Y18010477D01*
X45854285Y18058096D01*
X45663809Y18105715D01*
X45520952Y18105715D01*
X45330476Y18058096D01*
X45235238Y18010477D01*
X45140000Y17915239D01*
X45092380Y17772381D01*
X45092380Y17677143D01*
X45140000Y17534286D01*
X45187619Y17486667D01*
X45092380Y16581905D02*
X45092380Y17058096D01*
X45568571Y17105715D01*
X45520952Y17058096D01*
X45473333Y16962858D01*
X45473333Y16724762D01*
X45520952Y16629524D01*
X45568571Y16581905D01*
X45663809Y16534286D01*
X45901904Y16534286D01*
X45997142Y16581905D01*
X46044761Y16629524D01*
X46092380Y16724762D01*
X46092380Y16962858D01*
X46044761Y17058096D01*
X45997142Y17105715D01*
X48257142Y42106667D02*
X48304761Y42154286D01*
X48352380Y42297143D01*
X48352380Y42392381D01*
X48304761Y42535239D01*
X48209523Y42630477D01*
X48114285Y42678096D01*
X47923809Y42725715D01*
X47780952Y42725715D01*
X47590476Y42678096D01*
X47495238Y42630477D01*
X47400000Y42535239D01*
X47352380Y42392381D01*
X47352380Y42297143D01*
X47400000Y42154286D01*
X47447619Y42106667D01*
X47685714Y41249524D02*
X48352380Y41249524D01*
X47304761Y41487620D02*
X48019047Y41725715D01*
X48019047Y41106667D01*
X16257142Y44156667D02*
X16304761Y44204286D01*
X16352380Y44347143D01*
X16352380Y44442381D01*
X16304761Y44585239D01*
X16209523Y44680477D01*
X16114285Y44728096D01*
X15923809Y44775715D01*
X15780952Y44775715D01*
X15590476Y44728096D01*
X15495238Y44680477D01*
X15400000Y44585239D01*
X15352380Y44442381D01*
X15352380Y44347143D01*
X15400000Y44204286D01*
X15447619Y44156667D01*
X15352380Y43823334D02*
X15352380Y43204286D01*
X15733333Y43537620D01*
X15733333Y43394762D01*
X15780952Y43299524D01*
X15828571Y43251905D01*
X15923809Y43204286D01*
X16161904Y43204286D01*
X16257142Y43251905D01*
X16304761Y43299524D01*
X16352380Y43394762D01*
X16352380Y43680477D01*
X16304761Y43775715D01*
X16257142Y43823334D01*
X18892857Y30782858D02*
X18940476Y30735239D01*
X19083333Y30687620D01*
X19178571Y30687620D01*
X19321428Y30735239D01*
X19416666Y30830477D01*
X19464285Y30925715D01*
X19511904Y31116191D01*
X19511904Y31259048D01*
X19464285Y31449524D01*
X19416666Y31544762D01*
X19321428Y31640000D01*
X19178571Y31687620D01*
X19083333Y31687620D01*
X18940476Y31640000D01*
X18892857Y31592381D01*
X18321428Y31259048D02*
X18416666Y31306667D01*
X18464285Y31354286D01*
X18511904Y31449524D01*
X18511904Y31497143D01*
X18464285Y31592381D01*
X18416666Y31640000D01*
X18321428Y31687620D01*
X18130952Y31687620D01*
X18035714Y31640000D01*
X17988095Y31592381D01*
X17940476Y31497143D01*
X17940476Y31449524D01*
X17988095Y31354286D01*
X18035714Y31306667D01*
X18130952Y31259048D01*
X18321428Y31259048D01*
X18416666Y31211429D01*
X18464285Y31163810D01*
X18511904Y31068572D01*
X18511904Y30878096D01*
X18464285Y30782858D01*
X18416666Y30735239D01*
X18321428Y30687620D01*
X18130952Y30687620D01*
X18035714Y30735239D01*
X17988095Y30782858D01*
X17940476Y30878096D01*
X17940476Y31068572D01*
X17988095Y31163810D01*
X18035714Y31211429D01*
X18130952Y31259048D01*
X17083333Y31687620D02*
X17273809Y31687620D01*
X17369047Y31640000D01*
X17416666Y31592381D01*
X17511904Y31449524D01*
X17559523Y31259048D01*
X17559523Y30878096D01*
X17511904Y30782858D01*
X17464285Y30735239D01*
X17369047Y30687620D01*
X17178571Y30687620D01*
X17083333Y30735239D01*
X17035714Y30782858D01*
X16988095Y30878096D01*
X16988095Y31116191D01*
X17035714Y31211429D01*
X17083333Y31259048D01*
X17178571Y31306667D01*
X17369047Y31306667D01*
X17464285Y31259048D01*
X17511904Y31211429D01*
X17559523Y31116191D01*
X18142857Y20982858D02*
X18190476Y20935239D01*
X18333333Y20887620D01*
X18428571Y20887620D01*
X18571428Y20935239D01*
X18666666Y21030477D01*
X18714285Y21125715D01*
X18761904Y21316191D01*
X18761904Y21459048D01*
X18714285Y21649524D01*
X18666666Y21744762D01*
X18571428Y21840000D01*
X18428571Y21887620D01*
X18333333Y21887620D01*
X18190476Y21840000D01*
X18142857Y21792381D01*
X17571428Y21459048D02*
X17666666Y21506667D01*
X17714285Y21554286D01*
X17761904Y21649524D01*
X17761904Y21697143D01*
X17714285Y21792381D01*
X17666666Y21840000D01*
X17571428Y21887620D01*
X17380952Y21887620D01*
X17285714Y21840000D01*
X17238095Y21792381D01*
X17190476Y21697143D01*
X17190476Y21649524D01*
X17238095Y21554286D01*
X17285714Y21506667D01*
X17380952Y21459048D01*
X17571428Y21459048D01*
X17666666Y21411429D01*
X17714285Y21363810D01*
X17761904Y21268572D01*
X17761904Y21078096D01*
X17714285Y20982858D01*
X17666666Y20935239D01*
X17571428Y20887620D01*
X17380952Y20887620D01*
X17285714Y20935239D01*
X17238095Y20982858D01*
X17190476Y21078096D01*
X17190476Y21268572D01*
X17238095Y21363810D01*
X17285714Y21411429D01*
X17380952Y21459048D01*
X16285714Y21887620D02*
X16761904Y21887620D01*
X16809523Y21411429D01*
X16761904Y21459048D01*
X16666666Y21506667D01*
X16428571Y21506667D01*
X16333333Y21459048D01*
X16285714Y21411429D01*
X16238095Y21316191D01*
X16238095Y21078096D01*
X16285714Y20982858D01*
X16333333Y20935239D01*
X16428571Y20887620D01*
X16666666Y20887620D01*
X16761904Y20935239D01*
X16809523Y20982858D01*
X37142857Y38182858D02*
X37190476Y38135239D01*
X37333333Y38087620D01*
X37428571Y38087620D01*
X37571428Y38135239D01*
X37666666Y38230477D01*
X37714285Y38325715D01*
X37761904Y38516191D01*
X37761904Y38659048D01*
X37714285Y38849524D01*
X37666666Y38944762D01*
X37571428Y39040000D01*
X37428571Y39087620D01*
X37333333Y39087620D01*
X37190476Y39040000D01*
X37142857Y38992381D01*
X36809523Y39087620D02*
X36142857Y39087620D01*
X36571428Y38087620D01*
X35619047Y38659048D02*
X35714285Y38706667D01*
X35761904Y38754286D01*
X35809523Y38849524D01*
X35809523Y38897143D01*
X35761904Y38992381D01*
X35714285Y39040000D01*
X35619047Y39087620D01*
X35428571Y39087620D01*
X35333333Y39040000D01*
X35285714Y38992381D01*
X35238095Y38897143D01*
X35238095Y38849524D01*
X35285714Y38754286D01*
X35333333Y38706667D01*
X35428571Y38659048D01*
X35619047Y38659048D01*
X35714285Y38611429D01*
X35761904Y38563810D01*
X35809523Y38468572D01*
X35809523Y38278096D01*
X35761904Y38182858D01*
X35714285Y38135239D01*
X35619047Y38087620D01*
X35428571Y38087620D01*
X35333333Y38135239D01*
X35285714Y38182858D01*
X35238095Y38278096D01*
X35238095Y38468572D01*
X35285714Y38563810D01*
X35333333Y38611429D01*
X35428571Y38659048D01*
X52257142Y43032858D02*
X52304761Y43080477D01*
X52352380Y43223334D01*
X52352380Y43318572D01*
X52304761Y43461429D01*
X52209523Y43556667D01*
X52114285Y43604286D01*
X51923809Y43651905D01*
X51780952Y43651905D01*
X51590476Y43604286D01*
X51495238Y43556667D01*
X51400000Y43461429D01*
X51352380Y43318572D01*
X51352380Y43223334D01*
X51400000Y43080477D01*
X51447619Y43032858D01*
X51352380Y42175715D02*
X51352380Y42366191D01*
X51400000Y42461429D01*
X51447619Y42509048D01*
X51590476Y42604286D01*
X51780952Y42651905D01*
X52161904Y42651905D01*
X52257142Y42604286D01*
X52304761Y42556667D01*
X52352380Y42461429D01*
X52352380Y42270953D01*
X52304761Y42175715D01*
X52257142Y42128096D01*
X52161904Y42080477D01*
X51923809Y42080477D01*
X51828571Y42128096D01*
X51780952Y42175715D01*
X51733333Y42270953D01*
X51733333Y42461429D01*
X51780952Y42556667D01*
X51828571Y42604286D01*
X51923809Y42651905D01*
X51780952Y41509048D02*
X51733333Y41604286D01*
X51685714Y41651905D01*
X51590476Y41699524D01*
X51542857Y41699524D01*
X51447619Y41651905D01*
X51400000Y41604286D01*
X51352380Y41509048D01*
X51352380Y41318572D01*
X51400000Y41223334D01*
X51447619Y41175715D01*
X51542857Y41128096D01*
X51590476Y41128096D01*
X51685714Y41175715D01*
X51733333Y41223334D01*
X51780952Y41318572D01*
X51780952Y41509048D01*
X51828571Y41604286D01*
X51876190Y41651905D01*
X51971428Y41699524D01*
X52161904Y41699524D01*
X52257142Y41651905D01*
X52304761Y41604286D01*
X52352380Y41509048D01*
X52352380Y41318572D01*
X52304761Y41223334D01*
X52257142Y41175715D01*
X52161904Y41128096D01*
X51971428Y41128096D01*
X51876190Y41175715D01*
X51828571Y41223334D01*
X51780952Y41318572D01*
X52107142Y9432858D02*
X52154761Y9480477D01*
X52202380Y9623334D01*
X52202380Y9718572D01*
X52154761Y9861429D01*
X52059523Y9956667D01*
X51964285Y10004286D01*
X51773809Y10051905D01*
X51630952Y10051905D01*
X51440476Y10004286D01*
X51345238Y9956667D01*
X51250000Y9861429D01*
X51202380Y9718572D01*
X51202380Y9623334D01*
X51250000Y9480477D01*
X51297619Y9432858D01*
X51202380Y8575715D02*
X51202380Y8766191D01*
X51250000Y8861429D01*
X51297619Y8909048D01*
X51440476Y9004286D01*
X51630952Y9051905D01*
X52011904Y9051905D01*
X52107142Y9004286D01*
X52154761Y8956667D01*
X52202380Y8861429D01*
X52202380Y8670953D01*
X52154761Y8575715D01*
X52107142Y8528096D01*
X52011904Y8480477D01*
X51773809Y8480477D01*
X51678571Y8528096D01*
X51630952Y8575715D01*
X51583333Y8670953D01*
X51583333Y8861429D01*
X51630952Y8956667D01*
X51678571Y9004286D01*
X51773809Y9051905D01*
X51202380Y8147143D02*
X51202380Y7480477D01*
X52202380Y7909048D01*
X37392857Y24132858D02*
X37440476Y24085239D01*
X37583333Y24037620D01*
X37678571Y24037620D01*
X37821428Y24085239D01*
X37916666Y24180477D01*
X37964285Y24275715D01*
X38011904Y24466191D01*
X38011904Y24609048D01*
X37964285Y24799524D01*
X37916666Y24894762D01*
X37821428Y24990000D01*
X37678571Y25037620D01*
X37583333Y25037620D01*
X37440476Y24990000D01*
X37392857Y24942381D01*
X36535714Y25037620D02*
X36726190Y25037620D01*
X36821428Y24990000D01*
X36869047Y24942381D01*
X36964285Y24799524D01*
X37011904Y24609048D01*
X37011904Y24228096D01*
X36964285Y24132858D01*
X36916666Y24085239D01*
X36821428Y24037620D01*
X36630952Y24037620D01*
X36535714Y24085239D01*
X36488095Y24132858D01*
X36440476Y24228096D01*
X36440476Y24466191D01*
X36488095Y24561429D01*
X36535714Y24609048D01*
X36630952Y24656667D01*
X36821428Y24656667D01*
X36916666Y24609048D01*
X36964285Y24561429D01*
X37011904Y24466191D01*
X35821428Y25037620D02*
X35726190Y25037620D01*
X35630952Y24990000D01*
X35583333Y24942381D01*
X35535714Y24847143D01*
X35488095Y24656667D01*
X35488095Y24418572D01*
X35535714Y24228096D01*
X35583333Y24132858D01*
X35630952Y24085239D01*
X35726190Y24037620D01*
X35821428Y24037620D01*
X35916666Y24085239D01*
X35964285Y24132858D01*
X36011904Y24228096D01*
X36059523Y24418572D01*
X36059523Y24656667D01*
X36011904Y24847143D01*
X35964285Y24942381D01*
X35916666Y24990000D01*
X35821428Y25037620D01*
X23957142Y20682858D02*
X24004761Y20730477D01*
X24052380Y20873334D01*
X24052380Y20968572D01*
X24004761Y21111429D01*
X23909523Y21206667D01*
X23814285Y21254286D01*
X23623809Y21301905D01*
X23480952Y21301905D01*
X23290476Y21254286D01*
X23195238Y21206667D01*
X23100000Y21111429D01*
X23052380Y20968572D01*
X23052380Y20873334D01*
X23100000Y20730477D01*
X23147619Y20682858D01*
X23385714Y19825715D02*
X24052380Y19825715D01*
X23004761Y20063810D02*
X23719047Y20301905D01*
X23719047Y19682858D01*
X23385714Y18873334D02*
X24052380Y18873334D01*
X23004761Y19111429D02*
X23719047Y19349524D01*
X23719047Y18730477D01*
X37092857Y28182858D02*
X37140476Y28135239D01*
X37283333Y28087620D01*
X37378571Y28087620D01*
X37521428Y28135239D01*
X37616666Y28230477D01*
X37664285Y28325715D01*
X37711904Y28516191D01*
X37711904Y28659048D01*
X37664285Y28849524D01*
X37616666Y28944762D01*
X37521428Y29040000D01*
X37378571Y29087620D01*
X37283333Y29087620D01*
X37140476Y29040000D01*
X37092857Y28992381D01*
X36235714Y28754286D02*
X36235714Y28087620D01*
X36473809Y29135239D02*
X36711904Y28420953D01*
X36092857Y28420953D01*
X35759523Y28992381D02*
X35711904Y29040000D01*
X35616666Y29087620D01*
X35378571Y29087620D01*
X35283333Y29040000D01*
X35235714Y28992381D01*
X35188095Y28897143D01*
X35188095Y28801905D01*
X35235714Y28659048D01*
X35807142Y28087620D01*
X35188095Y28087620D01*
X8607142Y43532858D02*
X8654761Y43580477D01*
X8702380Y43723334D01*
X8702380Y43818572D01*
X8654761Y43961429D01*
X8559523Y44056667D01*
X8464285Y44104286D01*
X8273809Y44151905D01*
X8130952Y44151905D01*
X7940476Y44104286D01*
X7845238Y44056667D01*
X7750000Y43961429D01*
X7702380Y43818572D01*
X7702380Y43723334D01*
X7750000Y43580477D01*
X7797619Y43532858D01*
X7797619Y43151905D02*
X7750000Y43104286D01*
X7702380Y43009048D01*
X7702380Y42770953D01*
X7750000Y42675715D01*
X7797619Y42628096D01*
X7892857Y42580477D01*
X7988095Y42580477D01*
X8130952Y42628096D01*
X8702380Y43199524D01*
X8702380Y42580477D01*
X7702380Y42247143D02*
X7702380Y41628096D01*
X8083333Y41961429D01*
X8083333Y41818572D01*
X8130952Y41723334D01*
X8178571Y41675715D01*
X8273809Y41628096D01*
X8511904Y41628096D01*
X8607142Y41675715D01*
X8654761Y41723334D01*
X8702380Y41818572D01*
X8702380Y42104286D01*
X8654761Y42199524D01*
X8607142Y42247143D01*
X8697142Y8742858D02*
X8744761Y8790477D01*
X8792380Y8933334D01*
X8792380Y9028572D01*
X8744761Y9171429D01*
X8649523Y9266667D01*
X8554285Y9314286D01*
X8363809Y9361905D01*
X8220952Y9361905D01*
X8030476Y9314286D01*
X7935238Y9266667D01*
X7840000Y9171429D01*
X7792380Y9028572D01*
X7792380Y8933334D01*
X7840000Y8790477D01*
X7887619Y8742858D01*
X8792380Y7790477D02*
X8792380Y8361905D01*
X8792380Y8076191D02*
X7792380Y8076191D01*
X7935238Y8171429D01*
X8030476Y8266667D01*
X8078095Y8361905D01*
X8220952Y7219048D02*
X8173333Y7314286D01*
X8125714Y7361905D01*
X8030476Y7409524D01*
X7982857Y7409524D01*
X7887619Y7361905D01*
X7840000Y7314286D01*
X7792380Y7219048D01*
X7792380Y7028572D01*
X7840000Y6933334D01*
X7887619Y6885715D01*
X7982857Y6838096D01*
X8030476Y6838096D01*
X8125714Y6885715D01*
X8173333Y6933334D01*
X8220952Y7028572D01*
X8220952Y7219048D01*
X8268571Y7314286D01*
X8316190Y7361905D01*
X8411428Y7409524D01*
X8601904Y7409524D01*
X8697142Y7361905D01*
X8744761Y7314286D01*
X8792380Y7219048D01*
X8792380Y7028572D01*
X8744761Y6933334D01*
X8697142Y6885715D01*
X8601904Y6838096D01*
X8411428Y6838096D01*
X8316190Y6885715D01*
X8268571Y6933334D01*
X8220952Y7028572D01*
X8128095Y29799620D02*
X7556666Y29799620D01*
X7842380Y28799620D02*
X7842380Y29799620D01*
X7223333Y28799620D02*
X7223333Y29799620D01*
X6842380Y29799620D01*
X6747142Y29752000D01*
X6699523Y29704381D01*
X6651904Y29609143D01*
X6651904Y29466286D01*
X6699523Y29371048D01*
X6747142Y29323429D01*
X6842380Y29275810D01*
X7223333Y29275810D01*
X5699523Y28799620D02*
X6270952Y28799620D01*
X5985238Y28799620D02*
X5985238Y29799620D01*
X6080476Y29656762D01*
X6175714Y29561524D01*
X6270952Y29513905D01*
X4842380Y29799620D02*
X5032857Y29799620D01*
X5128095Y29752000D01*
X5175714Y29704381D01*
X5270952Y29561524D01*
X5318571Y29371048D01*
X5318571Y28990096D01*
X5270952Y28894858D01*
X5223333Y28847239D01*
X5128095Y28799620D01*
X4937619Y28799620D01*
X4842380Y28847239D01*
X4794761Y28894858D01*
X4747142Y28990096D01*
X4747142Y29228191D01*
X4794761Y29323429D01*
X4842380Y29371048D01*
X4937619Y29418667D01*
X5128095Y29418667D01*
X5223333Y29371048D01*
X5270952Y29323429D01*
X5318571Y29228191D01*
X37642857Y13937620D02*
X37976190Y14413810D01*
X38214285Y13937620D02*
X38214285Y14937620D01*
X37833333Y14937620D01*
X37738095Y14890000D01*
X37690476Y14842381D01*
X37642857Y14747143D01*
X37642857Y14604286D01*
X37690476Y14509048D01*
X37738095Y14461429D01*
X37833333Y14413810D01*
X38214285Y14413810D01*
X36738095Y14937620D02*
X37214285Y14937620D01*
X37261904Y14461429D01*
X37214285Y14509048D01*
X37119047Y14556667D01*
X36880952Y14556667D01*
X36785714Y14509048D01*
X36738095Y14461429D01*
X36690476Y14366191D01*
X36690476Y14128096D01*
X36738095Y14032858D01*
X36785714Y13985239D01*
X36880952Y13937620D01*
X37119047Y13937620D01*
X37214285Y13985239D01*
X37261904Y14032858D01*
X36309523Y14842381D02*
X36261904Y14890000D01*
X36166666Y14937620D01*
X35928571Y14937620D01*
X35833333Y14890000D01*
X35785714Y14842381D01*
X35738095Y14747143D01*
X35738095Y14651905D01*
X35785714Y14509048D01*
X36357142Y13937620D01*
X35738095Y13937620D01*
X49142857Y8437620D02*
X49476190Y8913810D01*
X49714285Y8437620D02*
X49714285Y9437620D01*
X49333333Y9437620D01*
X49238095Y9390000D01*
X49190476Y9342381D01*
X49142857Y9247143D01*
X49142857Y9104286D01*
X49190476Y9009048D01*
X49238095Y8961429D01*
X49333333Y8913810D01*
X49714285Y8913810D01*
X48238095Y9437620D02*
X48714285Y9437620D01*
X48761904Y8961429D01*
X48714285Y9009048D01*
X48619047Y9056667D01*
X48380952Y9056667D01*
X48285714Y9009048D01*
X48238095Y8961429D01*
X48190476Y8866191D01*
X48190476Y8628096D01*
X48238095Y8532858D01*
X48285714Y8485239D01*
X48380952Y8437620D01*
X48619047Y8437620D01*
X48714285Y8485239D01*
X48761904Y8532858D01*
X47238095Y8437620D02*
X47809523Y8437620D01*
X47523809Y8437620D02*
X47523809Y9437620D01*
X47619047Y9294762D01*
X47714285Y9199524D01*
X47809523Y9151905D01*
X37822380Y20632858D02*
X37346190Y20966191D01*
X37822380Y21204286D02*
X36822380Y21204286D01*
X36822380Y20823334D01*
X36870000Y20728096D01*
X36917619Y20680477D01*
X37012857Y20632858D01*
X37155714Y20632858D01*
X37250952Y20680477D01*
X37298571Y20728096D01*
X37346190Y20823334D01*
X37346190Y21204286D01*
X36822380Y20299524D02*
X36822380Y19680477D01*
X37203333Y20013810D01*
X37203333Y19870953D01*
X37250952Y19775715D01*
X37298571Y19728096D01*
X37393809Y19680477D01*
X37631904Y19680477D01*
X37727142Y19728096D01*
X37774761Y19775715D01*
X37822380Y19870953D01*
X37822380Y20156667D01*
X37774761Y20251905D01*
X37727142Y20299524D01*
X36822380Y19347143D02*
X36822380Y18680477D01*
X37822380Y19109048D01*
X26772857Y12752620D02*
X27106190Y13228810D01*
X27344285Y12752620D02*
X27344285Y13752620D01*
X26963333Y13752620D01*
X26868095Y13705000D01*
X26820476Y13657381D01*
X26772857Y13562143D01*
X26772857Y13419286D01*
X26820476Y13324048D01*
X26868095Y13276429D01*
X26963333Y13228810D01*
X27344285Y13228810D01*
X26439523Y13752620D02*
X25820476Y13752620D01*
X26153809Y13371667D01*
X26010952Y13371667D01*
X25915714Y13324048D01*
X25868095Y13276429D01*
X25820476Y13181191D01*
X25820476Y12943096D01*
X25868095Y12847858D01*
X25915714Y12800239D01*
X26010952Y12752620D01*
X26296666Y12752620D01*
X26391904Y12800239D01*
X26439523Y12847858D01*
X24915714Y13752620D02*
X25391904Y13752620D01*
X25439523Y13276429D01*
X25391904Y13324048D01*
X25296666Y13371667D01*
X25058571Y13371667D01*
X24963333Y13324048D01*
X24915714Y13276429D01*
X24868095Y13181191D01*
X24868095Y12943096D01*
X24915714Y12847858D01*
X24963333Y12800239D01*
X25058571Y12752620D01*
X25296666Y12752620D01*
X25391904Y12800239D01*
X25439523Y12847858D01*
X27232857Y11992620D02*
X27566190Y12468810D01*
X27804285Y11992620D02*
X27804285Y12992620D01*
X27423333Y12992620D01*
X27328095Y12945000D01*
X27280476Y12897381D01*
X27232857Y12802143D01*
X27232857Y12659286D01*
X27280476Y12564048D01*
X27328095Y12516429D01*
X27423333Y12468810D01*
X27804285Y12468810D01*
X26899523Y12992620D02*
X26280476Y12992620D01*
X26613809Y12611667D01*
X26470952Y12611667D01*
X26375714Y12564048D01*
X26328095Y12516429D01*
X26280476Y12421191D01*
X26280476Y12183096D01*
X26328095Y12087858D01*
X26375714Y12040239D01*
X26470952Y11992620D01*
X26756666Y11992620D01*
X26851904Y12040239D01*
X26899523Y12087858D01*
X25423333Y12659286D02*
X25423333Y11992620D01*
X25661428Y13040239D02*
X25899523Y12325953D01*
X25280476Y12325953D01*
X29447857Y15172620D02*
X29781190Y15648810D01*
X30019285Y15172620D02*
X30019285Y16172620D01*
X29638333Y16172620D01*
X29543095Y16125000D01*
X29495476Y16077381D01*
X29447857Y15982143D01*
X29447857Y15839286D01*
X29495476Y15744048D01*
X29543095Y15696429D01*
X29638333Y15648810D01*
X30019285Y15648810D01*
X29114523Y16172620D02*
X28495476Y16172620D01*
X28828809Y15791667D01*
X28685952Y15791667D01*
X28590714Y15744048D01*
X28543095Y15696429D01*
X28495476Y15601191D01*
X28495476Y15363096D01*
X28543095Y15267858D01*
X28590714Y15220239D01*
X28685952Y15172620D01*
X28971666Y15172620D01*
X29066904Y15220239D01*
X29114523Y15267858D01*
X27876428Y16172620D02*
X27781190Y16172620D01*
X27685952Y16125000D01*
X27638333Y16077381D01*
X27590714Y15982143D01*
X27543095Y15791667D01*
X27543095Y15553572D01*
X27590714Y15363096D01*
X27638333Y15267858D01*
X27685952Y15220239D01*
X27781190Y15172620D01*
X27876428Y15172620D01*
X27971666Y15220239D01*
X28019285Y15267858D01*
X28066904Y15363096D01*
X28114523Y15553572D01*
X28114523Y15791667D01*
X28066904Y15982143D01*
X28019285Y16077381D01*
X27971666Y16125000D01*
X27876428Y16172620D01*
X38642857Y21867620D02*
X38976190Y22343810D01*
X39214285Y21867620D02*
X39214285Y22867620D01*
X38833333Y22867620D01*
X38738095Y22820000D01*
X38690476Y22772381D01*
X38642857Y22677143D01*
X38642857Y22534286D01*
X38690476Y22439048D01*
X38738095Y22391429D01*
X38833333Y22343810D01*
X39214285Y22343810D01*
X38261904Y22772381D02*
X38214285Y22820000D01*
X38119047Y22867620D01*
X37880952Y22867620D01*
X37785714Y22820000D01*
X37738095Y22772381D01*
X37690476Y22677143D01*
X37690476Y22581905D01*
X37738095Y22439048D01*
X38309523Y21867620D01*
X37690476Y21867620D01*
X37214285Y21867620D02*
X37023809Y21867620D01*
X36928571Y21915239D01*
X36880952Y21962858D01*
X36785714Y22105715D01*
X36738095Y22296191D01*
X36738095Y22677143D01*
X36785714Y22772381D01*
X36833333Y22820000D01*
X36928571Y22867620D01*
X37119047Y22867620D01*
X37214285Y22820000D01*
X37261904Y22772381D01*
X37309523Y22677143D01*
X37309523Y22439048D01*
X37261904Y22343810D01*
X37214285Y22296191D01*
X37119047Y22248572D01*
X36928571Y22248572D01*
X36833333Y22296191D01*
X36785714Y22343810D01*
X36738095Y22439048D01*
X18792857Y33717620D02*
X19126190Y34193810D01*
X19364285Y33717620D02*
X19364285Y34717620D01*
X18983333Y34717620D01*
X18888095Y34670000D01*
X18840476Y34622381D01*
X18792857Y34527143D01*
X18792857Y34384286D01*
X18840476Y34289048D01*
X18888095Y34241429D01*
X18983333Y34193810D01*
X19364285Y34193810D01*
X18411904Y34622381D02*
X18364285Y34670000D01*
X18269047Y34717620D01*
X18030952Y34717620D01*
X17935714Y34670000D01*
X17888095Y34622381D01*
X17840476Y34527143D01*
X17840476Y34431905D01*
X17888095Y34289048D01*
X18459523Y33717620D01*
X17840476Y33717620D01*
X17269047Y34289048D02*
X17364285Y34336667D01*
X17411904Y34384286D01*
X17459523Y34479524D01*
X17459523Y34527143D01*
X17411904Y34622381D01*
X17364285Y34670000D01*
X17269047Y34717620D01*
X17078571Y34717620D01*
X16983333Y34670000D01*
X16935714Y34622381D01*
X16888095Y34527143D01*
X16888095Y34479524D01*
X16935714Y34384286D01*
X16983333Y34336667D01*
X17078571Y34289048D01*
X17269047Y34289048D01*
X17364285Y34241429D01*
X17411904Y34193810D01*
X17459523Y34098572D01*
X17459523Y33908096D01*
X17411904Y33812858D01*
X17364285Y33765239D01*
X17269047Y33717620D01*
X17078571Y33717620D01*
X16983333Y33765239D01*
X16935714Y33812858D01*
X16888095Y33908096D01*
X16888095Y34098572D01*
X16935714Y34193810D01*
X16983333Y34241429D01*
X17078571Y34289048D01*
X47002380Y42082858D02*
X46526190Y42416191D01*
X47002380Y42654286D02*
X46002380Y42654286D01*
X46002380Y42273334D01*
X46050000Y42178096D01*
X46097619Y42130477D01*
X46192857Y42082858D01*
X46335714Y42082858D01*
X46430952Y42130477D01*
X46478571Y42178096D01*
X46526190Y42273334D01*
X46526190Y42654286D01*
X46097619Y41701905D02*
X46050000Y41654286D01*
X46002380Y41559048D01*
X46002380Y41320953D01*
X46050000Y41225715D01*
X46097619Y41178096D01*
X46192857Y41130477D01*
X46288095Y41130477D01*
X46430952Y41178096D01*
X47002380Y41749524D01*
X47002380Y41130477D01*
X46002380Y40797143D02*
X46002380Y40130477D01*
X47002380Y40559048D01*
X13152380Y46882858D02*
X12676190Y47216191D01*
X13152380Y47454286D02*
X12152380Y47454286D01*
X12152380Y47073334D01*
X12200000Y46978096D01*
X12247619Y46930477D01*
X12342857Y46882858D01*
X12485714Y46882858D01*
X12580952Y46930477D01*
X12628571Y46978096D01*
X12676190Y47073334D01*
X12676190Y47454286D01*
X12247619Y46501905D02*
X12200000Y46454286D01*
X12152380Y46359048D01*
X12152380Y46120953D01*
X12200000Y46025715D01*
X12247619Y45978096D01*
X12342857Y45930477D01*
X12438095Y45930477D01*
X12580952Y45978096D01*
X13152380Y46549524D01*
X13152380Y45930477D01*
X12152380Y45073334D02*
X12152380Y45263810D01*
X12200000Y45359048D01*
X12247619Y45406667D01*
X12390476Y45501905D01*
X12580952Y45549524D01*
X12961904Y45549524D01*
X13057142Y45501905D01*
X13104761Y45454286D01*
X13152380Y45359048D01*
X13152380Y45168572D01*
X13104761Y45073334D01*
X13057142Y45025715D01*
X12961904Y44978096D01*
X12723809Y44978096D01*
X12628571Y45025715D01*
X12580952Y45073334D01*
X12533333Y45168572D01*
X12533333Y45359048D01*
X12580952Y45454286D01*
X12628571Y45501905D01*
X12723809Y45549524D01*
X14142857Y41437620D02*
X14476190Y41913810D01*
X14714285Y41437620D02*
X14714285Y42437620D01*
X14333333Y42437620D01*
X14238095Y42390000D01*
X14190476Y42342381D01*
X14142857Y42247143D01*
X14142857Y42104286D01*
X14190476Y42009048D01*
X14238095Y41961429D01*
X14333333Y41913810D01*
X14714285Y41913810D01*
X13190476Y41437620D02*
X13761904Y41437620D01*
X13476190Y41437620D02*
X13476190Y42437620D01*
X13571428Y42294762D01*
X13666666Y42199524D01*
X13761904Y42151905D01*
X12571428Y42437620D02*
X12476190Y42437620D01*
X12380952Y42390000D01*
X12333333Y42342381D01*
X12285714Y42247143D01*
X12238095Y42056667D01*
X12238095Y41818572D01*
X12285714Y41628096D01*
X12333333Y41532858D01*
X12380952Y41485239D01*
X12476190Y41437620D01*
X12571428Y41437620D01*
X12666666Y41485239D01*
X12714285Y41532858D01*
X12761904Y41628096D01*
X12809523Y41818572D01*
X12809523Y42056667D01*
X12761904Y42247143D01*
X12714285Y42342381D01*
X12666666Y42390000D01*
X12571428Y42437620D01*
X9952380Y42056667D02*
X9476190Y42390000D01*
X9952380Y42628096D02*
X8952380Y42628096D01*
X8952380Y42247143D01*
X9000000Y42151905D01*
X9047619Y42104286D01*
X9142857Y42056667D01*
X9285714Y42056667D01*
X9380952Y42104286D01*
X9428571Y42151905D01*
X9476190Y42247143D01*
X9476190Y42628096D01*
X9952380Y41580477D02*
X9952380Y41390000D01*
X9904761Y41294762D01*
X9857142Y41247143D01*
X9714285Y41151905D01*
X9523809Y41104286D01*
X9142857Y41104286D01*
X9047619Y41151905D01*
X9000000Y41199524D01*
X8952380Y41294762D01*
X8952380Y41485239D01*
X9000000Y41580477D01*
X9047619Y41628096D01*
X9142857Y41675715D01*
X9380952Y41675715D01*
X9476190Y41628096D01*
X9523809Y41580477D01*
X9571428Y41485239D01*
X9571428Y41294762D01*
X9523809Y41199524D01*
X9476190Y41151905D01*
X9380952Y41104286D01*
X41852380Y18206667D02*
X41376190Y18540000D01*
X41852380Y18778096D02*
X40852380Y18778096D01*
X40852380Y18397143D01*
X40900000Y18301905D01*
X40947619Y18254286D01*
X41042857Y18206667D01*
X41185714Y18206667D01*
X41280952Y18254286D01*
X41328571Y18301905D01*
X41376190Y18397143D01*
X41376190Y18778096D01*
X41280952Y17635239D02*
X41233333Y17730477D01*
X41185714Y17778096D01*
X41090476Y17825715D01*
X41042857Y17825715D01*
X40947619Y17778096D01*
X40900000Y17730477D01*
X40852380Y17635239D01*
X40852380Y17444762D01*
X40900000Y17349524D01*
X40947619Y17301905D01*
X41042857Y17254286D01*
X41090476Y17254286D01*
X41185714Y17301905D01*
X41233333Y17349524D01*
X41280952Y17444762D01*
X41280952Y17635239D01*
X41328571Y17730477D01*
X41376190Y17778096D01*
X41471428Y17825715D01*
X41661904Y17825715D01*
X41757142Y17778096D01*
X41804761Y17730477D01*
X41852380Y17635239D01*
X41852380Y17444762D01*
X41804761Y17349524D01*
X41757142Y17301905D01*
X41661904Y17254286D01*
X41471428Y17254286D01*
X41376190Y17301905D01*
X41328571Y17349524D01*
X41280952Y17444762D01*
X48232380Y29146667D02*
X47756190Y29480000D01*
X48232380Y29718096D02*
X47232380Y29718096D01*
X47232380Y29337143D01*
X47280000Y29241905D01*
X47327619Y29194286D01*
X47422857Y29146667D01*
X47565714Y29146667D01*
X47660952Y29194286D01*
X47708571Y29241905D01*
X47756190Y29337143D01*
X47756190Y29718096D01*
X47232380Y28813334D02*
X47232380Y28146667D01*
X48232380Y28575239D01*
X49062380Y25046667D02*
X48586190Y25380000D01*
X49062380Y25618096D02*
X48062380Y25618096D01*
X48062380Y25237143D01*
X48110000Y25141905D01*
X48157619Y25094286D01*
X48252857Y25046667D01*
X48395714Y25046667D01*
X48490952Y25094286D01*
X48538571Y25141905D01*
X48586190Y25237143D01*
X48586190Y25618096D01*
X48062380Y24189524D02*
X48062380Y24380000D01*
X48110000Y24475239D01*
X48157619Y24522858D01*
X48300476Y24618096D01*
X48490952Y24665715D01*
X48871904Y24665715D01*
X48967142Y24618096D01*
X49014761Y24570477D01*
X49062380Y24475239D01*
X49062380Y24284762D01*
X49014761Y24189524D01*
X48967142Y24141905D01*
X48871904Y24094286D01*
X48633809Y24094286D01*
X48538571Y24141905D01*
X48490952Y24189524D01*
X48443333Y24284762D01*
X48443333Y24475239D01*
X48490952Y24570477D01*
X48538571Y24618096D01*
X48633809Y24665715D01*
X44192380Y25131667D02*
X43716190Y25465000D01*
X44192380Y25703096D02*
X43192380Y25703096D01*
X43192380Y25322143D01*
X43240000Y25226905D01*
X43287619Y25179286D01*
X43382857Y25131667D01*
X43525714Y25131667D01*
X43620952Y25179286D01*
X43668571Y25226905D01*
X43716190Y25322143D01*
X43716190Y25703096D01*
X43192380Y24226905D02*
X43192380Y24703096D01*
X43668571Y24750715D01*
X43620952Y24703096D01*
X43573333Y24607858D01*
X43573333Y24369762D01*
X43620952Y24274524D01*
X43668571Y24226905D01*
X43763809Y24179286D01*
X44001904Y24179286D01*
X44097142Y24226905D01*
X44144761Y24274524D01*
X44192380Y24369762D01*
X44192380Y24607858D01*
X44144761Y24703096D01*
X44097142Y24750715D01*
X39682380Y11816667D02*
X39206190Y12150000D01*
X39682380Y12388096D02*
X38682380Y12388096D01*
X38682380Y12007143D01*
X38730000Y11911905D01*
X38777619Y11864286D01*
X38872857Y11816667D01*
X39015714Y11816667D01*
X39110952Y11864286D01*
X39158571Y11911905D01*
X39206190Y12007143D01*
X39206190Y12388096D01*
X38682380Y11483334D02*
X38682380Y10864286D01*
X39063333Y11197620D01*
X39063333Y11054762D01*
X39110952Y10959524D01*
X39158571Y10911905D01*
X39253809Y10864286D01*
X39491904Y10864286D01*
X39587142Y10911905D01*
X39634761Y10959524D01*
X39682380Y11054762D01*
X39682380Y11340477D01*
X39634761Y11435715D01*
X39587142Y11483334D01*
X30082380Y20056667D02*
X29606190Y20390000D01*
X30082380Y20628096D02*
X29082380Y20628096D01*
X29082380Y20247143D01*
X29130000Y20151905D01*
X29177619Y20104286D01*
X29272857Y20056667D01*
X29415714Y20056667D01*
X29510952Y20104286D01*
X29558571Y20151905D01*
X29606190Y20247143D01*
X29606190Y20628096D01*
X29177619Y19675715D02*
X29130000Y19628096D01*
X29082380Y19532858D01*
X29082380Y19294762D01*
X29130000Y19199524D01*
X29177619Y19151905D01*
X29272857Y19104286D01*
X29368095Y19104286D01*
X29510952Y19151905D01*
X30082380Y19723334D01*
X30082380Y19104286D01*
X31242380Y7036667D02*
X30766190Y7370000D01*
X31242380Y7608096D02*
X30242380Y7608096D01*
X30242380Y7227143D01*
X30290000Y7131905D01*
X30337619Y7084286D01*
X30432857Y7036667D01*
X30575714Y7036667D01*
X30670952Y7084286D01*
X30718571Y7131905D01*
X30766190Y7227143D01*
X30766190Y7608096D01*
X31242380Y6084286D02*
X31242380Y6655715D01*
X31242380Y6370000D02*
X30242380Y6370000D01*
X30385238Y6465239D01*
X30480476Y6560477D01*
X30528095Y6655715D01*
X21042857Y18832858D02*
X21090476Y18785239D01*
X21233333Y18737620D01*
X21328571Y18737620D01*
X21471428Y18785239D01*
X21566666Y18880477D01*
X21614285Y18975715D01*
X21661904Y19166191D01*
X21661904Y19309048D01*
X21614285Y19499524D01*
X21566666Y19594762D01*
X21471428Y19690000D01*
X21328571Y19737620D01*
X21233333Y19737620D01*
X21090476Y19690000D01*
X21042857Y19642381D01*
X20471428Y19309048D02*
X20566666Y19356667D01*
X20614285Y19404286D01*
X20661904Y19499524D01*
X20661904Y19547143D01*
X20614285Y19642381D01*
X20566666Y19690000D01*
X20471428Y19737620D01*
X20280952Y19737620D01*
X20185714Y19690000D01*
X20138095Y19642381D01*
X20090476Y19547143D01*
X20090476Y19499524D01*
X20138095Y19404286D01*
X20185714Y19356667D01*
X20280952Y19309048D01*
X20471428Y19309048D01*
X20566666Y19261429D01*
X20614285Y19213810D01*
X20661904Y19118572D01*
X20661904Y18928096D01*
X20614285Y18832858D01*
X20566666Y18785239D01*
X20471428Y18737620D01*
X20280952Y18737620D01*
X20185714Y18785239D01*
X20138095Y18832858D01*
X20090476Y18928096D01*
X20090476Y19118572D01*
X20138095Y19213810D01*
X20185714Y19261429D01*
X20280952Y19309048D01*
X19757142Y19737620D02*
X19090476Y19737620D01*
X19519047Y18737620D01*
X32307106Y41592031D02*
X32374450Y41592031D01*
X32509137Y41659375D01*
X32576480Y41726718D01*
X32643824Y41861405D01*
X32643824Y41996092D01*
X32610152Y42097107D01*
X32509137Y42265466D01*
X32408122Y42366481D01*
X32239763Y42467497D01*
X32138748Y42501168D01*
X32004061Y42501168D01*
X31869374Y42433825D01*
X31802030Y42366481D01*
X31734687Y42231794D01*
X31734687Y42164451D01*
X31296954Y41390000D02*
X31768358Y40918596D01*
X31195938Y41827733D02*
X31869374Y41491016D01*
X31431641Y41053283D01*
X30892893Y40851252D02*
X30926564Y40952268D01*
X30926564Y41019611D01*
X30892893Y41120626D01*
X30859221Y41154298D01*
X30758206Y41187970D01*
X30690862Y41187970D01*
X30589847Y41154298D01*
X30455160Y41019611D01*
X30421488Y40918596D01*
X30421488Y40851252D01*
X30455160Y40750237D01*
X30488832Y40716565D01*
X30589847Y40682894D01*
X30657190Y40682894D01*
X30758206Y40716565D01*
X30892893Y40851252D01*
X30993908Y40884924D01*
X31061251Y40884924D01*
X31162267Y40851252D01*
X31296954Y40716565D01*
X31330625Y40615550D01*
X31330625Y40548207D01*
X31296954Y40447191D01*
X31162267Y40312504D01*
X31061251Y40278833D01*
X30993908Y40278833D01*
X30892893Y40312504D01*
X30758206Y40447191D01*
X30724534Y40548207D01*
X30724534Y40615550D01*
X30758206Y40716565D01*
X34534421Y39364716D02*
X34601765Y39364716D01*
X34736452Y39432060D01*
X34803795Y39499403D01*
X34871139Y39634090D01*
X34871139Y39768777D01*
X34837467Y39869792D01*
X34736452Y40038151D01*
X34635437Y40139166D01*
X34467078Y40240182D01*
X34366063Y40273853D01*
X34231376Y40273853D01*
X34096689Y40206510D01*
X34029345Y40139166D01*
X33962002Y40004479D01*
X33962002Y39937136D01*
X33524269Y39162685D02*
X33995673Y38691281D01*
X33423253Y39600418D02*
X34096689Y39263701D01*
X33658956Y38825968D01*
X32985521Y39095342D02*
X32514116Y38623937D01*
X33524269Y38219876D01*
X32227142Y35532858D02*
X32274761Y35580477D01*
X32322380Y35723334D01*
X32322380Y35818572D01*
X32274761Y35961429D01*
X32179523Y36056667D01*
X32084285Y36104286D01*
X31893809Y36151905D01*
X31750952Y36151905D01*
X31560476Y36104286D01*
X31465238Y36056667D01*
X31370000Y35961429D01*
X31322380Y35818572D01*
X31322380Y35723334D01*
X31370000Y35580477D01*
X31417619Y35532858D01*
X31322380Y35199524D02*
X31322380Y34580477D01*
X31703333Y34913810D01*
X31703333Y34770953D01*
X31750952Y34675715D01*
X31798571Y34628096D01*
X31893809Y34580477D01*
X32131904Y34580477D01*
X32227142Y34628096D01*
X32274761Y34675715D01*
X32322380Y34770953D01*
X32322380Y35056667D01*
X32274761Y35151905D01*
X32227142Y35199524D01*
X31322380Y34247143D02*
X31322380Y33628096D01*
X31703333Y33961429D01*
X31703333Y33818572D01*
X31750952Y33723334D01*
X31798571Y33675715D01*
X31893809Y33628096D01*
X32131904Y33628096D01*
X32227142Y33675715D01*
X32274761Y33723334D01*
X32322380Y33818572D01*
X32322380Y34104286D01*
X32274761Y34199524D01*
X32227142Y34247143D01*
X34242857Y28232858D02*
X34290476Y28185239D01*
X34433333Y28137620D01*
X34528571Y28137620D01*
X34671428Y28185239D01*
X34766666Y28280477D01*
X34814285Y28375715D01*
X34861904Y28566191D01*
X34861904Y28709048D01*
X34814285Y28899524D01*
X34766666Y28994762D01*
X34671428Y29090000D01*
X34528571Y29137620D01*
X34433333Y29137620D01*
X34290476Y29090000D01*
X34242857Y29042381D01*
X33385714Y28804286D02*
X33385714Y28137620D01*
X33623809Y29185239D02*
X33861904Y28470953D01*
X33242857Y28470953D01*
X32385714Y29137620D02*
X32861904Y29137620D01*
X32909523Y28661429D01*
X32861904Y28709048D01*
X32766666Y28756667D01*
X32528571Y28756667D01*
X32433333Y28709048D01*
X32385714Y28661429D01*
X32338095Y28566191D01*
X32338095Y28328096D01*
X32385714Y28232858D01*
X32433333Y28185239D01*
X32528571Y28137620D01*
X32766666Y28137620D01*
X32861904Y28185239D01*
X32909523Y28232858D01*
X6442857Y39232858D02*
X6490476Y39185239D01*
X6633333Y39137620D01*
X6728571Y39137620D01*
X6871428Y39185239D01*
X6966666Y39280477D01*
X7014285Y39375715D01*
X7061904Y39566191D01*
X7061904Y39709048D01*
X7014285Y39899524D01*
X6966666Y39994762D01*
X6871428Y40090000D01*
X6728571Y40137620D01*
X6633333Y40137620D01*
X6490476Y40090000D01*
X6442857Y40042381D01*
X6109523Y40137620D02*
X5490476Y40137620D01*
X5823809Y39756667D01*
X5680952Y39756667D01*
X5585714Y39709048D01*
X5538095Y39661429D01*
X5490476Y39566191D01*
X5490476Y39328096D01*
X5538095Y39232858D01*
X5585714Y39185239D01*
X5680952Y39137620D01*
X5966666Y39137620D01*
X6061904Y39185239D01*
X6109523Y39232858D01*
X4538095Y39137620D02*
X5109523Y39137620D01*
X4823809Y39137620D02*
X4823809Y40137620D01*
X4919047Y39994762D01*
X5014285Y39899524D01*
X5109523Y39851905D01*
X15857142Y41532858D02*
X15904761Y41580477D01*
X15952380Y41723334D01*
X15952380Y41818572D01*
X15904761Y41961429D01*
X15809523Y42056667D01*
X15714285Y42104286D01*
X15523809Y42151905D01*
X15380952Y42151905D01*
X15190476Y42104286D01*
X15095238Y42056667D01*
X15000000Y41961429D01*
X14952380Y41818572D01*
X14952380Y41723334D01*
X15000000Y41580477D01*
X15047619Y41532858D01*
X15047619Y41151905D02*
X15000000Y41104286D01*
X14952380Y41009048D01*
X14952380Y40770953D01*
X15000000Y40675715D01*
X15047619Y40628096D01*
X15142857Y40580477D01*
X15238095Y40580477D01*
X15380952Y40628096D01*
X15952380Y41199524D01*
X15952380Y40580477D01*
X15952380Y40104286D02*
X15952380Y39913810D01*
X15904761Y39818572D01*
X15857142Y39770953D01*
X15714285Y39675715D01*
X15523809Y39628096D01*
X15142857Y39628096D01*
X15047619Y39675715D01*
X15000000Y39723334D01*
X14952380Y39818572D01*
X14952380Y40009048D01*
X15000000Y40104286D01*
X15047619Y40151905D01*
X15142857Y40199524D01*
X15380952Y40199524D01*
X15476190Y40151905D01*
X15523809Y40104286D01*
X15571428Y40009048D01*
X15571428Y39818572D01*
X15523809Y39723334D01*
X15476190Y39675715D01*
X15380952Y39628096D01*
X10242857Y32832858D02*
X10290476Y32785239D01*
X10433333Y32737620D01*
X10528571Y32737620D01*
X10671428Y32785239D01*
X10766666Y32880477D01*
X10814285Y32975715D01*
X10861904Y33166191D01*
X10861904Y33309048D01*
X10814285Y33499524D01*
X10766666Y33594762D01*
X10671428Y33690000D01*
X10528571Y33737620D01*
X10433333Y33737620D01*
X10290476Y33690000D01*
X10242857Y33642381D01*
X9861904Y33642381D02*
X9814285Y33690000D01*
X9719047Y33737620D01*
X9480952Y33737620D01*
X9385714Y33690000D01*
X9338095Y33642381D01*
X9290476Y33547143D01*
X9290476Y33451905D01*
X9338095Y33309048D01*
X9909523Y32737620D01*
X9290476Y32737620D01*
X8957142Y33737620D02*
X8290476Y33737620D01*
X8719047Y32737620D01*
X21442857Y35032858D02*
X21490476Y34985239D01*
X21633333Y34937620D01*
X21728571Y34937620D01*
X21871428Y34985239D01*
X21966666Y35080477D01*
X22014285Y35175715D01*
X22061904Y35366191D01*
X22061904Y35509048D01*
X22014285Y35699524D01*
X21966666Y35794762D01*
X21871428Y35890000D01*
X21728571Y35937620D01*
X21633333Y35937620D01*
X21490476Y35890000D01*
X21442857Y35842381D01*
X21061904Y35842381D02*
X21014285Y35890000D01*
X20919047Y35937620D01*
X20680952Y35937620D01*
X20585714Y35890000D01*
X20538095Y35842381D01*
X20490476Y35747143D01*
X20490476Y35651905D01*
X20538095Y35509048D01*
X21109523Y34937620D01*
X20490476Y34937620D01*
X19585714Y35937620D02*
X20061904Y35937620D01*
X20109523Y35461429D01*
X20061904Y35509048D01*
X19966666Y35556667D01*
X19728571Y35556667D01*
X19633333Y35509048D01*
X19585714Y35461429D01*
X19538095Y35366191D01*
X19538095Y35128096D01*
X19585714Y35032858D01*
X19633333Y34985239D01*
X19728571Y34937620D01*
X19966666Y34937620D01*
X20061904Y34985239D01*
X20109523Y35032858D01*
X27372857Y22932858D02*
X27420476Y22885239D01*
X27563333Y22837620D01*
X27658571Y22837620D01*
X27801428Y22885239D01*
X27896666Y22980477D01*
X27944285Y23075715D01*
X27991904Y23266191D01*
X27991904Y23409048D01*
X27944285Y23599524D01*
X27896666Y23694762D01*
X27801428Y23790000D01*
X27658571Y23837620D01*
X27563333Y23837620D01*
X27420476Y23790000D01*
X27372857Y23742381D01*
X26515714Y23504286D02*
X26515714Y22837620D01*
X26753809Y23885239D02*
X26991904Y23170953D01*
X26372857Y23170953D01*
X26087142Y23837620D02*
X25468095Y23837620D01*
X25801428Y23456667D01*
X25658571Y23456667D01*
X25563333Y23409048D01*
X25515714Y23361429D01*
X25468095Y23266191D01*
X25468095Y23028096D01*
X25515714Y22932858D01*
X25563333Y22885239D01*
X25658571Y22837620D01*
X25944285Y22837620D01*
X26039523Y22885239D01*
X26087142Y22932858D01*
X20787142Y10352858D02*
X20834761Y10400477D01*
X20882380Y10543334D01*
X20882380Y10638572D01*
X20834761Y10781429D01*
X20739523Y10876667D01*
X20644285Y10924286D01*
X20453809Y10971905D01*
X20310952Y10971905D01*
X20120476Y10924286D01*
X20025238Y10876667D01*
X19930000Y10781429D01*
X19882380Y10638572D01*
X19882380Y10543334D01*
X19930000Y10400477D01*
X19977619Y10352858D01*
X20882380Y9400477D02*
X20882380Y9971905D01*
X20882380Y9686191D02*
X19882380Y9686191D01*
X20025238Y9781429D01*
X20120476Y9876667D01*
X20168095Y9971905D01*
X19882380Y9067143D02*
X19882380Y8400477D01*
X20882380Y8829048D01*
X30966666Y15612858D02*
X31014285Y15565239D01*
X31157142Y15517620D01*
X31252380Y15517620D01*
X31395238Y15565239D01*
X31490476Y15660477D01*
X31538095Y15755715D01*
X31585714Y15946191D01*
X31585714Y16089048D01*
X31538095Y16279524D01*
X31490476Y16374762D01*
X31395238Y16470000D01*
X31252380Y16517620D01*
X31157142Y16517620D01*
X31014285Y16470000D01*
X30966666Y16422381D01*
X30014285Y15517620D02*
X30585714Y15517620D01*
X30300000Y15517620D02*
X30300000Y16517620D01*
X30395238Y16374762D01*
X30490476Y16279524D01*
X30585714Y16231905D01*
X20042857Y27532858D02*
X20090476Y27485239D01*
X20233333Y27437620D01*
X20328571Y27437620D01*
X20471428Y27485239D01*
X20566666Y27580477D01*
X20614285Y27675715D01*
X20661904Y27866191D01*
X20661904Y28009048D01*
X20614285Y28199524D01*
X20566666Y28294762D01*
X20471428Y28390000D01*
X20328571Y28437620D01*
X20233333Y28437620D01*
X20090476Y28390000D01*
X20042857Y28342381D01*
X19566666Y27437620D02*
X19376190Y27437620D01*
X19280952Y27485239D01*
X19233333Y27532858D01*
X19138095Y27675715D01*
X19090476Y27866191D01*
X19090476Y28247143D01*
X19138095Y28342381D01*
X19185714Y28390000D01*
X19280952Y28437620D01*
X19471428Y28437620D01*
X19566666Y28390000D01*
X19614285Y28342381D01*
X19661904Y28247143D01*
X19661904Y28009048D01*
X19614285Y27913810D01*
X19566666Y27866191D01*
X19471428Y27818572D01*
X19280952Y27818572D01*
X19185714Y27866191D01*
X19138095Y27913810D01*
X19090476Y28009048D01*
X18519047Y28009048D02*
X18614285Y28056667D01*
X18661904Y28104286D01*
X18709523Y28199524D01*
X18709523Y28247143D01*
X18661904Y28342381D01*
X18614285Y28390000D01*
X18519047Y28437620D01*
X18328571Y28437620D01*
X18233333Y28390000D01*
X18185714Y28342381D01*
X18138095Y28247143D01*
X18138095Y28199524D01*
X18185714Y28104286D01*
X18233333Y28056667D01*
X18328571Y28009048D01*
X18519047Y28009048D01*
X18614285Y27961429D01*
X18661904Y27913810D01*
X18709523Y27818572D01*
X18709523Y27628096D01*
X18661904Y27532858D01*
X18614285Y27485239D01*
X18519047Y27437620D01*
X18328571Y27437620D01*
X18233333Y27485239D01*
X18185714Y27532858D01*
X18138095Y27628096D01*
X18138095Y27818572D01*
X18185714Y27913810D01*
X18233333Y27961429D01*
X18328571Y28009048D01*
X25642857Y14832858D02*
X25690476Y14785239D01*
X25833333Y14737620D01*
X25928571Y14737620D01*
X26071428Y14785239D01*
X26166666Y14880477D01*
X26214285Y14975715D01*
X26261904Y15166191D01*
X26261904Y15309048D01*
X26214285Y15499524D01*
X26166666Y15594762D01*
X26071428Y15690000D01*
X25928571Y15737620D01*
X25833333Y15737620D01*
X25690476Y15690000D01*
X25642857Y15642381D01*
X25166666Y14737620D02*
X24976190Y14737620D01*
X24880952Y14785239D01*
X24833333Y14832858D01*
X24738095Y14975715D01*
X24690476Y15166191D01*
X24690476Y15547143D01*
X24738095Y15642381D01*
X24785714Y15690000D01*
X24880952Y15737620D01*
X25071428Y15737620D01*
X25166666Y15690000D01*
X25214285Y15642381D01*
X25261904Y15547143D01*
X25261904Y15309048D01*
X25214285Y15213810D01*
X25166666Y15166191D01*
X25071428Y15118572D01*
X24880952Y15118572D01*
X24785714Y15166191D01*
X24738095Y15213810D01*
X24690476Y15309048D01*
X24357142Y15737620D02*
X23690476Y15737620D01*
X24119047Y14737620D01*
X24042857Y28432858D02*
X24090476Y28385239D01*
X24233333Y28337620D01*
X24328571Y28337620D01*
X24471428Y28385239D01*
X24566666Y28480477D01*
X24614285Y28575715D01*
X24661904Y28766191D01*
X24661904Y28909048D01*
X24614285Y29099524D01*
X24566666Y29194762D01*
X24471428Y29290000D01*
X24328571Y29337620D01*
X24233333Y29337620D01*
X24090476Y29290000D01*
X24042857Y29242381D01*
X23566666Y28337620D02*
X23376190Y28337620D01*
X23280952Y28385239D01*
X23233333Y28432858D01*
X23138095Y28575715D01*
X23090476Y28766191D01*
X23090476Y29147143D01*
X23138095Y29242381D01*
X23185714Y29290000D01*
X23280952Y29337620D01*
X23471428Y29337620D01*
X23566666Y29290000D01*
X23614285Y29242381D01*
X23661904Y29147143D01*
X23661904Y28909048D01*
X23614285Y28813810D01*
X23566666Y28766191D01*
X23471428Y28718572D01*
X23280952Y28718572D01*
X23185714Y28766191D01*
X23138095Y28813810D01*
X23090476Y28909048D01*
X22233333Y29337620D02*
X22423809Y29337620D01*
X22519047Y29290000D01*
X22566666Y29242381D01*
X22661904Y29099524D01*
X22709523Y28909048D01*
X22709523Y28528096D01*
X22661904Y28432858D01*
X22614285Y28385239D01*
X22519047Y28337620D01*
X22328571Y28337620D01*
X22233333Y28385239D01*
X22185714Y28432858D01*
X22138095Y28528096D01*
X22138095Y28766191D01*
X22185714Y28861429D01*
X22233333Y28909048D01*
X22328571Y28956667D01*
X22519047Y28956667D01*
X22614285Y28909048D01*
X22661904Y28861429D01*
X22709523Y28766191D01*
X23357142Y15432858D02*
X23404761Y15480477D01*
X23452380Y15623334D01*
X23452380Y15718572D01*
X23404761Y15861429D01*
X23309523Y15956667D01*
X23214285Y16004286D01*
X23023809Y16051905D01*
X22880952Y16051905D01*
X22690476Y16004286D01*
X22595238Y15956667D01*
X22500000Y15861429D01*
X22452380Y15718572D01*
X22452380Y15623334D01*
X22500000Y15480477D01*
X22547619Y15432858D01*
X23452380Y14956667D02*
X23452380Y14766191D01*
X23404761Y14670953D01*
X23357142Y14623334D01*
X23214285Y14528096D01*
X23023809Y14480477D01*
X22642857Y14480477D01*
X22547619Y14528096D01*
X22500000Y14575715D01*
X22452380Y14670953D01*
X22452380Y14861429D01*
X22500000Y14956667D01*
X22547619Y15004286D01*
X22642857Y15051905D01*
X22880952Y15051905D01*
X22976190Y15004286D01*
X23023809Y14956667D01*
X23071428Y14861429D01*
X23071428Y14670953D01*
X23023809Y14575715D01*
X22976190Y14528096D01*
X22880952Y14480477D01*
X22452380Y13575715D02*
X22452380Y14051905D01*
X22928571Y14099524D01*
X22880952Y14051905D01*
X22833333Y13956667D01*
X22833333Y13718572D01*
X22880952Y13623334D01*
X22928571Y13575715D01*
X23023809Y13528096D01*
X23261904Y13528096D01*
X23357142Y13575715D01*
X23404761Y13623334D01*
X23452380Y13718572D01*
X23452380Y13956667D01*
X23404761Y14051905D01*
X23357142Y14099524D01*
X19957142Y24632858D02*
X20004761Y24680477D01*
X20052380Y24823334D01*
X20052380Y24918572D01*
X20004761Y25061429D01*
X19909523Y25156667D01*
X19814285Y25204286D01*
X19623809Y25251905D01*
X19480952Y25251905D01*
X19290476Y25204286D01*
X19195238Y25156667D01*
X19100000Y25061429D01*
X19052380Y24918572D01*
X19052380Y24823334D01*
X19100000Y24680477D01*
X19147619Y24632858D01*
X20052380Y24156667D02*
X20052380Y23966191D01*
X20004761Y23870953D01*
X19957142Y23823334D01*
X19814285Y23728096D01*
X19623809Y23680477D01*
X19242857Y23680477D01*
X19147619Y23728096D01*
X19100000Y23775715D01*
X19052380Y23870953D01*
X19052380Y24061429D01*
X19100000Y24156667D01*
X19147619Y24204286D01*
X19242857Y24251905D01*
X19480952Y24251905D01*
X19576190Y24204286D01*
X19623809Y24156667D01*
X19671428Y24061429D01*
X19671428Y23870953D01*
X19623809Y23775715D01*
X19576190Y23728096D01*
X19480952Y23680477D01*
X19385714Y22823334D02*
X20052380Y22823334D01*
X19004761Y23061429D02*
X19719047Y23299524D01*
X19719047Y22680477D01*
X19957142Y17832858D02*
X20004761Y17880477D01*
X20052380Y18023334D01*
X20052380Y18118572D01*
X20004761Y18261429D01*
X19909523Y18356667D01*
X19814285Y18404286D01*
X19623809Y18451905D01*
X19480952Y18451905D01*
X19290476Y18404286D01*
X19195238Y18356667D01*
X19100000Y18261429D01*
X19052380Y18118572D01*
X19052380Y18023334D01*
X19100000Y17880477D01*
X19147619Y17832858D01*
X20052380Y17356667D02*
X20052380Y17166191D01*
X20004761Y17070953D01*
X19957142Y17023334D01*
X19814285Y16928096D01*
X19623809Y16880477D01*
X19242857Y16880477D01*
X19147619Y16928096D01*
X19100000Y16975715D01*
X19052380Y17070953D01*
X19052380Y17261429D01*
X19100000Y17356667D01*
X19147619Y17404286D01*
X19242857Y17451905D01*
X19480952Y17451905D01*
X19576190Y17404286D01*
X19623809Y17356667D01*
X19671428Y17261429D01*
X19671428Y17070953D01*
X19623809Y16975715D01*
X19576190Y16928096D01*
X19480952Y16880477D01*
X19052380Y16547143D02*
X19052380Y15928096D01*
X19433333Y16261429D01*
X19433333Y16118572D01*
X19480952Y16023334D01*
X19528571Y15975715D01*
X19623809Y15928096D01*
X19861904Y15928096D01*
X19957142Y15975715D01*
X20004761Y16023334D01*
X20052380Y16118572D01*
X20052380Y16404286D01*
X20004761Y16499524D01*
X19957142Y16547143D01*
X21442857Y33832858D02*
X21490476Y33785239D01*
X21633333Y33737620D01*
X21728571Y33737620D01*
X21871428Y33785239D01*
X21966666Y33880477D01*
X22014285Y33975715D01*
X22061904Y34166191D01*
X22061904Y34309048D01*
X22014285Y34499524D01*
X21966666Y34594762D01*
X21871428Y34690000D01*
X21728571Y34737620D01*
X21633333Y34737620D01*
X21490476Y34690000D01*
X21442857Y34642381D01*
X20966666Y33737620D02*
X20776190Y33737620D01*
X20680952Y33785239D01*
X20633333Y33832858D01*
X20538095Y33975715D01*
X20490476Y34166191D01*
X20490476Y34547143D01*
X20538095Y34642381D01*
X20585714Y34690000D01*
X20680952Y34737620D01*
X20871428Y34737620D01*
X20966666Y34690000D01*
X21014285Y34642381D01*
X21061904Y34547143D01*
X21061904Y34309048D01*
X21014285Y34213810D01*
X20966666Y34166191D01*
X20871428Y34118572D01*
X20680952Y34118572D01*
X20585714Y34166191D01*
X20538095Y34213810D01*
X20490476Y34309048D01*
X20109523Y34642381D02*
X20061904Y34690000D01*
X19966666Y34737620D01*
X19728571Y34737620D01*
X19633333Y34690000D01*
X19585714Y34642381D01*
X19538095Y34547143D01*
X19538095Y34451905D01*
X19585714Y34309048D01*
X20157142Y33737620D01*
X19538095Y33737620D01*
X22842857Y24032858D02*
X22890476Y23985239D01*
X23033333Y23937620D01*
X23128571Y23937620D01*
X23271428Y23985239D01*
X23366666Y24080477D01*
X23414285Y24175715D01*
X23461904Y24366191D01*
X23461904Y24509048D01*
X23414285Y24699524D01*
X23366666Y24794762D01*
X23271428Y24890000D01*
X23128571Y24937620D01*
X23033333Y24937620D01*
X22890476Y24890000D01*
X22842857Y24842381D01*
X22366666Y23937620D02*
X22176190Y23937620D01*
X22080952Y23985239D01*
X22033333Y24032858D01*
X21938095Y24175715D01*
X21890476Y24366191D01*
X21890476Y24747143D01*
X21938095Y24842381D01*
X21985714Y24890000D01*
X22080952Y24937620D01*
X22271428Y24937620D01*
X22366666Y24890000D01*
X22414285Y24842381D01*
X22461904Y24747143D01*
X22461904Y24509048D01*
X22414285Y24413810D01*
X22366666Y24366191D01*
X22271428Y24318572D01*
X22080952Y24318572D01*
X21985714Y24366191D01*
X21938095Y24413810D01*
X21890476Y24509048D01*
X20938095Y23937620D02*
X21509523Y23937620D01*
X21223809Y23937620D02*
X21223809Y24937620D01*
X21319047Y24794762D01*
X21414285Y24699524D01*
X21509523Y24651905D01*
X21642857Y30862858D02*
X21690476Y30815239D01*
X21833333Y30767620D01*
X21928571Y30767620D01*
X22071428Y30815239D01*
X22166666Y30910477D01*
X22214285Y31005715D01*
X22261904Y31196191D01*
X22261904Y31339048D01*
X22214285Y31529524D01*
X22166666Y31624762D01*
X22071428Y31720000D01*
X21928571Y31767620D01*
X21833333Y31767620D01*
X21690476Y31720000D01*
X21642857Y31672381D01*
X21166666Y30767620D02*
X20976190Y30767620D01*
X20880952Y30815239D01*
X20833333Y30862858D01*
X20738095Y31005715D01*
X20690476Y31196191D01*
X20690476Y31577143D01*
X20738095Y31672381D01*
X20785714Y31720000D01*
X20880952Y31767620D01*
X21071428Y31767620D01*
X21166666Y31720000D01*
X21214285Y31672381D01*
X21261904Y31577143D01*
X21261904Y31339048D01*
X21214285Y31243810D01*
X21166666Y31196191D01*
X21071428Y31148572D01*
X20880952Y31148572D01*
X20785714Y31196191D01*
X20738095Y31243810D01*
X20690476Y31339048D01*
X20071428Y31767620D02*
X19976190Y31767620D01*
X19880952Y31720000D01*
X19833333Y31672381D01*
X19785714Y31577143D01*
X19738095Y31386667D01*
X19738095Y31148572D01*
X19785714Y30958096D01*
X19833333Y30862858D01*
X19880952Y30815239D01*
X19976190Y30767620D01*
X20071428Y30767620D01*
X20166666Y30815239D01*
X20214285Y30862858D01*
X20261904Y30958096D01*
X20309523Y31148572D01*
X20309523Y31386667D01*
X20261904Y31577143D01*
X20214285Y31672381D01*
X20166666Y31720000D01*
X20071428Y31767620D01*
X21842857Y15032858D02*
X21890476Y14985239D01*
X22033333Y14937620D01*
X22128571Y14937620D01*
X22271428Y14985239D01*
X22366666Y15080477D01*
X22414285Y15175715D01*
X22461904Y15366191D01*
X22461904Y15509048D01*
X22414285Y15699524D01*
X22366666Y15794762D01*
X22271428Y15890000D01*
X22128571Y15937620D01*
X22033333Y15937620D01*
X21890476Y15890000D01*
X21842857Y15842381D01*
X21271428Y15509048D02*
X21366666Y15556667D01*
X21414285Y15604286D01*
X21461904Y15699524D01*
X21461904Y15747143D01*
X21414285Y15842381D01*
X21366666Y15890000D01*
X21271428Y15937620D01*
X21080952Y15937620D01*
X20985714Y15890000D01*
X20938095Y15842381D01*
X20890476Y15747143D01*
X20890476Y15699524D01*
X20938095Y15604286D01*
X20985714Y15556667D01*
X21080952Y15509048D01*
X21271428Y15509048D01*
X21366666Y15461429D01*
X21414285Y15413810D01*
X21461904Y15318572D01*
X21461904Y15128096D01*
X21414285Y15032858D01*
X21366666Y14985239D01*
X21271428Y14937620D01*
X21080952Y14937620D01*
X20985714Y14985239D01*
X20938095Y15032858D01*
X20890476Y15128096D01*
X20890476Y15318572D01*
X20938095Y15413810D01*
X20985714Y15461429D01*
X21080952Y15509048D01*
X20414285Y14937620D02*
X20223809Y14937620D01*
X20128571Y14985239D01*
X20080952Y15032858D01*
X19985714Y15175715D01*
X19938095Y15366191D01*
X19938095Y15747143D01*
X19985714Y15842381D01*
X20033333Y15890000D01*
X20128571Y15937620D01*
X20319047Y15937620D01*
X20414285Y15890000D01*
X20461904Y15842381D01*
X20509523Y15747143D01*
X20509523Y15509048D01*
X20461904Y15413810D01*
X20414285Y15366191D01*
X20319047Y15318572D01*
X20128571Y15318572D01*
X20033333Y15366191D01*
X19985714Y15413810D01*
X19938095Y15509048D01*
X20442857Y25832858D02*
X20490476Y25785239D01*
X20633333Y25737620D01*
X20728571Y25737620D01*
X20871428Y25785239D01*
X20966666Y25880477D01*
X21014285Y25975715D01*
X21061904Y26166191D01*
X21061904Y26309048D01*
X21014285Y26499524D01*
X20966666Y26594762D01*
X20871428Y26690000D01*
X20728571Y26737620D01*
X20633333Y26737620D01*
X20490476Y26690000D01*
X20442857Y26642381D01*
X19871428Y26309048D02*
X19966666Y26356667D01*
X20014285Y26404286D01*
X20061904Y26499524D01*
X20061904Y26547143D01*
X20014285Y26642381D01*
X19966666Y26690000D01*
X19871428Y26737620D01*
X19680952Y26737620D01*
X19585714Y26690000D01*
X19538095Y26642381D01*
X19490476Y26547143D01*
X19490476Y26499524D01*
X19538095Y26404286D01*
X19585714Y26356667D01*
X19680952Y26309048D01*
X19871428Y26309048D01*
X19966666Y26261429D01*
X20014285Y26213810D01*
X20061904Y26118572D01*
X20061904Y25928096D01*
X20014285Y25832858D01*
X19966666Y25785239D01*
X19871428Y25737620D01*
X19680952Y25737620D01*
X19585714Y25785239D01*
X19538095Y25832858D01*
X19490476Y25928096D01*
X19490476Y26118572D01*
X19538095Y26213810D01*
X19585714Y26261429D01*
X19680952Y26309048D01*
X18919047Y26309048D02*
X19014285Y26356667D01*
X19061904Y26404286D01*
X19109523Y26499524D01*
X19109523Y26547143D01*
X19061904Y26642381D01*
X19014285Y26690000D01*
X18919047Y26737620D01*
X18728571Y26737620D01*
X18633333Y26690000D01*
X18585714Y26642381D01*
X18538095Y26547143D01*
X18538095Y26499524D01*
X18585714Y26404286D01*
X18633333Y26356667D01*
X18728571Y26309048D01*
X18919047Y26309048D01*
X19014285Y26261429D01*
X19061904Y26213810D01*
X19109523Y26118572D01*
X19109523Y25928096D01*
X19061904Y25832858D01*
X19014285Y25785239D01*
X18919047Y25737620D01*
X18728571Y25737620D01*
X18633333Y25785239D01*
X18585714Y25832858D01*
X18538095Y25928096D01*
X18538095Y26118572D01*
X18585714Y26213810D01*
X18633333Y26261429D01*
X18728571Y26309048D01*
X39042857Y34232858D02*
X39090476Y34185239D01*
X39233333Y34137620D01*
X39328571Y34137620D01*
X39471428Y34185239D01*
X39566666Y34280477D01*
X39614285Y34375715D01*
X39661904Y34566191D01*
X39661904Y34709048D01*
X39614285Y34899524D01*
X39566666Y34994762D01*
X39471428Y35090000D01*
X39328571Y35137620D01*
X39233333Y35137620D01*
X39090476Y35090000D01*
X39042857Y35042381D01*
X38471428Y34709048D02*
X38566666Y34756667D01*
X38614285Y34804286D01*
X38661904Y34899524D01*
X38661904Y34947143D01*
X38614285Y35042381D01*
X38566666Y35090000D01*
X38471428Y35137620D01*
X38280952Y35137620D01*
X38185714Y35090000D01*
X38138095Y35042381D01*
X38090476Y34947143D01*
X38090476Y34899524D01*
X38138095Y34804286D01*
X38185714Y34756667D01*
X38280952Y34709048D01*
X38471428Y34709048D01*
X38566666Y34661429D01*
X38614285Y34613810D01*
X38661904Y34518572D01*
X38661904Y34328096D01*
X38614285Y34232858D01*
X38566666Y34185239D01*
X38471428Y34137620D01*
X38280952Y34137620D01*
X38185714Y34185239D01*
X38138095Y34232858D01*
X38090476Y34328096D01*
X38090476Y34518572D01*
X38138095Y34613810D01*
X38185714Y34661429D01*
X38280952Y34709048D01*
X37233333Y34804286D02*
X37233333Y34137620D01*
X37471428Y35185239D02*
X37709523Y34470953D01*
X37090476Y34470953D01*
X41157142Y32032858D02*
X41204761Y32080477D01*
X41252380Y32223334D01*
X41252380Y32318572D01*
X41204761Y32461429D01*
X41109523Y32556667D01*
X41014285Y32604286D01*
X40823809Y32651905D01*
X40680952Y32651905D01*
X40490476Y32604286D01*
X40395238Y32556667D01*
X40300000Y32461429D01*
X40252380Y32318572D01*
X40252380Y32223334D01*
X40300000Y32080477D01*
X40347619Y32032858D01*
X40680952Y31461429D02*
X40633333Y31556667D01*
X40585714Y31604286D01*
X40490476Y31651905D01*
X40442857Y31651905D01*
X40347619Y31604286D01*
X40300000Y31556667D01*
X40252380Y31461429D01*
X40252380Y31270953D01*
X40300000Y31175715D01*
X40347619Y31128096D01*
X40442857Y31080477D01*
X40490476Y31080477D01*
X40585714Y31128096D01*
X40633333Y31175715D01*
X40680952Y31270953D01*
X40680952Y31461429D01*
X40728571Y31556667D01*
X40776190Y31604286D01*
X40871428Y31651905D01*
X41061904Y31651905D01*
X41157142Y31604286D01*
X41204761Y31556667D01*
X41252380Y31461429D01*
X41252380Y31270953D01*
X41204761Y31175715D01*
X41157142Y31128096D01*
X41061904Y31080477D01*
X40871428Y31080477D01*
X40776190Y31128096D01*
X40728571Y31175715D01*
X40680952Y31270953D01*
X40252380Y30747143D02*
X40252380Y30128096D01*
X40633333Y30461429D01*
X40633333Y30318572D01*
X40680952Y30223334D01*
X40728571Y30175715D01*
X40823809Y30128096D01*
X41061904Y30128096D01*
X41157142Y30175715D01*
X41204761Y30223334D01*
X41252380Y30318572D01*
X41252380Y30604286D01*
X41204761Y30699524D01*
X41157142Y30747143D01*
X34157142Y37632858D02*
X34204761Y37680477D01*
X34252380Y37823334D01*
X34252380Y37918572D01*
X34204761Y38061429D01*
X34109523Y38156667D01*
X34014285Y38204286D01*
X33823809Y38251905D01*
X33680952Y38251905D01*
X33490476Y38204286D01*
X33395238Y38156667D01*
X33300000Y38061429D01*
X33252380Y37918572D01*
X33252380Y37823334D01*
X33300000Y37680477D01*
X33347619Y37632858D01*
X33680952Y37061429D02*
X33633333Y37156667D01*
X33585714Y37204286D01*
X33490476Y37251905D01*
X33442857Y37251905D01*
X33347619Y37204286D01*
X33300000Y37156667D01*
X33252380Y37061429D01*
X33252380Y36870953D01*
X33300000Y36775715D01*
X33347619Y36728096D01*
X33442857Y36680477D01*
X33490476Y36680477D01*
X33585714Y36728096D01*
X33633333Y36775715D01*
X33680952Y36870953D01*
X33680952Y37061429D01*
X33728571Y37156667D01*
X33776190Y37204286D01*
X33871428Y37251905D01*
X34061904Y37251905D01*
X34157142Y37204286D01*
X34204761Y37156667D01*
X34252380Y37061429D01*
X34252380Y36870953D01*
X34204761Y36775715D01*
X34157142Y36728096D01*
X34061904Y36680477D01*
X33871428Y36680477D01*
X33776190Y36728096D01*
X33728571Y36775715D01*
X33680952Y36870953D01*
X33347619Y36299524D02*
X33300000Y36251905D01*
X33252380Y36156667D01*
X33252380Y35918572D01*
X33300000Y35823334D01*
X33347619Y35775715D01*
X33442857Y35728096D01*
X33538095Y35728096D01*
X33680952Y35775715D01*
X34252380Y36347143D01*
X34252380Y35728096D01*
X39242857Y29832858D02*
X39290476Y29785239D01*
X39433333Y29737620D01*
X39528571Y29737620D01*
X39671428Y29785239D01*
X39766666Y29880477D01*
X39814285Y29975715D01*
X39861904Y30166191D01*
X39861904Y30309048D01*
X39814285Y30499524D01*
X39766666Y30594762D01*
X39671428Y30690000D01*
X39528571Y30737620D01*
X39433333Y30737620D01*
X39290476Y30690000D01*
X39242857Y30642381D01*
X38671428Y30309048D02*
X38766666Y30356667D01*
X38814285Y30404286D01*
X38861904Y30499524D01*
X38861904Y30547143D01*
X38814285Y30642381D01*
X38766666Y30690000D01*
X38671428Y30737620D01*
X38480952Y30737620D01*
X38385714Y30690000D01*
X38338095Y30642381D01*
X38290476Y30547143D01*
X38290476Y30499524D01*
X38338095Y30404286D01*
X38385714Y30356667D01*
X38480952Y30309048D01*
X38671428Y30309048D01*
X38766666Y30261429D01*
X38814285Y30213810D01*
X38861904Y30118572D01*
X38861904Y29928096D01*
X38814285Y29832858D01*
X38766666Y29785239D01*
X38671428Y29737620D01*
X38480952Y29737620D01*
X38385714Y29785239D01*
X38338095Y29832858D01*
X38290476Y29928096D01*
X38290476Y30118572D01*
X38338095Y30213810D01*
X38385714Y30261429D01*
X38480952Y30309048D01*
X37338095Y29737620D02*
X37909523Y29737620D01*
X37623809Y29737620D02*
X37623809Y30737620D01*
X37719047Y30594762D01*
X37814285Y30499524D01*
X37909523Y30451905D01*
X37042857Y31432858D02*
X37090476Y31385239D01*
X37233333Y31337620D01*
X37328571Y31337620D01*
X37471428Y31385239D01*
X37566666Y31480477D01*
X37614285Y31575715D01*
X37661904Y31766191D01*
X37661904Y31909048D01*
X37614285Y32099524D01*
X37566666Y32194762D01*
X37471428Y32290000D01*
X37328571Y32337620D01*
X37233333Y32337620D01*
X37090476Y32290000D01*
X37042857Y32242381D01*
X36471428Y31909048D02*
X36566666Y31956667D01*
X36614285Y32004286D01*
X36661904Y32099524D01*
X36661904Y32147143D01*
X36614285Y32242381D01*
X36566666Y32290000D01*
X36471428Y32337620D01*
X36280952Y32337620D01*
X36185714Y32290000D01*
X36138095Y32242381D01*
X36090476Y32147143D01*
X36090476Y32099524D01*
X36138095Y32004286D01*
X36185714Y31956667D01*
X36280952Y31909048D01*
X36471428Y31909048D01*
X36566666Y31861429D01*
X36614285Y31813810D01*
X36661904Y31718572D01*
X36661904Y31528096D01*
X36614285Y31432858D01*
X36566666Y31385239D01*
X36471428Y31337620D01*
X36280952Y31337620D01*
X36185714Y31385239D01*
X36138095Y31432858D01*
X36090476Y31528096D01*
X36090476Y31718572D01*
X36138095Y31813810D01*
X36185714Y31861429D01*
X36280952Y31909048D01*
X35471428Y32337620D02*
X35376190Y32337620D01*
X35280952Y32290000D01*
X35233333Y32242381D01*
X35185714Y32147143D01*
X35138095Y31956667D01*
X35138095Y31718572D01*
X35185714Y31528096D01*
X35233333Y31432858D01*
X35280952Y31385239D01*
X35376190Y31337620D01*
X35471428Y31337620D01*
X35566666Y31385239D01*
X35614285Y31432858D01*
X35661904Y31528096D01*
X35709523Y31718572D01*
X35709523Y31956667D01*
X35661904Y32147143D01*
X35614285Y32242381D01*
X35566666Y32290000D01*
X35471428Y32337620D01*
X33842857Y32032858D02*
X33890476Y31985239D01*
X34033333Y31937620D01*
X34128571Y31937620D01*
X34271428Y31985239D01*
X34366666Y32080477D01*
X34414285Y32175715D01*
X34461904Y32366191D01*
X34461904Y32509048D01*
X34414285Y32699524D01*
X34366666Y32794762D01*
X34271428Y32890000D01*
X34128571Y32937620D01*
X34033333Y32937620D01*
X33890476Y32890000D01*
X33842857Y32842381D01*
X33509523Y32937620D02*
X32842857Y32937620D01*
X33271428Y31937620D01*
X32414285Y31937620D02*
X32223809Y31937620D01*
X32128571Y31985239D01*
X32080952Y32032858D01*
X31985714Y32175715D01*
X31938095Y32366191D01*
X31938095Y32747143D01*
X31985714Y32842381D01*
X32033333Y32890000D01*
X32128571Y32937620D01*
X32319047Y32937620D01*
X32414285Y32890000D01*
X32461904Y32842381D01*
X32509523Y32747143D01*
X32509523Y32509048D01*
X32461904Y32413810D01*
X32414285Y32366191D01*
X32319047Y32318572D01*
X32128571Y32318572D01*
X32033333Y32366191D01*
X31985714Y32413810D01*
X31938095Y32509048D01*
X27642857Y21862858D02*
X27690476Y21815239D01*
X27833333Y21767620D01*
X27928571Y21767620D01*
X28071428Y21815239D01*
X28166666Y21910477D01*
X28214285Y22005715D01*
X28261904Y22196191D01*
X28261904Y22339048D01*
X28214285Y22529524D01*
X28166666Y22624762D01*
X28071428Y22720000D01*
X27928571Y22767620D01*
X27833333Y22767620D01*
X27690476Y22720000D01*
X27642857Y22672381D01*
X27309523Y22767620D02*
X26642857Y22767620D01*
X27071428Y21767620D01*
X26357142Y22767620D02*
X25690476Y22767620D01*
X26119047Y21767620D01*
X29527142Y30032858D02*
X29574761Y30080477D01*
X29622380Y30223334D01*
X29622380Y30318572D01*
X29574761Y30461429D01*
X29479523Y30556667D01*
X29384285Y30604286D01*
X29193809Y30651905D01*
X29050952Y30651905D01*
X28860476Y30604286D01*
X28765238Y30556667D01*
X28670000Y30461429D01*
X28622380Y30318572D01*
X28622380Y30223334D01*
X28670000Y30080477D01*
X28717619Y30032858D01*
X28622380Y29699524D02*
X28622380Y29032858D01*
X29622380Y29461429D01*
X28622380Y28223334D02*
X28622380Y28413810D01*
X28670000Y28509048D01*
X28717619Y28556667D01*
X28860476Y28651905D01*
X29050952Y28699524D01*
X29431904Y28699524D01*
X29527142Y28651905D01*
X29574761Y28604286D01*
X29622380Y28509048D01*
X29622380Y28318572D01*
X29574761Y28223334D01*
X29527142Y28175715D01*
X29431904Y28128096D01*
X29193809Y28128096D01*
X29098571Y28175715D01*
X29050952Y28223334D01*
X29003333Y28318572D01*
X29003333Y28509048D01*
X29050952Y28604286D01*
X29098571Y28651905D01*
X29193809Y28699524D01*
X28357142Y18632858D02*
X28404761Y18680477D01*
X28452380Y18823334D01*
X28452380Y18918572D01*
X28404761Y19061429D01*
X28309523Y19156667D01*
X28214285Y19204286D01*
X28023809Y19251905D01*
X27880952Y19251905D01*
X27690476Y19204286D01*
X27595238Y19156667D01*
X27500000Y19061429D01*
X27452380Y18918572D01*
X27452380Y18823334D01*
X27500000Y18680477D01*
X27547619Y18632858D01*
X27452380Y18299524D02*
X27452380Y17632858D01*
X28452380Y18061429D01*
X27452380Y16775715D02*
X27452380Y17251905D01*
X27928571Y17299524D01*
X27880952Y17251905D01*
X27833333Y17156667D01*
X27833333Y16918572D01*
X27880952Y16823334D01*
X27928571Y16775715D01*
X28023809Y16728096D01*
X28261904Y16728096D01*
X28357142Y16775715D01*
X28404761Y16823334D01*
X28452380Y16918572D01*
X28452380Y17156667D01*
X28404761Y17251905D01*
X28357142Y17299524D01*
X32357142Y27632858D02*
X32404761Y27680477D01*
X32452380Y27823334D01*
X32452380Y27918572D01*
X32404761Y28061429D01*
X32309523Y28156667D01*
X32214285Y28204286D01*
X32023809Y28251905D01*
X31880952Y28251905D01*
X31690476Y28204286D01*
X31595238Y28156667D01*
X31500000Y28061429D01*
X31452380Y27918572D01*
X31452380Y27823334D01*
X31500000Y27680477D01*
X31547619Y27632858D01*
X31452380Y27299524D02*
X31452380Y26632858D01*
X32452380Y27061429D01*
X31785714Y25823334D02*
X32452380Y25823334D01*
X31404761Y26061429D02*
X32119047Y26299524D01*
X32119047Y25680477D01*
X25542857Y23502858D02*
X25590476Y23455239D01*
X25733333Y23407620D01*
X25828571Y23407620D01*
X25971428Y23455239D01*
X26066666Y23550477D01*
X26114285Y23645715D01*
X26161904Y23836191D01*
X26161904Y23979048D01*
X26114285Y24169524D01*
X26066666Y24264762D01*
X25971428Y24360000D01*
X25828571Y24407620D01*
X25733333Y24407620D01*
X25590476Y24360000D01*
X25542857Y24312381D01*
X25209523Y24407620D02*
X24542857Y24407620D01*
X24971428Y23407620D01*
X24257142Y24407620D02*
X23638095Y24407620D01*
X23971428Y24026667D01*
X23828571Y24026667D01*
X23733333Y23979048D01*
X23685714Y23931429D01*
X23638095Y23836191D01*
X23638095Y23598096D01*
X23685714Y23502858D01*
X23733333Y23455239D01*
X23828571Y23407620D01*
X24114285Y23407620D01*
X24209523Y23455239D01*
X24257142Y23502858D01*
X29642857Y20862858D02*
X29690476Y20815239D01*
X29833333Y20767620D01*
X29928571Y20767620D01*
X30071428Y20815239D01*
X30166666Y20910477D01*
X30214285Y21005715D01*
X30261904Y21196191D01*
X30261904Y21339048D01*
X30214285Y21529524D01*
X30166666Y21624762D01*
X30071428Y21720000D01*
X29928571Y21767620D01*
X29833333Y21767620D01*
X29690476Y21720000D01*
X29642857Y21672381D01*
X29309523Y21767620D02*
X28642857Y21767620D01*
X29071428Y20767620D01*
X28309523Y21672381D02*
X28261904Y21720000D01*
X28166666Y21767620D01*
X27928571Y21767620D01*
X27833333Y21720000D01*
X27785714Y21672381D01*
X27738095Y21577143D01*
X27738095Y21481905D01*
X27785714Y21339048D01*
X28357142Y20767620D01*
X27738095Y20767620D01*
X28242857Y23832858D02*
X28290476Y23785239D01*
X28433333Y23737620D01*
X28528571Y23737620D01*
X28671428Y23785239D01*
X28766666Y23880477D01*
X28814285Y23975715D01*
X28861904Y24166191D01*
X28861904Y24309048D01*
X28814285Y24499524D01*
X28766666Y24594762D01*
X28671428Y24690000D01*
X28528571Y24737620D01*
X28433333Y24737620D01*
X28290476Y24690000D01*
X28242857Y24642381D01*
X27909523Y24737620D02*
X27242857Y24737620D01*
X27671428Y23737620D01*
X26338095Y23737620D02*
X26909523Y23737620D01*
X26623809Y23737620D02*
X26623809Y24737620D01*
X26719047Y24594762D01*
X26814285Y24499524D01*
X26909523Y24451905D01*
X31742857Y29762858D02*
X31790476Y29715239D01*
X31933333Y29667620D01*
X32028571Y29667620D01*
X32171428Y29715239D01*
X32266666Y29810477D01*
X32314285Y29905715D01*
X32361904Y30096191D01*
X32361904Y30239048D01*
X32314285Y30429524D01*
X32266666Y30524762D01*
X32171428Y30620000D01*
X32028571Y30667620D01*
X31933333Y30667620D01*
X31790476Y30620000D01*
X31742857Y30572381D01*
X31409523Y30667620D02*
X30742857Y30667620D01*
X31171428Y29667620D01*
X30171428Y30667620D02*
X30076190Y30667620D01*
X29980952Y30620000D01*
X29933333Y30572381D01*
X29885714Y30477143D01*
X29838095Y30286667D01*
X29838095Y30048572D01*
X29885714Y29858096D01*
X29933333Y29762858D01*
X29980952Y29715239D01*
X30076190Y29667620D01*
X30171428Y29667620D01*
X30266666Y29715239D01*
X30314285Y29762858D01*
X30361904Y29858096D01*
X30409523Y30048572D01*
X30409523Y30286667D01*
X30361904Y30477143D01*
X30314285Y30572381D01*
X30266666Y30620000D01*
X30171428Y30667620D01*
X30142857Y26202858D02*
X30190476Y26155239D01*
X30333333Y26107620D01*
X30428571Y26107620D01*
X30571428Y26155239D01*
X30666666Y26250477D01*
X30714285Y26345715D01*
X30761904Y26536191D01*
X30761904Y26679048D01*
X30714285Y26869524D01*
X30666666Y26964762D01*
X30571428Y27060000D01*
X30428571Y27107620D01*
X30333333Y27107620D01*
X30190476Y27060000D01*
X30142857Y27012381D01*
X29285714Y27107620D02*
X29476190Y27107620D01*
X29571428Y27060000D01*
X29619047Y27012381D01*
X29714285Y26869524D01*
X29761904Y26679048D01*
X29761904Y26298096D01*
X29714285Y26202858D01*
X29666666Y26155239D01*
X29571428Y26107620D01*
X29380952Y26107620D01*
X29285714Y26155239D01*
X29238095Y26202858D01*
X29190476Y26298096D01*
X29190476Y26536191D01*
X29238095Y26631429D01*
X29285714Y26679048D01*
X29380952Y26726667D01*
X29571428Y26726667D01*
X29666666Y26679048D01*
X29714285Y26631429D01*
X29761904Y26536191D01*
X28714285Y26107620D02*
X28523809Y26107620D01*
X28428571Y26155239D01*
X28380952Y26202858D01*
X28285714Y26345715D01*
X28238095Y26536191D01*
X28238095Y26917143D01*
X28285714Y27012381D01*
X28333333Y27060000D01*
X28428571Y27107620D01*
X28619047Y27107620D01*
X28714285Y27060000D01*
X28761904Y27012381D01*
X28809523Y26917143D01*
X28809523Y26679048D01*
X28761904Y26583810D01*
X28714285Y26536191D01*
X28619047Y26488572D01*
X28428571Y26488572D01*
X28333333Y26536191D01*
X28285714Y26583810D01*
X28238095Y26679048D01*
X33187142Y21032858D02*
X33234761Y21080477D01*
X33282380Y21223334D01*
X33282380Y21318572D01*
X33234761Y21461429D01*
X33139523Y21556667D01*
X33044285Y21604286D01*
X32853809Y21651905D01*
X32710952Y21651905D01*
X32520476Y21604286D01*
X32425238Y21556667D01*
X32330000Y21461429D01*
X32282380Y21318572D01*
X32282380Y21223334D01*
X32330000Y21080477D01*
X32377619Y21032858D01*
X32282380Y20175715D02*
X32282380Y20366191D01*
X32330000Y20461429D01*
X32377619Y20509048D01*
X32520476Y20604286D01*
X32710952Y20651905D01*
X33091904Y20651905D01*
X33187142Y20604286D01*
X33234761Y20556667D01*
X33282380Y20461429D01*
X33282380Y20270953D01*
X33234761Y20175715D01*
X33187142Y20128096D01*
X33091904Y20080477D01*
X32853809Y20080477D01*
X32758571Y20128096D01*
X32710952Y20175715D01*
X32663333Y20270953D01*
X32663333Y20461429D01*
X32710952Y20556667D01*
X32758571Y20604286D01*
X32853809Y20651905D01*
X32282380Y19223334D02*
X32282380Y19413810D01*
X32330000Y19509048D01*
X32377619Y19556667D01*
X32520476Y19651905D01*
X32710952Y19699524D01*
X33091904Y19699524D01*
X33187142Y19651905D01*
X33234761Y19604286D01*
X33282380Y19509048D01*
X33282380Y19318572D01*
X33234761Y19223334D01*
X33187142Y19175715D01*
X33091904Y19128096D01*
X32853809Y19128096D01*
X32758571Y19175715D01*
X32710952Y19223334D01*
X32663333Y19318572D01*
X32663333Y19509048D01*
X32710952Y19604286D01*
X32758571Y19651905D01*
X32853809Y19699524D01*
X40857142Y20832858D02*
X40904761Y20880477D01*
X40952380Y21023334D01*
X40952380Y21118572D01*
X40904761Y21261429D01*
X40809523Y21356667D01*
X40714285Y21404286D01*
X40523809Y21451905D01*
X40380952Y21451905D01*
X40190476Y21404286D01*
X40095238Y21356667D01*
X40000000Y21261429D01*
X39952380Y21118572D01*
X39952380Y21023334D01*
X40000000Y20880477D01*
X40047619Y20832858D01*
X39952380Y19975715D02*
X39952380Y20166191D01*
X40000000Y20261429D01*
X40047619Y20309048D01*
X40190476Y20404286D01*
X40380952Y20451905D01*
X40761904Y20451905D01*
X40857142Y20404286D01*
X40904761Y20356667D01*
X40952380Y20261429D01*
X40952380Y20070953D01*
X40904761Y19975715D01*
X40857142Y19928096D01*
X40761904Y19880477D01*
X40523809Y19880477D01*
X40428571Y19928096D01*
X40380952Y19975715D01*
X40333333Y20070953D01*
X40333333Y20261429D01*
X40380952Y20356667D01*
X40428571Y20404286D01*
X40523809Y20451905D01*
X39952380Y18975715D02*
X39952380Y19451905D01*
X40428571Y19499524D01*
X40380952Y19451905D01*
X40333333Y19356667D01*
X40333333Y19118572D01*
X40380952Y19023334D01*
X40428571Y18975715D01*
X40523809Y18928096D01*
X40761904Y18928096D01*
X40857142Y18975715D01*
X40904761Y19023334D01*
X40952380Y19118572D01*
X40952380Y19356667D01*
X40904761Y19451905D01*
X40857142Y19499524D01*
X39742857Y15862858D02*
X39790476Y15815239D01*
X39933333Y15767620D01*
X40028571Y15767620D01*
X40171428Y15815239D01*
X40266666Y15910477D01*
X40314285Y16005715D01*
X40361904Y16196191D01*
X40361904Y16339048D01*
X40314285Y16529524D01*
X40266666Y16624762D01*
X40171428Y16720000D01*
X40028571Y16767620D01*
X39933333Y16767620D01*
X39790476Y16720000D01*
X39742857Y16672381D01*
X38885714Y16767620D02*
X39076190Y16767620D01*
X39171428Y16720000D01*
X39219047Y16672381D01*
X39314285Y16529524D01*
X39361904Y16339048D01*
X39361904Y15958096D01*
X39314285Y15862858D01*
X39266666Y15815239D01*
X39171428Y15767620D01*
X38980952Y15767620D01*
X38885714Y15815239D01*
X38838095Y15862858D01*
X38790476Y15958096D01*
X38790476Y16196191D01*
X38838095Y16291429D01*
X38885714Y16339048D01*
X38980952Y16386667D01*
X39171428Y16386667D01*
X39266666Y16339048D01*
X39314285Y16291429D01*
X39361904Y16196191D01*
X37933333Y16434286D02*
X37933333Y15767620D01*
X38171428Y16815239D02*
X38409523Y16100953D01*
X37790476Y16100953D01*
X34657142Y24632858D02*
X34704761Y24680477D01*
X34752380Y24823334D01*
X34752380Y24918572D01*
X34704761Y25061429D01*
X34609523Y25156667D01*
X34514285Y25204286D01*
X34323809Y25251905D01*
X34180952Y25251905D01*
X33990476Y25204286D01*
X33895238Y25156667D01*
X33800000Y25061429D01*
X33752380Y24918572D01*
X33752380Y24823334D01*
X33800000Y24680477D01*
X33847619Y24632858D01*
X33752380Y23775715D02*
X33752380Y23966191D01*
X33800000Y24061429D01*
X33847619Y24109048D01*
X33990476Y24204286D01*
X34180952Y24251905D01*
X34561904Y24251905D01*
X34657142Y24204286D01*
X34704761Y24156667D01*
X34752380Y24061429D01*
X34752380Y23870953D01*
X34704761Y23775715D01*
X34657142Y23728096D01*
X34561904Y23680477D01*
X34323809Y23680477D01*
X34228571Y23728096D01*
X34180952Y23775715D01*
X34133333Y23870953D01*
X34133333Y24061429D01*
X34180952Y24156667D01*
X34228571Y24204286D01*
X34323809Y24251905D01*
X33752380Y23347143D02*
X33752380Y22728096D01*
X34133333Y23061429D01*
X34133333Y22918572D01*
X34180952Y22823334D01*
X34228571Y22775715D01*
X34323809Y22728096D01*
X34561904Y22728096D01*
X34657142Y22775715D01*
X34704761Y22823334D01*
X34752380Y22918572D01*
X34752380Y23204286D01*
X34704761Y23299524D01*
X34657142Y23347143D01*
X39457142Y20932858D02*
X39504761Y20980477D01*
X39552380Y21123334D01*
X39552380Y21218572D01*
X39504761Y21361429D01*
X39409523Y21456667D01*
X39314285Y21504286D01*
X39123809Y21551905D01*
X38980952Y21551905D01*
X38790476Y21504286D01*
X38695238Y21456667D01*
X38600000Y21361429D01*
X38552380Y21218572D01*
X38552380Y21123334D01*
X38600000Y20980477D01*
X38647619Y20932858D01*
X38552380Y20075715D02*
X38552380Y20266191D01*
X38600000Y20361429D01*
X38647619Y20409048D01*
X38790476Y20504286D01*
X38980952Y20551905D01*
X39361904Y20551905D01*
X39457142Y20504286D01*
X39504761Y20456667D01*
X39552380Y20361429D01*
X39552380Y20170953D01*
X39504761Y20075715D01*
X39457142Y20028096D01*
X39361904Y19980477D01*
X39123809Y19980477D01*
X39028571Y20028096D01*
X38980952Y20075715D01*
X38933333Y20170953D01*
X38933333Y20361429D01*
X38980952Y20456667D01*
X39028571Y20504286D01*
X39123809Y20551905D01*
X38647619Y19599524D02*
X38600000Y19551905D01*
X38552380Y19456667D01*
X38552380Y19218572D01*
X38600000Y19123334D01*
X38647619Y19075715D01*
X38742857Y19028096D01*
X38838095Y19028096D01*
X38980952Y19075715D01*
X39552380Y19647143D01*
X39552380Y19028096D01*
X35587142Y22532858D02*
X35634761Y22580477D01*
X35682380Y22723334D01*
X35682380Y22818572D01*
X35634761Y22961429D01*
X35539523Y23056667D01*
X35444285Y23104286D01*
X35253809Y23151905D01*
X35110952Y23151905D01*
X34920476Y23104286D01*
X34825238Y23056667D01*
X34730000Y22961429D01*
X34682380Y22818572D01*
X34682380Y22723334D01*
X34730000Y22580477D01*
X34777619Y22532858D01*
X34682380Y21675715D02*
X34682380Y21866191D01*
X34730000Y21961429D01*
X34777619Y22009048D01*
X34920476Y22104286D01*
X35110952Y22151905D01*
X35491904Y22151905D01*
X35587142Y22104286D01*
X35634761Y22056667D01*
X35682380Y21961429D01*
X35682380Y21770953D01*
X35634761Y21675715D01*
X35587142Y21628096D01*
X35491904Y21580477D01*
X35253809Y21580477D01*
X35158571Y21628096D01*
X35110952Y21675715D01*
X35063333Y21770953D01*
X35063333Y21961429D01*
X35110952Y22056667D01*
X35158571Y22104286D01*
X35253809Y22151905D01*
X35682380Y20628096D02*
X35682380Y21199524D01*
X35682380Y20913810D02*
X34682380Y20913810D01*
X34825238Y21009048D01*
X34920476Y21104286D01*
X34968095Y21199524D01*
X27042857Y29632858D02*
X27090476Y29585239D01*
X27233333Y29537620D01*
X27328571Y29537620D01*
X27471428Y29585239D01*
X27566666Y29680477D01*
X27614285Y29775715D01*
X27661904Y29966191D01*
X27661904Y30109048D01*
X27614285Y30299524D01*
X27566666Y30394762D01*
X27471428Y30490000D01*
X27328571Y30537620D01*
X27233333Y30537620D01*
X27090476Y30490000D01*
X27042857Y30442381D01*
X26138095Y30537620D02*
X26614285Y30537620D01*
X26661904Y30061429D01*
X26614285Y30109048D01*
X26519047Y30156667D01*
X26280952Y30156667D01*
X26185714Y30109048D01*
X26138095Y30061429D01*
X26090476Y29966191D01*
X26090476Y29728096D01*
X26138095Y29632858D01*
X26185714Y29585239D01*
X26280952Y29537620D01*
X26519047Y29537620D01*
X26614285Y29585239D01*
X26661904Y29632858D01*
X25614285Y29537620D02*
X25423809Y29537620D01*
X25328571Y29585239D01*
X25280952Y29632858D01*
X25185714Y29775715D01*
X25138095Y29966191D01*
X25138095Y30347143D01*
X25185714Y30442381D01*
X25233333Y30490000D01*
X25328571Y30537620D01*
X25519047Y30537620D01*
X25614285Y30490000D01*
X25661904Y30442381D01*
X25709523Y30347143D01*
X25709523Y30109048D01*
X25661904Y30013810D01*
X25614285Y29966191D01*
X25519047Y29918572D01*
X25328571Y29918572D01*
X25233333Y29966191D01*
X25185714Y30013810D01*
X25138095Y30109048D01*
X25357142Y29432858D02*
X25404761Y29480477D01*
X25452380Y29623334D01*
X25452380Y29718572D01*
X25404761Y29861429D01*
X25309523Y29956667D01*
X25214285Y30004286D01*
X25023809Y30051905D01*
X24880952Y30051905D01*
X24690476Y30004286D01*
X24595238Y29956667D01*
X24500000Y29861429D01*
X24452380Y29718572D01*
X24452380Y29623334D01*
X24500000Y29480477D01*
X24547619Y29432858D01*
X24452380Y28528096D02*
X24452380Y29004286D01*
X24928571Y29051905D01*
X24880952Y29004286D01*
X24833333Y28909048D01*
X24833333Y28670953D01*
X24880952Y28575715D01*
X24928571Y28528096D01*
X25023809Y28480477D01*
X25261904Y28480477D01*
X25357142Y28528096D01*
X25404761Y28575715D01*
X25452380Y28670953D01*
X25452380Y28909048D01*
X25404761Y29004286D01*
X25357142Y29051905D01*
X24880952Y27909048D02*
X24833333Y28004286D01*
X24785714Y28051905D01*
X24690476Y28099524D01*
X24642857Y28099524D01*
X24547619Y28051905D01*
X24500000Y28004286D01*
X24452380Y27909048D01*
X24452380Y27718572D01*
X24500000Y27623334D01*
X24547619Y27575715D01*
X24642857Y27528096D01*
X24690476Y27528096D01*
X24785714Y27575715D01*
X24833333Y27623334D01*
X24880952Y27718572D01*
X24880952Y27909048D01*
X24928571Y28004286D01*
X24976190Y28051905D01*
X25071428Y28099524D01*
X25261904Y28099524D01*
X25357142Y28051905D01*
X25404761Y28004286D01*
X25452380Y27909048D01*
X25452380Y27718572D01*
X25404761Y27623334D01*
X25357142Y27575715D01*
X25261904Y27528096D01*
X25071428Y27528096D01*
X24976190Y27575715D01*
X24928571Y27623334D01*
X24880952Y27718572D01*
X28642857Y27202858D02*
X28690476Y27155239D01*
X28833333Y27107620D01*
X28928571Y27107620D01*
X29071428Y27155239D01*
X29166666Y27250477D01*
X29214285Y27345715D01*
X29261904Y27536191D01*
X29261904Y27679048D01*
X29214285Y27869524D01*
X29166666Y27964762D01*
X29071428Y28060000D01*
X28928571Y28107620D01*
X28833333Y28107620D01*
X28690476Y28060000D01*
X28642857Y28012381D01*
X27738095Y28107620D02*
X28214285Y28107620D01*
X28261904Y27631429D01*
X28214285Y27679048D01*
X28119047Y27726667D01*
X27880952Y27726667D01*
X27785714Y27679048D01*
X27738095Y27631429D01*
X27690476Y27536191D01*
X27690476Y27298096D01*
X27738095Y27202858D01*
X27785714Y27155239D01*
X27880952Y27107620D01*
X28119047Y27107620D01*
X28214285Y27155239D01*
X28261904Y27202858D01*
X26833333Y28107620D02*
X27023809Y28107620D01*
X27119047Y28060000D01*
X27166666Y28012381D01*
X27261904Y27869524D01*
X27309523Y27679048D01*
X27309523Y27298096D01*
X27261904Y27202858D01*
X27214285Y27155239D01*
X27119047Y27107620D01*
X26928571Y27107620D01*
X26833333Y27155239D01*
X26785714Y27202858D01*
X26738095Y27298096D01*
X26738095Y27536191D01*
X26785714Y27631429D01*
X26833333Y27679048D01*
X26928571Y27726667D01*
X27119047Y27726667D01*
X27214285Y27679048D01*
X27261904Y27631429D01*
X27309523Y27536191D01*
X27942857Y31632858D02*
X27990476Y31585239D01*
X28133333Y31537620D01*
X28228571Y31537620D01*
X28371428Y31585239D01*
X28466666Y31680477D01*
X28514285Y31775715D01*
X28561904Y31966191D01*
X28561904Y32109048D01*
X28514285Y32299524D01*
X28466666Y32394762D01*
X28371428Y32490000D01*
X28228571Y32537620D01*
X28133333Y32537620D01*
X27990476Y32490000D01*
X27942857Y32442381D01*
X27038095Y32537620D02*
X27514285Y32537620D01*
X27561904Y32061429D01*
X27514285Y32109048D01*
X27419047Y32156667D01*
X27180952Y32156667D01*
X27085714Y32109048D01*
X27038095Y32061429D01*
X26990476Y31966191D01*
X26990476Y31728096D01*
X27038095Y31632858D01*
X27085714Y31585239D01*
X27180952Y31537620D01*
X27419047Y31537620D01*
X27514285Y31585239D01*
X27561904Y31632858D01*
X26085714Y32537620D02*
X26561904Y32537620D01*
X26609523Y32061429D01*
X26561904Y32109048D01*
X26466666Y32156667D01*
X26228571Y32156667D01*
X26133333Y32109048D01*
X26085714Y32061429D01*
X26038095Y31966191D01*
X26038095Y31728096D01*
X26085714Y31632858D01*
X26133333Y31585239D01*
X26228571Y31537620D01*
X26466666Y31537620D01*
X26561904Y31585239D01*
X26609523Y31632858D01*
X29422857Y30622858D02*
X29470476Y30575239D01*
X29613333Y30527620D01*
X29708571Y30527620D01*
X29851428Y30575239D01*
X29946666Y30670477D01*
X29994285Y30765715D01*
X30041904Y30956191D01*
X30041904Y31099048D01*
X29994285Y31289524D01*
X29946666Y31384762D01*
X29851428Y31480000D01*
X29708571Y31527620D01*
X29613333Y31527620D01*
X29470476Y31480000D01*
X29422857Y31432381D01*
X28518095Y31527620D02*
X28994285Y31527620D01*
X29041904Y31051429D01*
X28994285Y31099048D01*
X28899047Y31146667D01*
X28660952Y31146667D01*
X28565714Y31099048D01*
X28518095Y31051429D01*
X28470476Y30956191D01*
X28470476Y30718096D01*
X28518095Y30622858D01*
X28565714Y30575239D01*
X28660952Y30527620D01*
X28899047Y30527620D01*
X28994285Y30575239D01*
X29041904Y30622858D01*
X27613333Y31194286D02*
X27613333Y30527620D01*
X27851428Y31575239D02*
X28089523Y30860953D01*
X27470476Y30860953D01*
X24242857Y32232858D02*
X24290476Y32185239D01*
X24433333Y32137620D01*
X24528571Y32137620D01*
X24671428Y32185239D01*
X24766666Y32280477D01*
X24814285Y32375715D01*
X24861904Y32566191D01*
X24861904Y32709048D01*
X24814285Y32899524D01*
X24766666Y32994762D01*
X24671428Y33090000D01*
X24528571Y33137620D01*
X24433333Y33137620D01*
X24290476Y33090000D01*
X24242857Y33042381D01*
X23338095Y33137620D02*
X23814285Y33137620D01*
X23861904Y32661429D01*
X23814285Y32709048D01*
X23719047Y32756667D01*
X23480952Y32756667D01*
X23385714Y32709048D01*
X23338095Y32661429D01*
X23290476Y32566191D01*
X23290476Y32328096D01*
X23338095Y32232858D01*
X23385714Y32185239D01*
X23480952Y32137620D01*
X23719047Y32137620D01*
X23814285Y32185239D01*
X23861904Y32232858D01*
X22957142Y33137620D02*
X22338095Y33137620D01*
X22671428Y32756667D01*
X22528571Y32756667D01*
X22433333Y32709048D01*
X22385714Y32661429D01*
X22338095Y32566191D01*
X22338095Y32328096D01*
X22385714Y32232858D01*
X22433333Y32185239D01*
X22528571Y32137620D01*
X22814285Y32137620D01*
X22909523Y32185239D01*
X22957142Y32232858D01*
X33042857Y24032858D02*
X33090476Y23985239D01*
X33233333Y23937620D01*
X33328571Y23937620D01*
X33471428Y23985239D01*
X33566666Y24080477D01*
X33614285Y24175715D01*
X33661904Y24366191D01*
X33661904Y24509048D01*
X33614285Y24699524D01*
X33566666Y24794762D01*
X33471428Y24890000D01*
X33328571Y24937620D01*
X33233333Y24937620D01*
X33090476Y24890000D01*
X33042857Y24842381D01*
X32138095Y24937620D02*
X32614285Y24937620D01*
X32661904Y24461429D01*
X32614285Y24509048D01*
X32519047Y24556667D01*
X32280952Y24556667D01*
X32185714Y24509048D01*
X32138095Y24461429D01*
X32090476Y24366191D01*
X32090476Y24128096D01*
X32138095Y24032858D01*
X32185714Y23985239D01*
X32280952Y23937620D01*
X32519047Y23937620D01*
X32614285Y23985239D01*
X32661904Y24032858D01*
X31709523Y24842381D02*
X31661904Y24890000D01*
X31566666Y24937620D01*
X31328571Y24937620D01*
X31233333Y24890000D01*
X31185714Y24842381D01*
X31138095Y24747143D01*
X31138095Y24651905D01*
X31185714Y24509048D01*
X31757142Y23937620D01*
X31138095Y23937620D01*
X31842857Y19862858D02*
X31890476Y19815239D01*
X32033333Y19767620D01*
X32128571Y19767620D01*
X32271428Y19815239D01*
X32366666Y19910477D01*
X32414285Y20005715D01*
X32461904Y20196191D01*
X32461904Y20339048D01*
X32414285Y20529524D01*
X32366666Y20624762D01*
X32271428Y20720000D01*
X32128571Y20767620D01*
X32033333Y20767620D01*
X31890476Y20720000D01*
X31842857Y20672381D01*
X30938095Y20767620D02*
X31414285Y20767620D01*
X31461904Y20291429D01*
X31414285Y20339048D01*
X31319047Y20386667D01*
X31080952Y20386667D01*
X30985714Y20339048D01*
X30938095Y20291429D01*
X30890476Y20196191D01*
X30890476Y19958096D01*
X30938095Y19862858D01*
X30985714Y19815239D01*
X31080952Y19767620D01*
X31319047Y19767620D01*
X31414285Y19815239D01*
X31461904Y19862858D01*
X29938095Y19767620D02*
X30509523Y19767620D01*
X30223809Y19767620D02*
X30223809Y20767620D01*
X30319047Y20624762D01*
X30414285Y20529524D01*
X30509523Y20481905D01*
X31842857Y21762858D02*
X31890476Y21715239D01*
X32033333Y21667620D01*
X32128571Y21667620D01*
X32271428Y21715239D01*
X32366666Y21810477D01*
X32414285Y21905715D01*
X32461904Y22096191D01*
X32461904Y22239048D01*
X32414285Y22429524D01*
X32366666Y22524762D01*
X32271428Y22620000D01*
X32128571Y22667620D01*
X32033333Y22667620D01*
X31890476Y22620000D01*
X31842857Y22572381D01*
X30938095Y22667620D02*
X31414285Y22667620D01*
X31461904Y22191429D01*
X31414285Y22239048D01*
X31319047Y22286667D01*
X31080952Y22286667D01*
X30985714Y22239048D01*
X30938095Y22191429D01*
X30890476Y22096191D01*
X30890476Y21858096D01*
X30938095Y21762858D01*
X30985714Y21715239D01*
X31080952Y21667620D01*
X31319047Y21667620D01*
X31414285Y21715239D01*
X31461904Y21762858D01*
X30271428Y22667620D02*
X30176190Y22667620D01*
X30080952Y22620000D01*
X30033333Y22572381D01*
X29985714Y22477143D01*
X29938095Y22286667D01*
X29938095Y22048572D01*
X29985714Y21858096D01*
X30033333Y21762858D01*
X30080952Y21715239D01*
X30176190Y21667620D01*
X30271428Y21667620D01*
X30366666Y21715239D01*
X30414285Y21762858D01*
X30461904Y21858096D01*
X30509523Y22048572D01*
X30509523Y22286667D01*
X30461904Y22477143D01*
X30414285Y22572381D01*
X30366666Y22620000D01*
X30271428Y22667620D01*
X30957142Y28512858D02*
X31004761Y28560477D01*
X31052380Y28703334D01*
X31052380Y28798572D01*
X31004761Y28941429D01*
X30909523Y29036667D01*
X30814285Y29084286D01*
X30623809Y29131905D01*
X30480952Y29131905D01*
X30290476Y29084286D01*
X30195238Y29036667D01*
X30100000Y28941429D01*
X30052380Y28798572D01*
X30052380Y28703334D01*
X30100000Y28560477D01*
X30147619Y28512858D01*
X30385714Y27655715D02*
X31052380Y27655715D01*
X30004761Y27893810D02*
X30719047Y28131905D01*
X30719047Y27512858D01*
X31052380Y27084286D02*
X31052380Y26893810D01*
X31004761Y26798572D01*
X30957142Y26750953D01*
X30814285Y26655715D01*
X30623809Y26608096D01*
X30242857Y26608096D01*
X30147619Y26655715D01*
X30100000Y26703334D01*
X30052380Y26798572D01*
X30052380Y26989048D01*
X30100000Y27084286D01*
X30147619Y27131905D01*
X30242857Y27179524D01*
X30480952Y27179524D01*
X30576190Y27131905D01*
X30623809Y27084286D01*
X30671428Y26989048D01*
X30671428Y26798572D01*
X30623809Y26703334D01*
X30576190Y26655715D01*
X30480952Y26608096D01*
X23757142Y27032858D02*
X23804761Y27080477D01*
X23852380Y27223334D01*
X23852380Y27318572D01*
X23804761Y27461429D01*
X23709523Y27556667D01*
X23614285Y27604286D01*
X23423809Y27651905D01*
X23280952Y27651905D01*
X23090476Y27604286D01*
X22995238Y27556667D01*
X22900000Y27461429D01*
X22852380Y27318572D01*
X22852380Y27223334D01*
X22900000Y27080477D01*
X22947619Y27032858D01*
X23185714Y26175715D02*
X23852380Y26175715D01*
X22804761Y26413810D02*
X23519047Y26651905D01*
X23519047Y26032858D01*
X22852380Y25223334D02*
X22852380Y25413810D01*
X22900000Y25509048D01*
X22947619Y25556667D01*
X23090476Y25651905D01*
X23280952Y25699524D01*
X23661904Y25699524D01*
X23757142Y25651905D01*
X23804761Y25604286D01*
X23852380Y25509048D01*
X23852380Y25318572D01*
X23804761Y25223334D01*
X23757142Y25175715D01*
X23661904Y25128096D01*
X23423809Y25128096D01*
X23328571Y25175715D01*
X23280952Y25223334D01*
X23233333Y25318572D01*
X23233333Y25509048D01*
X23280952Y25604286D01*
X23328571Y25651905D01*
X23423809Y25699524D01*
X8952380Y40651905D02*
X9761904Y40651905D01*
X9857142Y40604286D01*
X9904761Y40556667D01*
X9952380Y40461429D01*
X9952380Y40270953D01*
X9904761Y40175715D01*
X9857142Y40128096D01*
X9761904Y40080477D01*
X8952380Y40080477D01*
X9285714Y39175715D02*
X9952380Y39175715D01*
X8904761Y39413810D02*
X9619047Y39651905D01*
X9619047Y39032858D01*
X6809523Y34737620D02*
X6142857Y33737620D01*
X6142857Y34737620D02*
X6809523Y33737620D01*
X5238095Y33737620D02*
X5809523Y33737620D01*
X5523809Y33737620D02*
X5523809Y34737620D01*
X5619047Y34594762D01*
X5714285Y34499524D01*
X5809523Y34451905D01*
X25738095Y13237620D02*
X25738095Y14237620D01*
X25500000Y14237620D01*
X25357142Y14190000D01*
X25261904Y14094762D01*
X25214285Y13999524D01*
X25166666Y13809048D01*
X25166666Y13666191D01*
X25214285Y13475715D01*
X25261904Y13380477D01*
X25357142Y13285239D01*
X25500000Y13237620D01*
X25738095Y13237620D01*
X24309523Y13904286D02*
X24309523Y13237620D01*
X24547619Y14285239D02*
X24785714Y13570953D01*
X24166666Y13570953D01*
X32738095Y13137620D02*
X32738095Y14137620D01*
X32500000Y14137620D01*
X32357142Y14090000D01*
X32261904Y13994762D01*
X32214285Y13899524D01*
X32166666Y13709048D01*
X32166666Y13566191D01*
X32214285Y13375715D01*
X32261904Y13280477D01*
X32357142Y13185239D01*
X32500000Y13137620D01*
X32738095Y13137620D01*
X31833333Y14137620D02*
X31214285Y14137620D01*
X31547619Y13756667D01*
X31404761Y13756667D01*
X31309523Y13709048D01*
X31261904Y13661429D01*
X31214285Y13566191D01*
X31214285Y13328096D01*
X31261904Y13232858D01*
X31309523Y13185239D01*
X31404761Y13137620D01*
X31690476Y13137620D01*
X31785714Y13185239D01*
X31833333Y13232858D01*
X36487976Y2237620D02*
X36487976Y1523334D01*
X36535595Y1380477D01*
X36630833Y1285239D01*
X36773690Y1237620D01*
X36868928Y1237620D01*
X36107023Y2237620D02*
X35440357Y2237620D01*
X35868928Y1237620D01*
X23557142Y35832858D02*
X23604761Y35880477D01*
X23652380Y36023334D01*
X23652380Y36118572D01*
X23604761Y36261429D01*
X23509523Y36356667D01*
X23414285Y36404286D01*
X23223809Y36451905D01*
X23080952Y36451905D01*
X22890476Y36404286D01*
X22795238Y36356667D01*
X22700000Y36261429D01*
X22652380Y36118572D01*
X22652380Y36023334D01*
X22700000Y35880477D01*
X22747619Y35832858D01*
X22652380Y35499524D02*
X22652380Y34880477D01*
X23033333Y35213810D01*
X23033333Y35070953D01*
X23080952Y34975715D01*
X23128571Y34928096D01*
X23223809Y34880477D01*
X23461904Y34880477D01*
X23557142Y34928096D01*
X23604761Y34975715D01*
X23652380Y35070953D01*
X23652380Y35356667D01*
X23604761Y35451905D01*
X23557142Y35499524D01*
X22985714Y34023334D02*
X23652380Y34023334D01*
X22604761Y34261429D02*
X23319047Y34499524D01*
X23319047Y33880477D01*
X24757142Y38632858D02*
X24804761Y38680477D01*
X24852380Y38823334D01*
X24852380Y38918572D01*
X24804761Y39061429D01*
X24709523Y39156667D01*
X24614285Y39204286D01*
X24423809Y39251905D01*
X24280952Y39251905D01*
X24090476Y39204286D01*
X23995238Y39156667D01*
X23900000Y39061429D01*
X23852380Y38918572D01*
X23852380Y38823334D01*
X23900000Y38680477D01*
X23947619Y38632858D01*
X23852380Y38299524D02*
X23852380Y37680477D01*
X24233333Y38013810D01*
X24233333Y37870953D01*
X24280952Y37775715D01*
X24328571Y37728096D01*
X24423809Y37680477D01*
X24661904Y37680477D01*
X24757142Y37728096D01*
X24804761Y37775715D01*
X24852380Y37870953D01*
X24852380Y38156667D01*
X24804761Y38251905D01*
X24757142Y38299524D01*
X23947619Y37299524D02*
X23900000Y37251905D01*
X23852380Y37156667D01*
X23852380Y36918572D01*
X23900000Y36823334D01*
X23947619Y36775715D01*
X24042857Y36728096D01*
X24138095Y36728096D01*
X24280952Y36775715D01*
X24852380Y37347143D01*
X24852380Y36728096D01*
X28957142Y37032858D02*
X29004761Y37080477D01*
X29052380Y37223334D01*
X29052380Y37318572D01*
X29004761Y37461429D01*
X28909523Y37556667D01*
X28814285Y37604286D01*
X28623809Y37651905D01*
X28480952Y37651905D01*
X28290476Y37604286D01*
X28195238Y37556667D01*
X28100000Y37461429D01*
X28052380Y37318572D01*
X28052380Y37223334D01*
X28100000Y37080477D01*
X28147619Y37032858D01*
X28052380Y36699524D02*
X28052380Y36080477D01*
X28433333Y36413810D01*
X28433333Y36270953D01*
X28480952Y36175715D01*
X28528571Y36128096D01*
X28623809Y36080477D01*
X28861904Y36080477D01*
X28957142Y36128096D01*
X29004761Y36175715D01*
X29052380Y36270953D01*
X29052380Y36556667D01*
X29004761Y36651905D01*
X28957142Y36699524D01*
X28052380Y35461429D02*
X28052380Y35366191D01*
X28100000Y35270953D01*
X28147619Y35223334D01*
X28242857Y35175715D01*
X28433333Y35128096D01*
X28671428Y35128096D01*
X28861904Y35175715D01*
X28957142Y35223334D01*
X29004761Y35270953D01*
X29052380Y35366191D01*
X29052380Y35461429D01*
X29004761Y35556667D01*
X28957142Y35604286D01*
X28861904Y35651905D01*
X28671428Y35699524D01*
X28433333Y35699524D01*
X28242857Y35651905D01*
X28147619Y35604286D01*
X28100000Y35556667D01*
X28052380Y35461429D01*
X30642857Y31832858D02*
X30690476Y31785239D01*
X30833333Y31737620D01*
X30928571Y31737620D01*
X31071428Y31785239D01*
X31166666Y31880477D01*
X31214285Y31975715D01*
X31261904Y32166191D01*
X31261904Y32309048D01*
X31214285Y32499524D01*
X31166666Y32594762D01*
X31071428Y32690000D01*
X30928571Y32737620D01*
X30833333Y32737620D01*
X30690476Y32690000D01*
X30642857Y32642381D01*
X30261904Y32642381D02*
X30214285Y32690000D01*
X30119047Y32737620D01*
X29880952Y32737620D01*
X29785714Y32690000D01*
X29738095Y32642381D01*
X29690476Y32547143D01*
X29690476Y32451905D01*
X29738095Y32309048D01*
X30309523Y31737620D01*
X29690476Y31737620D01*
X28738095Y31737620D02*
X29309523Y31737620D01*
X29023809Y31737620D02*
X29023809Y32737620D01*
X29119047Y32594762D01*
X29214285Y32499524D01*
X29309523Y32451905D01*
X26157142Y35632858D02*
X26204761Y35680477D01*
X26252380Y35823334D01*
X26252380Y35918572D01*
X26204761Y36061429D01*
X26109523Y36156667D01*
X26014285Y36204286D01*
X25823809Y36251905D01*
X25680952Y36251905D01*
X25490476Y36204286D01*
X25395238Y36156667D01*
X25300000Y36061429D01*
X25252380Y35918572D01*
X25252380Y35823334D01*
X25300000Y35680477D01*
X25347619Y35632858D01*
X25347619Y35251905D02*
X25300000Y35204286D01*
X25252380Y35109048D01*
X25252380Y34870953D01*
X25300000Y34775715D01*
X25347619Y34728096D01*
X25442857Y34680477D01*
X25538095Y34680477D01*
X25680952Y34728096D01*
X26252380Y35299524D01*
X26252380Y34680477D01*
X25252380Y34061429D02*
X25252380Y33966191D01*
X25300000Y33870953D01*
X25347619Y33823334D01*
X25442857Y33775715D01*
X25633333Y33728096D01*
X25871428Y33728096D01*
X26061904Y33775715D01*
X26157142Y33823334D01*
X26204761Y33870953D01*
X26252380Y33966191D01*
X26252380Y34061429D01*
X26204761Y34156667D01*
X26157142Y34204286D01*
X26061904Y34251905D01*
X25871428Y34299524D01*
X25633333Y34299524D01*
X25442857Y34251905D01*
X25347619Y34204286D01*
X25300000Y34156667D01*
X25252380Y34061429D01*
X27557142Y35632858D02*
X27604761Y35680477D01*
X27652380Y35823334D01*
X27652380Y35918572D01*
X27604761Y36061429D01*
X27509523Y36156667D01*
X27414285Y36204286D01*
X27223809Y36251905D01*
X27080952Y36251905D01*
X26890476Y36204286D01*
X26795238Y36156667D01*
X26700000Y36061429D01*
X26652380Y35918572D01*
X26652380Y35823334D01*
X26700000Y35680477D01*
X26747619Y35632858D01*
X27652380Y34680477D02*
X27652380Y35251905D01*
X27652380Y34966191D02*
X26652380Y34966191D01*
X26795238Y35061429D01*
X26890476Y35156667D01*
X26938095Y35251905D01*
X27652380Y34204286D02*
X27652380Y34013810D01*
X27604761Y33918572D01*
X27557142Y33870953D01*
X27414285Y33775715D01*
X27223809Y33728096D01*
X26842857Y33728096D01*
X26747619Y33775715D01*
X26700000Y33823334D01*
X26652380Y33918572D01*
X26652380Y34109048D01*
X26700000Y34204286D01*
X26747619Y34251905D01*
X26842857Y34299524D01*
X27080952Y34299524D01*
X27176190Y34251905D01*
X27223809Y34204286D01*
X27271428Y34109048D01*
X27271428Y33918572D01*
X27223809Y33823334D01*
X27176190Y33775715D01*
X27080952Y33728096D01*
X55617142Y26546667D02*
X55664761Y26594286D01*
X55712380Y26737143D01*
X55712380Y26832381D01*
X55664761Y26975239D01*
X55569523Y27070477D01*
X55474285Y27118096D01*
X55283809Y27165715D01*
X55140952Y27165715D01*
X54950476Y27118096D01*
X54855238Y27070477D01*
X54760000Y26975239D01*
X54712380Y26832381D01*
X54712380Y26737143D01*
X54760000Y26594286D01*
X54807619Y26546667D01*
X54807619Y26165715D02*
X54760000Y26118096D01*
X54712380Y26022858D01*
X54712380Y25784762D01*
X54760000Y25689524D01*
X54807619Y25641905D01*
X54902857Y25594286D01*
X54998095Y25594286D01*
X55140952Y25641905D01*
X55712380Y26213334D01*
X55712380Y25594286D01*
M02*
