G04 #@! TF.GenerationSoftware,KiCad,Pcbnew,5.1.7-a382d34a8~87~ubuntu20.04.1*
G04 #@! TF.CreationDate,2020-11-22T14:39:13-08:00*
G04 #@! TF.ProjectId,artix7-pcie-v2,61727469-7837-42d7-9063-69652d76322e,rev?*
G04 #@! TF.SameCoordinates,PX69f4060PY6b00940*
G04 #@! TF.FileFunction,Legend,Bot*
G04 #@! TF.FilePolarity,Positive*
%FSLAX46Y46*%
G04 Gerber Fmt 4.6, Leading zero omitted, Abs format (unit mm)*
G04 Created by KiCad (PCBNEW 5.1.7-a382d34a8~87~ubuntu20.04.1) date 2020-11-22 14:39:13*
%MOMM*%
%LPD*%
G01*
G04 APERTURE LIST*
%ADD10C,0.200000*%
%ADD11C,0.100000*%
%ADD12C,0.127000*%
%ADD13C,0.300000*%
%ADD14C,0.203200*%
%ADD15C,0.120000*%
%ADD16C,0.250000*%
%ADD17C,0.150000*%
G04 APERTURE END LIST*
D10*
X40630457Y48765229D02*
X40630457Y50265229D01*
X40059028Y50265229D01*
X39916171Y50193800D01*
X39844742Y50122372D01*
X39773314Y49979515D01*
X39773314Y49765229D01*
X39844742Y49622372D01*
X39916171Y49550943D01*
X40059028Y49479515D01*
X40630457Y49479515D01*
X38273314Y48908086D02*
X38344742Y48836658D01*
X38559028Y48765229D01*
X38701885Y48765229D01*
X38916171Y48836658D01*
X39059028Y48979515D01*
X39130457Y49122372D01*
X39201885Y49408086D01*
X39201885Y49622372D01*
X39130457Y49908086D01*
X39059028Y50050943D01*
X38916171Y50193800D01*
X38701885Y50265229D01*
X38559028Y50265229D01*
X38344742Y50193800D01*
X38273314Y50122372D01*
X37630457Y48765229D02*
X37630457Y50265229D01*
X36344742Y48836658D02*
X36487600Y48765229D01*
X36773314Y48765229D01*
X36916171Y48836658D01*
X36987600Y48979515D01*
X36987600Y49550943D01*
X36916171Y49693800D01*
X36773314Y49765229D01*
X36487600Y49765229D01*
X36344742Y49693800D01*
X36273314Y49550943D01*
X36273314Y49408086D01*
X36987600Y49265229D01*
X26570500Y50290629D02*
X26570500Y49076343D01*
X26499071Y48933486D01*
X26427642Y48862058D01*
X26284785Y48790629D01*
X25999071Y48790629D01*
X25856214Y48862058D01*
X25784785Y48933486D01*
X25713357Y49076343D01*
X25713357Y50290629D01*
X25070500Y48862058D02*
X24856214Y48790629D01*
X24499071Y48790629D01*
X24356214Y48862058D01*
X24284785Y48933486D01*
X24213357Y49076343D01*
X24213357Y49219200D01*
X24284785Y49362058D01*
X24356214Y49433486D01*
X24499071Y49504915D01*
X24784785Y49576343D01*
X24927642Y49647772D01*
X24999071Y49719200D01*
X25070500Y49862058D01*
X25070500Y50004915D01*
X24999071Y50147772D01*
X24927642Y50219200D01*
X24784785Y50290629D01*
X24427642Y50290629D01*
X24213357Y50219200D01*
X23070500Y49576343D02*
X22856214Y49504915D01*
X22784785Y49433486D01*
X22713357Y49290629D01*
X22713357Y49076343D01*
X22784785Y48933486D01*
X22856214Y48862058D01*
X22999071Y48790629D01*
X23570500Y48790629D01*
X23570500Y50290629D01*
X23070500Y50290629D01*
X22927642Y50219200D01*
X22856214Y50147772D01*
X22784785Y50004915D01*
X22784785Y49862058D01*
X22856214Y49719200D01*
X22927642Y49647772D01*
X23070500Y49576343D01*
X23570500Y49576343D01*
X21070500Y50290629D02*
X20141928Y50290629D01*
X20641928Y49719200D01*
X20427642Y49719200D01*
X20284785Y49647772D01*
X20213357Y49576343D01*
X20141928Y49433486D01*
X20141928Y49076343D01*
X20213357Y48933486D01*
X20284785Y48862058D01*
X20427642Y48790629D01*
X20856214Y48790629D01*
X20999071Y48862058D01*
X21070500Y48933486D01*
X19499071Y48933486D02*
X19427642Y48862058D01*
X19499071Y48790629D01*
X19570500Y48862058D01*
X19499071Y48933486D01*
X19499071Y48790629D01*
X18499071Y50290629D02*
X18356214Y50290629D01*
X18213357Y50219200D01*
X18141928Y50147772D01*
X18070500Y50004915D01*
X17999071Y49719200D01*
X17999071Y49362058D01*
X18070500Y49076343D01*
X18141928Y48933486D01*
X18213357Y48862058D01*
X18356214Y48790629D01*
X18499071Y48790629D01*
X18641928Y48862058D01*
X18713357Y48933486D01*
X18784785Y49076343D01*
X18856214Y49362058D01*
X18856214Y49719200D01*
X18784785Y50004915D01*
X18713357Y50147772D01*
X18641928Y50219200D01*
X18499071Y50290629D01*
D11*
X53345800Y21679400D02*
G75*
G03*
X53345800Y21679400I-50000J0D01*
G01*
D12*
X48290000Y22785000D02*
X48290000Y21980000D01*
X45290000Y22785000D02*
X45290000Y21980000D01*
X48290000Y24980000D02*
X48290000Y24175000D01*
X45290000Y24980000D02*
X45290000Y24175000D01*
D13*
X45190000Y24875000D02*
G75*
G03*
X45190000Y24875000I-100000J0D01*
G01*
D12*
X11375000Y32820000D02*
X12180000Y32820000D01*
X11375000Y29820000D02*
X12180000Y29820000D01*
X9180000Y32820000D02*
X9985000Y32820000D01*
X9180000Y29820000D02*
X9985000Y29820000D01*
D13*
X9385000Y29620000D02*
G75*
G03*
X9385000Y29620000I-100000J0D01*
G01*
D14*
X38000000Y390000D02*
X34000000Y390000D01*
X40000000Y7890000D02*
X40000000Y4390000D01*
X39200000Y7890000D02*
X40000000Y7890000D01*
X39200000Y5390000D02*
X39200000Y7890000D01*
X38000000Y5390000D02*
X39200000Y5390000D01*
X32800000Y5390000D02*
X34000000Y5390000D01*
X32800000Y7890000D02*
X32800000Y5390000D01*
X32000000Y7890000D02*
X32800000Y7890000D01*
X32000000Y4390000D02*
X32000000Y7890000D01*
D15*
X4938000Y10390000D02*
X9148000Y10390000D01*
X4938000Y7370000D02*
X4938000Y10390000D01*
X9148000Y7370000D02*
X4938000Y7370000D01*
X23828000Y29087000D02*
X19618000Y29087000D01*
X23828000Y32107000D02*
X23828000Y29087000D01*
X19618000Y32107000D02*
X23828000Y32107000D01*
X18842000Y20911500D02*
X18842000Y25121500D01*
X21862000Y20911500D02*
X18842000Y20911500D01*
X21862000Y25121500D02*
X21862000Y20911500D01*
X33767000Y39092000D02*
X37977000Y39092000D01*
X33767000Y36072000D02*
X33767000Y39092000D01*
X37977000Y36072000D02*
X33767000Y36072000D01*
X51354000Y39694000D02*
X51354000Y43904000D01*
X54374000Y39694000D02*
X51354000Y39694000D01*
X54374000Y43904000D02*
X54374000Y39694000D01*
X51608000Y6330000D02*
X51608000Y10540000D01*
X54628000Y6330000D02*
X51608000Y6330000D01*
X54628000Y10540000D02*
X54628000Y6330000D01*
X33513000Y27900000D02*
X37723000Y27900000D01*
X33513000Y24880000D02*
X33513000Y27900000D01*
X37723000Y24880000D02*
X33513000Y24880000D01*
X26510000Y22350000D02*
X26510000Y18140000D01*
X23490000Y22350000D02*
X26510000Y22350000D01*
X23490000Y18140000D02*
X23490000Y22350000D01*
X32497000Y31700000D02*
X36707000Y31700000D01*
X32497000Y28680000D02*
X32497000Y31700000D01*
X36707000Y28680000D02*
X32497000Y28680000D01*
X4938000Y43918000D02*
X9148000Y43918000D01*
X4938000Y40898000D02*
X4938000Y43918000D01*
X9148000Y40898000D02*
X4938000Y40898000D01*
D10*
X12030000Y13350000D02*
G75*
G03*
X12030000Y13350000I-100000J0D01*
G01*
D12*
X9850000Y13750000D02*
X9190000Y13750000D01*
X8720000Y12635000D02*
X8720000Y11965000D01*
X9190000Y10850000D02*
X9850000Y10850000D01*
D10*
X45460000Y35700000D02*
G75*
G03*
X45460000Y35700000I-100000J0D01*
G01*
D12*
X47440000Y35300000D02*
X48100000Y35300000D01*
X48570000Y36415000D02*
X48570000Y37085000D01*
X48100000Y38200000D02*
X47440000Y38200000D01*
D10*
X11622000Y21190000D02*
G75*
G03*
X11622000Y21190000I-100000J0D01*
G01*
D12*
X9442000Y21590000D02*
X8782000Y21590000D01*
X8312000Y20475000D02*
X8312000Y19805000D01*
X8782000Y18690000D02*
X9442000Y18690000D01*
D10*
X47918000Y14598000D02*
G75*
G03*
X47918000Y14598000I-100000J0D01*
G01*
D12*
X48218000Y16678000D02*
X48218000Y17338000D01*
X47103000Y17808000D02*
X46433000Y17808000D01*
X45318000Y17338000D02*
X45318000Y16678000D01*
X10320000Y27165000D02*
X8720000Y27165000D01*
X10320000Y24035000D02*
X8720000Y24035000D01*
D10*
X12020000Y26800000D02*
G75*
G03*
X12020000Y26800000I-100000J0D01*
G01*
D15*
X11567936Y10300000D02*
X12772064Y10300000D01*
X11567936Y8480000D02*
X12772064Y8480000D01*
X44782064Y31730000D02*
X43577936Y31730000D01*
X44782064Y33550000D02*
X43577936Y33550000D01*
X8289936Y18180000D02*
X9494064Y18180000D01*
X8289936Y16360000D02*
X9494064Y16360000D01*
X16860000Y32142064D02*
X16860000Y30937936D01*
X15040000Y32142064D02*
X15040000Y30937936D01*
X51170000Y11502064D02*
X51170000Y10297936D01*
X49350000Y11502064D02*
X49350000Y10297936D01*
X52800000Y29340000D02*
G75*
G03*
X52800000Y29340000I-950000J0D01*
G01*
X41370000Y29800000D02*
G75*
G03*
X41370000Y29800000I-950000J0D01*
G01*
X52600000Y24290000D02*
G75*
G03*
X52600000Y24290000I-950000J0D01*
G01*
X53940000Y26740000D02*
G75*
G03*
X53940000Y26740000I-950000J0D01*
G01*
X7340000Y30900000D02*
G75*
G03*
X7340000Y30900000I-950000J0D01*
G01*
X12450000Y43890000D02*
G75*
G03*
X12450000Y43890000I-950000J0D01*
G01*
X13450000Y48890000D02*
G75*
G03*
X13450000Y48890000I-950000J0D01*
G01*
X30197936Y18700000D02*
X31402064Y18700000D01*
X30197936Y16880000D02*
X31402064Y16880000D01*
D16*
X9550000Y35390000D02*
G75*
G03*
X9550000Y35390000I-125000J0D01*
G01*
D15*
X5350000Y34990000D02*
X5350000Y38990000D01*
X8650000Y34990000D02*
X5350000Y34990000D01*
X28400000Y12840000D02*
X23000000Y12840000D01*
X28400000Y9540000D02*
X23000000Y9540000D01*
X28400000Y12840000D02*
X28400000Y9540000D01*
X28800000Y9540000D02*
X34200000Y9540000D01*
X28800000Y12840000D02*
X34200000Y12840000D01*
X28800000Y9540000D02*
X28800000Y12840000D01*
D17*
X54918180Y18800267D02*
X54441990Y19133600D01*
X54918180Y19371696D02*
X53918180Y19371696D01*
X53918180Y18990743D01*
X53965800Y18895505D01*
X54013419Y18847886D01*
X54108657Y18800267D01*
X54251514Y18800267D01*
X54346752Y18847886D01*
X54394371Y18895505D01*
X54441990Y18990743D01*
X54441990Y19371696D01*
X54251514Y17943124D02*
X54918180Y17943124D01*
X53870561Y18181220D02*
X54584847Y18419315D01*
X54584847Y17800267D01*
X52578180Y21327496D02*
X51578180Y21327496D01*
X51578180Y21089400D01*
X51625800Y20946543D01*
X51721038Y20851305D01*
X51816276Y20803686D01*
X52006752Y20756067D01*
X52149609Y20756067D01*
X52340085Y20803686D01*
X52435323Y20851305D01*
X52530561Y20946543D01*
X52578180Y21089400D01*
X52578180Y21327496D01*
X51578180Y19898924D02*
X51578180Y20089400D01*
X51625800Y20184639D01*
X51673419Y20232258D01*
X51816276Y20327496D01*
X52006752Y20375115D01*
X52387704Y20375115D01*
X52482942Y20327496D01*
X52530561Y20279877D01*
X52578180Y20184639D01*
X52578180Y19994162D01*
X52530561Y19898924D01*
X52482942Y19851305D01*
X52387704Y19803686D01*
X52149609Y19803686D01*
X52054371Y19851305D01*
X52006752Y19898924D01*
X51959133Y19994162D01*
X51959133Y20184639D01*
X52006752Y20279877D01*
X52054371Y20327496D01*
X52149609Y20375115D01*
X44704095Y24947020D02*
X44704095Y24137496D01*
X44656476Y24042258D01*
X44608857Y23994639D01*
X44513619Y23947020D01*
X44323142Y23947020D01*
X44227904Y23994639D01*
X44180285Y24042258D01*
X44132666Y24137496D01*
X44132666Y24947020D01*
X43132666Y23947020D02*
X43704095Y23947020D01*
X43418380Y23947020D02*
X43418380Y24947020D01*
X43513619Y24804162D01*
X43608857Y24708924D01*
X43704095Y24661305D01*
X42513619Y24947020D02*
X42418380Y24947020D01*
X42323142Y24899400D01*
X42275523Y24851781D01*
X42227904Y24756543D01*
X42180285Y24566067D01*
X42180285Y24327972D01*
X42227904Y24137496D01*
X42275523Y24042258D01*
X42323142Y23994639D01*
X42418380Y23947020D01*
X42513619Y23947020D01*
X42608857Y23994639D01*
X42656476Y24042258D01*
X42704095Y24137496D01*
X42751714Y24327972D01*
X42751714Y24566067D01*
X42704095Y24756543D01*
X42656476Y24851781D01*
X42608857Y24899400D01*
X42513619Y24947020D01*
X13708380Y33136905D02*
X14517904Y33136905D01*
X14613142Y33089286D01*
X14660761Y33041667D01*
X14708380Y32946429D01*
X14708380Y32755953D01*
X14660761Y32660715D01*
X14613142Y32613096D01*
X14517904Y32565477D01*
X13708380Y32565477D01*
X14708380Y32041667D02*
X14708380Y31851191D01*
X14660761Y31755953D01*
X14613142Y31708334D01*
X14470285Y31613096D01*
X14279809Y31565477D01*
X13898857Y31565477D01*
X13803619Y31613096D01*
X13756000Y31660715D01*
X13708380Y31755953D01*
X13708380Y31946429D01*
X13756000Y32041667D01*
X13803619Y32089286D01*
X13898857Y32136905D01*
X14136952Y32136905D01*
X14232190Y32089286D01*
X14279809Y32041667D01*
X14327428Y31946429D01*
X14327428Y31755953D01*
X14279809Y31660715D01*
X14232190Y31613096D01*
X14136952Y31565477D01*
X36487976Y2237620D02*
X36487976Y1523334D01*
X36535595Y1380477D01*
X36630833Y1285239D01*
X36773690Y1237620D01*
X36868928Y1237620D01*
X36107023Y2237620D02*
X35440357Y2237620D01*
X35868928Y1237620D01*
X8040857Y6172858D02*
X8088476Y6125239D01*
X8231333Y6077620D01*
X8326571Y6077620D01*
X8469428Y6125239D01*
X8564666Y6220477D01*
X8612285Y6315715D01*
X8659904Y6506191D01*
X8659904Y6649048D01*
X8612285Y6839524D01*
X8564666Y6934762D01*
X8469428Y7030000D01*
X8326571Y7077620D01*
X8231333Y7077620D01*
X8088476Y7030000D01*
X8040857Y6982381D01*
X7088476Y6077620D02*
X7659904Y6077620D01*
X7374190Y6077620D02*
X7374190Y7077620D01*
X7469428Y6934762D01*
X7564666Y6839524D01*
X7659904Y6791905D01*
X6517047Y6649048D02*
X6612285Y6696667D01*
X6659904Y6744286D01*
X6707523Y6839524D01*
X6707523Y6887143D01*
X6659904Y6982381D01*
X6612285Y7030000D01*
X6517047Y7077620D01*
X6326571Y7077620D01*
X6231333Y7030000D01*
X6183714Y6982381D01*
X6136095Y6887143D01*
X6136095Y6839524D01*
X6183714Y6744286D01*
X6231333Y6696667D01*
X6326571Y6649048D01*
X6517047Y6649048D01*
X6612285Y6601429D01*
X6659904Y6553810D01*
X6707523Y6458572D01*
X6707523Y6268096D01*
X6659904Y6172858D01*
X6612285Y6125239D01*
X6517047Y6077620D01*
X6326571Y6077620D01*
X6231333Y6125239D01*
X6183714Y6172858D01*
X6136095Y6268096D01*
X6136095Y6458572D01*
X6183714Y6553810D01*
X6231333Y6601429D01*
X6326571Y6649048D01*
X22010857Y32589858D02*
X22058476Y32542239D01*
X22201333Y32494620D01*
X22296571Y32494620D01*
X22439428Y32542239D01*
X22534666Y32637477D01*
X22582285Y32732715D01*
X22629904Y32923191D01*
X22629904Y33066048D01*
X22582285Y33256524D01*
X22534666Y33351762D01*
X22439428Y33447000D01*
X22296571Y33494620D01*
X22201333Y33494620D01*
X22058476Y33447000D01*
X22010857Y33399381D01*
X21439428Y33066048D02*
X21534666Y33113667D01*
X21582285Y33161286D01*
X21629904Y33256524D01*
X21629904Y33304143D01*
X21582285Y33399381D01*
X21534666Y33447000D01*
X21439428Y33494620D01*
X21248952Y33494620D01*
X21153714Y33447000D01*
X21106095Y33399381D01*
X21058476Y33304143D01*
X21058476Y33256524D01*
X21106095Y33161286D01*
X21153714Y33113667D01*
X21248952Y33066048D01*
X21439428Y33066048D01*
X21534666Y33018429D01*
X21582285Y32970810D01*
X21629904Y32875572D01*
X21629904Y32685096D01*
X21582285Y32589858D01*
X21534666Y32542239D01*
X21439428Y32494620D01*
X21248952Y32494620D01*
X21153714Y32542239D01*
X21106095Y32589858D01*
X21058476Y32685096D01*
X21058476Y32875572D01*
X21106095Y32970810D01*
X21153714Y33018429D01*
X21248952Y33066048D01*
X20201333Y33494620D02*
X20391809Y33494620D01*
X20487047Y33447000D01*
X20534666Y33399381D01*
X20629904Y33256524D01*
X20677523Y33066048D01*
X20677523Y32685096D01*
X20629904Y32589858D01*
X20582285Y32542239D01*
X20487047Y32494620D01*
X20296571Y32494620D01*
X20201333Y32542239D01*
X20153714Y32589858D01*
X20106095Y32685096D01*
X20106095Y32923191D01*
X20153714Y33018429D01*
X20201333Y33066048D01*
X20296571Y33113667D01*
X20487047Y33113667D01*
X20582285Y33066048D01*
X20629904Y33018429D01*
X20677523Y32923191D01*
X23059142Y24014358D02*
X23106761Y24061977D01*
X23154380Y24204834D01*
X23154380Y24300072D01*
X23106761Y24442929D01*
X23011523Y24538167D01*
X22916285Y24585786D01*
X22725809Y24633405D01*
X22582952Y24633405D01*
X22392476Y24585786D01*
X22297238Y24538167D01*
X22202000Y24442929D01*
X22154380Y24300072D01*
X22154380Y24204834D01*
X22202000Y24061977D01*
X22249619Y24014358D01*
X22582952Y23442929D02*
X22535333Y23538167D01*
X22487714Y23585786D01*
X22392476Y23633405D01*
X22344857Y23633405D01*
X22249619Y23585786D01*
X22202000Y23538167D01*
X22154380Y23442929D01*
X22154380Y23252453D01*
X22202000Y23157215D01*
X22249619Y23109596D01*
X22344857Y23061977D01*
X22392476Y23061977D01*
X22487714Y23109596D01*
X22535333Y23157215D01*
X22582952Y23252453D01*
X22582952Y23442929D01*
X22630571Y23538167D01*
X22678190Y23585786D01*
X22773428Y23633405D01*
X22963904Y23633405D01*
X23059142Y23585786D01*
X23106761Y23538167D01*
X23154380Y23442929D01*
X23154380Y23252453D01*
X23106761Y23157215D01*
X23059142Y23109596D01*
X22963904Y23061977D01*
X22773428Y23061977D01*
X22678190Y23109596D01*
X22630571Y23157215D01*
X22582952Y23252453D01*
X22154380Y22157215D02*
X22154380Y22633405D01*
X22630571Y22681024D01*
X22582952Y22633405D01*
X22535333Y22538167D01*
X22535333Y22300072D01*
X22582952Y22204834D01*
X22630571Y22157215D01*
X22725809Y22109596D01*
X22963904Y22109596D01*
X23059142Y22157215D01*
X23106761Y22204834D01*
X23154380Y22300072D01*
X23154380Y22538167D01*
X23106761Y22633405D01*
X23059142Y22681024D01*
X36869857Y34874858D02*
X36917476Y34827239D01*
X37060333Y34779620D01*
X37155571Y34779620D01*
X37298428Y34827239D01*
X37393666Y34922477D01*
X37441285Y35017715D01*
X37488904Y35208191D01*
X37488904Y35351048D01*
X37441285Y35541524D01*
X37393666Y35636762D01*
X37298428Y35732000D01*
X37155571Y35779620D01*
X37060333Y35779620D01*
X36917476Y35732000D01*
X36869857Y35684381D01*
X36536523Y35779620D02*
X35869857Y35779620D01*
X36298428Y34779620D01*
X35346047Y35351048D02*
X35441285Y35398667D01*
X35488904Y35446286D01*
X35536523Y35541524D01*
X35536523Y35589143D01*
X35488904Y35684381D01*
X35441285Y35732000D01*
X35346047Y35779620D01*
X35155571Y35779620D01*
X35060333Y35732000D01*
X35012714Y35684381D01*
X34965095Y35589143D01*
X34965095Y35541524D01*
X35012714Y35446286D01*
X35060333Y35398667D01*
X35155571Y35351048D01*
X35346047Y35351048D01*
X35441285Y35303429D01*
X35488904Y35255810D01*
X35536523Y35160572D01*
X35536523Y34970096D01*
X35488904Y34874858D01*
X35441285Y34827239D01*
X35346047Y34779620D01*
X35155571Y34779620D01*
X35060333Y34827239D01*
X35012714Y34874858D01*
X34965095Y34970096D01*
X34965095Y35160572D01*
X35012714Y35255810D01*
X35060333Y35303429D01*
X35155571Y35351048D01*
X55571142Y42796858D02*
X55618761Y42844477D01*
X55666380Y42987334D01*
X55666380Y43082572D01*
X55618761Y43225429D01*
X55523523Y43320667D01*
X55428285Y43368286D01*
X55237809Y43415905D01*
X55094952Y43415905D01*
X54904476Y43368286D01*
X54809238Y43320667D01*
X54714000Y43225429D01*
X54666380Y43082572D01*
X54666380Y42987334D01*
X54714000Y42844477D01*
X54761619Y42796858D01*
X54666380Y41939715D02*
X54666380Y42130191D01*
X54714000Y42225429D01*
X54761619Y42273048D01*
X54904476Y42368286D01*
X55094952Y42415905D01*
X55475904Y42415905D01*
X55571142Y42368286D01*
X55618761Y42320667D01*
X55666380Y42225429D01*
X55666380Y42034953D01*
X55618761Y41939715D01*
X55571142Y41892096D01*
X55475904Y41844477D01*
X55237809Y41844477D01*
X55142571Y41892096D01*
X55094952Y41939715D01*
X55047333Y42034953D01*
X55047333Y42225429D01*
X55094952Y42320667D01*
X55142571Y42368286D01*
X55237809Y42415905D01*
X55094952Y41273048D02*
X55047333Y41368286D01*
X54999714Y41415905D01*
X54904476Y41463524D01*
X54856857Y41463524D01*
X54761619Y41415905D01*
X54714000Y41368286D01*
X54666380Y41273048D01*
X54666380Y41082572D01*
X54714000Y40987334D01*
X54761619Y40939715D01*
X54856857Y40892096D01*
X54904476Y40892096D01*
X54999714Y40939715D01*
X55047333Y40987334D01*
X55094952Y41082572D01*
X55094952Y41273048D01*
X55142571Y41368286D01*
X55190190Y41415905D01*
X55285428Y41463524D01*
X55475904Y41463524D01*
X55571142Y41415905D01*
X55618761Y41368286D01*
X55666380Y41273048D01*
X55666380Y41082572D01*
X55618761Y40987334D01*
X55571142Y40939715D01*
X55475904Y40892096D01*
X55285428Y40892096D01*
X55190190Y40939715D01*
X55142571Y40987334D01*
X55094952Y41082572D01*
X55825142Y9432858D02*
X55872761Y9480477D01*
X55920380Y9623334D01*
X55920380Y9718572D01*
X55872761Y9861429D01*
X55777523Y9956667D01*
X55682285Y10004286D01*
X55491809Y10051905D01*
X55348952Y10051905D01*
X55158476Y10004286D01*
X55063238Y9956667D01*
X54968000Y9861429D01*
X54920380Y9718572D01*
X54920380Y9623334D01*
X54968000Y9480477D01*
X55015619Y9432858D01*
X54920380Y8575715D02*
X54920380Y8766191D01*
X54968000Y8861429D01*
X55015619Y8909048D01*
X55158476Y9004286D01*
X55348952Y9051905D01*
X55729904Y9051905D01*
X55825142Y9004286D01*
X55872761Y8956667D01*
X55920380Y8861429D01*
X55920380Y8670953D01*
X55872761Y8575715D01*
X55825142Y8528096D01*
X55729904Y8480477D01*
X55491809Y8480477D01*
X55396571Y8528096D01*
X55348952Y8575715D01*
X55301333Y8670953D01*
X55301333Y8861429D01*
X55348952Y8956667D01*
X55396571Y9004286D01*
X55491809Y9051905D01*
X54920380Y8147143D02*
X54920380Y7480477D01*
X55920380Y7909048D01*
X36615857Y23682858D02*
X36663476Y23635239D01*
X36806333Y23587620D01*
X36901571Y23587620D01*
X37044428Y23635239D01*
X37139666Y23730477D01*
X37187285Y23825715D01*
X37234904Y24016191D01*
X37234904Y24159048D01*
X37187285Y24349524D01*
X37139666Y24444762D01*
X37044428Y24540000D01*
X36901571Y24587620D01*
X36806333Y24587620D01*
X36663476Y24540000D01*
X36615857Y24492381D01*
X35758714Y24587620D02*
X35949190Y24587620D01*
X36044428Y24540000D01*
X36092047Y24492381D01*
X36187285Y24349524D01*
X36234904Y24159048D01*
X36234904Y23778096D01*
X36187285Y23682858D01*
X36139666Y23635239D01*
X36044428Y23587620D01*
X35853952Y23587620D01*
X35758714Y23635239D01*
X35711095Y23682858D01*
X35663476Y23778096D01*
X35663476Y24016191D01*
X35711095Y24111429D01*
X35758714Y24159048D01*
X35853952Y24206667D01*
X36044428Y24206667D01*
X36139666Y24159048D01*
X36187285Y24111429D01*
X36234904Y24016191D01*
X35044428Y24587620D02*
X34949190Y24587620D01*
X34853952Y24540000D01*
X34806333Y24492381D01*
X34758714Y24397143D01*
X34711095Y24206667D01*
X34711095Y23968572D01*
X34758714Y23778096D01*
X34806333Y23682858D01*
X34853952Y23635239D01*
X34949190Y23587620D01*
X35044428Y23587620D01*
X35139666Y23635239D01*
X35187285Y23682858D01*
X35234904Y23778096D01*
X35282523Y23968572D01*
X35282523Y24206667D01*
X35234904Y24397143D01*
X35187285Y24492381D01*
X35139666Y24540000D01*
X35044428Y24587620D01*
X23007142Y20532858D02*
X23054761Y20580477D01*
X23102380Y20723334D01*
X23102380Y20818572D01*
X23054761Y20961429D01*
X22959523Y21056667D01*
X22864285Y21104286D01*
X22673809Y21151905D01*
X22530952Y21151905D01*
X22340476Y21104286D01*
X22245238Y21056667D01*
X22150000Y20961429D01*
X22102380Y20818572D01*
X22102380Y20723334D01*
X22150000Y20580477D01*
X22197619Y20532858D01*
X22435714Y19675715D02*
X23102380Y19675715D01*
X22054761Y19913810D02*
X22769047Y20151905D01*
X22769047Y19532858D01*
X22435714Y18723334D02*
X23102380Y18723334D01*
X22054761Y18961429D02*
X22769047Y19199524D01*
X22769047Y18580477D01*
X35599857Y27482858D02*
X35647476Y27435239D01*
X35790333Y27387620D01*
X35885571Y27387620D01*
X36028428Y27435239D01*
X36123666Y27530477D01*
X36171285Y27625715D01*
X36218904Y27816191D01*
X36218904Y27959048D01*
X36171285Y28149524D01*
X36123666Y28244762D01*
X36028428Y28340000D01*
X35885571Y28387620D01*
X35790333Y28387620D01*
X35647476Y28340000D01*
X35599857Y28292381D01*
X34742714Y28054286D02*
X34742714Y27387620D01*
X34980809Y28435239D02*
X35218904Y27720953D01*
X34599857Y27720953D01*
X34266523Y28292381D02*
X34218904Y28340000D01*
X34123666Y28387620D01*
X33885571Y28387620D01*
X33790333Y28340000D01*
X33742714Y28292381D01*
X33695095Y28197143D01*
X33695095Y28101905D01*
X33742714Y27959048D01*
X34314142Y27387620D01*
X33695095Y27387620D01*
X8040857Y39700858D02*
X8088476Y39653239D01*
X8231333Y39605620D01*
X8326571Y39605620D01*
X8469428Y39653239D01*
X8564666Y39748477D01*
X8612285Y39843715D01*
X8659904Y40034191D01*
X8659904Y40177048D01*
X8612285Y40367524D01*
X8564666Y40462762D01*
X8469428Y40558000D01*
X8326571Y40605620D01*
X8231333Y40605620D01*
X8088476Y40558000D01*
X8040857Y40510381D01*
X7659904Y40510381D02*
X7612285Y40558000D01*
X7517047Y40605620D01*
X7278952Y40605620D01*
X7183714Y40558000D01*
X7136095Y40510381D01*
X7088476Y40415143D01*
X7088476Y40319905D01*
X7136095Y40177048D01*
X7707523Y39605620D01*
X7088476Y39605620D01*
X6755142Y40605620D02*
X6136095Y40605620D01*
X6469428Y40224667D01*
X6326571Y40224667D01*
X6231333Y40177048D01*
X6183714Y40129429D01*
X6136095Y40034191D01*
X6136095Y39796096D01*
X6183714Y39700858D01*
X6231333Y39653239D01*
X6326571Y39605620D01*
X6612285Y39605620D01*
X6707523Y39653239D01*
X6755142Y39700858D01*
X7143904Y12729620D02*
X7143904Y11920096D01*
X7096285Y11824858D01*
X7048666Y11777239D01*
X6953428Y11729620D01*
X6762952Y11729620D01*
X6667714Y11777239D01*
X6620095Y11824858D01*
X6572476Y11920096D01*
X6572476Y12729620D01*
X5953428Y12301048D02*
X6048666Y12348667D01*
X6096285Y12396286D01*
X6143904Y12491524D01*
X6143904Y12539143D01*
X6096285Y12634381D01*
X6048666Y12682000D01*
X5953428Y12729620D01*
X5762952Y12729620D01*
X5667714Y12682000D01*
X5620095Y12634381D01*
X5572476Y12539143D01*
X5572476Y12491524D01*
X5620095Y12396286D01*
X5667714Y12348667D01*
X5762952Y12301048D01*
X5953428Y12301048D01*
X6048666Y12253429D01*
X6096285Y12205810D01*
X6143904Y12110572D01*
X6143904Y11920096D01*
X6096285Y11824858D01*
X6048666Y11777239D01*
X5953428Y11729620D01*
X5762952Y11729620D01*
X5667714Y11777239D01*
X5620095Y11824858D01*
X5572476Y11920096D01*
X5572476Y12110572D01*
X5620095Y12205810D01*
X5667714Y12253429D01*
X5762952Y12301048D01*
X46894904Y39399620D02*
X46894904Y38590096D01*
X46847285Y38494858D01*
X46799666Y38447239D01*
X46704428Y38399620D01*
X46513952Y38399620D01*
X46418714Y38447239D01*
X46371095Y38494858D01*
X46323476Y38590096D01*
X46323476Y39399620D01*
X45942523Y39399620D02*
X45275857Y39399620D01*
X45704428Y38399620D01*
X6508904Y18571620D02*
X6508904Y17762096D01*
X6461285Y17666858D01*
X6413666Y17619239D01*
X6318428Y17571620D01*
X6127952Y17571620D01*
X6032714Y17619239D01*
X5985095Y17666858D01*
X5937476Y17762096D01*
X5937476Y18571620D01*
X5032714Y18571620D02*
X5223190Y18571620D01*
X5318428Y18524000D01*
X5366047Y18476381D01*
X5461285Y18333524D01*
X5508904Y18143048D01*
X5508904Y17762096D01*
X5461285Y17666858D01*
X5413666Y17619239D01*
X5318428Y17571620D01*
X5127952Y17571620D01*
X5032714Y17619239D01*
X4985095Y17666858D01*
X4937476Y17762096D01*
X4937476Y18000191D01*
X4985095Y18095429D01*
X5032714Y18143048D01*
X5127952Y18190667D01*
X5318428Y18190667D01*
X5413666Y18143048D01*
X5461285Y18095429D01*
X5508904Y18000191D01*
X45241904Y16225620D02*
X45241904Y15416096D01*
X45194285Y15320858D01*
X45146666Y15273239D01*
X45051428Y15225620D01*
X44860952Y15225620D01*
X44765714Y15273239D01*
X44718095Y15320858D01*
X44670476Y15416096D01*
X44670476Y16225620D01*
X44289523Y16225620D02*
X43670476Y16225620D01*
X44003809Y15844667D01*
X43860952Y15844667D01*
X43765714Y15797048D01*
X43718095Y15749429D01*
X43670476Y15654191D01*
X43670476Y15416096D01*
X43718095Y15320858D01*
X43765714Y15273239D01*
X43860952Y15225620D01*
X44146666Y15225620D01*
X44241904Y15273239D01*
X44289523Y15320858D01*
X14763904Y24667620D02*
X14763904Y23858096D01*
X14716285Y23762858D01*
X14668666Y23715239D01*
X14573428Y23667620D01*
X14382952Y23667620D01*
X14287714Y23715239D01*
X14240095Y23762858D01*
X14192476Y23858096D01*
X14192476Y24667620D01*
X13240095Y24667620D02*
X13716285Y24667620D01*
X13763904Y24191429D01*
X13716285Y24239048D01*
X13621047Y24286667D01*
X13382952Y24286667D01*
X13287714Y24239048D01*
X13240095Y24191429D01*
X13192476Y24096191D01*
X13192476Y23858096D01*
X13240095Y23762858D01*
X13287714Y23715239D01*
X13382952Y23667620D01*
X13621047Y23667620D01*
X13716285Y23715239D01*
X13763904Y23762858D01*
X14557619Y13543334D02*
X14557619Y13067143D01*
X15557619Y13067143D01*
X15557619Y14352858D02*
X15557619Y13876667D01*
X15081428Y13829048D01*
X15129047Y13876667D01*
X15176666Y13971905D01*
X15176666Y14210000D01*
X15129047Y14305239D01*
X15081428Y14352858D01*
X14986190Y14400477D01*
X14748095Y14400477D01*
X14652857Y14352858D01*
X14605238Y14305239D01*
X14557619Y14210000D01*
X14557619Y13971905D01*
X14605238Y13876667D01*
X14652857Y13829048D01*
X42442380Y37066667D02*
X42442380Y37542858D01*
X41442380Y37542858D01*
X41775714Y36304762D02*
X42442380Y36304762D01*
X41394761Y36542858D02*
X42109047Y36780953D01*
X42109047Y36161905D01*
X14029619Y19753334D02*
X14029619Y19277143D01*
X15029619Y19277143D01*
X15029619Y19991429D02*
X15029619Y20610477D01*
X14648666Y20277143D01*
X14648666Y20420000D01*
X14601047Y20515239D01*
X14553428Y20562858D01*
X14458190Y20610477D01*
X14220095Y20610477D01*
X14124857Y20562858D01*
X14077238Y20515239D01*
X14029619Y20420000D01*
X14029619Y20134286D01*
X14077238Y20039048D01*
X14124857Y19991429D01*
X15446666Y25607620D02*
X15922857Y25607620D01*
X15922857Y26607620D01*
X15160952Y26512381D02*
X15113333Y26560000D01*
X15018095Y26607620D01*
X14780000Y26607620D01*
X14684761Y26560000D01*
X14637142Y26512381D01*
X14589523Y26417143D01*
X14589523Y26321905D01*
X14637142Y26179048D01*
X15208571Y25607620D01*
X14589523Y25607620D01*
X45986666Y10627620D02*
X46462857Y10627620D01*
X46462857Y11627620D01*
X45129523Y10627620D02*
X45700952Y10627620D01*
X45415238Y10627620D02*
X45415238Y11627620D01*
X45510476Y11484762D01*
X45605714Y11389524D01*
X45700952Y11341905D01*
X47029857Y18587620D02*
X47363190Y19063810D01*
X47601285Y18587620D02*
X47601285Y19587620D01*
X47220333Y19587620D01*
X47125095Y19540000D01*
X47077476Y19492381D01*
X47029857Y19397143D01*
X47029857Y19254286D01*
X47077476Y19159048D01*
X47125095Y19111429D01*
X47220333Y19063810D01*
X47601285Y19063810D01*
X46696523Y19587620D02*
X46077476Y19587620D01*
X46410809Y19206667D01*
X46267952Y19206667D01*
X46172714Y19159048D01*
X46125095Y19111429D01*
X46077476Y19016191D01*
X46077476Y18778096D01*
X46125095Y18682858D01*
X46172714Y18635239D01*
X46267952Y18587620D01*
X46553666Y18587620D01*
X46648904Y18635239D01*
X46696523Y18682858D01*
X45601285Y18587620D02*
X45410809Y18587620D01*
X45315571Y18635239D01*
X45267952Y18682858D01*
X45172714Y18825715D01*
X45125095Y19016191D01*
X45125095Y19397143D01*
X45172714Y19492381D01*
X45220333Y19540000D01*
X45315571Y19587620D01*
X45506047Y19587620D01*
X45601285Y19540000D01*
X45648904Y19492381D01*
X45696523Y19397143D01*
X45696523Y19159048D01*
X45648904Y19063810D01*
X45601285Y19016191D01*
X45506047Y18968572D01*
X45315571Y18968572D01*
X45220333Y19016191D01*
X45172714Y19063810D01*
X45125095Y19159048D01*
X50712857Y20492620D02*
X51046190Y20968810D01*
X51284285Y20492620D02*
X51284285Y21492620D01*
X50903333Y21492620D01*
X50808095Y21445000D01*
X50760476Y21397381D01*
X50712857Y21302143D01*
X50712857Y21159286D01*
X50760476Y21064048D01*
X50808095Y21016429D01*
X50903333Y20968810D01*
X51284285Y20968810D01*
X50379523Y21492620D02*
X49760476Y21492620D01*
X50093809Y21111667D01*
X49950952Y21111667D01*
X49855714Y21064048D01*
X49808095Y21016429D01*
X49760476Y20921191D01*
X49760476Y20683096D01*
X49808095Y20587858D01*
X49855714Y20540239D01*
X49950952Y20492620D01*
X50236666Y20492620D01*
X50331904Y20540239D01*
X50379523Y20587858D01*
X49189047Y21064048D02*
X49284285Y21111667D01*
X49331904Y21159286D01*
X49379523Y21254524D01*
X49379523Y21302143D01*
X49331904Y21397381D01*
X49284285Y21445000D01*
X49189047Y21492620D01*
X48998571Y21492620D01*
X48903333Y21445000D01*
X48855714Y21397381D01*
X48808095Y21302143D01*
X48808095Y21254524D01*
X48855714Y21159286D01*
X48903333Y21111667D01*
X48998571Y21064048D01*
X49189047Y21064048D01*
X49284285Y21016429D01*
X49331904Y20968810D01*
X49379523Y20873572D01*
X49379523Y20683096D01*
X49331904Y20587858D01*
X49284285Y20540239D01*
X49189047Y20492620D01*
X48998571Y20492620D01*
X48903333Y20540239D01*
X48855714Y20587858D01*
X48808095Y20683096D01*
X48808095Y20873572D01*
X48855714Y20968810D01*
X48903333Y21016429D01*
X48998571Y21064048D01*
X43791380Y20317858D02*
X43315190Y20651191D01*
X43791380Y20889286D02*
X42791380Y20889286D01*
X42791380Y20508334D01*
X42839000Y20413096D01*
X42886619Y20365477D01*
X42981857Y20317858D01*
X43124714Y20317858D01*
X43219952Y20365477D01*
X43267571Y20413096D01*
X43315190Y20508334D01*
X43315190Y20889286D01*
X42791380Y19984524D02*
X42791380Y19365477D01*
X43172333Y19698810D01*
X43172333Y19555953D01*
X43219952Y19460715D01*
X43267571Y19413096D01*
X43362809Y19365477D01*
X43600904Y19365477D01*
X43696142Y19413096D01*
X43743761Y19460715D01*
X43791380Y19555953D01*
X43791380Y19841667D01*
X43743761Y19936905D01*
X43696142Y19984524D01*
X42791380Y18508334D02*
X42791380Y18698810D01*
X42839000Y18794048D01*
X42886619Y18841667D01*
X43029476Y18936905D01*
X43219952Y18984524D01*
X43600904Y18984524D01*
X43696142Y18936905D01*
X43743761Y18889286D01*
X43791380Y18794048D01*
X43791380Y18603572D01*
X43743761Y18508334D01*
X43696142Y18460715D01*
X43600904Y18413096D01*
X43362809Y18413096D01*
X43267571Y18460715D01*
X43219952Y18508334D01*
X43172333Y18603572D01*
X43172333Y18794048D01*
X43219952Y18889286D01*
X43267571Y18936905D01*
X43362809Y18984524D01*
X48172857Y27350620D02*
X48506190Y27826810D01*
X48744285Y27350620D02*
X48744285Y28350620D01*
X48363333Y28350620D01*
X48268095Y28303000D01*
X48220476Y28255381D01*
X48172857Y28160143D01*
X48172857Y28017286D01*
X48220476Y27922048D01*
X48268095Y27874429D01*
X48363333Y27826810D01*
X48744285Y27826810D01*
X47839523Y28350620D02*
X47220476Y28350620D01*
X47553809Y27969667D01*
X47410952Y27969667D01*
X47315714Y27922048D01*
X47268095Y27874429D01*
X47220476Y27779191D01*
X47220476Y27541096D01*
X47268095Y27445858D01*
X47315714Y27398239D01*
X47410952Y27350620D01*
X47696666Y27350620D01*
X47791904Y27398239D01*
X47839523Y27445858D01*
X46887142Y28350620D02*
X46268095Y28350620D01*
X46601428Y27969667D01*
X46458571Y27969667D01*
X46363333Y27922048D01*
X46315714Y27874429D01*
X46268095Y27779191D01*
X46268095Y27541096D01*
X46315714Y27445858D01*
X46363333Y27398239D01*
X46458571Y27350620D01*
X46744285Y27350620D01*
X46839523Y27398239D01*
X46887142Y27445858D01*
X13628857Y33573620D02*
X13962190Y34049810D01*
X14200285Y33573620D02*
X14200285Y34573620D01*
X13819333Y34573620D01*
X13724095Y34526000D01*
X13676476Y34478381D01*
X13628857Y34383143D01*
X13628857Y34240286D01*
X13676476Y34145048D01*
X13724095Y34097429D01*
X13819333Y34049810D01*
X14200285Y34049810D01*
X13295523Y34573620D02*
X12676476Y34573620D01*
X13009809Y34192667D01*
X12866952Y34192667D01*
X12771714Y34145048D01*
X12724095Y34097429D01*
X12676476Y34002191D01*
X12676476Y33764096D01*
X12724095Y33668858D01*
X12771714Y33621239D01*
X12866952Y33573620D01*
X13152666Y33573620D01*
X13247904Y33621239D01*
X13295523Y33668858D01*
X12295523Y34478381D02*
X12247904Y34526000D01*
X12152666Y34573620D01*
X11914571Y34573620D01*
X11819333Y34526000D01*
X11771714Y34478381D01*
X11724095Y34383143D01*
X11724095Y34287905D01*
X11771714Y34145048D01*
X12343142Y33573620D01*
X11724095Y33573620D01*
X14454380Y29080858D02*
X13978190Y29414191D01*
X14454380Y29652286D02*
X13454380Y29652286D01*
X13454380Y29271334D01*
X13502000Y29176096D01*
X13549619Y29128477D01*
X13644857Y29080858D01*
X13787714Y29080858D01*
X13882952Y29128477D01*
X13930571Y29176096D01*
X13978190Y29271334D01*
X13978190Y29652286D01*
X13454380Y28747524D02*
X13454380Y28128477D01*
X13835333Y28461810D01*
X13835333Y28318953D01*
X13882952Y28223715D01*
X13930571Y28176096D01*
X14025809Y28128477D01*
X14263904Y28128477D01*
X14359142Y28176096D01*
X14406761Y28223715D01*
X14454380Y28318953D01*
X14454380Y28604667D01*
X14406761Y28699905D01*
X14359142Y28747524D01*
X14454380Y27176096D02*
X14454380Y27747524D01*
X14454380Y27461810D02*
X13454380Y27461810D01*
X13597238Y27557048D01*
X13692476Y27652286D01*
X13740095Y27747524D01*
X47347380Y33271858D02*
X46871190Y33605191D01*
X47347380Y33843286D02*
X46347380Y33843286D01*
X46347380Y33462334D01*
X46395000Y33367096D01*
X46442619Y33319477D01*
X46537857Y33271858D01*
X46680714Y33271858D01*
X46775952Y33319477D01*
X46823571Y33367096D01*
X46871190Y33462334D01*
X46871190Y33843286D01*
X46442619Y32890905D02*
X46395000Y32843286D01*
X46347380Y32748048D01*
X46347380Y32509953D01*
X46395000Y32414715D01*
X46442619Y32367096D01*
X46537857Y32319477D01*
X46633095Y32319477D01*
X46775952Y32367096D01*
X47347380Y32938524D01*
X47347380Y32319477D01*
X46347380Y31414715D02*
X46347380Y31890905D01*
X46823571Y31938524D01*
X46775952Y31890905D01*
X46728333Y31795667D01*
X46728333Y31557572D01*
X46775952Y31462334D01*
X46823571Y31414715D01*
X46918809Y31367096D01*
X47156904Y31367096D01*
X47252142Y31414715D01*
X47299761Y31462334D01*
X47347380Y31557572D01*
X47347380Y31795667D01*
X47299761Y31890905D01*
X47252142Y31938524D01*
X13247857Y15158620D02*
X13581190Y15634810D01*
X13819285Y15158620D02*
X13819285Y16158620D01*
X13438333Y16158620D01*
X13343095Y16111000D01*
X13295476Y16063381D01*
X13247857Y15968143D01*
X13247857Y15825286D01*
X13295476Y15730048D01*
X13343095Y15682429D01*
X13438333Y15634810D01*
X13819285Y15634810D01*
X12866904Y16063381D02*
X12819285Y16111000D01*
X12724047Y16158620D01*
X12485952Y16158620D01*
X12390714Y16111000D01*
X12343095Y16063381D01*
X12295476Y15968143D01*
X12295476Y15872905D01*
X12343095Y15730048D01*
X12914523Y15158620D01*
X12295476Y15158620D01*
X11438333Y15825286D02*
X11438333Y15158620D01*
X11676428Y16206239D02*
X11914523Y15491953D01*
X11295476Y15491953D01*
X8421857Y13634620D02*
X8755190Y14110810D01*
X8993285Y13634620D02*
X8993285Y14634620D01*
X8612333Y14634620D01*
X8517095Y14587000D01*
X8469476Y14539381D01*
X8421857Y14444143D01*
X8421857Y14301286D01*
X8469476Y14206048D01*
X8517095Y14158429D01*
X8612333Y14110810D01*
X8993285Y14110810D01*
X8040904Y14539381D02*
X7993285Y14587000D01*
X7898047Y14634620D01*
X7659952Y14634620D01*
X7564714Y14587000D01*
X7517095Y14539381D01*
X7469476Y14444143D01*
X7469476Y14348905D01*
X7517095Y14206048D01*
X8088523Y13634620D01*
X7469476Y13634620D01*
X7136142Y14634620D02*
X6517095Y14634620D01*
X6850428Y14253667D01*
X6707571Y14253667D01*
X6612333Y14206048D01*
X6564714Y14158429D01*
X6517095Y14063191D01*
X6517095Y13825096D01*
X6564714Y13729858D01*
X6612333Y13682239D01*
X6707571Y13634620D01*
X6993285Y13634620D01*
X7088523Y13682239D01*
X7136142Y13729858D01*
X51474857Y33573620D02*
X51808190Y34049810D01*
X52046285Y33573620D02*
X52046285Y34573620D01*
X51665333Y34573620D01*
X51570095Y34526000D01*
X51522476Y34478381D01*
X51474857Y34383143D01*
X51474857Y34240286D01*
X51522476Y34145048D01*
X51570095Y34097429D01*
X51665333Y34049810D01*
X52046285Y34049810D01*
X51093904Y34478381D02*
X51046285Y34526000D01*
X50951047Y34573620D01*
X50712952Y34573620D01*
X50617714Y34526000D01*
X50570095Y34478381D01*
X50522476Y34383143D01*
X50522476Y34287905D01*
X50570095Y34145048D01*
X51141523Y33573620D01*
X50522476Y33573620D01*
X50141523Y34478381D02*
X50093904Y34526000D01*
X49998666Y34573620D01*
X49760571Y34573620D01*
X49665333Y34526000D01*
X49617714Y34478381D01*
X49570095Y34383143D01*
X49570095Y34287905D01*
X49617714Y34145048D01*
X50189142Y33573620D01*
X49570095Y33573620D01*
X6643857Y14904620D02*
X6977190Y15380810D01*
X7215285Y14904620D02*
X7215285Y15904620D01*
X6834333Y15904620D01*
X6739095Y15857000D01*
X6691476Y15809381D01*
X6643857Y15714143D01*
X6643857Y15571286D01*
X6691476Y15476048D01*
X6739095Y15428429D01*
X6834333Y15380810D01*
X7215285Y15380810D01*
X6262904Y15809381D02*
X6215285Y15857000D01*
X6120047Y15904620D01*
X5881952Y15904620D01*
X5786714Y15857000D01*
X5739095Y15809381D01*
X5691476Y15714143D01*
X5691476Y15618905D01*
X5739095Y15476048D01*
X6310523Y14904620D01*
X5691476Y14904620D01*
X4739095Y14904620D02*
X5310523Y14904620D01*
X5024809Y14904620D02*
X5024809Y15904620D01*
X5120047Y15761762D01*
X5215285Y15666524D01*
X5310523Y15618905D01*
X52102380Y36932858D02*
X51626190Y37266191D01*
X52102380Y37504286D02*
X51102380Y37504286D01*
X51102380Y37123334D01*
X51150000Y37028096D01*
X51197619Y36980477D01*
X51292857Y36932858D01*
X51435714Y36932858D01*
X51530952Y36980477D01*
X51578571Y37028096D01*
X51626190Y37123334D01*
X51626190Y37504286D01*
X51197619Y36551905D02*
X51150000Y36504286D01*
X51102380Y36409048D01*
X51102380Y36170953D01*
X51150000Y36075715D01*
X51197619Y36028096D01*
X51292857Y35980477D01*
X51388095Y35980477D01*
X51530952Y36028096D01*
X52102380Y36599524D01*
X52102380Y35980477D01*
X51102380Y35361429D02*
X51102380Y35266191D01*
X51150000Y35170953D01*
X51197619Y35123334D01*
X51292857Y35075715D01*
X51483333Y35028096D01*
X51721428Y35028096D01*
X51911904Y35075715D01*
X52007142Y35123334D01*
X52054761Y35170953D01*
X52102380Y35266191D01*
X52102380Y35361429D01*
X52054761Y35456667D01*
X52007142Y35504286D01*
X51911904Y35551905D01*
X51721428Y35599524D01*
X51483333Y35599524D01*
X51292857Y35551905D01*
X51197619Y35504286D01*
X51150000Y35456667D01*
X51102380Y35361429D01*
X11723857Y23032620D02*
X12057190Y23508810D01*
X12295285Y23032620D02*
X12295285Y24032620D01*
X11914333Y24032620D01*
X11819095Y23985000D01*
X11771476Y23937381D01*
X11723857Y23842143D01*
X11723857Y23699286D01*
X11771476Y23604048D01*
X11819095Y23556429D01*
X11914333Y23508810D01*
X12295285Y23508810D01*
X10771476Y23032620D02*
X11342904Y23032620D01*
X11057190Y23032620D02*
X11057190Y24032620D01*
X11152428Y23889762D01*
X11247666Y23794524D01*
X11342904Y23746905D01*
X10295285Y23032620D02*
X10104809Y23032620D01*
X10009571Y23080239D01*
X9961952Y23127858D01*
X9866714Y23270715D01*
X9819095Y23461191D01*
X9819095Y23842143D01*
X9866714Y23937381D01*
X9914333Y23985000D01*
X10009571Y24032620D01*
X10200047Y24032620D01*
X10295285Y23985000D01*
X10342904Y23937381D01*
X10390523Y23842143D01*
X10390523Y23604048D01*
X10342904Y23508810D01*
X10295285Y23461191D01*
X10200047Y23413572D01*
X10009571Y23413572D01*
X9914333Y23461191D01*
X9866714Y23508810D01*
X9819095Y23604048D01*
X11723857Y21762620D02*
X12057190Y22238810D01*
X12295285Y21762620D02*
X12295285Y22762620D01*
X11914333Y22762620D01*
X11819095Y22715000D01*
X11771476Y22667381D01*
X11723857Y22572143D01*
X11723857Y22429286D01*
X11771476Y22334048D01*
X11819095Y22286429D01*
X11914333Y22238810D01*
X12295285Y22238810D01*
X10771476Y21762620D02*
X11342904Y21762620D01*
X11057190Y21762620D02*
X11057190Y22762620D01*
X11152428Y22619762D01*
X11247666Y22524524D01*
X11342904Y22476905D01*
X10200047Y22334048D02*
X10295285Y22381667D01*
X10342904Y22429286D01*
X10390523Y22524524D01*
X10390523Y22572143D01*
X10342904Y22667381D01*
X10295285Y22715000D01*
X10200047Y22762620D01*
X10009571Y22762620D01*
X9914333Y22715000D01*
X9866714Y22667381D01*
X9819095Y22572143D01*
X9819095Y22524524D01*
X9866714Y22429286D01*
X9914333Y22381667D01*
X10009571Y22334048D01*
X10200047Y22334048D01*
X10295285Y22286429D01*
X10342904Y22238810D01*
X10390523Y22143572D01*
X10390523Y21953096D01*
X10342904Y21857858D01*
X10295285Y21810239D01*
X10200047Y21762620D01*
X10009571Y21762620D01*
X9914333Y21810239D01*
X9866714Y21857858D01*
X9819095Y21953096D01*
X9819095Y22143572D01*
X9866714Y22238810D01*
X9914333Y22286429D01*
X10009571Y22334048D01*
X12358857Y27477620D02*
X12692190Y27953810D01*
X12930285Y27477620D02*
X12930285Y28477620D01*
X12549333Y28477620D01*
X12454095Y28430000D01*
X12406476Y28382381D01*
X12358857Y28287143D01*
X12358857Y28144286D01*
X12406476Y28049048D01*
X12454095Y28001429D01*
X12549333Y27953810D01*
X12930285Y27953810D01*
X11406476Y27477620D02*
X11977904Y27477620D01*
X11692190Y27477620D02*
X11692190Y28477620D01*
X11787428Y28334762D01*
X11882666Y28239524D01*
X11977904Y28191905D01*
X11073142Y28477620D02*
X10406476Y28477620D01*
X10835047Y27477620D01*
X8485380Y29080858D02*
X8009190Y29414191D01*
X8485380Y29652286D02*
X7485380Y29652286D01*
X7485380Y29271334D01*
X7533000Y29176096D01*
X7580619Y29128477D01*
X7675857Y29080858D01*
X7818714Y29080858D01*
X7913952Y29128477D01*
X7961571Y29176096D01*
X8009190Y29271334D01*
X8009190Y29652286D01*
X8485380Y28128477D02*
X8485380Y28699905D01*
X8485380Y28414191D02*
X7485380Y28414191D01*
X7628238Y28509429D01*
X7723476Y28604667D01*
X7771095Y28699905D01*
X7485380Y27271334D02*
X7485380Y27461810D01*
X7533000Y27557048D01*
X7580619Y27604667D01*
X7723476Y27699905D01*
X7913952Y27747524D01*
X8294904Y27747524D01*
X8390142Y27699905D01*
X8437761Y27652286D01*
X8485380Y27557048D01*
X8485380Y27366572D01*
X8437761Y27271334D01*
X8390142Y27223715D01*
X8294904Y27176096D01*
X8056809Y27176096D01*
X7961571Y27223715D01*
X7913952Y27271334D01*
X7866333Y27366572D01*
X7866333Y27557048D01*
X7913952Y27652286D01*
X7961571Y27699905D01*
X8056809Y27747524D01*
X51601857Y14904620D02*
X51935190Y15380810D01*
X52173285Y14904620D02*
X52173285Y15904620D01*
X51792333Y15904620D01*
X51697095Y15857000D01*
X51649476Y15809381D01*
X51601857Y15714143D01*
X51601857Y15571286D01*
X51649476Y15476048D01*
X51697095Y15428429D01*
X51792333Y15380810D01*
X52173285Y15380810D01*
X50649476Y14904620D02*
X51220904Y14904620D01*
X50935190Y14904620D02*
X50935190Y15904620D01*
X51030428Y15761762D01*
X51125666Y15666524D01*
X51220904Y15618905D01*
X49744714Y15904620D02*
X50220904Y15904620D01*
X50268523Y15428429D01*
X50220904Y15476048D01*
X50125666Y15523667D01*
X49887571Y15523667D01*
X49792333Y15476048D01*
X49744714Y15428429D01*
X49697095Y15333191D01*
X49697095Y15095096D01*
X49744714Y14999858D01*
X49792333Y14952239D01*
X49887571Y14904620D01*
X50125666Y14904620D01*
X50220904Y14952239D01*
X50268523Y14999858D01*
X5945380Y25270858D02*
X5469190Y25604191D01*
X5945380Y25842286D02*
X4945380Y25842286D01*
X4945380Y25461334D01*
X4993000Y25366096D01*
X5040619Y25318477D01*
X5135857Y25270858D01*
X5278714Y25270858D01*
X5373952Y25318477D01*
X5421571Y25366096D01*
X5469190Y25461334D01*
X5469190Y25842286D01*
X5945380Y24318477D02*
X5945380Y24889905D01*
X5945380Y24604191D02*
X4945380Y24604191D01*
X5088238Y24699429D01*
X5183476Y24794667D01*
X5231095Y24889905D01*
X5278714Y23461334D02*
X5945380Y23461334D01*
X4897761Y23699429D02*
X5612047Y23937524D01*
X5612047Y23318477D01*
X51601857Y16809620D02*
X51935190Y17285810D01*
X52173285Y16809620D02*
X52173285Y17809620D01*
X51792333Y17809620D01*
X51697095Y17762000D01*
X51649476Y17714381D01*
X51601857Y17619143D01*
X51601857Y17476286D01*
X51649476Y17381048D01*
X51697095Y17333429D01*
X51792333Y17285810D01*
X52173285Y17285810D01*
X50649476Y16809620D02*
X51220904Y16809620D01*
X50935190Y16809620D02*
X50935190Y17809620D01*
X51030428Y17666762D01*
X51125666Y17571524D01*
X51220904Y17523905D01*
X50316142Y17809620D02*
X49697095Y17809620D01*
X50030428Y17428667D01*
X49887571Y17428667D01*
X49792333Y17381048D01*
X49744714Y17333429D01*
X49697095Y17238191D01*
X49697095Y17000096D01*
X49744714Y16904858D01*
X49792333Y16857239D01*
X49887571Y16809620D01*
X50173285Y16809620D01*
X50268523Y16857239D01*
X50316142Y16904858D01*
X51601857Y18422520D02*
X51935190Y18898710D01*
X52173285Y18422520D02*
X52173285Y19422520D01*
X51792333Y19422520D01*
X51697095Y19374900D01*
X51649476Y19327281D01*
X51601857Y19232043D01*
X51601857Y19089186D01*
X51649476Y18993948D01*
X51697095Y18946329D01*
X51792333Y18898710D01*
X52173285Y18898710D01*
X50649476Y18422520D02*
X51220904Y18422520D01*
X50935190Y18422520D02*
X50935190Y19422520D01*
X51030428Y19279662D01*
X51125666Y19184424D01*
X51220904Y19136805D01*
X50268523Y19327281D02*
X50220904Y19374900D01*
X50125666Y19422520D01*
X49887571Y19422520D01*
X49792333Y19374900D01*
X49744714Y19327281D01*
X49697095Y19232043D01*
X49697095Y19136805D01*
X49744714Y18993948D01*
X50316142Y18422520D01*
X49697095Y18422520D01*
X6516857Y28366620D02*
X6850190Y28842810D01*
X7088285Y28366620D02*
X7088285Y29366620D01*
X6707333Y29366620D01*
X6612095Y29319000D01*
X6564476Y29271381D01*
X6516857Y29176143D01*
X6516857Y29033286D01*
X6564476Y28938048D01*
X6612095Y28890429D01*
X6707333Y28842810D01*
X7088285Y28842810D01*
X5564476Y28366620D02*
X6135904Y28366620D01*
X5850190Y28366620D02*
X5850190Y29366620D01*
X5945428Y29223762D01*
X6040666Y29128524D01*
X6135904Y29080905D01*
X4612095Y28366620D02*
X5183523Y28366620D01*
X4897809Y28366620D02*
X4897809Y29366620D01*
X4993047Y29223762D01*
X5088285Y29128524D01*
X5183523Y29080905D01*
X43061142Y22984858D02*
X43108761Y23032477D01*
X43156380Y23175334D01*
X43156380Y23270572D01*
X43108761Y23413429D01*
X43013523Y23508667D01*
X42918285Y23556286D01*
X42727809Y23603905D01*
X42584952Y23603905D01*
X42394476Y23556286D01*
X42299238Y23508667D01*
X42204000Y23413429D01*
X42156380Y23270572D01*
X42156380Y23175334D01*
X42204000Y23032477D01*
X42251619Y22984858D01*
X42156380Y22651524D02*
X42156380Y22032477D01*
X42537333Y22365810D01*
X42537333Y22222953D01*
X42584952Y22127715D01*
X42632571Y22080096D01*
X42727809Y22032477D01*
X42965904Y22032477D01*
X43061142Y22080096D01*
X43108761Y22127715D01*
X43156380Y22222953D01*
X43156380Y22508667D01*
X43108761Y22603905D01*
X43061142Y22651524D01*
X42156380Y21175334D02*
X42156380Y21365810D01*
X42204000Y21461048D01*
X42251619Y21508667D01*
X42394476Y21603905D01*
X42584952Y21651524D01*
X42965904Y21651524D01*
X43061142Y21603905D01*
X43108761Y21556286D01*
X43156380Y21461048D01*
X43156380Y21270572D01*
X43108761Y21175334D01*
X43061142Y21127715D01*
X42965904Y21080096D01*
X42727809Y21080096D01*
X42632571Y21127715D01*
X42584952Y21175334D01*
X42537333Y21270572D01*
X42537333Y21461048D01*
X42584952Y21556286D01*
X42632571Y21603905D01*
X42727809Y21651524D01*
X15629142Y29080858D02*
X15676761Y29128477D01*
X15724380Y29271334D01*
X15724380Y29366572D01*
X15676761Y29509429D01*
X15581523Y29604667D01*
X15486285Y29652286D01*
X15295809Y29699905D01*
X15152952Y29699905D01*
X14962476Y29652286D01*
X14867238Y29604667D01*
X14772000Y29509429D01*
X14724380Y29366572D01*
X14724380Y29271334D01*
X14772000Y29128477D01*
X14819619Y29080858D01*
X14724380Y28747524D02*
X14724380Y28128477D01*
X15105333Y28461810D01*
X15105333Y28318953D01*
X15152952Y28223715D01*
X15200571Y28176096D01*
X15295809Y28128477D01*
X15533904Y28128477D01*
X15629142Y28176096D01*
X15676761Y28223715D01*
X15724380Y28318953D01*
X15724380Y28604667D01*
X15676761Y28699905D01*
X15629142Y28747524D01*
X14724380Y27223715D02*
X14724380Y27699905D01*
X15200571Y27747524D01*
X15152952Y27699905D01*
X15105333Y27604667D01*
X15105333Y27366572D01*
X15152952Y27271334D01*
X15200571Y27223715D01*
X15295809Y27176096D01*
X15533904Y27176096D01*
X15629142Y27223715D01*
X15676761Y27271334D01*
X15724380Y27366572D01*
X15724380Y27604667D01*
X15676761Y27699905D01*
X15629142Y27747524D01*
X43981857Y25921858D02*
X44029476Y25874239D01*
X44172333Y25826620D01*
X44267571Y25826620D01*
X44410428Y25874239D01*
X44505666Y25969477D01*
X44553285Y26064715D01*
X44600904Y26255191D01*
X44600904Y26398048D01*
X44553285Y26588524D01*
X44505666Y26683762D01*
X44410428Y26779000D01*
X44267571Y26826620D01*
X44172333Y26826620D01*
X44029476Y26779000D01*
X43981857Y26731381D01*
X43029476Y25826620D02*
X43600904Y25826620D01*
X43315190Y25826620D02*
X43315190Y26826620D01*
X43410428Y26683762D01*
X43505666Y26588524D01*
X43600904Y26540905D01*
X42172333Y26826620D02*
X42362809Y26826620D01*
X42458047Y26779000D01*
X42505666Y26731381D01*
X42600904Y26588524D01*
X42648523Y26398048D01*
X42648523Y26017096D01*
X42600904Y25921858D01*
X42553285Y25874239D01*
X42458047Y25826620D01*
X42267571Y25826620D01*
X42172333Y25874239D01*
X42124714Y25921858D01*
X42077095Y26017096D01*
X42077095Y26255191D01*
X42124714Y26350429D01*
X42172333Y26398048D01*
X42267571Y26445667D01*
X42458047Y26445667D01*
X42553285Y26398048D01*
X42600904Y26350429D01*
X42648523Y26255191D01*
X8294857Y32144858D02*
X8342476Y32097239D01*
X8485333Y32049620D01*
X8580571Y32049620D01*
X8723428Y32097239D01*
X8818666Y32192477D01*
X8866285Y32287715D01*
X8913904Y32478191D01*
X8913904Y32621048D01*
X8866285Y32811524D01*
X8818666Y32906762D01*
X8723428Y33002000D01*
X8580571Y33049620D01*
X8485333Y33049620D01*
X8342476Y33002000D01*
X8294857Y32954381D01*
X7342476Y32049620D02*
X7913904Y32049620D01*
X7628190Y32049620D02*
X7628190Y33049620D01*
X7723428Y32906762D01*
X7818666Y32811524D01*
X7913904Y32763905D01*
X6437714Y33049620D02*
X6913904Y33049620D01*
X6961523Y32573429D01*
X6913904Y32621048D01*
X6818666Y32668667D01*
X6580571Y32668667D01*
X6485333Y32621048D01*
X6437714Y32573429D01*
X6390095Y32478191D01*
X6390095Y32240096D01*
X6437714Y32144858D01*
X6485333Y32097239D01*
X6580571Y32049620D01*
X6818666Y32049620D01*
X6913904Y32097239D01*
X6961523Y32144858D01*
X12812857Y7212858D02*
X12860476Y7165239D01*
X13003333Y7117620D01*
X13098571Y7117620D01*
X13241428Y7165239D01*
X13336666Y7260477D01*
X13384285Y7355715D01*
X13431904Y7546191D01*
X13431904Y7689048D01*
X13384285Y7879524D01*
X13336666Y7974762D01*
X13241428Y8070000D01*
X13098571Y8117620D01*
X13003333Y8117620D01*
X12860476Y8070000D01*
X12812857Y8022381D01*
X11860476Y7117620D02*
X12431904Y7117620D01*
X12146190Y7117620D02*
X12146190Y8117620D01*
X12241428Y7974762D01*
X12336666Y7879524D01*
X12431904Y7831905D01*
X11003333Y7784286D02*
X11003333Y7117620D01*
X11241428Y8165239D02*
X11479523Y7450953D01*
X10860476Y7450953D01*
X44822857Y34102858D02*
X44870476Y34055239D01*
X45013333Y34007620D01*
X45108571Y34007620D01*
X45251428Y34055239D01*
X45346666Y34150477D01*
X45394285Y34245715D01*
X45441904Y34436191D01*
X45441904Y34579048D01*
X45394285Y34769524D01*
X45346666Y34864762D01*
X45251428Y34960000D01*
X45108571Y35007620D01*
X45013333Y35007620D01*
X44870476Y34960000D01*
X44822857Y34912381D01*
X43870476Y34007620D02*
X44441904Y34007620D01*
X44156190Y34007620D02*
X44156190Y35007620D01*
X44251428Y34864762D01*
X44346666Y34769524D01*
X44441904Y34721905D01*
X43537142Y35007620D02*
X42918095Y35007620D01*
X43251428Y34626667D01*
X43108571Y34626667D01*
X43013333Y34579048D01*
X42965714Y34531429D01*
X42918095Y34436191D01*
X42918095Y34198096D01*
X42965714Y34102858D01*
X43013333Y34055239D01*
X43108571Y34007620D01*
X43394285Y34007620D01*
X43489523Y34055239D01*
X43537142Y34102858D01*
X13120857Y16904858D02*
X13168476Y16857239D01*
X13311333Y16809620D01*
X13406571Y16809620D01*
X13549428Y16857239D01*
X13644666Y16952477D01*
X13692285Y17047715D01*
X13739904Y17238191D01*
X13739904Y17381048D01*
X13692285Y17571524D01*
X13644666Y17666762D01*
X13549428Y17762000D01*
X13406571Y17809620D01*
X13311333Y17809620D01*
X13168476Y17762000D01*
X13120857Y17714381D01*
X12168476Y16809620D02*
X12739904Y16809620D01*
X12454190Y16809620D02*
X12454190Y17809620D01*
X12549428Y17666762D01*
X12644666Y17571524D01*
X12739904Y17523905D01*
X11787523Y17714381D02*
X11739904Y17762000D01*
X11644666Y17809620D01*
X11406571Y17809620D01*
X11311333Y17762000D01*
X11263714Y17714381D01*
X11216095Y17619143D01*
X11216095Y17523905D01*
X11263714Y17381048D01*
X11835142Y16809620D01*
X11216095Y16809620D01*
X7503857Y13363858D02*
X7551476Y13316239D01*
X7694333Y13268620D01*
X7789571Y13268620D01*
X7932428Y13316239D01*
X8027666Y13411477D01*
X8075285Y13506715D01*
X8122904Y13697191D01*
X8122904Y13840048D01*
X8075285Y14030524D01*
X8027666Y14125762D01*
X7932428Y14221000D01*
X7789571Y14268620D01*
X7694333Y14268620D01*
X7551476Y14221000D01*
X7503857Y14173381D01*
X6551476Y13268620D02*
X7122904Y13268620D01*
X6837190Y13268620D02*
X6837190Y14268620D01*
X6932428Y14125762D01*
X7027666Y14030524D01*
X7122904Y13982905D01*
X5599095Y13268620D02*
X6170523Y13268620D01*
X5884809Y13268620D02*
X5884809Y14268620D01*
X5980047Y14125762D01*
X6075285Y14030524D01*
X6170523Y13982905D01*
X51601857Y38621858D02*
X51649476Y38574239D01*
X51792333Y38526620D01*
X51887571Y38526620D01*
X52030428Y38574239D01*
X52125666Y38669477D01*
X52173285Y38764715D01*
X52220904Y38955191D01*
X52220904Y39098048D01*
X52173285Y39288524D01*
X52125666Y39383762D01*
X52030428Y39479000D01*
X51887571Y39526620D01*
X51792333Y39526620D01*
X51649476Y39479000D01*
X51601857Y39431381D01*
X50649476Y38526620D02*
X51220904Y38526620D01*
X50935190Y38526620D02*
X50935190Y39526620D01*
X51030428Y39383762D01*
X51125666Y39288524D01*
X51220904Y39240905D01*
X50030428Y39526620D02*
X49935190Y39526620D01*
X49839952Y39479000D01*
X49792333Y39431381D01*
X49744714Y39336143D01*
X49697095Y39145667D01*
X49697095Y38907572D01*
X49744714Y38717096D01*
X49792333Y38621858D01*
X49839952Y38574239D01*
X49935190Y38526620D01*
X50030428Y38526620D01*
X50125666Y38574239D01*
X50173285Y38621858D01*
X50220904Y38717096D01*
X50268523Y38907572D01*
X50268523Y39145667D01*
X50220904Y39336143D01*
X50173285Y39431381D01*
X50125666Y39479000D01*
X50030428Y39526620D01*
X18296142Y33303667D02*
X18343761Y33351286D01*
X18391380Y33494143D01*
X18391380Y33589381D01*
X18343761Y33732239D01*
X18248523Y33827477D01*
X18153285Y33875096D01*
X17962809Y33922715D01*
X17819952Y33922715D01*
X17629476Y33875096D01*
X17534238Y33827477D01*
X17439000Y33732239D01*
X17391380Y33589381D01*
X17391380Y33494143D01*
X17439000Y33351286D01*
X17486619Y33303667D01*
X18391380Y32827477D02*
X18391380Y32637000D01*
X18343761Y32541762D01*
X18296142Y32494143D01*
X18153285Y32398905D01*
X17962809Y32351286D01*
X17581857Y32351286D01*
X17486619Y32398905D01*
X17439000Y32446524D01*
X17391380Y32541762D01*
X17391380Y32732239D01*
X17439000Y32827477D01*
X17486619Y32875096D01*
X17581857Y32922715D01*
X17819952Y32922715D01*
X17915190Y32875096D01*
X17962809Y32827477D01*
X18010428Y32732239D01*
X18010428Y32541762D01*
X17962809Y32446524D01*
X17915190Y32398905D01*
X17819952Y32351286D01*
X5639142Y19826667D02*
X5686761Y19874286D01*
X5734380Y20017143D01*
X5734380Y20112381D01*
X5686761Y20255239D01*
X5591523Y20350477D01*
X5496285Y20398096D01*
X5305809Y20445715D01*
X5162952Y20445715D01*
X4972476Y20398096D01*
X4877238Y20350477D01*
X4782000Y20255239D01*
X4734380Y20112381D01*
X4734380Y20017143D01*
X4782000Y19874286D01*
X4829619Y19826667D01*
X5162952Y19255239D02*
X5115333Y19350477D01*
X5067714Y19398096D01*
X4972476Y19445715D01*
X4924857Y19445715D01*
X4829619Y19398096D01*
X4782000Y19350477D01*
X4734380Y19255239D01*
X4734380Y19064762D01*
X4782000Y18969524D01*
X4829619Y18921905D01*
X4924857Y18874286D01*
X4972476Y18874286D01*
X5067714Y18921905D01*
X5115333Y18969524D01*
X5162952Y19064762D01*
X5162952Y19255239D01*
X5210571Y19350477D01*
X5258190Y19398096D01*
X5353428Y19445715D01*
X5543904Y19445715D01*
X5639142Y19398096D01*
X5686761Y19350477D01*
X5734380Y19255239D01*
X5734380Y19064762D01*
X5686761Y18969524D01*
X5639142Y18921905D01*
X5543904Y18874286D01*
X5353428Y18874286D01*
X5258190Y18921905D01*
X5210571Y18969524D01*
X5162952Y19064762D01*
X48797142Y11066667D02*
X48844761Y11114286D01*
X48892380Y11257143D01*
X48892380Y11352381D01*
X48844761Y11495239D01*
X48749523Y11590477D01*
X48654285Y11638096D01*
X48463809Y11685715D01*
X48320952Y11685715D01*
X48130476Y11638096D01*
X48035238Y11590477D01*
X47940000Y11495239D01*
X47892380Y11352381D01*
X47892380Y11257143D01*
X47940000Y11114286D01*
X47987619Y11066667D01*
X47892380Y10733334D02*
X47892380Y10066667D01*
X48892380Y10495239D01*
X6993142Y22381667D02*
X7040761Y22429286D01*
X7088380Y22572143D01*
X7088380Y22667381D01*
X7040761Y22810239D01*
X6945523Y22905477D01*
X6850285Y22953096D01*
X6659809Y23000715D01*
X6516952Y23000715D01*
X6326476Y22953096D01*
X6231238Y22905477D01*
X6136000Y22810239D01*
X6088380Y22667381D01*
X6088380Y22572143D01*
X6136000Y22429286D01*
X6183619Y22381667D01*
X6088380Y21524524D02*
X6088380Y21715000D01*
X6136000Y21810239D01*
X6183619Y21857858D01*
X6326476Y21953096D01*
X6516952Y22000715D01*
X6897904Y22000715D01*
X6993142Y21953096D01*
X7040761Y21905477D01*
X7088380Y21810239D01*
X7088380Y21619762D01*
X7040761Y21524524D01*
X6993142Y21476905D01*
X6897904Y21429286D01*
X6659809Y21429286D01*
X6564571Y21476905D01*
X6516952Y21524524D01*
X6469333Y21619762D01*
X6469333Y21810239D01*
X6516952Y21905477D01*
X6564571Y21953096D01*
X6659809Y22000715D01*
X43823142Y17486667D02*
X43870761Y17534286D01*
X43918380Y17677143D01*
X43918380Y17772381D01*
X43870761Y17915239D01*
X43775523Y18010477D01*
X43680285Y18058096D01*
X43489809Y18105715D01*
X43346952Y18105715D01*
X43156476Y18058096D01*
X43061238Y18010477D01*
X42966000Y17915239D01*
X42918380Y17772381D01*
X42918380Y17677143D01*
X42966000Y17534286D01*
X43013619Y17486667D01*
X42918380Y16581905D02*
X42918380Y17058096D01*
X43394571Y17105715D01*
X43346952Y17058096D01*
X43299333Y16962858D01*
X43299333Y16724762D01*
X43346952Y16629524D01*
X43394571Y16581905D01*
X43489809Y16534286D01*
X43727904Y16534286D01*
X43823142Y16581905D01*
X43870761Y16629524D01*
X43918380Y16724762D01*
X43918380Y16962858D01*
X43870761Y17058096D01*
X43823142Y17105715D01*
X48257142Y42106667D02*
X48304761Y42154286D01*
X48352380Y42297143D01*
X48352380Y42392381D01*
X48304761Y42535239D01*
X48209523Y42630477D01*
X48114285Y42678096D01*
X47923809Y42725715D01*
X47780952Y42725715D01*
X47590476Y42678096D01*
X47495238Y42630477D01*
X47400000Y42535239D01*
X47352380Y42392381D01*
X47352380Y42297143D01*
X47400000Y42154286D01*
X47447619Y42106667D01*
X47685714Y41249524D02*
X48352380Y41249524D01*
X47304761Y41487620D02*
X48019047Y41725715D01*
X48019047Y41106667D01*
X16257142Y44156667D02*
X16304761Y44204286D01*
X16352380Y44347143D01*
X16352380Y44442381D01*
X16304761Y44585239D01*
X16209523Y44680477D01*
X16114285Y44728096D01*
X15923809Y44775715D01*
X15780952Y44775715D01*
X15590476Y44728096D01*
X15495238Y44680477D01*
X15400000Y44585239D01*
X15352380Y44442381D01*
X15352380Y44347143D01*
X15400000Y44204286D01*
X15447619Y44156667D01*
X15352380Y43823334D02*
X15352380Y43204286D01*
X15733333Y43537620D01*
X15733333Y43394762D01*
X15780952Y43299524D01*
X15828571Y43251905D01*
X15923809Y43204286D01*
X16161904Y43204286D01*
X16257142Y43251905D01*
X16304761Y43299524D01*
X16352380Y43394762D01*
X16352380Y43680477D01*
X16304761Y43775715D01*
X16257142Y43823334D01*
X38012857Y13761620D02*
X38346190Y14237810D01*
X38584285Y13761620D02*
X38584285Y14761620D01*
X38203333Y14761620D01*
X38108095Y14714000D01*
X38060476Y14666381D01*
X38012857Y14571143D01*
X38012857Y14428286D01*
X38060476Y14333048D01*
X38108095Y14285429D01*
X38203333Y14237810D01*
X38584285Y14237810D01*
X37108095Y14761620D02*
X37584285Y14761620D01*
X37631904Y14285429D01*
X37584285Y14333048D01*
X37489047Y14380667D01*
X37250952Y14380667D01*
X37155714Y14333048D01*
X37108095Y14285429D01*
X37060476Y14190191D01*
X37060476Y13952096D01*
X37108095Y13856858D01*
X37155714Y13809239D01*
X37250952Y13761620D01*
X37489047Y13761620D01*
X37584285Y13809239D01*
X37631904Y13856858D01*
X36679523Y14666381D02*
X36631904Y14714000D01*
X36536666Y14761620D01*
X36298571Y14761620D01*
X36203333Y14714000D01*
X36155714Y14666381D01*
X36108095Y14571143D01*
X36108095Y14475905D01*
X36155714Y14333048D01*
X36727142Y13761620D01*
X36108095Y13761620D01*
X47855380Y6347858D02*
X47379190Y6681191D01*
X47855380Y6919286D02*
X46855380Y6919286D01*
X46855380Y6538334D01*
X46903000Y6443096D01*
X46950619Y6395477D01*
X47045857Y6347858D01*
X47188714Y6347858D01*
X47283952Y6395477D01*
X47331571Y6443096D01*
X47379190Y6538334D01*
X47379190Y6919286D01*
X46855380Y5443096D02*
X46855380Y5919286D01*
X47331571Y5966905D01*
X47283952Y5919286D01*
X47236333Y5824048D01*
X47236333Y5585953D01*
X47283952Y5490715D01*
X47331571Y5443096D01*
X47426809Y5395477D01*
X47664904Y5395477D01*
X47760142Y5443096D01*
X47807761Y5490715D01*
X47855380Y5585953D01*
X47855380Y5824048D01*
X47807761Y5919286D01*
X47760142Y5966905D01*
X47855380Y4443096D02*
X47855380Y5014524D01*
X47855380Y4728810D02*
X46855380Y4728810D01*
X46998238Y4824048D01*
X47093476Y4919286D01*
X47141095Y5014524D01*
X35790380Y18539858D02*
X35314190Y18873191D01*
X35790380Y19111286D02*
X34790380Y19111286D01*
X34790380Y18730334D01*
X34838000Y18635096D01*
X34885619Y18587477D01*
X34980857Y18539858D01*
X35123714Y18539858D01*
X35218952Y18587477D01*
X35266571Y18635096D01*
X35314190Y18730334D01*
X35314190Y19111286D01*
X34790380Y18206524D02*
X34790380Y17587477D01*
X35171333Y17920810D01*
X35171333Y17777953D01*
X35218952Y17682715D01*
X35266571Y17635096D01*
X35361809Y17587477D01*
X35599904Y17587477D01*
X35695142Y17635096D01*
X35742761Y17682715D01*
X35790380Y17777953D01*
X35790380Y18063667D01*
X35742761Y18158905D01*
X35695142Y18206524D01*
X34790380Y17254143D02*
X34790380Y16587477D01*
X35790380Y17016048D01*
X27535380Y16380858D02*
X27059190Y16714191D01*
X27535380Y16952286D02*
X26535380Y16952286D01*
X26535380Y16571334D01*
X26583000Y16476096D01*
X26630619Y16428477D01*
X26725857Y16380858D01*
X26868714Y16380858D01*
X26963952Y16428477D01*
X27011571Y16476096D01*
X27059190Y16571334D01*
X27059190Y16952286D01*
X26535380Y16047524D02*
X26535380Y15428477D01*
X26916333Y15761810D01*
X26916333Y15618953D01*
X26963952Y15523715D01*
X27011571Y15476096D01*
X27106809Y15428477D01*
X27344904Y15428477D01*
X27440142Y15476096D01*
X27487761Y15523715D01*
X27535380Y15618953D01*
X27535380Y15904667D01*
X27487761Y15999905D01*
X27440142Y16047524D01*
X26535380Y14523715D02*
X26535380Y14999905D01*
X27011571Y15047524D01*
X26963952Y14999905D01*
X26916333Y14904667D01*
X26916333Y14666572D01*
X26963952Y14571334D01*
X27011571Y14523715D01*
X27106809Y14476096D01*
X27344904Y14476096D01*
X27440142Y14523715D01*
X27487761Y14571334D01*
X27535380Y14666572D01*
X27535380Y14904667D01*
X27487761Y14999905D01*
X27440142Y15047524D01*
X27344857Y13253620D02*
X27678190Y13729810D01*
X27916285Y13253620D02*
X27916285Y14253620D01*
X27535333Y14253620D01*
X27440095Y14206000D01*
X27392476Y14158381D01*
X27344857Y14063143D01*
X27344857Y13920286D01*
X27392476Y13825048D01*
X27440095Y13777429D01*
X27535333Y13729810D01*
X27916285Y13729810D01*
X27011523Y14253620D02*
X26392476Y14253620D01*
X26725809Y13872667D01*
X26582952Y13872667D01*
X26487714Y13825048D01*
X26440095Y13777429D01*
X26392476Y13682191D01*
X26392476Y13444096D01*
X26440095Y13348858D01*
X26487714Y13301239D01*
X26582952Y13253620D01*
X26868666Y13253620D01*
X26963904Y13301239D01*
X27011523Y13348858D01*
X25535333Y13920286D02*
X25535333Y13253620D01*
X25773428Y14301239D02*
X26011523Y13586953D01*
X25392476Y13586953D01*
X34202857Y14142620D02*
X34536190Y14618810D01*
X34774285Y14142620D02*
X34774285Y15142620D01*
X34393333Y15142620D01*
X34298095Y15095000D01*
X34250476Y15047381D01*
X34202857Y14952143D01*
X34202857Y14809286D01*
X34250476Y14714048D01*
X34298095Y14666429D01*
X34393333Y14618810D01*
X34774285Y14618810D01*
X33869523Y15142620D02*
X33250476Y15142620D01*
X33583809Y14761667D01*
X33440952Y14761667D01*
X33345714Y14714048D01*
X33298095Y14666429D01*
X33250476Y14571191D01*
X33250476Y14333096D01*
X33298095Y14237858D01*
X33345714Y14190239D01*
X33440952Y14142620D01*
X33726666Y14142620D01*
X33821904Y14190239D01*
X33869523Y14237858D01*
X32631428Y15142620D02*
X32536190Y15142620D01*
X32440952Y15095000D01*
X32393333Y15047381D01*
X32345714Y14952143D01*
X32298095Y14761667D01*
X32298095Y14523572D01*
X32345714Y14333096D01*
X32393333Y14237858D01*
X32440952Y14190239D01*
X32536190Y14142620D01*
X32631428Y14142620D01*
X32726666Y14190239D01*
X32774285Y14237858D01*
X32821904Y14333096D01*
X32869523Y14523572D01*
X32869523Y14761667D01*
X32821904Y14952143D01*
X32774285Y15047381D01*
X32726666Y15095000D01*
X32631428Y15142620D01*
X38642857Y21867620D02*
X38976190Y22343810D01*
X39214285Y21867620D02*
X39214285Y22867620D01*
X38833333Y22867620D01*
X38738095Y22820000D01*
X38690476Y22772381D01*
X38642857Y22677143D01*
X38642857Y22534286D01*
X38690476Y22439048D01*
X38738095Y22391429D01*
X38833333Y22343810D01*
X39214285Y22343810D01*
X38261904Y22772381D02*
X38214285Y22820000D01*
X38119047Y22867620D01*
X37880952Y22867620D01*
X37785714Y22820000D01*
X37738095Y22772381D01*
X37690476Y22677143D01*
X37690476Y22581905D01*
X37738095Y22439048D01*
X38309523Y21867620D01*
X37690476Y21867620D01*
X37214285Y21867620D02*
X37023809Y21867620D01*
X36928571Y21915239D01*
X36880952Y21962858D01*
X36785714Y22105715D01*
X36738095Y22296191D01*
X36738095Y22677143D01*
X36785714Y22772381D01*
X36833333Y22820000D01*
X36928571Y22867620D01*
X37119047Y22867620D01*
X37214285Y22820000D01*
X37261904Y22772381D01*
X37309523Y22677143D01*
X37309523Y22439048D01*
X37261904Y22343810D01*
X37214285Y22296191D01*
X37119047Y22248572D01*
X36928571Y22248572D01*
X36833333Y22296191D01*
X36785714Y22343810D01*
X36738095Y22439048D01*
X18792857Y35986620D02*
X19126190Y36462810D01*
X19364285Y35986620D02*
X19364285Y36986620D01*
X18983333Y36986620D01*
X18888095Y36939000D01*
X18840476Y36891381D01*
X18792857Y36796143D01*
X18792857Y36653286D01*
X18840476Y36558048D01*
X18888095Y36510429D01*
X18983333Y36462810D01*
X19364285Y36462810D01*
X18411904Y36891381D02*
X18364285Y36939000D01*
X18269047Y36986620D01*
X18030952Y36986620D01*
X17935714Y36939000D01*
X17888095Y36891381D01*
X17840476Y36796143D01*
X17840476Y36700905D01*
X17888095Y36558048D01*
X18459523Y35986620D01*
X17840476Y35986620D01*
X17269047Y36558048D02*
X17364285Y36605667D01*
X17411904Y36653286D01*
X17459523Y36748524D01*
X17459523Y36796143D01*
X17411904Y36891381D01*
X17364285Y36939000D01*
X17269047Y36986620D01*
X17078571Y36986620D01*
X16983333Y36939000D01*
X16935714Y36891381D01*
X16888095Y36796143D01*
X16888095Y36748524D01*
X16935714Y36653286D01*
X16983333Y36605667D01*
X17078571Y36558048D01*
X17269047Y36558048D01*
X17364285Y36510429D01*
X17411904Y36462810D01*
X17459523Y36367572D01*
X17459523Y36177096D01*
X17411904Y36081858D01*
X17364285Y36034239D01*
X17269047Y35986620D01*
X17078571Y35986620D01*
X16983333Y36034239D01*
X16935714Y36081858D01*
X16888095Y36177096D01*
X16888095Y36367572D01*
X16935714Y36462810D01*
X16983333Y36510429D01*
X17078571Y36558048D01*
X47002380Y42082858D02*
X46526190Y42416191D01*
X47002380Y42654286D02*
X46002380Y42654286D01*
X46002380Y42273334D01*
X46050000Y42178096D01*
X46097619Y42130477D01*
X46192857Y42082858D01*
X46335714Y42082858D01*
X46430952Y42130477D01*
X46478571Y42178096D01*
X46526190Y42273334D01*
X46526190Y42654286D01*
X46097619Y41701905D02*
X46050000Y41654286D01*
X46002380Y41559048D01*
X46002380Y41320953D01*
X46050000Y41225715D01*
X46097619Y41178096D01*
X46192857Y41130477D01*
X46288095Y41130477D01*
X46430952Y41178096D01*
X47002380Y41749524D01*
X47002380Y41130477D01*
X46002380Y40797143D02*
X46002380Y40130477D01*
X47002380Y40559048D01*
X13152380Y46882858D02*
X12676190Y47216191D01*
X13152380Y47454286D02*
X12152380Y47454286D01*
X12152380Y47073334D01*
X12200000Y46978096D01*
X12247619Y46930477D01*
X12342857Y46882858D01*
X12485714Y46882858D01*
X12580952Y46930477D01*
X12628571Y46978096D01*
X12676190Y47073334D01*
X12676190Y47454286D01*
X12247619Y46501905D02*
X12200000Y46454286D01*
X12152380Y46359048D01*
X12152380Y46120953D01*
X12200000Y46025715D01*
X12247619Y45978096D01*
X12342857Y45930477D01*
X12438095Y45930477D01*
X12580952Y45978096D01*
X13152380Y46549524D01*
X13152380Y45930477D01*
X12152380Y45073334D02*
X12152380Y45263810D01*
X12200000Y45359048D01*
X12247619Y45406667D01*
X12390476Y45501905D01*
X12580952Y45549524D01*
X12961904Y45549524D01*
X13057142Y45501905D01*
X13104761Y45454286D01*
X13152380Y45359048D01*
X13152380Y45168572D01*
X13104761Y45073334D01*
X13057142Y45025715D01*
X12961904Y44978096D01*
X12723809Y44978096D01*
X12628571Y45025715D01*
X12580952Y45073334D01*
X12533333Y45168572D01*
X12533333Y45359048D01*
X12580952Y45454286D01*
X12628571Y45501905D01*
X12723809Y45549524D01*
X14142857Y41437620D02*
X14476190Y41913810D01*
X14714285Y41437620D02*
X14714285Y42437620D01*
X14333333Y42437620D01*
X14238095Y42390000D01*
X14190476Y42342381D01*
X14142857Y42247143D01*
X14142857Y42104286D01*
X14190476Y42009048D01*
X14238095Y41961429D01*
X14333333Y41913810D01*
X14714285Y41913810D01*
X13190476Y41437620D02*
X13761904Y41437620D01*
X13476190Y41437620D02*
X13476190Y42437620D01*
X13571428Y42294762D01*
X13666666Y42199524D01*
X13761904Y42151905D01*
X12571428Y42437620D02*
X12476190Y42437620D01*
X12380952Y42390000D01*
X12333333Y42342381D01*
X12285714Y42247143D01*
X12238095Y42056667D01*
X12238095Y41818572D01*
X12285714Y41628096D01*
X12333333Y41532858D01*
X12380952Y41485239D01*
X12476190Y41437620D01*
X12571428Y41437620D01*
X12666666Y41485239D01*
X12714285Y41532858D01*
X12761904Y41628096D01*
X12809523Y41818572D01*
X12809523Y42056667D01*
X12761904Y42247143D01*
X12714285Y42342381D01*
X12666666Y42390000D01*
X12571428Y42437620D01*
X9952380Y42056667D02*
X9476190Y42390000D01*
X9952380Y42628096D02*
X8952380Y42628096D01*
X8952380Y42247143D01*
X9000000Y42151905D01*
X9047619Y42104286D01*
X9142857Y42056667D01*
X9285714Y42056667D01*
X9380952Y42104286D01*
X9428571Y42151905D01*
X9476190Y42247143D01*
X9476190Y42628096D01*
X9952380Y41580477D02*
X9952380Y41390000D01*
X9904761Y41294762D01*
X9857142Y41247143D01*
X9714285Y41151905D01*
X9523809Y41104286D01*
X9142857Y41104286D01*
X9047619Y41151905D01*
X9000000Y41199524D01*
X8952380Y41294762D01*
X8952380Y41485239D01*
X9000000Y41580477D01*
X9047619Y41628096D01*
X9142857Y41675715D01*
X9380952Y41675715D01*
X9476190Y41628096D01*
X9523809Y41580477D01*
X9571428Y41485239D01*
X9571428Y41294762D01*
X9523809Y41199524D01*
X9476190Y41151905D01*
X9380952Y41104286D01*
X41852380Y18206667D02*
X41376190Y18540000D01*
X41852380Y18778096D02*
X40852380Y18778096D01*
X40852380Y18397143D01*
X40900000Y18301905D01*
X40947619Y18254286D01*
X41042857Y18206667D01*
X41185714Y18206667D01*
X41280952Y18254286D01*
X41328571Y18301905D01*
X41376190Y18397143D01*
X41376190Y18778096D01*
X41280952Y17635239D02*
X41233333Y17730477D01*
X41185714Y17778096D01*
X41090476Y17825715D01*
X41042857Y17825715D01*
X40947619Y17778096D01*
X40900000Y17730477D01*
X40852380Y17635239D01*
X40852380Y17444762D01*
X40900000Y17349524D01*
X40947619Y17301905D01*
X41042857Y17254286D01*
X41090476Y17254286D01*
X41185714Y17301905D01*
X41233333Y17349524D01*
X41280952Y17444762D01*
X41280952Y17635239D01*
X41328571Y17730477D01*
X41376190Y17778096D01*
X41471428Y17825715D01*
X41661904Y17825715D01*
X41757142Y17778096D01*
X41804761Y17730477D01*
X41852380Y17635239D01*
X41852380Y17444762D01*
X41804761Y17349524D01*
X41757142Y17301905D01*
X41661904Y17254286D01*
X41471428Y17254286D01*
X41376190Y17301905D01*
X41328571Y17349524D01*
X41280952Y17444762D01*
X42902380Y29366667D02*
X42426190Y29700000D01*
X42902380Y29938096D02*
X41902380Y29938096D01*
X41902380Y29557143D01*
X41950000Y29461905D01*
X41997619Y29414286D01*
X42092857Y29366667D01*
X42235714Y29366667D01*
X42330952Y29414286D01*
X42378571Y29461905D01*
X42426190Y29557143D01*
X42426190Y29938096D01*
X41902380Y29033334D02*
X41902380Y28366667D01*
X42902380Y28795239D01*
X49379380Y31271667D02*
X48903190Y31605000D01*
X49379380Y31843096D02*
X48379380Y31843096D01*
X48379380Y31462143D01*
X48427000Y31366905D01*
X48474619Y31319286D01*
X48569857Y31271667D01*
X48712714Y31271667D01*
X48807952Y31319286D01*
X48855571Y31366905D01*
X48903190Y31462143D01*
X48903190Y31843096D01*
X48379380Y30414524D02*
X48379380Y30605000D01*
X48427000Y30700239D01*
X48474619Y30747858D01*
X48617476Y30843096D01*
X48807952Y30890715D01*
X49188904Y30890715D01*
X49284142Y30843096D01*
X49331761Y30795477D01*
X49379380Y30700239D01*
X49379380Y30509762D01*
X49331761Y30414524D01*
X49284142Y30366905D01*
X49188904Y30319286D01*
X48950809Y30319286D01*
X48855571Y30366905D01*
X48807952Y30414524D01*
X48760333Y30509762D01*
X48760333Y30700239D01*
X48807952Y30795477D01*
X48855571Y30843096D01*
X48950809Y30890715D01*
X46077380Y29366667D02*
X45601190Y29700000D01*
X46077380Y29938096D02*
X45077380Y29938096D01*
X45077380Y29557143D01*
X45125000Y29461905D01*
X45172619Y29414286D01*
X45267857Y29366667D01*
X45410714Y29366667D01*
X45505952Y29414286D01*
X45553571Y29461905D01*
X45601190Y29557143D01*
X45601190Y29938096D01*
X45077380Y28461905D02*
X45077380Y28938096D01*
X45553571Y28985715D01*
X45505952Y28938096D01*
X45458333Y28842858D01*
X45458333Y28604762D01*
X45505952Y28509524D01*
X45553571Y28461905D01*
X45648809Y28414286D01*
X45886904Y28414286D01*
X45982142Y28461905D01*
X46029761Y28509524D01*
X46077380Y28604762D01*
X46077380Y28842858D01*
X46029761Y28938096D01*
X45982142Y28985715D01*
X39682380Y11816667D02*
X39206190Y12150000D01*
X39682380Y12388096D02*
X38682380Y12388096D01*
X38682380Y12007143D01*
X38730000Y11911905D01*
X38777619Y11864286D01*
X38872857Y11816667D01*
X39015714Y11816667D01*
X39110952Y11864286D01*
X39158571Y11911905D01*
X39206190Y12007143D01*
X39206190Y12388096D01*
X38682380Y11483334D02*
X38682380Y10864286D01*
X39063333Y11197620D01*
X39063333Y11054762D01*
X39110952Y10959524D01*
X39158571Y10911905D01*
X39253809Y10864286D01*
X39491904Y10864286D01*
X39587142Y10911905D01*
X39634761Y10959524D01*
X39682380Y11054762D01*
X39682380Y11340477D01*
X39634761Y11435715D01*
X39587142Y11483334D01*
X30082380Y20056667D02*
X29606190Y20390000D01*
X30082380Y20628096D02*
X29082380Y20628096D01*
X29082380Y20247143D01*
X29130000Y20151905D01*
X29177619Y20104286D01*
X29272857Y20056667D01*
X29415714Y20056667D01*
X29510952Y20104286D01*
X29558571Y20151905D01*
X29606190Y20247143D01*
X29606190Y20628096D01*
X29177619Y19675715D02*
X29130000Y19628096D01*
X29082380Y19532858D01*
X29082380Y19294762D01*
X29130000Y19199524D01*
X29177619Y19151905D01*
X29272857Y19104286D01*
X29368095Y19104286D01*
X29510952Y19151905D01*
X30082380Y19723334D01*
X30082380Y19104286D01*
X30905566Y5843020D02*
X31238900Y6319210D01*
X31476995Y5843020D02*
X31476995Y6843020D01*
X31096042Y6843020D01*
X31000804Y6795400D01*
X30953185Y6747781D01*
X30905566Y6652543D01*
X30905566Y6509686D01*
X30953185Y6414448D01*
X31000804Y6366829D01*
X31096042Y6319210D01*
X31476995Y6319210D01*
X29953185Y5843020D02*
X30524614Y5843020D01*
X30238900Y5843020D02*
X30238900Y6843020D01*
X30334138Y6700162D01*
X30429376Y6604924D01*
X30524614Y6557305D01*
X20852857Y18832858D02*
X20900476Y18785239D01*
X21043333Y18737620D01*
X21138571Y18737620D01*
X21281428Y18785239D01*
X21376666Y18880477D01*
X21424285Y18975715D01*
X21471904Y19166191D01*
X21471904Y19309048D01*
X21424285Y19499524D01*
X21376666Y19594762D01*
X21281428Y19690000D01*
X21138571Y19737620D01*
X21043333Y19737620D01*
X20900476Y19690000D01*
X20852857Y19642381D01*
X20281428Y19309048D02*
X20376666Y19356667D01*
X20424285Y19404286D01*
X20471904Y19499524D01*
X20471904Y19547143D01*
X20424285Y19642381D01*
X20376666Y19690000D01*
X20281428Y19737620D01*
X20090952Y19737620D01*
X19995714Y19690000D01*
X19948095Y19642381D01*
X19900476Y19547143D01*
X19900476Y19499524D01*
X19948095Y19404286D01*
X19995714Y19356667D01*
X20090952Y19309048D01*
X20281428Y19309048D01*
X20376666Y19261429D01*
X20424285Y19213810D01*
X20471904Y19118572D01*
X20471904Y18928096D01*
X20424285Y18832858D01*
X20376666Y18785239D01*
X20281428Y18737620D01*
X20090952Y18737620D01*
X19995714Y18785239D01*
X19948095Y18832858D01*
X19900476Y18928096D01*
X19900476Y19118572D01*
X19948095Y19213810D01*
X19995714Y19261429D01*
X20090952Y19309048D01*
X19567142Y19737620D02*
X18900476Y19737620D01*
X19329047Y18737620D01*
X32307106Y41592031D02*
X32374450Y41592031D01*
X32509137Y41659375D01*
X32576480Y41726718D01*
X32643824Y41861405D01*
X32643824Y41996092D01*
X32610152Y42097107D01*
X32509137Y42265466D01*
X32408122Y42366481D01*
X32239763Y42467497D01*
X32138748Y42501168D01*
X32004061Y42501168D01*
X31869374Y42433825D01*
X31802030Y42366481D01*
X31734687Y42231794D01*
X31734687Y42164451D01*
X31296954Y41390000D02*
X31768358Y40918596D01*
X31195938Y41827733D02*
X31869374Y41491016D01*
X31431641Y41053283D01*
X30892893Y40851252D02*
X30926564Y40952268D01*
X30926564Y41019611D01*
X30892893Y41120626D01*
X30859221Y41154298D01*
X30758206Y41187970D01*
X30690862Y41187970D01*
X30589847Y41154298D01*
X30455160Y41019611D01*
X30421488Y40918596D01*
X30421488Y40851252D01*
X30455160Y40750237D01*
X30488832Y40716565D01*
X30589847Y40682894D01*
X30657190Y40682894D01*
X30758206Y40716565D01*
X30892893Y40851252D01*
X30993908Y40884924D01*
X31061251Y40884924D01*
X31162267Y40851252D01*
X31296954Y40716565D01*
X31330625Y40615550D01*
X31330625Y40548207D01*
X31296954Y40447191D01*
X31162267Y40312504D01*
X31061251Y40278833D01*
X30993908Y40278833D01*
X30892893Y40312504D01*
X30758206Y40447191D01*
X30724534Y40548207D01*
X30724534Y40615550D01*
X30758206Y40716565D01*
X34534421Y39364716D02*
X34601765Y39364716D01*
X34736452Y39432060D01*
X34803795Y39499403D01*
X34871139Y39634090D01*
X34871139Y39768777D01*
X34837467Y39869792D01*
X34736452Y40038151D01*
X34635437Y40139166D01*
X34467078Y40240182D01*
X34366063Y40273853D01*
X34231376Y40273853D01*
X34096689Y40206510D01*
X34029345Y40139166D01*
X33962002Y40004479D01*
X33962002Y39937136D01*
X33524269Y39162685D02*
X33995673Y38691281D01*
X33423253Y39600418D02*
X34096689Y39263701D01*
X33658956Y38825968D01*
X32985521Y39095342D02*
X32514116Y38623937D01*
X33524269Y38219876D01*
X32227142Y35532858D02*
X32274761Y35580477D01*
X32322380Y35723334D01*
X32322380Y35818572D01*
X32274761Y35961429D01*
X32179523Y36056667D01*
X32084285Y36104286D01*
X31893809Y36151905D01*
X31750952Y36151905D01*
X31560476Y36104286D01*
X31465238Y36056667D01*
X31370000Y35961429D01*
X31322380Y35818572D01*
X31322380Y35723334D01*
X31370000Y35580477D01*
X31417619Y35532858D01*
X31322380Y35199524D02*
X31322380Y34580477D01*
X31703333Y34913810D01*
X31703333Y34770953D01*
X31750952Y34675715D01*
X31798571Y34628096D01*
X31893809Y34580477D01*
X32131904Y34580477D01*
X32227142Y34628096D01*
X32274761Y34675715D01*
X32322380Y34770953D01*
X32322380Y35056667D01*
X32274761Y35151905D01*
X32227142Y35199524D01*
X31322380Y34247143D02*
X31322380Y33628096D01*
X31703333Y33961429D01*
X31703333Y33818572D01*
X31750952Y33723334D01*
X31798571Y33675715D01*
X31893809Y33628096D01*
X32131904Y33628096D01*
X32227142Y33675715D01*
X32274761Y33723334D01*
X32322380Y33818572D01*
X32322380Y34104286D01*
X32274761Y34199524D01*
X32227142Y34247143D01*
X30042857Y28232858D02*
X30090476Y28185239D01*
X30233333Y28137620D01*
X30328571Y28137620D01*
X30471428Y28185239D01*
X30566666Y28280477D01*
X30614285Y28375715D01*
X30661904Y28566191D01*
X30661904Y28709048D01*
X30614285Y28899524D01*
X30566666Y28994762D01*
X30471428Y29090000D01*
X30328571Y29137620D01*
X30233333Y29137620D01*
X30090476Y29090000D01*
X30042857Y29042381D01*
X29185714Y28804286D02*
X29185714Y28137620D01*
X29423809Y29185239D02*
X29661904Y28470953D01*
X29042857Y28470953D01*
X28185714Y29137620D02*
X28661904Y29137620D01*
X28709523Y28661429D01*
X28661904Y28709048D01*
X28566666Y28756667D01*
X28328571Y28756667D01*
X28233333Y28709048D01*
X28185714Y28661429D01*
X28138095Y28566191D01*
X28138095Y28328096D01*
X28185714Y28232858D01*
X28233333Y28185239D01*
X28328571Y28137620D01*
X28566666Y28137620D01*
X28661904Y28185239D01*
X28709523Y28232858D01*
X6442857Y39232858D02*
X6490476Y39185239D01*
X6633333Y39137620D01*
X6728571Y39137620D01*
X6871428Y39185239D01*
X6966666Y39280477D01*
X7014285Y39375715D01*
X7061904Y39566191D01*
X7061904Y39709048D01*
X7014285Y39899524D01*
X6966666Y39994762D01*
X6871428Y40090000D01*
X6728571Y40137620D01*
X6633333Y40137620D01*
X6490476Y40090000D01*
X6442857Y40042381D01*
X6109523Y40137620D02*
X5490476Y40137620D01*
X5823809Y39756667D01*
X5680952Y39756667D01*
X5585714Y39709048D01*
X5538095Y39661429D01*
X5490476Y39566191D01*
X5490476Y39328096D01*
X5538095Y39232858D01*
X5585714Y39185239D01*
X5680952Y39137620D01*
X5966666Y39137620D01*
X6061904Y39185239D01*
X6109523Y39232858D01*
X4538095Y39137620D02*
X5109523Y39137620D01*
X4823809Y39137620D02*
X4823809Y40137620D01*
X4919047Y39994762D01*
X5014285Y39899524D01*
X5109523Y39851905D01*
X15857142Y41532858D02*
X15904761Y41580477D01*
X15952380Y41723334D01*
X15952380Y41818572D01*
X15904761Y41961429D01*
X15809523Y42056667D01*
X15714285Y42104286D01*
X15523809Y42151905D01*
X15380952Y42151905D01*
X15190476Y42104286D01*
X15095238Y42056667D01*
X15000000Y41961429D01*
X14952380Y41818572D01*
X14952380Y41723334D01*
X15000000Y41580477D01*
X15047619Y41532858D01*
X15047619Y41151905D02*
X15000000Y41104286D01*
X14952380Y41009048D01*
X14952380Y40770953D01*
X15000000Y40675715D01*
X15047619Y40628096D01*
X15142857Y40580477D01*
X15238095Y40580477D01*
X15380952Y40628096D01*
X15952380Y41199524D01*
X15952380Y40580477D01*
X15952380Y40104286D02*
X15952380Y39913810D01*
X15904761Y39818572D01*
X15857142Y39770953D01*
X15714285Y39675715D01*
X15523809Y39628096D01*
X15142857Y39628096D01*
X15047619Y39675715D01*
X15000000Y39723334D01*
X14952380Y39818572D01*
X14952380Y40009048D01*
X15000000Y40104286D01*
X15047619Y40151905D01*
X15142857Y40199524D01*
X15380952Y40199524D01*
X15476190Y40151905D01*
X15523809Y40104286D01*
X15571428Y40009048D01*
X15571428Y39818572D01*
X15523809Y39723334D01*
X15476190Y39675715D01*
X15380952Y39628096D01*
X8294857Y33795858D02*
X8342476Y33748239D01*
X8485333Y33700620D01*
X8580571Y33700620D01*
X8723428Y33748239D01*
X8818666Y33843477D01*
X8866285Y33938715D01*
X8913904Y34129191D01*
X8913904Y34272048D01*
X8866285Y34462524D01*
X8818666Y34557762D01*
X8723428Y34653000D01*
X8580571Y34700620D01*
X8485333Y34700620D01*
X8342476Y34653000D01*
X8294857Y34605381D01*
X7913904Y34605381D02*
X7866285Y34653000D01*
X7771047Y34700620D01*
X7532952Y34700620D01*
X7437714Y34653000D01*
X7390095Y34605381D01*
X7342476Y34510143D01*
X7342476Y34414905D01*
X7390095Y34272048D01*
X7961523Y33700620D01*
X7342476Y33700620D01*
X7009142Y34700620D02*
X6342476Y34700620D01*
X6771047Y33700620D01*
X21442857Y35032858D02*
X21490476Y34985239D01*
X21633333Y34937620D01*
X21728571Y34937620D01*
X21871428Y34985239D01*
X21966666Y35080477D01*
X22014285Y35175715D01*
X22061904Y35366191D01*
X22061904Y35509048D01*
X22014285Y35699524D01*
X21966666Y35794762D01*
X21871428Y35890000D01*
X21728571Y35937620D01*
X21633333Y35937620D01*
X21490476Y35890000D01*
X21442857Y35842381D01*
X21061904Y35842381D02*
X21014285Y35890000D01*
X20919047Y35937620D01*
X20680952Y35937620D01*
X20585714Y35890000D01*
X20538095Y35842381D01*
X20490476Y35747143D01*
X20490476Y35651905D01*
X20538095Y35509048D01*
X21109523Y34937620D01*
X20490476Y34937620D01*
X19585714Y35937620D02*
X20061904Y35937620D01*
X20109523Y35461429D01*
X20061904Y35509048D01*
X19966666Y35556667D01*
X19728571Y35556667D01*
X19633333Y35509048D01*
X19585714Y35461429D01*
X19538095Y35366191D01*
X19538095Y35128096D01*
X19585714Y35032858D01*
X19633333Y34985239D01*
X19728571Y34937620D01*
X19966666Y34937620D01*
X20061904Y34985239D01*
X20109523Y35032858D01*
X31027857Y23889858D02*
X31075476Y23842239D01*
X31218333Y23794620D01*
X31313571Y23794620D01*
X31456428Y23842239D01*
X31551666Y23937477D01*
X31599285Y24032715D01*
X31646904Y24223191D01*
X31646904Y24366048D01*
X31599285Y24556524D01*
X31551666Y24651762D01*
X31456428Y24747000D01*
X31313571Y24794620D01*
X31218333Y24794620D01*
X31075476Y24747000D01*
X31027857Y24699381D01*
X30170714Y24461286D02*
X30170714Y23794620D01*
X30408809Y24842239D02*
X30646904Y24127953D01*
X30027857Y24127953D01*
X29742142Y24794620D02*
X29123095Y24794620D01*
X29456428Y24413667D01*
X29313571Y24413667D01*
X29218333Y24366048D01*
X29170714Y24318429D01*
X29123095Y24223191D01*
X29123095Y23985096D01*
X29170714Y23889858D01*
X29218333Y23842239D01*
X29313571Y23794620D01*
X29599285Y23794620D01*
X29694523Y23842239D01*
X29742142Y23889858D01*
X20787142Y10352858D02*
X20834761Y10400477D01*
X20882380Y10543334D01*
X20882380Y10638572D01*
X20834761Y10781429D01*
X20739523Y10876667D01*
X20644285Y10924286D01*
X20453809Y10971905D01*
X20310952Y10971905D01*
X20120476Y10924286D01*
X20025238Y10876667D01*
X19930000Y10781429D01*
X19882380Y10638572D01*
X19882380Y10543334D01*
X19930000Y10400477D01*
X19977619Y10352858D01*
X20882380Y9400477D02*
X20882380Y9971905D01*
X20882380Y9686191D02*
X19882380Y9686191D01*
X20025238Y9781429D01*
X20120476Y9876667D01*
X20168095Y9971905D01*
X19882380Y9067143D02*
X19882380Y8400477D01*
X20882380Y8829048D01*
X30932666Y15888858D02*
X30980285Y15841239D01*
X31123142Y15793620D01*
X31218380Y15793620D01*
X31361238Y15841239D01*
X31456476Y15936477D01*
X31504095Y16031715D01*
X31551714Y16222191D01*
X31551714Y16365048D01*
X31504095Y16555524D01*
X31456476Y16650762D01*
X31361238Y16746000D01*
X31218380Y16793620D01*
X31123142Y16793620D01*
X30980285Y16746000D01*
X30932666Y16698381D01*
X29980285Y15793620D02*
X30551714Y15793620D01*
X30266000Y15793620D02*
X30266000Y16793620D01*
X30361238Y16650762D01*
X30456476Y16555524D01*
X30551714Y16507905D01*
X20042857Y27532858D02*
X20090476Y27485239D01*
X20233333Y27437620D01*
X20328571Y27437620D01*
X20471428Y27485239D01*
X20566666Y27580477D01*
X20614285Y27675715D01*
X20661904Y27866191D01*
X20661904Y28009048D01*
X20614285Y28199524D01*
X20566666Y28294762D01*
X20471428Y28390000D01*
X20328571Y28437620D01*
X20233333Y28437620D01*
X20090476Y28390000D01*
X20042857Y28342381D01*
X19566666Y27437620D02*
X19376190Y27437620D01*
X19280952Y27485239D01*
X19233333Y27532858D01*
X19138095Y27675715D01*
X19090476Y27866191D01*
X19090476Y28247143D01*
X19138095Y28342381D01*
X19185714Y28390000D01*
X19280952Y28437620D01*
X19471428Y28437620D01*
X19566666Y28390000D01*
X19614285Y28342381D01*
X19661904Y28247143D01*
X19661904Y28009048D01*
X19614285Y27913810D01*
X19566666Y27866191D01*
X19471428Y27818572D01*
X19280952Y27818572D01*
X19185714Y27866191D01*
X19138095Y27913810D01*
X19090476Y28009048D01*
X18519047Y28009048D02*
X18614285Y28056667D01*
X18661904Y28104286D01*
X18709523Y28199524D01*
X18709523Y28247143D01*
X18661904Y28342381D01*
X18614285Y28390000D01*
X18519047Y28437620D01*
X18328571Y28437620D01*
X18233333Y28390000D01*
X18185714Y28342381D01*
X18138095Y28247143D01*
X18138095Y28199524D01*
X18185714Y28104286D01*
X18233333Y28056667D01*
X18328571Y28009048D01*
X18519047Y28009048D01*
X18614285Y27961429D01*
X18661904Y27913810D01*
X18709523Y27818572D01*
X18709523Y27628096D01*
X18661904Y27532858D01*
X18614285Y27485239D01*
X18519047Y27437620D01*
X18328571Y27437620D01*
X18233333Y27485239D01*
X18185714Y27532858D01*
X18138095Y27628096D01*
X18138095Y27818572D01*
X18185714Y27913810D01*
X18233333Y27961429D01*
X18328571Y28009048D01*
X25642857Y14832858D02*
X25690476Y14785239D01*
X25833333Y14737620D01*
X25928571Y14737620D01*
X26071428Y14785239D01*
X26166666Y14880477D01*
X26214285Y14975715D01*
X26261904Y15166191D01*
X26261904Y15309048D01*
X26214285Y15499524D01*
X26166666Y15594762D01*
X26071428Y15690000D01*
X25928571Y15737620D01*
X25833333Y15737620D01*
X25690476Y15690000D01*
X25642857Y15642381D01*
X25166666Y14737620D02*
X24976190Y14737620D01*
X24880952Y14785239D01*
X24833333Y14832858D01*
X24738095Y14975715D01*
X24690476Y15166191D01*
X24690476Y15547143D01*
X24738095Y15642381D01*
X24785714Y15690000D01*
X24880952Y15737620D01*
X25071428Y15737620D01*
X25166666Y15690000D01*
X25214285Y15642381D01*
X25261904Y15547143D01*
X25261904Y15309048D01*
X25214285Y15213810D01*
X25166666Y15166191D01*
X25071428Y15118572D01*
X24880952Y15118572D01*
X24785714Y15166191D01*
X24738095Y15213810D01*
X24690476Y15309048D01*
X24357142Y15737620D02*
X23690476Y15737620D01*
X24119047Y14737620D01*
X22614142Y27556858D02*
X22661761Y27604477D01*
X22709380Y27747334D01*
X22709380Y27842572D01*
X22661761Y27985429D01*
X22566523Y28080667D01*
X22471285Y28128286D01*
X22280809Y28175905D01*
X22137952Y28175905D01*
X21947476Y28128286D01*
X21852238Y28080667D01*
X21757000Y27985429D01*
X21709380Y27842572D01*
X21709380Y27747334D01*
X21757000Y27604477D01*
X21804619Y27556858D01*
X22709380Y27080667D02*
X22709380Y26890191D01*
X22661761Y26794953D01*
X22614142Y26747334D01*
X22471285Y26652096D01*
X22280809Y26604477D01*
X21899857Y26604477D01*
X21804619Y26652096D01*
X21757000Y26699715D01*
X21709380Y26794953D01*
X21709380Y26985429D01*
X21757000Y27080667D01*
X21804619Y27128286D01*
X21899857Y27175905D01*
X22137952Y27175905D01*
X22233190Y27128286D01*
X22280809Y27080667D01*
X22328428Y26985429D01*
X22328428Y26794953D01*
X22280809Y26699715D01*
X22233190Y26652096D01*
X22137952Y26604477D01*
X21709380Y25747334D02*
X21709380Y25937810D01*
X21757000Y26033048D01*
X21804619Y26080667D01*
X21947476Y26175905D01*
X22137952Y26223524D01*
X22518904Y26223524D01*
X22614142Y26175905D01*
X22661761Y26128286D01*
X22709380Y26033048D01*
X22709380Y25842572D01*
X22661761Y25747334D01*
X22614142Y25699715D01*
X22518904Y25652096D01*
X22280809Y25652096D01*
X22185571Y25699715D01*
X22137952Y25747334D01*
X22090333Y25842572D01*
X22090333Y26033048D01*
X22137952Y26128286D01*
X22185571Y26175905D01*
X22280809Y26223524D01*
X23357142Y14702858D02*
X23404761Y14750477D01*
X23452380Y14893334D01*
X23452380Y14988572D01*
X23404761Y15131429D01*
X23309523Y15226667D01*
X23214285Y15274286D01*
X23023809Y15321905D01*
X22880952Y15321905D01*
X22690476Y15274286D01*
X22595238Y15226667D01*
X22500000Y15131429D01*
X22452380Y14988572D01*
X22452380Y14893334D01*
X22500000Y14750477D01*
X22547619Y14702858D01*
X23452380Y14226667D02*
X23452380Y14036191D01*
X23404761Y13940953D01*
X23357142Y13893334D01*
X23214285Y13798096D01*
X23023809Y13750477D01*
X22642857Y13750477D01*
X22547619Y13798096D01*
X22500000Y13845715D01*
X22452380Y13940953D01*
X22452380Y14131429D01*
X22500000Y14226667D01*
X22547619Y14274286D01*
X22642857Y14321905D01*
X22880952Y14321905D01*
X22976190Y14274286D01*
X23023809Y14226667D01*
X23071428Y14131429D01*
X23071428Y13940953D01*
X23023809Y13845715D01*
X22976190Y13798096D01*
X22880952Y13750477D01*
X22452380Y12845715D02*
X22452380Y13321905D01*
X22928571Y13369524D01*
X22880952Y13321905D01*
X22833333Y13226667D01*
X22833333Y12988572D01*
X22880952Y12893334D01*
X22928571Y12845715D01*
X23023809Y12798096D01*
X23261904Y12798096D01*
X23357142Y12845715D01*
X23404761Y12893334D01*
X23452380Y12988572D01*
X23452380Y13226667D01*
X23404761Y13321905D01*
X23357142Y13369524D01*
X19435857Y22368858D02*
X19483476Y22321239D01*
X19626333Y22273620D01*
X19721571Y22273620D01*
X19864428Y22321239D01*
X19959666Y22416477D01*
X20007285Y22511715D01*
X20054904Y22702191D01*
X20054904Y22845048D01*
X20007285Y23035524D01*
X19959666Y23130762D01*
X19864428Y23226000D01*
X19721571Y23273620D01*
X19626333Y23273620D01*
X19483476Y23226000D01*
X19435857Y23178381D01*
X18959666Y22273620D02*
X18769190Y22273620D01*
X18673952Y22321239D01*
X18626333Y22368858D01*
X18531095Y22511715D01*
X18483476Y22702191D01*
X18483476Y23083143D01*
X18531095Y23178381D01*
X18578714Y23226000D01*
X18673952Y23273620D01*
X18864428Y23273620D01*
X18959666Y23226000D01*
X19007285Y23178381D01*
X19054904Y23083143D01*
X19054904Y22845048D01*
X19007285Y22749810D01*
X18959666Y22702191D01*
X18864428Y22654572D01*
X18673952Y22654572D01*
X18578714Y22702191D01*
X18531095Y22749810D01*
X18483476Y22845048D01*
X17626333Y22940286D02*
X17626333Y22273620D01*
X17864428Y23321239D02*
X18102523Y22606953D01*
X17483476Y22606953D01*
X19957142Y17832858D02*
X20004761Y17880477D01*
X20052380Y18023334D01*
X20052380Y18118572D01*
X20004761Y18261429D01*
X19909523Y18356667D01*
X19814285Y18404286D01*
X19623809Y18451905D01*
X19480952Y18451905D01*
X19290476Y18404286D01*
X19195238Y18356667D01*
X19100000Y18261429D01*
X19052380Y18118572D01*
X19052380Y18023334D01*
X19100000Y17880477D01*
X19147619Y17832858D01*
X20052380Y17356667D02*
X20052380Y17166191D01*
X20004761Y17070953D01*
X19957142Y17023334D01*
X19814285Y16928096D01*
X19623809Y16880477D01*
X19242857Y16880477D01*
X19147619Y16928096D01*
X19100000Y16975715D01*
X19052380Y17070953D01*
X19052380Y17261429D01*
X19100000Y17356667D01*
X19147619Y17404286D01*
X19242857Y17451905D01*
X19480952Y17451905D01*
X19576190Y17404286D01*
X19623809Y17356667D01*
X19671428Y17261429D01*
X19671428Y17070953D01*
X19623809Y16975715D01*
X19576190Y16928096D01*
X19480952Y16880477D01*
X19052380Y16547143D02*
X19052380Y15928096D01*
X19433333Y16261429D01*
X19433333Y16118572D01*
X19480952Y16023334D01*
X19528571Y15975715D01*
X19623809Y15928096D01*
X19861904Y15928096D01*
X19957142Y15975715D01*
X20004761Y16023334D01*
X20052380Y16118572D01*
X20052380Y16404286D01*
X20004761Y16499524D01*
X19957142Y16547143D01*
X21442857Y33832858D02*
X21490476Y33785239D01*
X21633333Y33737620D01*
X21728571Y33737620D01*
X21871428Y33785239D01*
X21966666Y33880477D01*
X22014285Y33975715D01*
X22061904Y34166191D01*
X22061904Y34309048D01*
X22014285Y34499524D01*
X21966666Y34594762D01*
X21871428Y34690000D01*
X21728571Y34737620D01*
X21633333Y34737620D01*
X21490476Y34690000D01*
X21442857Y34642381D01*
X20966666Y33737620D02*
X20776190Y33737620D01*
X20680952Y33785239D01*
X20633333Y33832858D01*
X20538095Y33975715D01*
X20490476Y34166191D01*
X20490476Y34547143D01*
X20538095Y34642381D01*
X20585714Y34690000D01*
X20680952Y34737620D01*
X20871428Y34737620D01*
X20966666Y34690000D01*
X21014285Y34642381D01*
X21061904Y34547143D01*
X21061904Y34309048D01*
X21014285Y34213810D01*
X20966666Y34166191D01*
X20871428Y34118572D01*
X20680952Y34118572D01*
X20585714Y34166191D01*
X20538095Y34213810D01*
X20490476Y34309048D01*
X20109523Y34642381D02*
X20061904Y34690000D01*
X19966666Y34737620D01*
X19728571Y34737620D01*
X19633333Y34690000D01*
X19585714Y34642381D01*
X19538095Y34547143D01*
X19538095Y34451905D01*
X19585714Y34309048D01*
X20157142Y33737620D01*
X19538095Y33737620D01*
X22802857Y24692858D02*
X22850476Y24645239D01*
X22993333Y24597620D01*
X23088571Y24597620D01*
X23231428Y24645239D01*
X23326666Y24740477D01*
X23374285Y24835715D01*
X23421904Y25026191D01*
X23421904Y25169048D01*
X23374285Y25359524D01*
X23326666Y25454762D01*
X23231428Y25550000D01*
X23088571Y25597620D01*
X22993333Y25597620D01*
X22850476Y25550000D01*
X22802857Y25502381D01*
X22326666Y24597620D02*
X22136190Y24597620D01*
X22040952Y24645239D01*
X21993333Y24692858D01*
X21898095Y24835715D01*
X21850476Y25026191D01*
X21850476Y25407143D01*
X21898095Y25502381D01*
X21945714Y25550000D01*
X22040952Y25597620D01*
X22231428Y25597620D01*
X22326666Y25550000D01*
X22374285Y25502381D01*
X22421904Y25407143D01*
X22421904Y25169048D01*
X22374285Y25073810D01*
X22326666Y25026191D01*
X22231428Y24978572D01*
X22040952Y24978572D01*
X21945714Y25026191D01*
X21898095Y25073810D01*
X21850476Y25169048D01*
X20898095Y24597620D02*
X21469523Y24597620D01*
X21183809Y24597620D02*
X21183809Y25597620D01*
X21279047Y25454762D01*
X21374285Y25359524D01*
X21469523Y25311905D01*
X17646142Y33271858D02*
X17693761Y33319477D01*
X17741380Y33462334D01*
X17741380Y33557572D01*
X17693761Y33700429D01*
X17598523Y33795667D01*
X17503285Y33843286D01*
X17312809Y33890905D01*
X17169952Y33890905D01*
X16979476Y33843286D01*
X16884238Y33795667D01*
X16789000Y33700429D01*
X16741380Y33557572D01*
X16741380Y33462334D01*
X16789000Y33319477D01*
X16836619Y33271858D01*
X17741380Y32795667D02*
X17741380Y32605191D01*
X17693761Y32509953D01*
X17646142Y32462334D01*
X17503285Y32367096D01*
X17312809Y32319477D01*
X16931857Y32319477D01*
X16836619Y32367096D01*
X16789000Y32414715D01*
X16741380Y32509953D01*
X16741380Y32700429D01*
X16789000Y32795667D01*
X16836619Y32843286D01*
X16931857Y32890905D01*
X17169952Y32890905D01*
X17265190Y32843286D01*
X17312809Y32795667D01*
X17360428Y32700429D01*
X17360428Y32509953D01*
X17312809Y32414715D01*
X17265190Y32367096D01*
X17169952Y32319477D01*
X16741380Y31700429D02*
X16741380Y31605191D01*
X16789000Y31509953D01*
X16836619Y31462334D01*
X16931857Y31414715D01*
X17122333Y31367096D01*
X17360428Y31367096D01*
X17550904Y31414715D01*
X17646142Y31462334D01*
X17693761Y31509953D01*
X17741380Y31605191D01*
X17741380Y31700429D01*
X17693761Y31795667D01*
X17646142Y31843286D01*
X17550904Y31890905D01*
X17360428Y31938524D01*
X17122333Y31938524D01*
X16931857Y31890905D01*
X16836619Y31843286D01*
X16789000Y31795667D01*
X16741380Y31700429D01*
X21375857Y14618858D02*
X21423476Y14571239D01*
X21566333Y14523620D01*
X21661571Y14523620D01*
X21804428Y14571239D01*
X21899666Y14666477D01*
X21947285Y14761715D01*
X21994904Y14952191D01*
X21994904Y15095048D01*
X21947285Y15285524D01*
X21899666Y15380762D01*
X21804428Y15476000D01*
X21661571Y15523620D01*
X21566333Y15523620D01*
X21423476Y15476000D01*
X21375857Y15428381D01*
X20804428Y15095048D02*
X20899666Y15142667D01*
X20947285Y15190286D01*
X20994904Y15285524D01*
X20994904Y15333143D01*
X20947285Y15428381D01*
X20899666Y15476000D01*
X20804428Y15523620D01*
X20613952Y15523620D01*
X20518714Y15476000D01*
X20471095Y15428381D01*
X20423476Y15333143D01*
X20423476Y15285524D01*
X20471095Y15190286D01*
X20518714Y15142667D01*
X20613952Y15095048D01*
X20804428Y15095048D01*
X20899666Y15047429D01*
X20947285Y14999810D01*
X20994904Y14904572D01*
X20994904Y14714096D01*
X20947285Y14618858D01*
X20899666Y14571239D01*
X20804428Y14523620D01*
X20613952Y14523620D01*
X20518714Y14571239D01*
X20471095Y14618858D01*
X20423476Y14714096D01*
X20423476Y14904572D01*
X20471095Y14999810D01*
X20518714Y15047429D01*
X20613952Y15095048D01*
X19947285Y14523620D02*
X19756809Y14523620D01*
X19661571Y14571239D01*
X19613952Y14618858D01*
X19518714Y14761715D01*
X19471095Y14952191D01*
X19471095Y15333143D01*
X19518714Y15428381D01*
X19566333Y15476000D01*
X19661571Y15523620D01*
X19852047Y15523620D01*
X19947285Y15476000D01*
X19994904Y15428381D01*
X20042523Y15333143D01*
X20042523Y15095048D01*
X19994904Y14999810D01*
X19947285Y14952191D01*
X19852047Y14904572D01*
X19661571Y14904572D01*
X19566333Y14952191D01*
X19518714Y14999810D01*
X19471095Y15095048D01*
X24176142Y29502858D02*
X24223761Y29550477D01*
X24271380Y29693334D01*
X24271380Y29788572D01*
X24223761Y29931429D01*
X24128523Y30026667D01*
X24033285Y30074286D01*
X23842809Y30121905D01*
X23699952Y30121905D01*
X23509476Y30074286D01*
X23414238Y30026667D01*
X23319000Y29931429D01*
X23271380Y29788572D01*
X23271380Y29693334D01*
X23319000Y29550477D01*
X23366619Y29502858D01*
X23699952Y28931429D02*
X23652333Y29026667D01*
X23604714Y29074286D01*
X23509476Y29121905D01*
X23461857Y29121905D01*
X23366619Y29074286D01*
X23319000Y29026667D01*
X23271380Y28931429D01*
X23271380Y28740953D01*
X23319000Y28645715D01*
X23366619Y28598096D01*
X23461857Y28550477D01*
X23509476Y28550477D01*
X23604714Y28598096D01*
X23652333Y28645715D01*
X23699952Y28740953D01*
X23699952Y28931429D01*
X23747571Y29026667D01*
X23795190Y29074286D01*
X23890428Y29121905D01*
X24080904Y29121905D01*
X24176142Y29074286D01*
X24223761Y29026667D01*
X24271380Y28931429D01*
X24271380Y28740953D01*
X24223761Y28645715D01*
X24176142Y28598096D01*
X24080904Y28550477D01*
X23890428Y28550477D01*
X23795190Y28598096D01*
X23747571Y28645715D01*
X23699952Y28740953D01*
X23699952Y27979048D02*
X23652333Y28074286D01*
X23604714Y28121905D01*
X23509476Y28169524D01*
X23461857Y28169524D01*
X23366619Y28121905D01*
X23319000Y28074286D01*
X23271380Y27979048D01*
X23271380Y27788572D01*
X23319000Y27693334D01*
X23366619Y27645715D01*
X23461857Y27598096D01*
X23509476Y27598096D01*
X23604714Y27645715D01*
X23652333Y27693334D01*
X23699952Y27788572D01*
X23699952Y27979048D01*
X23747571Y28074286D01*
X23795190Y28121905D01*
X23890428Y28169524D01*
X24080904Y28169524D01*
X24176142Y28121905D01*
X24223761Y28074286D01*
X24271380Y27979048D01*
X24271380Y27788572D01*
X24223761Y27693334D01*
X24176142Y27645715D01*
X24080904Y27598096D01*
X23890428Y27598096D01*
X23795190Y27645715D01*
X23747571Y27693334D01*
X23699952Y27788572D01*
X39042857Y34232858D02*
X39090476Y34185239D01*
X39233333Y34137620D01*
X39328571Y34137620D01*
X39471428Y34185239D01*
X39566666Y34280477D01*
X39614285Y34375715D01*
X39661904Y34566191D01*
X39661904Y34709048D01*
X39614285Y34899524D01*
X39566666Y34994762D01*
X39471428Y35090000D01*
X39328571Y35137620D01*
X39233333Y35137620D01*
X39090476Y35090000D01*
X39042857Y35042381D01*
X38471428Y34709048D02*
X38566666Y34756667D01*
X38614285Y34804286D01*
X38661904Y34899524D01*
X38661904Y34947143D01*
X38614285Y35042381D01*
X38566666Y35090000D01*
X38471428Y35137620D01*
X38280952Y35137620D01*
X38185714Y35090000D01*
X38138095Y35042381D01*
X38090476Y34947143D01*
X38090476Y34899524D01*
X38138095Y34804286D01*
X38185714Y34756667D01*
X38280952Y34709048D01*
X38471428Y34709048D01*
X38566666Y34661429D01*
X38614285Y34613810D01*
X38661904Y34518572D01*
X38661904Y34328096D01*
X38614285Y34232858D01*
X38566666Y34185239D01*
X38471428Y34137620D01*
X38280952Y34137620D01*
X38185714Y34185239D01*
X38138095Y34232858D01*
X38090476Y34328096D01*
X38090476Y34518572D01*
X38138095Y34613810D01*
X38185714Y34661429D01*
X38280952Y34709048D01*
X37233333Y34804286D02*
X37233333Y34137620D01*
X37471428Y35185239D02*
X37709523Y34470953D01*
X37090476Y34470953D01*
X41157142Y32032858D02*
X41204761Y32080477D01*
X41252380Y32223334D01*
X41252380Y32318572D01*
X41204761Y32461429D01*
X41109523Y32556667D01*
X41014285Y32604286D01*
X40823809Y32651905D01*
X40680952Y32651905D01*
X40490476Y32604286D01*
X40395238Y32556667D01*
X40300000Y32461429D01*
X40252380Y32318572D01*
X40252380Y32223334D01*
X40300000Y32080477D01*
X40347619Y32032858D01*
X40680952Y31461429D02*
X40633333Y31556667D01*
X40585714Y31604286D01*
X40490476Y31651905D01*
X40442857Y31651905D01*
X40347619Y31604286D01*
X40300000Y31556667D01*
X40252380Y31461429D01*
X40252380Y31270953D01*
X40300000Y31175715D01*
X40347619Y31128096D01*
X40442857Y31080477D01*
X40490476Y31080477D01*
X40585714Y31128096D01*
X40633333Y31175715D01*
X40680952Y31270953D01*
X40680952Y31461429D01*
X40728571Y31556667D01*
X40776190Y31604286D01*
X40871428Y31651905D01*
X41061904Y31651905D01*
X41157142Y31604286D01*
X41204761Y31556667D01*
X41252380Y31461429D01*
X41252380Y31270953D01*
X41204761Y31175715D01*
X41157142Y31128096D01*
X41061904Y31080477D01*
X40871428Y31080477D01*
X40776190Y31128096D01*
X40728571Y31175715D01*
X40680952Y31270953D01*
X40252380Y30747143D02*
X40252380Y30128096D01*
X40633333Y30461429D01*
X40633333Y30318572D01*
X40680952Y30223334D01*
X40728571Y30175715D01*
X40823809Y30128096D01*
X41061904Y30128096D01*
X41157142Y30175715D01*
X41204761Y30223334D01*
X41252380Y30318572D01*
X41252380Y30604286D01*
X41204761Y30699524D01*
X41157142Y30747143D01*
X34157142Y37632858D02*
X34204761Y37680477D01*
X34252380Y37823334D01*
X34252380Y37918572D01*
X34204761Y38061429D01*
X34109523Y38156667D01*
X34014285Y38204286D01*
X33823809Y38251905D01*
X33680952Y38251905D01*
X33490476Y38204286D01*
X33395238Y38156667D01*
X33300000Y38061429D01*
X33252380Y37918572D01*
X33252380Y37823334D01*
X33300000Y37680477D01*
X33347619Y37632858D01*
X33680952Y37061429D02*
X33633333Y37156667D01*
X33585714Y37204286D01*
X33490476Y37251905D01*
X33442857Y37251905D01*
X33347619Y37204286D01*
X33300000Y37156667D01*
X33252380Y37061429D01*
X33252380Y36870953D01*
X33300000Y36775715D01*
X33347619Y36728096D01*
X33442857Y36680477D01*
X33490476Y36680477D01*
X33585714Y36728096D01*
X33633333Y36775715D01*
X33680952Y36870953D01*
X33680952Y37061429D01*
X33728571Y37156667D01*
X33776190Y37204286D01*
X33871428Y37251905D01*
X34061904Y37251905D01*
X34157142Y37204286D01*
X34204761Y37156667D01*
X34252380Y37061429D01*
X34252380Y36870953D01*
X34204761Y36775715D01*
X34157142Y36728096D01*
X34061904Y36680477D01*
X33871428Y36680477D01*
X33776190Y36728096D01*
X33728571Y36775715D01*
X33680952Y36870953D01*
X33347619Y36299524D02*
X33300000Y36251905D01*
X33252380Y36156667D01*
X33252380Y35918572D01*
X33300000Y35823334D01*
X33347619Y35775715D01*
X33442857Y35728096D01*
X33538095Y35728096D01*
X33680952Y35775715D01*
X34252380Y36347143D01*
X34252380Y35728096D01*
X39242857Y29832858D02*
X39290476Y29785239D01*
X39433333Y29737620D01*
X39528571Y29737620D01*
X39671428Y29785239D01*
X39766666Y29880477D01*
X39814285Y29975715D01*
X39861904Y30166191D01*
X39861904Y30309048D01*
X39814285Y30499524D01*
X39766666Y30594762D01*
X39671428Y30690000D01*
X39528571Y30737620D01*
X39433333Y30737620D01*
X39290476Y30690000D01*
X39242857Y30642381D01*
X38671428Y30309048D02*
X38766666Y30356667D01*
X38814285Y30404286D01*
X38861904Y30499524D01*
X38861904Y30547143D01*
X38814285Y30642381D01*
X38766666Y30690000D01*
X38671428Y30737620D01*
X38480952Y30737620D01*
X38385714Y30690000D01*
X38338095Y30642381D01*
X38290476Y30547143D01*
X38290476Y30499524D01*
X38338095Y30404286D01*
X38385714Y30356667D01*
X38480952Y30309048D01*
X38671428Y30309048D01*
X38766666Y30261429D01*
X38814285Y30213810D01*
X38861904Y30118572D01*
X38861904Y29928096D01*
X38814285Y29832858D01*
X38766666Y29785239D01*
X38671428Y29737620D01*
X38480952Y29737620D01*
X38385714Y29785239D01*
X38338095Y29832858D01*
X38290476Y29928096D01*
X38290476Y30118572D01*
X38338095Y30213810D01*
X38385714Y30261429D01*
X38480952Y30309048D01*
X37338095Y29737620D02*
X37909523Y29737620D01*
X37623809Y29737620D02*
X37623809Y30737620D01*
X37719047Y30594762D01*
X37814285Y30499524D01*
X37909523Y30451905D01*
X37042857Y31432858D02*
X37090476Y31385239D01*
X37233333Y31337620D01*
X37328571Y31337620D01*
X37471428Y31385239D01*
X37566666Y31480477D01*
X37614285Y31575715D01*
X37661904Y31766191D01*
X37661904Y31909048D01*
X37614285Y32099524D01*
X37566666Y32194762D01*
X37471428Y32290000D01*
X37328571Y32337620D01*
X37233333Y32337620D01*
X37090476Y32290000D01*
X37042857Y32242381D01*
X36471428Y31909048D02*
X36566666Y31956667D01*
X36614285Y32004286D01*
X36661904Y32099524D01*
X36661904Y32147143D01*
X36614285Y32242381D01*
X36566666Y32290000D01*
X36471428Y32337620D01*
X36280952Y32337620D01*
X36185714Y32290000D01*
X36138095Y32242381D01*
X36090476Y32147143D01*
X36090476Y32099524D01*
X36138095Y32004286D01*
X36185714Y31956667D01*
X36280952Y31909048D01*
X36471428Y31909048D01*
X36566666Y31861429D01*
X36614285Y31813810D01*
X36661904Y31718572D01*
X36661904Y31528096D01*
X36614285Y31432858D01*
X36566666Y31385239D01*
X36471428Y31337620D01*
X36280952Y31337620D01*
X36185714Y31385239D01*
X36138095Y31432858D01*
X36090476Y31528096D01*
X36090476Y31718572D01*
X36138095Y31813810D01*
X36185714Y31861429D01*
X36280952Y31909048D01*
X35471428Y32337620D02*
X35376190Y32337620D01*
X35280952Y32290000D01*
X35233333Y32242381D01*
X35185714Y32147143D01*
X35138095Y31956667D01*
X35138095Y31718572D01*
X35185714Y31528096D01*
X35233333Y31432858D01*
X35280952Y31385239D01*
X35376190Y31337620D01*
X35471428Y31337620D01*
X35566666Y31385239D01*
X35614285Y31432858D01*
X35661904Y31528096D01*
X35709523Y31718572D01*
X35709523Y31956667D01*
X35661904Y32147143D01*
X35614285Y32242381D01*
X35566666Y32290000D01*
X35471428Y32337620D01*
X33842857Y32032858D02*
X33890476Y31985239D01*
X34033333Y31937620D01*
X34128571Y31937620D01*
X34271428Y31985239D01*
X34366666Y32080477D01*
X34414285Y32175715D01*
X34461904Y32366191D01*
X34461904Y32509048D01*
X34414285Y32699524D01*
X34366666Y32794762D01*
X34271428Y32890000D01*
X34128571Y32937620D01*
X34033333Y32937620D01*
X33890476Y32890000D01*
X33842857Y32842381D01*
X33509523Y32937620D02*
X32842857Y32937620D01*
X33271428Y31937620D01*
X32414285Y31937620D02*
X32223809Y31937620D01*
X32128571Y31985239D01*
X32080952Y32032858D01*
X31985714Y32175715D01*
X31938095Y32366191D01*
X31938095Y32747143D01*
X31985714Y32842381D01*
X32033333Y32890000D01*
X32128571Y32937620D01*
X32319047Y32937620D01*
X32414285Y32890000D01*
X32461904Y32842381D01*
X32509523Y32747143D01*
X32509523Y32509048D01*
X32461904Y32413810D01*
X32414285Y32366191D01*
X32319047Y32318572D01*
X32128571Y32318572D01*
X32033333Y32366191D01*
X31985714Y32413810D01*
X31938095Y32509048D01*
X27642857Y21862858D02*
X27690476Y21815239D01*
X27833333Y21767620D01*
X27928571Y21767620D01*
X28071428Y21815239D01*
X28166666Y21910477D01*
X28214285Y22005715D01*
X28261904Y22196191D01*
X28261904Y22339048D01*
X28214285Y22529524D01*
X28166666Y22624762D01*
X28071428Y22720000D01*
X27928571Y22767620D01*
X27833333Y22767620D01*
X27690476Y22720000D01*
X27642857Y22672381D01*
X27309523Y22767620D02*
X26642857Y22767620D01*
X27071428Y21767620D01*
X26357142Y22767620D02*
X25690476Y22767620D01*
X26119047Y21767620D01*
X29527142Y30032858D02*
X29574761Y30080477D01*
X29622380Y30223334D01*
X29622380Y30318572D01*
X29574761Y30461429D01*
X29479523Y30556667D01*
X29384285Y30604286D01*
X29193809Y30651905D01*
X29050952Y30651905D01*
X28860476Y30604286D01*
X28765238Y30556667D01*
X28670000Y30461429D01*
X28622380Y30318572D01*
X28622380Y30223334D01*
X28670000Y30080477D01*
X28717619Y30032858D01*
X28622380Y29699524D02*
X28622380Y29032858D01*
X29622380Y29461429D01*
X28622380Y28223334D02*
X28622380Y28413810D01*
X28670000Y28509048D01*
X28717619Y28556667D01*
X28860476Y28651905D01*
X29050952Y28699524D01*
X29431904Y28699524D01*
X29527142Y28651905D01*
X29574761Y28604286D01*
X29622380Y28509048D01*
X29622380Y28318572D01*
X29574761Y28223334D01*
X29527142Y28175715D01*
X29431904Y28128096D01*
X29193809Y28128096D01*
X29098571Y28175715D01*
X29050952Y28223334D01*
X29003333Y28318572D01*
X29003333Y28509048D01*
X29050952Y28604286D01*
X29098571Y28651905D01*
X29193809Y28699524D01*
X27979857Y17920858D02*
X28027476Y17873239D01*
X28170333Y17825620D01*
X28265571Y17825620D01*
X28408428Y17873239D01*
X28503666Y17968477D01*
X28551285Y18063715D01*
X28598904Y18254191D01*
X28598904Y18397048D01*
X28551285Y18587524D01*
X28503666Y18682762D01*
X28408428Y18778000D01*
X28265571Y18825620D01*
X28170333Y18825620D01*
X28027476Y18778000D01*
X27979857Y18730381D01*
X27646523Y18825620D02*
X26979857Y18825620D01*
X27408428Y17825620D01*
X26122714Y18825620D02*
X26598904Y18825620D01*
X26646523Y18349429D01*
X26598904Y18397048D01*
X26503666Y18444667D01*
X26265571Y18444667D01*
X26170333Y18397048D01*
X26122714Y18349429D01*
X26075095Y18254191D01*
X26075095Y18016096D01*
X26122714Y17920858D01*
X26170333Y17873239D01*
X26265571Y17825620D01*
X26503666Y17825620D01*
X26598904Y17873239D01*
X26646523Y17920858D01*
X32357142Y27632858D02*
X32404761Y27680477D01*
X32452380Y27823334D01*
X32452380Y27918572D01*
X32404761Y28061429D01*
X32309523Y28156667D01*
X32214285Y28204286D01*
X32023809Y28251905D01*
X31880952Y28251905D01*
X31690476Y28204286D01*
X31595238Y28156667D01*
X31500000Y28061429D01*
X31452380Y27918572D01*
X31452380Y27823334D01*
X31500000Y27680477D01*
X31547619Y27632858D01*
X31452380Y27299524D02*
X31452380Y26632858D01*
X32452380Y27061429D01*
X31785714Y25823334D02*
X32452380Y25823334D01*
X31404761Y26061429D02*
X32119047Y26299524D01*
X32119047Y25680477D01*
X25797142Y23982858D02*
X25844761Y24030477D01*
X25892380Y24173334D01*
X25892380Y24268572D01*
X25844761Y24411429D01*
X25749523Y24506667D01*
X25654285Y24554286D01*
X25463809Y24601905D01*
X25320952Y24601905D01*
X25130476Y24554286D01*
X25035238Y24506667D01*
X24940000Y24411429D01*
X24892380Y24268572D01*
X24892380Y24173334D01*
X24940000Y24030477D01*
X24987619Y23982858D01*
X24892380Y23649524D02*
X24892380Y22982858D01*
X25892380Y23411429D01*
X24892380Y22697143D02*
X24892380Y22078096D01*
X25273333Y22411429D01*
X25273333Y22268572D01*
X25320952Y22173334D01*
X25368571Y22125715D01*
X25463809Y22078096D01*
X25701904Y22078096D01*
X25797142Y22125715D01*
X25844761Y22173334D01*
X25892380Y22268572D01*
X25892380Y22554286D01*
X25844761Y22649524D01*
X25797142Y22697143D01*
X29642857Y20862858D02*
X29690476Y20815239D01*
X29833333Y20767620D01*
X29928571Y20767620D01*
X30071428Y20815239D01*
X30166666Y20910477D01*
X30214285Y21005715D01*
X30261904Y21196191D01*
X30261904Y21339048D01*
X30214285Y21529524D01*
X30166666Y21624762D01*
X30071428Y21720000D01*
X29928571Y21767620D01*
X29833333Y21767620D01*
X29690476Y21720000D01*
X29642857Y21672381D01*
X29309523Y21767620D02*
X28642857Y21767620D01*
X29071428Y20767620D01*
X28309523Y21672381D02*
X28261904Y21720000D01*
X28166666Y21767620D01*
X27928571Y21767620D01*
X27833333Y21720000D01*
X27785714Y21672381D01*
X27738095Y21577143D01*
X27738095Y21481905D01*
X27785714Y21339048D01*
X28357142Y20767620D01*
X27738095Y20767620D01*
X28242857Y23832858D02*
X28290476Y23785239D01*
X28433333Y23737620D01*
X28528571Y23737620D01*
X28671428Y23785239D01*
X28766666Y23880477D01*
X28814285Y23975715D01*
X28861904Y24166191D01*
X28861904Y24309048D01*
X28814285Y24499524D01*
X28766666Y24594762D01*
X28671428Y24690000D01*
X28528571Y24737620D01*
X28433333Y24737620D01*
X28290476Y24690000D01*
X28242857Y24642381D01*
X27909523Y24737620D02*
X27242857Y24737620D01*
X27671428Y23737620D01*
X26338095Y23737620D02*
X26909523Y23737620D01*
X26623809Y23737620D02*
X26623809Y24737620D01*
X26719047Y24594762D01*
X26814285Y24499524D01*
X26909523Y24451905D01*
X31742857Y29762858D02*
X31790476Y29715239D01*
X31933333Y29667620D01*
X32028571Y29667620D01*
X32171428Y29715239D01*
X32266666Y29810477D01*
X32314285Y29905715D01*
X32361904Y30096191D01*
X32361904Y30239048D01*
X32314285Y30429524D01*
X32266666Y30524762D01*
X32171428Y30620000D01*
X32028571Y30667620D01*
X31933333Y30667620D01*
X31790476Y30620000D01*
X31742857Y30572381D01*
X31409523Y30667620D02*
X30742857Y30667620D01*
X31171428Y29667620D01*
X30171428Y30667620D02*
X30076190Y30667620D01*
X29980952Y30620000D01*
X29933333Y30572381D01*
X29885714Y30477143D01*
X29838095Y30286667D01*
X29838095Y30048572D01*
X29885714Y29858096D01*
X29933333Y29762858D01*
X29980952Y29715239D01*
X30076190Y29667620D01*
X30171428Y29667620D01*
X30266666Y29715239D01*
X30314285Y29762858D01*
X30361904Y29858096D01*
X30409523Y30048572D01*
X30409523Y30286667D01*
X30361904Y30477143D01*
X30314285Y30572381D01*
X30266666Y30620000D01*
X30171428Y30667620D01*
X30142857Y26202858D02*
X30190476Y26155239D01*
X30333333Y26107620D01*
X30428571Y26107620D01*
X30571428Y26155239D01*
X30666666Y26250477D01*
X30714285Y26345715D01*
X30761904Y26536191D01*
X30761904Y26679048D01*
X30714285Y26869524D01*
X30666666Y26964762D01*
X30571428Y27060000D01*
X30428571Y27107620D01*
X30333333Y27107620D01*
X30190476Y27060000D01*
X30142857Y27012381D01*
X29285714Y27107620D02*
X29476190Y27107620D01*
X29571428Y27060000D01*
X29619047Y27012381D01*
X29714285Y26869524D01*
X29761904Y26679048D01*
X29761904Y26298096D01*
X29714285Y26202858D01*
X29666666Y26155239D01*
X29571428Y26107620D01*
X29380952Y26107620D01*
X29285714Y26155239D01*
X29238095Y26202858D01*
X29190476Y26298096D01*
X29190476Y26536191D01*
X29238095Y26631429D01*
X29285714Y26679048D01*
X29380952Y26726667D01*
X29571428Y26726667D01*
X29666666Y26679048D01*
X29714285Y26631429D01*
X29761904Y26536191D01*
X28714285Y26107620D02*
X28523809Y26107620D01*
X28428571Y26155239D01*
X28380952Y26202858D01*
X28285714Y26345715D01*
X28238095Y26536191D01*
X28238095Y26917143D01*
X28285714Y27012381D01*
X28333333Y27060000D01*
X28428571Y27107620D01*
X28619047Y27107620D01*
X28714285Y27060000D01*
X28761904Y27012381D01*
X28809523Y26917143D01*
X28809523Y26679048D01*
X28761904Y26583810D01*
X28714285Y26536191D01*
X28619047Y26488572D01*
X28428571Y26488572D01*
X28333333Y26536191D01*
X28285714Y26583810D01*
X28238095Y26679048D01*
X34425142Y18285858D02*
X34472761Y18333477D01*
X34520380Y18476334D01*
X34520380Y18571572D01*
X34472761Y18714429D01*
X34377523Y18809667D01*
X34282285Y18857286D01*
X34091809Y18904905D01*
X33948952Y18904905D01*
X33758476Y18857286D01*
X33663238Y18809667D01*
X33568000Y18714429D01*
X33520380Y18571572D01*
X33520380Y18476334D01*
X33568000Y18333477D01*
X33615619Y18285858D01*
X33520380Y17428715D02*
X33520380Y17619191D01*
X33568000Y17714429D01*
X33615619Y17762048D01*
X33758476Y17857286D01*
X33948952Y17904905D01*
X34329904Y17904905D01*
X34425142Y17857286D01*
X34472761Y17809667D01*
X34520380Y17714429D01*
X34520380Y17523953D01*
X34472761Y17428715D01*
X34425142Y17381096D01*
X34329904Y17333477D01*
X34091809Y17333477D01*
X33996571Y17381096D01*
X33948952Y17428715D01*
X33901333Y17523953D01*
X33901333Y17714429D01*
X33948952Y17809667D01*
X33996571Y17857286D01*
X34091809Y17904905D01*
X33520380Y16476334D02*
X33520380Y16666810D01*
X33568000Y16762048D01*
X33615619Y16809667D01*
X33758476Y16904905D01*
X33948952Y16952524D01*
X34329904Y16952524D01*
X34425142Y16904905D01*
X34472761Y16857286D01*
X34520380Y16762048D01*
X34520380Y16571572D01*
X34472761Y16476334D01*
X34425142Y16428715D01*
X34329904Y16381096D01*
X34091809Y16381096D01*
X33996571Y16428715D01*
X33948952Y16476334D01*
X33901333Y16571572D01*
X33901333Y16762048D01*
X33948952Y16857286D01*
X33996571Y16904905D01*
X34091809Y16952524D01*
X40857142Y20832858D02*
X40904761Y20880477D01*
X40952380Y21023334D01*
X40952380Y21118572D01*
X40904761Y21261429D01*
X40809523Y21356667D01*
X40714285Y21404286D01*
X40523809Y21451905D01*
X40380952Y21451905D01*
X40190476Y21404286D01*
X40095238Y21356667D01*
X40000000Y21261429D01*
X39952380Y21118572D01*
X39952380Y21023334D01*
X40000000Y20880477D01*
X40047619Y20832858D01*
X39952380Y19975715D02*
X39952380Y20166191D01*
X40000000Y20261429D01*
X40047619Y20309048D01*
X40190476Y20404286D01*
X40380952Y20451905D01*
X40761904Y20451905D01*
X40857142Y20404286D01*
X40904761Y20356667D01*
X40952380Y20261429D01*
X40952380Y20070953D01*
X40904761Y19975715D01*
X40857142Y19928096D01*
X40761904Y19880477D01*
X40523809Y19880477D01*
X40428571Y19928096D01*
X40380952Y19975715D01*
X40333333Y20070953D01*
X40333333Y20261429D01*
X40380952Y20356667D01*
X40428571Y20404286D01*
X40523809Y20451905D01*
X39952380Y18975715D02*
X39952380Y19451905D01*
X40428571Y19499524D01*
X40380952Y19451905D01*
X40333333Y19356667D01*
X40333333Y19118572D01*
X40380952Y19023334D01*
X40428571Y18975715D01*
X40523809Y18928096D01*
X40761904Y18928096D01*
X40857142Y18975715D01*
X40904761Y19023334D01*
X40952380Y19118572D01*
X40952380Y19356667D01*
X40904761Y19451905D01*
X40857142Y19499524D01*
X40552857Y15888858D02*
X40600476Y15841239D01*
X40743333Y15793620D01*
X40838571Y15793620D01*
X40981428Y15841239D01*
X41076666Y15936477D01*
X41124285Y16031715D01*
X41171904Y16222191D01*
X41171904Y16365048D01*
X41124285Y16555524D01*
X41076666Y16650762D01*
X40981428Y16746000D01*
X40838571Y16793620D01*
X40743333Y16793620D01*
X40600476Y16746000D01*
X40552857Y16698381D01*
X39695714Y16793620D02*
X39886190Y16793620D01*
X39981428Y16746000D01*
X40029047Y16698381D01*
X40124285Y16555524D01*
X40171904Y16365048D01*
X40171904Y15984096D01*
X40124285Y15888858D01*
X40076666Y15841239D01*
X39981428Y15793620D01*
X39790952Y15793620D01*
X39695714Y15841239D01*
X39648095Y15888858D01*
X39600476Y15984096D01*
X39600476Y16222191D01*
X39648095Y16317429D01*
X39695714Y16365048D01*
X39790952Y16412667D01*
X39981428Y16412667D01*
X40076666Y16365048D01*
X40124285Y16317429D01*
X40171904Y16222191D01*
X38743333Y16460286D02*
X38743333Y15793620D01*
X38981428Y16841239D02*
X39219523Y16126953D01*
X38600476Y16126953D01*
X34657142Y24632858D02*
X34704761Y24680477D01*
X34752380Y24823334D01*
X34752380Y24918572D01*
X34704761Y25061429D01*
X34609523Y25156667D01*
X34514285Y25204286D01*
X34323809Y25251905D01*
X34180952Y25251905D01*
X33990476Y25204286D01*
X33895238Y25156667D01*
X33800000Y25061429D01*
X33752380Y24918572D01*
X33752380Y24823334D01*
X33800000Y24680477D01*
X33847619Y24632858D01*
X33752380Y23775715D02*
X33752380Y23966191D01*
X33800000Y24061429D01*
X33847619Y24109048D01*
X33990476Y24204286D01*
X34180952Y24251905D01*
X34561904Y24251905D01*
X34657142Y24204286D01*
X34704761Y24156667D01*
X34752380Y24061429D01*
X34752380Y23870953D01*
X34704761Y23775715D01*
X34657142Y23728096D01*
X34561904Y23680477D01*
X34323809Y23680477D01*
X34228571Y23728096D01*
X34180952Y23775715D01*
X34133333Y23870953D01*
X34133333Y24061429D01*
X34180952Y24156667D01*
X34228571Y24204286D01*
X34323809Y24251905D01*
X33752380Y23347143D02*
X33752380Y22728096D01*
X34133333Y23061429D01*
X34133333Y22918572D01*
X34180952Y22823334D01*
X34228571Y22775715D01*
X34323809Y22728096D01*
X34561904Y22728096D01*
X34657142Y22775715D01*
X34704761Y22823334D01*
X34752380Y22918572D01*
X34752380Y23204286D01*
X34704761Y23299524D01*
X34657142Y23347143D01*
X39457142Y20932858D02*
X39504761Y20980477D01*
X39552380Y21123334D01*
X39552380Y21218572D01*
X39504761Y21361429D01*
X39409523Y21456667D01*
X39314285Y21504286D01*
X39123809Y21551905D01*
X38980952Y21551905D01*
X38790476Y21504286D01*
X38695238Y21456667D01*
X38600000Y21361429D01*
X38552380Y21218572D01*
X38552380Y21123334D01*
X38600000Y20980477D01*
X38647619Y20932858D01*
X38552380Y20075715D02*
X38552380Y20266191D01*
X38600000Y20361429D01*
X38647619Y20409048D01*
X38790476Y20504286D01*
X38980952Y20551905D01*
X39361904Y20551905D01*
X39457142Y20504286D01*
X39504761Y20456667D01*
X39552380Y20361429D01*
X39552380Y20170953D01*
X39504761Y20075715D01*
X39457142Y20028096D01*
X39361904Y19980477D01*
X39123809Y19980477D01*
X39028571Y20028096D01*
X38980952Y20075715D01*
X38933333Y20170953D01*
X38933333Y20361429D01*
X38980952Y20456667D01*
X39028571Y20504286D01*
X39123809Y20551905D01*
X38647619Y19599524D02*
X38600000Y19551905D01*
X38552380Y19456667D01*
X38552380Y19218572D01*
X38600000Y19123334D01*
X38647619Y19075715D01*
X38742857Y19028096D01*
X38838095Y19028096D01*
X38980952Y19075715D01*
X39552380Y19647143D01*
X39552380Y19028096D01*
X35587142Y21714858D02*
X35634761Y21762477D01*
X35682380Y21905334D01*
X35682380Y22000572D01*
X35634761Y22143429D01*
X35539523Y22238667D01*
X35444285Y22286286D01*
X35253809Y22333905D01*
X35110952Y22333905D01*
X34920476Y22286286D01*
X34825238Y22238667D01*
X34730000Y22143429D01*
X34682380Y22000572D01*
X34682380Y21905334D01*
X34730000Y21762477D01*
X34777619Y21714858D01*
X34682380Y20857715D02*
X34682380Y21048191D01*
X34730000Y21143429D01*
X34777619Y21191048D01*
X34920476Y21286286D01*
X35110952Y21333905D01*
X35491904Y21333905D01*
X35587142Y21286286D01*
X35634761Y21238667D01*
X35682380Y21143429D01*
X35682380Y20952953D01*
X35634761Y20857715D01*
X35587142Y20810096D01*
X35491904Y20762477D01*
X35253809Y20762477D01*
X35158571Y20810096D01*
X35110952Y20857715D01*
X35063333Y20952953D01*
X35063333Y21143429D01*
X35110952Y21238667D01*
X35158571Y21286286D01*
X35253809Y21333905D01*
X35682380Y19810096D02*
X35682380Y20381524D01*
X35682380Y20095810D02*
X34682380Y20095810D01*
X34825238Y20191048D01*
X34920476Y20286286D01*
X34968095Y20381524D01*
X27042857Y29632858D02*
X27090476Y29585239D01*
X27233333Y29537620D01*
X27328571Y29537620D01*
X27471428Y29585239D01*
X27566666Y29680477D01*
X27614285Y29775715D01*
X27661904Y29966191D01*
X27661904Y30109048D01*
X27614285Y30299524D01*
X27566666Y30394762D01*
X27471428Y30490000D01*
X27328571Y30537620D01*
X27233333Y30537620D01*
X27090476Y30490000D01*
X27042857Y30442381D01*
X26138095Y30537620D02*
X26614285Y30537620D01*
X26661904Y30061429D01*
X26614285Y30109048D01*
X26519047Y30156667D01*
X26280952Y30156667D01*
X26185714Y30109048D01*
X26138095Y30061429D01*
X26090476Y29966191D01*
X26090476Y29728096D01*
X26138095Y29632858D01*
X26185714Y29585239D01*
X26280952Y29537620D01*
X26519047Y29537620D01*
X26614285Y29585239D01*
X26661904Y29632858D01*
X25614285Y29537620D02*
X25423809Y29537620D01*
X25328571Y29585239D01*
X25280952Y29632858D01*
X25185714Y29775715D01*
X25138095Y29966191D01*
X25138095Y30347143D01*
X25185714Y30442381D01*
X25233333Y30490000D01*
X25328571Y30537620D01*
X25519047Y30537620D01*
X25614285Y30490000D01*
X25661904Y30442381D01*
X25709523Y30347143D01*
X25709523Y30109048D01*
X25661904Y30013810D01*
X25614285Y29966191D01*
X25519047Y29918572D01*
X25328571Y29918572D01*
X25233333Y29966191D01*
X25185714Y30013810D01*
X25138095Y30109048D01*
X25357142Y29432858D02*
X25404761Y29480477D01*
X25452380Y29623334D01*
X25452380Y29718572D01*
X25404761Y29861429D01*
X25309523Y29956667D01*
X25214285Y30004286D01*
X25023809Y30051905D01*
X24880952Y30051905D01*
X24690476Y30004286D01*
X24595238Y29956667D01*
X24500000Y29861429D01*
X24452380Y29718572D01*
X24452380Y29623334D01*
X24500000Y29480477D01*
X24547619Y29432858D01*
X24452380Y28528096D02*
X24452380Y29004286D01*
X24928571Y29051905D01*
X24880952Y29004286D01*
X24833333Y28909048D01*
X24833333Y28670953D01*
X24880952Y28575715D01*
X24928571Y28528096D01*
X25023809Y28480477D01*
X25261904Y28480477D01*
X25357142Y28528096D01*
X25404761Y28575715D01*
X25452380Y28670953D01*
X25452380Y28909048D01*
X25404761Y29004286D01*
X25357142Y29051905D01*
X24880952Y27909048D02*
X24833333Y28004286D01*
X24785714Y28051905D01*
X24690476Y28099524D01*
X24642857Y28099524D01*
X24547619Y28051905D01*
X24500000Y28004286D01*
X24452380Y27909048D01*
X24452380Y27718572D01*
X24500000Y27623334D01*
X24547619Y27575715D01*
X24642857Y27528096D01*
X24690476Y27528096D01*
X24785714Y27575715D01*
X24833333Y27623334D01*
X24880952Y27718572D01*
X24880952Y27909048D01*
X24928571Y28004286D01*
X24976190Y28051905D01*
X25071428Y28099524D01*
X25261904Y28099524D01*
X25357142Y28051905D01*
X25404761Y28004286D01*
X25452380Y27909048D01*
X25452380Y27718572D01*
X25404761Y27623334D01*
X25357142Y27575715D01*
X25261904Y27528096D01*
X25071428Y27528096D01*
X24976190Y27575715D01*
X24928571Y27623334D01*
X24880952Y27718572D01*
X28642857Y27202858D02*
X28690476Y27155239D01*
X28833333Y27107620D01*
X28928571Y27107620D01*
X29071428Y27155239D01*
X29166666Y27250477D01*
X29214285Y27345715D01*
X29261904Y27536191D01*
X29261904Y27679048D01*
X29214285Y27869524D01*
X29166666Y27964762D01*
X29071428Y28060000D01*
X28928571Y28107620D01*
X28833333Y28107620D01*
X28690476Y28060000D01*
X28642857Y28012381D01*
X27738095Y28107620D02*
X28214285Y28107620D01*
X28261904Y27631429D01*
X28214285Y27679048D01*
X28119047Y27726667D01*
X27880952Y27726667D01*
X27785714Y27679048D01*
X27738095Y27631429D01*
X27690476Y27536191D01*
X27690476Y27298096D01*
X27738095Y27202858D01*
X27785714Y27155239D01*
X27880952Y27107620D01*
X28119047Y27107620D01*
X28214285Y27155239D01*
X28261904Y27202858D01*
X26833333Y28107620D02*
X27023809Y28107620D01*
X27119047Y28060000D01*
X27166666Y28012381D01*
X27261904Y27869524D01*
X27309523Y27679048D01*
X27309523Y27298096D01*
X27261904Y27202858D01*
X27214285Y27155239D01*
X27119047Y27107620D01*
X26928571Y27107620D01*
X26833333Y27155239D01*
X26785714Y27202858D01*
X26738095Y27298096D01*
X26738095Y27536191D01*
X26785714Y27631429D01*
X26833333Y27679048D01*
X26928571Y27726667D01*
X27119047Y27726667D01*
X27214285Y27679048D01*
X27261904Y27631429D01*
X27309523Y27536191D01*
X27942857Y31632858D02*
X27990476Y31585239D01*
X28133333Y31537620D01*
X28228571Y31537620D01*
X28371428Y31585239D01*
X28466666Y31680477D01*
X28514285Y31775715D01*
X28561904Y31966191D01*
X28561904Y32109048D01*
X28514285Y32299524D01*
X28466666Y32394762D01*
X28371428Y32490000D01*
X28228571Y32537620D01*
X28133333Y32537620D01*
X27990476Y32490000D01*
X27942857Y32442381D01*
X27038095Y32537620D02*
X27514285Y32537620D01*
X27561904Y32061429D01*
X27514285Y32109048D01*
X27419047Y32156667D01*
X27180952Y32156667D01*
X27085714Y32109048D01*
X27038095Y32061429D01*
X26990476Y31966191D01*
X26990476Y31728096D01*
X27038095Y31632858D01*
X27085714Y31585239D01*
X27180952Y31537620D01*
X27419047Y31537620D01*
X27514285Y31585239D01*
X27561904Y31632858D01*
X26085714Y32537620D02*
X26561904Y32537620D01*
X26609523Y32061429D01*
X26561904Y32109048D01*
X26466666Y32156667D01*
X26228571Y32156667D01*
X26133333Y32109048D01*
X26085714Y32061429D01*
X26038095Y31966191D01*
X26038095Y31728096D01*
X26085714Y31632858D01*
X26133333Y31585239D01*
X26228571Y31537620D01*
X26466666Y31537620D01*
X26561904Y31585239D01*
X26609523Y31632858D01*
X29422857Y30622858D02*
X29470476Y30575239D01*
X29613333Y30527620D01*
X29708571Y30527620D01*
X29851428Y30575239D01*
X29946666Y30670477D01*
X29994285Y30765715D01*
X30041904Y30956191D01*
X30041904Y31099048D01*
X29994285Y31289524D01*
X29946666Y31384762D01*
X29851428Y31480000D01*
X29708571Y31527620D01*
X29613333Y31527620D01*
X29470476Y31480000D01*
X29422857Y31432381D01*
X28518095Y31527620D02*
X28994285Y31527620D01*
X29041904Y31051429D01*
X28994285Y31099048D01*
X28899047Y31146667D01*
X28660952Y31146667D01*
X28565714Y31099048D01*
X28518095Y31051429D01*
X28470476Y30956191D01*
X28470476Y30718096D01*
X28518095Y30622858D01*
X28565714Y30575239D01*
X28660952Y30527620D01*
X28899047Y30527620D01*
X28994285Y30575239D01*
X29041904Y30622858D01*
X27613333Y31194286D02*
X27613333Y30527620D01*
X27851428Y31575239D02*
X28089523Y30860953D01*
X27470476Y30860953D01*
X24242857Y32232858D02*
X24290476Y32185239D01*
X24433333Y32137620D01*
X24528571Y32137620D01*
X24671428Y32185239D01*
X24766666Y32280477D01*
X24814285Y32375715D01*
X24861904Y32566191D01*
X24861904Y32709048D01*
X24814285Y32899524D01*
X24766666Y32994762D01*
X24671428Y33090000D01*
X24528571Y33137620D01*
X24433333Y33137620D01*
X24290476Y33090000D01*
X24242857Y33042381D01*
X23338095Y33137620D02*
X23814285Y33137620D01*
X23861904Y32661429D01*
X23814285Y32709048D01*
X23719047Y32756667D01*
X23480952Y32756667D01*
X23385714Y32709048D01*
X23338095Y32661429D01*
X23290476Y32566191D01*
X23290476Y32328096D01*
X23338095Y32232858D01*
X23385714Y32185239D01*
X23480952Y32137620D01*
X23719047Y32137620D01*
X23814285Y32185239D01*
X23861904Y32232858D01*
X22957142Y33137620D02*
X22338095Y33137620D01*
X22671428Y32756667D01*
X22528571Y32756667D01*
X22433333Y32709048D01*
X22385714Y32661429D01*
X22338095Y32566191D01*
X22338095Y32328096D01*
X22385714Y32232858D01*
X22433333Y32185239D01*
X22528571Y32137620D01*
X22814285Y32137620D01*
X22909523Y32185239D01*
X22957142Y32232858D01*
X33282142Y24635858D02*
X33329761Y24683477D01*
X33377380Y24826334D01*
X33377380Y24921572D01*
X33329761Y25064429D01*
X33234523Y25159667D01*
X33139285Y25207286D01*
X32948809Y25254905D01*
X32805952Y25254905D01*
X32615476Y25207286D01*
X32520238Y25159667D01*
X32425000Y25064429D01*
X32377380Y24921572D01*
X32377380Y24826334D01*
X32425000Y24683477D01*
X32472619Y24635858D01*
X32377380Y23731096D02*
X32377380Y24207286D01*
X32853571Y24254905D01*
X32805952Y24207286D01*
X32758333Y24112048D01*
X32758333Y23873953D01*
X32805952Y23778715D01*
X32853571Y23731096D01*
X32948809Y23683477D01*
X33186904Y23683477D01*
X33282142Y23731096D01*
X33329761Y23778715D01*
X33377380Y23873953D01*
X33377380Y24112048D01*
X33329761Y24207286D01*
X33282142Y24254905D01*
X32472619Y23302524D02*
X32425000Y23254905D01*
X32377380Y23159667D01*
X32377380Y22921572D01*
X32425000Y22826334D01*
X32472619Y22778715D01*
X32567857Y22731096D01*
X32663095Y22731096D01*
X32805952Y22778715D01*
X33377380Y23350143D01*
X33377380Y22731096D01*
X33155142Y20952858D02*
X33202761Y21000477D01*
X33250380Y21143334D01*
X33250380Y21238572D01*
X33202761Y21381429D01*
X33107523Y21476667D01*
X33012285Y21524286D01*
X32821809Y21571905D01*
X32678952Y21571905D01*
X32488476Y21524286D01*
X32393238Y21476667D01*
X32298000Y21381429D01*
X32250380Y21238572D01*
X32250380Y21143334D01*
X32298000Y21000477D01*
X32345619Y20952858D01*
X32250380Y20048096D02*
X32250380Y20524286D01*
X32726571Y20571905D01*
X32678952Y20524286D01*
X32631333Y20429048D01*
X32631333Y20190953D01*
X32678952Y20095715D01*
X32726571Y20048096D01*
X32821809Y20000477D01*
X33059904Y20000477D01*
X33155142Y20048096D01*
X33202761Y20095715D01*
X33250380Y20190953D01*
X33250380Y20429048D01*
X33202761Y20524286D01*
X33155142Y20571905D01*
X33250380Y19048096D02*
X33250380Y19619524D01*
X33250380Y19333810D02*
X32250380Y19333810D01*
X32393238Y19429048D01*
X32488476Y19524286D01*
X32536095Y19619524D01*
X31842857Y21762858D02*
X31890476Y21715239D01*
X32033333Y21667620D01*
X32128571Y21667620D01*
X32271428Y21715239D01*
X32366666Y21810477D01*
X32414285Y21905715D01*
X32461904Y22096191D01*
X32461904Y22239048D01*
X32414285Y22429524D01*
X32366666Y22524762D01*
X32271428Y22620000D01*
X32128571Y22667620D01*
X32033333Y22667620D01*
X31890476Y22620000D01*
X31842857Y22572381D01*
X30938095Y22667620D02*
X31414285Y22667620D01*
X31461904Y22191429D01*
X31414285Y22239048D01*
X31319047Y22286667D01*
X31080952Y22286667D01*
X30985714Y22239048D01*
X30938095Y22191429D01*
X30890476Y22096191D01*
X30890476Y21858096D01*
X30938095Y21762858D01*
X30985714Y21715239D01*
X31080952Y21667620D01*
X31319047Y21667620D01*
X31414285Y21715239D01*
X31461904Y21762858D01*
X30271428Y22667620D02*
X30176190Y22667620D01*
X30080952Y22620000D01*
X30033333Y22572381D01*
X29985714Y22477143D01*
X29938095Y22286667D01*
X29938095Y22048572D01*
X29985714Y21858096D01*
X30033333Y21762858D01*
X30080952Y21715239D01*
X30176190Y21667620D01*
X30271428Y21667620D01*
X30366666Y21715239D01*
X30414285Y21762858D01*
X30461904Y21858096D01*
X30509523Y22048572D01*
X30509523Y22286667D01*
X30461904Y22477143D01*
X30414285Y22572381D01*
X30366666Y22620000D01*
X30271428Y22667620D01*
X30957142Y28512858D02*
X31004761Y28560477D01*
X31052380Y28703334D01*
X31052380Y28798572D01*
X31004761Y28941429D01*
X30909523Y29036667D01*
X30814285Y29084286D01*
X30623809Y29131905D01*
X30480952Y29131905D01*
X30290476Y29084286D01*
X30195238Y29036667D01*
X30100000Y28941429D01*
X30052380Y28798572D01*
X30052380Y28703334D01*
X30100000Y28560477D01*
X30147619Y28512858D01*
X30385714Y27655715D02*
X31052380Y27655715D01*
X30004761Y27893810D02*
X30719047Y28131905D01*
X30719047Y27512858D01*
X31052380Y27084286D02*
X31052380Y26893810D01*
X31004761Y26798572D01*
X30957142Y26750953D01*
X30814285Y26655715D01*
X30623809Y26608096D01*
X30242857Y26608096D01*
X30147619Y26655715D01*
X30100000Y26703334D01*
X30052380Y26798572D01*
X30052380Y26989048D01*
X30100000Y27084286D01*
X30147619Y27131905D01*
X30242857Y27179524D01*
X30480952Y27179524D01*
X30576190Y27131905D01*
X30623809Y27084286D01*
X30671428Y26989048D01*
X30671428Y26798572D01*
X30623809Y26703334D01*
X30576190Y26655715D01*
X30480952Y26608096D01*
X25439857Y26175858D02*
X25487476Y26128239D01*
X25630333Y26080620D01*
X25725571Y26080620D01*
X25868428Y26128239D01*
X25963666Y26223477D01*
X26011285Y26318715D01*
X26058904Y26509191D01*
X26058904Y26652048D01*
X26011285Y26842524D01*
X25963666Y26937762D01*
X25868428Y27033000D01*
X25725571Y27080620D01*
X25630333Y27080620D01*
X25487476Y27033000D01*
X25439857Y26985381D01*
X24582714Y26747286D02*
X24582714Y26080620D01*
X24820809Y27128239D02*
X25058904Y26413953D01*
X24439857Y26413953D01*
X23630333Y27080620D02*
X23820809Y27080620D01*
X23916047Y27033000D01*
X23963666Y26985381D01*
X24058904Y26842524D01*
X24106523Y26652048D01*
X24106523Y26271096D01*
X24058904Y26175858D01*
X24011285Y26128239D01*
X23916047Y26080620D01*
X23725571Y26080620D01*
X23630333Y26128239D01*
X23582714Y26175858D01*
X23535095Y26271096D01*
X23535095Y26509191D01*
X23582714Y26604429D01*
X23630333Y26652048D01*
X23725571Y26699667D01*
X23916047Y26699667D01*
X24011285Y26652048D01*
X24058904Y26604429D01*
X24106523Y26509191D01*
X8952380Y40651905D02*
X9761904Y40651905D01*
X9857142Y40604286D01*
X9904761Y40556667D01*
X9952380Y40461429D01*
X9952380Y40270953D01*
X9904761Y40175715D01*
X9857142Y40128096D01*
X9761904Y40080477D01*
X8952380Y40080477D01*
X9285714Y39175715D02*
X9952380Y39175715D01*
X8904761Y39413810D02*
X9619047Y39651905D01*
X9619047Y39032858D01*
X4945380Y34708524D02*
X5945380Y34041858D01*
X4945380Y34041858D02*
X5945380Y34708524D01*
X5945380Y33137096D02*
X5945380Y33708524D01*
X5945380Y33422810D02*
X4945380Y33422810D01*
X5088238Y33518048D01*
X5183476Y33613286D01*
X5231095Y33708524D01*
X25738095Y8300620D02*
X25738095Y9300620D01*
X25500000Y9300620D01*
X25357142Y9253000D01*
X25261904Y9157762D01*
X25214285Y9062524D01*
X25166666Y8872048D01*
X25166666Y8729191D01*
X25214285Y8538715D01*
X25261904Y8443477D01*
X25357142Y8348239D01*
X25500000Y8300620D01*
X25738095Y8300620D01*
X24309523Y8967286D02*
X24309523Y8300620D01*
X24547619Y9348239D02*
X24785714Y8633953D01*
X24166666Y8633953D01*
X33028095Y8173620D02*
X33028095Y9173620D01*
X32790000Y9173620D01*
X32647142Y9126000D01*
X32551904Y9030762D01*
X32504285Y8935524D01*
X32456666Y8745048D01*
X32456666Y8602191D01*
X32504285Y8411715D01*
X32551904Y8316477D01*
X32647142Y8221239D01*
X32790000Y8173620D01*
X33028095Y8173620D01*
X32123333Y9173620D02*
X31504285Y9173620D01*
X31837619Y8792667D01*
X31694761Y8792667D01*
X31599523Y8745048D01*
X31551904Y8697429D01*
X31504285Y8602191D01*
X31504285Y8364096D01*
X31551904Y8268858D01*
X31599523Y8221239D01*
X31694761Y8173620D01*
X31980476Y8173620D01*
X32075714Y8221239D01*
X32123333Y8268858D01*
X23557142Y35832858D02*
X23604761Y35880477D01*
X23652380Y36023334D01*
X23652380Y36118572D01*
X23604761Y36261429D01*
X23509523Y36356667D01*
X23414285Y36404286D01*
X23223809Y36451905D01*
X23080952Y36451905D01*
X22890476Y36404286D01*
X22795238Y36356667D01*
X22700000Y36261429D01*
X22652380Y36118572D01*
X22652380Y36023334D01*
X22700000Y35880477D01*
X22747619Y35832858D01*
X22652380Y35499524D02*
X22652380Y34880477D01*
X23033333Y35213810D01*
X23033333Y35070953D01*
X23080952Y34975715D01*
X23128571Y34928096D01*
X23223809Y34880477D01*
X23461904Y34880477D01*
X23557142Y34928096D01*
X23604761Y34975715D01*
X23652380Y35070953D01*
X23652380Y35356667D01*
X23604761Y35451905D01*
X23557142Y35499524D01*
X22985714Y34023334D02*
X23652380Y34023334D01*
X22604761Y34261429D02*
X23319047Y34499524D01*
X23319047Y33880477D01*
X24757142Y38632858D02*
X24804761Y38680477D01*
X24852380Y38823334D01*
X24852380Y38918572D01*
X24804761Y39061429D01*
X24709523Y39156667D01*
X24614285Y39204286D01*
X24423809Y39251905D01*
X24280952Y39251905D01*
X24090476Y39204286D01*
X23995238Y39156667D01*
X23900000Y39061429D01*
X23852380Y38918572D01*
X23852380Y38823334D01*
X23900000Y38680477D01*
X23947619Y38632858D01*
X23852380Y38299524D02*
X23852380Y37680477D01*
X24233333Y38013810D01*
X24233333Y37870953D01*
X24280952Y37775715D01*
X24328571Y37728096D01*
X24423809Y37680477D01*
X24661904Y37680477D01*
X24757142Y37728096D01*
X24804761Y37775715D01*
X24852380Y37870953D01*
X24852380Y38156667D01*
X24804761Y38251905D01*
X24757142Y38299524D01*
X23947619Y37299524D02*
X23900000Y37251905D01*
X23852380Y37156667D01*
X23852380Y36918572D01*
X23900000Y36823334D01*
X23947619Y36775715D01*
X24042857Y36728096D01*
X24138095Y36728096D01*
X24280952Y36775715D01*
X24852380Y37347143D01*
X24852380Y36728096D01*
X28957142Y37032858D02*
X29004761Y37080477D01*
X29052380Y37223334D01*
X29052380Y37318572D01*
X29004761Y37461429D01*
X28909523Y37556667D01*
X28814285Y37604286D01*
X28623809Y37651905D01*
X28480952Y37651905D01*
X28290476Y37604286D01*
X28195238Y37556667D01*
X28100000Y37461429D01*
X28052380Y37318572D01*
X28052380Y37223334D01*
X28100000Y37080477D01*
X28147619Y37032858D01*
X28052380Y36699524D02*
X28052380Y36080477D01*
X28433333Y36413810D01*
X28433333Y36270953D01*
X28480952Y36175715D01*
X28528571Y36128096D01*
X28623809Y36080477D01*
X28861904Y36080477D01*
X28957142Y36128096D01*
X29004761Y36175715D01*
X29052380Y36270953D01*
X29052380Y36556667D01*
X29004761Y36651905D01*
X28957142Y36699524D01*
X28052380Y35461429D02*
X28052380Y35366191D01*
X28100000Y35270953D01*
X28147619Y35223334D01*
X28242857Y35175715D01*
X28433333Y35128096D01*
X28671428Y35128096D01*
X28861904Y35175715D01*
X28957142Y35223334D01*
X29004761Y35270953D01*
X29052380Y35366191D01*
X29052380Y35461429D01*
X29004761Y35556667D01*
X28957142Y35604286D01*
X28861904Y35651905D01*
X28671428Y35699524D01*
X28433333Y35699524D01*
X28242857Y35651905D01*
X28147619Y35604286D01*
X28100000Y35556667D01*
X28052380Y35461429D01*
X30642857Y31832858D02*
X30690476Y31785239D01*
X30833333Y31737620D01*
X30928571Y31737620D01*
X31071428Y31785239D01*
X31166666Y31880477D01*
X31214285Y31975715D01*
X31261904Y32166191D01*
X31261904Y32309048D01*
X31214285Y32499524D01*
X31166666Y32594762D01*
X31071428Y32690000D01*
X30928571Y32737620D01*
X30833333Y32737620D01*
X30690476Y32690000D01*
X30642857Y32642381D01*
X30261904Y32642381D02*
X30214285Y32690000D01*
X30119047Y32737620D01*
X29880952Y32737620D01*
X29785714Y32690000D01*
X29738095Y32642381D01*
X29690476Y32547143D01*
X29690476Y32451905D01*
X29738095Y32309048D01*
X30309523Y31737620D01*
X29690476Y31737620D01*
X28738095Y31737620D02*
X29309523Y31737620D01*
X29023809Y31737620D02*
X29023809Y32737620D01*
X29119047Y32594762D01*
X29214285Y32499524D01*
X29309523Y32451905D01*
X26157142Y35632858D02*
X26204761Y35680477D01*
X26252380Y35823334D01*
X26252380Y35918572D01*
X26204761Y36061429D01*
X26109523Y36156667D01*
X26014285Y36204286D01*
X25823809Y36251905D01*
X25680952Y36251905D01*
X25490476Y36204286D01*
X25395238Y36156667D01*
X25300000Y36061429D01*
X25252380Y35918572D01*
X25252380Y35823334D01*
X25300000Y35680477D01*
X25347619Y35632858D01*
X25347619Y35251905D02*
X25300000Y35204286D01*
X25252380Y35109048D01*
X25252380Y34870953D01*
X25300000Y34775715D01*
X25347619Y34728096D01*
X25442857Y34680477D01*
X25538095Y34680477D01*
X25680952Y34728096D01*
X26252380Y35299524D01*
X26252380Y34680477D01*
X25252380Y34061429D02*
X25252380Y33966191D01*
X25300000Y33870953D01*
X25347619Y33823334D01*
X25442857Y33775715D01*
X25633333Y33728096D01*
X25871428Y33728096D01*
X26061904Y33775715D01*
X26157142Y33823334D01*
X26204761Y33870953D01*
X26252380Y33966191D01*
X26252380Y34061429D01*
X26204761Y34156667D01*
X26157142Y34204286D01*
X26061904Y34251905D01*
X25871428Y34299524D01*
X25633333Y34299524D01*
X25442857Y34251905D01*
X25347619Y34204286D01*
X25300000Y34156667D01*
X25252380Y34061429D01*
X27557142Y35632858D02*
X27604761Y35680477D01*
X27652380Y35823334D01*
X27652380Y35918572D01*
X27604761Y36061429D01*
X27509523Y36156667D01*
X27414285Y36204286D01*
X27223809Y36251905D01*
X27080952Y36251905D01*
X26890476Y36204286D01*
X26795238Y36156667D01*
X26700000Y36061429D01*
X26652380Y35918572D01*
X26652380Y35823334D01*
X26700000Y35680477D01*
X26747619Y35632858D01*
X27652380Y34680477D02*
X27652380Y35251905D01*
X27652380Y34966191D02*
X26652380Y34966191D01*
X26795238Y35061429D01*
X26890476Y35156667D01*
X26938095Y35251905D01*
X27652380Y34204286D02*
X27652380Y34013810D01*
X27604761Y33918572D01*
X27557142Y33870953D01*
X27414285Y33775715D01*
X27223809Y33728096D01*
X26842857Y33728096D01*
X26747619Y33775715D01*
X26700000Y33823334D01*
X26652380Y33918572D01*
X26652380Y34109048D01*
X26700000Y34204286D01*
X26747619Y34251905D01*
X26842857Y34299524D01*
X27080952Y34299524D01*
X27176190Y34251905D01*
X27223809Y34204286D01*
X27271428Y34109048D01*
X27271428Y33918572D01*
X27223809Y33823334D01*
X27176190Y33775715D01*
X27080952Y33728096D01*
X55617142Y26546667D02*
X55664761Y26594286D01*
X55712380Y26737143D01*
X55712380Y26832381D01*
X55664761Y26975239D01*
X55569523Y27070477D01*
X55474285Y27118096D01*
X55283809Y27165715D01*
X55140952Y27165715D01*
X54950476Y27118096D01*
X54855238Y27070477D01*
X54760000Y26975239D01*
X54712380Y26832381D01*
X54712380Y26737143D01*
X54760000Y26594286D01*
X54807619Y26546667D01*
X54807619Y26165715D02*
X54760000Y26118096D01*
X54712380Y26022858D01*
X54712380Y25784762D01*
X54760000Y25689524D01*
X54807619Y25641905D01*
X54902857Y25594286D01*
X54998095Y25594286D01*
X55140952Y25641905D01*
X55712380Y26213334D01*
X55712380Y25594286D01*
M02*
