G04 #@! TF.GenerationSoftware,KiCad,Pcbnew,5.1.6-c6e7f7d~87~ubuntu20.04.1*
G04 #@! TF.CreationDate,2020-08-09T17:29:32-07:00*
G04 #@! TF.ProjectId,artix7-pcie-v2,61727469-7837-42d7-9063-69652d76322e,rev?*
G04 #@! TF.SameCoordinates,PX69f4060PY6b00940*
G04 #@! TF.FileFunction,Soldermask,Bot*
G04 #@! TF.FilePolarity,Negative*
%FSLAX46Y46*%
G04 Gerber Fmt 4.6, Leading zero omitted, Abs format (unit mm)*
G04 Created by KiCad (PCBNEW 5.1.6-c6e7f7d~87~ubuntu20.04.1) date 2020-08-09 17:29:32*
%MOMM*%
%LPD*%
G01*
G04 APERTURE LIST*
%ADD10C,0.152400*%
%ADD11C,1.448000*%
%ADD12C,1.520000*%
%ADD13C,3.020000*%
%ADD14C,1.220000*%
%ADD15C,4.720000*%
%ADD16C,0.570000*%
%ADD17O,1.520000X2.220000*%
%ADD18C,2.020000*%
%ADD19O,1.720000X1.720000*%
%ADD20R,1.720000X1.720000*%
%ADD21R,2.920000X2.920000*%
%ADD22R,0.320000X0.770000*%
%ADD23R,0.770000X0.320000*%
%ADD24R,1.925000X1.112200*%
%ADD25R,1.220000X1.420000*%
%ADD26R,2.520000X1.820000*%
%ADD27R,1.701600X3.501600*%
%ADD28R,1.101600X4.701600*%
%ADD29O,1.747200X1.747200*%
%ADD30R,1.747200X1.747200*%
%ADD31R,1.080000X0.670000*%
%ADD32O,1.020000X1.020000*%
%ADD33R,1.020000X1.020000*%
G04 APERTURE END LIST*
D10*
X47408199Y14686000D02*
X47001799Y14686000D01*
X47001799Y14686000D02*
X47001799Y15194000D01*
X47001799Y15194000D02*
X47408199Y15194000D01*
X47408199Y15194000D02*
X47408199Y14686000D01*
X46758201Y14686000D02*
X46351801Y14686000D01*
X46351801Y14686000D02*
X46351801Y15194000D01*
X46351801Y15194000D02*
X46758201Y15194000D01*
X46758201Y15194000D02*
X46758201Y14686000D01*
X46108199Y14686000D02*
X45701799Y14686000D01*
X45701799Y14686000D02*
X45701799Y15194000D01*
X45701799Y15194000D02*
X46108199Y15194000D01*
X46108199Y15194000D02*
X46108199Y14686000D01*
X45458201Y14686000D02*
X45051801Y14686000D01*
X45051801Y14686000D02*
X45051801Y15194000D01*
X45051801Y15194000D02*
X45458201Y15194000D01*
X45458201Y15194000D02*
X45458201Y14686000D01*
X45458201Y16786000D02*
X45051801Y16786000D01*
X45051801Y16786000D02*
X45051801Y17294000D01*
X45051801Y17294000D02*
X45458201Y17294000D01*
X45458201Y17294000D02*
X45458201Y16786000D01*
X46108199Y16786000D02*
X45701799Y16786000D01*
X45701799Y16786000D02*
X45701799Y17294000D01*
X45701799Y17294000D02*
X46108199Y17294000D01*
X46108199Y17294000D02*
X46108199Y16786000D01*
X46758201Y16786000D02*
X46351801Y16786000D01*
X46351801Y16786000D02*
X46351801Y17294000D01*
X46351801Y17294000D02*
X46758201Y17294000D01*
X46758201Y17294000D02*
X46758201Y16786000D01*
X47408199Y16786000D02*
X47001799Y16786000D01*
X47001799Y16786000D02*
X47001799Y17294000D01*
X47001799Y17294000D02*
X47408199Y17294000D01*
X47408199Y17294000D02*
X47408199Y16786000D01*
X47246000Y15380400D02*
X47246000Y16599600D01*
X47246000Y16599600D02*
X46823700Y16599600D01*
X46823700Y16599600D02*
X46823700Y15380400D01*
X46823700Y15380400D02*
X47246000Y15380400D01*
X46423700Y15380400D02*
X46423700Y16599600D01*
X46423700Y16599600D02*
X46036300Y16599600D01*
X46036300Y16599600D02*
X46036300Y15380400D01*
X46036300Y15380400D02*
X46423700Y15380400D01*
X45636300Y15380400D02*
X45636300Y16599600D01*
X45636300Y16599600D02*
X45214000Y16599600D01*
X45214000Y16599600D02*
X45214000Y15380400D01*
X45214000Y15380400D02*
X45636300Y15380400D01*
X47246000Y15380400D02*
X47246000Y15790000D01*
X47246000Y15790000D02*
X45214000Y15790000D01*
X45214000Y15790000D02*
X45214000Y15380400D01*
X45214000Y15380400D02*
X47246000Y15380400D01*
X47246000Y16190000D02*
X47246000Y16599600D01*
X47246000Y16599600D02*
X45214000Y16599600D01*
X45214000Y16599600D02*
X45214000Y16190000D01*
X45214000Y16190000D02*
X47246000Y16190000D01*
X47182500Y15990000D02*
X47182500Y15990000D01*
X47182500Y15990000D02*
X47182500Y15990000D01*
X47182500Y15990000D02*
X47182500Y15990000D01*
X47182500Y15990000D02*
X47182500Y15990000D01*
X47182500Y15990000D02*
X47182500Y15990000D01*
X47182500Y15990000D02*
X47182500Y15990000D01*
X47182500Y15990000D02*
X47182500Y15990000D01*
X47182500Y15990000D02*
X47182500Y15990000D01*
X45277500Y15990000D02*
X45277500Y15990000D01*
X45277500Y15990000D02*
X45277500Y15990000D01*
X45277500Y15990000D02*
X45277500Y15990000D01*
X45277500Y15990000D02*
X45277500Y15990000D01*
X45277500Y15990000D02*
X45277500Y15990000D01*
X45277500Y15990000D02*
X45277500Y15990000D01*
X45277500Y15990000D02*
X45277500Y15990000D01*
X45277500Y15990000D02*
X45277500Y15990000D01*
X12571801Y17294000D02*
X12978201Y17294000D01*
X12978201Y17294000D02*
X12978201Y16786000D01*
X12978201Y16786000D02*
X12571801Y16786000D01*
X12571801Y16786000D02*
X12571801Y17294000D01*
X13221799Y17294000D02*
X13628199Y17294000D01*
X13628199Y17294000D02*
X13628199Y16786000D01*
X13628199Y16786000D02*
X13221799Y16786000D01*
X13221799Y16786000D02*
X13221799Y17294000D01*
X13871801Y17294000D02*
X14278201Y17294000D01*
X14278201Y17294000D02*
X14278201Y16786000D01*
X14278201Y16786000D02*
X13871801Y16786000D01*
X13871801Y16786000D02*
X13871801Y17294000D01*
X14521799Y17294000D02*
X14928199Y17294000D01*
X14928199Y17294000D02*
X14928199Y16786000D01*
X14928199Y16786000D02*
X14521799Y16786000D01*
X14521799Y16786000D02*
X14521799Y17294000D01*
X14521799Y15194000D02*
X14928199Y15194000D01*
X14928199Y15194000D02*
X14928199Y14686000D01*
X14928199Y14686000D02*
X14521799Y14686000D01*
X14521799Y14686000D02*
X14521799Y15194000D01*
X13871801Y15194000D02*
X14278201Y15194000D01*
X14278201Y15194000D02*
X14278201Y14686000D01*
X14278201Y14686000D02*
X13871801Y14686000D01*
X13871801Y14686000D02*
X13871801Y15194000D01*
X13221799Y15194000D02*
X13628199Y15194000D01*
X13628199Y15194000D02*
X13628199Y14686000D01*
X13628199Y14686000D02*
X13221799Y14686000D01*
X13221799Y14686000D02*
X13221799Y15194000D01*
X12571801Y15194000D02*
X12978201Y15194000D01*
X12978201Y15194000D02*
X12978201Y14686000D01*
X12978201Y14686000D02*
X12571801Y14686000D01*
X12571801Y14686000D02*
X12571801Y15194000D01*
X12734000Y16599600D02*
X12734000Y15380400D01*
X12734000Y15380400D02*
X13156300Y15380400D01*
X13156300Y15380400D02*
X13156300Y16599600D01*
X13156300Y16599600D02*
X12734000Y16599600D01*
X13556300Y16599600D02*
X13556300Y15380400D01*
X13556300Y15380400D02*
X13943700Y15380400D01*
X13943700Y15380400D02*
X13943700Y16599600D01*
X13943700Y16599600D02*
X13556300Y16599600D01*
X14343700Y16599600D02*
X14343700Y15380400D01*
X14343700Y15380400D02*
X14766000Y15380400D01*
X14766000Y15380400D02*
X14766000Y16599600D01*
X14766000Y16599600D02*
X14343700Y16599600D01*
X12734000Y16599600D02*
X12734000Y16190000D01*
X12734000Y16190000D02*
X14766000Y16190000D01*
X14766000Y16190000D02*
X14766000Y16599600D01*
X14766000Y16599600D02*
X12734000Y16599600D01*
X12734000Y15790000D02*
X12734000Y15380400D01*
X12734000Y15380400D02*
X14766000Y15380400D01*
X14766000Y15380400D02*
X14766000Y15790000D01*
X14766000Y15790000D02*
X12734000Y15790000D01*
X12797500Y15990000D02*
X12797500Y15990000D01*
X12797500Y15990000D02*
X12797500Y15990000D01*
X12797500Y15990000D02*
X12797500Y15990000D01*
X12797500Y15990000D02*
X12797500Y15990000D01*
X12797500Y15990000D02*
X12797500Y15990000D01*
X12797500Y15990000D02*
X12797500Y15990000D01*
X12797500Y15990000D02*
X12797500Y15990000D01*
X12797500Y15990000D02*
X12797500Y15990000D01*
X14702500Y15990000D02*
X14702500Y15990000D01*
X14702500Y15990000D02*
X14702500Y15990000D01*
X14702500Y15990000D02*
X14702500Y15990000D01*
X14702500Y15990000D02*
X14702500Y15990000D01*
X14702500Y15990000D02*
X14702500Y15990000D01*
X14702500Y15990000D02*
X14702500Y15990000D01*
X14702500Y15990000D02*
X14702500Y15990000D01*
X14702500Y15990000D02*
X14702500Y15990000D01*
X47428199Y24086000D02*
X47021799Y24086000D01*
X47021799Y24086000D02*
X47021799Y24594000D01*
X47021799Y24594000D02*
X47428199Y24594000D01*
X47428199Y24594000D02*
X47428199Y24086000D01*
X46778201Y24086000D02*
X46371801Y24086000D01*
X46371801Y24086000D02*
X46371801Y24594000D01*
X46371801Y24594000D02*
X46778201Y24594000D01*
X46778201Y24594000D02*
X46778201Y24086000D01*
X46128199Y24086000D02*
X45721799Y24086000D01*
X45721799Y24086000D02*
X45721799Y24594000D01*
X45721799Y24594000D02*
X46128199Y24594000D01*
X46128199Y24594000D02*
X46128199Y24086000D01*
X45478201Y24086000D02*
X45071801Y24086000D01*
X45071801Y24086000D02*
X45071801Y24594000D01*
X45071801Y24594000D02*
X45478201Y24594000D01*
X45478201Y24594000D02*
X45478201Y24086000D01*
X45478201Y26186000D02*
X45071801Y26186000D01*
X45071801Y26186000D02*
X45071801Y26694000D01*
X45071801Y26694000D02*
X45478201Y26694000D01*
X45478201Y26694000D02*
X45478201Y26186000D01*
X46128199Y26186000D02*
X45721799Y26186000D01*
X45721799Y26186000D02*
X45721799Y26694000D01*
X45721799Y26694000D02*
X46128199Y26694000D01*
X46128199Y26694000D02*
X46128199Y26186000D01*
X46778201Y26186000D02*
X46371801Y26186000D01*
X46371801Y26186000D02*
X46371801Y26694000D01*
X46371801Y26694000D02*
X46778201Y26694000D01*
X46778201Y26694000D02*
X46778201Y26186000D01*
X47428199Y26186000D02*
X47021799Y26186000D01*
X47021799Y26186000D02*
X47021799Y26694000D01*
X47021799Y26694000D02*
X47428199Y26694000D01*
X47428199Y26694000D02*
X47428199Y26186000D01*
X47266000Y24780400D02*
X47266000Y25999600D01*
X47266000Y25999600D02*
X46843700Y25999600D01*
X46843700Y25999600D02*
X46843700Y24780400D01*
X46843700Y24780400D02*
X47266000Y24780400D01*
X46443700Y24780400D02*
X46443700Y25999600D01*
X46443700Y25999600D02*
X46056300Y25999600D01*
X46056300Y25999600D02*
X46056300Y24780400D01*
X46056300Y24780400D02*
X46443700Y24780400D01*
X45656300Y24780400D02*
X45656300Y25999600D01*
X45656300Y25999600D02*
X45234000Y25999600D01*
X45234000Y25999600D02*
X45234000Y24780400D01*
X45234000Y24780400D02*
X45656300Y24780400D01*
X47266000Y24780400D02*
X47266000Y25190000D01*
X47266000Y25190000D02*
X45234000Y25190000D01*
X45234000Y25190000D02*
X45234000Y24780400D01*
X45234000Y24780400D02*
X47266000Y24780400D01*
X47266000Y25590000D02*
X47266000Y25999600D01*
X47266000Y25999600D02*
X45234000Y25999600D01*
X45234000Y25999600D02*
X45234000Y25590000D01*
X45234000Y25590000D02*
X47266000Y25590000D01*
X47202500Y25390000D02*
X47202500Y25390000D01*
X47202500Y25390000D02*
X47202500Y25390000D01*
X47202500Y25390000D02*
X47202500Y25390000D01*
X47202500Y25390000D02*
X47202500Y25390000D01*
X47202500Y25390000D02*
X47202500Y25390000D01*
X47202500Y25390000D02*
X47202500Y25390000D01*
X47202500Y25390000D02*
X47202500Y25390000D01*
X47202500Y25390000D02*
X47202500Y25390000D01*
X45297500Y25390000D02*
X45297500Y25390000D01*
X45297500Y25390000D02*
X45297500Y25390000D01*
X45297500Y25390000D02*
X45297500Y25390000D01*
X45297500Y25390000D02*
X45297500Y25390000D01*
X45297500Y25390000D02*
X45297500Y25390000D01*
X45297500Y25390000D02*
X45297500Y25390000D01*
X45297500Y25390000D02*
X45297500Y25390000D01*
X45297500Y25390000D02*
X45297500Y25390000D01*
X47408199Y33486000D02*
X47001799Y33486000D01*
X47001799Y33486000D02*
X47001799Y33994000D01*
X47001799Y33994000D02*
X47408199Y33994000D01*
X47408199Y33994000D02*
X47408199Y33486000D01*
X46758201Y33486000D02*
X46351801Y33486000D01*
X46351801Y33486000D02*
X46351801Y33994000D01*
X46351801Y33994000D02*
X46758201Y33994000D01*
X46758201Y33994000D02*
X46758201Y33486000D01*
X46108199Y33486000D02*
X45701799Y33486000D01*
X45701799Y33486000D02*
X45701799Y33994000D01*
X45701799Y33994000D02*
X46108199Y33994000D01*
X46108199Y33994000D02*
X46108199Y33486000D01*
X45458201Y33486000D02*
X45051801Y33486000D01*
X45051801Y33486000D02*
X45051801Y33994000D01*
X45051801Y33994000D02*
X45458201Y33994000D01*
X45458201Y33994000D02*
X45458201Y33486000D01*
X45458201Y35586000D02*
X45051801Y35586000D01*
X45051801Y35586000D02*
X45051801Y36094000D01*
X45051801Y36094000D02*
X45458201Y36094000D01*
X45458201Y36094000D02*
X45458201Y35586000D01*
X46108199Y35586000D02*
X45701799Y35586000D01*
X45701799Y35586000D02*
X45701799Y36094000D01*
X45701799Y36094000D02*
X46108199Y36094000D01*
X46108199Y36094000D02*
X46108199Y35586000D01*
X46758201Y35586000D02*
X46351801Y35586000D01*
X46351801Y35586000D02*
X46351801Y36094000D01*
X46351801Y36094000D02*
X46758201Y36094000D01*
X46758201Y36094000D02*
X46758201Y35586000D01*
X47408199Y35586000D02*
X47001799Y35586000D01*
X47001799Y35586000D02*
X47001799Y36094000D01*
X47001799Y36094000D02*
X47408199Y36094000D01*
X47408199Y36094000D02*
X47408199Y35586000D01*
X47246000Y34180400D02*
X47246000Y35399600D01*
X47246000Y35399600D02*
X46823700Y35399600D01*
X46823700Y35399600D02*
X46823700Y34180400D01*
X46823700Y34180400D02*
X47246000Y34180400D01*
X46423700Y34180400D02*
X46423700Y35399600D01*
X46423700Y35399600D02*
X46036300Y35399600D01*
X46036300Y35399600D02*
X46036300Y34180400D01*
X46036300Y34180400D02*
X46423700Y34180400D01*
X45636300Y34180400D02*
X45636300Y35399600D01*
X45636300Y35399600D02*
X45214000Y35399600D01*
X45214000Y35399600D02*
X45214000Y34180400D01*
X45214000Y34180400D02*
X45636300Y34180400D01*
X47246000Y34180400D02*
X47246000Y34590000D01*
X47246000Y34590000D02*
X45214000Y34590000D01*
X45214000Y34590000D02*
X45214000Y34180400D01*
X45214000Y34180400D02*
X47246000Y34180400D01*
X47246000Y34990000D02*
X47246000Y35399600D01*
X47246000Y35399600D02*
X45214000Y35399600D01*
X45214000Y35399600D02*
X45214000Y34990000D01*
X45214000Y34990000D02*
X47246000Y34990000D01*
X47182500Y34790000D02*
X47182500Y34790000D01*
X47182500Y34790000D02*
X47182500Y34790000D01*
X47182500Y34790000D02*
X47182500Y34790000D01*
X47182500Y34790000D02*
X47182500Y34790000D01*
X47182500Y34790000D02*
X47182500Y34790000D01*
X47182500Y34790000D02*
X47182500Y34790000D01*
X47182500Y34790000D02*
X47182500Y34790000D01*
X47182500Y34790000D02*
X47182500Y34790000D01*
X45277500Y34790000D02*
X45277500Y34790000D01*
X45277500Y34790000D02*
X45277500Y34790000D01*
X45277500Y34790000D02*
X45277500Y34790000D01*
X45277500Y34790000D02*
X45277500Y34790000D01*
X45277500Y34790000D02*
X45277500Y34790000D01*
X45277500Y34790000D02*
X45277500Y34790000D01*
X45277500Y34790000D02*
X45277500Y34790000D01*
X45277500Y34790000D02*
X45277500Y34790000D01*
X12591801Y26694000D02*
X12998201Y26694000D01*
X12998201Y26694000D02*
X12998201Y26186000D01*
X12998201Y26186000D02*
X12591801Y26186000D01*
X12591801Y26186000D02*
X12591801Y26694000D01*
X13241799Y26694000D02*
X13648199Y26694000D01*
X13648199Y26694000D02*
X13648199Y26186000D01*
X13648199Y26186000D02*
X13241799Y26186000D01*
X13241799Y26186000D02*
X13241799Y26694000D01*
X13891801Y26694000D02*
X14298201Y26694000D01*
X14298201Y26694000D02*
X14298201Y26186000D01*
X14298201Y26186000D02*
X13891801Y26186000D01*
X13891801Y26186000D02*
X13891801Y26694000D01*
X14541799Y26694000D02*
X14948199Y26694000D01*
X14948199Y26694000D02*
X14948199Y26186000D01*
X14948199Y26186000D02*
X14541799Y26186000D01*
X14541799Y26186000D02*
X14541799Y26694000D01*
X14541799Y24594000D02*
X14948199Y24594000D01*
X14948199Y24594000D02*
X14948199Y24086000D01*
X14948199Y24086000D02*
X14541799Y24086000D01*
X14541799Y24086000D02*
X14541799Y24594000D01*
X13891801Y24594000D02*
X14298201Y24594000D01*
X14298201Y24594000D02*
X14298201Y24086000D01*
X14298201Y24086000D02*
X13891801Y24086000D01*
X13891801Y24086000D02*
X13891801Y24594000D01*
X13241799Y24594000D02*
X13648199Y24594000D01*
X13648199Y24594000D02*
X13648199Y24086000D01*
X13648199Y24086000D02*
X13241799Y24086000D01*
X13241799Y24086000D02*
X13241799Y24594000D01*
X12591801Y24594000D02*
X12998201Y24594000D01*
X12998201Y24594000D02*
X12998201Y24086000D01*
X12998201Y24086000D02*
X12591801Y24086000D01*
X12591801Y24086000D02*
X12591801Y24594000D01*
X12754000Y25999600D02*
X12754000Y24780400D01*
X12754000Y24780400D02*
X13176300Y24780400D01*
X13176300Y24780400D02*
X13176300Y25999600D01*
X13176300Y25999600D02*
X12754000Y25999600D01*
X13576300Y25999600D02*
X13576300Y24780400D01*
X13576300Y24780400D02*
X13963700Y24780400D01*
X13963700Y24780400D02*
X13963700Y25999600D01*
X13963700Y25999600D02*
X13576300Y25999600D01*
X14363700Y25999600D02*
X14363700Y24780400D01*
X14363700Y24780400D02*
X14786000Y24780400D01*
X14786000Y24780400D02*
X14786000Y25999600D01*
X14786000Y25999600D02*
X14363700Y25999600D01*
X12754000Y25999600D02*
X12754000Y25590000D01*
X12754000Y25590000D02*
X14786000Y25590000D01*
X14786000Y25590000D02*
X14786000Y25999600D01*
X14786000Y25999600D02*
X12754000Y25999600D01*
X12754000Y25190000D02*
X12754000Y24780400D01*
X12754000Y24780400D02*
X14786000Y24780400D01*
X14786000Y24780400D02*
X14786000Y25190000D01*
X14786000Y25190000D02*
X12754000Y25190000D01*
X12817500Y25390000D02*
X12817500Y25390000D01*
X12817500Y25390000D02*
X12817500Y25390000D01*
X12817500Y25390000D02*
X12817500Y25390000D01*
X12817500Y25390000D02*
X12817500Y25390000D01*
X12817500Y25390000D02*
X12817500Y25390000D01*
X12817500Y25390000D02*
X12817500Y25390000D01*
X12817500Y25390000D02*
X12817500Y25390000D01*
X12817500Y25390000D02*
X12817500Y25390000D01*
X14722500Y25390000D02*
X14722500Y25390000D01*
X14722500Y25390000D02*
X14722500Y25390000D01*
X14722500Y25390000D02*
X14722500Y25390000D01*
X14722500Y25390000D02*
X14722500Y25390000D01*
X14722500Y25390000D02*
X14722500Y25390000D01*
X14722500Y25390000D02*
X14722500Y25390000D01*
X14722500Y25390000D02*
X14722500Y25390000D01*
X14722500Y25390000D02*
X14722500Y25390000D01*
G36*
G01*
X43451250Y17390000D02*
X42528750Y17390000D01*
G75*
G02*
X42280000Y17638750I0J248750D01*
G01*
X42280000Y18136250D01*
G75*
G02*
X42528750Y18385000I248750J0D01*
G01*
X43451250Y18385000D01*
G75*
G02*
X43700000Y18136250I0J-248750D01*
G01*
X43700000Y17638750D01*
G75*
G02*
X43451250Y17390000I-248750J0D01*
G01*
G37*
G36*
G01*
X43451250Y15515000D02*
X42528750Y15515000D01*
G75*
G02*
X42280000Y15763750I0J248750D01*
G01*
X42280000Y16261250D01*
G75*
G02*
X42528750Y16510000I248750J0D01*
G01*
X43451250Y16510000D01*
G75*
G02*
X43700000Y16261250I0J-248750D01*
G01*
X43700000Y15763750D01*
G75*
G02*
X43451250Y15515000I-248750J0D01*
G01*
G37*
G36*
G01*
X16538750Y15150000D02*
X17461250Y15150000D01*
G75*
G02*
X17710000Y14901250I0J-248750D01*
G01*
X17710000Y14403750D01*
G75*
G02*
X17461250Y14155000I-248750J0D01*
G01*
X16538750Y14155000D01*
G75*
G02*
X16290000Y14403750I0J248750D01*
G01*
X16290000Y14901250D01*
G75*
G02*
X16538750Y15150000I248750J0D01*
G01*
G37*
G36*
G01*
X16538750Y17025000D02*
X17461250Y17025000D01*
G75*
G02*
X17710000Y16776250I0J-248750D01*
G01*
X17710000Y16278750D01*
G75*
G02*
X17461250Y16030000I-248750J0D01*
G01*
X16538750Y16030000D01*
G75*
G02*
X16290000Y16278750I0J248750D01*
G01*
X16290000Y16776250D01*
G75*
G02*
X16538750Y17025000I248750J0D01*
G01*
G37*
G36*
G01*
X43461250Y26230000D02*
X42538750Y26230000D01*
G75*
G02*
X42290000Y26478750I0J248750D01*
G01*
X42290000Y26976250D01*
G75*
G02*
X42538750Y27225000I248750J0D01*
G01*
X43461250Y27225000D01*
G75*
G02*
X43710000Y26976250I0J-248750D01*
G01*
X43710000Y26478750D01*
G75*
G02*
X43461250Y26230000I-248750J0D01*
G01*
G37*
G36*
G01*
X43461250Y24355000D02*
X42538750Y24355000D01*
G75*
G02*
X42290000Y24603750I0J248750D01*
G01*
X42290000Y25101250D01*
G75*
G02*
X42538750Y25350000I248750J0D01*
G01*
X43461250Y25350000D01*
G75*
G02*
X43710000Y25101250I0J-248750D01*
G01*
X43710000Y24603750D01*
G75*
G02*
X43461250Y24355000I-248750J0D01*
G01*
G37*
G36*
G01*
X43461250Y35630000D02*
X42538750Y35630000D01*
G75*
G02*
X42290000Y35878750I0J248750D01*
G01*
X42290000Y36376250D01*
G75*
G02*
X42538750Y36625000I248750J0D01*
G01*
X43461250Y36625000D01*
G75*
G02*
X43710000Y36376250I0J-248750D01*
G01*
X43710000Y35878750D01*
G75*
G02*
X43461250Y35630000I-248750J0D01*
G01*
G37*
G36*
G01*
X43461250Y33755000D02*
X42538750Y33755000D01*
G75*
G02*
X42290000Y34003750I0J248750D01*
G01*
X42290000Y34501250D01*
G75*
G02*
X42538750Y34750000I248750J0D01*
G01*
X43461250Y34750000D01*
G75*
G02*
X43710000Y34501250I0J-248750D01*
G01*
X43710000Y34003750D01*
G75*
G02*
X43461250Y33755000I-248750J0D01*
G01*
G37*
G36*
G01*
X16538750Y24212500D02*
X17461250Y24212500D01*
G75*
G02*
X17710000Y23963750I0J-248750D01*
G01*
X17710000Y23466250D01*
G75*
G02*
X17461250Y23217500I-248750J0D01*
G01*
X16538750Y23217500D01*
G75*
G02*
X16290000Y23466250I0J248750D01*
G01*
X16290000Y23963750D01*
G75*
G02*
X16538750Y24212500I248750J0D01*
G01*
G37*
G36*
G01*
X16538750Y26087500D02*
X17461250Y26087500D01*
G75*
G02*
X17710000Y25838750I0J-248750D01*
G01*
X17710000Y25341250D01*
G75*
G02*
X17461250Y25092500I-248750J0D01*
G01*
X16538750Y25092500D01*
G75*
G02*
X16290000Y25341250I0J248750D01*
G01*
X16290000Y25838750D01*
G75*
G02*
X16538750Y26087500I248750J0D01*
G01*
G37*
D11*
X47900000Y1200000D03*
X19130000Y49160000D03*
X11900000Y1200000D03*
G36*
G01*
X47722500Y43710000D02*
X48077500Y43710000D01*
G75*
G02*
X48230000Y43557500I0J-152500D01*
G01*
X48230000Y43252500D01*
G75*
G02*
X48077500Y43100000I-152500J0D01*
G01*
X47722500Y43100000D01*
G75*
G02*
X47570000Y43252500I0J152500D01*
G01*
X47570000Y43557500D01*
G75*
G02*
X47722500Y43710000I152500J0D01*
G01*
G37*
G36*
G01*
X47722500Y44680000D02*
X48077500Y44680000D01*
G75*
G02*
X48230000Y44527500I0J-152500D01*
G01*
X48230000Y44222500D01*
G75*
G02*
X48077500Y44070000I-152500J0D01*
G01*
X47722500Y44070000D01*
G75*
G02*
X47570000Y44222500I0J152500D01*
G01*
X47570000Y44527500D01*
G75*
G02*
X47722500Y44680000I152500J0D01*
G01*
G37*
G36*
G01*
X14522500Y43810000D02*
X14877500Y43810000D01*
G75*
G02*
X15030000Y43657500I0J-152500D01*
G01*
X15030000Y43352500D01*
G75*
G02*
X14877500Y43200000I-152500J0D01*
G01*
X14522500Y43200000D01*
G75*
G02*
X14370000Y43352500I0J152500D01*
G01*
X14370000Y43657500D01*
G75*
G02*
X14522500Y43810000I152500J0D01*
G01*
G37*
G36*
G01*
X14522500Y44780000D02*
X14877500Y44780000D01*
G75*
G02*
X15030000Y44627500I0J-152500D01*
G01*
X15030000Y44322500D01*
G75*
G02*
X14877500Y44170000I-152500J0D01*
G01*
X14522500Y44170000D01*
G75*
G02*
X14370000Y44322500I0J152500D01*
G01*
X14370000Y44627500D01*
G75*
G02*
X14522500Y44780000I152500J0D01*
G01*
G37*
G36*
G01*
X20860000Y30521297D02*
X20860000Y29658703D01*
G75*
G02*
X20606297Y29405000I-253703J0D01*
G01*
X19693703Y29405000D01*
G75*
G02*
X19440000Y29658703I0J253703D01*
G01*
X19440000Y30521297D01*
G75*
G02*
X19693703Y30775000I253703J0D01*
G01*
X20606297Y30775000D01*
G75*
G02*
X20860000Y30521297I0J-253703D01*
G01*
G37*
G36*
G01*
X23560000Y30521297D02*
X23560000Y29658703D01*
G75*
G02*
X23306297Y29405000I-253703J0D01*
G01*
X22393703Y29405000D01*
G75*
G02*
X22140000Y29658703I0J253703D01*
G01*
X22140000Y30521297D01*
G75*
G02*
X22393703Y30775000I253703J0D01*
G01*
X23306297Y30775000D01*
G75*
G02*
X23560000Y30521297I0J-253703D01*
G01*
G37*
G36*
G01*
X21140000Y21058703D02*
X21140000Y21921297D01*
G75*
G02*
X21393703Y22175000I253703J0D01*
G01*
X22306297Y22175000D01*
G75*
G02*
X22560000Y21921297I0J-253703D01*
G01*
X22560000Y21058703D01*
G75*
G02*
X22306297Y20805000I-253703J0D01*
G01*
X21393703Y20805000D01*
G75*
G02*
X21140000Y21058703I0J253703D01*
G01*
G37*
G36*
G01*
X18440000Y21058703D02*
X18440000Y21921297D01*
G75*
G02*
X18693703Y22175000I253703J0D01*
G01*
X19606297Y22175000D01*
G75*
G02*
X19860000Y21921297I0J-253703D01*
G01*
X19860000Y21058703D01*
G75*
G02*
X19606297Y20805000I-253703J0D01*
G01*
X18693703Y20805000D01*
G75*
G02*
X18440000Y21058703I0J253703D01*
G01*
G37*
G36*
G01*
X37140000Y36358703D02*
X37140000Y37221297D01*
G75*
G02*
X37393703Y37475000I253703J0D01*
G01*
X38306297Y37475000D01*
G75*
G02*
X38560000Y37221297I0J-253703D01*
G01*
X38560000Y36358703D01*
G75*
G02*
X38306297Y36105000I-253703J0D01*
G01*
X37393703Y36105000D01*
G75*
G02*
X37140000Y36358703I0J253703D01*
G01*
G37*
G36*
G01*
X34440000Y36358703D02*
X34440000Y37221297D01*
G75*
G02*
X34693703Y37475000I253703J0D01*
G01*
X35606297Y37475000D01*
G75*
G02*
X35860000Y37221297I0J-253703D01*
G01*
X35860000Y36358703D01*
G75*
G02*
X35606297Y36105000I-253703J0D01*
G01*
X34693703Y36105000D01*
G75*
G02*
X34440000Y36358703I0J253703D01*
G01*
G37*
G36*
G01*
X54031297Y43030000D02*
X53168703Y43030000D01*
G75*
G02*
X52915000Y43283703I0J253703D01*
G01*
X52915000Y44196297D01*
G75*
G02*
X53168703Y44450000I253703J0D01*
G01*
X54031297Y44450000D01*
G75*
G02*
X54285000Y44196297I0J-253703D01*
G01*
X54285000Y43283703D01*
G75*
G02*
X54031297Y43030000I-253703J0D01*
G01*
G37*
G36*
G01*
X54031297Y40330000D02*
X53168703Y40330000D01*
G75*
G02*
X52915000Y40583703I0J253703D01*
G01*
X52915000Y41496297D01*
G75*
G02*
X53168703Y41750000I253703J0D01*
G01*
X54031297Y41750000D01*
G75*
G02*
X54285000Y41496297I0J-253703D01*
G01*
X54285000Y40583703D01*
G75*
G02*
X54031297Y40330000I-253703J0D01*
G01*
G37*
G36*
G01*
X53068703Y8150000D02*
X53931297Y8150000D01*
G75*
G02*
X54185000Y7896297I0J-253703D01*
G01*
X54185000Y6983703D01*
G75*
G02*
X53931297Y6730000I-253703J0D01*
G01*
X53068703Y6730000D01*
G75*
G02*
X52815000Y6983703I0J253703D01*
G01*
X52815000Y7896297D01*
G75*
G02*
X53068703Y8150000I253703J0D01*
G01*
G37*
G36*
G01*
X53068703Y10850000D02*
X53931297Y10850000D01*
G75*
G02*
X54185000Y10596297I0J-253703D01*
G01*
X54185000Y9683703D01*
G75*
G02*
X53931297Y9430000I-253703J0D01*
G01*
X53068703Y9430000D01*
G75*
G02*
X52815000Y9683703I0J253703D01*
G01*
X52815000Y10596297D01*
G75*
G02*
X53068703Y10850000I253703J0D01*
G01*
G37*
G36*
G01*
X36440000Y25958703D02*
X36440000Y26821297D01*
G75*
G02*
X36693703Y27075000I253703J0D01*
G01*
X37606297Y27075000D01*
G75*
G02*
X37860000Y26821297I0J-253703D01*
G01*
X37860000Y25958703D01*
G75*
G02*
X37606297Y25705000I-253703J0D01*
G01*
X36693703Y25705000D01*
G75*
G02*
X36440000Y25958703I0J253703D01*
G01*
G37*
G36*
G01*
X33740000Y25958703D02*
X33740000Y26821297D01*
G75*
G02*
X33993703Y27075000I253703J0D01*
G01*
X34906297Y27075000D01*
G75*
G02*
X35160000Y26821297I0J-253703D01*
G01*
X35160000Y25958703D01*
G75*
G02*
X34906297Y25705000I-253703J0D01*
G01*
X33993703Y25705000D01*
G75*
G02*
X33740000Y25958703I0J253703D01*
G01*
G37*
G36*
G01*
X24568703Y19250000D02*
X25431297Y19250000D01*
G75*
G02*
X25685000Y18996297I0J-253703D01*
G01*
X25685000Y18083703D01*
G75*
G02*
X25431297Y17830000I-253703J0D01*
G01*
X24568703Y17830000D01*
G75*
G02*
X24315000Y18083703I0J253703D01*
G01*
X24315000Y18996297D01*
G75*
G02*
X24568703Y19250000I253703J0D01*
G01*
G37*
G36*
G01*
X24568703Y21950000D02*
X25431297Y21950000D01*
G75*
G02*
X25685000Y21696297I0J-253703D01*
G01*
X25685000Y20783703D01*
G75*
G02*
X25431297Y20530000I-253703J0D01*
G01*
X24568703Y20530000D01*
G75*
G02*
X24315000Y20783703I0J253703D01*
G01*
X24315000Y21696297D01*
G75*
G02*
X24568703Y21950000I253703J0D01*
G01*
G37*
G36*
G01*
X35140000Y29758703D02*
X35140000Y30621297D01*
G75*
G02*
X35393703Y30875000I253703J0D01*
G01*
X36306297Y30875000D01*
G75*
G02*
X36560000Y30621297I0J-253703D01*
G01*
X36560000Y29758703D01*
G75*
G02*
X36306297Y29505000I-253703J0D01*
G01*
X35393703Y29505000D01*
G75*
G02*
X35140000Y29758703I0J253703D01*
G01*
G37*
G36*
G01*
X32440000Y29758703D02*
X32440000Y30621297D01*
G75*
G02*
X32693703Y30875000I253703J0D01*
G01*
X33606297Y30875000D01*
G75*
G02*
X33860000Y30621297I0J-253703D01*
G01*
X33860000Y29758703D01*
G75*
G02*
X33606297Y29505000I-253703J0D01*
G01*
X32693703Y29505000D01*
G75*
G02*
X32440000Y29758703I0J253703D01*
G01*
G37*
G36*
G01*
X5968703Y41950000D02*
X6831297Y41950000D01*
G75*
G02*
X7085000Y41696297I0J-253703D01*
G01*
X7085000Y40783703D01*
G75*
G02*
X6831297Y40530000I-253703J0D01*
G01*
X5968703Y40530000D01*
G75*
G02*
X5715000Y40783703I0J253703D01*
G01*
X5715000Y41696297D01*
G75*
G02*
X5968703Y41950000I253703J0D01*
G01*
G37*
G36*
G01*
X5968703Y44650000D02*
X6831297Y44650000D01*
G75*
G02*
X7085000Y44396297I0J-253703D01*
G01*
X7085000Y43483703D01*
G75*
G02*
X6831297Y43230000I-253703J0D01*
G01*
X5968703Y43230000D01*
G75*
G02*
X5715000Y43483703I0J253703D01*
G01*
X5715000Y44396297D01*
G75*
G02*
X5968703Y44650000I253703J0D01*
G01*
G37*
G36*
G01*
X7031297Y9030000D02*
X6168703Y9030000D01*
G75*
G02*
X5915000Y9283703I0J253703D01*
G01*
X5915000Y10196297D01*
G75*
G02*
X6168703Y10450000I253703J0D01*
G01*
X7031297Y10450000D01*
G75*
G02*
X7285000Y10196297I0J-253703D01*
G01*
X7285000Y9283703D01*
G75*
G02*
X7031297Y9030000I-253703J0D01*
G01*
G37*
G36*
G01*
X7031297Y6330000D02*
X6168703Y6330000D01*
G75*
G02*
X5915000Y6583703I0J253703D01*
G01*
X5915000Y7496297D01*
G75*
G02*
X6168703Y7750000I253703J0D01*
G01*
X7031297Y7750000D01*
G75*
G02*
X7285000Y7496297I0J-253703D01*
G01*
X7285000Y6583703D01*
G75*
G02*
X7031297Y6330000I-253703J0D01*
G01*
G37*
D12*
X51850000Y29340000D03*
X43350000Y29440000D03*
X51650000Y24290000D03*
X52350000Y26740000D03*
X9150000Y27890000D03*
D13*
X31920000Y48000000D03*
X45060000Y48000000D03*
D14*
X42490000Y44500000D03*
X40490000Y44500000D03*
X38490000Y44500000D03*
X36490000Y44500000D03*
X34490000Y44500000D03*
X34990000Y46000000D03*
X37490000Y46000000D03*
X39490000Y46000000D03*
X41990000Y46000000D03*
D12*
X11500000Y43890000D03*
X12500000Y48890000D03*
G36*
G01*
X37500000Y15412500D02*
X37500000Y15767500D01*
G75*
G02*
X37652500Y15920000I152500J0D01*
G01*
X37957500Y15920000D01*
G75*
G02*
X38110000Y15767500I0J-152500D01*
G01*
X38110000Y15412500D01*
G75*
G02*
X37957500Y15260000I-152500J0D01*
G01*
X37652500Y15260000D01*
G75*
G02*
X37500000Y15412500I0J152500D01*
G01*
G37*
G36*
G01*
X36530000Y15412500D02*
X36530000Y15767500D01*
G75*
G02*
X36682500Y15920000I152500J0D01*
G01*
X36987500Y15920000D01*
G75*
G02*
X37140000Y15767500I0J-152500D01*
G01*
X37140000Y15412500D01*
G75*
G02*
X36987500Y15260000I-152500J0D01*
G01*
X36682500Y15260000D01*
G75*
G02*
X36530000Y15412500I0J152500D01*
G01*
G37*
D15*
X50490000Y3890000D03*
X50490000Y46890000D03*
X9490000Y3890000D03*
X9490000Y46890000D03*
G36*
G01*
X48980000Y7212500D02*
X48980000Y7567500D01*
G75*
G02*
X49132500Y7720000I152500J0D01*
G01*
X49437500Y7720000D01*
G75*
G02*
X49590000Y7567500I0J-152500D01*
G01*
X49590000Y7212500D01*
G75*
G02*
X49437500Y7060000I-152500J0D01*
G01*
X49132500Y7060000D01*
G75*
G02*
X48980000Y7212500I0J152500D01*
G01*
G37*
G36*
G01*
X48010000Y7212500D02*
X48010000Y7567500D01*
G75*
G02*
X48162500Y7720000I152500J0D01*
G01*
X48467500Y7720000D01*
G75*
G02*
X48620000Y7567500I0J-152500D01*
G01*
X48620000Y7212500D01*
G75*
G02*
X48467500Y7060000I-152500J0D01*
G01*
X48162500Y7060000D01*
G75*
G02*
X48010000Y7212500I0J152500D01*
G01*
G37*
G36*
G01*
X45020000Y18567500D02*
X45020000Y18212500D01*
G75*
G02*
X44867500Y18060000I-152500J0D01*
G01*
X44562500Y18060000D01*
G75*
G02*
X44410000Y18212500I0J152500D01*
G01*
X44410000Y18567500D01*
G75*
G02*
X44562500Y18720000I152500J0D01*
G01*
X44867500Y18720000D01*
G75*
G02*
X45020000Y18567500I0J-152500D01*
G01*
G37*
G36*
G01*
X45990000Y18567500D02*
X45990000Y18212500D01*
G75*
G02*
X45837500Y18060000I-152500J0D01*
G01*
X45532500Y18060000D01*
G75*
G02*
X45380000Y18212500I0J152500D01*
G01*
X45380000Y18567500D01*
G75*
G02*
X45532500Y18720000I152500J0D01*
G01*
X45837500Y18720000D01*
G75*
G02*
X45990000Y18567500I0J-152500D01*
G01*
G37*
G36*
G01*
X47380000Y18212500D02*
X47380000Y18567500D01*
G75*
G02*
X47532500Y18720000I152500J0D01*
G01*
X47837500Y18720000D01*
G75*
G02*
X47990000Y18567500I0J-152500D01*
G01*
X47990000Y18212500D01*
G75*
G02*
X47837500Y18060000I-152500J0D01*
G01*
X47532500Y18060000D01*
G75*
G02*
X47380000Y18212500I0J152500D01*
G01*
G37*
G36*
G01*
X46410000Y18212500D02*
X46410000Y18567500D01*
G75*
G02*
X46562500Y18720000I152500J0D01*
G01*
X46867500Y18720000D01*
G75*
G02*
X47020000Y18567500I0J-152500D01*
G01*
X47020000Y18212500D01*
G75*
G02*
X46867500Y18060000I-152500J0D01*
G01*
X46562500Y18060000D01*
G75*
G02*
X46410000Y18212500I0J152500D01*
G01*
G37*
G36*
G01*
X36377500Y20170000D02*
X36022500Y20170000D01*
G75*
G02*
X35870000Y20322500I0J152500D01*
G01*
X35870000Y20627500D01*
G75*
G02*
X36022500Y20780000I152500J0D01*
G01*
X36377500Y20780000D01*
G75*
G02*
X36530000Y20627500I0J-152500D01*
G01*
X36530000Y20322500D01*
G75*
G02*
X36377500Y20170000I-152500J0D01*
G01*
G37*
G36*
G01*
X36377500Y19200000D02*
X36022500Y19200000D01*
G75*
G02*
X35870000Y19352500I0J152500D01*
G01*
X35870000Y19657500D01*
G75*
G02*
X36022500Y19810000I152500J0D01*
G01*
X36377500Y19810000D01*
G75*
G02*
X36530000Y19657500I0J-152500D01*
G01*
X36530000Y19352500D01*
G75*
G02*
X36377500Y19200000I-152500J0D01*
G01*
G37*
G36*
G01*
X49977500Y16170000D02*
X49622500Y16170000D01*
G75*
G02*
X49470000Y16322500I0J152500D01*
G01*
X49470000Y16627500D01*
G75*
G02*
X49622500Y16780000I152500J0D01*
G01*
X49977500Y16780000D01*
G75*
G02*
X50130000Y16627500I0J-152500D01*
G01*
X50130000Y16322500D01*
G75*
G02*
X49977500Y16170000I-152500J0D01*
G01*
G37*
G36*
G01*
X49977500Y15200000D02*
X49622500Y15200000D01*
G75*
G02*
X49470000Y15352500I0J152500D01*
G01*
X49470000Y15657500D01*
G75*
G02*
X49622500Y15810000I152500J0D01*
G01*
X49977500Y15810000D01*
G75*
G02*
X50130000Y15657500I0J-152500D01*
G01*
X50130000Y15352500D01*
G75*
G02*
X49977500Y15200000I-152500J0D01*
G01*
G37*
G36*
G01*
X14980000Y13412500D02*
X14980000Y13767500D01*
G75*
G02*
X15132500Y13920000I152500J0D01*
G01*
X15437500Y13920000D01*
G75*
G02*
X15590000Y13767500I0J-152500D01*
G01*
X15590000Y13412500D01*
G75*
G02*
X15437500Y13260000I-152500J0D01*
G01*
X15132500Y13260000D01*
G75*
G02*
X14980000Y13412500I0J152500D01*
G01*
G37*
G36*
G01*
X14010000Y13412500D02*
X14010000Y13767500D01*
G75*
G02*
X14162500Y13920000I152500J0D01*
G01*
X14467500Y13920000D01*
G75*
G02*
X14620000Y13767500I0J-152500D01*
G01*
X14620000Y13412500D01*
G75*
G02*
X14467500Y13260000I-152500J0D01*
G01*
X14162500Y13260000D01*
G75*
G02*
X14010000Y13412500I0J152500D01*
G01*
G37*
G36*
G01*
X45020000Y27967500D02*
X45020000Y27612500D01*
G75*
G02*
X44867500Y27460000I-152500J0D01*
G01*
X44562500Y27460000D01*
G75*
G02*
X44410000Y27612500I0J152500D01*
G01*
X44410000Y27967500D01*
G75*
G02*
X44562500Y28120000I152500J0D01*
G01*
X44867500Y28120000D01*
G75*
G02*
X45020000Y27967500I0J-152500D01*
G01*
G37*
G36*
G01*
X45990000Y27967500D02*
X45990000Y27612500D01*
G75*
G02*
X45837500Y27460000I-152500J0D01*
G01*
X45532500Y27460000D01*
G75*
G02*
X45380000Y27612500I0J152500D01*
G01*
X45380000Y27967500D01*
G75*
G02*
X45532500Y28120000I152500J0D01*
G01*
X45837500Y28120000D01*
G75*
G02*
X45990000Y27967500I0J-152500D01*
G01*
G37*
G36*
G01*
X38180000Y23312500D02*
X38180000Y23667500D01*
G75*
G02*
X38332500Y23820000I152500J0D01*
G01*
X38637500Y23820000D01*
G75*
G02*
X38790000Y23667500I0J-152500D01*
G01*
X38790000Y23312500D01*
G75*
G02*
X38637500Y23160000I-152500J0D01*
G01*
X38332500Y23160000D01*
G75*
G02*
X38180000Y23312500I0J152500D01*
G01*
G37*
G36*
G01*
X37210000Y23312500D02*
X37210000Y23667500D01*
G75*
G02*
X37362500Y23820000I152500J0D01*
G01*
X37667500Y23820000D01*
G75*
G02*
X37820000Y23667500I0J-152500D01*
G01*
X37820000Y23312500D01*
G75*
G02*
X37667500Y23160000I-152500J0D01*
G01*
X37362500Y23160000D01*
G75*
G02*
X37210000Y23312500I0J152500D01*
G01*
G37*
G36*
G01*
X18330000Y35162500D02*
X18330000Y35517500D01*
G75*
G02*
X18482500Y35670000I152500J0D01*
G01*
X18787500Y35670000D01*
G75*
G02*
X18940000Y35517500I0J-152500D01*
G01*
X18940000Y35162500D01*
G75*
G02*
X18787500Y35010000I-152500J0D01*
G01*
X18482500Y35010000D01*
G75*
G02*
X18330000Y35162500I0J152500D01*
G01*
G37*
G36*
G01*
X17360000Y35162500D02*
X17360000Y35517500D01*
G75*
G02*
X17512500Y35670000I152500J0D01*
G01*
X17817500Y35670000D01*
G75*
G02*
X17970000Y35517500I0J-152500D01*
G01*
X17970000Y35162500D01*
G75*
G02*
X17817500Y35010000I-152500J0D01*
G01*
X17512500Y35010000D01*
G75*
G02*
X17360000Y35162500I0J152500D01*
G01*
G37*
G36*
G01*
X46522500Y43710000D02*
X46877500Y43710000D01*
G75*
G02*
X47030000Y43557500I0J-152500D01*
G01*
X47030000Y43252500D01*
G75*
G02*
X46877500Y43100000I-152500J0D01*
G01*
X46522500Y43100000D01*
G75*
G02*
X46370000Y43252500I0J152500D01*
G01*
X46370000Y43557500D01*
G75*
G02*
X46522500Y43710000I152500J0D01*
G01*
G37*
G36*
G01*
X46522500Y44680000D02*
X46877500Y44680000D01*
G75*
G02*
X47030000Y44527500I0J-152500D01*
G01*
X47030000Y44222500D01*
G75*
G02*
X46877500Y44070000I-152500J0D01*
G01*
X46522500Y44070000D01*
G75*
G02*
X46370000Y44222500I0J152500D01*
G01*
X46370000Y44527500D01*
G75*
G02*
X46522500Y44680000I152500J0D01*
G01*
G37*
G36*
G01*
X13222500Y43810000D02*
X13577500Y43810000D01*
G75*
G02*
X13730000Y43657500I0J-152500D01*
G01*
X13730000Y43352500D01*
G75*
G02*
X13577500Y43200000I-152500J0D01*
G01*
X13222500Y43200000D01*
G75*
G02*
X13070000Y43352500I0J152500D01*
G01*
X13070000Y43657500D01*
G75*
G02*
X13222500Y43810000I152500J0D01*
G01*
G37*
G36*
G01*
X13222500Y44780000D02*
X13577500Y44780000D01*
G75*
G02*
X13730000Y44627500I0J-152500D01*
G01*
X13730000Y44322500D01*
G75*
G02*
X13577500Y44170000I-152500J0D01*
G01*
X13222500Y44170000D01*
G75*
G02*
X13070000Y44322500I0J152500D01*
G01*
X13070000Y44627500D01*
G75*
G02*
X13222500Y44780000I152500J0D01*
G01*
G37*
G36*
G01*
X12620000Y13767500D02*
X12620000Y13412500D01*
G75*
G02*
X12467500Y13260000I-152500J0D01*
G01*
X12162500Y13260000D01*
G75*
G02*
X12010000Y13412500I0J152500D01*
G01*
X12010000Y13767500D01*
G75*
G02*
X12162500Y13920000I152500J0D01*
G01*
X12467500Y13920000D01*
G75*
G02*
X12620000Y13767500I0J-152500D01*
G01*
G37*
G36*
G01*
X13590000Y13767500D02*
X13590000Y13412500D01*
G75*
G02*
X13437500Y13260000I-152500J0D01*
G01*
X13132500Y13260000D01*
G75*
G02*
X12980000Y13412500I0J152500D01*
G01*
X12980000Y13767500D01*
G75*
G02*
X13132500Y13920000I152500J0D01*
G01*
X13437500Y13920000D01*
G75*
G02*
X13590000Y13767500I0J-152500D01*
G01*
G37*
G36*
G01*
X10022500Y15810000D02*
X10377500Y15810000D01*
G75*
G02*
X10530000Y15657500I0J-152500D01*
G01*
X10530000Y15352500D01*
G75*
G02*
X10377500Y15200000I-152500J0D01*
G01*
X10022500Y15200000D01*
G75*
G02*
X9870000Y15352500I0J152500D01*
G01*
X9870000Y15657500D01*
G75*
G02*
X10022500Y15810000I152500J0D01*
G01*
G37*
G36*
G01*
X10022500Y16780000D02*
X10377500Y16780000D01*
G75*
G02*
X10530000Y16627500I0J-152500D01*
G01*
X10530000Y16322500D01*
G75*
G02*
X10377500Y16170000I-152500J0D01*
G01*
X10022500Y16170000D01*
G75*
G02*
X9870000Y16322500I0J152500D01*
G01*
X9870000Y16627500D01*
G75*
G02*
X10022500Y16780000I152500J0D01*
G01*
G37*
G36*
G01*
X47380000Y27612500D02*
X47380000Y27967500D01*
G75*
G02*
X47532500Y28120000I152500J0D01*
G01*
X47837500Y28120000D01*
G75*
G02*
X47990000Y27967500I0J-152500D01*
G01*
X47990000Y27612500D01*
G75*
G02*
X47837500Y27460000I-152500J0D01*
G01*
X47532500Y27460000D01*
G75*
G02*
X47380000Y27612500I0J152500D01*
G01*
G37*
G36*
G01*
X46410000Y27612500D02*
X46410000Y27967500D01*
G75*
G02*
X46562500Y28120000I152500J0D01*
G01*
X46867500Y28120000D01*
G75*
G02*
X47020000Y27967500I0J-152500D01*
G01*
X47020000Y27612500D01*
G75*
G02*
X46867500Y27460000I-152500J0D01*
G01*
X46562500Y27460000D01*
G75*
G02*
X46410000Y27612500I0J152500D01*
G01*
G37*
G36*
G01*
X49977500Y25570000D02*
X49622500Y25570000D01*
G75*
G02*
X49470000Y25722500I0J152500D01*
G01*
X49470000Y26027500D01*
G75*
G02*
X49622500Y26180000I152500J0D01*
G01*
X49977500Y26180000D01*
G75*
G02*
X50130000Y26027500I0J-152500D01*
G01*
X50130000Y25722500D01*
G75*
G02*
X49977500Y25570000I-152500J0D01*
G01*
G37*
G36*
G01*
X49977500Y24600000D02*
X49622500Y24600000D01*
G75*
G02*
X49470000Y24752500I0J152500D01*
G01*
X49470000Y25057500D01*
G75*
G02*
X49622500Y25210000I152500J0D01*
G01*
X49977500Y25210000D01*
G75*
G02*
X50130000Y25057500I0J-152500D01*
G01*
X50130000Y24752500D01*
G75*
G02*
X49977500Y24600000I-152500J0D01*
G01*
G37*
G36*
G01*
X45020000Y37367500D02*
X45020000Y37012500D01*
G75*
G02*
X44867500Y36860000I-152500J0D01*
G01*
X44562500Y36860000D01*
G75*
G02*
X44410000Y37012500I0J152500D01*
G01*
X44410000Y37367500D01*
G75*
G02*
X44562500Y37520000I152500J0D01*
G01*
X44867500Y37520000D01*
G75*
G02*
X45020000Y37367500I0J-152500D01*
G01*
G37*
G36*
G01*
X45990000Y37367500D02*
X45990000Y37012500D01*
G75*
G02*
X45837500Y36860000I-152500J0D01*
G01*
X45532500Y36860000D01*
G75*
G02*
X45380000Y37012500I0J152500D01*
G01*
X45380000Y37367500D01*
G75*
G02*
X45532500Y37520000I152500J0D01*
G01*
X45837500Y37520000D01*
G75*
G02*
X45990000Y37367500I0J-152500D01*
G01*
G37*
G36*
G01*
X47380000Y37012500D02*
X47380000Y37367500D01*
G75*
G02*
X47532500Y37520000I152500J0D01*
G01*
X47837500Y37520000D01*
G75*
G02*
X47990000Y37367500I0J-152500D01*
G01*
X47990000Y37012500D01*
G75*
G02*
X47837500Y36860000I-152500J0D01*
G01*
X47532500Y36860000D01*
G75*
G02*
X47380000Y37012500I0J152500D01*
G01*
G37*
G36*
G01*
X46410000Y37012500D02*
X46410000Y37367500D01*
G75*
G02*
X46562500Y37520000I152500J0D01*
G01*
X46867500Y37520000D01*
G75*
G02*
X47020000Y37367500I0J-152500D01*
G01*
X47020000Y37012500D01*
G75*
G02*
X46867500Y36860000I-152500J0D01*
G01*
X46562500Y36860000D01*
G75*
G02*
X46410000Y37012500I0J152500D01*
G01*
G37*
G36*
G01*
X49977500Y34970000D02*
X49622500Y34970000D01*
G75*
G02*
X49470000Y35122500I0J152500D01*
G01*
X49470000Y35427500D01*
G75*
G02*
X49622500Y35580000I152500J0D01*
G01*
X49977500Y35580000D01*
G75*
G02*
X50130000Y35427500I0J-152500D01*
G01*
X50130000Y35122500D01*
G75*
G02*
X49977500Y34970000I-152500J0D01*
G01*
G37*
G36*
G01*
X49977500Y34000000D02*
X49622500Y34000000D01*
G75*
G02*
X49470000Y34152500I0J152500D01*
G01*
X49470000Y34457500D01*
G75*
G02*
X49622500Y34610000I152500J0D01*
G01*
X49977500Y34610000D01*
G75*
G02*
X50130000Y34457500I0J-152500D01*
G01*
X50130000Y34152500D01*
G75*
G02*
X49977500Y34000000I-152500J0D01*
G01*
G37*
G36*
G01*
X14980000Y22812500D02*
X14980000Y23167500D01*
G75*
G02*
X15132500Y23320000I152500J0D01*
G01*
X15437500Y23320000D01*
G75*
G02*
X15590000Y23167500I0J-152500D01*
G01*
X15590000Y22812500D01*
G75*
G02*
X15437500Y22660000I-152500J0D01*
G01*
X15132500Y22660000D01*
G75*
G02*
X14980000Y22812500I0J152500D01*
G01*
G37*
G36*
G01*
X14010000Y22812500D02*
X14010000Y23167500D01*
G75*
G02*
X14162500Y23320000I152500J0D01*
G01*
X14467500Y23320000D01*
G75*
G02*
X14620000Y23167500I0J-152500D01*
G01*
X14620000Y22812500D01*
G75*
G02*
X14467500Y22660000I-152500J0D01*
G01*
X14162500Y22660000D01*
G75*
G02*
X14010000Y22812500I0J152500D01*
G01*
G37*
G36*
G01*
X12620000Y23167500D02*
X12620000Y22812500D01*
G75*
G02*
X12467500Y22660000I-152500J0D01*
G01*
X12162500Y22660000D01*
G75*
G02*
X12010000Y22812500I0J152500D01*
G01*
X12010000Y23167500D01*
G75*
G02*
X12162500Y23320000I152500J0D01*
G01*
X12467500Y23320000D01*
G75*
G02*
X12620000Y23167500I0J-152500D01*
G01*
G37*
G36*
G01*
X13590000Y23167500D02*
X13590000Y22812500D01*
G75*
G02*
X13437500Y22660000I-152500J0D01*
G01*
X13132500Y22660000D01*
G75*
G02*
X12980000Y22812500I0J152500D01*
G01*
X12980000Y23167500D01*
G75*
G02*
X13132500Y23320000I152500J0D01*
G01*
X13437500Y23320000D01*
G75*
G02*
X13590000Y23167500I0J-152500D01*
G01*
G37*
G36*
G01*
X9822500Y25010000D02*
X10177500Y25010000D01*
G75*
G02*
X10330000Y24857500I0J-152500D01*
G01*
X10330000Y24552500D01*
G75*
G02*
X10177500Y24400000I-152500J0D01*
G01*
X9822500Y24400000D01*
G75*
G02*
X9670000Y24552500I0J152500D01*
G01*
X9670000Y24857500D01*
G75*
G02*
X9822500Y25010000I152500J0D01*
G01*
G37*
G36*
G01*
X9822500Y25980000D02*
X10177500Y25980000D01*
G75*
G02*
X10330000Y25827500I0J-152500D01*
G01*
X10330000Y25522500D01*
G75*
G02*
X10177500Y25370000I-152500J0D01*
G01*
X9822500Y25370000D01*
G75*
G02*
X9670000Y25522500I0J152500D01*
G01*
X9670000Y25827500D01*
G75*
G02*
X9822500Y25980000I152500J0D01*
G01*
G37*
G36*
G01*
X11622500Y41410000D02*
X11977500Y41410000D01*
G75*
G02*
X12130000Y41257500I0J-152500D01*
G01*
X12130000Y40952500D01*
G75*
G02*
X11977500Y40800000I-152500J0D01*
G01*
X11622500Y40800000D01*
G75*
G02*
X11470000Y40952500I0J152500D01*
G01*
X11470000Y41257500D01*
G75*
G02*
X11622500Y41410000I152500J0D01*
G01*
G37*
G36*
G01*
X11622500Y42380000D02*
X11977500Y42380000D01*
G75*
G02*
X12130000Y42227500I0J-152500D01*
G01*
X12130000Y41922500D01*
G75*
G02*
X11977500Y41770000I-152500J0D01*
G01*
X11622500Y41770000D01*
G75*
G02*
X11470000Y41922500I0J152500D01*
G01*
X11470000Y42227500D01*
G75*
G02*
X11622500Y42380000I152500J0D01*
G01*
G37*
G36*
G01*
X10622500Y41410000D02*
X10977500Y41410000D01*
G75*
G02*
X11130000Y41257500I0J-152500D01*
G01*
X11130000Y40952500D01*
G75*
G02*
X10977500Y40800000I-152500J0D01*
G01*
X10622500Y40800000D01*
G75*
G02*
X10470000Y40952500I0J152500D01*
G01*
X10470000Y41257500D01*
G75*
G02*
X10622500Y41410000I152500J0D01*
G01*
G37*
G36*
G01*
X10622500Y42380000D02*
X10977500Y42380000D01*
G75*
G02*
X11130000Y42227500I0J-152500D01*
G01*
X11130000Y41922500D01*
G75*
G02*
X10977500Y41770000I-152500J0D01*
G01*
X10622500Y41770000D01*
G75*
G02*
X10470000Y41922500I0J152500D01*
G01*
X10470000Y42227500D01*
G75*
G02*
X10622500Y42380000I152500J0D01*
G01*
G37*
G36*
G01*
X42220000Y20067500D02*
X42220000Y19712500D01*
G75*
G02*
X42067500Y19560000I-152500J0D01*
G01*
X41762500Y19560000D01*
G75*
G02*
X41610000Y19712500I0J152500D01*
G01*
X41610000Y20067500D01*
G75*
G02*
X41762500Y20220000I152500J0D01*
G01*
X42067500Y20220000D01*
G75*
G02*
X42220000Y20067500I0J-152500D01*
G01*
G37*
G36*
G01*
X43190000Y20067500D02*
X43190000Y19712500D01*
G75*
G02*
X43037500Y19560000I-152500J0D01*
G01*
X42732500Y19560000D01*
G75*
G02*
X42580000Y19712500I0J152500D01*
G01*
X42580000Y20067500D01*
G75*
G02*
X42732500Y20220000I152500J0D01*
G01*
X43037500Y20220000D01*
G75*
G02*
X43190000Y20067500I0J-152500D01*
G01*
G37*
G36*
G01*
X30160000Y5272500D02*
X30160000Y5627500D01*
G75*
G02*
X30312500Y5780000I152500J0D01*
G01*
X30617500Y5780000D01*
G75*
G02*
X30770000Y5627500I0J-152500D01*
G01*
X30770000Y5272500D01*
G75*
G02*
X30617500Y5120000I-152500J0D01*
G01*
X30312500Y5120000D01*
G75*
G02*
X30160000Y5272500I0J152500D01*
G01*
G37*
G36*
G01*
X29190000Y5272500D02*
X29190000Y5627500D01*
G75*
G02*
X29342500Y5780000I152500J0D01*
G01*
X29647500Y5780000D01*
G75*
G02*
X29800000Y5627500I0J-152500D01*
G01*
X29800000Y5272500D01*
G75*
G02*
X29647500Y5120000I-152500J0D01*
G01*
X29342500Y5120000D01*
G75*
G02*
X29190000Y5272500I0J152500D01*
G01*
G37*
G36*
G01*
X37892500Y11470000D02*
X38247500Y11470000D01*
G75*
G02*
X38400000Y11317500I0J-152500D01*
G01*
X38400000Y11012500D01*
G75*
G02*
X38247500Y10860000I-152500J0D01*
G01*
X37892500Y10860000D01*
G75*
G02*
X37740000Y11012500I0J152500D01*
G01*
X37740000Y11317500D01*
G75*
G02*
X37892500Y11470000I152500J0D01*
G01*
G37*
G36*
G01*
X37892500Y12440000D02*
X38247500Y12440000D01*
G75*
G02*
X38400000Y12287500I0J-152500D01*
G01*
X38400000Y11982500D01*
G75*
G02*
X38247500Y11830000I-152500J0D01*
G01*
X37892500Y11830000D01*
G75*
G02*
X37740000Y11982500I0J152500D01*
G01*
X37740000Y12287500D01*
G75*
G02*
X37892500Y12440000I152500J0D01*
G01*
G37*
G36*
G01*
X30622500Y19710000D02*
X30977500Y19710000D01*
G75*
G02*
X31130000Y19557500I0J-152500D01*
G01*
X31130000Y19252500D01*
G75*
G02*
X30977500Y19100000I-152500J0D01*
G01*
X30622500Y19100000D01*
G75*
G02*
X30470000Y19252500I0J152500D01*
G01*
X30470000Y19557500D01*
G75*
G02*
X30622500Y19710000I152500J0D01*
G01*
G37*
G36*
G01*
X30622500Y20680000D02*
X30977500Y20680000D01*
G75*
G02*
X31130000Y20527500I0J-152500D01*
G01*
X31130000Y20222500D01*
G75*
G02*
X30977500Y20070000I-152500J0D01*
G01*
X30622500Y20070000D01*
G75*
G02*
X30470000Y20222500I0J152500D01*
G01*
X30470000Y20527500D01*
G75*
G02*
X30622500Y20680000I152500J0D01*
G01*
G37*
G36*
G01*
X26735000Y13552500D02*
X26735000Y13907500D01*
G75*
G02*
X26887500Y14060000I152500J0D01*
G01*
X27192500Y14060000D01*
G75*
G02*
X27345000Y13907500I0J-152500D01*
G01*
X27345000Y13552500D01*
G75*
G02*
X27192500Y13400000I-152500J0D01*
G01*
X26887500Y13400000D01*
G75*
G02*
X26735000Y13552500I0J152500D01*
G01*
G37*
G36*
G01*
X25765000Y13552500D02*
X25765000Y13907500D01*
G75*
G02*
X25917500Y14060000I152500J0D01*
G01*
X26222500Y14060000D01*
G75*
G02*
X26375000Y13907500I0J-152500D01*
G01*
X26375000Y13552500D01*
G75*
G02*
X26222500Y13400000I-152500J0D01*
G01*
X25917500Y13400000D01*
G75*
G02*
X25765000Y13552500I0J152500D01*
G01*
G37*
G36*
G01*
X20127500Y13728750D02*
X20127500Y14251250D01*
G75*
G02*
X20351250Y14475000I223750J0D01*
G01*
X20798750Y14475000D01*
G75*
G02*
X21022500Y14251250I0J-223750D01*
G01*
X21022500Y13728750D01*
G75*
G02*
X20798750Y13505000I-223750J0D01*
G01*
X20351250Y13505000D01*
G75*
G02*
X20127500Y13728750I0J223750D01*
G01*
G37*
G36*
G01*
X18552500Y13728750D02*
X18552500Y14251250D01*
G75*
G02*
X18776250Y14475000I223750J0D01*
G01*
X19223750Y14475000D01*
G75*
G02*
X19447500Y14251250I0J-223750D01*
G01*
X19447500Y13728750D01*
G75*
G02*
X19223750Y13505000I-223750J0D01*
G01*
X18776250Y13505000D01*
G75*
G02*
X18552500Y13728750I0J223750D01*
G01*
G37*
G36*
G01*
X17261250Y19730000D02*
X16738750Y19730000D01*
G75*
G02*
X16515000Y19953750I0J223750D01*
G01*
X16515000Y20401250D01*
G75*
G02*
X16738750Y20625000I223750J0D01*
G01*
X17261250Y20625000D01*
G75*
G02*
X17485000Y20401250I0J-223750D01*
G01*
X17485000Y19953750D01*
G75*
G02*
X17261250Y19730000I-223750J0D01*
G01*
G37*
G36*
G01*
X17261250Y18155000D02*
X16738750Y18155000D01*
G75*
G02*
X16515000Y18378750I0J223750D01*
G01*
X16515000Y18826250D01*
G75*
G02*
X16738750Y19050000I223750J0D01*
G01*
X17261250Y19050000D01*
G75*
G02*
X17485000Y18826250I0J-223750D01*
G01*
X17485000Y18378750D01*
G75*
G02*
X17261250Y18155000I-223750J0D01*
G01*
G37*
G36*
G01*
X22680000Y19462500D02*
X22680000Y19817500D01*
G75*
G02*
X22832500Y19970000I152500J0D01*
G01*
X23137500Y19970000D01*
G75*
G02*
X23290000Y19817500I0J-152500D01*
G01*
X23290000Y19462500D01*
G75*
G02*
X23137500Y19310000I-152500J0D01*
G01*
X22832500Y19310000D01*
G75*
G02*
X22680000Y19462500I0J152500D01*
G01*
G37*
G36*
G01*
X21710000Y19462500D02*
X21710000Y19817500D01*
G75*
G02*
X21862500Y19970000I152500J0D01*
G01*
X22167500Y19970000D01*
G75*
G02*
X22320000Y19817500I0J-152500D01*
G01*
X22320000Y19462500D01*
G75*
G02*
X22167500Y19310000I-152500J0D01*
G01*
X21862500Y19310000D01*
G75*
G02*
X21710000Y19462500I0J152500D01*
G01*
G37*
D16*
X22000000Y4440000D03*
X26000000Y4440000D03*
D17*
X20400000Y2290000D03*
X27600000Y2290000D03*
X27600000Y5760000D03*
X20400000Y5760000D03*
G36*
G01*
X32552791Y40691768D02*
X32301768Y40942791D01*
G75*
G02*
X32301768Y41158459I107834J107834D01*
G01*
X32517435Y41374126D01*
G75*
G02*
X32733103Y41374126I107834J-107834D01*
G01*
X32984126Y41123103D01*
G75*
G02*
X32984126Y40907435I-107834J-107834D01*
G01*
X32768459Y40691768D01*
G75*
G02*
X32552791Y40691768I-107834J107834D01*
G01*
G37*
G36*
G01*
X31866897Y40005874D02*
X31615874Y40256897D01*
G75*
G02*
X31615874Y40472565I107834J107834D01*
G01*
X31831541Y40688232D01*
G75*
G02*
X32047209Y40688232I107834J-107834D01*
G01*
X32298232Y40437209D01*
G75*
G02*
X32298232Y40221541I-107834J-107834D01*
G01*
X32082565Y40005874D01*
G75*
G02*
X31866897Y40005874I-107834J107834D01*
G01*
G37*
G36*
G01*
X33252791Y39991768D02*
X33001768Y40242791D01*
G75*
G02*
X33001768Y40458459I107834J107834D01*
G01*
X33217435Y40674126D01*
G75*
G02*
X33433103Y40674126I107834J-107834D01*
G01*
X33684126Y40423103D01*
G75*
G02*
X33684126Y40207435I-107834J-107834D01*
G01*
X33468459Y39991768D01*
G75*
G02*
X33252791Y39991768I-107834J107834D01*
G01*
G37*
G36*
G01*
X32566897Y39305874D02*
X32315874Y39556897D01*
G75*
G02*
X32315874Y39772565I107834J107834D01*
G01*
X32531541Y39988232D01*
G75*
G02*
X32747209Y39988232I107834J-107834D01*
G01*
X32998232Y39737209D01*
G75*
G02*
X32998232Y39521541I-107834J-107834D01*
G01*
X32782565Y39305874D01*
G75*
G02*
X32566897Y39305874I-107834J107834D01*
G01*
G37*
G36*
G01*
X30877500Y35070000D02*
X30522500Y35070000D01*
G75*
G02*
X30370000Y35222500I0J152500D01*
G01*
X30370000Y35527500D01*
G75*
G02*
X30522500Y35680000I152500J0D01*
G01*
X30877500Y35680000D01*
G75*
G02*
X31030000Y35527500I0J-152500D01*
G01*
X31030000Y35222500D01*
G75*
G02*
X30877500Y35070000I-152500J0D01*
G01*
G37*
G36*
G01*
X30877500Y34100000D02*
X30522500Y34100000D01*
G75*
G02*
X30370000Y34252500I0J152500D01*
G01*
X30370000Y34557500D01*
G75*
G02*
X30522500Y34710000I152500J0D01*
G01*
X30877500Y34710000D01*
G75*
G02*
X31030000Y34557500I0J-152500D01*
G01*
X31030000Y34252500D01*
G75*
G02*
X30877500Y34100000I-152500J0D01*
G01*
G37*
G36*
G01*
X31680000Y28412500D02*
X31680000Y28767500D01*
G75*
G02*
X31832500Y28920000I152500J0D01*
G01*
X32137500Y28920000D01*
G75*
G02*
X32290000Y28767500I0J-152500D01*
G01*
X32290000Y28412500D01*
G75*
G02*
X32137500Y28260000I-152500J0D01*
G01*
X31832500Y28260000D01*
G75*
G02*
X31680000Y28412500I0J152500D01*
G01*
G37*
G36*
G01*
X30710000Y28412500D02*
X30710000Y28767500D01*
G75*
G02*
X30862500Y28920000I152500J0D01*
G01*
X31167500Y28920000D01*
G75*
G02*
X31320000Y28767500I0J-152500D01*
G01*
X31320000Y28412500D01*
G75*
G02*
X31167500Y28260000I-152500J0D01*
G01*
X30862500Y28260000D01*
G75*
G02*
X30710000Y28412500I0J152500D01*
G01*
G37*
G36*
G01*
X7920000Y39767500D02*
X7920000Y39412500D01*
G75*
G02*
X7767500Y39260000I-152500J0D01*
G01*
X7462500Y39260000D01*
G75*
G02*
X7310000Y39412500I0J152500D01*
G01*
X7310000Y39767500D01*
G75*
G02*
X7462500Y39920000I152500J0D01*
G01*
X7767500Y39920000D01*
G75*
G02*
X7920000Y39767500I0J-152500D01*
G01*
G37*
G36*
G01*
X8890000Y39767500D02*
X8890000Y39412500D01*
G75*
G02*
X8737500Y39260000I-152500J0D01*
G01*
X8432500Y39260000D01*
G75*
G02*
X8280000Y39412500I0J152500D01*
G01*
X8280000Y39767500D01*
G75*
G02*
X8432500Y39920000I152500J0D01*
G01*
X8737500Y39920000D01*
G75*
G02*
X8890000Y39767500I0J-152500D01*
G01*
G37*
G36*
G01*
X13680000Y40512500D02*
X13680000Y40867500D01*
G75*
G02*
X13832500Y41020000I152500J0D01*
G01*
X14137500Y41020000D01*
G75*
G02*
X14290000Y40867500I0J-152500D01*
G01*
X14290000Y40512500D01*
G75*
G02*
X14137500Y40360000I-152500J0D01*
G01*
X13832500Y40360000D01*
G75*
G02*
X13680000Y40512500I0J152500D01*
G01*
G37*
G36*
G01*
X12710000Y40512500D02*
X12710000Y40867500D01*
G75*
G02*
X12862500Y41020000I152500J0D01*
G01*
X13167500Y41020000D01*
G75*
G02*
X13320000Y40867500I0J-152500D01*
G01*
X13320000Y40512500D01*
G75*
G02*
X13167500Y40360000I-152500J0D01*
G01*
X12862500Y40360000D01*
G75*
G02*
X12710000Y40512500I0J152500D01*
G01*
G37*
G36*
G01*
X9720000Y34367500D02*
X9720000Y34012500D01*
G75*
G02*
X9567500Y33860000I-152500J0D01*
G01*
X9262500Y33860000D01*
G75*
G02*
X9110000Y34012500I0J152500D01*
G01*
X9110000Y34367500D01*
G75*
G02*
X9262500Y34520000I152500J0D01*
G01*
X9567500Y34520000D01*
G75*
G02*
X9720000Y34367500I0J-152500D01*
G01*
G37*
G36*
G01*
X10690000Y34367500D02*
X10690000Y34012500D01*
G75*
G02*
X10537500Y33860000I-152500J0D01*
G01*
X10232500Y33860000D01*
G75*
G02*
X10080000Y34012500I0J152500D01*
G01*
X10080000Y34367500D01*
G75*
G02*
X10232500Y34520000I152500J0D01*
G01*
X10537500Y34520000D01*
G75*
G02*
X10690000Y34367500I0J-152500D01*
G01*
G37*
G36*
G01*
X16080000Y34712500D02*
X16080000Y35067500D01*
G75*
G02*
X16232500Y35220000I152500J0D01*
G01*
X16537500Y35220000D01*
G75*
G02*
X16690000Y35067500I0J-152500D01*
G01*
X16690000Y34712500D01*
G75*
G02*
X16537500Y34560000I-152500J0D01*
G01*
X16232500Y34560000D01*
G75*
G02*
X16080000Y34712500I0J152500D01*
G01*
G37*
G36*
G01*
X15110000Y34712500D02*
X15110000Y35067500D01*
G75*
G02*
X15262500Y35220000I152500J0D01*
G01*
X15567500Y35220000D01*
G75*
G02*
X15720000Y35067500I0J-152500D01*
G01*
X15720000Y34712500D01*
G75*
G02*
X15567500Y34560000I-152500J0D01*
G01*
X15262500Y34560000D01*
G75*
G02*
X15110000Y34712500I0J152500D01*
G01*
G37*
G36*
G01*
X26522500Y19010000D02*
X26877500Y19010000D01*
G75*
G02*
X27030000Y18857500I0J-152500D01*
G01*
X27030000Y18552500D01*
G75*
G02*
X26877500Y18400000I-152500J0D01*
G01*
X26522500Y18400000D01*
G75*
G02*
X26370000Y18552500I0J152500D01*
G01*
X26370000Y18857500D01*
G75*
G02*
X26522500Y19010000I152500J0D01*
G01*
G37*
G36*
G01*
X26522500Y19980000D02*
X26877500Y19980000D01*
G75*
G02*
X27030000Y19827500I0J-152500D01*
G01*
X27030000Y19522500D01*
G75*
G02*
X26877500Y19370000I-152500J0D01*
G01*
X26522500Y19370000D01*
G75*
G02*
X26370000Y19522500I0J152500D01*
G01*
X26370000Y19827500D01*
G75*
G02*
X26522500Y19980000I152500J0D01*
G01*
G37*
G36*
G01*
X20480000Y7612500D02*
X20480000Y7967500D01*
G75*
G02*
X20632500Y8120000I152500J0D01*
G01*
X20937500Y8120000D01*
G75*
G02*
X21090000Y7967500I0J-152500D01*
G01*
X21090000Y7612500D01*
G75*
G02*
X20937500Y7460000I-152500J0D01*
G01*
X20632500Y7460000D01*
G75*
G02*
X20480000Y7612500I0J152500D01*
G01*
G37*
G36*
G01*
X19510000Y7612500D02*
X19510000Y7967500D01*
G75*
G02*
X19662500Y8120000I152500J0D01*
G01*
X19967500Y8120000D01*
G75*
G02*
X20120000Y7967500I0J-152500D01*
G01*
X20120000Y7612500D01*
G75*
G02*
X19967500Y7460000I-152500J0D01*
G01*
X19662500Y7460000D01*
G75*
G02*
X19510000Y7612500I0J152500D01*
G01*
G37*
D18*
X10800000Y8190000D03*
D19*
X43130000Y6330000D03*
X45670000Y6330000D03*
X43130000Y3790000D03*
X45670000Y3790000D03*
X43130000Y1250000D03*
D20*
X45670000Y1250000D03*
G36*
G01*
X31565000Y17159000D02*
X31565000Y18421000D01*
G75*
G02*
X31819000Y18675000I254000J0D01*
G01*
X32581000Y18675000D01*
G75*
G02*
X32835000Y18421000I0J-254000D01*
G01*
X32835000Y17159000D01*
G75*
G02*
X32581000Y16905000I-254000J0D01*
G01*
X31819000Y16905000D01*
G75*
G02*
X31565000Y17159000I0J254000D01*
G01*
G37*
G36*
G01*
X28765000Y17159000D02*
X28765000Y18421000D01*
G75*
G02*
X29019000Y18675000I254000J0D01*
G01*
X29781000Y18675000D01*
G75*
G02*
X30035000Y18421000I0J-254000D01*
G01*
X30035000Y17159000D01*
G75*
G02*
X29781000Y16905000I-254000J0D01*
G01*
X29019000Y16905000D01*
G75*
G02*
X28765000Y17159000I0J254000D01*
G01*
G37*
G36*
G01*
X21427500Y28070000D02*
X21072500Y28070000D01*
G75*
G02*
X20920000Y28222500I0J152500D01*
G01*
X20920000Y28527500D01*
G75*
G02*
X21072500Y28680000I152500J0D01*
G01*
X21427500Y28680000D01*
G75*
G02*
X21580000Y28527500I0J-152500D01*
G01*
X21580000Y28222500D01*
G75*
G02*
X21427500Y28070000I-152500J0D01*
G01*
G37*
G36*
G01*
X21427500Y27100000D02*
X21072500Y27100000D01*
G75*
G02*
X20920000Y27252500I0J152500D01*
G01*
X20920000Y27557500D01*
G75*
G02*
X21072500Y27710000I152500J0D01*
G01*
X21427500Y27710000D01*
G75*
G02*
X21580000Y27557500I0J-152500D01*
G01*
X21580000Y27252500D01*
G75*
G02*
X21427500Y27100000I-152500J0D01*
G01*
G37*
G36*
G01*
X24420000Y16567500D02*
X24420000Y16212500D01*
G75*
G02*
X24267500Y16060000I-152500J0D01*
G01*
X23962500Y16060000D01*
G75*
G02*
X23810000Y16212500I0J152500D01*
G01*
X23810000Y16567500D01*
G75*
G02*
X23962500Y16720000I152500J0D01*
G01*
X24267500Y16720000D01*
G75*
G02*
X24420000Y16567500I0J-152500D01*
G01*
G37*
G36*
G01*
X25390000Y16567500D02*
X25390000Y16212500D01*
G75*
G02*
X25237500Y16060000I-152500J0D01*
G01*
X24932500Y16060000D01*
G75*
G02*
X24780000Y16212500I0J152500D01*
G01*
X24780000Y16567500D01*
G75*
G02*
X24932500Y16720000I152500J0D01*
G01*
X25237500Y16720000D01*
G75*
G02*
X25390000Y16567500I0J-152500D01*
G01*
G37*
G36*
G01*
X22820000Y28567500D02*
X22820000Y28212500D01*
G75*
G02*
X22667500Y28060000I-152500J0D01*
G01*
X22362500Y28060000D01*
G75*
G02*
X22210000Y28212500I0J152500D01*
G01*
X22210000Y28567500D01*
G75*
G02*
X22362500Y28720000I152500J0D01*
G01*
X22667500Y28720000D01*
G75*
G02*
X22820000Y28567500I0J-152500D01*
G01*
G37*
G36*
G01*
X23790000Y28567500D02*
X23790000Y28212500D01*
G75*
G02*
X23637500Y28060000I-152500J0D01*
G01*
X23332500Y28060000D01*
G75*
G02*
X23180000Y28212500I0J152500D01*
G01*
X23180000Y28567500D01*
G75*
G02*
X23332500Y28720000I152500J0D01*
G01*
X23637500Y28720000D01*
G75*
G02*
X23790000Y28567500I0J-152500D01*
G01*
G37*
G36*
G01*
X22822500Y16960000D02*
X23177500Y16960000D01*
G75*
G02*
X23330000Y16807500I0J-152500D01*
G01*
X23330000Y16502500D01*
G75*
G02*
X23177500Y16350000I-152500J0D01*
G01*
X22822500Y16350000D01*
G75*
G02*
X22670000Y16502500I0J152500D01*
G01*
X22670000Y16807500D01*
G75*
G02*
X22822500Y16960000I152500J0D01*
G01*
G37*
G36*
G01*
X22822500Y17930000D02*
X23177500Y17930000D01*
G75*
G02*
X23330000Y17777500I0J-152500D01*
G01*
X23330000Y17472500D01*
G75*
G02*
X23177500Y17320000I-152500J0D01*
G01*
X22822500Y17320000D01*
G75*
G02*
X22670000Y17472500I0J152500D01*
G01*
X22670000Y17777500D01*
G75*
G02*
X22822500Y17930000I152500J0D01*
G01*
G37*
G36*
G01*
X21180000Y23212500D02*
X21180000Y23567500D01*
G75*
G02*
X21332500Y23720000I152500J0D01*
G01*
X21637500Y23720000D01*
G75*
G02*
X21790000Y23567500I0J-152500D01*
G01*
X21790000Y23212500D01*
G75*
G02*
X21637500Y23060000I-152500J0D01*
G01*
X21332500Y23060000D01*
G75*
G02*
X21180000Y23212500I0J152500D01*
G01*
G37*
G36*
G01*
X20210000Y23212500D02*
X20210000Y23567500D01*
G75*
G02*
X20362500Y23720000I152500J0D01*
G01*
X20667500Y23720000D01*
G75*
G02*
X20820000Y23567500I0J-152500D01*
G01*
X20820000Y23212500D01*
G75*
G02*
X20667500Y23060000I-152500J0D01*
G01*
X20362500Y23060000D01*
G75*
G02*
X20210000Y23212500I0J152500D01*
G01*
G37*
G36*
G01*
X20822500Y17510000D02*
X21177500Y17510000D01*
G75*
G02*
X21330000Y17357500I0J-152500D01*
G01*
X21330000Y17052500D01*
G75*
G02*
X21177500Y16900000I-152500J0D01*
G01*
X20822500Y16900000D01*
G75*
G02*
X20670000Y17052500I0J152500D01*
G01*
X20670000Y17357500D01*
G75*
G02*
X20822500Y17510000I152500J0D01*
G01*
G37*
G36*
G01*
X20822500Y18480000D02*
X21177500Y18480000D01*
G75*
G02*
X21330000Y18327500I0J-152500D01*
G01*
X21330000Y18022500D01*
G75*
G02*
X21177500Y17870000I-152500J0D01*
G01*
X20822500Y17870000D01*
G75*
G02*
X20670000Y18022500I0J152500D01*
G01*
X20670000Y18327500D01*
G75*
G02*
X20822500Y18480000I152500J0D01*
G01*
G37*
G36*
G01*
X21180000Y33212500D02*
X21180000Y33567500D01*
G75*
G02*
X21332500Y33720000I152500J0D01*
G01*
X21637500Y33720000D01*
G75*
G02*
X21790000Y33567500I0J-152500D01*
G01*
X21790000Y33212500D01*
G75*
G02*
X21637500Y33060000I-152500J0D01*
G01*
X21332500Y33060000D01*
G75*
G02*
X21180000Y33212500I0J152500D01*
G01*
G37*
G36*
G01*
X20210000Y33212500D02*
X20210000Y33567500D01*
G75*
G02*
X20362500Y33720000I152500J0D01*
G01*
X20667500Y33720000D01*
G75*
G02*
X20820000Y33567500I0J-152500D01*
G01*
X20820000Y33212500D01*
G75*
G02*
X20667500Y33060000I-152500J0D01*
G01*
X20362500Y33060000D01*
G75*
G02*
X20210000Y33212500I0J152500D01*
G01*
G37*
G36*
G01*
X23477500Y22870000D02*
X23122500Y22870000D01*
G75*
G02*
X22970000Y23022500I0J152500D01*
G01*
X22970000Y23327500D01*
G75*
G02*
X23122500Y23480000I152500J0D01*
G01*
X23477500Y23480000D01*
G75*
G02*
X23630000Y23327500I0J-152500D01*
G01*
X23630000Y23022500D01*
G75*
G02*
X23477500Y22870000I-152500J0D01*
G01*
G37*
G36*
G01*
X23477500Y21900000D02*
X23122500Y21900000D01*
G75*
G02*
X22970000Y22052500I0J152500D01*
G01*
X22970000Y22357500D01*
G75*
G02*
X23122500Y22510000I152500J0D01*
G01*
X23477500Y22510000D01*
G75*
G02*
X23630000Y22357500I0J-152500D01*
G01*
X23630000Y22052500D01*
G75*
G02*
X23477500Y21900000I-152500J0D01*
G01*
G37*
G36*
G01*
X21180000Y32212500D02*
X21180000Y32567500D01*
G75*
G02*
X21332500Y32720000I152500J0D01*
G01*
X21637500Y32720000D01*
G75*
G02*
X21790000Y32567500I0J-152500D01*
G01*
X21790000Y32212500D01*
G75*
G02*
X21637500Y32060000I-152500J0D01*
G01*
X21332500Y32060000D01*
G75*
G02*
X21180000Y32212500I0J152500D01*
G01*
G37*
G36*
G01*
X20210000Y32212500D02*
X20210000Y32567500D01*
G75*
G02*
X20362500Y32720000I152500J0D01*
G01*
X20667500Y32720000D01*
G75*
G02*
X20820000Y32567500I0J-152500D01*
G01*
X20820000Y32212500D01*
G75*
G02*
X20667500Y32060000I-152500J0D01*
G01*
X20362500Y32060000D01*
G75*
G02*
X20210000Y32212500I0J152500D01*
G01*
G37*
G36*
G01*
X22177500Y16770000D02*
X21822500Y16770000D01*
G75*
G02*
X21670000Y16922500I0J152500D01*
G01*
X21670000Y17227500D01*
G75*
G02*
X21822500Y17380000I152500J0D01*
G01*
X22177500Y17380000D01*
G75*
G02*
X22330000Y17227500I0J-152500D01*
G01*
X22330000Y16922500D01*
G75*
G02*
X22177500Y16770000I-152500J0D01*
G01*
G37*
G36*
G01*
X22177500Y15800000D02*
X21822500Y15800000D01*
G75*
G02*
X21670000Y15952500I0J152500D01*
G01*
X21670000Y16257500D01*
G75*
G02*
X21822500Y16410000I152500J0D01*
G01*
X22177500Y16410000D01*
G75*
G02*
X22330000Y16257500I0J-152500D01*
G01*
X22330000Y15952500D01*
G75*
G02*
X22177500Y15800000I-152500J0D01*
G01*
G37*
G36*
G01*
X21820000Y25567500D02*
X21820000Y25212500D01*
G75*
G02*
X21667500Y25060000I-152500J0D01*
G01*
X21362500Y25060000D01*
G75*
G02*
X21210000Y25212500I0J152500D01*
G01*
X21210000Y25567500D01*
G75*
G02*
X21362500Y25720000I152500J0D01*
G01*
X21667500Y25720000D01*
G75*
G02*
X21820000Y25567500I0J-152500D01*
G01*
G37*
G36*
G01*
X22790000Y25567500D02*
X22790000Y25212500D01*
G75*
G02*
X22637500Y25060000I-152500J0D01*
G01*
X22332500Y25060000D01*
G75*
G02*
X22180000Y25212500I0J152500D01*
G01*
X22180000Y25567500D01*
G75*
G02*
X22332500Y25720000I152500J0D01*
G01*
X22637500Y25720000D01*
G75*
G02*
X22790000Y25567500I0J-152500D01*
G01*
G37*
G36*
G01*
X35680000Y34512500D02*
X35680000Y34867500D01*
G75*
G02*
X35832500Y35020000I152500J0D01*
G01*
X36137500Y35020000D01*
G75*
G02*
X36290000Y34867500I0J-152500D01*
G01*
X36290000Y34512500D01*
G75*
G02*
X36137500Y34360000I-152500J0D01*
G01*
X35832500Y34360000D01*
G75*
G02*
X35680000Y34512500I0J152500D01*
G01*
G37*
G36*
G01*
X34710000Y34512500D02*
X34710000Y34867500D01*
G75*
G02*
X34862500Y35020000I152500J0D01*
G01*
X35167500Y35020000D01*
G75*
G02*
X35320000Y34867500I0J-152500D01*
G01*
X35320000Y34512500D01*
G75*
G02*
X35167500Y34360000I-152500J0D01*
G01*
X34862500Y34360000D01*
G75*
G02*
X34710000Y34512500I0J152500D01*
G01*
G37*
G36*
G01*
X40380000Y33012500D02*
X40380000Y33367500D01*
G75*
G02*
X40532500Y33520000I152500J0D01*
G01*
X40837500Y33520000D01*
G75*
G02*
X40990000Y33367500I0J-152500D01*
G01*
X40990000Y33012500D01*
G75*
G02*
X40837500Y32860000I-152500J0D01*
G01*
X40532500Y32860000D01*
G75*
G02*
X40380000Y33012500I0J152500D01*
G01*
G37*
G36*
G01*
X39410000Y33012500D02*
X39410000Y33367500D01*
G75*
G02*
X39562500Y33520000I152500J0D01*
G01*
X39867500Y33520000D01*
G75*
G02*
X40020000Y33367500I0J-152500D01*
G01*
X40020000Y33012500D01*
G75*
G02*
X39867500Y32860000I-152500J0D01*
G01*
X39562500Y32860000D01*
G75*
G02*
X39410000Y33012500I0J152500D01*
G01*
G37*
G36*
G01*
X33780000Y35012500D02*
X33780000Y35367500D01*
G75*
G02*
X33932500Y35520000I152500J0D01*
G01*
X34237500Y35520000D01*
G75*
G02*
X34390000Y35367500I0J-152500D01*
G01*
X34390000Y35012500D01*
G75*
G02*
X34237500Y34860000I-152500J0D01*
G01*
X33932500Y34860000D01*
G75*
G02*
X33780000Y35012500I0J152500D01*
G01*
G37*
G36*
G01*
X32810000Y35012500D02*
X32810000Y35367500D01*
G75*
G02*
X32962500Y35520000I152500J0D01*
G01*
X33267500Y35520000D01*
G75*
G02*
X33420000Y35367500I0J-152500D01*
G01*
X33420000Y35012500D01*
G75*
G02*
X33267500Y34860000I-152500J0D01*
G01*
X32962500Y34860000D01*
G75*
G02*
X32810000Y35012500I0J152500D01*
G01*
G37*
G36*
G01*
X38620000Y31567500D02*
X38620000Y31212500D01*
G75*
G02*
X38467500Y31060000I-152500J0D01*
G01*
X38162500Y31060000D01*
G75*
G02*
X38010000Y31212500I0J152500D01*
G01*
X38010000Y31567500D01*
G75*
G02*
X38162500Y31720000I152500J0D01*
G01*
X38467500Y31720000D01*
G75*
G02*
X38620000Y31567500I0J-152500D01*
G01*
G37*
G36*
G01*
X39590000Y31567500D02*
X39590000Y31212500D01*
G75*
G02*
X39437500Y31060000I-152500J0D01*
G01*
X39132500Y31060000D01*
G75*
G02*
X38980000Y31212500I0J152500D01*
G01*
X38980000Y31567500D01*
G75*
G02*
X39132500Y31720000I152500J0D01*
G01*
X39437500Y31720000D01*
G75*
G02*
X39590000Y31567500I0J-152500D01*
G01*
G37*
G36*
G01*
X37380000Y33012500D02*
X37380000Y33367500D01*
G75*
G02*
X37532500Y33520000I152500J0D01*
G01*
X37837500Y33520000D01*
G75*
G02*
X37990000Y33367500I0J-152500D01*
G01*
X37990000Y33012500D01*
G75*
G02*
X37837500Y32860000I-152500J0D01*
G01*
X37532500Y32860000D01*
G75*
G02*
X37380000Y33012500I0J152500D01*
G01*
G37*
G36*
G01*
X36410000Y33012500D02*
X36410000Y33367500D01*
G75*
G02*
X36562500Y33520000I152500J0D01*
G01*
X36867500Y33520000D01*
G75*
G02*
X37020000Y33367500I0J-152500D01*
G01*
X37020000Y33012500D01*
G75*
G02*
X36867500Y32860000I-152500J0D01*
G01*
X36562500Y32860000D01*
G75*
G02*
X36410000Y33012500I0J152500D01*
G01*
G37*
G36*
G01*
X35380000Y33012500D02*
X35380000Y33367500D01*
G75*
G02*
X35532500Y33520000I152500J0D01*
G01*
X35837500Y33520000D01*
G75*
G02*
X35990000Y33367500I0J-152500D01*
G01*
X35990000Y33012500D01*
G75*
G02*
X35837500Y32860000I-152500J0D01*
G01*
X35532500Y32860000D01*
G75*
G02*
X35380000Y33012500I0J152500D01*
G01*
G37*
G36*
G01*
X34410000Y33012500D02*
X34410000Y33367500D01*
G75*
G02*
X34562500Y33520000I152500J0D01*
G01*
X34867500Y33520000D01*
G75*
G02*
X35020000Y33367500I0J-152500D01*
G01*
X35020000Y33012500D01*
G75*
G02*
X34867500Y32860000I-152500J0D01*
G01*
X34562500Y32860000D01*
G75*
G02*
X34410000Y33012500I0J152500D01*
G01*
G37*
G36*
G01*
X27180000Y23212500D02*
X27180000Y23567500D01*
G75*
G02*
X27332500Y23720000I152500J0D01*
G01*
X27637500Y23720000D01*
G75*
G02*
X27790000Y23567500I0J-152500D01*
G01*
X27790000Y23212500D01*
G75*
G02*
X27637500Y23060000I-152500J0D01*
G01*
X27332500Y23060000D01*
G75*
G02*
X27180000Y23212500I0J152500D01*
G01*
G37*
G36*
G01*
X26210000Y23212500D02*
X26210000Y23567500D01*
G75*
G02*
X26362500Y23720000I152500J0D01*
G01*
X26667500Y23720000D01*
G75*
G02*
X26820000Y23567500I0J-152500D01*
G01*
X26820000Y23212500D01*
G75*
G02*
X26667500Y23060000I-152500J0D01*
G01*
X26362500Y23060000D01*
G75*
G02*
X26210000Y23212500I0J152500D01*
G01*
G37*
G36*
G01*
X28177500Y29570000D02*
X27822500Y29570000D01*
G75*
G02*
X27670000Y29722500I0J152500D01*
G01*
X27670000Y30027500D01*
G75*
G02*
X27822500Y30180000I152500J0D01*
G01*
X28177500Y30180000D01*
G75*
G02*
X28330000Y30027500I0J-152500D01*
G01*
X28330000Y29722500D01*
G75*
G02*
X28177500Y29570000I-152500J0D01*
G01*
G37*
G36*
G01*
X28177500Y28600000D02*
X27822500Y28600000D01*
G75*
G02*
X27670000Y28752500I0J152500D01*
G01*
X27670000Y29057500D01*
G75*
G02*
X27822500Y29210000I152500J0D01*
G01*
X28177500Y29210000D01*
G75*
G02*
X28330000Y29057500I0J-152500D01*
G01*
X28330000Y28752500D01*
G75*
G02*
X28177500Y28600000I-152500J0D01*
G01*
G37*
G36*
G01*
X27822500Y20010000D02*
X28177500Y20010000D01*
G75*
G02*
X28330000Y19857500I0J-152500D01*
G01*
X28330000Y19552500D01*
G75*
G02*
X28177500Y19400000I-152500J0D01*
G01*
X27822500Y19400000D01*
G75*
G02*
X27670000Y19552500I0J152500D01*
G01*
X27670000Y19857500D01*
G75*
G02*
X27822500Y20010000I152500J0D01*
G01*
G37*
G36*
G01*
X27822500Y20980000D02*
X28177500Y20980000D01*
G75*
G02*
X28330000Y20827500I0J-152500D01*
G01*
X28330000Y20522500D01*
G75*
G02*
X28177500Y20370000I-152500J0D01*
G01*
X27822500Y20370000D01*
G75*
G02*
X27670000Y20522500I0J152500D01*
G01*
X27670000Y20827500D01*
G75*
G02*
X27822500Y20980000I152500J0D01*
G01*
G37*
G36*
G01*
X30722500Y26710000D02*
X31077500Y26710000D01*
G75*
G02*
X31230000Y26557500I0J-152500D01*
G01*
X31230000Y26252500D01*
G75*
G02*
X31077500Y26100000I-152500J0D01*
G01*
X30722500Y26100000D01*
G75*
G02*
X30570000Y26252500I0J152500D01*
G01*
X30570000Y26557500D01*
G75*
G02*
X30722500Y26710000I152500J0D01*
G01*
G37*
G36*
G01*
X30722500Y27680000D02*
X31077500Y27680000D01*
G75*
G02*
X31230000Y27527500I0J-152500D01*
G01*
X31230000Y27222500D01*
G75*
G02*
X31077500Y27070000I-152500J0D01*
G01*
X30722500Y27070000D01*
G75*
G02*
X30570000Y27222500I0J152500D01*
G01*
X30570000Y27527500D01*
G75*
G02*
X30722500Y27680000I152500J0D01*
G01*
G37*
G36*
G01*
X24720000Y22867500D02*
X24720000Y22512500D01*
G75*
G02*
X24567500Y22360000I-152500J0D01*
G01*
X24262500Y22360000D01*
G75*
G02*
X24110000Y22512500I0J152500D01*
G01*
X24110000Y22867500D01*
G75*
G02*
X24262500Y23020000I152500J0D01*
G01*
X24567500Y23020000D01*
G75*
G02*
X24720000Y22867500I0J-152500D01*
G01*
G37*
G36*
G01*
X25690000Y22867500D02*
X25690000Y22512500D01*
G75*
G02*
X25537500Y22360000I-152500J0D01*
G01*
X25232500Y22360000D01*
G75*
G02*
X25080000Y22512500I0J152500D01*
G01*
X25080000Y22867500D01*
G75*
G02*
X25232500Y23020000I152500J0D01*
G01*
X25537500Y23020000D01*
G75*
G02*
X25690000Y22867500I0J-152500D01*
G01*
G37*
G36*
G01*
X29180000Y22212500D02*
X29180000Y22567500D01*
G75*
G02*
X29332500Y22720000I152500J0D01*
G01*
X29637500Y22720000D01*
G75*
G02*
X29790000Y22567500I0J-152500D01*
G01*
X29790000Y22212500D01*
G75*
G02*
X29637500Y22060000I-152500J0D01*
G01*
X29332500Y22060000D01*
G75*
G02*
X29180000Y22212500I0J152500D01*
G01*
G37*
G36*
G01*
X28210000Y22212500D02*
X28210000Y22567500D01*
G75*
G02*
X28362500Y22720000I152500J0D01*
G01*
X28667500Y22720000D01*
G75*
G02*
X28820000Y22567500I0J-152500D01*
G01*
X28820000Y22212500D01*
G75*
G02*
X28667500Y22060000I-152500J0D01*
G01*
X28362500Y22060000D01*
G75*
G02*
X28210000Y22212500I0J152500D01*
G01*
G37*
G36*
G01*
X27180000Y24912500D02*
X27180000Y25267500D01*
G75*
G02*
X27332500Y25420000I152500J0D01*
G01*
X27637500Y25420000D01*
G75*
G02*
X27790000Y25267500I0J-152500D01*
G01*
X27790000Y24912500D01*
G75*
G02*
X27637500Y24760000I-152500J0D01*
G01*
X27332500Y24760000D01*
G75*
G02*
X27180000Y24912500I0J152500D01*
G01*
G37*
G36*
G01*
X26210000Y24912500D02*
X26210000Y25267500D01*
G75*
G02*
X26362500Y25420000I152500J0D01*
G01*
X26667500Y25420000D01*
G75*
G02*
X26820000Y25267500I0J-152500D01*
G01*
X26820000Y24912500D01*
G75*
G02*
X26667500Y24760000I-152500J0D01*
G01*
X26362500Y24760000D01*
G75*
G02*
X26210000Y24912500I0J152500D01*
G01*
G37*
G36*
G01*
X31280000Y31112500D02*
X31280000Y31467500D01*
G75*
G02*
X31432500Y31620000I152500J0D01*
G01*
X31737500Y31620000D01*
G75*
G02*
X31890000Y31467500I0J-152500D01*
G01*
X31890000Y31112500D01*
G75*
G02*
X31737500Y30960000I-152500J0D01*
G01*
X31432500Y30960000D01*
G75*
G02*
X31280000Y31112500I0J152500D01*
G01*
G37*
G36*
G01*
X30310000Y31112500D02*
X30310000Y31467500D01*
G75*
G02*
X30462500Y31620000I152500J0D01*
G01*
X30767500Y31620000D01*
G75*
G02*
X30920000Y31467500I0J-152500D01*
G01*
X30920000Y31112500D01*
G75*
G02*
X30767500Y30960000I-152500J0D01*
G01*
X30462500Y30960000D01*
G75*
G02*
X30310000Y31112500I0J152500D01*
G01*
G37*
G36*
G01*
X29320000Y25567500D02*
X29320000Y25212500D01*
G75*
G02*
X29167500Y25060000I-152500J0D01*
G01*
X28862500Y25060000D01*
G75*
G02*
X28710000Y25212500I0J152500D01*
G01*
X28710000Y25567500D01*
G75*
G02*
X28862500Y25720000I152500J0D01*
G01*
X29167500Y25720000D01*
G75*
G02*
X29320000Y25567500I0J-152500D01*
G01*
G37*
G36*
G01*
X30290000Y25567500D02*
X30290000Y25212500D01*
G75*
G02*
X30137500Y25060000I-152500J0D01*
G01*
X29832500Y25060000D01*
G75*
G02*
X29680000Y25212500I0J152500D01*
G01*
X29680000Y25567500D01*
G75*
G02*
X29832500Y25720000I152500J0D01*
G01*
X30137500Y25720000D01*
G75*
G02*
X30290000Y25567500I0J-152500D01*
G01*
G37*
G36*
G01*
X33822500Y20210000D02*
X34177500Y20210000D01*
G75*
G02*
X34330000Y20057500I0J-152500D01*
G01*
X34330000Y19752500D01*
G75*
G02*
X34177500Y19600000I-152500J0D01*
G01*
X33822500Y19600000D01*
G75*
G02*
X33670000Y19752500I0J152500D01*
G01*
X33670000Y20057500D01*
G75*
G02*
X33822500Y20210000I152500J0D01*
G01*
G37*
G36*
G01*
X33822500Y21180000D02*
X34177500Y21180000D01*
G75*
G02*
X34330000Y21027500I0J-152500D01*
G01*
X34330000Y20722500D01*
G75*
G02*
X34177500Y20570000I-152500J0D01*
G01*
X33822500Y20570000D01*
G75*
G02*
X33670000Y20722500I0J152500D01*
G01*
X33670000Y21027500D01*
G75*
G02*
X33822500Y21180000I152500J0D01*
G01*
G37*
G36*
G01*
X40677500Y22570000D02*
X40322500Y22570000D01*
G75*
G02*
X40170000Y22722500I0J152500D01*
G01*
X40170000Y23027500D01*
G75*
G02*
X40322500Y23180000I152500J0D01*
G01*
X40677500Y23180000D01*
G75*
G02*
X40830000Y23027500I0J-152500D01*
G01*
X40830000Y22722500D01*
G75*
G02*
X40677500Y22570000I-152500J0D01*
G01*
G37*
G36*
G01*
X40677500Y21600000D02*
X40322500Y21600000D01*
G75*
G02*
X40170000Y21752500I0J152500D01*
G01*
X40170000Y22057500D01*
G75*
G02*
X40322500Y22210000I152500J0D01*
G01*
X40677500Y22210000D01*
G75*
G02*
X40830000Y22057500I0J-152500D01*
G01*
X40830000Y21752500D01*
G75*
G02*
X40677500Y21600000I-152500J0D01*
G01*
G37*
G36*
G01*
X39280000Y17212500D02*
X39280000Y17567500D01*
G75*
G02*
X39432500Y17720000I152500J0D01*
G01*
X39737500Y17720000D01*
G75*
G02*
X39890000Y17567500I0J-152500D01*
G01*
X39890000Y17212500D01*
G75*
G02*
X39737500Y17060000I-152500J0D01*
G01*
X39432500Y17060000D01*
G75*
G02*
X39280000Y17212500I0J152500D01*
G01*
G37*
G36*
G01*
X38310000Y17212500D02*
X38310000Y17567500D01*
G75*
G02*
X38462500Y17720000I152500J0D01*
G01*
X38767500Y17720000D01*
G75*
G02*
X38920000Y17567500I0J-152500D01*
G01*
X38920000Y17212500D01*
G75*
G02*
X38767500Y17060000I-152500J0D01*
G01*
X38462500Y17060000D01*
G75*
G02*
X38310000Y17212500I0J152500D01*
G01*
G37*
G36*
G01*
X33177500Y26470000D02*
X32822500Y26470000D01*
G75*
G02*
X32670000Y26622500I0J152500D01*
G01*
X32670000Y26927500D01*
G75*
G02*
X32822500Y27080000I152500J0D01*
G01*
X33177500Y27080000D01*
G75*
G02*
X33330000Y26927500I0J-152500D01*
G01*
X33330000Y26622500D01*
G75*
G02*
X33177500Y26470000I-152500J0D01*
G01*
G37*
G36*
G01*
X33177500Y25500000D02*
X32822500Y25500000D01*
G75*
G02*
X32670000Y25652500I0J152500D01*
G01*
X32670000Y25957500D01*
G75*
G02*
X32822500Y26110000I152500J0D01*
G01*
X33177500Y26110000D01*
G75*
G02*
X33330000Y25957500I0J-152500D01*
G01*
X33330000Y25652500D01*
G75*
G02*
X33177500Y25500000I-152500J0D01*
G01*
G37*
G36*
G01*
X37520000Y20467500D02*
X37520000Y20112500D01*
G75*
G02*
X37367500Y19960000I-152500J0D01*
G01*
X37062500Y19960000D01*
G75*
G02*
X36910000Y20112500I0J152500D01*
G01*
X36910000Y20467500D01*
G75*
G02*
X37062500Y20620000I152500J0D01*
G01*
X37367500Y20620000D01*
G75*
G02*
X37520000Y20467500I0J-152500D01*
G01*
G37*
G36*
G01*
X38490000Y20467500D02*
X38490000Y20112500D01*
G75*
G02*
X38337500Y19960000I-152500J0D01*
G01*
X38032500Y19960000D01*
G75*
G02*
X37880000Y20112500I0J152500D01*
G01*
X37880000Y20467500D01*
G75*
G02*
X38032500Y20620000I152500J0D01*
G01*
X38337500Y20620000D01*
G75*
G02*
X38490000Y20467500I0J-152500D01*
G01*
G37*
G36*
G01*
X36222500Y21710000D02*
X36577500Y21710000D01*
G75*
G02*
X36730000Y21557500I0J-152500D01*
G01*
X36730000Y21252500D01*
G75*
G02*
X36577500Y21100000I-152500J0D01*
G01*
X36222500Y21100000D01*
G75*
G02*
X36070000Y21252500I0J152500D01*
G01*
X36070000Y21557500D01*
G75*
G02*
X36222500Y21710000I152500J0D01*
G01*
G37*
G36*
G01*
X36222500Y22680000D02*
X36577500Y22680000D01*
G75*
G02*
X36730000Y22527500I0J-152500D01*
G01*
X36730000Y22222500D01*
G75*
G02*
X36577500Y22070000I-152500J0D01*
G01*
X36222500Y22070000D01*
G75*
G02*
X36070000Y22222500I0J152500D01*
G01*
X36070000Y22527500D01*
G75*
G02*
X36222500Y22680000I152500J0D01*
G01*
G37*
G36*
G01*
X26320000Y29367500D02*
X26320000Y29012500D01*
G75*
G02*
X26167500Y28860000I-152500J0D01*
G01*
X25862500Y28860000D01*
G75*
G02*
X25710000Y29012500I0J152500D01*
G01*
X25710000Y29367500D01*
G75*
G02*
X25862500Y29520000I152500J0D01*
G01*
X26167500Y29520000D01*
G75*
G02*
X26320000Y29367500I0J-152500D01*
G01*
G37*
G36*
G01*
X27290000Y29367500D02*
X27290000Y29012500D01*
G75*
G02*
X27137500Y28860000I-152500J0D01*
G01*
X26832500Y28860000D01*
G75*
G02*
X26680000Y29012500I0J152500D01*
G01*
X26680000Y29367500D01*
G75*
G02*
X26832500Y29520000I152500J0D01*
G01*
X27137500Y29520000D01*
G75*
G02*
X27290000Y29367500I0J-152500D01*
G01*
G37*
G36*
G01*
X24620000Y30667500D02*
X24620000Y30312500D01*
G75*
G02*
X24467500Y30160000I-152500J0D01*
G01*
X24162500Y30160000D01*
G75*
G02*
X24010000Y30312500I0J152500D01*
G01*
X24010000Y30667500D01*
G75*
G02*
X24162500Y30820000I152500J0D01*
G01*
X24467500Y30820000D01*
G75*
G02*
X24620000Y30667500I0J-152500D01*
G01*
G37*
G36*
G01*
X25590000Y30667500D02*
X25590000Y30312500D01*
G75*
G02*
X25437500Y30160000I-152500J0D01*
G01*
X25132500Y30160000D01*
G75*
G02*
X24980000Y30312500I0J152500D01*
G01*
X24980000Y30667500D01*
G75*
G02*
X25132500Y30820000I152500J0D01*
G01*
X25437500Y30820000D01*
G75*
G02*
X25590000Y30667500I0J-152500D01*
G01*
G37*
G36*
G01*
X27820000Y26567500D02*
X27820000Y26212500D01*
G75*
G02*
X27667500Y26060000I-152500J0D01*
G01*
X27362500Y26060000D01*
G75*
G02*
X27210000Y26212500I0J152500D01*
G01*
X27210000Y26567500D01*
G75*
G02*
X27362500Y26720000I152500J0D01*
G01*
X27667500Y26720000D01*
G75*
G02*
X27820000Y26567500I0J-152500D01*
G01*
G37*
G36*
G01*
X28790000Y26567500D02*
X28790000Y26212500D01*
G75*
G02*
X28637500Y26060000I-152500J0D01*
G01*
X28332500Y26060000D01*
G75*
G02*
X28180000Y26212500I0J152500D01*
G01*
X28180000Y26567500D01*
G75*
G02*
X28332500Y26720000I152500J0D01*
G01*
X28637500Y26720000D01*
G75*
G02*
X28790000Y26567500I0J-152500D01*
G01*
G37*
G36*
G01*
X27480000Y31012500D02*
X27480000Y31367500D01*
G75*
G02*
X27632500Y31520000I152500J0D01*
G01*
X27937500Y31520000D01*
G75*
G02*
X28090000Y31367500I0J-152500D01*
G01*
X28090000Y31012500D01*
G75*
G02*
X27937500Y30860000I-152500J0D01*
G01*
X27632500Y30860000D01*
G75*
G02*
X27480000Y31012500I0J152500D01*
G01*
G37*
G36*
G01*
X26510000Y31012500D02*
X26510000Y31367500D01*
G75*
G02*
X26662500Y31520000I152500J0D01*
G01*
X26967500Y31520000D01*
G75*
G02*
X27120000Y31367500I0J-152500D01*
G01*
X27120000Y31012500D01*
G75*
G02*
X26967500Y30860000I-152500J0D01*
G01*
X26662500Y30860000D01*
G75*
G02*
X26510000Y31012500I0J152500D01*
G01*
G37*
G36*
G01*
X29820000Y24567500D02*
X29820000Y24212500D01*
G75*
G02*
X29667500Y24060000I-152500J0D01*
G01*
X29362500Y24060000D01*
G75*
G02*
X29210000Y24212500I0J152500D01*
G01*
X29210000Y24567500D01*
G75*
G02*
X29362500Y24720000I152500J0D01*
G01*
X29667500Y24720000D01*
G75*
G02*
X29820000Y24567500I0J-152500D01*
G01*
G37*
G36*
G01*
X30790000Y24567500D02*
X30790000Y24212500D01*
G75*
G02*
X30637500Y24060000I-152500J0D01*
G01*
X30332500Y24060000D01*
G75*
G02*
X30180000Y24212500I0J152500D01*
G01*
X30180000Y24567500D01*
G75*
G02*
X30332500Y24720000I152500J0D01*
G01*
X30637500Y24720000D01*
G75*
G02*
X30790000Y24567500I0J-152500D01*
G01*
G37*
G36*
G01*
X24620000Y31667500D02*
X24620000Y31312500D01*
G75*
G02*
X24467500Y31160000I-152500J0D01*
G01*
X24162500Y31160000D01*
G75*
G02*
X24010000Y31312500I0J152500D01*
G01*
X24010000Y31667500D01*
G75*
G02*
X24162500Y31820000I152500J0D01*
G01*
X24467500Y31820000D01*
G75*
G02*
X24620000Y31667500I0J-152500D01*
G01*
G37*
G36*
G01*
X25590000Y31667500D02*
X25590000Y31312500D01*
G75*
G02*
X25437500Y31160000I-152500J0D01*
G01*
X25132500Y31160000D01*
G75*
G02*
X24980000Y31312500I0J152500D01*
G01*
X24980000Y31667500D01*
G75*
G02*
X25132500Y31820000I152500J0D01*
G01*
X25437500Y31820000D01*
G75*
G02*
X25590000Y31667500I0J-152500D01*
G01*
G37*
G36*
G01*
X31680000Y25212500D02*
X31680000Y25567500D01*
G75*
G02*
X31832500Y25720000I152500J0D01*
G01*
X32137500Y25720000D01*
G75*
G02*
X32290000Y25567500I0J-152500D01*
G01*
X32290000Y25212500D01*
G75*
G02*
X32137500Y25060000I-152500J0D01*
G01*
X31832500Y25060000D01*
G75*
G02*
X31680000Y25212500I0J152500D01*
G01*
G37*
G36*
G01*
X30710000Y25212500D02*
X30710000Y25567500D01*
G75*
G02*
X30862500Y25720000I152500J0D01*
G01*
X31167500Y25720000D01*
G75*
G02*
X31320000Y25567500I0J-152500D01*
G01*
X31320000Y25212500D01*
G75*
G02*
X31167500Y25060000I-152500J0D01*
G01*
X30862500Y25060000D01*
G75*
G02*
X30710000Y25212500I0J152500D01*
G01*
G37*
G36*
G01*
X31380000Y21212500D02*
X31380000Y21567500D01*
G75*
G02*
X31532500Y21720000I152500J0D01*
G01*
X31837500Y21720000D01*
G75*
G02*
X31990000Y21567500I0J-152500D01*
G01*
X31990000Y21212500D01*
G75*
G02*
X31837500Y21060000I-152500J0D01*
G01*
X31532500Y21060000D01*
G75*
G02*
X31380000Y21212500I0J152500D01*
G01*
G37*
G36*
G01*
X30410000Y21212500D02*
X30410000Y21567500D01*
G75*
G02*
X30562500Y21720000I152500J0D01*
G01*
X30867500Y21720000D01*
G75*
G02*
X31020000Y21567500I0J-152500D01*
G01*
X31020000Y21212500D01*
G75*
G02*
X30867500Y21060000I-152500J0D01*
G01*
X30562500Y21060000D01*
G75*
G02*
X30410000Y21212500I0J152500D01*
G01*
G37*
G36*
G01*
X31380000Y23112500D02*
X31380000Y23467500D01*
G75*
G02*
X31532500Y23620000I152500J0D01*
G01*
X31837500Y23620000D01*
G75*
G02*
X31990000Y23467500I0J-152500D01*
G01*
X31990000Y23112500D01*
G75*
G02*
X31837500Y22960000I-152500J0D01*
G01*
X31532500Y22960000D01*
G75*
G02*
X31380000Y23112500I0J152500D01*
G01*
G37*
G36*
G01*
X30410000Y23112500D02*
X30410000Y23467500D01*
G75*
G02*
X30562500Y23620000I152500J0D01*
G01*
X30867500Y23620000D01*
G75*
G02*
X31020000Y23467500I0J-152500D01*
G01*
X31020000Y23112500D01*
G75*
G02*
X30867500Y22960000I-152500J0D01*
G01*
X30562500Y22960000D01*
G75*
G02*
X30410000Y23112500I0J152500D01*
G01*
G37*
G36*
G01*
X24620000Y26767500D02*
X24620000Y26412500D01*
G75*
G02*
X24467500Y26260000I-152500J0D01*
G01*
X24162500Y26260000D01*
G75*
G02*
X24010000Y26412500I0J152500D01*
G01*
X24010000Y26767500D01*
G75*
G02*
X24162500Y26920000I152500J0D01*
G01*
X24467500Y26920000D01*
G75*
G02*
X24620000Y26767500I0J-152500D01*
G01*
G37*
G36*
G01*
X25590000Y26767500D02*
X25590000Y26412500D01*
G75*
G02*
X25437500Y26260000I-152500J0D01*
G01*
X25132500Y26260000D01*
G75*
G02*
X24980000Y26412500I0J152500D01*
G01*
X24980000Y26767500D01*
G75*
G02*
X25132500Y26920000I152500J0D01*
G01*
X25437500Y26920000D01*
G75*
G02*
X25590000Y26767500I0J-152500D01*
G01*
G37*
G36*
G01*
X24620000Y25767500D02*
X24620000Y25412500D01*
G75*
G02*
X24467500Y25260000I-152500J0D01*
G01*
X24162500Y25260000D01*
G75*
G02*
X24010000Y25412500I0J152500D01*
G01*
X24010000Y25767500D01*
G75*
G02*
X24162500Y25920000I152500J0D01*
G01*
X24467500Y25920000D01*
G75*
G02*
X24620000Y25767500I0J-152500D01*
G01*
G37*
G36*
G01*
X25590000Y25767500D02*
X25590000Y25412500D01*
G75*
G02*
X25437500Y25260000I-152500J0D01*
G01*
X25132500Y25260000D01*
G75*
G02*
X24980000Y25412500I0J152500D01*
G01*
X24980000Y25767500D01*
G75*
G02*
X25132500Y25920000I152500J0D01*
G01*
X25437500Y25920000D01*
G75*
G02*
X25590000Y25767500I0J-152500D01*
G01*
G37*
D21*
X11800000Y37390000D03*
D22*
X10550000Y35390000D03*
X11050000Y35390000D03*
X11550000Y35390000D03*
X12050000Y35390000D03*
X12550000Y35390000D03*
X13050000Y35390000D03*
D23*
X13800000Y36140000D03*
X13800000Y36640000D03*
X13800000Y37140000D03*
X13800000Y37640000D03*
X13800000Y38140000D03*
X13800000Y38640000D03*
D22*
X13050000Y39390000D03*
X12550000Y39390000D03*
X12050000Y39390000D03*
X11550000Y39390000D03*
X11050000Y39390000D03*
X10550000Y39390000D03*
D23*
X9800000Y38640000D03*
X9800000Y38140000D03*
X9800000Y37640000D03*
X9800000Y37140000D03*
X9800000Y36640000D03*
X9800000Y36140000D03*
D19*
X14460000Y6330000D03*
X17000000Y6330000D03*
X14460000Y3790000D03*
X17000000Y3790000D03*
X14460000Y1250000D03*
D20*
X17000000Y1250000D03*
D24*
X46230000Y15990000D03*
G36*
G01*
X47311599Y16776000D02*
X47098399Y16776000D01*
G75*
G02*
X46991799Y16882600I0J106600D01*
G01*
X46991799Y17197400D01*
G75*
G02*
X47098399Y17304000I106600J0D01*
G01*
X47311599Y17304000D01*
G75*
G02*
X47418199Y17197400I0J-106600D01*
G01*
X47418199Y16882600D01*
G75*
G02*
X47311599Y16776000I-106600J0D01*
G01*
G37*
G36*
G01*
X46661601Y16776000D02*
X46448401Y16776000D01*
G75*
G02*
X46341801Y16882600I0J106600D01*
G01*
X46341801Y17197400D01*
G75*
G02*
X46448401Y17304000I106600J0D01*
G01*
X46661601Y17304000D01*
G75*
G02*
X46768201Y17197400I0J-106600D01*
G01*
X46768201Y16882600D01*
G75*
G02*
X46661601Y16776000I-106600J0D01*
G01*
G37*
G36*
G01*
X46011599Y16776000D02*
X45798399Y16776000D01*
G75*
G02*
X45691799Y16882600I0J106600D01*
G01*
X45691799Y17197400D01*
G75*
G02*
X45798399Y17304000I106600J0D01*
G01*
X46011599Y17304000D01*
G75*
G02*
X46118199Y17197400I0J-106600D01*
G01*
X46118199Y16882600D01*
G75*
G02*
X46011599Y16776000I-106600J0D01*
G01*
G37*
G36*
G01*
X45361601Y16776000D02*
X45148401Y16776000D01*
G75*
G02*
X45041801Y16882600I0J106600D01*
G01*
X45041801Y17197400D01*
G75*
G02*
X45148401Y17304000I106600J0D01*
G01*
X45361601Y17304000D01*
G75*
G02*
X45468201Y17197400I0J-106600D01*
G01*
X45468201Y16882600D01*
G75*
G02*
X45361601Y16776000I-106600J0D01*
G01*
G37*
G36*
G01*
X45361601Y14676000D02*
X45148401Y14676000D01*
G75*
G02*
X45041801Y14782600I0J106600D01*
G01*
X45041801Y15097400D01*
G75*
G02*
X45148401Y15204000I106600J0D01*
G01*
X45361601Y15204000D01*
G75*
G02*
X45468201Y15097400I0J-106600D01*
G01*
X45468201Y14782600D01*
G75*
G02*
X45361601Y14676000I-106600J0D01*
G01*
G37*
G36*
G01*
X46011599Y14676000D02*
X45798399Y14676000D01*
G75*
G02*
X45691799Y14782600I0J106600D01*
G01*
X45691799Y15097400D01*
G75*
G02*
X45798399Y15204000I106600J0D01*
G01*
X46011599Y15204000D01*
G75*
G02*
X46118199Y15097400I0J-106600D01*
G01*
X46118199Y14782600D01*
G75*
G02*
X46011599Y14676000I-106600J0D01*
G01*
G37*
G36*
G01*
X46661601Y14676000D02*
X46448401Y14676000D01*
G75*
G02*
X46341801Y14782600I0J106600D01*
G01*
X46341801Y15097400D01*
G75*
G02*
X46448401Y15204000I106600J0D01*
G01*
X46661601Y15204000D01*
G75*
G02*
X46768201Y15097400I0J-106600D01*
G01*
X46768201Y14782600D01*
G75*
G02*
X46661601Y14676000I-106600J0D01*
G01*
G37*
G36*
G01*
X47311599Y14676000D02*
X47098399Y14676000D01*
G75*
G02*
X46991799Y14782600I0J106600D01*
G01*
X46991799Y15097400D01*
G75*
G02*
X47098399Y15204000I106600J0D01*
G01*
X47311599Y15204000D01*
G75*
G02*
X47418199Y15097400I0J-106600D01*
G01*
X47418199Y14782600D01*
G75*
G02*
X47311599Y14676000I-106600J0D01*
G01*
G37*
X13750000Y15990000D03*
G36*
G01*
X12668401Y15204000D02*
X12881601Y15204000D01*
G75*
G02*
X12988201Y15097400I0J-106600D01*
G01*
X12988201Y14782600D01*
G75*
G02*
X12881601Y14676000I-106600J0D01*
G01*
X12668401Y14676000D01*
G75*
G02*
X12561801Y14782600I0J106600D01*
G01*
X12561801Y15097400D01*
G75*
G02*
X12668401Y15204000I106600J0D01*
G01*
G37*
G36*
G01*
X13318399Y15204000D02*
X13531599Y15204000D01*
G75*
G02*
X13638199Y15097400I0J-106600D01*
G01*
X13638199Y14782600D01*
G75*
G02*
X13531599Y14676000I-106600J0D01*
G01*
X13318399Y14676000D01*
G75*
G02*
X13211799Y14782600I0J106600D01*
G01*
X13211799Y15097400D01*
G75*
G02*
X13318399Y15204000I106600J0D01*
G01*
G37*
G36*
G01*
X13968401Y15204000D02*
X14181601Y15204000D01*
G75*
G02*
X14288201Y15097400I0J-106600D01*
G01*
X14288201Y14782600D01*
G75*
G02*
X14181601Y14676000I-106600J0D01*
G01*
X13968401Y14676000D01*
G75*
G02*
X13861801Y14782600I0J106600D01*
G01*
X13861801Y15097400D01*
G75*
G02*
X13968401Y15204000I106600J0D01*
G01*
G37*
G36*
G01*
X14618399Y15204000D02*
X14831599Y15204000D01*
G75*
G02*
X14938199Y15097400I0J-106600D01*
G01*
X14938199Y14782600D01*
G75*
G02*
X14831599Y14676000I-106600J0D01*
G01*
X14618399Y14676000D01*
G75*
G02*
X14511799Y14782600I0J106600D01*
G01*
X14511799Y15097400D01*
G75*
G02*
X14618399Y15204000I106600J0D01*
G01*
G37*
G36*
G01*
X14618399Y17304000D02*
X14831599Y17304000D01*
G75*
G02*
X14938199Y17197400I0J-106600D01*
G01*
X14938199Y16882600D01*
G75*
G02*
X14831599Y16776000I-106600J0D01*
G01*
X14618399Y16776000D01*
G75*
G02*
X14511799Y16882600I0J106600D01*
G01*
X14511799Y17197400D01*
G75*
G02*
X14618399Y17304000I106600J0D01*
G01*
G37*
G36*
G01*
X13968401Y17304000D02*
X14181601Y17304000D01*
G75*
G02*
X14288201Y17197400I0J-106600D01*
G01*
X14288201Y16882600D01*
G75*
G02*
X14181601Y16776000I-106600J0D01*
G01*
X13968401Y16776000D01*
G75*
G02*
X13861801Y16882600I0J106600D01*
G01*
X13861801Y17197400D01*
G75*
G02*
X13968401Y17304000I106600J0D01*
G01*
G37*
G36*
G01*
X13318399Y17304000D02*
X13531599Y17304000D01*
G75*
G02*
X13638199Y17197400I0J-106600D01*
G01*
X13638199Y16882600D01*
G75*
G02*
X13531599Y16776000I-106600J0D01*
G01*
X13318399Y16776000D01*
G75*
G02*
X13211799Y16882600I0J106600D01*
G01*
X13211799Y17197400D01*
G75*
G02*
X13318399Y17304000I106600J0D01*
G01*
G37*
G36*
G01*
X12668401Y17304000D02*
X12881601Y17304000D01*
G75*
G02*
X12988201Y17197400I0J-106600D01*
G01*
X12988201Y16882600D01*
G75*
G02*
X12881601Y16776000I-106600J0D01*
G01*
X12668401Y16776000D01*
G75*
G02*
X12561801Y16882600I0J106600D01*
G01*
X12561801Y17197400D01*
G75*
G02*
X12668401Y17304000I106600J0D01*
G01*
G37*
X46250000Y25390000D03*
G36*
G01*
X47331599Y26176000D02*
X47118399Y26176000D01*
G75*
G02*
X47011799Y26282600I0J106600D01*
G01*
X47011799Y26597400D01*
G75*
G02*
X47118399Y26704000I106600J0D01*
G01*
X47331599Y26704000D01*
G75*
G02*
X47438199Y26597400I0J-106600D01*
G01*
X47438199Y26282600D01*
G75*
G02*
X47331599Y26176000I-106600J0D01*
G01*
G37*
G36*
G01*
X46681601Y26176000D02*
X46468401Y26176000D01*
G75*
G02*
X46361801Y26282600I0J106600D01*
G01*
X46361801Y26597400D01*
G75*
G02*
X46468401Y26704000I106600J0D01*
G01*
X46681601Y26704000D01*
G75*
G02*
X46788201Y26597400I0J-106600D01*
G01*
X46788201Y26282600D01*
G75*
G02*
X46681601Y26176000I-106600J0D01*
G01*
G37*
G36*
G01*
X46031599Y26176000D02*
X45818399Y26176000D01*
G75*
G02*
X45711799Y26282600I0J106600D01*
G01*
X45711799Y26597400D01*
G75*
G02*
X45818399Y26704000I106600J0D01*
G01*
X46031599Y26704000D01*
G75*
G02*
X46138199Y26597400I0J-106600D01*
G01*
X46138199Y26282600D01*
G75*
G02*
X46031599Y26176000I-106600J0D01*
G01*
G37*
G36*
G01*
X45381601Y26176000D02*
X45168401Y26176000D01*
G75*
G02*
X45061801Y26282600I0J106600D01*
G01*
X45061801Y26597400D01*
G75*
G02*
X45168401Y26704000I106600J0D01*
G01*
X45381601Y26704000D01*
G75*
G02*
X45488201Y26597400I0J-106600D01*
G01*
X45488201Y26282600D01*
G75*
G02*
X45381601Y26176000I-106600J0D01*
G01*
G37*
G36*
G01*
X45381601Y24076000D02*
X45168401Y24076000D01*
G75*
G02*
X45061801Y24182600I0J106600D01*
G01*
X45061801Y24497400D01*
G75*
G02*
X45168401Y24604000I106600J0D01*
G01*
X45381601Y24604000D01*
G75*
G02*
X45488201Y24497400I0J-106600D01*
G01*
X45488201Y24182600D01*
G75*
G02*
X45381601Y24076000I-106600J0D01*
G01*
G37*
G36*
G01*
X46031599Y24076000D02*
X45818399Y24076000D01*
G75*
G02*
X45711799Y24182600I0J106600D01*
G01*
X45711799Y24497400D01*
G75*
G02*
X45818399Y24604000I106600J0D01*
G01*
X46031599Y24604000D01*
G75*
G02*
X46138199Y24497400I0J-106600D01*
G01*
X46138199Y24182600D01*
G75*
G02*
X46031599Y24076000I-106600J0D01*
G01*
G37*
G36*
G01*
X46681601Y24076000D02*
X46468401Y24076000D01*
G75*
G02*
X46361801Y24182600I0J106600D01*
G01*
X46361801Y24497400D01*
G75*
G02*
X46468401Y24604000I106600J0D01*
G01*
X46681601Y24604000D01*
G75*
G02*
X46788201Y24497400I0J-106600D01*
G01*
X46788201Y24182600D01*
G75*
G02*
X46681601Y24076000I-106600J0D01*
G01*
G37*
G36*
G01*
X47331599Y24076000D02*
X47118399Y24076000D01*
G75*
G02*
X47011799Y24182600I0J106600D01*
G01*
X47011799Y24497400D01*
G75*
G02*
X47118399Y24604000I106600J0D01*
G01*
X47331599Y24604000D01*
G75*
G02*
X47438199Y24497400I0J-106600D01*
G01*
X47438199Y24182600D01*
G75*
G02*
X47331599Y24076000I-106600J0D01*
G01*
G37*
X46230000Y34790000D03*
G36*
G01*
X47311599Y35576000D02*
X47098399Y35576000D01*
G75*
G02*
X46991799Y35682600I0J106600D01*
G01*
X46991799Y35997400D01*
G75*
G02*
X47098399Y36104000I106600J0D01*
G01*
X47311599Y36104000D01*
G75*
G02*
X47418199Y35997400I0J-106600D01*
G01*
X47418199Y35682600D01*
G75*
G02*
X47311599Y35576000I-106600J0D01*
G01*
G37*
G36*
G01*
X46661601Y35576000D02*
X46448401Y35576000D01*
G75*
G02*
X46341801Y35682600I0J106600D01*
G01*
X46341801Y35997400D01*
G75*
G02*
X46448401Y36104000I106600J0D01*
G01*
X46661601Y36104000D01*
G75*
G02*
X46768201Y35997400I0J-106600D01*
G01*
X46768201Y35682600D01*
G75*
G02*
X46661601Y35576000I-106600J0D01*
G01*
G37*
G36*
G01*
X46011599Y35576000D02*
X45798399Y35576000D01*
G75*
G02*
X45691799Y35682600I0J106600D01*
G01*
X45691799Y35997400D01*
G75*
G02*
X45798399Y36104000I106600J0D01*
G01*
X46011599Y36104000D01*
G75*
G02*
X46118199Y35997400I0J-106600D01*
G01*
X46118199Y35682600D01*
G75*
G02*
X46011599Y35576000I-106600J0D01*
G01*
G37*
G36*
G01*
X45361601Y35576000D02*
X45148401Y35576000D01*
G75*
G02*
X45041801Y35682600I0J106600D01*
G01*
X45041801Y35997400D01*
G75*
G02*
X45148401Y36104000I106600J0D01*
G01*
X45361601Y36104000D01*
G75*
G02*
X45468201Y35997400I0J-106600D01*
G01*
X45468201Y35682600D01*
G75*
G02*
X45361601Y35576000I-106600J0D01*
G01*
G37*
G36*
G01*
X45361601Y33476000D02*
X45148401Y33476000D01*
G75*
G02*
X45041801Y33582600I0J106600D01*
G01*
X45041801Y33897400D01*
G75*
G02*
X45148401Y34004000I106600J0D01*
G01*
X45361601Y34004000D01*
G75*
G02*
X45468201Y33897400I0J-106600D01*
G01*
X45468201Y33582600D01*
G75*
G02*
X45361601Y33476000I-106600J0D01*
G01*
G37*
G36*
G01*
X46011599Y33476000D02*
X45798399Y33476000D01*
G75*
G02*
X45691799Y33582600I0J106600D01*
G01*
X45691799Y33897400D01*
G75*
G02*
X45798399Y34004000I106600J0D01*
G01*
X46011599Y34004000D01*
G75*
G02*
X46118199Y33897400I0J-106600D01*
G01*
X46118199Y33582600D01*
G75*
G02*
X46011599Y33476000I-106600J0D01*
G01*
G37*
G36*
G01*
X46661601Y33476000D02*
X46448401Y33476000D01*
G75*
G02*
X46341801Y33582600I0J106600D01*
G01*
X46341801Y33897400D01*
G75*
G02*
X46448401Y34004000I106600J0D01*
G01*
X46661601Y34004000D01*
G75*
G02*
X46768201Y33897400I0J-106600D01*
G01*
X46768201Y33582600D01*
G75*
G02*
X46661601Y33476000I-106600J0D01*
G01*
G37*
G36*
G01*
X47311599Y33476000D02*
X47098399Y33476000D01*
G75*
G02*
X46991799Y33582600I0J106600D01*
G01*
X46991799Y33897400D01*
G75*
G02*
X47098399Y34004000I106600J0D01*
G01*
X47311599Y34004000D01*
G75*
G02*
X47418199Y33897400I0J-106600D01*
G01*
X47418199Y33582600D01*
G75*
G02*
X47311599Y33476000I-106600J0D01*
G01*
G37*
G36*
G01*
X48977500Y16170000D02*
X48622500Y16170000D01*
G75*
G02*
X48470000Y16322500I0J152500D01*
G01*
X48470000Y16627500D01*
G75*
G02*
X48622500Y16780000I152500J0D01*
G01*
X48977500Y16780000D01*
G75*
G02*
X49130000Y16627500I0J-152500D01*
G01*
X49130000Y16322500D01*
G75*
G02*
X48977500Y16170000I-152500J0D01*
G01*
G37*
G36*
G01*
X48977500Y15200000D02*
X48622500Y15200000D01*
G75*
G02*
X48470000Y15352500I0J152500D01*
G01*
X48470000Y15657500D01*
G75*
G02*
X48622500Y15810000I152500J0D01*
G01*
X48977500Y15810000D01*
G75*
G02*
X49130000Y15657500I0J-152500D01*
G01*
X49130000Y15352500D01*
G75*
G02*
X48977500Y15200000I-152500J0D01*
G01*
G37*
G36*
G01*
X47165000Y12359000D02*
X47165000Y13621000D01*
G75*
G02*
X47419000Y13875000I254000J0D01*
G01*
X48181000Y13875000D01*
G75*
G02*
X48435000Y13621000I0J-254000D01*
G01*
X48435000Y12359000D01*
G75*
G02*
X48181000Y12105000I-254000J0D01*
G01*
X47419000Y12105000D01*
G75*
G02*
X47165000Y12359000I0J254000D01*
G01*
G37*
G36*
G01*
X44365000Y12359000D02*
X44365000Y13621000D01*
G75*
G02*
X44619000Y13875000I254000J0D01*
G01*
X45381000Y13875000D01*
G75*
G02*
X45635000Y13621000I0J-254000D01*
G01*
X45635000Y12359000D01*
G75*
G02*
X45381000Y12105000I-254000J0D01*
G01*
X44619000Y12105000D01*
G75*
G02*
X44365000Y12359000I0J254000D01*
G01*
G37*
G36*
G01*
X11022500Y15810000D02*
X11377500Y15810000D01*
G75*
G02*
X11530000Y15657500I0J-152500D01*
G01*
X11530000Y15352500D01*
G75*
G02*
X11377500Y15200000I-152500J0D01*
G01*
X11022500Y15200000D01*
G75*
G02*
X10870000Y15352500I0J152500D01*
G01*
X10870000Y15657500D01*
G75*
G02*
X11022500Y15810000I152500J0D01*
G01*
G37*
G36*
G01*
X11022500Y16780000D02*
X11377500Y16780000D01*
G75*
G02*
X11530000Y16627500I0J-152500D01*
G01*
X11530000Y16322500D01*
G75*
G02*
X11377500Y16170000I-152500J0D01*
G01*
X11022500Y16170000D01*
G75*
G02*
X10870000Y16322500I0J152500D01*
G01*
X10870000Y16627500D01*
G75*
G02*
X11022500Y16780000I152500J0D01*
G01*
G37*
G36*
G01*
X48977500Y25570000D02*
X48622500Y25570000D01*
G75*
G02*
X48470000Y25722500I0J152500D01*
G01*
X48470000Y26027500D01*
G75*
G02*
X48622500Y26180000I152500J0D01*
G01*
X48977500Y26180000D01*
G75*
G02*
X49130000Y26027500I0J-152500D01*
G01*
X49130000Y25722500D01*
G75*
G02*
X48977500Y25570000I-152500J0D01*
G01*
G37*
G36*
G01*
X48977500Y24600000D02*
X48622500Y24600000D01*
G75*
G02*
X48470000Y24752500I0J152500D01*
G01*
X48470000Y25057500D01*
G75*
G02*
X48622500Y25210000I152500J0D01*
G01*
X48977500Y25210000D01*
G75*
G02*
X49130000Y25057500I0J-152500D01*
G01*
X49130000Y24752500D01*
G75*
G02*
X48977500Y24600000I-152500J0D01*
G01*
G37*
G36*
G01*
X12835000Y19621000D02*
X12835000Y18359000D01*
G75*
G02*
X12581000Y18105000I-254000J0D01*
G01*
X11819000Y18105000D01*
G75*
G02*
X11565000Y18359000I0J254000D01*
G01*
X11565000Y19621000D01*
G75*
G02*
X11819000Y19875000I254000J0D01*
G01*
X12581000Y19875000D01*
G75*
G02*
X12835000Y19621000I0J-254000D01*
G01*
G37*
G36*
G01*
X15635000Y19621000D02*
X15635000Y18359000D01*
G75*
G02*
X15381000Y18105000I-254000J0D01*
G01*
X14619000Y18105000D01*
G75*
G02*
X14365000Y18359000I0J254000D01*
G01*
X14365000Y19621000D01*
G75*
G02*
X14619000Y19875000I254000J0D01*
G01*
X15381000Y19875000D01*
G75*
G02*
X15635000Y19621000I0J-254000D01*
G01*
G37*
G36*
G01*
X47165000Y21759000D02*
X47165000Y23021000D01*
G75*
G02*
X47419000Y23275000I254000J0D01*
G01*
X48181000Y23275000D01*
G75*
G02*
X48435000Y23021000I0J-254000D01*
G01*
X48435000Y21759000D01*
G75*
G02*
X48181000Y21505000I-254000J0D01*
G01*
X47419000Y21505000D01*
G75*
G02*
X47165000Y21759000I0J254000D01*
G01*
G37*
G36*
G01*
X44365000Y21759000D02*
X44365000Y23021000D01*
G75*
G02*
X44619000Y23275000I254000J0D01*
G01*
X45381000Y23275000D01*
G75*
G02*
X45635000Y23021000I0J-254000D01*
G01*
X45635000Y21759000D01*
G75*
G02*
X45381000Y21505000I-254000J0D01*
G01*
X44619000Y21505000D01*
G75*
G02*
X44365000Y21759000I0J254000D01*
G01*
G37*
G36*
G01*
X48977500Y34970000D02*
X48622500Y34970000D01*
G75*
G02*
X48470000Y35122500I0J152500D01*
G01*
X48470000Y35427500D01*
G75*
G02*
X48622500Y35580000I152500J0D01*
G01*
X48977500Y35580000D01*
G75*
G02*
X49130000Y35427500I0J-152500D01*
G01*
X49130000Y35122500D01*
G75*
G02*
X48977500Y34970000I-152500J0D01*
G01*
G37*
G36*
G01*
X48977500Y34000000D02*
X48622500Y34000000D01*
G75*
G02*
X48470000Y34152500I0J152500D01*
G01*
X48470000Y34457500D01*
G75*
G02*
X48622500Y34610000I152500J0D01*
G01*
X48977500Y34610000D01*
G75*
G02*
X49130000Y34457500I0J-152500D01*
G01*
X49130000Y34152500D01*
G75*
G02*
X48977500Y34000000I-152500J0D01*
G01*
G37*
G36*
G01*
X47165000Y31159000D02*
X47165000Y32421000D01*
G75*
G02*
X47419000Y32675000I254000J0D01*
G01*
X48181000Y32675000D01*
G75*
G02*
X48435000Y32421000I0J-254000D01*
G01*
X48435000Y31159000D01*
G75*
G02*
X48181000Y30905000I-254000J0D01*
G01*
X47419000Y30905000D01*
G75*
G02*
X47165000Y31159000I0J254000D01*
G01*
G37*
G36*
G01*
X44365000Y31159000D02*
X44365000Y32421000D01*
G75*
G02*
X44619000Y32675000I254000J0D01*
G01*
X45381000Y32675000D01*
G75*
G02*
X45635000Y32421000I0J-254000D01*
G01*
X45635000Y31159000D01*
G75*
G02*
X45381000Y30905000I-254000J0D01*
G01*
X44619000Y30905000D01*
G75*
G02*
X44365000Y31159000I0J254000D01*
G01*
G37*
D25*
X7850000Y35890000D03*
X7850000Y38090000D03*
X6150000Y38090000D03*
X6150000Y35890000D03*
D24*
X13770000Y25390000D03*
G36*
G01*
X12688401Y24604000D02*
X12901601Y24604000D01*
G75*
G02*
X13008201Y24497400I0J-106600D01*
G01*
X13008201Y24182600D01*
G75*
G02*
X12901601Y24076000I-106600J0D01*
G01*
X12688401Y24076000D01*
G75*
G02*
X12581801Y24182600I0J106600D01*
G01*
X12581801Y24497400D01*
G75*
G02*
X12688401Y24604000I106600J0D01*
G01*
G37*
G36*
G01*
X13338399Y24604000D02*
X13551599Y24604000D01*
G75*
G02*
X13658199Y24497400I0J-106600D01*
G01*
X13658199Y24182600D01*
G75*
G02*
X13551599Y24076000I-106600J0D01*
G01*
X13338399Y24076000D01*
G75*
G02*
X13231799Y24182600I0J106600D01*
G01*
X13231799Y24497400D01*
G75*
G02*
X13338399Y24604000I106600J0D01*
G01*
G37*
G36*
G01*
X13988401Y24604000D02*
X14201601Y24604000D01*
G75*
G02*
X14308201Y24497400I0J-106600D01*
G01*
X14308201Y24182600D01*
G75*
G02*
X14201601Y24076000I-106600J0D01*
G01*
X13988401Y24076000D01*
G75*
G02*
X13881801Y24182600I0J106600D01*
G01*
X13881801Y24497400D01*
G75*
G02*
X13988401Y24604000I106600J0D01*
G01*
G37*
G36*
G01*
X14638399Y24604000D02*
X14851599Y24604000D01*
G75*
G02*
X14958199Y24497400I0J-106600D01*
G01*
X14958199Y24182600D01*
G75*
G02*
X14851599Y24076000I-106600J0D01*
G01*
X14638399Y24076000D01*
G75*
G02*
X14531799Y24182600I0J106600D01*
G01*
X14531799Y24497400D01*
G75*
G02*
X14638399Y24604000I106600J0D01*
G01*
G37*
G36*
G01*
X14638399Y26704000D02*
X14851599Y26704000D01*
G75*
G02*
X14958199Y26597400I0J-106600D01*
G01*
X14958199Y26282600D01*
G75*
G02*
X14851599Y26176000I-106600J0D01*
G01*
X14638399Y26176000D01*
G75*
G02*
X14531799Y26282600I0J106600D01*
G01*
X14531799Y26597400D01*
G75*
G02*
X14638399Y26704000I106600J0D01*
G01*
G37*
G36*
G01*
X13988401Y26704000D02*
X14201601Y26704000D01*
G75*
G02*
X14308201Y26597400I0J-106600D01*
G01*
X14308201Y26282600D01*
G75*
G02*
X14201601Y26176000I-106600J0D01*
G01*
X13988401Y26176000D01*
G75*
G02*
X13881801Y26282600I0J106600D01*
G01*
X13881801Y26597400D01*
G75*
G02*
X13988401Y26704000I106600J0D01*
G01*
G37*
G36*
G01*
X13338399Y26704000D02*
X13551599Y26704000D01*
G75*
G02*
X13658199Y26597400I0J-106600D01*
G01*
X13658199Y26282600D01*
G75*
G02*
X13551599Y26176000I-106600J0D01*
G01*
X13338399Y26176000D01*
G75*
G02*
X13231799Y26282600I0J106600D01*
G01*
X13231799Y26597400D01*
G75*
G02*
X13338399Y26704000I106600J0D01*
G01*
G37*
G36*
G01*
X12688401Y26704000D02*
X12901601Y26704000D01*
G75*
G02*
X13008201Y26597400I0J-106600D01*
G01*
X13008201Y26282600D01*
G75*
G02*
X12901601Y26176000I-106600J0D01*
G01*
X12688401Y26176000D01*
G75*
G02*
X12581801Y26282600I0J106600D01*
G01*
X12581801Y26597400D01*
G75*
G02*
X12688401Y26704000I106600J0D01*
G01*
G37*
G36*
G01*
X11022500Y25980000D02*
X11377500Y25980000D01*
G75*
G02*
X11530000Y25827500I0J-152500D01*
G01*
X11530000Y25522500D01*
G75*
G02*
X11377500Y25370000I-152500J0D01*
G01*
X11022500Y25370000D01*
G75*
G02*
X10870000Y25522500I0J152500D01*
G01*
X10870000Y25827500D01*
G75*
G02*
X11022500Y25980000I152500J0D01*
G01*
G37*
G36*
G01*
X11022500Y25010000D02*
X11377500Y25010000D01*
G75*
G02*
X11530000Y24857500I0J-152500D01*
G01*
X11530000Y24552500D01*
G75*
G02*
X11377500Y24400000I-152500J0D01*
G01*
X11022500Y24400000D01*
G75*
G02*
X10870000Y24552500I0J152500D01*
G01*
X10870000Y24857500D01*
G75*
G02*
X11022500Y25010000I152500J0D01*
G01*
G37*
G36*
G01*
X15635000Y29021000D02*
X15635000Y27759000D01*
G75*
G02*
X15381000Y27505000I-254000J0D01*
G01*
X14619000Y27505000D01*
G75*
G02*
X14365000Y27759000I0J254000D01*
G01*
X14365000Y29021000D01*
G75*
G02*
X14619000Y29275000I254000J0D01*
G01*
X15381000Y29275000D01*
G75*
G02*
X15635000Y29021000I0J-254000D01*
G01*
G37*
G36*
G01*
X12835000Y29021000D02*
X12835000Y27759000D01*
G75*
G02*
X12581000Y27505000I-254000J0D01*
G01*
X11819000Y27505000D01*
G75*
G02*
X11565000Y27759000I0J254000D01*
G01*
X11565000Y29021000D01*
G75*
G02*
X11819000Y29275000I254000J0D01*
G01*
X12581000Y29275000D01*
G75*
G02*
X12835000Y29021000I0J-254000D01*
G01*
G37*
D26*
X23000000Y11190000D03*
X27000000Y11190000D03*
X34200000Y11190000D03*
X30200000Y11190000D03*
D27*
X39400000Y1890000D03*
X32600000Y1890000D03*
D28*
X37000000Y7090000D03*
X35000000Y7090000D03*
D29*
X1270000Y1250000D03*
X3810000Y1250000D03*
D30*
X1270000Y3790000D03*
X3810000Y3790000D03*
D29*
X1270000Y6330000D03*
X3810000Y6330000D03*
X1270000Y8870000D03*
X3810000Y8870000D03*
X1270000Y11410000D03*
X3810000Y11410000D03*
X1270000Y13950000D03*
X3810000Y13950000D03*
X1270000Y16490000D03*
X3810000Y16490000D03*
X1270000Y19030000D03*
X3810000Y19030000D03*
X1270000Y21570000D03*
X3810000Y21570000D03*
D30*
X1270000Y24110000D03*
X3810000Y24110000D03*
D29*
X1270000Y26650000D03*
X3810000Y26650000D03*
X1270000Y29190000D03*
X3810000Y29190000D03*
X1270000Y31730000D03*
X3810000Y31730000D03*
X1270000Y34270000D03*
X3810000Y34270000D03*
X1270000Y36810000D03*
X3810000Y36810000D03*
X1270000Y39350000D03*
X3810000Y39350000D03*
X1270000Y41890000D03*
X3810000Y41890000D03*
X1270000Y44430000D03*
X3810000Y44430000D03*
D30*
X1270000Y46970000D03*
X3810000Y46970000D03*
D29*
X1270000Y49510000D03*
X3810000Y49510000D03*
D31*
X14900000Y31640000D03*
X14900000Y33540000D03*
X12700000Y33540000D03*
X12700000Y32590000D03*
X12700000Y31640000D03*
D13*
X14920000Y48000000D03*
X28060000Y48000000D03*
D14*
X25490000Y44500000D03*
X23490000Y44500000D03*
X21490000Y44500000D03*
X19490000Y44500000D03*
X17490000Y44500000D03*
X17990000Y46000000D03*
X20490000Y46000000D03*
X22490000Y46000000D03*
X24990000Y46000000D03*
D29*
X58710000Y49510000D03*
X56170000Y49510000D03*
D30*
X58710000Y46970000D03*
X56170000Y46970000D03*
D29*
X58710000Y44430000D03*
X56170000Y44430000D03*
X58710000Y41890000D03*
X56170000Y41890000D03*
X58710000Y39350000D03*
X56170000Y39350000D03*
X58710000Y36810000D03*
X56170000Y36810000D03*
X58710000Y34270000D03*
X56170000Y34270000D03*
X58710000Y31730000D03*
X56170000Y31730000D03*
X58710000Y29190000D03*
X56170000Y29190000D03*
D30*
X58710000Y26650000D03*
X56170000Y26650000D03*
D29*
X58710000Y24110000D03*
X56170000Y24110000D03*
X58710000Y21570000D03*
X56170000Y21570000D03*
X58710000Y19030000D03*
X56170000Y19030000D03*
X58710000Y16490000D03*
X56170000Y16490000D03*
X58710000Y13950000D03*
X56170000Y13950000D03*
X58710000Y11410000D03*
X56170000Y11410000D03*
X58710000Y8870000D03*
X56170000Y8870000D03*
X58710000Y6330000D03*
X56170000Y6330000D03*
D30*
X58710000Y3790000D03*
X56170000Y3790000D03*
D29*
X58710000Y1250000D03*
X56170000Y1250000D03*
D32*
X30000000Y2460000D03*
D33*
X30000000Y1190000D03*
G36*
G01*
X23380000Y33212500D02*
X23380000Y33567500D01*
G75*
G02*
X23532500Y33720000I152500J0D01*
G01*
X23837500Y33720000D01*
G75*
G02*
X23990000Y33567500I0J-152500D01*
G01*
X23990000Y33212500D01*
G75*
G02*
X23837500Y33060000I-152500J0D01*
G01*
X23532500Y33060000D01*
G75*
G02*
X23380000Y33212500I0J152500D01*
G01*
G37*
G36*
G01*
X22410000Y33212500D02*
X22410000Y33567500D01*
G75*
G02*
X22562500Y33720000I152500J0D01*
G01*
X22867500Y33720000D01*
G75*
G02*
X23020000Y33567500I0J-152500D01*
G01*
X23020000Y33212500D01*
G75*
G02*
X22867500Y33060000I-152500J0D01*
G01*
X22562500Y33060000D01*
G75*
G02*
X22410000Y33212500I0J152500D01*
G01*
G37*
G36*
G01*
X24577500Y35570000D02*
X24222500Y35570000D01*
G75*
G02*
X24070000Y35722500I0J152500D01*
G01*
X24070000Y36027500D01*
G75*
G02*
X24222500Y36180000I152500J0D01*
G01*
X24577500Y36180000D01*
G75*
G02*
X24730000Y36027500I0J-152500D01*
G01*
X24730000Y35722500D01*
G75*
G02*
X24577500Y35570000I-152500J0D01*
G01*
G37*
G36*
G01*
X24577500Y34600000D02*
X24222500Y34600000D01*
G75*
G02*
X24070000Y34752500I0J152500D01*
G01*
X24070000Y35057500D01*
G75*
G02*
X24222500Y35210000I152500J0D01*
G01*
X24577500Y35210000D01*
G75*
G02*
X24730000Y35057500I0J-152500D01*
G01*
X24730000Y34752500D01*
G75*
G02*
X24577500Y34600000I-152500J0D01*
G01*
G37*
G36*
G01*
X28880000Y34212500D02*
X28880000Y34567500D01*
G75*
G02*
X29032500Y34720000I152500J0D01*
G01*
X29337500Y34720000D01*
G75*
G02*
X29490000Y34567500I0J-152500D01*
G01*
X29490000Y34212500D01*
G75*
G02*
X29337500Y34060000I-152500J0D01*
G01*
X29032500Y34060000D01*
G75*
G02*
X28880000Y34212500I0J152500D01*
G01*
G37*
G36*
G01*
X27910000Y34212500D02*
X27910000Y34567500D01*
G75*
G02*
X28062500Y34720000I152500J0D01*
G01*
X28367500Y34720000D01*
G75*
G02*
X28520000Y34567500I0J-152500D01*
G01*
X28520000Y34212500D01*
G75*
G02*
X28367500Y34060000I-152500J0D01*
G01*
X28062500Y34060000D01*
G75*
G02*
X27910000Y34212500I0J152500D01*
G01*
G37*
G36*
G01*
X29280000Y33012500D02*
X29280000Y33367500D01*
G75*
G02*
X29432500Y33520000I152500J0D01*
G01*
X29737500Y33520000D01*
G75*
G02*
X29890000Y33367500I0J-152500D01*
G01*
X29890000Y33012500D01*
G75*
G02*
X29737500Y32860000I-152500J0D01*
G01*
X29432500Y32860000D01*
G75*
G02*
X29280000Y33012500I0J152500D01*
G01*
G37*
G36*
G01*
X28310000Y33012500D02*
X28310000Y33367500D01*
G75*
G02*
X28462500Y33520000I152500J0D01*
G01*
X28767500Y33520000D01*
G75*
G02*
X28920000Y33367500I0J-152500D01*
G01*
X28920000Y33012500D01*
G75*
G02*
X28767500Y32860000I-152500J0D01*
G01*
X28462500Y32860000D01*
G75*
G02*
X28310000Y33012500I0J152500D01*
G01*
G37*
G36*
G01*
X25480000Y33012500D02*
X25480000Y33367500D01*
G75*
G02*
X25632500Y33520000I152500J0D01*
G01*
X25937500Y33520000D01*
G75*
G02*
X26090000Y33367500I0J-152500D01*
G01*
X26090000Y33012500D01*
G75*
G02*
X25937500Y32860000I-152500J0D01*
G01*
X25632500Y32860000D01*
G75*
G02*
X25480000Y33012500I0J152500D01*
G01*
G37*
G36*
G01*
X24510000Y33012500D02*
X24510000Y33367500D01*
G75*
G02*
X24662500Y33520000I152500J0D01*
G01*
X24967500Y33520000D01*
G75*
G02*
X25120000Y33367500I0J-152500D01*
G01*
X25120000Y33012500D01*
G75*
G02*
X24967500Y32860000I-152500J0D01*
G01*
X24662500Y32860000D01*
G75*
G02*
X24510000Y33012500I0J152500D01*
G01*
G37*
G36*
G01*
X27020000Y33367500D02*
X27020000Y33012500D01*
G75*
G02*
X26867500Y32860000I-152500J0D01*
G01*
X26562500Y32860000D01*
G75*
G02*
X26410000Y33012500I0J152500D01*
G01*
X26410000Y33367500D01*
G75*
G02*
X26562500Y33520000I152500J0D01*
G01*
X26867500Y33520000D01*
G75*
G02*
X27020000Y33367500I0J-152500D01*
G01*
G37*
G36*
G01*
X27990000Y33367500D02*
X27990000Y33012500D01*
G75*
G02*
X27837500Y32860000I-152500J0D01*
G01*
X27532500Y32860000D01*
G75*
G02*
X27380000Y33012500I0J152500D01*
G01*
X27380000Y33367500D01*
G75*
G02*
X27532500Y33520000I152500J0D01*
G01*
X27837500Y33520000D01*
G75*
G02*
X27990000Y33367500I0J-152500D01*
G01*
G37*
G36*
G01*
X16777500Y33170000D02*
X16422500Y33170000D01*
G75*
G02*
X16270000Y33322500I0J152500D01*
G01*
X16270000Y33627500D01*
G75*
G02*
X16422500Y33780000I152500J0D01*
G01*
X16777500Y33780000D01*
G75*
G02*
X16930000Y33627500I0J-152500D01*
G01*
X16930000Y33322500D01*
G75*
G02*
X16777500Y33170000I-152500J0D01*
G01*
G37*
G36*
G01*
X16777500Y32200000D02*
X16422500Y32200000D01*
G75*
G02*
X16270000Y32352500I0J152500D01*
G01*
X16270000Y32657500D01*
G75*
G02*
X16422500Y32810000I152500J0D01*
G01*
X16777500Y32810000D01*
G75*
G02*
X16930000Y32657500I0J-152500D01*
G01*
X16930000Y32352500D01*
G75*
G02*
X16777500Y32200000I-152500J0D01*
G01*
G37*
G36*
G01*
X11477500Y31870000D02*
X11122500Y31870000D01*
G75*
G02*
X10970000Y32022500I0J152500D01*
G01*
X10970000Y32327500D01*
G75*
G02*
X11122500Y32480000I152500J0D01*
G01*
X11477500Y32480000D01*
G75*
G02*
X11630000Y32327500I0J-152500D01*
G01*
X11630000Y32022500D01*
G75*
G02*
X11477500Y31870000I-152500J0D01*
G01*
G37*
G36*
G01*
X11477500Y30900000D02*
X11122500Y30900000D01*
G75*
G02*
X10970000Y31052500I0J152500D01*
G01*
X10970000Y31357500D01*
G75*
G02*
X11122500Y31510000I152500J0D01*
G01*
X11477500Y31510000D01*
G75*
G02*
X11630000Y31357500I0J-152500D01*
G01*
X11630000Y31052500D01*
G75*
G02*
X11477500Y30900000I-152500J0D01*
G01*
G37*
M02*
