G04 #@! TF.GenerationSoftware,KiCad,Pcbnew,5.1.5-52549c5~86~ubuntu19.10.1*
G04 #@! TF.CreationDate,2020-04-19T19:12:06-07:00*
G04 #@! TF.ProjectId,artix7-pcie-v2,61727469-7837-42d7-9063-69652d76322e,rev?*
G04 #@! TF.SameCoordinates,PX69f4060PY6b00940*
G04 #@! TF.FileFunction,Legend,Top*
G04 #@! TF.FilePolarity,Positive*
%FSLAX46Y46*%
G04 Gerber Fmt 4.6, Leading zero omitted, Abs format (unit mm)*
G04 Created by KiCad (PCBNEW 5.1.5-52549c5~86~ubuntu19.10.1) date 2020-04-19 19:12:06*
%MOMM*%
%LPD*%
G04 APERTURE LIST*
%ADD10C,0.350000*%
%ADD11C,0.150000*%
%ADD12C,0.250000*%
%ADD13C,0.200000*%
%ADD14C,0.120000*%
%ADD15C,0.010000*%
%ADD16C,0.500000*%
%ADD17C,0.300000*%
G04 APERTURE END LIST*
D10*
X29866666Y39085239D02*
X29866666Y40418572D01*
X29866666Y40037620D02*
X29961904Y40228096D01*
X30057142Y40323334D01*
X30247619Y40418572D01*
X30438095Y40418572D01*
X31866666Y39180477D02*
X31676190Y39085239D01*
X31295238Y39085239D01*
X31104761Y39180477D01*
X31009523Y39370953D01*
X31009523Y40132858D01*
X31104761Y40323334D01*
X31295238Y40418572D01*
X31676190Y40418572D01*
X31866666Y40323334D01*
X31961904Y40132858D01*
X31961904Y39942381D01*
X31009523Y39751905D01*
X33676190Y39085239D02*
X33676190Y41085239D01*
X33676190Y39180477D02*
X33485714Y39085239D01*
X33104761Y39085239D01*
X32914285Y39180477D01*
X32819047Y39275715D01*
X32723809Y39466191D01*
X32723809Y40037620D01*
X32819047Y40228096D01*
X32914285Y40323334D01*
X33104761Y40418572D01*
X33485714Y40418572D01*
X33676190Y40323334D01*
X35961904Y40418572D02*
X36438095Y39085239D01*
X36914285Y40418572D02*
X36438095Y39085239D01*
X36247619Y38609048D01*
X36152380Y38513810D01*
X35961904Y38418572D01*
X38438095Y39180477D02*
X38247619Y39085239D01*
X37866666Y39085239D01*
X37676190Y39180477D01*
X37580952Y39370953D01*
X37580952Y40132858D01*
X37676190Y40323334D01*
X37866666Y40418572D01*
X38247619Y40418572D01*
X38438095Y40323334D01*
X38533333Y40132858D01*
X38533333Y39942381D01*
X37580952Y39751905D01*
X39104761Y40418572D02*
X39866666Y40418572D01*
X39390476Y41085239D02*
X39390476Y39370953D01*
X39485714Y39180477D01*
X39676190Y39085239D01*
X39866666Y39085239D01*
X40533333Y39085239D02*
X40533333Y40418572D01*
X40533333Y41085239D02*
X40438095Y40990000D01*
X40533333Y40894762D01*
X40628571Y40990000D01*
X40533333Y41085239D01*
X40533333Y40894762D01*
D11*
X49252380Y8232858D02*
X48252380Y8232858D01*
X48252380Y8613810D01*
X48300000Y8709048D01*
X48347619Y8756667D01*
X48442857Y8804286D01*
X48585714Y8804286D01*
X48680952Y8756667D01*
X48728571Y8709048D01*
X48776190Y8613810D01*
X48776190Y8232858D01*
X48252380Y9137620D02*
X49252380Y9375715D01*
X48538095Y9566191D01*
X49252380Y9756667D01*
X48252380Y9994762D01*
X49252380Y10947143D02*
X48776190Y10613810D01*
X49252380Y10375715D02*
X48252380Y10375715D01*
X48252380Y10756667D01*
X48300000Y10851905D01*
X48347619Y10899524D01*
X48442857Y10947143D01*
X48585714Y10947143D01*
X48680952Y10899524D01*
X48728571Y10851905D01*
X48776190Y10756667D01*
X48776190Y10375715D01*
X48252380Y11566191D02*
X48252380Y11756667D01*
X48300000Y11851905D01*
X48395238Y11947143D01*
X48585714Y11994762D01*
X48919047Y11994762D01*
X49109523Y11947143D01*
X49204761Y11851905D01*
X49252380Y11756667D01*
X49252380Y11566191D01*
X49204761Y11470953D01*
X49109523Y11375715D01*
X48919047Y11328096D01*
X48585714Y11328096D01*
X48395238Y11375715D01*
X48300000Y11470953D01*
X48252380Y11566191D01*
X49252380Y12423334D02*
X48252380Y12423334D01*
X49252380Y12994762D02*
X48680952Y12566191D01*
X48252380Y12994762D02*
X48823809Y12423334D01*
D12*
X14928571Y18175715D02*
X14142857Y18175715D01*
X14000000Y18104286D01*
X13928571Y17961429D01*
X13928571Y17675715D01*
X14000000Y17532858D01*
X14857142Y18175715D02*
X14928571Y18032858D01*
X14928571Y17675715D01*
X14857142Y17532858D01*
X14714285Y17461429D01*
X14571428Y17461429D01*
X14428571Y17532858D01*
X14357142Y17675715D01*
X14357142Y18032858D01*
X14285714Y18175715D01*
X14928571Y18890000D02*
X13928571Y18890000D01*
X14214285Y18890000D02*
X14071428Y18961429D01*
X14000000Y19032858D01*
X13928571Y19175715D01*
X13928571Y19318572D01*
X13928571Y19604286D02*
X13928571Y20175715D01*
X13428571Y19818572D02*
X14714285Y19818572D01*
X14857142Y19890000D01*
X14928571Y20032858D01*
X14928571Y20175715D01*
X14928571Y20675715D02*
X13928571Y20675715D01*
X13428571Y20675715D02*
X13500000Y20604286D01*
X13571428Y20675715D01*
X13500000Y20747143D01*
X13428571Y20675715D01*
X13571428Y20675715D01*
X14928571Y21247143D02*
X13928571Y22032858D01*
X13928571Y21247143D02*
X14928571Y22032858D01*
X13428571Y22461429D02*
X13428571Y23461429D01*
X14928571Y22818572D01*
X14785714Y24032858D02*
X14857142Y24104286D01*
X14928571Y24032858D01*
X14857142Y23961429D01*
X14785714Y24032858D01*
X14928571Y24032858D01*
X13928571Y24532858D02*
X13928571Y25104286D01*
X13428571Y24747143D02*
X14714285Y24747143D01*
X14857142Y24818572D01*
X14928571Y24961429D01*
X14928571Y25104286D01*
X14928571Y25818572D02*
X14857142Y25675715D01*
X14785714Y25604286D01*
X14642857Y25532858D01*
X14214285Y25532858D01*
X14071428Y25604286D01*
X14000000Y25675715D01*
X13928571Y25818572D01*
X13928571Y26032858D01*
X14000000Y26175715D01*
X14071428Y26247143D01*
X14214285Y26318572D01*
X14642857Y26318572D01*
X14785714Y26247143D01*
X14857142Y26175715D01*
X14928571Y26032858D01*
X14928571Y25818572D01*
X14928571Y26961429D02*
X13928571Y26961429D01*
X14071428Y26961429D02*
X14000000Y27032858D01*
X13928571Y27175715D01*
X13928571Y27390000D01*
X14000000Y27532858D01*
X14142857Y27604286D01*
X14928571Y27604286D01*
X14142857Y27604286D02*
X14000000Y27675715D01*
X13928571Y27818572D01*
X13928571Y28032858D01*
X14000000Y28175715D01*
X14142857Y28247143D01*
X14928571Y28247143D01*
X14928571Y28961429D02*
X13428571Y28961429D01*
X14357142Y29104286D02*
X14928571Y29532858D01*
X13928571Y29532858D02*
X14500000Y28961429D01*
X14785714Y30175715D02*
X14857142Y30247143D01*
X14928571Y30175715D01*
X14857142Y30104286D01*
X14785714Y30175715D01*
X14928571Y30175715D01*
X14928571Y30890000D02*
X13928571Y30890000D01*
X13428571Y30890000D02*
X13500000Y30818572D01*
X13571428Y30890000D01*
X13500000Y30961429D01*
X13428571Y30890000D01*
X13571428Y30890000D01*
X13928571Y31604286D02*
X14928571Y31604286D01*
X14071428Y31604286D02*
X14000000Y31675715D01*
X13928571Y31818572D01*
X13928571Y32032858D01*
X14000000Y32175715D01*
X14142857Y32247143D01*
X14928571Y32247143D01*
X46050000Y31032858D02*
X46050000Y31747143D01*
X46478571Y30890000D02*
X44978571Y31390000D01*
X46478571Y31890000D01*
X45478571Y32390000D02*
X46978571Y32390000D01*
X45550000Y32390000D02*
X45478571Y32532858D01*
X45478571Y32818572D01*
X45550000Y32961429D01*
X45621428Y33032858D01*
X45764285Y33104286D01*
X46192857Y33104286D01*
X46335714Y33032858D01*
X46407142Y32961429D01*
X46478571Y32818572D01*
X46478571Y32532858D01*
X46407142Y32390000D01*
X46478571Y33747143D02*
X45478571Y33747143D01*
X45764285Y33747143D02*
X45621428Y33818572D01*
X45550000Y33890000D01*
X45478571Y34032858D01*
X45478571Y34175715D01*
X45121428Y34604286D02*
X45050000Y34675715D01*
X44978571Y34818572D01*
X44978571Y35175715D01*
X45050000Y35318572D01*
X45121428Y35390000D01*
X45264285Y35461429D01*
X45407142Y35461429D01*
X45621428Y35390000D01*
X46478571Y34532858D01*
X46478571Y35461429D01*
X44978571Y36390000D02*
X44978571Y36532858D01*
X45050000Y36675715D01*
X45121428Y36747143D01*
X45264285Y36818572D01*
X45550000Y36890000D01*
X45907142Y36890000D01*
X46192857Y36818572D01*
X46335714Y36747143D01*
X46407142Y36675715D01*
X46478571Y36532858D01*
X46478571Y36390000D01*
X46407142Y36247143D01*
X46335714Y36175715D01*
X46192857Y36104286D01*
X45907142Y36032858D01*
X45550000Y36032858D01*
X45264285Y36104286D01*
X45121428Y36175715D01*
X45050000Y36247143D01*
X44978571Y36390000D01*
X45121428Y37461429D02*
X45050000Y37532858D01*
X44978571Y37675715D01*
X44978571Y38032858D01*
X45050000Y38175715D01*
X45121428Y38247143D01*
X45264285Y38318572D01*
X45407142Y38318572D01*
X45621428Y38247143D01*
X46478571Y37390000D01*
X46478571Y38318572D01*
X44978571Y39247143D02*
X44978571Y39390000D01*
X45050000Y39532858D01*
X45121428Y39604286D01*
X45264285Y39675715D01*
X45550000Y39747143D01*
X45907142Y39747143D01*
X46192857Y39675715D01*
X46335714Y39604286D01*
X46407142Y39532858D01*
X46478571Y39390000D01*
X46478571Y39247143D01*
X46407142Y39104286D01*
X46335714Y39032858D01*
X46192857Y38961429D01*
X45907142Y38890000D01*
X45550000Y38890000D01*
X45264285Y38961429D01*
X45121428Y39032858D01*
X45050000Y39104286D01*
X44978571Y39247143D01*
D13*
X51657142Y47740000D02*
X51514285Y47811429D01*
X51300000Y47811429D01*
X51085714Y47740000D01*
X50942857Y47597143D01*
X50871428Y47454286D01*
X50800000Y47168572D01*
X50800000Y46954286D01*
X50871428Y46668572D01*
X50942857Y46525715D01*
X51085714Y46382858D01*
X51300000Y46311429D01*
X51442857Y46311429D01*
X51657142Y46382858D01*
X51728571Y46454286D01*
X51728571Y46954286D01*
X51442857Y46954286D01*
X52371428Y46311429D02*
X52371428Y47811429D01*
X53228571Y46311429D01*
X53228571Y47811429D01*
X53942857Y46311429D02*
X53942857Y47811429D01*
X54300000Y47811429D01*
X54514285Y47740000D01*
X54657142Y47597143D01*
X54728571Y47454286D01*
X54800000Y47168572D01*
X54800000Y46954286D01*
X54728571Y46668572D01*
X54657142Y46525715D01*
X54514285Y46382858D01*
X54300000Y46311429D01*
X53942857Y46311429D01*
X51721142Y32468572D02*
X51792571Y32540000D01*
X51935428Y32611429D01*
X52292571Y32611429D01*
X52435428Y32540000D01*
X52506857Y32468572D01*
X52578285Y32325715D01*
X52578285Y32182858D01*
X52506857Y31968572D01*
X51649714Y31111429D01*
X52578285Y31111429D01*
X53149714Y32468572D02*
X53221142Y32540000D01*
X53364000Y32611429D01*
X53721142Y32611429D01*
X53864000Y32540000D01*
X53935428Y32468572D01*
X54006857Y32325715D01*
X54006857Y32182858D01*
X53935428Y31968572D01*
X53078285Y31111429D01*
X54006857Y31111429D01*
X52578285Y5711429D02*
X51721142Y5711429D01*
X52149714Y5711429D02*
X52149714Y7211429D01*
X52006857Y6997143D01*
X51864000Y6854286D01*
X51721142Y6782858D01*
X53078285Y7211429D02*
X54078285Y7211429D01*
X53435428Y5711429D01*
X50800000Y4611429D02*
X51300000Y3111429D01*
X51800000Y4611429D01*
X53157142Y3254286D02*
X53085714Y3182858D01*
X52871428Y3111429D01*
X52728571Y3111429D01*
X52514285Y3182858D01*
X52371428Y3325715D01*
X52300000Y3468572D01*
X52228571Y3754286D01*
X52228571Y3968572D01*
X52300000Y4254286D01*
X52371428Y4397143D01*
X52514285Y4540000D01*
X52728571Y4611429D01*
X52871428Y4611429D01*
X53085714Y4540000D01*
X53157142Y4468572D01*
X54657142Y3254286D02*
X54585714Y3182858D01*
X54371428Y3111429D01*
X54228571Y3111429D01*
X54014285Y3182858D01*
X53871428Y3325715D01*
X53800000Y3468572D01*
X53728571Y3754286D01*
X53728571Y3968572D01*
X53800000Y4254286D01*
X53871428Y4397143D01*
X54014285Y4540000D01*
X54228571Y4611429D01*
X54371428Y4611429D01*
X54585714Y4540000D01*
X54657142Y4468572D01*
X51657142Y2140000D02*
X51514285Y2211429D01*
X51300000Y2211429D01*
X51085714Y2140000D01*
X50942857Y1997143D01*
X50871428Y1854286D01*
X50800000Y1568572D01*
X50800000Y1354286D01*
X50871428Y1068572D01*
X50942857Y925715D01*
X51085714Y782858D01*
X51300000Y711429D01*
X51442857Y711429D01*
X51657142Y782858D01*
X51728571Y854286D01*
X51728571Y1354286D01*
X51442857Y1354286D01*
X52371428Y711429D02*
X52371428Y2211429D01*
X53228571Y711429D01*
X53228571Y2211429D01*
X53942857Y711429D02*
X53942857Y2211429D01*
X54300000Y2211429D01*
X54514285Y2140000D01*
X54657142Y1997143D01*
X54728571Y1854286D01*
X54800000Y1568572D01*
X54800000Y1354286D01*
X54728571Y1068572D01*
X54657142Y925715D01*
X54514285Y782858D01*
X54300000Y711429D01*
X53942857Y711429D01*
X50800000Y50211429D02*
X51300000Y48711429D01*
X51800000Y50211429D01*
X53157142Y48854286D02*
X53085714Y48782858D01*
X52871428Y48711429D01*
X52728571Y48711429D01*
X52514285Y48782858D01*
X52371428Y48925715D01*
X52300000Y49068572D01*
X52228571Y49354286D01*
X52228571Y49568572D01*
X52300000Y49854286D01*
X52371428Y49997143D01*
X52514285Y50140000D01*
X52728571Y50211429D01*
X52871428Y50211429D01*
X53085714Y50140000D01*
X53157142Y50068572D01*
X54657142Y48854286D02*
X54585714Y48782858D01*
X54371428Y48711429D01*
X54228571Y48711429D01*
X54014285Y48782858D01*
X53871428Y48925715D01*
X53800000Y49068572D01*
X53728571Y49354286D01*
X53728571Y49568572D01*
X53800000Y49854286D01*
X53871428Y49997143D01*
X54014285Y50140000D01*
X54228571Y50211429D01*
X54371428Y50211429D01*
X54585714Y50140000D01*
X54657142Y50068572D01*
X5400000Y50411429D02*
X5900000Y48911429D01*
X6400000Y50411429D01*
X7757142Y49054286D02*
X7685714Y48982858D01*
X7471428Y48911429D01*
X7328571Y48911429D01*
X7114285Y48982858D01*
X6971428Y49125715D01*
X6900000Y49268572D01*
X6828571Y49554286D01*
X6828571Y49768572D01*
X6900000Y50054286D01*
X6971428Y50197143D01*
X7114285Y50340000D01*
X7328571Y50411429D01*
X7471428Y50411429D01*
X7685714Y50340000D01*
X7757142Y50268572D01*
X9257142Y49054286D02*
X9185714Y48982858D01*
X8971428Y48911429D01*
X8828571Y48911429D01*
X8614285Y48982858D01*
X8471428Y49125715D01*
X8400000Y49268572D01*
X8328571Y49554286D01*
X8328571Y49768572D01*
X8400000Y50054286D01*
X8471428Y50197143D01*
X8614285Y50340000D01*
X8828571Y50411429D01*
X8971428Y50411429D01*
X9185714Y50340000D01*
X9257142Y50268572D01*
X6257142Y47740000D02*
X6114285Y47811429D01*
X5900000Y47811429D01*
X5685714Y47740000D01*
X5542857Y47597143D01*
X5471428Y47454286D01*
X5400000Y47168572D01*
X5400000Y46954286D01*
X5471428Y46668572D01*
X5542857Y46525715D01*
X5685714Y46382858D01*
X5900000Y46311429D01*
X6042857Y46311429D01*
X6257142Y46382858D01*
X6328571Y46454286D01*
X6328571Y46954286D01*
X6042857Y46954286D01*
X6971428Y46311429D02*
X6971428Y47811429D01*
X7828571Y46311429D01*
X7828571Y47811429D01*
X8542857Y46311429D02*
X8542857Y47811429D01*
X8900000Y47811429D01*
X9114285Y47740000D01*
X9257142Y47597143D01*
X9328571Y47454286D01*
X9400000Y47168572D01*
X9400000Y46954286D01*
X9328571Y46668572D01*
X9257142Y46525715D01*
X9114285Y46382858D01*
X8900000Y46311429D01*
X8542857Y46311429D01*
X52578285Y8201429D02*
X51721142Y8201429D01*
X52149714Y8201429D02*
X52149714Y9701429D01*
X52006857Y9487143D01*
X51864000Y9344286D01*
X51721142Y9272858D01*
X53935428Y9701429D02*
X53221142Y9701429D01*
X53149714Y8987143D01*
X53221142Y9058572D01*
X53364000Y9130000D01*
X53721142Y9130000D01*
X53864000Y9058572D01*
X53935428Y8987143D01*
X54006857Y8844286D01*
X54006857Y8487143D01*
X53935428Y8344286D01*
X53864000Y8272858D01*
X53721142Y8201429D01*
X53364000Y8201429D01*
X53221142Y8272858D01*
X53149714Y8344286D01*
X52578285Y10741429D02*
X51721142Y10741429D01*
X52149714Y10741429D02*
X52149714Y12241429D01*
X52006857Y12027143D01*
X51864000Y11884286D01*
X51721142Y11812858D01*
X53506857Y12241429D02*
X53649714Y12241429D01*
X53792571Y12170000D01*
X53864000Y12098572D01*
X53935428Y11955715D01*
X54006857Y11670000D01*
X54006857Y11312858D01*
X53935428Y11027143D01*
X53864000Y10884286D01*
X53792571Y10812858D01*
X53649714Y10741429D01*
X53506857Y10741429D01*
X53364000Y10812858D01*
X53292571Y10884286D01*
X53221142Y11027143D01*
X53149714Y11312858D01*
X53149714Y11670000D01*
X53221142Y11955715D01*
X53292571Y12098572D01*
X53364000Y12170000D01*
X53506857Y12241429D01*
X52721142Y14138572D02*
X52578285Y14210000D01*
X52506857Y14281429D01*
X52435428Y14424286D01*
X52435428Y14495715D01*
X52506857Y14638572D01*
X52578285Y14710000D01*
X52721142Y14781429D01*
X53006857Y14781429D01*
X53149714Y14710000D01*
X53221142Y14638572D01*
X53292571Y14495715D01*
X53292571Y14424286D01*
X53221142Y14281429D01*
X53149714Y14210000D01*
X53006857Y14138572D01*
X52721142Y14138572D01*
X52578285Y14067143D01*
X52506857Y13995715D01*
X52435428Y13852858D01*
X52435428Y13567143D01*
X52506857Y13424286D01*
X52578285Y13352858D01*
X52721142Y13281429D01*
X53006857Y13281429D01*
X53149714Y13352858D01*
X53221142Y13424286D01*
X53292571Y13567143D01*
X53292571Y13852858D01*
X53221142Y13995715D01*
X53149714Y14067143D01*
X53006857Y14138572D01*
X52578285Y15821429D02*
X52864000Y15821429D01*
X53006857Y15892858D01*
X53078285Y15964286D01*
X53221142Y16178572D01*
X53292571Y16464286D01*
X53292571Y17035715D01*
X53221142Y17178572D01*
X53149714Y17250000D01*
X53006857Y17321429D01*
X52721142Y17321429D01*
X52578285Y17250000D01*
X52506857Y17178572D01*
X52435428Y17035715D01*
X52435428Y16678572D01*
X52506857Y16535715D01*
X52578285Y16464286D01*
X52721142Y16392858D01*
X53006857Y16392858D01*
X53149714Y16464286D01*
X53221142Y16535715D01*
X53292571Y16678572D01*
X52364000Y19861429D02*
X53364000Y19861429D01*
X52721142Y18361429D01*
X53149714Y21901429D02*
X53149714Y20901429D01*
X52792571Y22472858D02*
X52435428Y21401429D01*
X53364000Y21401429D01*
X51721142Y29878572D02*
X51792571Y29950000D01*
X51935428Y30021429D01*
X52292571Y30021429D01*
X52435428Y29950000D01*
X52506857Y29878572D01*
X52578285Y29735715D01*
X52578285Y29592858D01*
X52506857Y29378572D01*
X51649714Y28521429D01*
X52578285Y28521429D01*
X53864000Y29521429D02*
X53864000Y28521429D01*
X53506857Y30092858D02*
X53149714Y29021429D01*
X54078285Y29021429D01*
X51721142Y34958572D02*
X51792571Y35030000D01*
X51935428Y35101429D01*
X52292571Y35101429D01*
X52435428Y35030000D01*
X52506857Y34958572D01*
X52578285Y34815715D01*
X52578285Y34672858D01*
X52506857Y34458572D01*
X51649714Y33601429D01*
X52578285Y33601429D01*
X53506857Y35101429D02*
X53649714Y35101429D01*
X53792571Y35030000D01*
X53864000Y34958572D01*
X53935428Y34815715D01*
X54006857Y34530000D01*
X54006857Y34172858D01*
X53935428Y33887143D01*
X53864000Y33744286D01*
X53792571Y33672858D01*
X53649714Y33601429D01*
X53506857Y33601429D01*
X53364000Y33672858D01*
X53292571Y33744286D01*
X53221142Y33887143D01*
X53149714Y34172858D01*
X53149714Y34530000D01*
X53221142Y34815715D01*
X53292571Y34958572D01*
X53364000Y35030000D01*
X53506857Y35101429D01*
X51721142Y37498572D02*
X51792571Y37570000D01*
X51935428Y37641429D01*
X52292571Y37641429D01*
X52435428Y37570000D01*
X52506857Y37498572D01*
X52578285Y37355715D01*
X52578285Y37212858D01*
X52506857Y36998572D01*
X51649714Y36141429D01*
X52578285Y36141429D01*
X54006857Y36141429D02*
X53149714Y36141429D01*
X53578285Y36141429D02*
X53578285Y37641429D01*
X53435428Y37427143D01*
X53292571Y37284286D01*
X53149714Y37212858D01*
X52578285Y38681429D02*
X51721142Y38681429D01*
X52149714Y38681429D02*
X52149714Y40181429D01*
X52006857Y39967143D01*
X51864000Y39824286D01*
X51721142Y39752858D01*
X54006857Y38681429D02*
X53149714Y38681429D01*
X53578285Y38681429D02*
X53578285Y40181429D01*
X53435428Y39967143D01*
X53292571Y39824286D01*
X53149714Y39752858D01*
X52578285Y41221429D02*
X51721142Y41221429D01*
X52149714Y41221429D02*
X52149714Y42721429D01*
X52006857Y42507143D01*
X51864000Y42364286D01*
X51721142Y42292858D01*
X53078285Y42721429D02*
X54078285Y42721429D01*
X53435428Y41221429D01*
X52578285Y43761429D02*
X52864000Y43761429D01*
X53006857Y43832858D01*
X53078285Y43904286D01*
X53221142Y44118572D01*
X53292571Y44404286D01*
X53292571Y44975715D01*
X53221142Y45118572D01*
X53149714Y45190000D01*
X53006857Y45261429D01*
X52721142Y45261429D01*
X52578285Y45190000D01*
X52506857Y45118572D01*
X52435428Y44975715D01*
X52435428Y44618572D01*
X52506857Y44475715D01*
X52578285Y44404286D01*
X52721142Y44332858D01*
X53006857Y44332858D01*
X53149714Y44404286D01*
X53221142Y44475715D01*
X53292571Y44618572D01*
X6001142Y4550000D02*
X5858285Y4621429D01*
X5644000Y4621429D01*
X5429714Y4550000D01*
X5286857Y4407143D01*
X5215428Y4264286D01*
X5144000Y3978572D01*
X5144000Y3764286D01*
X5215428Y3478572D01*
X5286857Y3335715D01*
X5429714Y3192858D01*
X5644000Y3121429D01*
X5786857Y3121429D01*
X6001142Y3192858D01*
X6072571Y3264286D01*
X6072571Y3764286D01*
X5786857Y3764286D01*
X6715428Y3121429D02*
X6715428Y4621429D01*
X7572571Y3121429D01*
X7572571Y4621429D01*
X8286857Y3121429D02*
X8286857Y4621429D01*
X8644000Y4621429D01*
X8858285Y4550000D01*
X9001142Y4407143D01*
X9072571Y4264286D01*
X9144000Y3978572D01*
X9144000Y3764286D01*
X9072571Y3478572D01*
X9001142Y3335715D01*
X8858285Y3192858D01*
X8644000Y3121429D01*
X8286857Y3121429D01*
X5144000Y2081429D02*
X5644000Y581429D01*
X6144000Y2081429D01*
X7501142Y724286D02*
X7429714Y652858D01*
X7215428Y581429D01*
X7072571Y581429D01*
X6858285Y652858D01*
X6715428Y795715D01*
X6644000Y938572D01*
X6572571Y1224286D01*
X6572571Y1438572D01*
X6644000Y1724286D01*
X6715428Y1867143D01*
X6858285Y2010000D01*
X7072571Y2081429D01*
X7215428Y2081429D01*
X7429714Y2010000D01*
X7501142Y1938572D01*
X9001142Y724286D02*
X8929714Y652858D01*
X8715428Y581429D01*
X8572571Y581429D01*
X8358285Y652858D01*
X8215428Y795715D01*
X8144000Y938572D01*
X8072571Y1224286D01*
X8072571Y1438572D01*
X8144000Y1724286D01*
X8215428Y1867143D01*
X8358285Y2010000D01*
X8572571Y2081429D01*
X8715428Y2081429D01*
X8929714Y2010000D01*
X9001142Y1938572D01*
X7001142Y6518572D02*
X6858285Y6590000D01*
X6786857Y6661429D01*
X6715428Y6804286D01*
X6715428Y6875715D01*
X6786857Y7018572D01*
X6858285Y7090000D01*
X7001142Y7161429D01*
X7286857Y7161429D01*
X7429714Y7090000D01*
X7501142Y7018572D01*
X7572571Y6875715D01*
X7572571Y6804286D01*
X7501142Y6661429D01*
X7429714Y6590000D01*
X7286857Y6518572D01*
X7001142Y6518572D01*
X6858285Y6447143D01*
X6786857Y6375715D01*
X6715428Y6232858D01*
X6715428Y5947143D01*
X6786857Y5804286D01*
X6858285Y5732858D01*
X7001142Y5661429D01*
X7286857Y5661429D01*
X7429714Y5732858D01*
X7501142Y5804286D01*
X7572571Y5947143D01*
X7572571Y6232858D01*
X7501142Y6375715D01*
X7429714Y6447143D01*
X7286857Y6518572D01*
X6644000Y9701429D02*
X7644000Y9701429D01*
X7001142Y8201429D01*
X7429714Y11741429D02*
X7429714Y10741429D01*
X7072571Y12312858D02*
X6715428Y11241429D01*
X7644000Y11241429D01*
X7501142Y14781429D02*
X6786857Y14781429D01*
X6715428Y14067143D01*
X6786857Y14138572D01*
X6929714Y14210000D01*
X7286857Y14210000D01*
X7429714Y14138572D01*
X7501142Y14067143D01*
X7572571Y13924286D01*
X7572571Y13567143D01*
X7501142Y13424286D01*
X7429714Y13352858D01*
X7286857Y13281429D01*
X6929714Y13281429D01*
X6786857Y13352858D01*
X6715428Y13424286D01*
X6715428Y17178572D02*
X6786857Y17250000D01*
X6929714Y17321429D01*
X7286857Y17321429D01*
X7429714Y17250000D01*
X7501142Y17178572D01*
X7572571Y17035715D01*
X7572571Y16892858D01*
X7501142Y16678572D01*
X6644000Y15821429D01*
X7572571Y15821429D01*
X7572571Y18361429D02*
X6715428Y18361429D01*
X7144000Y18361429D02*
X7144000Y19861429D01*
X7001142Y19647143D01*
X6858285Y19504286D01*
X6715428Y19432858D01*
X6644000Y22401429D02*
X7572571Y22401429D01*
X7072571Y21830000D01*
X7286857Y21830000D01*
X7429714Y21758572D01*
X7501142Y21687143D01*
X7572571Y21544286D01*
X7572571Y21187143D01*
X7501142Y21044286D01*
X7429714Y20972858D01*
X7286857Y20901429D01*
X6858285Y20901429D01*
X6715428Y20972858D01*
X6644000Y21044286D01*
X6255142Y29878572D02*
X6326571Y29950000D01*
X6469428Y30021429D01*
X6826571Y30021429D01*
X6969428Y29950000D01*
X7040857Y29878572D01*
X7112285Y29735715D01*
X7112285Y29592858D01*
X7040857Y29378572D01*
X6183714Y28521429D01*
X7112285Y28521429D01*
X7683714Y29878572D02*
X7755142Y29950000D01*
X7898000Y30021429D01*
X8255142Y30021429D01*
X8398000Y29950000D01*
X8469428Y29878572D01*
X8540857Y29735715D01*
X8540857Y29592858D01*
X8469428Y29378572D01*
X7612285Y28521429D01*
X8540857Y28521429D01*
X7112285Y31061429D02*
X6255142Y31061429D01*
X6683714Y31061429D02*
X6683714Y32561429D01*
X6540857Y32347143D01*
X6398000Y32204286D01*
X6255142Y32132858D01*
X8469428Y32561429D02*
X7755142Y32561429D01*
X7683714Y31847143D01*
X7755142Y31918572D01*
X7898000Y31990000D01*
X8255142Y31990000D01*
X8398000Y31918572D01*
X8469428Y31847143D01*
X8540857Y31704286D01*
X8540857Y31347143D01*
X8469428Y31204286D01*
X8398000Y31132858D01*
X8255142Y31061429D01*
X7898000Y31061429D01*
X7755142Y31132858D01*
X7683714Y31204286D01*
X6898000Y35101429D02*
X7898000Y35101429D01*
X7255142Y33601429D01*
X7112285Y36141429D02*
X7398000Y36141429D01*
X7540857Y36212858D01*
X7612285Y36284286D01*
X7755142Y36498572D01*
X7826571Y36784286D01*
X7826571Y37355715D01*
X7755142Y37498572D01*
X7683714Y37570000D01*
X7540857Y37641429D01*
X7255142Y37641429D01*
X7112285Y37570000D01*
X7040857Y37498572D01*
X6969428Y37355715D01*
X6969428Y36998572D01*
X7040857Y36855715D01*
X7112285Y36784286D01*
X7255142Y36712858D01*
X7540857Y36712858D01*
X7683714Y36784286D01*
X7755142Y36855715D01*
X7826571Y36998572D01*
X7755142Y40181429D02*
X7040857Y40181429D01*
X6969428Y39467143D01*
X7040857Y39538572D01*
X7183714Y39610000D01*
X7540857Y39610000D01*
X7683714Y39538572D01*
X7755142Y39467143D01*
X7826571Y39324286D01*
X7826571Y38967143D01*
X7755142Y38824286D01*
X7683714Y38752858D01*
X7540857Y38681429D01*
X7183714Y38681429D01*
X7040857Y38752858D01*
X6969428Y38824286D01*
X6898000Y42721429D02*
X7826571Y42721429D01*
X7326571Y42150000D01*
X7540857Y42150000D01*
X7683714Y42078572D01*
X7755142Y42007143D01*
X7826571Y41864286D01*
X7826571Y41507143D01*
X7755142Y41364286D01*
X7683714Y41292858D01*
X7540857Y41221429D01*
X7112285Y41221429D01*
X6969428Y41292858D01*
X6898000Y41364286D01*
X7826571Y43761429D02*
X6969428Y43761429D01*
X7398000Y43761429D02*
X7398000Y45261429D01*
X7255142Y45047143D01*
X7112285Y44904286D01*
X6969428Y44832858D01*
X5144000Y27481429D02*
X5644000Y25981429D01*
X6144000Y27481429D01*
X7501142Y26124286D02*
X7429714Y26052858D01*
X7215428Y25981429D01*
X7072571Y25981429D01*
X6858285Y26052858D01*
X6715428Y26195715D01*
X6644000Y26338572D01*
X6572571Y26624286D01*
X6572571Y26838572D01*
X6644000Y27124286D01*
X6715428Y27267143D01*
X6858285Y27410000D01*
X7072571Y27481429D01*
X7215428Y27481429D01*
X7429714Y27410000D01*
X7501142Y27338572D01*
X9001142Y26124286D02*
X8929714Y26052858D01*
X8715428Y25981429D01*
X8572571Y25981429D01*
X8358285Y26052858D01*
X8215428Y26195715D01*
X8144000Y26338572D01*
X8072571Y26624286D01*
X8072571Y26838572D01*
X8144000Y27124286D01*
X8215428Y27267143D01*
X8358285Y27410000D01*
X8572571Y27481429D01*
X8715428Y27481429D01*
X8929714Y27410000D01*
X9001142Y27338572D01*
X6001142Y24870000D02*
X5858285Y24941429D01*
X5644000Y24941429D01*
X5429714Y24870000D01*
X5286857Y24727143D01*
X5215428Y24584286D01*
X5144000Y24298572D01*
X5144000Y24084286D01*
X5215428Y23798572D01*
X5286857Y23655715D01*
X5429714Y23512858D01*
X5644000Y23441429D01*
X5786857Y23441429D01*
X6001142Y23512858D01*
X6072571Y23584286D01*
X6072571Y24084286D01*
X5786857Y24084286D01*
X6715428Y23441429D02*
X6715428Y24941429D01*
X7572571Y23441429D01*
X7572571Y24941429D01*
X8286857Y23441429D02*
X8286857Y24941429D01*
X8644000Y24941429D01*
X8858285Y24870000D01*
X9001142Y24727143D01*
X9072571Y24584286D01*
X9144000Y24298572D01*
X9144000Y24084286D01*
X9072571Y23798572D01*
X9001142Y23655715D01*
X8858285Y23512858D01*
X8644000Y23441429D01*
X8286857Y23441429D01*
X43057142Y41382858D02*
X43271428Y41311429D01*
X43628571Y41311429D01*
X43771428Y41382858D01*
X43842857Y41454286D01*
X43914285Y41597143D01*
X43914285Y41740000D01*
X43842857Y41882858D01*
X43771428Y41954286D01*
X43628571Y42025715D01*
X43342857Y42097143D01*
X43200000Y42168572D01*
X43128571Y42240000D01*
X43057142Y42382858D01*
X43057142Y42525715D01*
X43128571Y42668572D01*
X43200000Y42740000D01*
X43342857Y42811429D01*
X43700000Y42811429D01*
X43914285Y42740000D01*
X44485714Y42668572D02*
X44557142Y42740000D01*
X44700000Y42811429D01*
X45057142Y42811429D01*
X45200000Y42740000D01*
X45271428Y42668572D01*
X45342857Y42525715D01*
X45342857Y42382858D01*
X45271428Y42168572D01*
X44414285Y41311429D01*
X45342857Y41311429D01*
X14357142Y41532858D02*
X14571428Y41461429D01*
X14928571Y41461429D01*
X15071428Y41532858D01*
X15142857Y41604286D01*
X15214285Y41747143D01*
X15214285Y41890000D01*
X15142857Y42032858D01*
X15071428Y42104286D01*
X14928571Y42175715D01*
X14642857Y42247143D01*
X14500000Y42318572D01*
X14428571Y42390000D01*
X14357142Y42532858D01*
X14357142Y42675715D01*
X14428571Y42818572D01*
X14500000Y42890000D01*
X14642857Y42961429D01*
X15000000Y42961429D01*
X15214285Y42890000D01*
X16142857Y42961429D02*
X16285714Y42961429D01*
X16428571Y42890000D01*
X16500000Y42818572D01*
X16571428Y42675715D01*
X16642857Y42390000D01*
X16642857Y42032858D01*
X16571428Y41747143D01*
X16500000Y41604286D01*
X16428571Y41532858D01*
X16285714Y41461429D01*
X16142857Y41461429D01*
X16000000Y41532858D01*
X15928571Y41604286D01*
X15857142Y41747143D01*
X15785714Y42032858D01*
X15785714Y42390000D01*
X15857142Y42675715D01*
X15928571Y42818572D01*
X16000000Y42890000D01*
X16142857Y42961429D01*
X45321428Y9568572D02*
X45392857Y9640000D01*
X45535714Y9711429D01*
X45892857Y9711429D01*
X46035714Y9640000D01*
X46107142Y9568572D01*
X46178571Y9425715D01*
X46178571Y9282858D01*
X46107142Y9068572D01*
X45250000Y8211429D01*
X46178571Y8211429D01*
X43678571Y8211429D02*
X42821428Y8211429D01*
X43250000Y8211429D02*
X43250000Y9711429D01*
X43107142Y9497143D01*
X42964285Y9354286D01*
X42821428Y9282858D01*
X39107142Y4711429D02*
X39964285Y4711429D01*
X39535714Y3211429D02*
X39535714Y4711429D01*
X40321428Y4711429D02*
X41321428Y3211429D01*
X41321428Y4711429D02*
X40321428Y3211429D01*
X40000000Y5711429D02*
X39500000Y6425715D01*
X39142857Y5711429D02*
X39142857Y7211429D01*
X39714285Y7211429D01*
X39857142Y7140000D01*
X39928571Y7068572D01*
X40000000Y6925715D01*
X40000000Y6711429D01*
X39928571Y6568572D01*
X39857142Y6497143D01*
X39714285Y6425715D01*
X39142857Y6425715D01*
X40500000Y7211429D02*
X41500000Y5711429D01*
X41500000Y7211429D02*
X40500000Y5711429D01*
X12662571Y13569143D02*
X13348285Y13569143D01*
X13005428Y12369143D02*
X13005428Y13569143D01*
X13748285Y12369143D02*
X13748285Y13569143D01*
X14034000Y13569143D01*
X14205428Y13512000D01*
X14319714Y13397715D01*
X14376857Y13283429D01*
X14434000Y13054858D01*
X14434000Y12883429D01*
X14376857Y12654858D01*
X14319714Y12540572D01*
X14205428Y12426286D01*
X14034000Y12369143D01*
X13748285Y12369143D01*
X14948285Y12369143D02*
X14948285Y13569143D01*
X16262571Y13569143D02*
X16948285Y13569143D01*
X16605428Y12369143D02*
X16605428Y13569143D01*
X17348285Y12369143D02*
X17348285Y13569143D01*
X17634000Y13569143D01*
X17805428Y13512000D01*
X17919714Y13397715D01*
X17976857Y13283429D01*
X18034000Y13054858D01*
X18034000Y12883429D01*
X17976857Y12654858D01*
X17919714Y12540572D01*
X17805428Y12426286D01*
X17634000Y12369143D01*
X17348285Y12369143D01*
X18776857Y13569143D02*
X19005428Y13569143D01*
X19119714Y13512000D01*
X19234000Y13397715D01*
X19291142Y13169143D01*
X19291142Y12769143D01*
X19234000Y12540572D01*
X19119714Y12426286D01*
X19005428Y12369143D01*
X18776857Y12369143D01*
X18662571Y12426286D01*
X18548285Y12540572D01*
X18491142Y12769143D01*
X18491142Y13169143D01*
X18548285Y13397715D01*
X18662571Y13512000D01*
X18776857Y13569143D01*
X12319714Y11569143D02*
X13005428Y11569143D01*
X12662571Y10369143D02*
X12662571Y11569143D01*
X14091142Y10483429D02*
X14034000Y10426286D01*
X13862571Y10369143D01*
X13748285Y10369143D01*
X13576857Y10426286D01*
X13462571Y10540572D01*
X13405428Y10654858D01*
X13348285Y10883429D01*
X13348285Y11054858D01*
X13405428Y11283429D01*
X13462571Y11397715D01*
X13576857Y11512000D01*
X13748285Y11569143D01*
X13862571Y11569143D01*
X14034000Y11512000D01*
X14091142Y11454858D01*
X14605428Y10369143D02*
X14605428Y11569143D01*
X15291142Y10369143D02*
X14776857Y11054858D01*
X15291142Y11569143D02*
X14605428Y10883429D01*
X16548285Y11569143D02*
X17234000Y11569143D01*
X16891142Y10369143D02*
X16891142Y11569143D01*
X17634000Y10369143D02*
X17634000Y11569143D01*
X18034000Y10712000D01*
X18434000Y11569143D01*
X18434000Y10369143D01*
X18948285Y10426286D02*
X19119714Y10369143D01*
X19405428Y10369143D01*
X19519714Y10426286D01*
X19576857Y10483429D01*
X19634000Y10597715D01*
X19634000Y10712000D01*
X19576857Y10826286D01*
X19519714Y10883429D01*
X19405428Y10940572D01*
X19176857Y10997715D01*
X19062571Y11054858D01*
X19005428Y11112000D01*
X18948285Y11226286D01*
X18948285Y11340572D01*
X19005428Y11454858D01*
X19062571Y11512000D01*
X19176857Y11569143D01*
X19462571Y11569143D01*
X19634000Y11512000D01*
X13005428Y9512000D02*
X12891142Y9569143D01*
X12719714Y9569143D01*
X12548285Y9512000D01*
X12434000Y9397715D01*
X12376857Y9283429D01*
X12319714Y9054858D01*
X12319714Y8883429D01*
X12376857Y8654858D01*
X12434000Y8540572D01*
X12548285Y8426286D01*
X12719714Y8369143D01*
X12834000Y8369143D01*
X13005428Y8426286D01*
X13062571Y8483429D01*
X13062571Y8883429D01*
X12834000Y8883429D01*
X13576857Y8369143D02*
X13576857Y9569143D01*
X14262571Y8369143D01*
X14262571Y9569143D01*
X14834000Y8369143D02*
X14834000Y9569143D01*
X15119714Y9569143D01*
X15291142Y9512000D01*
X15405428Y9397715D01*
X15462571Y9283429D01*
X15519714Y9054858D01*
X15519714Y8883429D01*
X15462571Y8654858D01*
X15405428Y8540572D01*
X15291142Y8426286D01*
X15119714Y8369143D01*
X14834000Y8369143D01*
X16834000Y9569143D02*
X17576857Y9569143D01*
X17176857Y9112000D01*
X17348285Y9112000D01*
X17462571Y9054858D01*
X17519714Y8997715D01*
X17576857Y8883429D01*
X17576857Y8597715D01*
X17519714Y8483429D01*
X17462571Y8426286D01*
X17348285Y8369143D01*
X17005428Y8369143D01*
X16891142Y8426286D01*
X16834000Y8483429D01*
X17919714Y9569143D02*
X18319714Y8369143D01*
X18719714Y9569143D01*
X19005428Y9569143D02*
X19748285Y9569143D01*
X19348285Y9112000D01*
X19519714Y9112000D01*
X19634000Y9054858D01*
X19691142Y8997715D01*
X19748285Y8883429D01*
X19748285Y8597715D01*
X19691142Y8483429D01*
X19634000Y8426286D01*
X19519714Y8369143D01*
X19176857Y8369143D01*
X19062571Y8426286D01*
X19005428Y8483429D01*
D14*
X35261943Y45140000D02*
G75*
G03X35261943Y45140000I-1261943J0D01*
G01*
D13*
X33428571Y2111429D02*
X33428571Y897143D01*
X33500000Y754286D01*
X33571428Y682858D01*
X33714285Y611429D01*
X34000000Y611429D01*
X34142857Y682858D01*
X34214285Y754286D01*
X34285714Y897143D01*
X34285714Y2111429D01*
X34928571Y682858D02*
X35142857Y611429D01*
X35500000Y611429D01*
X35642857Y682858D01*
X35714285Y754286D01*
X35785714Y897143D01*
X35785714Y1040000D01*
X35714285Y1182858D01*
X35642857Y1254286D01*
X35500000Y1325715D01*
X35214285Y1397143D01*
X35071428Y1468572D01*
X35000000Y1540000D01*
X34928571Y1682858D01*
X34928571Y1825715D01*
X35000000Y1968572D01*
X35071428Y2040000D01*
X35214285Y2111429D01*
X35571428Y2111429D01*
X35785714Y2040000D01*
X36428571Y1397143D02*
X36928571Y1397143D01*
X37142857Y611429D02*
X36428571Y611429D01*
X36428571Y2111429D01*
X37142857Y2111429D01*
X38642857Y611429D02*
X38142857Y1325715D01*
X37785714Y611429D02*
X37785714Y2111429D01*
X38357142Y2111429D01*
X38500000Y2040000D01*
X38571428Y1968572D01*
X38642857Y1825715D01*
X38642857Y1611429D01*
X38571428Y1468572D01*
X38500000Y1397143D01*
X38357142Y1325715D01*
X37785714Y1325715D01*
X34321428Y10711429D02*
X34321428Y12211429D01*
X34892857Y12211429D01*
X35035714Y12140000D01*
X35107142Y12068572D01*
X35178571Y11925715D01*
X35178571Y11711429D01*
X35107142Y11568572D01*
X35035714Y11497143D01*
X34892857Y11425715D01*
X34321428Y11425715D01*
X36678571Y10711429D02*
X36178571Y11425715D01*
X35821428Y10711429D02*
X35821428Y12211429D01*
X36392857Y12211429D01*
X36535714Y12140000D01*
X36607142Y12068572D01*
X36678571Y11925715D01*
X36678571Y11711429D01*
X36607142Y11568572D01*
X36535714Y11497143D01*
X36392857Y11425715D01*
X35821428Y11425715D01*
X37607142Y12211429D02*
X37892857Y12211429D01*
X38035714Y12140000D01*
X38178571Y11997143D01*
X38250000Y11711429D01*
X38250000Y11211429D01*
X38178571Y10925715D01*
X38035714Y10782858D01*
X37892857Y10711429D01*
X37607142Y10711429D01*
X37464285Y10782858D01*
X37321428Y10925715D01*
X37250000Y11211429D01*
X37250000Y11711429D01*
X37321428Y11997143D01*
X37464285Y12140000D01*
X37607142Y12211429D01*
X39678571Y12140000D02*
X39535714Y12211429D01*
X39321428Y12211429D01*
X39107142Y12140000D01*
X38964285Y11997143D01*
X38892857Y11854286D01*
X38821428Y11568572D01*
X38821428Y11354286D01*
X38892857Y11068572D01*
X38964285Y10925715D01*
X39107142Y10782858D01*
X39321428Y10711429D01*
X39464285Y10711429D01*
X39678571Y10782858D01*
X39750000Y10854286D01*
X39750000Y11354286D01*
X39464285Y11354286D01*
D15*
G36*
X45969384Y18514780D02*
G01*
X46127937Y18495162D01*
X46393736Y18424125D01*
X46640123Y18316807D01*
X46864282Y18175840D01*
X47063397Y18003858D01*
X47234655Y17803494D01*
X47375239Y17577379D01*
X47482335Y17328147D01*
X47524080Y17189418D01*
X47547064Y17059942D01*
X47558040Y16906050D01*
X47557018Y16743919D01*
X47544008Y16589727D01*
X47523682Y16477610D01*
X47475199Y16330684D01*
X47400040Y16168057D01*
X47304067Y16001109D01*
X47201648Y15852447D01*
X47146043Y15776306D01*
X47097009Y15705205D01*
X47062944Y15651442D01*
X47056753Y15640249D01*
X47021881Y15551710D01*
X46990332Y15432425D01*
X46964184Y15293964D01*
X46945512Y15147899D01*
X46936393Y15005798D01*
X46935831Y14966391D01*
X46941488Y14813057D01*
X46961805Y14688515D01*
X47001262Y14580469D01*
X47064339Y14476620D01*
X47154702Y14365587D01*
X47227049Y14277909D01*
X47267748Y14213772D01*
X47276675Y14177872D01*
X47266771Y14163376D01*
X47238722Y14140731D01*
X47190130Y14108572D01*
X47118597Y14065535D01*
X47021724Y14010253D01*
X46897111Y13941363D01*
X46742361Y13857500D01*
X46555074Y13757298D01*
X46332851Y13639393D01*
X46296550Y13620199D01*
X46108069Y13520989D01*
X45929960Y13428035D01*
X45765896Y13343198D01*
X45619546Y13268339D01*
X45494582Y13205318D01*
X45394674Y13155998D01*
X45323495Y13122238D01*
X45284715Y13105900D01*
X45279492Y13104642D01*
X45231288Y13115576D01*
X45210700Y13129125D01*
X45192437Y13159198D01*
X45186943Y13205386D01*
X45194461Y13275338D01*
X45215236Y13376705D01*
X45219126Y13393453D01*
X45241691Y13541309D01*
X45240803Y13699629D01*
X45215904Y13876676D01*
X45174665Y14050933D01*
X45146265Y14153246D01*
X45122080Y14219824D01*
X45094433Y14255560D01*
X45055645Y14265347D01*
X44998041Y14254078D01*
X44913943Y14226648D01*
X44904174Y14223337D01*
X44731217Y14186075D01*
X44559105Y14190405D01*
X44391521Y14235681D01*
X44232145Y14321256D01*
X44195454Y14347773D01*
X44110549Y14432000D01*
X44026602Y14551218D01*
X43946416Y14698127D01*
X43872793Y14865425D01*
X43808535Y15045811D01*
X43756445Y15231984D01*
X43719326Y15416642D01*
X43699979Y15592484D01*
X43698035Y15643725D01*
X43698125Y15725088D01*
X43700058Y15743445D01*
X43894973Y15743445D01*
X43895458Y15684819D01*
X43900762Y15593672D01*
X43900815Y15592857D01*
X43924786Y15402000D01*
X43971274Y15192627D01*
X44036592Y14979471D01*
X44088456Y14843312D01*
X44140752Y14733356D01*
X44202237Y14642183D01*
X44284290Y14551696D01*
X44395967Y14455855D01*
X44506429Y14397659D01*
X44622703Y14375829D01*
X44751816Y14389087D01*
X44900793Y14436155D01*
X44906607Y14438460D01*
X45058089Y14504678D01*
X45230496Y14589708D01*
X45411026Y14686780D01*
X45586879Y14789122D01*
X45683739Y14849545D01*
X45777552Y14910940D01*
X45880974Y14980486D01*
X45988242Y15054095D01*
X46093592Y15127676D01*
X46191263Y15197140D01*
X46275491Y15258398D01*
X46340513Y15307361D01*
X46380566Y15339939D01*
X46390765Y15351257D01*
X46374412Y15368601D01*
X46352062Y15378318D01*
X46314481Y15372957D01*
X46242287Y15344290D01*
X46136043Y15292568D01*
X46008103Y15224508D01*
X45886940Y15159424D01*
X45763483Y15095226D01*
X45643595Y15034737D01*
X45533134Y14980780D01*
X45437962Y14936177D01*
X45363939Y14903749D01*
X45316925Y14886321D01*
X45302860Y14884848D01*
X45291395Y14914753D01*
X45278204Y14973849D01*
X45265393Y15049165D01*
X45255069Y15127732D01*
X45249336Y15196581D01*
X45248800Y15217744D01*
X45249030Y15254087D01*
X45252288Y15284538D01*
X45262427Y15312670D01*
X45283299Y15342061D01*
X45318758Y15376286D01*
X45372657Y15418921D01*
X45448847Y15473541D01*
X45551181Y15543722D01*
X45683513Y15633040D01*
X45729983Y15664334D01*
X45843693Y15741415D01*
X45945843Y15811597D01*
X46031069Y15871119D01*
X46094008Y15916219D01*
X46129293Y15943134D01*
X46134523Y15948041D01*
X46153531Y15986047D01*
X46166063Y16026146D01*
X46167679Y16041301D01*
X46161136Y16049149D01*
X46142387Y16048038D01*
X46107384Y16036317D01*
X46052081Y16012333D01*
X45972430Y15974435D01*
X45864383Y15920972D01*
X45723894Y15850291D01*
X45676857Y15826515D01*
X45501637Y15739003D01*
X45361115Y15671348D01*
X45253125Y15622595D01*
X45175499Y15591787D01*
X45126074Y15577967D01*
X45112041Y15577063D01*
X45040034Y15587000D01*
X44937183Y15607534D01*
X44812946Y15636299D01*
X44676778Y15670927D01*
X44538137Y15709054D01*
X44406479Y15748311D01*
X44332885Y15772053D01*
X44211100Y15811726D01*
X44121520Y15837455D01*
X44056706Y15850151D01*
X44009223Y15850726D01*
X43971632Y15840091D01*
X43938260Y15820399D01*
X43914791Y15801615D01*
X43900889Y15779171D01*
X43894973Y15743445D01*
X43700058Y15743445D01*
X43704786Y15788323D01*
X43722330Y15844353D01*
X43755070Y15904099D01*
X43807319Y15978482D01*
X43855200Y16041699D01*
X43917465Y16127096D01*
X43954852Y16192635D01*
X43971040Y16249710D01*
X43969709Y16309716D01*
X43959291Y16364083D01*
X43938171Y16519487D01*
X43939771Y16688210D01*
X43963099Y16851159D01*
X43989400Y16944807D01*
X44016261Y17026117D01*
X44028506Y17082808D01*
X44027828Y17129325D01*
X44016639Y17177640D01*
X44007007Y17231723D01*
X43998911Y17316676D01*
X43993178Y17421038D01*
X43990635Y17533351D01*
X43990610Y17538141D01*
X43990920Y17655643D01*
X43993702Y17739093D01*
X43999899Y17796744D01*
X44010451Y17836850D01*
X44026302Y17867663D01*
X44028615Y17871144D01*
X44102198Y17946444D01*
X44201869Y18002481D01*
X44280425Y18025553D01*
X44336870Y18043759D01*
X44359669Y18069123D01*
X44359800Y18071292D01*
X44373837Y18104950D01*
X44408807Y18150643D01*
X44421672Y18164186D01*
X44475952Y18207271D01*
X44535887Y18224348D01*
X44575508Y18226058D01*
X44676873Y18243289D01*
X44747642Y18280535D01*
X44860655Y18349375D01*
X44963547Y18391272D01*
X45073484Y18411647D01*
X45176695Y18416093D01*
X45330528Y18426127D01*
X45461649Y18456855D01*
X45473028Y18460773D01*
X45620655Y18497939D01*
X45791219Y18516210D01*
X45969384Y18514780D01*
G37*
X45969384Y18514780D02*
X46127937Y18495162D01*
X46393736Y18424125D01*
X46640123Y18316807D01*
X46864282Y18175840D01*
X47063397Y18003858D01*
X47234655Y17803494D01*
X47375239Y17577379D01*
X47482335Y17328147D01*
X47524080Y17189418D01*
X47547064Y17059942D01*
X47558040Y16906050D01*
X47557018Y16743919D01*
X47544008Y16589727D01*
X47523682Y16477610D01*
X47475199Y16330684D01*
X47400040Y16168057D01*
X47304067Y16001109D01*
X47201648Y15852447D01*
X47146043Y15776306D01*
X47097009Y15705205D01*
X47062944Y15651442D01*
X47056753Y15640249D01*
X47021881Y15551710D01*
X46990332Y15432425D01*
X46964184Y15293964D01*
X46945512Y15147899D01*
X46936393Y15005798D01*
X46935831Y14966391D01*
X46941488Y14813057D01*
X46961805Y14688515D01*
X47001262Y14580469D01*
X47064339Y14476620D01*
X47154702Y14365587D01*
X47227049Y14277909D01*
X47267748Y14213772D01*
X47276675Y14177872D01*
X47266771Y14163376D01*
X47238722Y14140731D01*
X47190130Y14108572D01*
X47118597Y14065535D01*
X47021724Y14010253D01*
X46897111Y13941363D01*
X46742361Y13857500D01*
X46555074Y13757298D01*
X46332851Y13639393D01*
X46296550Y13620199D01*
X46108069Y13520989D01*
X45929960Y13428035D01*
X45765896Y13343198D01*
X45619546Y13268339D01*
X45494582Y13205318D01*
X45394674Y13155998D01*
X45323495Y13122238D01*
X45284715Y13105900D01*
X45279492Y13104642D01*
X45231288Y13115576D01*
X45210700Y13129125D01*
X45192437Y13159198D01*
X45186943Y13205386D01*
X45194461Y13275338D01*
X45215236Y13376705D01*
X45219126Y13393453D01*
X45241691Y13541309D01*
X45240803Y13699629D01*
X45215904Y13876676D01*
X45174665Y14050933D01*
X45146265Y14153246D01*
X45122080Y14219824D01*
X45094433Y14255560D01*
X45055645Y14265347D01*
X44998041Y14254078D01*
X44913943Y14226648D01*
X44904174Y14223337D01*
X44731217Y14186075D01*
X44559105Y14190405D01*
X44391521Y14235681D01*
X44232145Y14321256D01*
X44195454Y14347773D01*
X44110549Y14432000D01*
X44026602Y14551218D01*
X43946416Y14698127D01*
X43872793Y14865425D01*
X43808535Y15045811D01*
X43756445Y15231984D01*
X43719326Y15416642D01*
X43699979Y15592484D01*
X43698035Y15643725D01*
X43698125Y15725088D01*
X43700058Y15743445D01*
X43894973Y15743445D01*
X43895458Y15684819D01*
X43900762Y15593672D01*
X43900815Y15592857D01*
X43924786Y15402000D01*
X43971274Y15192627D01*
X44036592Y14979471D01*
X44088456Y14843312D01*
X44140752Y14733356D01*
X44202237Y14642183D01*
X44284290Y14551696D01*
X44395967Y14455855D01*
X44506429Y14397659D01*
X44622703Y14375829D01*
X44751816Y14389087D01*
X44900793Y14436155D01*
X44906607Y14438460D01*
X45058089Y14504678D01*
X45230496Y14589708D01*
X45411026Y14686780D01*
X45586879Y14789122D01*
X45683739Y14849545D01*
X45777552Y14910940D01*
X45880974Y14980486D01*
X45988242Y15054095D01*
X46093592Y15127676D01*
X46191263Y15197140D01*
X46275491Y15258398D01*
X46340513Y15307361D01*
X46380566Y15339939D01*
X46390765Y15351257D01*
X46374412Y15368601D01*
X46352062Y15378318D01*
X46314481Y15372957D01*
X46242287Y15344290D01*
X46136043Y15292568D01*
X46008103Y15224508D01*
X45886940Y15159424D01*
X45763483Y15095226D01*
X45643595Y15034737D01*
X45533134Y14980780D01*
X45437962Y14936177D01*
X45363939Y14903749D01*
X45316925Y14886321D01*
X45302860Y14884848D01*
X45291395Y14914753D01*
X45278204Y14973849D01*
X45265393Y15049165D01*
X45255069Y15127732D01*
X45249336Y15196581D01*
X45248800Y15217744D01*
X45249030Y15254087D01*
X45252288Y15284538D01*
X45262427Y15312670D01*
X45283299Y15342061D01*
X45318758Y15376286D01*
X45372657Y15418921D01*
X45448847Y15473541D01*
X45551181Y15543722D01*
X45683513Y15633040D01*
X45729983Y15664334D01*
X45843693Y15741415D01*
X45945843Y15811597D01*
X46031069Y15871119D01*
X46094008Y15916219D01*
X46129293Y15943134D01*
X46134523Y15948041D01*
X46153531Y15986047D01*
X46166063Y16026146D01*
X46167679Y16041301D01*
X46161136Y16049149D01*
X46142387Y16048038D01*
X46107384Y16036317D01*
X46052081Y16012333D01*
X45972430Y15974435D01*
X45864383Y15920972D01*
X45723894Y15850291D01*
X45676857Y15826515D01*
X45501637Y15739003D01*
X45361115Y15671348D01*
X45253125Y15622595D01*
X45175499Y15591787D01*
X45126074Y15577967D01*
X45112041Y15577063D01*
X45040034Y15587000D01*
X44937183Y15607534D01*
X44812946Y15636299D01*
X44676778Y15670927D01*
X44538137Y15709054D01*
X44406479Y15748311D01*
X44332885Y15772053D01*
X44211100Y15811726D01*
X44121520Y15837455D01*
X44056706Y15850151D01*
X44009223Y15850726D01*
X43971632Y15840091D01*
X43938260Y15820399D01*
X43914791Y15801615D01*
X43900889Y15779171D01*
X43894973Y15743445D01*
X43700058Y15743445D01*
X43704786Y15788323D01*
X43722330Y15844353D01*
X43755070Y15904099D01*
X43807319Y15978482D01*
X43855200Y16041699D01*
X43917465Y16127096D01*
X43954852Y16192635D01*
X43971040Y16249710D01*
X43969709Y16309716D01*
X43959291Y16364083D01*
X43938171Y16519487D01*
X43939771Y16688210D01*
X43963099Y16851159D01*
X43989400Y16944807D01*
X44016261Y17026117D01*
X44028506Y17082808D01*
X44027828Y17129325D01*
X44016639Y17177640D01*
X44007007Y17231723D01*
X43998911Y17316676D01*
X43993178Y17421038D01*
X43990635Y17533351D01*
X43990610Y17538141D01*
X43990920Y17655643D01*
X43993702Y17739093D01*
X43999899Y17796744D01*
X44010451Y17836850D01*
X44026302Y17867663D01*
X44028615Y17871144D01*
X44102198Y17946444D01*
X44201869Y18002481D01*
X44280425Y18025553D01*
X44336870Y18043759D01*
X44359669Y18069123D01*
X44359800Y18071292D01*
X44373837Y18104950D01*
X44408807Y18150643D01*
X44421672Y18164186D01*
X44475952Y18207271D01*
X44535887Y18224348D01*
X44575508Y18226058D01*
X44676873Y18243289D01*
X44747642Y18280535D01*
X44860655Y18349375D01*
X44963547Y18391272D01*
X45073484Y18411647D01*
X45176695Y18416093D01*
X45330528Y18426127D01*
X45461649Y18456855D01*
X45473028Y18460773D01*
X45620655Y18497939D01*
X45791219Y18516210D01*
X45969384Y18514780D01*
D11*
X20400000Y140000D02*
X27600000Y140000D01*
X20400000Y140000D02*
X20400000Y5790000D01*
X20400000Y5790000D02*
X27600000Y5790000D01*
X27600000Y5790000D02*
X27600000Y140000D01*
D14*
X18380000Y13780000D02*
X18380000Y36000000D01*
X41600000Y13780000D02*
X18380000Y13780000D01*
X41600000Y37000000D02*
X41600000Y13780000D01*
X19380000Y37000000D02*
X41600000Y37000000D01*
D16*
X43100000Y28790000D02*
G75*
G03X43100000Y28790000I-100000J0D01*
G01*
D14*
X43400000Y22290000D02*
X51400000Y22290000D01*
X47400000Y28490000D02*
X51400000Y28490000D01*
X12300000Y8190000D02*
G75*
G03X12300000Y8190000I-1500000J0D01*
G01*
X47000000Y-80000D02*
X45670000Y-80000D01*
X47000000Y1250000D02*
X47000000Y-80000D01*
X44400000Y-80000D02*
X41800000Y-80000D01*
X44400000Y2520000D02*
X44400000Y-80000D01*
X47000000Y2520000D02*
X44400000Y2520000D01*
X41800000Y-80000D02*
X41800000Y7660000D01*
X47000000Y2520000D02*
X47000000Y7660000D01*
X47000000Y7660000D02*
X41800000Y7660000D01*
X45450000Y50600000D02*
X45450000Y44150000D01*
X31530000Y50600000D02*
X31530000Y44150000D01*
X45450000Y43440000D02*
X31530000Y43440000D01*
X31530000Y43440000D02*
X31530000Y44150000D01*
X45450000Y43440000D02*
X45450000Y44150000D01*
X18330000Y-80000D02*
X17000000Y-80000D01*
X18330000Y1250000D02*
X18330000Y-80000D01*
X15730000Y-80000D02*
X13130000Y-80000D01*
X15730000Y2520000D02*
X15730000Y-80000D01*
X18330000Y2520000D02*
X15730000Y2520000D01*
X13130000Y-80000D02*
X13130000Y7660000D01*
X18330000Y2520000D02*
X18330000Y7660000D01*
X18330000Y7660000D02*
X13130000Y7660000D01*
D17*
X30631421Y7350000D02*
G75*
G03X30631421Y7350000I-141421J0D01*
G01*
D14*
X28990000Y9250000D02*
X28990000Y6250000D01*
X30990000Y7750000D02*
X30990000Y6250000D01*
X30990000Y7750000D02*
X30990000Y9250000D01*
X48480000Y43932000D02*
G75*
G03X48480000Y43932000I-950000J0D01*
G01*
X48480000Y49520000D02*
G75*
G03X48480000Y49520000I-950000J0D01*
G01*
X48825000Y19625000D02*
G75*
G03X48825000Y19625000I-950000J0D01*
G01*
X51365000Y19625000D02*
G75*
G03X51365000Y19625000I-950000J0D01*
G01*
X26325000Y10875000D02*
G75*
G03X26325000Y10875000I-950000J0D01*
G01*
X23785000Y10875000D02*
G75*
G03X23785000Y10875000I-950000J0D01*
G01*
X18415000Y40375000D02*
G75*
G03X18415000Y40375000I-950000J0D01*
G01*
X20950000Y40375000D02*
G75*
G03X20950000Y40375000I-950000J0D01*
G01*
X33790000Y4240000D02*
X33790000Y4340000D01*
X38190000Y5840000D02*
X33790000Y5840000D01*
X33790000Y2740000D02*
X38190000Y2740000D01*
X38190000Y4240000D02*
X38190000Y4340000D01*
D11*
X-8830000Y48240000D02*
X0Y48240000D01*
X-8830000Y50780000D02*
X-8830000Y48240000D01*
X0Y50780000D02*
X-8830000Y50780000D01*
X4960000Y51060000D02*
X3810000Y51060000D01*
X4960000Y49510000D02*
X4960000Y51060000D01*
X0Y50780000D02*
X0Y48240000D01*
X0Y48240000D02*
X-8830000Y48240000D01*
X0Y45700000D02*
X-8830000Y45700000D01*
X0Y48240000D02*
X0Y45700000D01*
X-8830000Y48240000D02*
X-8830000Y45700000D01*
X-8830000Y45700000D02*
X0Y45700000D01*
X-8830000Y43160000D02*
X0Y43160000D01*
X-8830000Y45700000D02*
X-8830000Y43160000D01*
X0Y45700000D02*
X0Y43160000D01*
X0Y43160000D02*
X-8830000Y43160000D01*
X0Y40620000D02*
X-8830000Y40620000D01*
X0Y43160000D02*
X0Y40620000D01*
X-8830000Y43160000D02*
X-8830000Y40620000D01*
X-8830000Y40620000D02*
X0Y40620000D01*
X-8830000Y38080000D02*
X0Y38080000D01*
X-8830000Y40620000D02*
X-8830000Y38080000D01*
X0Y40620000D02*
X0Y38080000D01*
X0Y38080000D02*
X-8830000Y38080000D01*
X0Y35540000D02*
X-8830000Y35540000D01*
X0Y38080000D02*
X0Y35540000D01*
X-8830000Y38080000D02*
X-8830000Y35540000D01*
X-8830000Y35540000D02*
X0Y35540000D01*
X-8830000Y22840000D02*
X0Y22840000D01*
X-8830000Y25380000D02*
X-8830000Y22840000D01*
X0Y25380000D02*
X0Y22840000D01*
X0Y22840000D02*
X-8830000Y22840000D01*
X0Y25380000D02*
X-8830000Y25380000D01*
X0Y27920000D02*
X0Y25380000D01*
X-8830000Y27920000D02*
X-8830000Y25380000D01*
X-8830000Y25380000D02*
X0Y25380000D01*
X-8830000Y27920000D02*
X0Y27920000D01*
X-8830000Y30460000D02*
X-8830000Y27920000D01*
X0Y30460000D02*
X0Y27920000D01*
X0Y27920000D02*
X-8830000Y27920000D01*
X0Y30460000D02*
X-8830000Y30460000D01*
X0Y33000000D02*
X0Y30460000D01*
X-8830000Y33000000D02*
X-8830000Y30460000D01*
X-8830000Y30460000D02*
X0Y30460000D01*
X-8830000Y33000000D02*
X0Y33000000D01*
X-8830000Y35540000D02*
X-8830000Y33000000D01*
X0Y35540000D02*
X0Y33000000D01*
X0Y33000000D02*
X-8830000Y33000000D01*
X0Y15220000D02*
X-8830000Y15220000D01*
X0Y17760000D02*
X0Y15220000D01*
X-8830000Y17760000D02*
X-8830000Y15220000D01*
X-8830000Y15220000D02*
X0Y15220000D01*
X-8830000Y12680000D02*
X0Y12680000D01*
X-8830000Y15220000D02*
X-8830000Y12680000D01*
X0Y15220000D02*
X0Y12680000D01*
X0Y12680000D02*
X-8830000Y12680000D01*
X0Y10140000D02*
X-8830000Y10140000D01*
X0Y12680000D02*
X0Y10140000D01*
X-8830000Y12680000D02*
X-8830000Y10140000D01*
X-8830000Y10140000D02*
X0Y10140000D01*
X-8830000Y7600000D02*
X0Y7600000D01*
X-8830000Y10140000D02*
X-8830000Y7600000D01*
X0Y10140000D02*
X0Y7600000D01*
X0Y7600000D02*
X-8830000Y7600000D01*
X0Y5060000D02*
X-8830000Y5060000D01*
X0Y7600000D02*
X0Y5060000D01*
X-8830000Y7600000D02*
X-8830000Y5060000D01*
X-8830000Y5060000D02*
X0Y5060000D01*
X-8830000Y17760000D02*
X0Y17760000D01*
X-8830000Y20300000D02*
X-8830000Y17760000D01*
X0Y20300000D02*
X0Y17760000D01*
X0Y17760000D02*
X-8830000Y17760000D01*
X0Y20300000D02*
X-8830000Y20300000D01*
X0Y22840000D02*
X0Y20300000D01*
X-8830000Y22840000D02*
X-8830000Y20300000D01*
X-8830000Y20300000D02*
X0Y20300000D01*
X-8830000Y2520000D02*
X0Y2520000D01*
X-8830000Y5060000D02*
X-8830000Y2520000D01*
X0Y5060000D02*
X0Y2520000D01*
X0Y2520000D02*
X-8830000Y2520000D01*
X0Y-20000D02*
X-8830000Y-20000D01*
X0Y2520000D02*
X0Y-20000D01*
X-8830000Y2520000D02*
X-8830000Y-20000D01*
X-8830000Y-20000D02*
X0Y-20000D01*
D14*
X33800000Y8590000D02*
X33800000Y8690000D01*
X38200000Y10190000D02*
X33800000Y10190000D01*
X33800000Y7090000D02*
X38200000Y7090000D01*
X38200000Y8590000D02*
X38200000Y8690000D01*
X28450000Y50600000D02*
X28450000Y44150000D01*
X14530000Y50600000D02*
X14530000Y44150000D01*
X28450000Y43440000D02*
X14530000Y43440000D01*
X14530000Y43440000D02*
X14530000Y44150000D01*
X28450000Y43440000D02*
X28450000Y44150000D01*
D11*
X68810000Y2520000D02*
X59980000Y2520000D01*
X68810000Y-20000D02*
X68810000Y2520000D01*
X59980000Y-20000D02*
X68810000Y-20000D01*
X55020000Y-300000D02*
X56170000Y-300000D01*
X55020000Y1250000D02*
X55020000Y-300000D01*
X59980000Y-20000D02*
X59980000Y2520000D01*
X59980000Y2520000D02*
X68810000Y2520000D01*
X59980000Y5060000D02*
X68810000Y5060000D01*
X59980000Y2520000D02*
X59980000Y5060000D01*
X68810000Y2520000D02*
X68810000Y5060000D01*
X68810000Y5060000D02*
X59980000Y5060000D01*
X68810000Y7600000D02*
X59980000Y7600000D01*
X68810000Y5060000D02*
X68810000Y7600000D01*
X59980000Y5060000D02*
X59980000Y7600000D01*
X59980000Y7600000D02*
X68810000Y7600000D01*
X59980000Y10140000D02*
X68810000Y10140000D01*
X59980000Y7600000D02*
X59980000Y10140000D01*
X68810000Y7600000D02*
X68810000Y10140000D01*
X68810000Y10140000D02*
X59980000Y10140000D01*
X68810000Y12680000D02*
X59980000Y12680000D01*
X68810000Y10140000D02*
X68810000Y12680000D01*
X59980000Y10140000D02*
X59980000Y12680000D01*
X59980000Y12680000D02*
X68810000Y12680000D01*
X59980000Y15220000D02*
X68810000Y15220000D01*
X59980000Y12680000D02*
X59980000Y15220000D01*
X68810000Y12680000D02*
X68810000Y15220000D01*
X68810000Y15220000D02*
X59980000Y15220000D01*
X68810000Y27920000D02*
X59980000Y27920000D01*
X68810000Y25380000D02*
X68810000Y27920000D01*
X59980000Y25380000D02*
X59980000Y27920000D01*
X59980000Y27920000D02*
X68810000Y27920000D01*
X59980000Y25380000D02*
X68810000Y25380000D01*
X59980000Y22840000D02*
X59980000Y25380000D01*
X68810000Y22840000D02*
X68810000Y25380000D01*
X68810000Y25380000D02*
X59980000Y25380000D01*
X68810000Y22840000D02*
X59980000Y22840000D01*
X68810000Y20300000D02*
X68810000Y22840000D01*
X59980000Y20300000D02*
X59980000Y22840000D01*
X59980000Y22840000D02*
X68810000Y22840000D01*
X59980000Y20300000D02*
X68810000Y20300000D01*
X59980000Y17760000D02*
X59980000Y20300000D01*
X68810000Y17760000D02*
X68810000Y20300000D01*
X68810000Y20300000D02*
X59980000Y20300000D01*
X68810000Y17760000D02*
X59980000Y17760000D01*
X68810000Y15220000D02*
X68810000Y17760000D01*
X59980000Y15220000D02*
X59980000Y17760000D01*
X59980000Y17760000D02*
X68810000Y17760000D01*
X59980000Y35540000D02*
X68810000Y35540000D01*
X59980000Y33000000D02*
X59980000Y35540000D01*
X68810000Y33000000D02*
X68810000Y35540000D01*
X68810000Y35540000D02*
X59980000Y35540000D01*
X68810000Y38080000D02*
X59980000Y38080000D01*
X68810000Y35540000D02*
X68810000Y38080000D01*
X59980000Y35540000D02*
X59980000Y38080000D01*
X59980000Y38080000D02*
X68810000Y38080000D01*
X59980000Y40620000D02*
X68810000Y40620000D01*
X59980000Y38080000D02*
X59980000Y40620000D01*
X68810000Y38080000D02*
X68810000Y40620000D01*
X68810000Y40620000D02*
X59980000Y40620000D01*
X68810000Y43160000D02*
X59980000Y43160000D01*
X68810000Y40620000D02*
X68810000Y43160000D01*
X59980000Y40620000D02*
X59980000Y43160000D01*
X59980000Y43160000D02*
X68810000Y43160000D01*
X59980000Y45700000D02*
X68810000Y45700000D01*
X59980000Y43160000D02*
X59980000Y45700000D01*
X68810000Y43160000D02*
X68810000Y45700000D01*
X68810000Y45700000D02*
X59980000Y45700000D01*
X68810000Y33000000D02*
X59980000Y33000000D01*
X68810000Y30460000D02*
X68810000Y33000000D01*
X59980000Y30460000D02*
X59980000Y33000000D01*
X59980000Y33000000D02*
X68810000Y33000000D01*
X59980000Y30460000D02*
X68810000Y30460000D01*
X59980000Y27920000D02*
X59980000Y30460000D01*
X68810000Y27920000D02*
X68810000Y30460000D01*
X68810000Y30460000D02*
X59980000Y30460000D01*
X68810000Y48240000D02*
X59980000Y48240000D01*
X68810000Y45700000D02*
X68810000Y48240000D01*
X59980000Y45700000D02*
X59980000Y48240000D01*
X59980000Y48240000D02*
X68810000Y48240000D01*
X59980000Y50780000D02*
X68810000Y50780000D01*
X59980000Y48240000D02*
X59980000Y50780000D01*
X68810000Y48240000D02*
X68810000Y50780000D01*
X68810000Y50780000D02*
X59980000Y50780000D01*
D14*
X31110000Y430000D02*
X30000000Y430000D01*
X31110000Y1190000D02*
X31110000Y430000D01*
X29436529Y1950000D02*
X28890000Y1950000D01*
X31110000Y1950000D02*
X30563471Y1950000D01*
X28890000Y1950000D02*
X28890000Y3155000D01*
X31110000Y1950000D02*
X31110000Y3155000D01*
X29692470Y3155000D02*
X28890000Y3155000D01*
X31110000Y3155000D02*
X30307530Y3155000D01*
D11*
X26952380Y7747143D02*
X26476190Y7413810D01*
X26952380Y7175715D02*
X25952380Y7175715D01*
X25952380Y7556667D01*
X26000000Y7651905D01*
X26047619Y7699524D01*
X26142857Y7747143D01*
X26285714Y7747143D01*
X26380952Y7699524D01*
X26428571Y7651905D01*
X26476190Y7556667D01*
X26476190Y7175715D01*
X25952380Y8080477D02*
X25952380Y8699524D01*
X26333333Y8366191D01*
X26333333Y8509048D01*
X26380952Y8604286D01*
X26428571Y8651905D01*
X26523809Y8699524D01*
X26761904Y8699524D01*
X26857142Y8651905D01*
X26904761Y8604286D01*
X26952380Y8509048D01*
X26952380Y8223334D01*
X26904761Y8128096D01*
X26857142Y8080477D01*
X25952380Y9604286D02*
X25952380Y9128096D01*
X26428571Y9080477D01*
X26380952Y9128096D01*
X26333333Y9223334D01*
X26333333Y9461429D01*
X26380952Y9556667D01*
X26428571Y9604286D01*
X26523809Y9651905D01*
X26761904Y9651905D01*
X26857142Y9604286D01*
X26904761Y9556667D01*
X26952380Y9461429D01*
X26952380Y9223334D01*
X26904761Y9128096D01*
X26857142Y9080477D01*
X28452380Y7747143D02*
X27976190Y7413810D01*
X28452380Y7175715D02*
X27452380Y7175715D01*
X27452380Y7556667D01*
X27500000Y7651905D01*
X27547619Y7699524D01*
X27642857Y7747143D01*
X27785714Y7747143D01*
X27880952Y7699524D01*
X27928571Y7651905D01*
X27976190Y7556667D01*
X27976190Y7175715D01*
X27452380Y8080477D02*
X27452380Y8699524D01*
X27833333Y8366191D01*
X27833333Y8509048D01*
X27880952Y8604286D01*
X27928571Y8651905D01*
X28023809Y8699524D01*
X28261904Y8699524D01*
X28357142Y8651905D01*
X28404761Y8604286D01*
X28452380Y8509048D01*
X28452380Y8223334D01*
X28404761Y8128096D01*
X28357142Y8080477D01*
X27785714Y9556667D02*
X28452380Y9556667D01*
X27404761Y9318572D02*
X28119047Y9080477D01*
X28119047Y9699524D01*
X32952380Y7747143D02*
X32476190Y7413810D01*
X32952380Y7175715D02*
X31952380Y7175715D01*
X31952380Y7556667D01*
X32000000Y7651905D01*
X32047619Y7699524D01*
X32142857Y7747143D01*
X32285714Y7747143D01*
X32380952Y7699524D01*
X32428571Y7651905D01*
X32476190Y7556667D01*
X32476190Y7175715D01*
X31952380Y8080477D02*
X31952380Y8699524D01*
X32333333Y8366191D01*
X32333333Y8509048D01*
X32380952Y8604286D01*
X32428571Y8651905D01*
X32523809Y8699524D01*
X32761904Y8699524D01*
X32857142Y8651905D01*
X32904761Y8604286D01*
X32952380Y8509048D01*
X32952380Y8223334D01*
X32904761Y8128096D01*
X32857142Y8080477D01*
X31952380Y9318572D02*
X31952380Y9413810D01*
X32000000Y9509048D01*
X32047619Y9556667D01*
X32142857Y9604286D01*
X32333333Y9651905D01*
X32571428Y9651905D01*
X32761904Y9604286D01*
X32857142Y9556667D01*
X32904761Y9509048D01*
X32952380Y9413810D01*
X32952380Y9318572D01*
X32904761Y9223334D01*
X32857142Y9175715D01*
X32761904Y9128096D01*
X32571428Y9080477D01*
X32333333Y9080477D01*
X32142857Y9128096D01*
X32047619Y9175715D01*
X32000000Y9223334D01*
X31952380Y9318572D01*
X48952380Y25723334D02*
X48476190Y25390000D01*
X48952380Y25151905D02*
X47952380Y25151905D01*
X47952380Y25532858D01*
X48000000Y25628096D01*
X48047619Y25675715D01*
X48142857Y25723334D01*
X48285714Y25723334D01*
X48380952Y25675715D01*
X48428571Y25628096D01*
X48476190Y25532858D01*
X48476190Y25151905D01*
X47952380Y26056667D02*
X47952380Y26723334D01*
X48952380Y26294762D01*
X48833333Y26937620D02*
X48500000Y27413810D01*
X48261904Y26937620D02*
X48261904Y27937620D01*
X48642857Y27937620D01*
X48738095Y27890000D01*
X48785714Y27842381D01*
X48833333Y27747143D01*
X48833333Y27604286D01*
X48785714Y27509048D01*
X48738095Y27461429D01*
X48642857Y27413810D01*
X48261904Y27413810D01*
X49690476Y27937620D02*
X49500000Y27937620D01*
X49404761Y27890000D01*
X49357142Y27842381D01*
X49261904Y27699524D01*
X49214285Y27509048D01*
X49214285Y27128096D01*
X49261904Y27032858D01*
X49309523Y26985239D01*
X49404761Y26937620D01*
X49595238Y26937620D01*
X49690476Y26985239D01*
X49738095Y27032858D01*
X49785714Y27128096D01*
X49785714Y27366191D01*
X49738095Y27461429D01*
X49690476Y27509048D01*
X49595238Y27556667D01*
X49404761Y27556667D01*
X49309523Y27509048D01*
X49261904Y27461429D01*
X49214285Y27366191D01*
X48833333Y22937620D02*
X48500000Y23413810D01*
X48261904Y22937620D02*
X48261904Y23937620D01*
X48642857Y23937620D01*
X48738095Y23890000D01*
X48785714Y23842381D01*
X48833333Y23747143D01*
X48833333Y23604286D01*
X48785714Y23509048D01*
X48738095Y23461429D01*
X48642857Y23413810D01*
X48261904Y23413810D01*
X49738095Y23937620D02*
X49261904Y23937620D01*
X49214285Y23461429D01*
X49261904Y23509048D01*
X49357142Y23556667D01*
X49595238Y23556667D01*
X49690476Y23509048D01*
X49738095Y23461429D01*
X49785714Y23366191D01*
X49785714Y23128096D01*
X49738095Y23032858D01*
X49690476Y22985239D01*
X49595238Y22937620D01*
X49357142Y22937620D01*
X49261904Y22985239D01*
X49214285Y23032858D01*
X29833333Y5107620D02*
X29500000Y5583810D01*
X29261904Y5107620D02*
X29261904Y6107620D01*
X29642857Y6107620D01*
X29738095Y6060000D01*
X29785714Y6012381D01*
X29833333Y5917143D01*
X29833333Y5774286D01*
X29785714Y5679048D01*
X29738095Y5631429D01*
X29642857Y5583810D01*
X29261904Y5583810D01*
X30690476Y5774286D02*
X30690476Y5107620D01*
X30452380Y6155239D02*
X30214285Y5440953D01*
X30833333Y5440953D01*
X41222380Y9023334D02*
X40746190Y8690000D01*
X41222380Y8451905D02*
X40222380Y8451905D01*
X40222380Y8832858D01*
X40270000Y8928096D01*
X40317619Y8975715D01*
X40412857Y9023334D01*
X40555714Y9023334D01*
X40650952Y8975715D01*
X40698571Y8928096D01*
X40746190Y8832858D01*
X40746190Y8451905D01*
X40222380Y9356667D02*
X40222380Y9975715D01*
X40603333Y9642381D01*
X40603333Y9785239D01*
X40650952Y9880477D01*
X40698571Y9928096D01*
X40793809Y9975715D01*
X41031904Y9975715D01*
X41127142Y9928096D01*
X41174761Y9880477D01*
X41222380Y9785239D01*
X41222380Y9499524D01*
X41174761Y9404286D01*
X41127142Y9356667D01*
X32333333Y11937620D02*
X32000000Y12413810D01*
X31761904Y11937620D02*
X31761904Y12937620D01*
X32142857Y12937620D01*
X32238095Y12890000D01*
X32285714Y12842381D01*
X32333333Y12747143D01*
X32333333Y12604286D01*
X32285714Y12509048D01*
X32238095Y12461429D01*
X32142857Y12413810D01*
X31761904Y12413810D01*
X33285714Y11937620D02*
X32714285Y11937620D01*
X33000000Y11937620D02*
X33000000Y12937620D01*
X32904761Y12794762D01*
X32809523Y12699524D01*
X32714285Y12651905D01*
X23190476Y3587620D02*
X23190476Y2873334D01*
X23142857Y2730477D01*
X23047619Y2635239D01*
X22904761Y2587620D01*
X22809523Y2587620D01*
X24190476Y2587620D02*
X23619047Y2587620D01*
X23904761Y2587620D02*
X23904761Y3587620D01*
X23809523Y3444762D01*
X23714285Y3349524D01*
X23619047Y3301905D01*
X24809523Y3587620D02*
X24904761Y3587620D01*
X25000000Y3540000D01*
X25047619Y3492381D01*
X25095238Y3397143D01*
X25142857Y3206667D01*
X25142857Y2968572D01*
X25095238Y2778096D01*
X25047619Y2682858D01*
X25000000Y2635239D01*
X24904761Y2587620D01*
X24809523Y2587620D01*
X24714285Y2635239D01*
X24666666Y2682858D01*
X24619047Y2778096D01*
X24571428Y2968572D01*
X24571428Y3206667D01*
X24619047Y3397143D01*
X24666666Y3492381D01*
X24714285Y3540000D01*
X24809523Y3587620D01*
X29397969Y42082894D02*
X29397969Y42015550D01*
X29330625Y41880863D01*
X29263282Y41813520D01*
X29128595Y41746176D01*
X28993908Y41746176D01*
X28892893Y41779848D01*
X28724534Y41880863D01*
X28623519Y41981878D01*
X28522503Y42150237D01*
X28488832Y42251252D01*
X28488832Y42385939D01*
X28556175Y42520626D01*
X28623519Y42587970D01*
X28758206Y42655313D01*
X28825549Y42655313D01*
X29094923Y42924688D02*
X29094923Y42992031D01*
X29128595Y43093046D01*
X29296954Y43261405D01*
X29397969Y43295077D01*
X29465312Y43295077D01*
X29566328Y43261405D01*
X29633671Y43194062D01*
X29701015Y43059375D01*
X29701015Y42251252D01*
X30138748Y42688985D01*
X29768358Y43598123D02*
X29768358Y43665466D01*
X29802030Y43766481D01*
X29970389Y43934840D01*
X30071404Y43968512D01*
X30138748Y43968512D01*
X30239763Y43934840D01*
X30307106Y43867497D01*
X30374450Y43732810D01*
X30374450Y42924688D01*
X30812183Y43362420D01*
X30197969Y41282894D02*
X30197969Y41215550D01*
X30130625Y41080863D01*
X30063282Y41013520D01*
X29928595Y40946176D01*
X29793908Y40946176D01*
X29692893Y40979848D01*
X29524534Y41080863D01*
X29423519Y41181878D01*
X29322503Y41350237D01*
X29288832Y41451252D01*
X29288832Y41585939D01*
X29356175Y41720626D01*
X29423519Y41787970D01*
X29558206Y41855313D01*
X29625549Y41855313D01*
X29894923Y42124688D02*
X29894923Y42192031D01*
X29928595Y42293046D01*
X30096954Y42461405D01*
X30197969Y42495077D01*
X30265312Y42495077D01*
X30366328Y42461405D01*
X30433671Y42394062D01*
X30501015Y42259375D01*
X30501015Y41451252D01*
X30938748Y41888985D01*
X31073435Y42966481D02*
X31544839Y42495077D01*
X30635702Y43067497D02*
X30972419Y42394062D01*
X31410152Y42831794D01*
D13*
X8978571Y40290000D02*
X10050000Y40290000D01*
X10264285Y40218572D01*
X10407142Y40075715D01*
X10478571Y39861429D01*
X10478571Y39718572D01*
X10478571Y41790000D02*
X10478571Y40932858D01*
X10478571Y41361429D02*
X8978571Y41361429D01*
X9192857Y41218572D01*
X9335714Y41075715D01*
X9407142Y40932858D01*
X49578571Y40290000D02*
X50650000Y40290000D01*
X50864285Y40218572D01*
X51007142Y40075715D01*
X51078571Y39861429D01*
X51078571Y39718572D01*
X49721428Y40932858D02*
X49650000Y41004286D01*
X49578571Y41147143D01*
X49578571Y41504286D01*
X49650000Y41647143D01*
X49721428Y41718572D01*
X49864285Y41790000D01*
X50007142Y41790000D01*
X50221428Y41718572D01*
X51078571Y40861429D01*
X51078571Y41790000D01*
D11*
X23957142Y38747143D02*
X24004761Y38699524D01*
X24052380Y38556667D01*
X24052380Y38461429D01*
X24004761Y38318572D01*
X23909523Y38223334D01*
X23814285Y38175715D01*
X23623809Y38128096D01*
X23480952Y38128096D01*
X23290476Y38175715D01*
X23195238Y38223334D01*
X23100000Y38318572D01*
X23052380Y38461429D01*
X23052380Y38556667D01*
X23100000Y38699524D01*
X23147619Y38747143D01*
X23147619Y39128096D02*
X23100000Y39175715D01*
X23052380Y39270953D01*
X23052380Y39509048D01*
X23100000Y39604286D01*
X23147619Y39651905D01*
X23242857Y39699524D01*
X23338095Y39699524D01*
X23480952Y39651905D01*
X24052380Y39080477D01*
X24052380Y39699524D01*
X23480952Y40270953D02*
X23433333Y40175715D01*
X23385714Y40128096D01*
X23290476Y40080477D01*
X23242857Y40080477D01*
X23147619Y40128096D01*
X23100000Y40175715D01*
X23052380Y40270953D01*
X23052380Y40461429D01*
X23100000Y40556667D01*
X23147619Y40604286D01*
X23242857Y40651905D01*
X23290476Y40651905D01*
X23385714Y40604286D01*
X23433333Y40556667D01*
X23480952Y40461429D01*
X23480952Y40270953D01*
X23528571Y40175715D01*
X23576190Y40128096D01*
X23671428Y40080477D01*
X23861904Y40080477D01*
X23957142Y40128096D01*
X24004761Y40175715D01*
X24052380Y40270953D01*
X24052380Y40461429D01*
X24004761Y40556667D01*
X23957142Y40604286D01*
X23861904Y40651905D01*
X23671428Y40651905D01*
X23576190Y40604286D01*
X23528571Y40556667D01*
X23480952Y40461429D01*
X25157142Y38747143D02*
X25204761Y38699524D01*
X25252380Y38556667D01*
X25252380Y38461429D01*
X25204761Y38318572D01*
X25109523Y38223334D01*
X25014285Y38175715D01*
X24823809Y38128096D01*
X24680952Y38128096D01*
X24490476Y38175715D01*
X24395238Y38223334D01*
X24300000Y38318572D01*
X24252380Y38461429D01*
X24252380Y38556667D01*
X24300000Y38699524D01*
X24347619Y38747143D01*
X24347619Y39128096D02*
X24300000Y39175715D01*
X24252380Y39270953D01*
X24252380Y39509048D01*
X24300000Y39604286D01*
X24347619Y39651905D01*
X24442857Y39699524D01*
X24538095Y39699524D01*
X24680952Y39651905D01*
X25252380Y39080477D01*
X25252380Y39699524D01*
X24252380Y40556667D02*
X24252380Y40366191D01*
X24300000Y40270953D01*
X24347619Y40223334D01*
X24490476Y40128096D01*
X24680952Y40080477D01*
X25061904Y40080477D01*
X25157142Y40128096D01*
X25204761Y40175715D01*
X25252380Y40270953D01*
X25252380Y40461429D01*
X25204761Y40556667D01*
X25157142Y40604286D01*
X25061904Y40651905D01*
X24823809Y40651905D01*
X24728571Y40604286D01*
X24680952Y40556667D01*
X24633333Y40461429D01*
X24633333Y40270953D01*
X24680952Y40175715D01*
X24728571Y40128096D01*
X24823809Y40080477D01*
X50157142Y25623334D02*
X50204761Y25575715D01*
X50252380Y25432858D01*
X50252380Y25337620D01*
X50204761Y25194762D01*
X50109523Y25099524D01*
X50014285Y25051905D01*
X49823809Y25004286D01*
X49680952Y25004286D01*
X49490476Y25051905D01*
X49395238Y25099524D01*
X49300000Y25194762D01*
X49252380Y25337620D01*
X49252380Y25432858D01*
X49300000Y25575715D01*
X49347619Y25623334D01*
X49347619Y26004286D02*
X49300000Y26051905D01*
X49252380Y26147143D01*
X49252380Y26385239D01*
X49300000Y26480477D01*
X49347619Y26528096D01*
X49442857Y26575715D01*
X49538095Y26575715D01*
X49680952Y26528096D01*
X50252380Y25956667D01*
X50252380Y26575715D01*
M02*
