M48
; DRILL file {KiCad 5.1.5-52549c5~86~ubuntu19.10.1} date Sun 19 Apr 2020 07:19:06 PM PDT
; FORMAT={-:-/ absolute / metric / decimal}
; #@! TF.CreationDate,2020-04-19T19:19:06-07:00
; #@! TF.GenerationSoftware,Kicad,Pcbnew,5.1.5-52549c5~86~ubuntu19.10.1
FMAT,2
METRIC
T1C0.250
T2C0.550
T3C0.650
T4C0.700
T5C0.800
T6C1.000
T7C1.016
T8C2.300
T9C2.700
%
G90
G05
T1
X2.402Y18.01
X5.687Y18.08
X5.796Y16.186
X5.8Y4.69
X5.878Y45.284
X6.1Y39.39
X6.4Y31.29
X7.7Y41.19
X7.849Y9.863
X8.0Y27.89
X8.0Y27.29
X8.792Y40.721
X8.866Y35.898
X9.2Y20.74
X9.46Y39.192
X9.85Y20.508
X9.9Y43.09
X10.6Y20.59
X10.7Y42.89
X10.7Y38.49
X11.0Y13.59
X11.1Y33.79
X11.55Y40.258
X11.632Y22.992
X12.1Y24.99
X12.25Y16.39
X12.9Y42.49
X13.3Y28.49
X13.3Y19.258
X13.5Y29.39
X13.546Y32.943
X14.0Y42.424
X14.5Y39.89
X14.6Y37.59
X14.6Y34.89
X15.3Y21.19
X15.963Y22.521
X15.973Y19.258
X16.068Y12.973
X16.284Y28.839
X16.5Y24.64
X16.644Y30.646
X17.0Y22.14
X17.0Y21.59
X17.5Y34.64
X17.5Y22.39
X17.75Y29.64
X17.826Y36.864
X17.993Y27.633
X18.0Y29.14
X18.2Y49.699
X18.217Y16.147
X18.243Y18.647
X18.25Y30.14
X18.426Y36.112
X18.507Y28.147
X18.731Y15.633
X18.75Y29.64
X18.757Y18.133
X18.899Y19.615
X18.924Y28.706
X19.104Y23.836
X19.4Y8.89
X19.99Y32.308
X20.0Y33.39
X20.0Y19.39
X20.075Y18.603
X20.25Y27.817
X20.25Y27.14
X20.25Y17.64
X20.25Y16.89
X20.5Y36.64
X20.964Y25.432
X21.0Y20.39
X21.0Y16.39
X21.25Y38.764
X21.25Y38.036
X21.5Y36.64
X21.518Y49.974
X21.554Y7.836
X21.608Y13.901
X21.908Y28.39
X22.0Y34.39
X22.0Y33.39
X22.0Y31.39
X22.0Y27.39
X22.0Y26.39
X22.0Y18.39
X22.0Y15.39
X22.0Y14.29
X22.002Y23.384
X22.5Y7.853
X23.0Y31.827
X23.0Y25.39
X23.0Y21.39
X23.0Y20.39
X23.0Y18.39
X23.4Y7.59
X23.562Y36.58
X23.908Y32.39
X23.939Y29.55
X23.95Y1.14
X23.99Y24.472
X24.0Y33.39
X24.0Y17.39
X24.077Y7.608
X24.171Y28.894
X24.7Y3.59
X24.783Y29.493
X24.99Y34.308
X25.0Y32.39
X25.0Y24.39
X25.0Y23.39
X25.0Y19.39
X25.037Y27.39
X25.25Y38.79
X25.55Y40.295
X25.55Y39.567
X25.55Y36.59
X25.9Y5.69
X25.98Y16.406
X25.99Y20.308
X26.0Y32.39
X26.0Y31.39
X26.0Y28.39
X26.0Y27.39
X26.0Y26.39
X26.0Y25.39
X26.0Y24.39
X26.0Y23.39
X26.0Y22.39
X26.0Y21.39
X26.0Y18.39
X26.1Y12.79
X26.827Y40.295
X26.827Y39.567
X27.0Y34.39
X27.0Y32.39
X27.0Y28.39
X27.0Y27.39
X27.0Y26.39
X27.0Y24.39
X27.0Y22.39
X27.0Y21.39
X27.0Y20.39
X27.0Y12.79
X27.187Y30.498
X27.25Y42.14
X27.25Y38.79
X27.5Y36.59
X27.9Y12.79
X28.0Y32.39
X28.0Y30.39
X28.0Y28.39
X28.0Y27.39
X28.0Y25.39
X28.0Y24.39
X28.0Y23.39
X28.0Y22.39
X28.0Y21.39
X28.0Y16.356
X28.6Y13.827
X28.936Y26.454
X28.986Y27.402
X28.988Y16.402
X29.0Y30.39
X29.0Y29.39
X29.0Y28.39
X29.0Y24.39
X29.0Y23.39
X29.0Y21.39
X29.0Y20.39
X29.0Y19.446
X29.4Y12.79
X29.5Y36.59
X29.5Y13.827
X29.506Y35.238
X29.603Y34.232
X29.967Y19.446
X30.0Y31.39
X30.0Y30.39
X30.0Y29.39
X30.0Y28.39
X30.0Y27.39
X30.0Y26.39
X30.0Y22.39
X30.0Y21.39
X30.0Y20.39
X30.024Y15.373
X30.1Y23.19
X30.2Y12.79
X30.5Y38.79
X30.5Y36.59
X30.5Y5.19
X30.919Y18.39
X30.957Y16.345
X31.0Y38.19
X31.0Y33.39
X31.0Y32.39
X31.0Y30.39
X31.0Y29.39
X31.0Y24.39
X31.0Y22.39
X31.0Y12.79
X31.429Y8.861
X31.67Y13.807
X31.989Y22.308
X32.0Y29.39
X32.0Y24.39
X32.0Y20.39
X32.0Y19.39
X32.36Y10.181
X32.411Y13.807
X32.99Y22.308
X32.99Y27.424
X33.0Y36.64
X33.0Y34.39
X33.0Y25.403
X33.0Y24.39
X33.0Y20.39
X33.0Y16.39
X33.022Y15.436
X33.816Y13.782
X33.979Y32.455
X33.99Y22.308
X33.99Y19.308
X34.0Y33.39
X34.0Y28.456
X34.0Y24.39
X34.0Y21.39
X34.492Y13.807
X35.0Y35.39
X35.0Y24.39
X35.05Y31.224
X35.516Y13.677
X35.526Y16.18
X35.732Y25.78
X35.82Y21.288
X36.0Y3.49
X36.019Y35.439
X36.02Y20.438
X36.035Y27.423
X36.05Y28.29
X36.099Y18.638
X36.369Y32.56
X36.574Y17.781
X36.75Y35.14
X36.811Y6.819
X36.986Y22.324
X36.986Y21.376
X37.0Y34.39
X37.0Y18.39
X37.0Y16.39
X37.0Y11.49
X37.0Y10.89
X37.0Y10.29
X37.01Y19.378
X37.135Y22.984
X37.234Y25.291
X37.393Y29.622
X37.421Y14.061
X37.739Y18.287
X37.888Y19.436
X37.899Y34.615
X38.0Y32.39
X38.0Y22.39
X38.0Y21.39
X38.0Y16.39
X38.074Y17.18
X38.573Y15.64
X38.7Y48.39
X38.748Y26.732
X38.907Y19.391
X38.918Y21.385
X38.929Y22.377
X38.956Y27.434
X39.0Y33.39
X39.0Y18.39
X39.008Y24.451
X39.029Y29.419
X39.25Y15.64
X39.53Y19.127
X39.75Y39.504
X39.75Y38.776
X39.99Y26.472
X40.0Y31.39
X40.2Y21.19
X40.71Y25.796
X40.75Y38.39
X40.753Y19.915
X40.826Y35.856
X40.97Y8.873
X40.997Y16.397
X41.021Y26.397
X41.122Y27.109
X41.2Y33.19
X41.236Y15.763
X41.25Y28.39
X41.25Y21.14
X41.4Y22.39
X41.44Y14.03
X41.5Y14.64
X41.7Y31.49
X41.7Y30.79
X41.7Y30.008
X41.8Y21.424
X41.8Y20.89
X41.804Y27.993
X41.904Y8.59
X42.0Y19.14
X42.1Y31.09
X42.312Y25.635
X42.602Y26.586
X42.9Y35.59
X43.5Y25.49
X43.7Y21.79
X44.0Y31.64
X44.5Y19.89
X44.84Y40.072
X45.0Y20.39
X45.816Y43.392
X45.9Y22.39
X45.905Y32.695
X46.2Y13.29
X46.25Y12.64
X46.25Y11.89
X47.276Y47.234
X47.7Y33.69
X47.734Y15.772
X48.0Y6.64
X48.2Y36.99
X48.3Y27.69
X48.381Y26.971
X48.381Y17.571
X48.8Y33.69
X48.8Y24.49
X48.886Y28.772
X49.12Y43.308
X49.172Y38.758
X49.7Y17.59
X49.798Y7.188
X50.103Y38.88
X50.4Y27.29
X50.5Y43.64
X50.688Y7.764
X51.0Y14.69
X51.2Y43.64
X51.3Y17.59
X51.4Y15.09
X51.75Y32.64
X51.8Y15.49
X52.25Y13.504
X52.25Y12.776
X52.4Y31.99
X52.5Y22.39
X53.1Y22.39
X53.5Y28.49
X53.7Y22.39
X53.8Y23.59
X54.1Y47.19
X54.1Y46.39
X54.3Y22.39
X54.486Y15.37
T2
X22.0Y4.44
X26.0Y4.44
T3
X30.0Y2.46
X30.0Y1.19
T4
X34.49Y44.5
X34.99Y46.0
X36.49Y44.5
X37.49Y46.0
X38.49Y44.5
X39.49Y46.0
X40.49Y44.5
X41.99Y46.0
X42.49Y44.5
X17.49Y44.5
X17.99Y46.0
X19.49Y44.5
X20.49Y46.0
X21.49Y44.5
X22.49Y46.0
X23.49Y44.5
X24.99Y46.0
X25.49Y44.5
T6
X10.8Y8.19
X14.46Y6.33
X14.46Y3.79
X14.46Y1.25
X17.0Y6.33
X17.0Y3.79
X17.0Y1.25
X43.13Y6.33
X43.13Y3.79
X43.13Y1.25
X45.67Y6.33
X45.67Y3.79
X45.67Y1.25
T7
X56.17Y49.51
X56.17Y46.97
X56.17Y44.43
X56.17Y41.89
X56.17Y39.35
X56.17Y36.81
X56.17Y34.27
X56.17Y31.73
X56.17Y29.19
X56.17Y26.65
X56.17Y24.11
X56.17Y21.57
X56.17Y19.03
X56.17Y16.49
X56.17Y13.95
X56.17Y11.41
X56.17Y8.87
X56.17Y6.33
X56.17Y3.79
X56.17Y1.25
X58.71Y49.51
X58.71Y46.97
X58.71Y44.43
X58.71Y41.89
X58.71Y39.35
X58.71Y36.81
X58.71Y34.27
X58.71Y31.73
X58.71Y29.19
X58.71Y26.65
X58.71Y24.11
X58.71Y21.57
X58.71Y19.03
X58.71Y16.49
X58.71Y13.95
X58.71Y11.41
X58.71Y8.87
X58.71Y6.33
X58.71Y3.79
X58.71Y1.25
X1.27Y49.51
X1.27Y46.97
X1.27Y44.43
X1.27Y41.89
X1.27Y39.35
X1.27Y36.81
X1.27Y34.27
X1.27Y31.73
X1.27Y29.19
X1.27Y26.65
X1.27Y24.11
X1.27Y21.57
X1.27Y19.03
X1.27Y16.49
X1.27Y13.95
X1.27Y11.41
X1.27Y8.87
X1.27Y6.33
X1.27Y3.79
X1.27Y1.25
X3.81Y49.51
X3.81Y46.97
X3.81Y44.43
X3.81Y41.89
X3.81Y39.35
X3.81Y36.81
X3.81Y34.27
X3.81Y31.73
X3.81Y29.19
X3.81Y26.65
X3.81Y24.11
X3.81Y21.57
X3.81Y19.03
X3.81Y16.49
X3.81Y13.95
X3.81Y11.41
X3.81Y8.87
X3.81Y6.33
X3.81Y3.79
X3.81Y1.25
T8
X31.92Y48.0
X45.06Y48.0
X14.92Y48.0
X28.06Y48.0
T9
X50.49Y3.89
X50.49Y46.89
X9.49Y46.89
X9.49Y3.89
T5
G00X20.4Y6.11
M15
G01X20.4Y5.41
M16
G05
G00X20.4Y2.64
M15
G01X20.4Y1.94
M16
G05
G00X27.6Y6.11
M15
G01X27.6Y5.41
M16
G05
G00X27.6Y2.64
M15
G01X27.6Y1.94
M16
G05
T0
M30
